<?xml version="1.0" encoding="UTF-8"?>
<svg width="800px" height="800px" viewBox="0 0 800 800" version="1.1" xmlns="http://www.w3.org/2000/svg" xmlns:xlink="http://www.w3.org/1999/xlink">
    <title>black-circle-logo</title>
    <g id="black-circle-logo" stroke="none" stroke-width="1" fill="none" fill-rule="evenodd">
        <path d="M795.492627,400.74376 C795.492627,619.309681 618.309536,796.48752 399.743666,796.48752 C181.177797,796.48752 4,619.309681 4,400.74376 C4,182.177839 181.177797,5 399.743666,5 C618.309536,5 795.492627,182.177839 795.492627,400.74376" id="Fill-1" fill="#1A1919"></path>
        <g id="Group" transform="translate(42.000000, 25.000000)">
            <polygon id="Fill-4" fill="#84BF41" points="347 321 358 321 358 140 347 140"></polygon>
            <polygon id="Fill-5" fill="#84BF41" points="310 321 321 321 321 166 310 166"></polygon>
            <polygon id="Fill-6" fill="#84BF41" points="273 321 284 321 284 220 273 220"></polygon>
            <polygon id="Fill-7" fill="#84BF41" points="240 321 251 321 251 193 240 193"></polygon>
            <polygon id="Fill-8" fill="#84BF41" points="203 321 214 321 214 240 203 240"></polygon>
            <polygon id="Fill-9" fill="#84BF41" points="171 321 182 321 182 273 171 273"></polygon>
            <polygon id="Fill-10" fill="#84BF41" points="97 321 108 321 108 284 97 284"></polygon>
            <polygon id="Fill-11" fill="#84BF41" points="134 321 145 321 145 257 134 257"></polygon>
            <polygon id="Fill-12" fill="#84BF41" points="379 321 390 321 390 166 379 166"></polygon>
            <polygon id="Fill-13" fill="#84BF41" points="416 321 427 321 427 220 416 220"></polygon>
            <polygon id="Fill-14" fill="#84BF41" points="454 321 465 321 465 193 454 193"></polygon>
            <polygon id="Fill-15" fill="#84BF41" points="486 321 497 321 497 240 486 240"></polygon>
            <polygon id="Fill-16" fill="#84BF41" points="524 321 535 321 535 273 524 273"></polygon>
            <polygon id="Fill-17" fill="#84BF41" points="592 321 603 321 603 284 592 284"></polygon>
            <polygon id="Fill-18" fill="#84BF41" points="561 321 572 321 572 257 561 257"></polygon>
            <polyline id="Fill-19" fill="#FFFFFF" points="149 430.080634 149 460 43 460 43 348 80.319205 348 80.319205 430.080634 149 430.080634"></polyline>
            <path d="M287.397809,407 C287.397809,388.80704 274.141235,378.214551 252.421639,378.214551 C230.864169,378.214551 217.445468,388.80704 217.445468,407 C217.445468,425.19296 230.702042,435.785449 252.421639,435.785449 C274.141235,435.785449 287.397809,425.19296 287.397809,407 Z M178,407 C178,369.195682 207.707047,348 252.421639,348 C297.298357,348 327,369.195682 327,407 C327,444.804318 297.298357,466 252.421639,466 C207.707047,466 178,444.804318 178,407 L178,407 Z" id="Fill-20" fill="#FFFFFF"></path>
            <path d="M491,354 L491,411.315735 C491,444.77525 467.163776,466 424.577966,466 C381.992157,466 358,444.77525 358,411.315735 L358,354 L396.773519,354 L396.773519,408.374988 C396.773519,424.483572 405.355205,436.105027 424.577966,436.105027 C443.650172,436.105027 452.226481,424.483572 452.226481,408.374988 L452.226481,354 L491,354" id="Fill-21" fill="#FFFFFF"></path>
            <path d="M628.226779,404 C628.226779,387.042444 615.298859,377.762351 594.428673,377.762351 L571.998494,377.762351 L571.998494,430.237649 L594.428673,430.237649 C615.298859,430.237649 628.226779,420.957556 628.226779,404 Z M667,404 C667,439.360727 639.905651,460 597.54339,460 L534,460 L534,348 L597.54339,348 C639.905651,348 667,368.482259 667,404 L667,404 Z" id="Fill-22" fill="#FFFFFF"></path>
            <path d="M230.028787,415.702144 L225,415.702144 C225,396.76697 239.046832,385 261.66318,385 L261.66318,389.997292 C241.859364,389.997292 230.028787,399.609081 230.028787,415.702144 Z M261.66318,476 L261.66318,471.002708 C305.687491,471.002708 331.971213,450.331854 331.971213,415.702144 L337,415.702144 C337,452.896047 308.135925,476 261.66318,476 L261.66318,476 Z" id="Fill-23" fill="#FFFFFF"></path>
            <path d="M95.9900744,423.260183 L101.083413,423.260183 L101.083413,364 L95.9900744,364 L95.9900744,423.260183 Z M172,476 L60,476 L60,470.956242 L166.906662,470.956242 L166.906662,444.22909 L172,444.22909 L172,476 L172,476 Z" id="Fill-24" fill="#FFFFFF"></path>
            <path d="M412,414.036628 L416.951453,414.036628 L416.951453,358 L412,358 L412,414.036628 Z M441.339828,476 L441.339828,470.851243 C479.979867,470.851243 503.048547,450.74786 503.048547,417.072936 L503.048547,358 L508,358 L508,417.072936 C508,453.973261 483.081669,476 441.339828,476 L441.339828,476 Z" id="Fill-25" fill="#FFFFFF"></path>
            <path d="M580.558373,426.641764 L575.406821,426.641764 L575.406821,391 L600.986194,391 L600.986194,396.017964 L580.558373,396.017964 L580.558373,426.641764 Z M604.180913,476 L539,476 L539,470.982036 L604.180913,470.982036 C647.182585,470.982036 672.848448,451.557827 672.848448,419.027938 L678,419.027938 C678,454.169485 649.717819,476 604.180913,476 L604.180913,476 Z" id="Fill-26" fill="#FFFFFF"></path>
            <polyline id="Fill-27" fill="#FFFFFF" points="134.05668 519.347603 134.05668 536.150685 169.65722 536.150685 169.65722 541.498288 134.05668 541.498288 134.05668 562 128 562 128 514 176 514 176 519.347603 134.05668 519.347603"></polyline>
            <polyline id="Fill-28" fill="#FFFFFF" points="246 556.652397 246 562 203 562 203 514 208.823728 514 208.823728 556.652397 246 556.652397"></polyline>
            <path d="M315.146462,535.002725 C315.146462,521.32149 306.019429,513.67962 291.997451,513.67962 C277.975473,513.67962 268.853538,521.32149 268.853538,535.002725 C268.853538,548.683961 277.975473,556.32583 291.997451,556.32583 C306.019429,556.32583 315.146462,548.683961 315.146462,535.002725 Z M263,535.002725 C263,518.416271 273.891253,508 291.997451,508 C310.108747,508 321,518.416271 321,535.002725 C321,551.59463 310.108747,562 291.997451,562 C273.891253,562 263,551.59463 263,535.002725 L263,535.002725 Z" id="Fill-29" fill="#FFFFFF"></path>
            <polyline id="Fill-30" fill="#FFFFFF" points="423 514 404.792385 562 398.480765 562 382.534504 520.919521 366.519235 562 360.212924 562 342 514 348.518645 514 363.472246 555.008562 379.561832 514 385.581493 514 401.602071 555.008562 416.624681 514 423 514"></polyline>
            <polyline id="Fill-31" fill="#FFFFFF" points="497 556.652397 497 562 449 562 449 514 496.288338 514 496.288338 519.347603 454.95353 519.347603 454.95353 534.912671 489.978978 534.912671 489.978978 540.265411 454.95353 540.265411 454.95353 556.652397 497 556.652397"></polyline>
            <path d="M556.971614,538.27226 C565.002957,538.27226 570.325251,535.328767 570.325251,528.815068 C570.325251,522.296233 565.002957,519.347603 556.971614,519.347603 L529.966292,519.347603 L529.966292,538.27226 L556.971614,538.27226 Z M570.186872,562 L553.698403,543.625 L530.040804,543.625 L530.040804,562 L524,562 L524,514 L557.397398,514 C568.483737,514 576.440568,519.347603 576.440568,528.815068 C576.440568,537.172945 570.186872,542.386986 561.016558,543.419521 L578,562 L570.186872,562 L570.186872,562 Z" id="Fill-32" fill="#FFFFFF"></path>
            <path d="M614,535.5 C614,538.539741 611.529575,541 608.5,541 C605.460259,541 603,538.539741 603,535.5 C603,532.460259 605.460259,530 608.5,530 C611.529575,530 614,532.460259 614,535.5" id="Fill-33" fill="#FFFFFF"></path>
            <path d="M97,535.5 C97,538.539741 94.5397412,541 91.5,541 C88.465342,541 86,538.539741 86,535.5 C86,532.460259 88.465342,530 91.5,530 C94.5397412,530 97,532.460259 97,535.5" id="Fill-34" fill="#FFFFFF"></path>
            <path d="M557.386369,83.8706915 C652.471911,147.879642 715,256.272258 715,379.215758 C715,521.197599 631.611362,643.783597 510.962944,701 M204.042411,701 C83.3939941,643.788932 0,521.202935 0,379.215758 C0,254.415379 64.4293718,144.603425 161.957124,81" id="Stroke-35" stroke="#FFFFFF" stroke-width="1.65"></path>
            <polyline id="Fill-36" fill="#FFFFFF" transform="translate(204.000000, 57.000000) rotate(1.000000) translate(-204.000000, -57.000000) " points="217.676238 28 236 64.0667917 233.246109 65.3926243 216.861257 33.1376016 208.759384 66.1228681 208.551644 66.2264488 176.639534 52.4502188 193.01906 84.7052415 190.318435 86 172 49.9383874 175.014898 48.4830788 206.719268 62.2334137 214.762547 29.3983391 217.676238 28"></polyline>
            <polyline id="Fill-37" fill="#FFFFFF" points="249.185281 60 236 18.0852816 238.814719 17 252 58.9147184 249.185281 60"></polyline>
            <path d="M301.809761,35.7280787 L305,36.4780111 C302.541418,42.9397573 296.585947,47.9016387 286.880735,50.0743881 C271.768794,53.4593569 260.772423,47.3725768 257.70592,34.8856889 C254.639417,22.4039374 261.660095,12.2849866 276.885012,8.87433521 C286.471868,6.7272685 294.121985,8.64832819 299.33504,13.3893391 L296.822659,15.4182658 C292.07227,11.0368115 285.45508,9.82459201 277.492932,11.6069656 C264.769636,14.457736 257.953392,22.655627 260.788562,34.1973947 C263.618352,45.7391624 273.544138,50.1925281 286.272814,47.3417577 C294.234961,45.5593841 299.65245,41.6556265 301.809761,35.7280787" id="Fill-38" fill="#FFFFFF"></path>
            <polyline id="Fill-39" fill="#FFFFFF" points="358.050405 2 361 42.1970063 357.757138 42.3994447 356.364117 23.4480927 317.805076 25.8462096 319.198097 44.7975616 315.955234 45 313 4.80299372 316.248502 4.60055529 317.596405 22.9757364 356.155446 20.5776195 354.807543 2.20243844 358.050405 2"></polyline>
            <polyline id="Fill-40" fill="#FFFFFF" points="373.312 42.8673351 375.232 0 378.688 0.132664867 376.768 43 373.312 42.8673351"></polyline>
            <path d="M435.505304,39.246119 C431.39623,45.5008018 422.326267,49.2857134 410.802645,47.5977774 C395.111019,45.2988708 387.305386,35.6734938 389.309028,22.8897091 C391.323385,10.0541473 401.721967,3.15224972 417.295732,5.43044545 C427.169295,6.88020638 433.394515,11.2812663 436.662488,16.9249785 L433.737385,18.3022514 C430.683705,12.8552925 425.085293,9.42246571 416.861788,8.21605751 C403.752396,6.29512429 394.280632,11.4728419 392.421638,23.3453483 C390.568001,35.1608998 398.073624,42.8860544 411.29552,44.8225208 C420.354769,46.1480165 428.433626,44.0769295 432.569486,38.0034668 L433.517734,31.9817812 L413.293805,29.0201268 L413.722391,26.2914696 L437,29.7035855 L435.505304,39.246119" id="Fill-41" fill="#FFFFFF"></path>
            <path d="M476.233741,47.8580558 L470.793777,21.2398251 L450.980231,39.8230743 L476.233741,47.8580558 Z M476.842974,51.0655903 L448.624172,42.0834174 L438.304953,51.7706021 L435,50.7211571 L470.076716,18 L473.381669,19.049445 L483,66 L479.695047,64.950555 L476.842974,51.0655903 L476.842974,51.0655903 Z" id="Fill-42" fill="#FFFFFF"></path>
            <polyline id="Fill-43" fill="#FFFFFF" points="545 48.9761296 525.831661 87 523.356748 85.7253955 507.10935 33.9995264 489.741442 68.4358246 487 67.0238704 506.173778 29 509.290537 30.6042436 525.200694 81.4071232 542.263997 47.5641754 545 48.9761296"></polyline>
            <polyline id="Fill-44" fill="#FFFFFF" points="245.65526 693.469369 239.987326 708.183253 266.963245 718.081594 265.989861 720.595773 239.019011 710.697432 232.742712 727 230 725.995318 243.865653 690 278 702.526351 277.046895 704.991038 245.65526 693.469369"></polyline>
            <path d="M306.707467,733.051401 L298.887891,706.250752 L281.4515,727.338967 L306.707467,733.051401 Z M307.606087,736.279926 L279.380994,729.895115 L270.300197,740.897661 L267,740.147488 L297.878914,703 L301.184366,703.744617 L315,751 L311.694548,750.249826 L307.606087,736.279926 L307.606087,736.279926 Z" id="Fill-45" fill="#FFFFFF"></path>
            <path d="M353.142475,730.924442 C360.634384,731.196526 365.452853,727.995533 365.667356,721.780273 C365.881859,715.629032 361.304052,712.081266 353.812143,711.809181 L330.368536,710.955583 L329.698868,730.070844 L353.142475,730.924442 Z M365.050006,750.85062 L351.421219,733.709305 L329.657014,732.909057 L329.071055,749.538213 L326,749.431514 L327.449203,708 L354.089427,708.976303 C363.140406,709.301737 369.015695,714.140571 368.743643,721.892308 C368.487286,729.174566 363.103784,733.479901 355.135783,733.77866 L369,751 L365.050006,750.85062 L365.050006,750.85062 Z" id="Fill-46" fill="#FFFFFF"></path>
            <polyline id="Fill-47" fill="#FFFFFF" points="430.320652 703 437 743.094979 433.902174 743.570744 427.934783 707.715826 409.815217 737.181897 409.576087 737.218495 382.73913 714.679773 388.711957 750.534691 385.668478 751 379 710.905021 382.391304 710.387431 409.027174 732.837273 427.048913 703.501906 430.320652 703"></polyline>
            <path d="M490.387793,715.014447 C492.867679,722.167779 487.817632,730.403411 475.163308,735.347046 C466.210228,738.847612 457.161563,738.988537 450.114862,735.144114 L451.463665,732.150876 C458.149269,735.865648 466.04561,735.651443 474.276496,732.427088 C484.939477,728.261358 489.453189,721.90284 487.514948,716.333501 C485.544845,710.640148 478.530006,711.581524 467.038627,714.811515 C456.688951,717.720199 446.190588,719.28728 443.503602,711.547702 C440.90158,704.03924 448.744818,696.248929 458.690915,692.359411 C467.091729,689.078686 474.611042,689.411268 480.149632,692.17339 L478.572488,695.053889 C473.177275,692.162116 466.672219,692.573616 459.800757,695.194813 C452.313305,698.047127 444.374483,704.28163 446.472031,710.324476 C448.442134,716.012193 457.039427,714.383105 467.038627,711.547702 C478.949516,708.092231 487.722047,707.325601 490.387793,715.014447" id="Fill-48" fill="#FFFFFF"></path>
        </g>
    </g>
</svg>