<?xml version="1.0" encoding="utf-8"?>
<svg xmlns="http://www.w3.org/2000/svg" data-name="Layer 1" id="Layer_1" viewBox="0 0 200 52.7">
  <defs>
    <style>.cls-1{fill:#d29e0e;}.cls-2{fill:#201646;}</style>
  </defs>
  <path class="cls-1" d="M34.38,36.67a18.5,18.5,0,0,1-9.25,16,18.5,18.5,0,0,1-9.25-16Z"/>
  <path class="cls-2" d="M34.38,36.83H15.88a18.47,18.47,0,0,1,9.25-16,18.48,18.48,0,0,1,9.25,16"/>
  <path class="cls-2" d="M24.52,16.22H.12a14.09,14.09,0,0,1,24.4,0"/>
  <path class="cls-2" d="M23.3,19,.63,41.64A18.51,18.51,0,0,1,23.3,19"/>
  <path class="cls-2" d="M50.15,16.22H25.74a14.1,14.1,0,0,1,24.41,0"/>
  <path class="cls-2" d="M49.63,41.64,27,19A18.51,18.51,0,0,1,49.63,41.64"/>
  <path class="cls-2" d="M30.9,5.77A5.77,5.77,0,1,1,25.13,0,5.76,5.76,0,0,1,30.9,5.77"/>
  <path class="cls-2" d="M64.31,41.27,66.17,41c1.67-.21,2.24-.52,2.24-.93V11.69c0-.42-.32-.62-2.7-.88l-1.35-.21-.16-.88H81.43l-.15.88-2.18.26c-1.35.1-2.24.41-2.24.93v29l1.82.26c5.19,0,8.41-2.18,11.89-9.75l.57-1.25h1.6L91.29,42.15H64.15Z"/>
  <path class="cls-2" d="M123.28,41.27l.73-.05c1.51-.11,2.08-.26,2.08-.88V26.74c0-3.22-.42-3.63-2.18-4.15l-1-.26,0-.68,10.8-3-.11,4.52h.11c2.49-2.29,5.6-4.57,8.77-4.57a5.77,5.77,0,0,1,5.7,4.62l.26.05c2.6-2.49,5.71-4.67,9-4.67a5.82,5.82,0,0,1,4.26,1.87c1.24,1.25,1.76,3.63,1.76,7.58v12.3c0,.36.11.57,2.49.88l.57.05.16.88H153.23l.15-.88.89-.05c1.71-.11,1.66-.47,1.66-.88V28.24c0-3.89-1.61-4.93-4.15-4.93-1.41,0-2.81.52-3.22,1.35V40.44c0,.41.21.52,2.13.78l.67.05.16.88H138.28l.16-.88.88-.05c1.51-.11,1.71-.47,1.71-.88V28.24c0-3.89-1.66-4.93-4.2-4.93a6.68,6.68,0,0,0-3.22.94V40.39c0,.46.16.67,2.08.83l.72.05.16.88H123.13Z"/>
  <path class="cls-2" d="M181.63,26.58c.05-3.42-.68-6.79-3.07-6.79-2,0-3.78,2.38-4.15,6.84Zm-15.21,4.73a12.6,12.6,0,0,1,12.87-12.82c6.12,0,9.29,3.89,9.29,7.78a7.18,7.18,0,0,1-.16,1.56s-12-.16-14-.26c0,.47,0,1.3,0,1.76,0,5.45,2.85,9.24,7.42,9.24a6.9,6.9,0,0,0,6.38-4l.63.32C187,40.08,183.34,43,177.63,43c-6.33,0-11.21-4.88-11.21-11.67"/>
  <path class="cls-2" d="M111.3,42.15h10.48l-.16-.88s-1.72-.14-2.24-.27a.57.57,0,0,1-.56-.61V38h0V19.37H107.87l.21.88.78.05c2.12.16,2.49.32,2.49.83V35.07l0,2.06a6.64,6.64,0,0,1-3.3,1c-2.55,0-4.21-1-4.1-4.88l.15-13.91H93l.15.88.78.05c2.39.26,2.6.47,2.6.73l-.11,13.7c-.1,2.7.47,4.93,1.71,6.23a5.43,5.43,0,0,0,4.1,1.92c3.22,0,6.28-2.18,9-4.57h.08l0,2Z"/>
  <path class="cls-2" d="M200,38.6a4.08,4.08,0,1,1-4.08-4.08A4.08,4.08,0,0,1,200,38.6"/>
</svg>