<svg xmlns="http://www.w3.org/2000/svg" xmlns:xlink="http://www.w3.org/1999/xlink" id="Layer_1" x="0px" y="0px" width="986.0234px" height="538.8521px" viewBox="0 0 986.0234 538.8521" xml:space="preserve"><g>	<path fill="#006AC6" d="M0,328.1021c0.4663-0.6445,1.3091-0.916,1.3442-1.2676c0.6758-6.7656,4.6455-12.1113,7.7266-17.7969   c4.7935-8.8457,9.8726-17.5371,14.8325-26.291c8.2891-14.6328,16.5967-29.2534,24.8623-43.8989   c5.7041-10.1074,11.3271-20.2617,17.0273-30.3721c8.3164-14.751,16.6875-29.4707,25-44.2236   c5.873-10.4238,11.6611-20.8955,17.5361-31.3179c8.1396-14.4404,16.3672-28.8315,24.4785-43.2881   c7.127-12.7031,14.083-25.5024,21.2324-38.1929c5.6377-10.0078,11.1172-20.1289,17.2783-29.811   c7.4375-11.6899,18.4307-19.3159,32.042-21.0693c17.3379-2.2329,33.1289,2.2432,44.0625,17.0464   c5.9561,8.063,10.9053,16.8818,16.1338,25.4668c11.0771,18.1895,22.0527,36.4414,33.0469,54.6821   c10.2012,16.9243,20.3604,33.8745,30.5605,50.7998c10.9932,18.2412,22.0234,36.4604,33.0166,54.7017   c9.4053,15.606,18.7295,31.2603,28.1846,46.835c7.002,11.5313,13.9238,23.1226,21.3193,34.3979   c5.6162,8.5645,14.1602,13.1641,24.0967,15.0332c12.2822,2.3086,23.5137-0.4297,32.8955-8.6543   c7.8379-6.873,13.0586-15.5332,14.0381-26.2368c1.2119-13.249-2.1338-25.5464-8.207-37.167   c-9.4395-18.0625-18.9502-36.0889-28.5742-54.0537c-8.5049-15.8755-17.1924-31.6543-25.8242-47.4619   c-9.9395-18.2002-19.958-36.3579-29.8398-54.5894c-4.9063-9.0508-10.4453-17.8887-14.168-27.4204   c-5.8477-14.9727,1.2529-32.4634,15.4668-39.9443c11.5693-6.0894,24.8613-4.7363,35.5527,3.0967   c5.9512,4.3608,8.96,10.6328,12.3164,16.7173c8.1875,14.8423,16.1924,29.7861,24.3008,44.6729   c10.1465,18.6284,20.3203,37.2422,30.4883,55.8589c8.4063,15.3906,16.8223,30.7759,25.2334,46.1641   c1.249,2.2852,2.1973,4.8208,3.835,6.7813c1.332,1.5957,3.4844,3.4409,5.2793,3.4482c1.7246,0.0068,4.127-1.8271,5.0801-3.5059   c7.1934-12.6758,14.0898-25.5195,21.1025-38.2983c9.4121-17.1509,18.8506-34.2881,28.2676-51.4365   c10.8945-19.8384,21.7285-39.7104,32.6992-59.5073c3.0352-5.4766,6.2383-10.8887,9.7646-16.0581   c4.6689-6.8472,11.7959-10.3521,19.6504-11.4565c7.6855-1.0801,15.5225-0.5645,22.5127,3.708   c8.7764,5.3662,13.9824,13.0313,16.1455,23.209c2.2363,10.5186-2.3076,19.0254-6.8926,27.6084   c-4.8008,8.9858-9.9141,17.8047-14.8398,26.7246c-9.1602,16.5942-18.3047,33.1963-27.415,49.8188   c-5.8652,10.7007-11.6143,21.4653-17.4893,32.1606c-9.0703,16.5107-18.2168,32.9795-27.3037,49.481   c-5.6016,10.1709-11.1729,20.3584-16.7256,30.5562c-10.1973,18.7305-20.2568,37.5366-30.6016,56.1851   c-5.1045,9.2031-10.4248,18.3145-16.1748,27.125c-6.834,10.4688-16.6309,17.8086-27.3691,23.9648   c-10.0518,5.7617-20.8154,9.8633-32.1182,11.9668c-11.4609,2.1348-23.0488,2.9922-34.8604,1.8203   c-13.9863-1.3887-27.3799-4.4453-39.6631-11.168c-6.3945-3.5-12.2295-8.1035-18.0439-12.5645   c-13.9512-10.7051-21.7949-26.0977-30.6533-40.6816c-10.3809-17.0898-20.7275-34.2036-31.041-51.3354   c-8.3008-13.7886-16.4912-27.6436-24.8027-41.4253c-11.4248-18.9468-22.9473-37.8354-34.373-56.7817   c-9.0439-14.9971-18.002-30.0459-27.0088-45.0654c-2.7383-4.5664-5.4795-9.1318-8.2852-13.6567   c-2.4414-3.9365-8.208-3.5947-10.4219,0.6377c-6.876,13.145-13.708,26.3135-20.5488,39.4771   c-9.6299,18.5308-19.2422,37.0708-28.8838,55.5952c-4.709,9.0469-9.5127,18.0444-14.1875,27.1089   c-3.2773,6.354-1.8037,8.7183,5.2637,8.7183c26.626,0.0015,53.252-0.001,79.8779,0.0005   c15.0752,0.001,28.4805,12.498,30.9424,26.1172c2.0449,11.311-0.6934,21.1187-8.3311,29.27   c-6.2715,6.6934-14.4697,10.3262-23.7705,10.3516c-39.5166,0.1025-79.0352,0.1699-118.5508-0.0762   c-6.877-0.043-11.4043,2.752-14.6816,8.2139c-9.9863,16.6377-19.9814,33.2744-29.7471,50.042   c-7.7881,13.373-19.5049,19.3809-33.5024,17.5879c-14.1533-1.8105-25.4897-11.3496-28.2158-27.0176   c-0.062-0.3555-0.5254-0.6406-1.0903-0.9766C0,334.2563,0,331.3462,0,328.1021z"></path>	<path fill="#006AC6" d="M986.0234,124.2959c-0.4658,0.6494-1.2715,0.8916-1.3506,1.2808   c-3.9678,19.6772-14.1504,35.731-29.1943,48.6245c-11.7354,10.0571-25.4365,16.9502-40.2773,21.1021   c-10.0908,2.8232-20.4375,4.915-30.793,6.5562c-8.5586,1.3569-17.2998,1.5596-25.9551,2.3203   c-0.8496,0.0747-1.6699,0.4746-2.2393,0.644c4.0898,4.4683,8.0127,8.7749,11.9678,13.0498   c0.5586,0.6035,1.3262,1.0088,1.9209,1.5845c8.1172,7.8525,16.1787,15.7627,24.3398,23.5703   c8.749,8.3706,17.582,16.6528,26.3877,24.9644c8.3682,7.8984,16.7598,15.7715,25.1182,23.6797   c5.3652,5.0781,10.7803,10.1074,16.0059,15.3281c5.707,5.7012,8.1943,12.6934,8.2305,20.793   c0.0361,8.0801-1.2285,15.502-6.0518,22.377c-10.9883,15.666-32.833,20.1816-48.5771,9.2578   c-4.9131-3.4102-9.2383-7.7441-13.5146-11.9766c-16.0127-15.8496-31.9385-31.7852-47.8115-47.7734   c-20.0947-20.2402-40.126-40.5435-60.1445-60.8599c-8.7725-8.9028-17.6816-17.6875-26.0967-26.9204   c-9.6221-10.5571-13.0732-23.0425-9.041-36.979c4.2285-14.6201,14.5684-22.9224,29.043-26.291   c3.4434-0.8018,7.1191-0.8174,10.6895-0.8257c26.8662-0.0635,53.7363-0.2876,80.5986,0.0503   c19.2402,0.2422,37.2422-15.8096,39.5977-34.8691c1.8086-14.6289-1.5498-27.4775-12.3359-37.6812   c-7.0742-6.6929-15.8652-10.354-25.7197-10.6177c-8.9092-0.2383-17.8301,0.0439-26.7441-0.0771   c-8.1494-0.1108-16.2949-0.6382-24.4424-0.6523c-12.3291-0.0215-23.0205,4.0107-32.3047,12.4736   c-9.2061,8.3921-15.7949,18.5435-21.5811,29.2944c-8.5439,15.876-16.7227,31.9478-25.0928,47.9175   c-6.9365,13.2354-13.9229,26.4438-20.8896,39.6631c-9.3994,17.8359-18.8008,35.6714-28.2012,53.5073   c-6.9668,13.2197-13.8506,26.4844-20.9238,39.6484c-7.0098,13.0449-13.6348,26.3477-21.459,38.8945   c-12.1211,19.4395-38.2598,21.5938-54.1514,6.9785c-11.5176-10.5918-14.4668-27.584-7.5107-41.2734   c9.4482-18.5957,19.6885-36.7896,29.625-55.1362c12.1357-22.4082,24.332-44.7837,36.457-67.1978   c5.6982-10.5327,11.2451-21.147,16.9404-31.6812c10.8799-20.1255,21.8291-40.2134,32.7256-60.3296   c6.6055-12.1943,12.7715-24.6475,19.8652-36.5488c5.9824-10.0356,15.0205-17.249,25.0273-23.2144   c12.6025-7.5132,26.4346-11.3955,40.7598-13.6377c5.9863-0.937,12.0889-1.3169,18.1533-1.5273   c17.6182-0.6104,35.2656-1.7588,52.8613-1.2695c16.6621,0.4629,33.4658,1.832,49.1416,8.4941   c11.4883,4.8828,22.2373,11.1724,32.0176,18.9502c11.7285,9.3301,21.3213,20.5176,27.1719,34.4355   c2.6377,6.2734,4.2373,12.9824,6.332,19.4858c0.2041,0.6323,0.5801,1.2095,1.1514,1.6797   C986.0234,96.9395,986.0234,110.4482,986.0234,124.2959z"></path>	<path fill="#006AC6" d="M487.2285,458.0083c9.0654,1.6563,16.0586,6.4277,21.1367,14.0723   c4.8379,7.2813,6.4688,15.375,6.3652,24.0039c-0.1309,10.9512-0.1357,21.9082,0.0254,32.8613   c0.0547,3.7383-0.1113,7.1543-3.1973,9.7324c-2.4209,0.1738-5.0908,0.1738-7.8506-0.0098   c-3.5635-2.2617-4.3584-5.332-4.2754-9.2715c0.2422-11.4336,0.2549-22.8809,0.0176-34.3145   c-0.126-6.1152-1.7412-11.9414-5.8799-16.7539c-6.3242-7.3496-14.877-8.3418-23.5596-7.1914   c-5.0039,0.6641-9.7617,3.0625-13.3184,7.3164c-4.7051,5.627-6.0723,12.2656-6.2676,19.1953   c-0.2578,9.1445-0.04,18.3027-0.0732,27.4531c-0.0176,4.748,0.9824,9.7578-3.1777,13.543c0.0986,0.0684,0.1973,0.1387,0.2959,0.207   c-2.6699,0-5.3389,0-8.3418,0c-0.2344-0.0684-0.1357-0.1367-0.0371-0.207c-4.1885-3.9102-3.1768-9.0254-3.1797-13.8848   c-0.0146-30.4238-0.0107-60.8496-0.0029-91.2754c0.001-3.6895,1.9775-6.6152,4.9209-7.3984   c3.6074-0.959,6.9521,0.1719,8.7119,3.2402c0.5986,1.0449,0.7803,2.4512,0.7871,3.6953   c0.0566,11.4199,0.0332,22.8418,0.0332,34.6289c2.9238-2.1992,5.5225-4.3105,8.2783-6.1934   c4.7246-3.2246,10.2119-4.1426,16.1563-4.4277c2.0703,2.0156,3.6631,1.8926,5.2041,0.2559   c0.5439-0.0313,1.0869-0.0625,2.0361,0.1445C483.9502,459.0181,485.4883,459.9419,487.2285,458.0083z"></path>	<path fill="#006AC6" d="M594.5557,538.8521c-0.7285-0.4863-1.0244-1.2461-1.5225-1.416   c-16.1299-5.4941-25.2266-17.1777-27.4902-33.5566c-1.668-12.0645,0.8984-23.6055,9.1445-33.4316   c8.2754-9.8594,18.8828-14.2207,31.4365-14.7383c11.3154-0.4668,21.624,2.1367,30.624,9.3516   c7.0449,5.6445,11.6553,12.9805,13.5742,21.541c2.2988,10.2559,1.8535,20.6563-2.8877,30.3555   c-5.1152,10.4629-13.3633,17.377-24.6104,20.6328c-0.2959,0.0859-0.4961,0.498-0.5781,1.0098   C613.2383,538.8521,604.0664,538.8521,594.5557,538.8521 M587.6953,516.7876c7.0869,7.4844,15.6309,10.0332,25.8311,8.4063   c19.1533-3.0547,26.3896-22.6406,20.4727-38.3047c-4.4141-11.6816-16.917-19.4121-30.6729-16.7461   c-10.3271,2.002-17.6787,7.7852-21.0195,17.5801C578.8252,497.9302,580.3184,507.7876,587.6953,516.7876z"></path>	<path fill="#006AC6" d="M345.5117,470.8169c5.2246-7.2461,12.4707-11.5469,20.958-13.5938   c14.5947-3.5215,28.249-1.627,40.4248,7.8496c7.1592,5.5723,11.7207,12.9395,13.5605,21.5488   c2.1904,10.252,1.9131,20.6367-2.8896,30.3418c-5.166,10.4395-13.375,17.373-24.6221,20.6289   c-0.2949,0.084-0.4961,0.4961-0.5771,1.0078c-8.7666,0.252-17.6982,0.252-26.9678,0.252c-0.9551-0.5449-1.4824-1.332-2.2021-1.5957   c-13.8486-5.0703-22.4775-14.916-26.002-29.0684c-1.0176-4.0879-0.7197-8.502-0.7725-13.1914   c2.3672-1.6523,1.5195-3.1055,0.5664-4.5664c-0.0244-0.123-0.0488-0.2461,0.1533-0.6992   c2.2139-5.5586,4.2012-10.7832,6.1885-16.0078c0,0,0.0146,0.0449,0.2246-0.0488   C344.3467,472.6587,344.9287,471.7388,345.5117,470.8169 M358.5488,517.5239c7.1934,7.25,15.8506,9.1406,25.7676,7.666   c19.4648-2.8926,26.7354-23.7207,20.1563-39.2246c-4.875-11.4863-17.6465-18.4766-30.9258-15.8242   c-10.71,2.1387-18.0469,8.0684-21.3125,18.5313C348.9531,499.186,350.9707,508.7524,358.5488,517.5239z"></path>	<path fill="#006AC6" d="M537.4414,538.8521c-0.1904-0.1465-0.0479-0.291,0.0957-0.4375   c-4.5723-3.4922-4.0791-8.4766-4.0645-13.3965c0.0527-18.9043,0.0117-37.8086,0.0264-56.7129   c0.0049-5.8613,2.3301-8.2793,5.5234-9.1992c5.3652-1.5449,10.3535,1.8047,10.3613,7.3242   c0.0303,21.5527-0.0107,43.1074,0.0371,64.6602c0.0068,3.3203-1.6689,5.5273-3.8799,7.5742   C543.1133,538.8521,540.4434,538.8521,537.4414,538.8521z"></path>	<path fill="#006AC6" d="M536.3193,447.3052c-4.8867-3.2832-5.5566-8.7754-2.0605-14.4395   c1.0752-1.7422,1.3105-4.0898,4.2715-3.9336c3.9531,0.209,8.0908-0.6895,10.9951,3.2539   c2.6201,3.5586,2.8584,8.9512,0.2881,12.6035c-2.165,3.0762-7.126,4.5488-11.2578,3.3398   C537.8779,447.9302,537.2051,447.7134,536.3193,447.3052z"></path>	<path fill="#006AC6" d="M343.1016,473.8364c-1.7588,5.1113-3.7461,10.3359-5.9238,15.7109   C337.6201,483.9497,339.7109,478.7485,343.1016,473.8364z"></path>	<path fill="#006AC6" d="M486.9463,457.9497c-1.458,1.9922-2.9961,1.0684-4.6406-0.4727   C483.667,457.4868,485.165,457.688,486.9463,457.9497z"></path>	<path fill="#006AC6" d="M479.6855,457.2368c-1.2266,1.6855-2.8193,1.8086-4.6172,0.002   C476.4063,457.0806,477.8887,457.1353,479.6855,457.2368z"></path>	<path fill="#006AC6" d="M336.8535,490.6802c1.0879,1.2109,1.9355,2.6641-0.3838,3.9844   C336.416,493.481,336.5674,492.2056,336.8535,490.6802z"></path>	<path fill="#006AC6" d="M345.2939,470.9204c-0.3652,0.8184-0.9473,1.7383-1.7607,2.7441   C343.8926,472.8423,344.4844,471.9341,345.2939,470.9204z"></path></g></svg>