<?xml version="1.0" encoding="UTF-8"?>
<svg xmlns="http://www.w3.org/2000/svg" width="276" height="52" viewBox="0 0 276 52" fill="none">
  <path d="M35.0663 33.1766C34.4994 34.0674 33.7165 34.3914 32.7447 34.3914C30.5851 34.3914 29.0734 32.6367 29.0734 30.4501C29.0734 30.1532 29.1274 30.1262 29.5863 30.1262H33.7975C34.7693 30.1262 35.3362 30.0182 35.4712 29.8023C35.5792 29.6133 35.6062 29.4513 35.6062 29.2354C35.6062 27.1298 33.7435 25.942 31.9619 25.942C28.6955 25.942 26.8328 28.5875 26.8328 31.341C26.8328 34.1214 28.6955 36.2 31.5299 36.2C33.0146 36.2 34.8233 35.4712 35.6331 33.5275C35.5792 33.3386 35.3092 33.0956 35.0663 33.1766ZM31.6379 26.8868C32.6907 26.8868 33.2576 27.5887 33.2576 28.4795C33.2576 28.6955 33.1496 28.8844 33.0146 28.9924C32.8527 29.1004 32.5287 29.1544 31.8269 29.1544H29.6133C29.3164 29.1544 29.2624 29.0734 29.2624 28.9924C29.2624 28.4795 30.0182 26.8868 31.6379 26.8868ZM206.969 10.9329C207.617 10.9329 208.481 10.312 209.561 9.04326C210.64 7.7745 211.153 6.80269 211.126 6.10083C211.126 5.77689 210.964 5.37197 210.667 4.94005L209.561 3.18539C208.805 1.94363 208.049 1.34974 207.293 1.34974C206.672 1.34974 205.808 1.97062 204.702 3.23938C203.568 4.50813 203.028 5.47994 203.028 6.18181C203.028 6.88367 203.541 7.85549 204.54 9.09725C205.538 10.339 206.348 10.9329 206.969 10.9329ZM25.2671 35.1742C24.4303 35.0662 24.3493 34.7963 24.3493 32.9876V29.3703C24.3493 27.2917 23.3235 25.969 21.2449 25.969C20.0301 25.969 18.9773 26.5089 18.1405 27.1298C17.9785 27.1298 17.9246 27.0218 17.9246 26.7249V22.2167C17.9246 21.1639 17.9515 19.6522 18.0055 18.6804C17.9515 18.5724 17.8166 18.4644 17.6546 18.4914L16.0619 19.1933L15.36 19.4902C15.0361 19.6252 14.2533 19.8142 13.4974 19.8412H3.56331C1.91663 19.8412 1.5657 19.8142 1.45772 19.2203C1.40373 19.1393 1.32275 19.1123 1.21477 19.1123C1.07979 19.1123 0.998808 19.1393 0.944818 19.2203C0.782849 20.0841 0.404922 21.5688 0 22.8916C0.107979 23.1345 0.620879 23.2155 0.782848 23.0536C1.67368 21.0829 2.34855 20.813 4.58912 20.813H6.20881C6.82969 20.813 6.85668 20.867 6.85668 21.8928V32.3938C6.85668 34.9853 6.64072 34.9853 5.50694 35.1472L4.48114 35.2552C4.31917 35.3902 4.34616 35.8761 4.53513 35.9571C6.10083 35.9031 7.23461 35.8761 8.3144 35.8761C9.39419 35.8761 10.474 35.9031 11.8777 35.9571C12.0667 35.8491 12.0937 35.4172 11.9317 35.2552L11.0679 35.1472C9.93409 35.0123 9.71813 34.9583 9.71813 32.3668V21.8658C9.71813 20.84 9.74512 20.786 10.366 20.786H12.7146C15.0091 20.786 15.414 21.2179 15.414 23.0266V32.9876C15.414 34.7963 15.3061 35.0662 14.4962 35.1742L13.9563 35.2552C13.7943 35.4172 13.8213 35.8761 14.0103 35.9571C15.0361 35.9031 15.8729 35.8761 16.6288 35.8761C17.5196 35.8761 18.3565 35.9031 19.2203 35.9571C19.4093 35.8491 19.4363 35.4172 19.2743 35.2552L18.8964 35.2012C18.0595 35.0662 17.9785 34.7963 17.9785 32.9876V29.7213C17.9785 28.7765 18.0055 28.3985 18.2755 28.1286C18.5724 27.8046 19.1393 27.4267 19.9222 27.4267C21.3529 27.4267 21.8658 28.3985 21.8658 29.5593V32.9876C21.8658 34.7963 21.7578 35.0932 20.948 35.2012L20.57 35.2552C20.4081 35.4172 20.4351 35.8761 20.624 35.9571C21.4879 35.9031 22.2977 35.8761 23.1076 35.8761C23.9984 35.8761 24.8352 35.9031 25.861 35.9571C26.104 35.8491 26.131 35.4172 25.915 35.2552L25.2671 35.1742ZM69.1337 23.4585C68.2969 23.2965 67.676 23.0806 67.676 22.2977C72.2921 20.1381 75.5045 17.3037 75.5045 11.7697C75.5045 6.85668 72.967 3.77927 69.6736 2.15958C66.2183 0.404922 61.6021 0 56.7701 0C49.6165 0 44.4065 0.242954 40.2493 0.620881C39.6284 0.917824 39.5474 2.0786 40.1683 2.53751L42.6248 2.78047C46.0801 3.07741 46.3771 4.53513 46.3771 10.231V39.4394C46.3771 47.5109 46.2151 48.3477 42.1389 49.0496L40.7622 49.2925C40.3032 49.7514 40.4652 50.9932 40.9241 51.2091C43.7586 51.1282 46.3771 50.9662 49.7514 50.9662C52.9908 50.9662 56.7431 51.2091 58.9836 51.2091C72.805 51.2091 79.4187 45.2163 79.4187 36.308C79.4457 28.0746 73.2909 24.2143 69.1337 23.4585ZM52.6939 4.85906C52.6939 3.48233 52.9908 3.07741 53.7737 2.86145C54.4755 2.56451 55.6093 2.40254 57.31 2.40254C63.1409 2.40254 68.7558 5.23699 68.7558 12.7685C68.7558 20.0032 64.5176 22.2977 56.6891 22.5947C52.7748 22.7566 52.6939 22.5947 52.6939 20.4351V4.85906ZM60.3874 48.8066C58.0928 48.8066 55.7713 48.4287 54.3135 46.647C52.8558 44.9463 52.6939 41.0321 52.6939 38.2786V26.9138C52.6939 25.3751 52.9908 24.9162 57.148 24.9162C69.3766 24.9162 72.4271 31.9888 72.4271 38.0627C72.4541 45.7292 67.2171 48.8066 60.3874 48.8066ZM263.253 46.4041H265.143V51.2091H266.277V46.4041H268.166V45.4323H263.253V46.4041ZM273.754 45.4323L272.27 49.5625L270.785 45.4323H269.138V51.2091H270.191V46.566L271.811 51.2091H272.729L274.321 46.566V51.2091H275.374V45.4323H273.754ZM98.774 18.7614C89.7038 18.7614 82.4151 25.6721 82.4151 35.3632C82.4151 44.9733 89.3258 51.1821 98.1531 51.1821C107.763 51.1821 114.377 44.2715 114.377 34.6613C114.377 25.2131 107.385 18.7614 98.774 18.7614ZM98.936 48.8876C92.1873 48.8876 89.0289 41.356 89.0289 34.3644C89.0289 25.915 92.8081 21.0829 97.8562 21.0829C105.145 21.0829 107.763 29.3703 107.763 35.9031C107.763 41.8149 105.685 48.8876 98.936 48.8876ZM257.476 45.9991H257.368L257.045 46.1611C256.1 46.62 254.831 47.2679 253.265 47.2679C250.701 47.2679 249.351 44.9733 249.351 40.6002V22.7566C249.351 22.5947 249.378 22.3247 249.432 22.2437C249.486 22.1897 249.702 22.1357 249.837 22.1357H256.235H256.316C256.937 21.9738 257.314 21.2179 257.368 20.543C257.395 20.0301 257.207 19.6252 256.856 19.4902L256.802 19.4633H249.972C249.756 19.4633 249.486 19.4093 249.459 19.3553C249.405 19.2743 249.378 18.8964 249.378 18.5724V14.7932C249.378 5.61492 244.141 3.69829 239.768 3.69829C233.451 3.69829 229.024 7.82849 229.024 13.7404C229.024 15.495 229.267 16.7908 229.861 18.0865L229.888 18.1675C229.969 18.3295 230.077 18.5724 230.131 18.7074C230.104 18.7074 230.05 18.7074 230.023 18.6804C229.888 18.6534 229.753 18.6534 229.591 18.6264C229.348 18.5994 229.078 18.5994 228.781 18.5994C222.626 18.5994 217.956 22.6486 217.956 27.9936C217.956 32.6907 221.816 35.2012 226.001 37.2258C230.131 39.3044 231.669 41.1401 231.669 44.0555C231.669 47.1599 229.915 49.0226 226.999 49.0226C222.896 49.0226 219.549 44.5414 218.172 40.3572L218.145 40.2762L218.064 40.2223C218.037 40.1953 217.686 39.8983 217.281 40.0063C216.93 40.0873 216.687 40.3302 216.633 40.3572L216.525 40.4652V40.6002C216.552 43.0837 217.119 47.1059 217.605 48.5367C217.821 49.4005 222.383 51.2091 225.65 51.2091C231.157 51.2091 237.041 47.7538 237.041 41.383C237.041 36.6589 233.613 34.0944 228.484 31.6649C225.65 30.3692 223.031 28.7225 223.031 25.4561C223.031 22.7026 224.867 20.786 227.485 20.786C230.752 20.786 232.182 23.4315 233.532 25.969L233.586 26.077L233.694 26.131C233.748 26.158 234.126 26.2929 234.504 26.185C234.882 26.077 235.098 25.726 235.125 25.6991L235.179 25.5911V25.4831C235.017 23.5395 234.693 21.1909 233.883 19.8952C233.694 19.7062 233.505 19.5712 233.289 19.4363C233.154 19.3283 232.803 19.2473 232.668 19.1393C232.533 19.0313 232.209 18.6264 232.074 18.2755C231.588 17.1417 231.426 15.9539 231.426 14.7662C231.372 10.0961 233.964 7.04564 237.878 6.99165C239.498 6.93766 240.74 7.36958 241.631 8.26041C242.926 9.52917 243.547 11.8237 243.547 15.2791C243.547 15.2791 243.547 18.1675 243.547 18.6804C243.547 19.1933 243.52 19.3283 243.466 19.4093C243.412 19.4633 243.142 19.4633 242.872 19.4633C242.521 19.4633 241.766 19.4633 241.604 19.4633C240.983 19.4902 239.444 20.732 239.363 21.2449C239.309 21.7038 239.633 21.9738 239.822 22.0818L239.903 22.1087H242.818C243.061 22.0817 243.358 22.1357 243.439 22.2167C243.52 22.3247 243.547 22.7836 243.52 23.1885V42.6248C243.52 48.2127 245.95 51.1821 250.512 51.1821C251.052 51.1821 252.671 50.8582 253.94 50.2103C256.235 49.0226 257.935 47.7808 257.989 47.7268L258.097 47.5918C258.124 47.5378 258.313 47.1059 258.178 46.62C258.178 46.1881 257.719 46.0261 257.476 45.9991ZM214.879 48.4287L213.259 48.1857C210.506 47.8078 210.344 47.025 210.344 41.491V27.6697C210.344 24.5113 210.505 20.84 210.64 18.1405C210.559 17.8436 210.263 17.6816 209.885 17.6816C208.13 18.8424 203.73 20.84 201.975 21.4339C201.597 21.6768 201.597 22.5137 201.894 22.8106L202.596 23.2695C204.675 24.6463 204.675 25.0242 204.675 28.0206V41.2481C204.675 46.782 204.594 47.5378 201.759 47.9428C201.759 47.9428 200.976 48.0777 200.247 48.1047C199.519 48.1317 198.061 47.9428 198.061 47.9428C195.307 47.5648 195.145 46.782 195.145 41.2481V28.2636C195.145 23.1076 192.527 18.7344 186.156 18.7344C182.242 18.7344 178.625 20.651 175.412 22.6486C174.872 22.6486 174.575 22.2707 174.575 21.8118C174.575 21.1099 174.575 19.9762 174.737 18.1945C174.575 17.8166 174.197 17.6546 173.901 17.6546C172.362 18.8154 167.989 20.813 166.207 21.4069C165.829 21.6498 165.829 22.4867 166.126 22.7836L166.828 23.2425C168.907 24.6193 168.907 24.9972 168.907 27.9936V41.437C168.907 46.971 168.853 47.6458 165.964 48.3207C165.964 48.3207 164.857 48.5637 163.723 48.6446C162.617 48.7256 161.78 48.6176 161.051 48.6176C158.055 48.6176 158.136 44.5954 158.271 41.0591L158.729 27.6967C158.972 21.9468 156.273 18.7074 150.739 18.7074C145.124 18.7074 136.459 24.1604 136.459 28.1556C136.459 28.8574 136.837 29.2354 137.539 29.2354C138.699 29.2354 140.778 28.6955 141.912 27.7777C142.533 27.3187 142.614 26.4009 142.668 25.1592C142.83 22.7836 145.421 21.7038 147.581 21.7038C152.359 21.7038 153.277 25.5371 153.196 28.3985L153.115 31.9349C153.115 33.0956 152.953 33.7705 151.819 34.1754L142.668 37.4688C137.755 39.2234 136.297 41.0051 136.297 44.0015C136.297 44.3525 136.324 44.4604 136.378 44.8114C136.378 44.8114 136.405 45.0273 136.405 45.0543C136.216 45.1893 135.676 45.8912 132.221 47.4029C131.6 47.6458 130.925 47.7808 130.142 47.7808C125.067 47.7808 124.527 43.7046 124.527 39.2504V24.8892C124.527 23.2695 124.608 23.0536 125.904 23.0536H134.596C135.298 22.5946 135.433 20.516 134.515 19.8142H125.985C124.689 19.8142 124.608 19.7332 124.608 18.3565V14.9011C124.311 14.3612 123.366 14.3612 122.988 14.5232C122.232 16.0619 120.748 18.1405 119.749 19.0583C118.966 19.7602 117.049 20.759 114.836 21.4339C114.539 21.8928 114.593 22.7296 115.079 23.0536H117.238C118.777 23.0536 118.858 23.2155 118.858 25.2941V42.8947C118.858 47.5109 120.235 51.1821 126.849 51.1821C130.52 51.1821 135.109 48.4017 136.837 46.728C137.242 47.7808 137.889 48.6986 138.699 49.4275C139.995 50.5883 141.858 51.1821 144.071 51.1821C146.231 51.1821 147.905 50.1833 149.605 49.2655C151.144 48.4287 152.062 47.7268 152.602 47.7268C153.061 47.7268 153.519 48.3477 153.843 48.8066C155.139 50.5073 157.002 51.2091 158.837 51.1821C165.856 51.1282 166.72 50.3453 170.85 50.1833C173.55 50.0754 176.654 50.1833 178.733 50.3183C179.273 50.0754 179.434 48.7796 178.895 48.4017L177.518 48.1587C174.764 47.6998 174.602 46.998 174.602 41.464V29.7213C174.602 27.4807 174.764 26.4279 175.763 25.1052C176.843 23.6474 179.38 22.4057 182.296 22.4057C187.533 22.4057 189.504 25.6451 189.504 30.0182V41.464C189.504 46.998 189.423 47.6998 186.588 48.1587L185.13 48.4017C184.59 48.7796 184.752 50.1024 185.292 50.3183C187.371 50.1563 189.666 50.0754 192.446 50.0754H207.59C210.29 50.0754 212.503 50.1563 214.825 50.3183C215.284 50.1024 215.419 48.8066 214.879 48.4287ZM152.737 42.1929C152.656 43.8126 152.656 44.8924 151.738 45.8102C150.982 46.566 148.579 47.7268 147.041 47.7268C143.126 47.7268 142.209 44.4334 142.209 43.1107C142.209 40.1143 144.449 38.9535 148.957 37.4148C150.334 36.9559 151.657 36.6589 152.116 36.6589C152.575 36.6589 152.872 36.8209 152.872 37.6577L152.737 42.1929Z" fill="#D5E9E1"></path>
</svg>
