<svg xmlns="http://www.w3.org/2000/svg" fill="#010101" viewBox="0 0 426.95142 276.31458"><path d="m143.85815 73.426738c-36.66241-28.65981-90.24695 6.18349-89.99674 50.307842-12.22-14.5-30.7-19.29-48.5499996-20.12 36.3725496 3.83319 38.8340696-27.556002 10.7999996-44.440002 46.81645 19.77739 35.53425-13.99181 29.27-46.01 29.85815 35.65328 57.00705 35.94996 63.75-7.7100001 1.65271 44.2332201 32.78528 51.6543401 60.1 23.1200001" fill="#99ca3c"></path><path d="m165.34141 24.674578c-8.99 9.39-20.38955 19.7183-34.34 16.06-13.42955-3.5217-18.91495-17.25202-17.26-29.94 0.17553-1.3457301 0.50647-2.6405401 0.7-3.8900001 1.05647-6.82055001-8.9188-9.96971-10.62-2.93-0.3988 1.65029-0.58684 3.34873-0.92 5.01-2.6177 13.0530201-9.60984 32.3693601-24.79 28.5100001-6.64984-1.69064-11.3185-6.43136-15.82-11.38-4.4585-4.90136-8.5488-10.17078-12.16-15.73-3.4888-5.3707801-11.1964-1.8606701-10.06 4.24 2.2836 12.25933 10.60747 24.24988 10.02 36.96-0.26253 5.67988-5.63994 8.57131-10.89 8.83-7.12994 0.35131-14.18914-2.62157-20.32-6-6.20914-3.42157-11.7523596 6.03421-5.56 9.51 4.24764 2.38421 7.05195 6.93852 9.93 10.73 2.76195 3.63852 7.94584 8.14044 8.45 12.93 0.45584 4.33044-3.76139 7.97662-7.37 9.46-3.98139 1.63662-8.4245 1.86134-12.79 1.55-2.0862996-0.14879-4.1699196-0.38159-6.2499996-0.49-7.12992-0.37159-6.98011 10.421322 0 11.010002 1.31989 0.11132 2.65259 0.17475 3.98 0.29 15.3730996 1.33479 30.2464596 6.18307 40.6799996 18.22 3.16646 3.65307 9.47454 0.67993 9.4-3.89-0.34546-21.18007 11.46138-43.446602 31.63-51.630002 19.14138-7.7666 40.12849-4.1287 53.79 11.8 0.37849 0.4413 0.80908 0.74938 1.2 1.06 1.46156 1.16135 3.59996 1.69985 5.27 1.26 3.18996-0.84015 4.23672-3.83955 3.84-6.77-1.10328-8.14956-0.69658-16.46865 2.35-24.17 3.41342-8.62865 9.54539-15.98414 15.67-22.81 4.70539-5.24414-2.85-12.94-7.79-7.79zm-78.17 37.17c-20.63783 8.41532-34.46 28.41-37.95 50.070002-4.56-3.41-9.57-6.06-14.86-8.1 4.34-3.34 7.56785-8.190252 8.21-13.680002 0.88785-7.59025-3.63-13.3-8.09-18.86 1.76 0.18 3.51996 0.21935 5.28 0.11 8.37996-0.52065 17.23899-5.02036 20.22-13.33 2.14899-5.99036 1.01-12.78-0.68-18.96 5.63 4.93 12.03009 8.61937 19.34 9.66 12.78009 1.81937 21.65-6.07 27.45-16.49 3.65 8.2 10.12022 14.95937 19.45 18.3 7.79022 2.78937 15.15 2.4 21.98 0.06-0.24 0.57-0.47115 1.13956-0.69 1.71-1.94115 5.05956-2.86 10.26-3.11 15.52-16.06-11.91-37.50783-13.77468-56.55-6.01z"></path><path d="m161.83141 118.00458c-17.2 6.21-34.85978 13.30054-48.66 18.89-10.46978 4.24054-6.79037 19.01884 4.06 15.6 1.93964-0.61116 3.88-1.19 5.81-1.76 0.07 0.77 0.36155 1.58976 0.49 2.41 0.57155 3.64976 0.5089 6.25887-2.92 9.59-1.4811 1.43887-3.1803 2.34825-5.72 2.78-1.4603 0.24825-3.93113 0.0843-5.9-0.43-11.16113-2.91567-16.98682-14.94046-18.55-25.81-1.01682-7.07046-0.66177-14.45057 1.52-21.27 1.71823-5.37057 5.1006-10.16922 8.75-12.95 8.4506-6.439222 19.03826-5.259092 23.51 3.27 2.75826 5.26091 10.09954 6.84922 15.06 3.95 5.33954-3.12078 6.71803-9.77897 3.95-15.060002-7.65197-14.59897-25.74049-21.25177-41.33-16.96-16.23049 4.46823-28.02993 18.87002-32.01 34.840002-4.02993 16.17002-2.05078 35.00044 6.15 49.6 8.31922 14.81044 24.69974 24.86816 41.94 22.48 18.34974-2.54184 32.40825-21.55946 26.78-39.88-0.25175-0.81947-0.57-1.57-0.94-2.25 8.31-2.2 13.74944-3.52177 22.07-6.15 10.76944-3.40177 6.64-24.75-4.06-20.88z"></path><path d="m200.54141 162.25458c-0.39-1.28-1.13-2.12-2.22-2.12h-7.65v23.58c0 2.07 0.59 2.91 1.92 2.91v1.09h-12.78v-1.09c1.33 0 1.97-0.84 1.97-2.91v-23.58h-7.5c-1.09 0-1.92 0.79-2.37 2.12l-1.38-0.44 1.83-8.93c0.35 0.15 1.18 0.3 2.52 0.3h23.14c0.74 0 1.63-0.15 2.02-0.3l1.83 8.93z"></path><path d="m223.72141 187.70458v-1.09c1.33 0 1.97-0.79 1.97-2.86v-10.31h-11.64v10.31c0 2.02 0.64 2.86 1.97 2.86v1.09h-12.83v-1.09c1.28 0 1.97-0.79 1.97-2.86v-27.23c0-1.48-0.89-2.27-1.97-2.27v-1.08h12.83v1.08c-1.33 0-1.97 0.74-1.97 2.81v8.98h11.64v-9.52c0-1.48-0.74-2.27-1.97-2.27v-1.08h12.78v1.08c-1.33 0-1.92 0.74-1.92 2.81v26.69c0 2.02 0.49 2.86 1.92 2.86v1.09z"></path><path d="m263.64141 188.24458c-0.84-0.3-2.32-0.54-3.26-0.54h-21.26v-1.09c1.33 0 1.97-0.89 1.97-2.56v-27.28c0-1.48-0.84-2.56-1.97-2.56v-1.04h21.61c0.74 0 2.37-0.25 2.81-0.35l1.73 8.78-1.04 0.35c-0.84-1.48-1.43-1.83-3.11-1.83h-11.15v5.97h10.16c1.09 0 1.68-0.39 1.68-1.48h1.13v10.01h-1.13c0-1.04-0.59-1.43-1.68-1.43h-10.16v7.4h11.3c1.83 0 2.42-0.49 3.21-2.17l1.18 0.39-2.02 9.42z"></path><path d="m74.58141 244.01458v19.96c0 1.61 0.54 3.33 1.29 4.4-4.94 3.11-13.63 7.94-29.29 7.94-22.53 0-37.1299996-16.85-37.1299996-40.56s20.0599996-38.63 35.4099996-38.63c7.19 0 13.2 1.18 14.91 1.18 2.25 0 3.97-0.86 3.97-0.86l5.9 22.75-3 1.07c-0.54-1.61-2.25-4.4-3.97-5.58-2.58-1.82-5.15-2.9-11.7-2.9-11.16 0-21.46 7.3-21.46 22.75s7.94 24.89 18.24 24.89c3.43 0 6.44-0.75 7.94-1.4v-15.02c0-3.33-1.61-4.72-4.18-4.72v-2.36h27.25v2.36c-2.58 0-4.18 1.5-4.18 4.72z"></path><path d="m122.86141 273.84458v-2.36c2.79 0 4.18-1.18 4.18-3.22 0-0.64-0.43-2.04-0.64-2.68l-0.54-1.82c-3 1.07-7.4 1.72-11.59 1.72-3.86 0-8.16-0.64-11.37-1.72l-0.75 2.04c-0.43 1.07-0.64 1.93-0.64 2.68 0 2.15 1.4 3 3.65 3v2.36h-27.79v-2.36c2.68 0 3.54-0.43 5.04-4.83l19.85-58.8c0.32-1.07 0.86-3.11 0.86-4.08 0-1.72-0.86-2.68-2.47-2.68v-2.36h28.43v2.36c-1.61 0-2.58 0.86-2.58 2.79 0 1.18 0.43 2.58 1.29 5.15l19.21 57.41c1.5 4.4 2.47 5.04 5.04 5.04v2.36h-29.19zm-8.58-54.08h-0.11l-7.73 29.4c2.04 0.64 5.79 1.29 8.26 1.29s5.58-0.43 7.4-1.29l-7.83-29.4z"></path><path d="m191.54141 273.84458c-3-5.26-5.9-15.45-7.62-22.85-1.18 0.11-3.22 0.21-5.26 0.21-1.82 0-3.76-0.11-5.26-0.21v14.59c0 4.51 1.4 5.9 4.29 5.9v2.36h-27.9v-2.36c2.68 0 4.29-1.4 4.29-5.9v-59.12c0-3.22-1.5-5.37-4.29-5.37v-2.36c4.94-0.21 15.88-0.97 26.83-0.97 22.1 0 39.49 3.97 39.49 26.07 0 11.16-7.4 19.1-15.34 22.43 1.72 6.33 6.12 16.2 10.41 22.32 1.4 1.93 2.47 2.9 5.36 2.9v2.36zm-12.34-60.63c-2.25 0-4.4 0.11-5.79 0.21v22.75c2.15 0.21 4.29 0.32 6.33 0.32 11.37 0 16.63-3.65 16.63-11.91 0-7.62-5.26-11.37-17.17-11.37z"></path><path d="m244.76141 274.80458c-9.34 0-19.64-0.43-24.36-0.97v-2.36c2.9 0 4.29-1.61 4.29-6.12v-58.91c0-3.22-1.82-5.26-4.29-5.37v-2.36c5.47-0.54 14.81-1.07 26.07-1.07 28.86 0 42.49 15.45 42.49 37.77 0 23.5-12.23 39.38-44.21 39.38zm5.26-61.59c-1.82 0-4.29 0.11-6.01 0.21v45.39c1.29 0.21 3.86 0.32 5.79 0.32 11.7 0 19.1-8.05 19.1-23.5s-8.26-22.43-18.88-22.43z"></path><path d="m345.84141 275.02458c-1.82-0.64-5.04-1.18-7.08-1.18h-46.25v-2.36c2.9 0 4.29-1.93 4.29-5.58v-59.34c0-3.22-1.82-5.58-4.29-5.58v-2.25h47c1.61 0 5.15-0.54 6.12-0.75l3.75 19.1-2.25 0.75c-1.82-3.22-3.11-3.97-6.76-3.97h-24.25v12.98h22.1c2.36 0 3.65-0.86 3.65-3.22h2.47v21.78h-2.47c0-2.25-1.29-3.11-3.65-3.11h-22.1v16.09h24.57c3.97 0 5.26-1.07 6.97-4.72l2.58 0.86-4.4 20.49z"></path><path d="m422.78141 206.99458v66.85h-16.85c-0.11-2.04-1.29-4.83-2.47-6.76l-25.97-41.42h-0.43v39.7c0 4.4 1.29 6.12 4.19 6.12v2.36h-25.54v-2.36c2.9 0 4.29-1.61 4.29-6.12v-58.91c0-3.22-1.82-5.37-4.29-5.37v-2.36h27.36c0.32 1.93 1.07 3.75 3 6.87l19.1 30.79h0.43v-29.83c0-4.08-1.29-5.47-4.29-5.47v-2.36h25.64v2.36c-2.9 0-4.18 1.39-4.18 5.9z"></path></svg>