<svg width="131" height="45" viewBox="0 0 131 45" fill="none" xmlns="http://www.w3.org/2000/svg">
  <g clip-path="url(#clip0_253_586)">
    <path
      d="M77.5296 34.8853C77.6174 39.0545 80.8571 42.4269 85.1181 42.4269C88.0019 42.4269 89.9105 41.0525 91.1098 39.7198C91.5096 39.2763 91.9093 39.1423 92.2629 39.1423C92.9723 39.1423 93.6378 39.6297 93.6378 40.4728C93.6378 40.7846 93.5499 41.138 93.1941 41.5376C91.1098 43.8451 88.3115 44.9977 85.1181 44.9977C78.9484 44.9977 74.3778 40.3388 74.3778 34.0838C74.3778 27.8288 78.9484 23.1699 84.85 23.1699C90.7517 23.1699 94.7908 27.2074 94.7908 33.3285C94.7908 34.3494 94.257 34.8807 93.1479 34.8807H77.5273L77.5296 34.8853ZM91.7314 32.49C91.5535 28.5864 89.1572 25.7037 84.8524 25.7037C80.8132 25.7037 77.8416 28.9421 77.5735 32.49H91.7314Z"
      fill="white" />
    <path
      d="M74.0127 42.473C73.3934 42.473 72.9267 42.212 72.7002 41.7362C72.5061 41.3343 72.4114 40.833 72.4114 40.2048V17.2243C72.4114 16.8571 72.2797 16.5476 72.0093 16.2773C71.7436 16.0117 71.39 15.8823 70.9279 15.8823C70.4657 15.8823 70.1145 16.0117 69.8465 16.2773C69.5761 16.5476 69.4444 16.8594 69.4444 17.2243V40.408C69.4444 41.9972 69.7379 43.1798 70.3202 43.9236C70.884 44.6466 71.7598 44.9977 72.9983 44.9977C73.6222 44.9977 74.0728 44.8706 74.3362 44.6165C74.602 44.3601 74.7337 44.0183 74.7337 43.5725C74.7337 43.2514 74.6666 42.9743 74.5257 42.7294C74.4541 42.6024 74.3362 42.4707 74.0104 42.4707L74.0127 42.473Z"
      fill="white" />
    <path
      d="M130.75 16.6261C130.591 16.3836 130.304 16.208 129.882 16.0879C129.782 16.0556 129.572 16.0071 129.128 15.9586C128.749 15.9193 128.287 15.8985 127.753 15.8985C125.265 15.8985 123.601 16.6538 122.191 18.2083C120.793 19.7513 120.084 21.9525 120.084 24.8075V43.6233C120.084 44.0206 120.216 44.3417 120.491 44.6027C120.768 44.8683 121.115 44.9977 121.544 44.9977C122 44.9977 122.349 44.8706 122.614 44.6073C122.878 44.344 123.005 44.0206 123.005 43.621V26.8101H127.654C128.028 26.8101 128.331 26.69 128.578 26.4405C128.828 26.1911 128.948 25.8769 128.948 25.475C128.948 25.1078 128.83 24.8144 128.585 24.5788C128.336 24.3409 128.031 24.2254 127.656 24.2254H123.023L123.049 23.8327C123.164 22.0473 123.596 20.9085 124.336 19.9915C125.098 19.0445 126.11 18.5663 127.8 18.5663C128.264 18.5663 128.636 18.5871 128.934 18.6333C129.188 18.6703 129.463 18.6911 129.752 18.6911C130.11 18.6911 130.408 18.5894 130.658 18.3816C130.887 18.1922 131.002 17.8618 131.002 17.3976C131.002 17.1366 130.919 16.8825 130.75 16.6238V16.6261Z"
      fill="white" />
    <path
      d="M17.2635 39.9415C18.063 39.9415 18.5945 40.5189 18.5945 41.228C18.5945 41.5375 18.5067 41.9371 18.063 42.3806C16.3323 44.0668 14.0238 44.9977 11.0961 44.9977C4.39502 44.9977 0.00231934 40.3387 0.00231934 34.0861C0.00231934 27.8334 4.39502 23.1744 11.0961 23.1744C13.4485 23.1744 16.0226 24.0175 17.7973 25.6575C18.197 26.0571 18.3749 26.4105 18.3749 26.8563C18.3749 27.6093 17.7534 28.1868 17.0001 28.1868C16.6003 28.1868 16.2907 28.099 15.4912 27.3437C14.6038 26.5006 13.0949 25.7014 11.1424 25.7014C6.306 25.7014 3.19806 29.3394 3.19806 34.0861C3.19806 38.8327 6.25978 42.4245 11.0961 42.4245C13.2705 42.4245 14.7794 41.7154 16.0665 40.5166C16.5541 40.0731 16.9099 39.9391 17.2658 39.9391L17.2635 39.9415Z"
      fill="white" />
    <path
      d="M35.4697 23.1768C35.0723 23.1768 34.7187 23.2992 34.4253 23.5371C34.111 23.7935 33.9446 24.1515 33.9446 24.5765V36.6176C33.9446 37.433 33.8245 38.1999 33.5888 38.8951C33.3554 39.5765 33.0065 40.1678 32.5467 40.6529C32.0822 41.1426 31.5138 41.5329 30.8575 41.817C30.1989 42.1011 29.4295 42.2444 28.5676 42.2444C27.7057 42.2444 26.9339 42.1011 26.2776 41.817C25.6214 41.5329 25.0529 41.1426 24.5885 40.6529C24.1287 40.1678 23.7774 39.5765 23.5464 38.8951C23.3107 38.2022 23.1905 37.4353 23.1905 36.6176V24.5765C23.1905 24.1469 23.0287 23.7981 22.7099 23.5371C22.4141 23.2969 22.0629 23.1768 21.6654 23.1768C21.268 23.1768 20.9121 23.3038 20.6441 23.5556C20.3668 23.8143 20.2258 24.1561 20.2258 24.5765V36.5345C20.2258 37.7425 20.4014 38.8697 20.7481 39.8837C21.0993 40.907 21.6331 41.8124 22.3378 42.5747C23.0426 43.3392 23.9276 43.9421 24.9675 44.3671C26.0027 44.7898 27.2135 45.0023 28.5676 45.0023C29.9217 45.0023 31.0909 44.7898 32.1261 44.3671C33.1659 43.9421 34.0509 43.3392 34.7557 42.5747C35.4582 41.8147 35.9989 40.9116 36.364 39.8883C36.7268 38.8743 36.9093 37.7471 36.9093 36.5345V24.5765C36.9093 24.1561 36.7684 23.8143 36.4888 23.5533C36.2184 23.3038 35.8741 23.1768 35.4674 23.1768H35.4697Z"
      fill="white" />
    <path
      d="M68.1735 42.7364C68.1019 42.6093 67.984 42.48 67.6605 42.48C67.0436 42.48 66.5768 42.219 66.3504 41.7454C66.1563 41.3435 66.0615 40.8446 66.0615 40.2187V24.5188C66.0615 24.1538 65.9298 23.8443 65.6594 23.5741C65.3937 23.3084 65.0402 23.1791 64.5803 23.1791C64.1205 23.1791 63.7693 23.3084 63.5012 23.5741C63.2309 23.8443 63.0992 24.1538 63.0992 24.5188V27.3414C62.4175 26.2927 61.5903 25.4011 60.6382 24.692C59.2888 23.6872 57.5811 23.1791 55.5639 23.1791C54.1451 23.1791 52.8141 23.4609 51.6056 24.0152C50.404 24.565 49.3411 25.3341 48.4445 26.2997C47.5502 27.2652 46.8408 28.4339 46.3348 29.7713C45.8287 31.1087 45.5699 32.5685 45.5699 34.1138C45.5699 35.6591 45.8195 37.1119 46.3117 38.4355C46.8062 39.7636 47.511 40.9255 48.4029 41.8863C49.2948 42.8495 50.3508 43.6187 51.5409 44.1685C52.7378 44.7228 54.0619 45.0046 55.4807 45.0046C57.4194 45.0046 59.1178 44.4757 60.5342 43.4316C61.5417 42.6879 62.4059 41.7685 63.1038 40.706V40.5559C63.1223 42.0619 63.4134 43.2168 63.9726 43.9352C64.5341 44.6558 65.4099 45.0069 66.6438 45.0069C67.2677 45.0069 67.716 44.8799 67.9794 44.6258C68.2452 44.3717 68.3746 44.0299 68.3746 43.5841C68.3746 43.263 68.3075 42.9881 68.1689 42.7433L68.1735 42.7364ZM55.8134 42.0018C51.3352 42.0018 48.5254 38.4493 48.5254 34.0676C48.5254 29.6859 51.5224 26.1333 55.8134 26.1333C59.6954 26.1333 63.0992 29.4826 63.0992 34.0676C63.0992 38.9321 59.6931 42.0018 55.8134 42.0018Z"
      fill="white" />
    <path
      d="M56.3772 20.5159C56.8648 20.5159 57.2368 20.368 57.4864 20.0793C57.7198 19.8068 57.8376 19.4626 57.8376 19.0561C57.8376 18.6495 57.5418 17.4253 55.5638 17.4253C54.4247 17.4253 50.9678 17.3491 46.8431 20.077C43.6312 22.202 42.5706 25.6714 42.2887 26.0964V24.5488C42.2887 23.6757 41.7572 23.1745 40.8283 23.1745C40.38 23.1745 40.0219 23.3061 39.7607 23.5671C39.5019 23.8282 39.3679 24.1585 39.3679 24.5488V43.5818C39.3679 44.0137 39.5204 44.3648 39.8231 44.6258C40.1097 44.873 40.4609 44.9977 40.8699 44.9977C41.2789 44.9977 41.6301 44.8683 41.9051 44.6166C42.187 44.3533 42.3303 44.0068 42.3303 43.5818V36.7724C42.3303 34.9638 42.2378 33.1714 42.5845 31.3813C42.9241 29.6281 43.5688 27.9096 44.4746 26.369C45.3227 24.9253 46.4388 23.6318 47.8252 22.6825C48.0771 22.5092 48.3359 22.3499 48.6016 22.202C51.728 20.4627 55.2519 20.5182 56.3772 20.5182V20.5159Z"
      fill="white" />
    <path
      d="M118.326 42.7364C118.254 42.6093 118.136 42.48 117.813 42.48C117.196 42.48 116.729 42.219 116.502 41.7454C116.308 41.3435 116.214 40.8446 116.214 40.2187V24.5188C116.214 24.1538 116.082 23.8443 115.812 23.5741C115.546 23.3084 115.192 23.1791 114.732 23.1791C114.273 23.1791 113.921 23.3084 113.653 23.5741C113.383 23.8443 113.251 24.1538 113.251 24.5188V27.3414C112.57 26.2927 111.742 25.4011 110.79 24.692C109.441 23.6872 107.733 23.1791 105.716 23.1791C104.297 23.1791 102.966 23.4609 101.758 24.0152C100.556 24.565 99.4932 25.3341 98.5966 26.2997C97.7023 27.2652 96.9929 28.4339 96.4869 29.7713C95.9808 31.1087 95.722 32.5685 95.722 34.1138C95.722 35.6591 95.9716 37.1119 96.4638 38.4355C96.9583 39.7636 97.6631 40.9255 98.555 41.8863C99.4469 42.8495 100.503 43.6187 101.693 44.1685C102.89 44.7228 104.214 45.0046 105.633 45.0046C107.571 45.0046 109.27 44.4757 110.686 43.4316C111.694 42.6879 112.558 41.7685 113.256 40.706V40.5559C113.274 42.0619 113.566 43.2168 114.125 43.9352C114.686 44.6558 115.562 45.0069 116.796 45.0069C117.42 45.0069 117.868 44.8799 118.132 44.6258C118.397 44.3717 118.527 44.0299 118.527 43.5841C118.527 43.263 118.46 42.9881 118.321 42.7433L118.326 42.7364ZM105.963 42.0018C101.485 42.0018 98.6752 38.4493 98.6752 34.0676C98.6752 29.6859 101.672 26.1333 105.963 26.1333C109.845 26.1333 113.249 29.4826 113.249 34.0676C113.249 38.9321 109.843 42.0018 105.963 42.0018Z"
      fill="white" />
    <path
      d="M76.8919 0.0438795C76.6123 -0.22406 74.528 0.783023 72.3606 1.0117C70.1931 1.24268 67.2954 1.37665 64.2545 4.36094C60.1992 8.34077 62.2788 14.143 62.4429 13.7296C62.607 13.3161 61.2714 9.26701 65.024 5.53202C68.7766 1.79704 74.3616 2.33753 74.3616 2.33753C74.3616 2.33753 73.9365 8.62026 70.7615 11.6762C68.6218 13.7365 66.7154 14.247 65.1326 14.3925L65.2782 13.6949C65.3821 13.0875 65.4977 12.4707 65.6849 11.8817C65.8651 11.3158 66.1354 10.7823 66.4613 10.2903C66.794 9.78672 67.1915 9.32937 67.6051 8.89282C67.7091 8.78426 67.8107 8.66645 67.9216 8.56482C67.9447 8.54172 68.1828 8.32691 68.1088 8.28764C68.0557 8.25762 67.9679 8.28764 67.9147 8.30381C67.783 8.34308 67.6559 8.40313 67.5334 8.46781C67.3509 8.56482 67.1753 8.68031 67.0066 8.80273C66.7848 8.96442 66.5768 9.14228 66.3781 9.33168C66.1308 9.56729 65.9021 9.81906 65.6872 10.0824C65.4307 10.3988 65.195 10.7314 64.9778 11.0779C64.7236 11.4844 64.4971 11.9094 64.2915 12.3437C63.998 12.972 63.7877 13.6303 63.5058 14.2632C63.2216 14.903 62.8796 15.5151 62.4984 16.1018C62.1749 16.5961 61.8259 16.9056 61.2436 17.0419C61.0426 17.0904 60.8369 17.1135 60.6128 17.1204C60.2015 17.1343 59.7509 17.2405 59.3997 17.4646C58.7503 17.885 58.5632 18.8643 58.9791 19.5157C59.3927 20.1648 60.4926 20.174 61.1489 19.9476C61.9345 19.6774 62.4752 18.9891 62.9928 18.377L63.016 18.3446L63.0807 18.2568L63.18 18.1229L63.3071 17.9496C63.3556 17.8827 63.4065 17.8157 63.455 17.7487C63.5105 17.6748 63.5636 17.6009 63.6191 17.5269C63.6745 17.453 63.7323 17.3722 63.7901 17.2936C63.8478 17.2151 63.9056 17.1389 63.961 17.0604C64.0165 16.9818 64.072 16.9102 64.1274 16.834C64.1783 16.7647 64.2291 16.6954 64.2822 16.6261L64.4163 16.4436L64.5249 16.2958C64.5433 16.2704 64.5641 16.245 64.5826 16.2173C64.6011 16.1919 64.615 16.1665 64.6381 16.1457C64.6866 16.1018 64.7606 16.0879 64.8206 16.081C64.8761 16.0741 64.9316 16.0741 64.987 16.0717C65.0101 16.0717 65.0309 16.0694 65.054 16.0671C65.0794 16.0671 65.1049 16.0602 65.1303 16.0602C65.8859 15.9609 66.6161 15.8084 67.3463 15.589C68.4 15.2702 69.4305 14.836 70.341 14.2147C70.6945 13.9744 71.0296 13.7042 71.3346 13.4039C74.9971 9.80982 75.3853 5.58746 75.9006 3.59177C76.4136 1.59608 77.1692 0.311819 76.8896 0.0461893L76.8919 0.0438795Z"
      fill="white" />
  </g>
  <defs>
    <clipPath id="clip0_253_586">
      <rect width="131" height="45" fill="white" />
    </clipPath>
  </defs>
</svg>
  