<svg xmlns="http://www.w3.org/2000/svg" width="456.003" height="84.31" viewBox="0 0 456.003 84.31">
  <g id="Group_1" data-name="Group 1" transform="translate(-223.65 -273.918)">
    <g id="Group_1-2" data-name="Group 1" transform="translate(223.65 273.918)">
      <path id="Path_1" data-name="Path 1" d="M273.373,302.577a34.971,34.971,0,0,0-13.732,3.875c-.1.054-.2.11-.3.164.711-.975,1.425-2,2.131-3.071a44.049,44.049,0,0,0,6.444-16.9,44.074,44.074,0,0,0-13,12.583c-1.044,1.584-1.993,3.143-2.832,4.642.226-2.672.351-5.637.351-8.763a61.505,61.505,0,0,0-3.925-21.185,61.486,61.486,0,0,0-3.926,21.185c0,3.126.127,6.092.353,8.763-.841-1.5-1.789-3.058-2.832-4.642a44.074,44.074,0,0,0-13-12.583,44.047,44.047,0,0,0,6.444,16.9c.706,1.07,1.42,2.1,2.131,3.071-.1-.055-.2-.11-.3-.164a34.971,34.971,0,0,0-13.732-3.875,35.151,35.151,0,0,0,9.534,8.563,88.508,88.508,0,0,0,10.365,2.584c.272-.013.536-.028.817-.037-1.206-.464-2.563-1.029-3.955-1.649a49.313,49.313,0,0,1-7.481-4.165l-1.483-1.05,1.773.4a49.392,49.392,0,0,1,8.1,2.778c1.652.735,3.219,1.49,4.491,2.158-1.2-1.477-2.676-3.447-4.2-5.6a74.705,74.705,0,0,1-5.455-9.022l-.991-2.018,1.573,1.607a74.7,74.7,0,0,1,6.689,8.146c1.725,2.437,3.274,4.79,4.284,6.486-.182-2.4-.29-6.1-.29-10.119a115.2,115.2,0,0,1,.729-12.836L248.5,286l.36,2.807a113.507,113.507,0,0,1,.738,12.837c0,4.028-.11,7.723-.29,10.117,1.011-1.7,2.559-4.049,4.284-6.485a74.5,74.5,0,0,1,6.689-8.146l1.572-1.605-.99,2.017a74.726,74.726,0,0,1-5.455,9.022c-1.525,2.153-3,4.123-4.2,5.6,1.272-.667,2.839-1.422,4.491-2.158a49.4,49.4,0,0,1,8.1-2.778l1.772-.4-1.483,1.05a49.18,49.18,0,0,1-7.48,4.164c-1.4.621-2.756,1.188-3.956,1.649a72.738,72.738,0,0,1,7.752.666l2.224.346-2.221.368c-.034,0-2.9.469-6.851.687.371.082.746.166,1.1.248a34.507,34.507,0,0,1,4.033,1.185,49,49,0,0,0,8.839-2.445,46.934,46.934,0,0,0-6.672-2q.836-.416,1.692-.87A34.965,34.965,0,0,0,273.373,302.577Z" transform="translate(-223.65 -273.918)" fill="#001733"/>
      <path id="Path_2" data-name="Path 2" d="M266.391,335.441c-5.421-4.883-12.207-6.582-19.155-7.995-6.029-1.225-12.291-5.947-12.141-12.713,1.925,2.441,11.829,3.3,17.851,4.374C260.955,320.542,266.82,326.365,266.391,335.441Z" transform="translate(-219.906 -260.583)" fill="#b4002d"/>
      <path id="Path_3" data-name="Path 3" d="M262.628,341c-3.1-3.288-7.2-4.676-11.421-5.9-3.659-1.059-7.287-4.288-6.854-8.457,1.064,1.6,7.071,1.692,10.8,3.6C259.637,332.539,263.35,335.422,262.628,341Z" transform="translate(-216.892 -256.69)" fill="#b4002d"/>
      <path id="Path_4" data-name="Path 4" d="M267.275,326.33c-.806-1.662-2.543-2.713-4.066-3.653-6.619-4.084-12.248-3.768-19.556-5.222-6.834-1.361-18.9-6.583-16.207-15.259.523,3.71,16.977,5.839,26.094,7.978C261.664,312.076,267.457,315.6,267.275,326.33Z" transform="translate(-222.531 -264.682)" fill="#b4002d"/>
    </g>
    <g id="Group_2" data-name="Group 2" transform="translate(287.967 301.906)">
      <path id="Path_5" data-name="Path 5" d="M272.124,331.223V296.931c0-.99.365-1.354,1.408-1.354h14.593c6.984,0,11.309,4.066,11.309,11.1,0,5.628-2.919,9.225-7.713,10.371a6.711,6.711,0,0,1,2.607,2.972l5.785,11.153c.417.781.312,1.408-.677,1.408h-2.293c-1.721,0-2.241-.208-2.711-1.2l-4.743-9.538c-1.511-3.074-3.022-4.169-6.931-4.169h-5.579v13.548c0,.991-.365,1.354-1.354,1.354h-2.293C272.489,332.577,272.124,332.214,272.124,331.223Zm15.531-18.188c4.118,0,6.516-2.293,6.516-6.359,0-4.117-2.345-6.409-6.516-6.409H277.179v12.769Z" transform="translate(-272.124 -294.834)" fill="#001733"/>
      <path id="Path_6" data-name="Path 6" d="M295.667,320.221v-6.464c0-7.036,4.117-11.152,11.779-11.152,8.026,0,11.779,4.638,11.779,10.789v3.022c0,1.095-.469,1.823-1.876,1.823H300.307v2.5c0,3.961,2.449,6.307,6.984,6.307,3.752,0,5.993-1.461,7.3-3.649.629-.836,1.095-.991,2.031-.469l1.408.73a1.24,1.24,0,0,1,.469,2.031c-1.876,3.179-5.211,5.367-11.2,5.367C299.159,331.061,295.667,326.579,295.667,320.221Zm18.921-5.576v-1.512c0-4.118-2.4-6.566-7.141-6.566-4.69,0-7.139,2.448-7.139,6.566v1.512Z" transform="translate(-264.432 -292.534)" fill="#001733"/>
      <path id="Path_7" data-name="Path 7" d="M316.964,322.883v-7.349c0-6.775,3.44-10.632,10.528-10.632a27.575,27.575,0,0,1,7.349,1.146v-9.224c0-.938.313-1.251,1.2-1.251h2.189c.938,0,1.251.313,1.251,1.251v32.054c0,1.721-.417,2.188-2.085,2.867a24.788,24.788,0,0,1-9.332,1.614C320.456,333.359,316.964,329.555,316.964,322.883Zm17.147,5.421c.677-.313.73-.418.73-1.041v-16.94a20.843,20.843,0,0,0-6.463-1.2c-4.69,0-6.775,2.241-6.775,6.569v7.034c0,4.17,2.293,6.359,6.879,6.359A20,20,0,0,0,334.111,328.3Z" transform="translate(-257.473 -294.832)" fill="#001733"/>
      <path id="Path_8" data-name="Path 8" d="M346.345,331.482l-8.965-34.553c-.262-.938-.1-1.354.886-1.354h2.762c1.146,0,1.615.21,1.824,1.2l5.42,22.618c.365,1.721.781,5.213.938,6.254h.208c.157-1.2.625-4.377,1.095-6.254l6.2-22.2c.26-.99.781-1.2,1.824-1.2h2.136c1.043,0,1.564.207,1.824,1.2l6.1,22.255c.521,1.982.99,5.108,1.146,6.2h.21c.157-.99.573-4.325.938-6.149l5.367-22.725c.26-.99.73-1.2,1.824-1.2h2.449c.991,0,1.146.418.886,1.354l-9.017,34.5c-.208.99-.73,1.146-1.668,1.146h-2.241c-.937,0-1.458-.208-1.719-1.095l-6.254-23.193a35.289,35.289,0,0,1-.938-5.471h-.26a35.731,35.731,0,0,1-1.043,5.42l-6.306,23.193c-.261.99-.781,1.146-1.719,1.146h-2.188C347.126,332.575,346.552,332.42,346.345,331.482Z" transform="translate(-250.838 -294.832)" fill="#001733"/>
      <path id="Path_9" data-name="Path 9" d="M373.844,331.327V296.82c0-.938.313-1.251,1.251-1.251h2.189c.938,0,1.2.313,1.2,1.251v9.23a20.384,20.384,0,0,1,7.349-1.146c7.244,0,10.527,3.805,10.527,10.319v16.1c0,.938-.26,1.251-1.2,1.251H392.97c-.938,0-1.251-.313-1.251-1.251V315.38c0-4.013-2.136-6.256-6.566-6.256a18.108,18.108,0,0,0-6.673,1.2v21c0,.938-.26,1.251-1.2,1.251h-2.189C374.157,332.578,373.844,332.265,373.844,331.327Z" transform="translate(-238.889 -294.833)" fill="#001733"/>
      <path id="Path_10" data-name="Path 10" d="M394.007,298.329v-.364c0-1.928.523-2.4,2.452-2.4h.364c1.878,0,2.45.469,2.45,2.4v.364c0,1.929-.573,2.4-2.45,2.4h-.364C394.53,300.726,394.007,300.308,394.007,298.329Zm.313,33v-24.39c0-.938.313-1.251,1.251-1.251h2.138c.938,0,1.251.313,1.251,1.251v24.391c0,.938-.313,1.251-1.251,1.251h-2.138C394.632,332.579,394.32,332.265,394.32,331.327Z" transform="translate(-232.301 -294.834)" fill="#001733"/>
      <path id="Path_11" data-name="Path 11" d="M406.768,321.529V309.962H402.44c-.935,0-1.248-.313-1.248-1.2v-1.824c0-.938.313-1.251,1.248-1.251h4.328l-.009-8.869c0-.938.313-1.251,1.251-1.251h2.136c.938,0,1.264.313,1.264,1.251l0,8.869h6.827c.938,0,1.251.313,1.251,1.251v1.824c0,.886-.313,1.2-1.251,1.2h-6.827v11.411c0,5.735,1.666,6.777,6.775,6.777.937,0,1.25.312,1.25,1.3v1.824c0,.938-.313,1.3-1.25,1.3C409.738,332.579,406.768,330.234,406.768,321.529Z" transform="translate(-229.953 -294.834)" fill="#001733"/>
      <path id="Path_12" data-name="Path 12" d="M417.417,320.221v-6.464c0-7.036,4.117-11.152,11.779-11.152,8.026,0,11.777,4.638,11.777,10.789v3.022c0,1.095-.469,1.823-1.876,1.823H422.055v2.5c0,3.961,2.448,6.307,6.984,6.307,3.754,0,6-1.461,7.3-3.649.629-.836,1.1-.991,2.034-.469l1.405.73a1.238,1.238,0,0,1,.47,2.031c-1.875,3.179-5.21,5.367-11.2,5.367C420.909,331.061,417.417,326.579,417.417,320.221Zm18.918-5.576v-1.512c0-4.118-2.4-6.566-7.139-6.566-4.693,0-7.141,2.448-7.141,6.566v1.512Z" transform="translate(-224.652 -292.534)" fill="#001733"/>
      <path id="Path_13" data-name="Path 13" d="M438.566,322.973c0-5.464,3.492-8.384,7.558-10.412-2.294-2.343-4.117-5-4.117-8.331,0-4.79,3.492-9.215,9.745-9.215,5.367,0,9.486,4.008,9.486,8.9,0,4.687-2.554,7.289-7.715,9.632l-.52.261,8.026,7.966,3.439-3.333a1.086,1.086,0,0,1,1.669,0l1.563,1.614c.469.52.521.885-.053,1.457L464.1,325l6.412,6.558c.73.73.573,1.2-.573,1.2h-2.866a2.15,2.15,0,0,1-1.878-.73l-4.117-4.114c-5,4.635-7.87,5.624-11.727,5.624C443.2,333.544,438.566,329.117,438.566,322.973ZM458,324.691l-8.912-8.954c-3.805,1.77-5.785,3.9-5.785,7.341a6.031,6.031,0,0,0,6.254,6.039c3.024,0,5.057-1.3,8.444-4.426ZM451.6,309.852c3.128-1.407,5.263-2.656,5.263-5.937a4.961,4.961,0,0,0-5.106-4.841,5.116,5.116,0,0,0-5.315,5.207c0,2.447,1.405,4.11,3.594,6.351Z" transform="translate(-217.741 -295.015)" fill="#001733"/>
      <path id="Path_14" data-name="Path 14" d="M466.306,331.223V296.931c0-.99.365-1.354,1.406-1.354h14.6c6.516,0,10.32,3.387,10.32,9.588,0,4.013-1.458,6.672-4.482,8.133v.157c3.7,1.092,5.838,4.22,5.838,9.068,0,6.514-4.587,10.057-11.257,10.057H467.713C466.671,332.577,466.306,332.214,466.306,331.223Zm15.376-19.7c3.754,0,5.837-1.875,5.837-5.628s-2.034-5.628-5.837-5.628H471.361v11.256Zm.938,16.365c3.91,0,6.044-1.979,6.044-5.889,0-3.857-2.136-5.941-6.044-5.941H471.361v11.83Z" transform="translate(-208.678 -294.834)" fill="#001733"/>
      <path id="Path_15" data-name="Path 15" d="M490.43,331.326v-34.5c0-.938.313-1.251,1.251-1.251h2.189c.885,0,1.2.313,1.2,1.251v34.5c0,.938-.313,1.251-1.2,1.251h-2.189C490.743,332.577,490.43,332.264,490.43,331.326Z" transform="translate(-200.796 -294.832)" fill="#001733"/>
      <path id="Path_16" data-name="Path 16" d="M497.492,321.106v-8.548c0-6.148,4.327-9.953,11.675-9.953,7.5,0,11.727,3.805,11.727,9.953v8.548c0,6.151-4.223,9.955-11.727,9.955C501.818,331.061,497.492,327.257,497.492,321.106Zm18.764,0v-8.548c0-3.649-2.607-5.733-7.089-5.733-4.325,0-7.036,2.084-7.036,5.733v8.548c0,3.6,2.711,5.733,7.036,5.733C513.649,326.839,516.256,324.7,516.256,321.106Z" transform="translate(-198.489 -292.534)" fill="#001733"/>
      <path id="Path_17" data-name="Path 17" d="M518.511,321.106v-8.548c0-6.148,4.328-9.953,11.675-9.953,7.505,0,11.727,3.805,11.727,9.953v8.548c0,6.151-4.222,9.955-11.727,9.955C522.839,331.061,518.511,327.257,518.511,321.106Zm18.76,0v-8.548c0-3.649-2.606-5.733-7.087-5.733-4.325,0-7.036,2.084-7.036,5.733v8.548c0,3.6,2.711,5.733,7.036,5.733,4.484,0,7.09-2.136,7.09-5.733Z" transform="translate(-191.621 -292.534)" fill="#001733"/>
      <path id="Path_18" data-name="Path 18" d="M539.458,329.025V307.29a2.672,2.672,0,0,1,1.982-2.969A21.359,21.359,0,0,1,550.4,302.6c2.972,0,5.161.677,6.725,1.98a22.835,22.835,0,0,1,9.38-1.98c6.93,0,9.953,3.649,9.953,10.11v16.313c0,.938-.313,1.251-1.251,1.251h-2.136c-.938,0-1.251-.313-1.251-1.251V312.868c0-4.013-1.928-6.044-5.941-6.044a16.247,16.247,0,0,0-6.256,1.408,10.761,10.761,0,0,1,.783,4.482v16.313c0,.938-.26,1.251-1.2,1.251h-2.189c-.94,0-1.251-.313-1.251-1.251V312.868c0-4.013-1.979-6.044-6.044-6.044a13.385,13.385,0,0,0-4.951.886.979.979,0,0,0-.677,1.1v20.221c0,.938-.312,1.251-1.25,1.251h-2.138C539.768,330.277,539.458,329.963,539.458,329.025Z" transform="translate(-184.777 -292.532)" fill="#001733"/>
    </g>
  </g>
</svg>
