<svg width="237" height="32" viewBox="0 0 237 32" fill="none" xmlns="http://www.w3.org/2000/svg">
<g clip-path="url(#clip0_444_24240)">
<path d="M32.1413 17.886V27.3198C32.1413 27.7597 31.9556 28.1331 31.5835 28.4396C27.9801 30.8129 23.9157 31.9995 19.3913 31.9995C14.0424 31.9995 9.47315 30.4362 5.68389 27.3095C1.89463 24.1833 0 20.4137 0 16.0002C0 11.5868 1.89463 7.81669 5.68389 4.69001C9.47315 1.56334 14.0424 0 19.3913 0C24.0125 0 28.1256 1.21988 31.7291 3.66011C32.1006 3.98017 32.2864 4.36013 32.2864 4.79998C32.2864 5.23983 32.0964 5.61697 31.7169 5.93002C31.337 6.24353 30.8807 6.39981 30.3473 6.39981C29.8139 6.39981 29.3534 6.23978 28.9655 5.91972C26.2342 4.10651 23.043 3.19967 19.3908 3.19967C15.1084 3.19967 11.4525 4.4495 8.42266 6.94963C5.39284 9.44975 3.8777 12.4665 3.8777 15.9998C3.8777 19.5331 5.39284 22.5498 8.42266 25.0499C11.4525 27.55 15.1084 28.7999 19.3908 28.7999C22.736 28.7999 25.6928 28.04 28.2622 26.5197V18.2159L32.1404 17.8855L32.1413 17.886Z" fill="white"/>
<path d="M39.3223 25.4384V5.33631C39.3223 5.12387 39.3672 4.9236 39.4575 4.73549C39.5473 4.54739 39.6741 4.38314 39.8375 4.24324C40.0003 4.10333 40.1889 3.99477 40.4027 3.91756C40.6161 3.84035 40.8524 3.80151 41.1116 3.80151H47.6265C48.7631 3.80151 49.8347 3.98962 50.8417 4.3663C51.8486 4.74298 52.7265 5.25489 53.4747 5.90156C54.2229 6.5487 54.8167 7.30393 55.2551 8.16819C55.694 9.03245 55.9135 9.95192 55.9135 10.9271C55.9135 11.5644 55.8208 12.1849 55.6351 12.788C55.4493 13.3916 55.1737 13.9611 54.8083 14.4969C54.4423 15.0327 53.9866 15.5301 53.441 15.9886C52.8949 16.4472 52.2623 16.8505 51.5421 17.1977L56.9261 24.5984C57.1175 24.8689 57.2129 25.1487 57.2129 25.4384C57.2129 25.6606 57.168 25.8633 57.0777 26.0467C56.9874 26.2301 56.861 26.392 56.6977 26.5319C56.5344 26.6718 56.3435 26.7804 56.1241 26.8576C55.9046 26.9348 55.6711 26.9736 55.4236 26.9736C54.7933 26.9736 54.2814 26.7228 53.8878 26.2207L47.9298 18.0381H42.9V25.4388C42.9 25.8637 42.7255 26.2259 42.3769 26.5249C42.0278 26.8244 41.6062 26.9736 41.1111 26.9736C40.6161 26.9736 40.194 26.8239 39.8454 26.5249C39.4963 26.2259 39.3223 25.8637 39.3223 25.4388V25.4384ZM42.9005 6.87157V14.9671H47.6265C48.2788 14.9671 48.8923 14.8609 49.4664 14.6485C50.0401 14.436 50.538 14.1441 50.96 13.7721C51.3821 13.4005 51.7167 12.971 51.9642 12.4829C52.2117 11.9954 52.3357 11.4764 52.3357 10.9261C52.3357 10.3759 52.2117 9.84009 51.9642 9.34736C51.7167 8.85511 51.3788 8.42555 50.9516 8.05823C50.5239 7.69138 50.0232 7.40173 49.4496 7.18929C48.8759 6.97685 48.2681 6.87064 47.6265 6.87064H42.9005V6.87157Z" fill="white"/>
<path d="M78.723 23.9031C79.218 23.9031 79.6401 24.0528 79.9887 24.3519C80.3373 24.6513 80.5118 25.0135 80.5118 25.4379C80.5118 25.8623 80.3373 26.225 79.9887 26.524C79.6396 26.8234 79.218 26.9727 78.723 26.9727H63.1106C62.8514 26.9727 62.6156 26.9343 62.4017 26.8567C62.1879 26.7795 61.9993 26.6709 61.8365 26.531C61.6732 26.3911 61.5468 26.2292 61.4565 26.0457C61.3662 25.8623 61.3213 25.6597 61.3213 25.4374V5.33631C61.3213 5.12387 61.3662 4.9236 61.4565 4.73549C61.5464 4.54739 61.6732 4.38314 61.8365 4.24324C61.9993 4.10333 62.1879 3.99477 62.4017 3.91756C62.6156 3.84035 62.8519 3.80151 63.1106 3.80151H78.723C79.218 3.80151 79.6401 3.95125 79.9887 4.25025C80.3373 4.54973 80.5118 4.9119 80.5118 5.33631C80.5118 5.76072 80.3373 6.12336 79.9887 6.42236C79.6396 6.72184 79.218 6.8711 78.723 6.8711H64.8995V13.8516H74.8242C75.3193 13.8516 75.7413 14.0013 76.0899 14.3004C76.4385 14.5998 76.6131 14.962 76.6131 15.3864C76.6131 15.8108 76.4385 16.1735 76.0899 16.4725C75.7409 16.7719 75.3193 16.9212 74.8242 16.9212H64.8995V23.9017H78.723V23.9031Z" fill="white"/>
<path d="M102.055 23.9031C102.551 23.9031 102.973 24.0528 103.321 24.3519C103.67 24.6513 103.844 25.0135 103.844 25.4379C103.844 25.8623 103.67 26.225 103.321 26.524C102.972 26.8234 102.551 26.9727 102.055 26.9727H86.4432C86.1844 26.9727 85.9481 26.9343 85.7343 26.8567C85.5204 26.7795 85.3319 26.6709 85.169 26.531C85.0057 26.3911 84.8794 26.2292 84.7891 26.0457C84.6987 25.8623 84.6543 25.6597 84.6543 25.4374V5.33631C84.6543 5.12387 84.6992 4.9236 84.7891 4.73549C84.8789 4.54739 85.0057 4.38314 85.169 4.24324C85.3319 4.10333 85.5204 3.99477 85.7343 3.91756C85.9481 3.84035 86.1844 3.80151 86.4432 3.80151H102.055C102.551 3.80151 102.973 3.95125 103.321 4.25025C103.67 4.54973 103.844 4.9119 103.844 5.33631C103.844 5.76072 103.67 6.12336 103.321 6.42236C102.972 6.72184 102.551 6.8711 102.055 6.8711H88.2321V13.8516H98.1567C98.6518 13.8516 99.0739 14.0013 99.4225 14.3004C99.7711 14.5998 99.9456 14.962 99.9456 15.3864C99.9456 15.8108 99.7711 16.1735 99.4225 16.4725C99.0734 16.7719 98.6518 16.9212 98.1567 16.9212H88.2321V23.9017H102.055V23.9031Z" fill="white"/>
<path d="M108.003 25.4384V5.33631C108.003 5.12387 108.048 4.9236 108.138 4.73549C108.228 4.54739 108.355 4.38314 108.518 4.24324C108.681 4.10333 108.87 3.99477 109.083 3.91756C109.297 3.84035 109.534 3.80151 109.792 3.80151C110.321 3.80151 110.782 3.98962 111.176 4.3663L126.232 20.9776V5.33631C126.232 4.91143 126.406 4.54973 126.755 4.25025C127.104 3.95125 127.526 3.80151 128.021 3.80151C128.516 3.80151 128.938 3.95125 129.287 4.25025C129.635 4.54973 129.81 4.9119 129.81 5.33631V25.4379C129.81 25.6602 129.765 25.8628 129.674 26.0462C129.584 26.2296 129.458 26.3915 129.294 26.5315C129.131 26.6714 128.94 26.7799 128.721 26.8571C128.501 26.9343 128.268 26.9732 128.02 26.9732C127.491 26.9732 127.036 26.7944 126.653 26.4374L111.581 9.82605V25.4384C111.581 25.8633 111.406 26.2254 111.058 26.5244C110.708 26.8239 110.287 26.9732 109.792 26.9732C109.297 26.9732 108.875 26.8234 108.526 26.5244C108.177 26.2254 108.003 25.8633 108.003 25.4384Z" fill="white"/>
<path d="M134.003 5.33631C134.003 4.91143 134.177 4.54973 134.526 4.25025C134.875 3.95125 135.297 3.80151 135.792 3.80151C136.287 3.80151 136.709 3.95125 137.058 4.25025C137.406 4.54973 137.581 4.9119 137.581 5.33631V23.9031H150.104C150.599 23.9031 151.021 24.0528 151.37 24.3519C151.719 24.6513 151.893 25.0135 151.893 25.4379C151.893 25.8623 151.719 26.225 151.37 26.524C151.021 26.8234 150.599 26.9727 150.104 26.9727H135.791C135.532 26.9727 135.296 26.9343 135.082 26.8567C134.869 26.7795 134.68 26.6709 134.517 26.531C134.354 26.3911 134.227 26.2292 134.137 26.0457C134.047 25.8623 134.002 25.6597 134.002 25.4374V5.33631H134.003Z" fill="#21FF2B"/>
<path d="M160.762 25.4384C160.762 25.8633 160.588 26.2254 160.239 26.5244C159.89 26.8239 159.469 26.9732 158.973 26.9732C158.478 26.9732 158.056 26.8234 157.708 26.5244C157.359 26.2254 157.185 25.8633 157.185 25.4384V5.33631C157.185 4.91143 157.359 4.54973 157.708 4.25025C158.056 3.95125 158.478 3.80151 158.973 3.80151C159.469 3.80151 159.891 3.95125 160.239 4.25025C160.588 4.54973 160.762 4.9119 160.762 5.33631V25.4379V25.4384Z" fill="#21FF2B"/>
<path d="M188.415 23.2948C188.415 23.7005 188.229 24.0674 187.858 24.3954C185.349 26.1141 182.519 26.9732 179.368 26.9732C175.632 26.9732 172.448 25.8436 169.815 23.5845C167.182 21.3253 165.865 18.5931 165.865 15.3873C165.865 12.1816 167.182 9.46388 169.815 7.20473C172.459 4.93576 175.643 3.80151 179.368 3.80151C182.564 3.80151 185.45 4.70461 188.027 6.50986C188.342 6.76114 188.499 7.11349 188.499 7.56691C188.499 7.78917 188.454 7.99178 188.364 8.17521C188.274 8.35864 188.147 8.52054 187.984 8.66045C187.821 8.80036 187.63 8.90892 187.41 8.98612C187.191 9.06333 186.957 9.10217 186.71 9.10217C186.249 9.10217 185.838 8.95711 185.478 8.66747C184.622 8.08818 183.68 7.64412 182.651 7.33528C181.621 7.02645 180.527 6.87204 179.368 6.87204C176.622 6.87204 174.276 7.70729 172.33 9.37731C170.406 11.0282 169.443 13.0318 169.443 15.3873C169.443 17.7429 170.406 19.761 172.33 21.4119C174.265 23.0725 176.611 23.9031 179.368 23.9031C181.404 23.9031 183.227 23.4445 184.836 22.5274V18.0377H180.178C179.672 18.0377 179.247 17.8907 178.904 17.596C178.561 17.3016 178.389 16.9371 178.389 16.5024C178.389 16.29 178.434 16.0897 178.524 15.9016C178.614 15.7135 178.741 15.5492 178.904 15.4093C179.067 15.2694 179.256 15.1609 179.47 15.0837C179.683 15.0065 179.919 14.9676 180.179 14.9676H186.643C186.879 14.9676 187.104 15.0088 187.318 15.0907C187.532 15.173 187.721 15.2839 187.883 15.4238C188.046 15.5638 188.176 15.728 188.272 15.9161C188.367 16.1042 188.415 16.2998 188.415 16.5024V23.2948H188.415Z" fill="#21FF2B"/>
<path d="M212.069 25.4384C212.069 25.8633 211.894 26.2254 211.545 26.5244C211.196 26.8239 210.775 26.9732 210.28 26.9732C209.785 26.9732 209.363 26.8234 209.014 26.5244C208.665 26.2254 208.491 25.8633 208.491 25.4384V16.9226H196.457V25.4384C196.457 25.8633 196.282 26.2254 195.934 26.5244C195.584 26.8239 195.163 26.9732 194.668 26.9732C194.173 26.9732 193.751 26.8234 193.402 26.5244C193.053 26.2254 192.879 25.8633 192.879 25.4384V5.33631C192.879 4.91143 193.053 4.54973 193.402 4.25025C193.751 3.95125 194.173 3.80151 194.668 3.80151C195.163 3.80151 195.585 3.95125 195.934 4.25025C196.282 4.54973 196.457 4.9119 196.457 5.33631V13.8521H208.491V5.33631C208.491 4.91143 208.665 4.54973 209.014 4.25025C209.363 3.95125 209.785 3.80151 210.28 3.80151C210.775 3.80151 211.197 3.95125 211.545 4.25025C211.894 4.54973 212.069 4.9119 212.069 5.33631V25.4379V25.4384Z" fill="#21FF2B"/>
<path d="M234.928 6.87159H228.261V25.4384C228.261 25.8633 228.087 26.2254 227.738 26.5245C227.389 26.8239 226.967 26.9732 226.472 26.9732C225.977 26.9732 225.555 26.8235 225.207 26.5245C224.857 26.2254 224.683 25.8633 224.683 25.4384V6.87159H218.016C217.521 6.87159 217.099 6.72186 216.751 6.42285C216.402 6.12385 216.228 5.76167 216.228 5.3368C216.228 4.91192 216.402 4.55021 216.751 4.25074C217.099 3.95174 217.521 3.802 218.016 3.802H234.929C235.424 3.802 235.846 3.95174 236.194 4.25074C236.543 4.55021 236.718 4.91239 236.718 5.3368C236.718 5.7612 236.543 6.12385 236.194 6.42285C235.845 6.72232 235.424 6.87159 234.929 6.87159H234.928Z" fill="#21FF2B"/>
<path d="M34.661 15.9997L21.3958 14.8636L23.3424 11.8263L20.401 13.5515L19.4942 6.82886L18.3258 13.5281L15.5529 11.6012L17.2968 14.807L10.2803 15.9997L17.2968 17.192L15.5529 20.3978L18.3258 18.4708L19.4942 25.1701L20.401 18.4474L23.3424 20.1727L21.3958 17.1354L34.661 15.9997Z" fill="#21FF2B"/>
</g>
<defs>
<clipPath id="clip0_444_24240">
<rect width="236.718" height="32" fill="white"/>
</clipPath>
</defs>
</svg>
