<?xml version="1.0" encoding="UTF-8"?>
<svg xmlns="http://www.w3.org/2000/svg" width="237" height="101" viewBox="0 0 237 101" fill="none">
  <g id="klutch logo">
    <g id="Homepage---Desk">
      <g id="desk-nav">
        <g id="klutch_logo">
          <path id="Shape" d="M131.128 28.1987L124.922 18.1544L137.868 10.4964L131.128 28.1962V28.1987ZM98.2965 29.8044C98.2965 29.8044 104.56 19.681 104.692 19.4612L113.701 24.7872L122.71 19.4612L129.105 29.8044H98.299H98.2965ZM96.2733 28.1987L89.7566 11.0893L89.5307 10.4989L90.0768 10.82C90.33 10.9682 102.231 18.0086 102.482 18.1544C102.358 18.352 96.2757 28.1987 96.2757 28.1987M106.126 17.1514L113.703 4.88876L121.402 17.3416L113.703 21.85C113.703 21.85 106.34 17.5343 106.201 17.4528L106.007 17.3416L106.126 17.149V17.1514ZM123.621 16.0423L113.698 0L103.783 16.0447L84.6152 4.81712L95.104 32.3661H132.292L142.784 4.81712L123.616 16.0447L123.621 16.0423Z" fill="#CC9F53"></path>
          <path id="Path" d="M23.3168 75.4416L14.3672 64.0337L8.46372 69.2658V75.4416H0.693359V48.9128H8.46372V61.1928L22.0978 48.9128H31.7723L19.9281 59.4858L32.4575 75.4416H23.3168Z" fill="white"></path>
          <path id="Path_2" d="M67.051 69.2263V75.4416H41.3418V48.9128H49.1122V69.2263H67.051Z" fill="white"></path>
          <path id="Path_3" d="M106.33 48.9128V62.9344C106.33 71.0074 100.809 76.3136 90.8662 76.3136C80.9237 76.3136 75.3652 71.0074 75.3652 62.9344V48.9128H83.1356V62.3292C83.1356 66.9536 85.7249 69.9476 90.8687 69.9476C96.0126 69.9476 98.5621 66.9536 98.5621 62.3292V48.9128H106.332H106.33Z" fill="white"></path>
          <path id="Path_4" d="M145.612 55.0911H134.527V75.4416H126.757V55.0911H115.752V48.9128H145.612V55.0911Z" fill="white"></path>
          <path id="Path_5" d="M178.189 65.9671L184.855 69.3786C182.38 73.2817 177.01 76.3153 169.811 76.3153C159.756 76.3153 152.977 71.1227 152.977 62.1801C152.977 53.2376 159.756 48.0425 170.116 48.0425C177.01 48.0425 182.343 51.1501 184.741 54.9396L178.038 58.3511C176.285 55.6214 173.582 54.3344 170.002 54.3344C164.518 54.3344 160.861 57.1011 160.861 62.1801C160.861 67.2591 164.518 70.0259 170.002 70.0259C173.582 70.0259 176.325 68.8129 178.189 65.9721" fill="white"></path>
          <path id="Path_6" d="M226.34 48.9128V75.4416H218.57V65.1725H202.575V75.4416H194.805V48.9128H202.575V58.804H218.57V48.9128H226.34Z" fill="white"></path>
          <path id="Path_7" d="M70.1285 96.0289H72.8245C72.482 98.7413 70.4065 100.577 67.5392 100.577C64.3616 100.577 61.9609 98.2942 61.9609 95.1346C61.9609 91.9751 64.364 89.6901 67.5392 89.6901C70.4065 89.6901 72.482 91.5255 72.8245 94.2379H70.1285C69.8505 92.9262 68.9195 92.1258 67.5243 92.1258C65.8039 92.1258 64.6098 93.3906 64.6098 95.1346C64.6098 96.8787 65.8039 98.141 67.5243 98.141C68.9195 98.141 69.848 97.3382 70.1285 96.0289Z" fill="#CC9F53"></path>
          <path id="Shape_2" d="M83.0415 96.3997L81.6612 92.8696L80.2834 96.3997H83.0415ZM83.893 98.5736H79.4294L78.7318 100.377H75.9414L80.4199 89.8904H82.9298L87.3934 100.377H84.603L83.8905 98.5736H83.893Z" fill="#CC9F53"></path>
          <path id="Path_8" d="M101.101 89.8929V100.379H99.0851L94.0332 94.6261V100.379H91.4141V89.8929H93.4125L98.4968 95.7995V89.8929H101.101Z" fill="#CC9F53"></path>
          <path id="Path_9" d="M115.724 89.8929V100.379H113.708L108.656 94.6261V100.379H106.037V89.8929H108.038L113.12 95.7995V89.8929H115.724Z" fill="#CC9F53"></path>
          <path id="Shape_3" d="M126.836 96.3997L125.456 92.8696L124.078 96.3997H126.836ZM127.688 98.5736H123.224L122.527 100.377H119.736L124.215 89.8904H126.725L131.188 100.377H128.398L127.685 98.5736H127.688Z" fill="#CC9F53"></path>
          <path id="Shape_4" d="M141.731 97.1236C141.731 96.4763 141.187 96.1058 140.211 96.1058H137.826V98.2179H140.167C141.251 98.2179 141.733 97.7411 141.733 97.1236M137.828 92.0199V94.2086H139.797C140.787 94.2086 141.331 93.717 141.331 93.0377C141.331 92.3583 140.805 92.0199 139.797 92.0199H137.828ZM144.29 97.4645C144.29 99.2085 142.88 100.379 140.509 100.379H135.209V89.8929H140.199C142.493 89.8929 143.826 90.9725 143.826 92.6844C143.826 93.6552 143.282 94.6582 142.369 94.9818C143.655 95.2609 144.29 96.338 144.29 97.4645Z" fill="#CC9F53"></path>
          <path id="Rectangle" d="M151.426 89.8929H148.807V100.379H151.426V89.8929Z" fill="#CC9F53"></path>
          <path id="Path_10" d="M165.019 93.1458H162.385C162.246 92.3602 161.766 91.8192 160.649 91.8192C159.718 91.8192 159.115 92.1749 159.115 92.8518C159.115 93.4546 159.55 93.7164 160.386 93.8844L161.858 94.1932C163.795 94.5934 165.036 95.3789 165.036 97.1847C165.036 99.282 163.301 100.576 160.667 100.576C158.296 100.576 156.156 99.4525 155.91 96.8611H158.544C158.715 97.785 159.505 98.373 160.744 98.373C161.675 98.373 162.231 98.0172 162.231 97.4318C162.231 97.0612 162.03 96.6783 161.116 96.5079L159.381 96.1373C157.305 95.6902 156.327 94.749 156.327 93.084C156.327 90.9867 158.03 89.6923 160.51 89.6923C162.216 89.6923 164.758 90.3247 165.021 93.1458" fill="#CC9F53"></path>
          <path id="Shape_5" d="M236.691 49.2008V51.7675H236.043V50.0555L235.032 51.3697H235.01L234.007 50.0555V51.7675H233.359V49.2008H234.054L235.028 50.5076L236.016 49.2008H236.693H236.691ZM233.009 49.7566H231.976V51.7675H231.306V49.7566H230.273V49.2008H233.012V49.7566H233.009Z" fill="white"></path>
        </g>
      </g>
    </g>
  </g>
</svg>
