<?xml version="1.0" encoding="utf-8"?>
<!-- Generator: Adobe Illustrator 16.0.2, SVG Export Plug-In . SVG Version: 6.00 Build 0)  -->
<!DOCTYPE svg PUBLIC "-//W3C//DTD SVG 1.1//EN" "http://www.w3.org/Graphics/SVG/1.1/DTD/svg11.dtd">
<svg version="1.1" id="Layer_1" xmlns="http://www.w3.org/2000/svg" xmlns:xlink="http://www.w3.org/1999/xlink" x="0px" y="0px"
	 width="700px" height="250px" viewBox="0 0 700 250" enable-background="new 0 0 700 250" xml:space="preserve">
<g>
	<defs>
		<rect id="SVGID_1_" width="700" height="250"/>
	</defs>
	<clipPath id="SVGID_2_">
		<use xlink:href="#SVGID_1_"  overflow="visible"/>
	</clipPath>
	<path clip-path="url(#SVGID_2_)" fill="#151011" d="M116.127,152.905L84.49,108.954H31.621v43.952H12.937V34.428h78.773
		c27.178,0,43.952,15.924,43.952,37.37c0,17.835-12.103,30.362-31.212,35.033l32.911,46.075H116.127z M31.621,49.928v43.739h56.267
		c18.472,0,28.664-7.431,28.664-21.869c0-14.439-10.192-21.87-28.664-21.87H31.621z"/>
	<path clip-path="url(#SVGID_2_)" fill="#151011" d="M229.93,155.028c-49.684,0-84.93-23.567-84.93-61.362
		c0-37.582,35.458-61.362,84.93-61.362s85.143,23.568,85.143,61.362C315.073,131.461,280.251,155.028,229.93,155.028 M229.93,48.017
		c-36.945,0-65.396,16.137-65.396,45.65c0,29.726,28.451,45.65,65.396,45.65s65.609-15.924,65.609-45.65
		C295.539,64.154,266.875,48.017,229.93,48.017"/>
	<path clip-path="url(#SVGID_2_)" fill="#151011" d="M423.781,123.604h-78.985l-18.897,29.301h-20.596l78.985-120.601
		l79.198,120.601h-20.809L423.781,123.604z M354.775,107.893h58.813l-29.301-45.65L354.775,107.893z"/>
	<polygon clip-path="url(#SVGID_2_)" fill="#151011" points="667.316,152.906 635.681,67.975 577.503,155.028 519.538,67.975 
		487.9,152.906 468.155,152.906 515.292,32.305 577.503,125.303 639.927,32.305 687.063,152.906 	"/>
	<path clip-path="url(#SVGID_2_)" fill="#151011" d="M142.838,217.096v-30.119h17.999c9.24,0,19.379,4.38,19.379,15.059
		c0,10.74-10.139,15.061-19.379,15.061H142.838z M160.058,211.456c6.3,0,13.139-2.04,13.139-9.421c0-7.318-6.839-9.419-13.139-9.419
		h-10.68v18.84H160.058z"/>
	<rect x="191.198" y="186.977" clip-path="url(#SVGID_2_)" fill="#151011" width="6.54" height="30.119"/>
	<path clip-path="url(#SVGID_2_)" fill="#151011" d="M238.776,193.396c-2.7-0.78-6.9-1.44-12.42-1.44
		c-5.279,0-10.619,0.6-10.619,3.54c0,6.24,25.799-1.44,25.799,12.54c0,8.339-8.94,9.659-17.399,9.659
		c-5.16,0-10.92-0.48-15.36-1.261l0.24-5.459c4.74,0.84,9.18,1.26,14.22,1.26c6.239,0,11.879-0.72,11.879-3.96
		c0-6.779-25.859,1.141-25.859-12.539c0-8.159,9.24-9.239,16.019-9.239c6.12,0,11.76,0.899,13.8,1.439L238.776,193.396z"/>
	<path clip-path="url(#SVGID_2_)" fill="#151011" d="M258.696,207.436v9.66h-6.54v-30.119h20.7c8.639,0,11.879,5.52,11.879,10.2
		c0,4.68-3.24,10.259-11.879,10.259H258.696z M258.696,192.677v9.06h12.78c5.339,0,6.299-2.521,6.299-4.56
		c0-1.98-0.96-4.5-6.299-4.5H258.696z"/>
	<polygon clip-path="url(#SVGID_2_)" fill="#151011" points="294.876,217.095 294.876,186.977 325.295,186.977 325.295,192.196 
		301.416,192.196 301.416,199.517 320.975,199.517 320.975,204.256 301.416,204.256 301.416,211.936 325.295,211.936 
		325.295,217.095 	"/>
	<polygon clip-path="url(#SVGID_2_)" fill="#151011" points="342.936,198.436 342.936,217.095 336.396,217.095 336.396,186.497 
		364.835,205.696 364.835,186.977 371.375,186.977 371.375,217.695 	"/>
	<path clip-path="url(#SVGID_2_)" fill="#151011" d="M412.415,193.396c-2.7-0.78-6.9-1.44-12.421-1.44
		c-5.278,0-10.618,0.6-10.618,3.54c0,6.24,25.799-1.44,25.799,12.54c0,8.339-8.94,9.659-17.399,9.659
		c-5.16,0-10.92-0.48-15.359-1.261l0.239-5.459c4.74,0.84,9.181,1.26,14.221,1.26c6.238,0,11.879-0.72,11.879-3.96
		c0-6.779-25.859,1.141-25.859-12.539c0-8.159,9.24-9.239,16.02-9.239c6.119,0,11.76,0.899,13.8,1.439L412.415,193.396z"/>
	<path clip-path="url(#SVGID_2_)" fill="#151011" d="M450.935,211.996h-20.459l-3.3,5.099h-7.319l20.879-30.598l20.879,30.598
		h-7.319L450.935,211.996z M434.016,206.656h13.439l-6.72-10.261L434.016,206.656z"/>
	<path clip-path="url(#SVGID_2_)" fill="#151011" d="M495.454,217.096l-6.36-9.42h-12.898v9.42h-6.54v-30.119h20.579
		c8.64,0,11.88,5.64,11.88,10.32c0,3.659-1.8,7.618-6.3,9.419l6.96,10.38H495.454z M476.195,192.797v9.119h13.079
		c4.979,0,5.819-2.46,5.819-4.619c0-1.98-0.84-4.5-5.819-4.5H476.195z"/>
	<polygon clip-path="url(#SVGID_2_)" fill="#151011" points="523.415,217.095 523.415,206.056 507.275,186.977 515.375,186.977 
		526.715,200.535 538.054,186.977 546.094,186.977 530.015,206.056 530.015,217.095 	"/>
</g>
</svg>
