<?xml version="1.0" encoding="UTF-8"?>
<!-- Generator: Adobe Illustrator 28.2.0, SVG Export Plug-In . SVG Version: 6.00 Build 0)  -->
<svg xmlns="http://www.w3.org/2000/svg" xmlns:xlink="http://www.w3.org/1999/xlink" version="1.1" id="Layer_1" x="0px" y="0px" viewBox="0 0 584 206" style="enable-background:new 0 0 584 206;" xml:space="preserve">
<style type="text/css">
	.st0{fill:#3CB54A;}
	.st1{fill:#FFFFFF;}
</style>
<g>
	<g>
		<polygon class="st0" points="98.4,92.5 76.1,134 98.6,175.2 143.5,174.9 165.9,133.5 143.3,92.3   "></polygon>
		<polygon class="st0" points="143.3,82.8 165.6,41.4 143.1,0.2 98.4,0.4 76.1,41.9 98.6,83.1   "></polygon>
		<polygon class="st0" points="68.2,46.7 23.3,46.9 1,88.4 23.6,129.6 68.5,129.3 90.8,87.9   "></polygon>
		<polygon class="st0" points="343,176 363.4,176 363.4,169.2 350.4,169.2 350.4,155 360.7,155 360.7,148.2 350.4,148.2     350.4,134.9 363.4,134.9 363.4,128.1 343,128.1   "></polygon>
		<path class="st0" d="M378.1,127.5c-7.3,0.2-11,4.3-11.2,12.2c0,13.6,14.7,15.5,14.7,25.3c0,3.3-0.3,4.4-3.8,4.6    c-2.4,0.2-3.6-1.4-3.8-4.6v-3.5H367v3c0.2,7.8,3.9,11.8,11.2,12c7.4-0.2,11.2-4.2,11.2-12c0-13.6-14.7-15.5-14.7-25.3    c0-3.1,1.3-4.6,3.8-4.6c2.5-0.2,3.8,1.4,3.8,4.6v1.9h7.1v-1.6C389.1,131.7,385.4,127.7,378.1,127.5z"></path>
		<polygon class="st0" points="330.8,156.6 323.1,128.1 313.6,128.1 313.6,175.7 320.4,175.7 320.4,141.1 329.9,176 337.6,176     337.6,128.1 330.8,128.1   "></polygon>
		<polygon class="st0" points="508.2,134.9 516.1,134.9 516.1,176 523.7,176 523.7,134.9 531.3,134.9 531.3,128.1 508.2,128.1   "></polygon>
		<polygon class="st0" points="228.2,166.2 224.4,128.1 217,128.1 213.5,165.9 209.4,128.1 202.1,128.1 207.5,176 217.8,176     220.6,150.4 223,176 233.1,176 238.5,128.1 232,128.1   "></polygon>
		<polygon class="st0" points="242.3,176 262.7,176 262.7,169.2 249.7,169.2 249.7,155 260,155 260,148.2 249.7,148.2 249.7,134.9     262.7,134.9 262.7,128.1 242.3,128.1   "></polygon>
		<path class="st0" d="M582.2,170v-7.3c0.4-4.9-1.3-8.2-4.9-10.1c3.3-1.6,4.9-4.9,4.9-9.8V139c0.2-7.3-3.5-10.9-11.2-10.9h-11.4V176    h7.6v-19.6h2.7c3.3-0.2,4.9,1.8,4.9,6v7.6c0,4.1,0.3,4.6,0.8,6v-0.3h7.3C582.5,174.2,582.2,172.3,582.2,170z M575.1,144.4    c-0.2,3.6-1.7,5.4-4.6,5.2h-3v-14.7h3.8c2.5-0.2,3.8,1.4,3.8,4.9V144.4z"></path>
		<polygon class="st0" points="298.1,128.1 290.5,128.1 290.5,176 310.4,176 310.4,169.2 298.1,169.2   "></polygon>
		<polygon class="st0" points="275,128.1 267.4,128.1 267.4,176 287.2,176 287.2,169.2 275,169.2   "></polygon>
		<polygon class="st0" points="534.8,176 555.2,176 555.2,169.2 542.2,169.2 542.2,155 552.5,155 552.5,148.2 542.2,148.2     542.2,134.9 555.2,134.9 555.2,128.1 534.8,128.1   "></polygon>
		<path class="st0" d="M440.4,127.5c-7.4,0.2-11.2,4.2-11.2,12v24.8c0.2,7.8,3.9,11.8,11.2,12c7.4-0.2,11.2-4.2,11.2-12V158h-7.1    v6.8c0,3.1-1.3,4.6-3.8,4.6c-2.4,0.2-3.6-1.4-3.8-4.6V139c0-3.1,1.3-4.6,3.8-4.6c2.4-0.2,3.6,1.4,3.8,4.6v5.2h7.1v-4.6    C451.4,131.7,447.7,127.7,440.4,127.5z"></path>
		<path class="st0" d="M403.7,127.5c-7.4,0.2-11.2,4.3-11.2,12.2c0,13.6,14.7,15.5,14.7,25.3c0,3.1-1.3,4.6-3.8,4.6    c-2.4,0.2-3.6-1.4-3.8-4.6v-3.5h-7.1v3c0.2,7.8,3.9,11.8,11.2,12c7.4-0.2,11.2-4.2,11.2-12c0-13.6-14.7-15.5-14.7-25.3    c0-3.1,1.3-4.6,3.8-4.6c2.5-0.2,3.8,1.4,3.8,4.6v1.9h7.1v-1.6C414.7,131.7,411,127.7,403.7,127.5z"></path>
		<polygon class="st0" points="498.4,156.6 490.8,128.1 481.2,128.1 481.2,175.7 488,175.7 488,141.1 497.6,176 505.2,176     505.2,128.1 498.4,128.1   "></polygon>
		<polygon class="st0" points="456.2,176 476.6,176 476.6,169.2 463.5,169.2 463.5,155 473.9,155 473.9,148.2 463.5,148.2     463.5,134.9 476.6,134.9 476.6,128.1 456.2,128.1   "></polygon>
		<polygon class="st0" points="322.9,99.2 291.6,99.2 291.6,65.5 316.3,65.5 316.3,48.9 291.6,48.9 291.6,16.8 322.9,16.8     322.9,0.2 273.3,0.2 273.3,115.8 322.9,115.8   "></polygon>
		<polygon class="st0" points="260.3,115.6 260.3,0.2 241.8,0.2 241.8,49.7 221.1,49.7 221.1,0.2 202.9,0.2 202.9,115.6     221.1,115.6 221.1,66 241.8,66 241.8,115.6   "></polygon>
		<path class="st0" d="M507.4,0.2H481l-18.5,115.4h16.6l3-21h22.3l3,21h18.2L507.4,0.2z M484.2,78.8l8.7-58.2l8.7,58.2H484.2z"></path>
		<polygon class="st0" points="371.8,115.6 371.8,115.6 371.8,115.6   "></polygon>
		<polygon class="st0" points="582.2,99 552.3,99 552.3,0.2 534,0.2 534.3,115.6 582.2,115.6   "></polygon>
		<path class="st0" d="M387.9,101.4V83.7c0-12-3-20.7-12-24.5c8-3.8,12-11.6,12-23.4v-9.3c0-17.7-8.2-26.4-26.9-26.4h-27.2v115.1    H352V68.5h6.3c8.4,0,12,4.1,12,14.7v18.2c0,9.3,0.5,11.2,1.6,14.1l18-0.3C388.4,111.5,387.7,106.8,387.9,101.4z M369.9,39.9    c0,9.3-4.1,12.2-10.9,12.2H352V16.8h0l8.7-0.3c6.3,0,9.4,4,9.3,12V39.9z"></path>
		<path class="st0" d="M442.6,53.8c8-3.6,11.9-11.3,11.7-23.1v-4.1h0c0-17.7-8.2-26.4-26.9-26.4h-27.2V115h28.6    c18.3-0.2,27.5-9.3,27.5-27.2v-9.3C456.6,66,452,57.8,442.6,53.8z M418.4,16.8L418.4,16.8l8.7-0.3c6.3,0,9.4,4,9.3,12V35    c0,9.3-4.1,12.2-10.9,12.2h-7.1V16.8z M438,87.5c0,8.7-3.3,11.4-9.3,11.4h-10.3V63.6h7.9c8.2,0,11.7,3.3,11.7,13.9V87.5z"></path>
	</g>
	<path class="st1" d="M119.1,110.2c-11.1,2.3-13.4,9-13.4,9s2.1-20.3,33.8-14.3c-5.1,11.5-16.1,18.2-25.1,16.6   c-1.2,9.7-6.4,33.6,13.6,50h-23.5C102.5,160,97.2,120.1,119.1,110.2"></path>
	<polygon class="st1" points="51.2,113.7 38.1,113.7 38.1,93.2 18.7,93.2 18.7,79.2 38.1,79.2 38.1,58.7 51.2,58.7 51.2,79.2    70.5,79.2 70.5,93.2 51.2,93.2  "></polygon>
	<g>
		<path d="M207.5,193.3c0-4.2,1.4-7.9,7.1-7.9c5,0,6.9,2.8,6.9,6h-2.7c-0.1-2.2-1.2-3.8-4.2-3.8c-3.6,0-4.4,2.5-4.4,5.7    s0.8,5.6,4.4,5.6c3,0,4.1-1.6,4.2-3.9h2.7c0,3.4-1.9,6.1-6.9,6.1C208.8,201.2,207.5,197.5,207.5,193.3z"></path>
		<path d="M229.5,197.4c0-2.3,1.6-3.3,5.1-3.6l3.9-0.4c-0.1-2-0.7-2.8-3.2-2.8c-2.3,0-2.9,0.9-2.9,2.4l-2.5,0c0-2.5,1.1-4.5,5.4-4.5    c5,0,5.7,2.2,5.7,5.5v7h-1.4l-0.5-1.8c-0.6,1-2.3,2-4.8,2C231.6,201.2,229.5,200,229.5,197.4z M234.9,199.2c2.5,0,3.6-1.3,3.6-3.4    v-0.4l-3.5,0.4c-2.1,0.2-2.9,0.7-2.9,1.7C232.2,198.5,233.1,199.2,234.9,199.2z"></path>
		<path d="M249.6,188.7h1.4l0.6,1.7c0.4-0.8,1.7-1.9,4.5-1.9c4,0,4.8,2.4,4.8,5.8v6.6h-2.5v-6.8c0-2.2-0.4-3.5-3-3.5    s-3.2,1.3-3.2,3.5v6.8h-2.6V188.7z"></path>
		<path d="M269.5,188.7h1.4l0.6,1.7c0.4-0.8,1.7-1.9,4.5-1.9c4,0,4.8,2.4,4.8,5.8v6.6h-2.5v-6.8c0-2.2-0.4-3.5-3-3.5    c-2.6,0-3.2,1.3-3.2,3.5v6.8h-2.6V188.7z"></path>
		<path d="M289,197.4c0-2.3,1.6-3.3,5.1-3.6l3.9-0.4c-0.1-2-0.7-2.8-3.2-2.8c-2.3,0-2.9,0.9-2.9,2.4l-2.5,0c0-2.5,1.1-4.5,5.4-4.5    c5,0,5.7,2.2,5.7,5.5v7h-1.4l-0.5-1.8c-0.6,1-2.3,2-4.8,2C291.1,201.2,289,200,289,197.4z M294.4,199.2c2.5,0,3.6-1.3,3.6-3.4    v-0.4l-3.5,0.4c-2.1,0.2-2.9,0.7-2.9,1.7C291.6,198.5,292.6,199.2,294.4,199.2z"></path>
		<path d="M310.9,199.2l-0.5,1.8H309v-17h2.5v6.2c0.5-0.8,1.8-1.7,4.2-1.7c4.1,0,5.2,3,5.2,6.3c0,3.4-1.2,6.3-5.2,6.3    C312.7,201.2,311.4,200.1,310.9,199.2z M315,199.1c2.8,0,3.4-1.7,3.4-4.2c0-2.5-0.6-4.2-3.4-4.2c-2.9,0-3.4,1.7-3.4,4.1    C311.5,197.4,312.1,199.1,315,199.1z"></path>
		<path d="M330.6,183.7c1.1,0,1.8,0.3,1.8,1.6c0,1.2-0.7,1.5-1.8,1.5c-1.2,0-1.9-0.3-1.9-1.5C328.7,184,329.4,183.7,330.6,183.7z     M329.3,188.7h2.5V201h-2.5V188.7z"></path>
		<path d="M340,196.6h2.5c0,1.7,1.1,2.5,3.4,2.5c1.8,0,2.9-0.6,2.9-1.6c0-1.1-1.4-1.4-3.5-1.8c-2.6-0.5-5-1.1-5-3.4    c0-2.4,1.8-3.7,5.4-3.7c3.6,0,5.4,1.5,5.4,4.4h-2.4c-0.1-1.7-1-2.4-3.1-2.4c-2,0-2.8,0.6-2.8,1.5c0,1.1,1.4,1.3,3.4,1.7    c2.8,0.6,5.1,1,5.1,3.6c0,2.2-2.2,3.7-5.4,3.7C341.9,201.2,340,199.7,340,196.6z"></path>
		<path d="M371.7,185.7h5.9c4.6,0,7,2.7,7,7.6c0,4.9-2.6,7.8-7.3,7.8h-5.6V185.7z M376.8,198.9c3.4,0,5.2-1.5,5.2-5.6    c0-4.2-1.7-5.4-5-5.4h-2.7v11H376.8z"></path>
		<path d="M394.4,183.7c1.1,0,1.8,0.3,1.8,1.6c0,1.2-0.7,1.5-1.8,1.5c-1.2,0-1.9-0.3-1.9-1.5C392.5,184,393.3,183.7,394.4,183.7z     M393.1,188.7h2.5V201h-2.5V188.7z"></path>
		<path d="M403.8,196.6h2.5c0,1.7,1.1,2.5,3.4,2.5c1.8,0,2.9-0.6,2.9-1.6c0-1.1-1.4-1.4-3.5-1.8c-2.6-0.5-5-1.1-5-3.4    c0-2.4,1.8-3.7,5.4-3.7c3.6,0,5.4,1.5,5.4,4.4h-2.4c-0.1-1.7-1-2.4-3.1-2.4c-2,0-2.8,0.6-2.8,1.5c0,1.1,1.4,1.3,3.4,1.7    c2.8,0.6,5.1,1,5.1,3.6c0,2.2-2.2,3.7-5.4,3.7C405.8,201.2,403.8,199.7,403.8,196.6z"></path>
		<path d="M423.4,188.7h1.4l0.5,1.8c0.5-0.8,1.8-1.9,4.7-1.9c4,0,5.2,3,5.2,6.3s-1.1,6.3-5.2,6.3c-2.4,0-3.6-0.9-4.2-1.7v6.3h-2.5    V188.7z M429.3,199c2.8,0,3.4-1.7,3.4-4.2c0-2.5-0.6-4.2-3.4-4.2c-2.9,0-3.5,1.7-3.5,4.2C425.9,197.3,426.4,199,429.3,199z"></path>
		<path d="M443.3,194.8c0-3.3,1.2-6.3,6.1-6.3c4.5,0,5.8,3.5,5.5,7.3h-9c0.1,2.1,1.2,3.3,3.4,3.3c2,0,2.7-1,2.9-2h2.7    c-0.2,2.1-1.7,3.9-5.5,3.9C444.5,201.2,443.3,198.1,443.3,194.8z M452.3,193.8L452.3,193.8c0-1.7-0.8-3.3-3.1-3.3    c-2.4,0-3.1,1.5-3.2,3.3H452.3z"></path>
		<path d="M463.4,188.7h1.4l0.6,1.7c0.4-0.8,1.7-1.9,4.5-1.9c4,0,4.8,2.4,4.8,5.8v6.6h-2.5v-6.8c0-2.2-0.4-3.5-3-3.5    c-2.6,0-3.2,1.3-3.2,3.5v6.8h-2.6V188.7z"></path>
		<path d="M482.7,196.6h2.5c0,1.7,1.1,2.5,3.4,2.5c1.8,0,2.9-0.6,2.9-1.6c0-1.1-1.4-1.4-3.5-1.8c-2.6-0.5-5-1.1-5-3.4    c0-2.4,1.8-3.7,5.4-3.7c3.6,0,5.4,1.5,5.4,4.4h-2.4c-0.1-1.7-1-2.4-3.1-2.4c-2,0-2.8,0.6-2.8,1.5c0,1.1,1.4,1.3,3.4,1.7    c2.8,0.6,5.1,1,5.1,3.6c0,2.2-2.2,3.7-5.4,3.7C484.7,201.2,482.7,199.7,482.7,196.6z"></path>
		<path d="M501.8,197.4c0-2.3,1.6-3.3,5.1-3.6l3.9-0.4c-0.1-2-0.7-2.8-3.2-2.8c-2.3,0-2.9,0.9-2.9,2.4l-2.5,0c0-2.5,1.1-4.5,5.4-4.5    c5,0,5.7,2.2,5.7,5.5v7h-1.4l-0.5-1.8c-0.6,1-2.3,2-4.8,2C503.9,201.2,501.8,200,501.8,197.4z M507.2,199.2c2.5,0,3.6-1.3,3.6-3.4    v-0.4l-3.5,0.4c-2.1,0.2-2.9,0.7-2.9,1.7C504.4,198.5,505.4,199.2,507.2,199.2z"></path>
		<path d="M521.8,188.7h1.4l0.6,1.7c0.7-1.6,2.2-2,4.4-1.9v2.2c-2.5-0.4-3.8,0.9-3.8,3.7v6.5h-2.6V188.7z"></path>
		<path d="M537.2,183.7c1.1,0,1.8,0.3,1.8,1.6c0,1.2-0.7,1.5-1.8,1.5c-1.2,0-1.9-0.3-1.9-1.5C535.3,184,536,183.7,537.2,183.7z     M535.9,188.7h2.5V201h-2.5V188.7z"></path>
		<path d="M546.8,194.8c0-3.3,1.2-6.3,6.1-6.3c4.5,0,5.8,3.5,5.5,7.3h-9c0.1,2.1,1.2,3.3,3.4,3.3c2,0,2.7-1,2.9-2h2.7    c-0.2,2.1-1.7,3.9-5.5,3.9C548,201.2,546.8,198.1,546.8,194.8z M555.8,193.8L555.8,193.8c0-1.7-0.8-3.3-3.1-3.3    c-2.4,0-3.1,1.5-3.2,3.3H555.8z"></path>
		<path d="M566.2,196.6h2.5c0,1.7,1.1,2.5,3.4,2.5c1.8,0,2.9-0.6,2.9-1.6c0-1.1-1.4-1.4-3.5-1.8c-2.6-0.5-5-1.1-5-3.4    c0-2.4,1.8-3.7,5.4-3.7c3.6,0,5.4,1.5,5.4,4.4h-2.4c-0.1-1.7-1-2.4-3.1-2.4c-2,0-2.8,0.6-2.8,1.5c0,1.1,1.4,1.3,3.4,1.7    c2.8,0.6,5.1,1,5.1,3.6c0,2.2-2.2,3.7-5.4,3.7C568.2,201.2,566.2,199.7,566.2,196.6z"></path>
	</g>
</g>
</svg>
