<?xml version="1.0" encoding="utf-8"?>
<!-- Generator: Adobe Illustrator 27.2.0, SVG Export Plug-In . SVG Version: 6.00 Build 0)  -->
<svg version="1.1" id="Layer_1" xmlns="http://www.w3.org/2000/svg" xmlns:xlink="http://www.w3.org/1999/xlink" x="0px" y="0px"
	 viewBox="0 0 832.8 163.6" style="enable-background:new 0 0 832.8 163.6;" xml:space="preserve">
<style type="text/css">
	.st0{fill:#181818;}
</style>
<path id="Path_1476" class="st0" d="M42.8,127.9c-24.9,0-41.1-13.5-42.8-32.1h27.6c0.9,6.5,6.9,9.6,14.6,9.6c5.8,0,9-2.7,9-6
	c0-14.1-48.5-2.3-48.5-36.1c0-16.1,12.8-29.2,37-29.2c24.5,0,36.8,14.3,39.3,32.3H51.4c-1.3-6-5.6-9.7-13-9.7c-4.9,0-7.9,2.3-7.9,6
	c0,13.4,48.5,2,48.5,37.2C79,115.8,65.1,127.9,42.8,127.9"/>
<path id="Path_1477" class="st0" d="M373.1,96.1c-6,18.8-22.2,31.8-44.6,31.8c-27.8,0-46.6-20.4-46.6-46.9
	c0-26.7,18.8-46.9,46.6-46.9c28,0,46.6,20.2,46.6,46.6c0,2.8-0.2,5.5-0.5,8.3h-63.9c0,9.8,10,15.3,18.7,15.3
	c6.4,0.1,12.4-2.9,16.1-8.1H373.1z M310.7,71.1h38.2c0-8.1-7.9-14.8-19.1-14.8C318.6,56.3,310.7,63,310.7,71.1"/>
<path id="Path_1478" class="st0" d="M435.6,61.9c-15.2,0-24.7,10.5-24.7,21.4v43h-27.8V81.2c0-28.3,20.7-46.9,52.5-46.9V61.9z"/>
<path id="Path_1479" class="st0" d="M486.4,34.3c-27.1,0-46.8,19.1-46.8,45.4c0,26.5,18.8,43.1,36.5,45.3c15,1.9,25.1-4.2,29.7-8.1
	v2.7c0,5.7-1.9,10.1-5.9,13.5c-4,3.4-9.5,5.2-16.4,5.2c-9,0-16.7-2.8-22.8-8.5l-1.4-1.3l-14.1,19l1.1,1
	c10.3,9.9,23.5,14.9,39.3,14.9c14.2,0,25.8-4,34.4-12c8.6-8,13-18.6,13-31.7V79.7C533.1,53.8,513,34.3,486.4,34.3 M505.5,81
	c0,10.2-8.5,18.2-19.3,18.2c-10.7,0-19.2-8-19.2-18.2s8.4-18.2,19.2-18.2C497.1,62.8,505.5,70.8,505.5,81"/>
<path id="Path_1480" class="st0" d="M587,34.3c27.8,0,46.6,20.2,46.6,46.9c0,26.5-18.8,46.9-46.6,46.9c-28,0-46.7-20.4-46.7-46.9
	C540.3,54.5,559.1,34.3,587,34.3 M568.1,80.8c0,10.5,7.6,19.1,18.9,19.1c11.2,0,18.8-8.7,18.8-19.1c0-10.6-7.6-19.3-18.8-19.3
	C575.7,61.5,568.1,70.1,568.1,80.8"/>
<path id="Path_1481" class="st0" d="M686.8,34.3c27.8,0,46.6,20.2,46.6,46.9c0,26.5-18.8,46.9-46.6,46.9c-28,0-46.7-20.4-46.7-46.9
	C640.1,54.5,658.9,34.3,686.8,34.3 M667.9,80.8c0,10.5,7.6,19.1,18.9,19.1c11.2,0,18.8-8.7,18.8-19.1c0-10.6-7.6-19.3-18.8-19.3
	C675.5,61.5,667.9,70.1,667.9,80.8"/>
<path id="Path_1482" class="st0" d="M832.8,0v81.2c0,26.7-18.6,46.9-46.6,46.9c-27.1,0-46.6-19.5-46.6-46.9
	c0-27.6,17.1-46.9,41.7-46.9c9.7,0,17.5,3.1,23.6,8.3V0H832.8z M804.2,80.8c0-11.2-7.9-19.3-18.8-19.3c-11.5,0-18.8,8.8-18.8,19.3
	c0,10.1,6.9,19.1,18.8,19.1C797.5,99.9,804.2,90.9,804.2,80.8"/>
<path id="Path_1483" class="st0" d="M181.5,162.2V81c0-26.7,18.6-46.9,46.6-46.9c27.1,0,46.6,19.5,46.6,46.9s-17.1,45.4-41.7,45.4
	c-7.5,0-17.7-1.6-23.6-6.8v42.6H181.5z M229.8,62c-10.7,0-19.3,8.6-19.3,19.3s8.6,19.3,19.3,19.3c10.7,0,19.3-8.6,19.3-19.3
	C249.1,70.6,240.5,62,229.8,62"/>
<path id="Path_1484" class="st0" d="M130.1,127.9c-24.9,0-43.7-20-43.7-46.9V35.9h28v47.4c0,11.2,6.5,19.1,15.7,19.1
	c9.6,0,15.7-8.7,15.7-19.1V35.9h27.6V81C173.4,107.9,154.8,127.9,130.1,127.9"/>
</svg>
