<?xml version="1.0" encoding="UTF-8"?> <svg xmlns="http://www.w3.org/2000/svg" viewBox="0 0 321.12 92.98"><defs><style>.d{fill:#009fab;}.e{fill:#9bcb00;}</style></defs><g id="a"></g><g id="b"><g id="c"><g><g><path class="d" d="M1.65,81.47H13.96v1.56H1.65v9.68H0v-21.41H14.38v1.65H1.65v8.52Z"></path><path class="d" d="M37.32,92.68l-2.35-5.25h-12.76l-2.32,5.25h-1.77l9.59-21.38h1.8l9.59,21.38h-1.77Zm-2.99-6.78l-5.74-13.01-5.74,13.01h11.48Z"></path><path class="d" d="M61.17,92.68h-2.17l-7.39-8.09h-5.83v8.09h-1.65v-21.38h9.41c4.64,0,6.99,3.33,7.02,6.66,.03,3.48-2.26,6.53-6.93,6.53l7.54,8.18Zm-15.39-9.65h7.57c3.73,0,5.37-2.11,5.41-5.1,.03-2.5-1.68-5.1-5.22-5.1h-7.76v10.2Z"></path><path class="d" d="M84.86,73.68l-8.18,12.52h-.55l-8.25-12.52v18.99h-1.65v-21.38h1.95l8.18,12.46,8.09-12.46h2.02v21.38h-1.62v-18.99Z"></path><path class="d" d="M110.48,92.68l-2.35-5.25h-12.76l-2.32,5.25h-1.77l9.59-21.38h1.8l9.59,21.38h-1.77Zm-2.99-6.78l-5.74-13.01-5.74,13.01h11.48Z"></path><path class="d" d="M133.66,89.71c-2.14,2.14-4.98,3.21-7.79,3.21-7.21,0-10.96-5.04-10.99-10.81-.06-5.71,3.66-11.05,10.99-11.05,2.81,0,5.65,1.07,7.79,3.21l-1.13,.98c-1.83-1.83-4.25-2.72-6.66-2.72-6.23,0-9.44,4.4-9.41,9.53,.06,5.01,3.24,9.34,9.41,9.34,2.41,0,4.86-.92,6.69-2.72l1.1,1.04Z"></path><path class="d" d="M141.42,81.16h12.52v1.5h-12.52v8.43h13.5v1.59h-15.12v-21.38h14.75v1.56h-13.13v8.31Z"></path><path class="d" d="M177.2,71.3v13.28c0,11.18-16.37,11.21-16.37,0v-13.28h1.62v13.28c0,9.19,13.13,9.16,13.13,0v-13.28h1.62Z"></path><path class="d" d="M190.06,72.8h-7.73v-1.47h17.1v1.47h-7.73v19.88h-1.65v-19.88Z"></path><path class="d" d="M204.87,92.68v-21.38h1.62v21.38h-1.62Z"></path><path class="d" d="M231.13,89.71c-2.14,2.14-4.98,3.21-7.79,3.21-7.21,0-10.96-5.04-10.99-10.81-.06-5.71,3.66-11.05,10.99-11.05,2.81,0,5.65,1.07,7.79,3.21l-1.13,.98c-1.83-1.83-4.25-2.72-6.66-2.72-6.23,0-9.44,4.4-9.41,9.53,.06,5.01,3.24,9.34,9.41,9.34,2.41,0,4.86-.92,6.69-2.72l1.1,1.04Z"></path><path class="d" d="M253.33,92.68l-2.35-5.25h-12.76l-2.32,5.25h-1.77l9.59-21.38h1.8l9.59,21.38h-1.77Zm-2.99-6.78l-5.74-13.01-5.74,13.01h11.48Z"></path><path class="d" d="M262.1,71.3v19.82h12.03v1.56h-13.68v-21.38h1.65Z"></path><path class="e" d="M298.04,92.68h-4.79l-6.23-7.15h-3.88v7.15h-4.03v-21.41c3.39,0,6.78,.03,10.17,.03,5.04,.03,7.7,3.39,7.7,7.08,0,2.93-1.34,5.89-5.41,6.72l6.47,7.3v.27Zm-14.9-17.62v6.84h6.14c2.56,0,3.66-1.71,3.66-3.42s-1.13-3.42-3.66-3.42h-6.14Z"></path><path class="e" d="M316.48,71.3h4.43v.18l-7.24,10.38,7.45,10.69v.12h-4.52l-5.47-8.03-5.47,8.03h-4.52v-.12l7.42-10.69-7.21-10.38v-.18h4.43l5.34,7.97,5.34-7.97Z"></path></g><g><path class="d" d="M182.67,27.98c.84-.84,1.37-2,1.37-3.28,.01-2.56-1.95-4.77-4.51-4.77l-20.08,.03c-2.56-.01-4.65,2.06-4.66,4.63,0,2.56,2.06,4.65,4.63,4.66l19.96,.08c1.28,0,2.45-.51,3.29-1.35Z"></path><path class="d" d="M154.82,15.97l.05-11.34C154.87,2.06,156.96-.01,159.53,0c2.57,.01,4.64,2.1,4.63,4.66l-.04,11.34-9.29-.04Z"></path><path class="e" d="M162.63,47.87c.84-.84,1.37-2,1.37-3.28l.08-19.96c0-1.23-.48-2.41-1.35-3.29-.87-.88-2.05-1.37-3.28-1.37l-19.96-.08c-2.57-.01-4.65,2.06-4.66,4.63,0,2.57,2.06,4.65,4.63,4.66l15.32,.06-.06,15.32c0,2.57,2.06,4.65,4.63,4.66,1.28,0,2.45-.51,3.29-1.35Z"></path></g></g></g></g></svg> 