<svg xmlns="http://www.w3.org/2000/svg" id="Layer_1" width="15in" height="15in" viewBox="0 0 1078.2 1080"><defs><style>      .st0 {        fill: #a4cd3b;      }    </style></defs><path class="st0" d="M538.2,874.4c-8.8,7.7-18,15.1-27.6,22.1l-13.6,165c11,11,25.6,17.5,41.2,18.5,15.5-.9,30.1-7.5,41.2-18.5l-13.6-165c-9.6-7-18.8-14.4-27.6-22.1h0Z"></path><path class="st0" d="M740.4,709.4c123.8-118.9,216-279.5,243-439.2-137.4,63-261.1,180.6-344.5,317.8,38.8-200.5,5.2-418.7-100.7-588-105.8,169.8-139.4,388-100.7,588-84-137.6-207.1-255.2-344.5-318.2,27.1,159.7,119.2,320.3,243,439.2-93.9-44.3-196.2-68.2-300-70-12,0-24,0-36,1.2,96,100.8,245.5,174.6,392.4,200.3-86.7,10-168,47.7-231.6,107.5,30.9,8.2,62.8,12.2,94.8,12,103.3,0,210.6-40.2,282.6-110.2,72,70,180,110.2,282.6,110.2,32,.2,63.9-3.8,94.8-12-63.4-59.3-144.2-96.7-230.4-106.8,146.9-25.9,296-99.7,393-200.5-12-.8-24-1.2-36-1.2-104.4,1.5-207.3,25.4-301.8,70h0Z"></path></svg>