<svg width="897" height="313" viewBox="0 0 897 313" fill="none" xmlns="http://www.w3.org/2000/svg">
<path d="M202.92 0.209991C202.92 0.209991 202.92 0.309985 202.97 0.359985C202.97 0.359985 202.97 0.259991 202.92 0.209991Z" fill="#C9D5B3"/>
<path d="M382.17 281.36V137.98H421.7V200.91H459.88V137.98H499.41V281.36H459.88V233.89H421.7V281.36H382.17Z" fill="#C9D5B3"/>
<path d="M718.88 284.71C707.48 284.71 697.38 282.61 688.58 278.42C679.78 274.23 672.86 268.17 667.83 260.26C662.79 252.35 660.28 242.6 660.28 231.03V137.99H700.13V227.52C700.13 231.98 700.96 235.8 702.62 238.99C704.28 242.18 706.55 244.59 709.43 246.24C712.31 247.89 715.57 248.71 719.23 248.71C722.89 248.71 726.34 247.91 729.27 246.32C732.2 244.73 734.5 242.36 736.16 239.23C737.82 236.1 738.65 232.35 738.65 228V137.99H777.5V230.71C777.5 242.29 775.01 252.11 770.03 260.18C765.05 268.25 758.16 274.36 749.36 278.5C740.56 282.64 730.4 284.71 718.89 284.71H718.88Z" fill="#C9D5B3"/>
<path d="M840.54 284.55C834.41 284.55 828.39 283.86 822.47 282.48C816.56 281.1 811.1 279.19 806.1 276.75C801.1 274.31 796.82 271.49 793.28 268.31L802.8 230.39C806.03 234.64 809.76 238.36 814.01 241.54C818.26 244.73 822.83 247.25 827.72 249.11C832.61 250.97 837.37 251.9 842 251.9C845.01 251.9 847.57 251.48 849.66 250.63C851.76 249.78 853.34 248.59 854.42 247.05C855.49 245.51 856.03 243.78 856.03 241.87C856.03 239.43 855.47 237.44 854.34 235.9C853.21 234.36 851.7 232.98 849.82 231.76C847.94 230.54 846.08 229.5 844.25 228.65L828.12 220.84C821.34 217.55 815.51 213.96 810.62 210.09C805.73 206.21 801.93 201.7 799.25 196.55C796.56 191.4 795.22 185.37 795.22 178.47C795.22 171.57 796.4 165.91 798.77 160.55C801.13 155.19 804.5 150.62 808.85 146.85C813.21 143.08 818.39 140.13 824.42 138.01C830.44 135.89 837.27 134.82 844.91 134.82C853.19 134.82 860.9 136.04 868.06 138.48C875.21 140.92 881.58 144 887.17 147.72L878.14 184.36C875.02 180.86 871.45 177.83 867.41 175.28C863.38 172.73 859.29 170.77 855.15 169.39C851.01 168.01 846.95 167.32 842.97 167.32C840.39 167.32 838.18 167.69 836.36 168.44C834.53 169.18 833.16 170.22 832.25 171.55C831.34 172.88 830.88 174.39 830.88 176.09C830.88 177.58 831.28 178.96 832.09 180.23C832.9 181.5 834.05 182.67 835.56 183.73C837.07 184.79 838.95 185.91 841.21 187.08L859.6 196C863.9 198.02 867.99 200.38 871.86 203.09C875.73 205.8 879.17 208.88 882.18 212.33C885.19 215.78 887.53 219.77 889.2 224.28C890.87 228.8 891.7 233.92 891.7 239.65C891.7 248.36 889.57 256.11 885.33 262.91C881.08 269.71 875.14 275.02 867.51 278.84C859.87 282.66 850.89 284.57 840.57 284.57L840.54 284.55Z" fill="#C9D5B3"/>
<path d="M605.84 137.87H566.97L513.81 281.36H553.76L562.37 245.16H609.72L618.16 281.36H659.14L605.85 137.87H605.84ZM578.17 212.84C579.49 209.13 580.65 205.62 581.65 202.36C583.02 197.89 584.46 192.49 585.95 186.14C587.44 192.49 588.88 197.96 590.26 202.56C591.25 205.88 592.39 209.3 593.68 212.84H578.17Z" fill="#C9D5B3"/>
<path d="M896.789 294.68H0.739258V312.75H896.789V294.68Z" fill="#C9D5B3"/>
<path d="M161.71 198.67C161.71 198.67 172.42 230.09 152.67 240.8L161.71 198.67Z" fill="#C9D5B3"/>
<path d="M223.48 142.81C215.7 155.63 202.41 164.69 188.09 163.89C187.66 163.89 187.29 163.4 187.29 162.93V162.76C188.83 154.35 189.35 143.86 186.11 135.92C184.06 130.95 178.33 121.01 176.57 114.28C174.08 104.99 174.51 95.1196 177.96 84.7096C178.41 83.5796 178.84 82.7796 179.21 82.1496C179.21 82.1496 179.47 81.6796 179.87 81.1096C179.88 81.0896 179.9 81.0596 179.93 81.0396C180.38 80.5096 180.71 80.1696 181.2 79.7496C181.28 79.7496 181.28 79.5896 181.36 79.5096C181.4 79.4596 181.45 79.4096 181.5 79.3796C181.52 79.3596 181.56 79.3396 181.58 79.3296C181.65 79.2896 181.71 79.2696 181.79 79.2396C181.83 79.2196 181.89 79.1996 181.93 79.2196C181.94 79.2096 181.95 79.1996 181.96 79.2096C182.17 79.2096 182.37 79.3196 182.52 79.5096C185.54 82.6296 188.17 86.5696 190.6 91.1196C189.87 93.9296 189.5 97.3796 189.5 101.54C189.5 107.47 190.09 112.28 191.26 115.8C193.32 122.06 198.75 128.22 200.14 134.39C200.44 135.68 200.73 140.09 200.95 147.62C200.95 148.06 201.14 148.23 201.51 148C201.54 147.99 201.58 147.98 201.61 147.94C201.65 147.93 201.7 147.89 201.75 147.85C206.38 144.66 209.83 141.29 212.26 137.52C222.16 121.97 221.8 102.34 213.14 85.4296C212.41 83.5096 211.45 81.6596 210.35 79.8196C204.64 70.7696 197.8 62.5196 189.96 55.1196C189.55 54.8596 189.15 54.6196 188.77 54.3896C188.69 54.3196 188.63 54.2596 188.55 54.1796L184.3 49.8596C183.71 49.2196 182.75 49.2896 182.24 49.8596C168.95 64.9996 152.87 79.8996 150.09 102.03C149.95 102.78 149.82 103.55 149.71 104.3C149.6 105.05 149.51 105.81 149.44 106.56C149.41 106.94 149.37 107.3 149.35 107.68C149.17 110.1 149.19 112.49 149.41 114.87C149.45 115.37 149.51 115.87 149.57 116.36C149.99 119.85 150.83 123.28 152.07 126.7C155.95 135.99 161.97 143.21 170.2 148.18C172.63 149.63 175.12 150.1 177.61 149.54L177.18 161.72C177.18 162.12 176.88 162.44 176.51 162.52C172.69 162.92 169.1 162.19 165.79 160.43C151.77 152.9 142.52 140.96 138.05 124.62C136.5 119.17 135.85 112.99 136.07 106.02C136.66 87.0296 144.51 70.6796 156.32 57.1496C164.4 47.9296 173.14 38.7896 182.61 29.8196C182.98 29.4996 183.57 29.4996 183.93 29.8196C197 42.0996 210.44 54.7796 220.4 70.3796C220.46 70.4496 220.51 70.5396 220.56 70.6096V70.6796C225.99 79.8996 229.44 88.7896 231.13 97.2796C234.28 113.95 231.79 129.18 223.5 142.8L223.48 142.81Z" fill="#C9D5B3"/>
<path d="M189.83 165.43C189.23 165.43 188.62 165.41 188.02 165.38C186.92 165.38 185.93 164.26 185.93 162.93L185.96 162.47C187.06 156.47 188.37 145.11 184.87 136.53C184.2 134.9 183.07 132.61 181.87 130.19C179.47 125.34 176.48 119.3 175.27 114.69C172.69 105.09 173.17 94.8298 176.69 84.2098C177.21 82.8798 177.7 81.9898 178.07 81.3598C178.07 81.3598 178.32 80.8998 178.71 80.3398L178.75 80.2398L178.97 79.9798C179.38 79.4898 179.74 79.1198 180.2 78.7198C180.25 78.6398 180.31 78.5498 180.39 78.4598C180.45 78.3898 180.52 78.3198 180.62 78.2298L180.71 78.1298L180.99 77.9798C181.08 77.9298 181.18 77.8898 181.29 77.8498L181.99 77.1598L182.63 77.8298C182.96 77.9498 183.27 78.1698 183.51 78.4698C186.43 81.5098 189.14 85.3998 191.78 90.3698L192.07 90.9198L191.91 91.5298C191.21 94.1898 190.86 97.5598 190.86 101.54C190.86 107.31 191.42 111.94 192.54 115.3C193.43 118.02 195.07 120.84 196.66 123.57C198.63 126.96 200.66 130.46 201.47 134.04C201.78 135.38 202.05 139.31 202.26 145.72C206.17 142.86 209.07 139.89 211.15 136.67C220.41 122.14 220.71 103.25 211.95 86.1598L211.88 86.0098C211.24 84.3298 210.39 82.6198 209.2 80.6398C203.68 71.8798 196.93 63.6998 189.17 56.3498L187.65 55.3198L183.36 50.9598C183.29 50.8898 183.22 50.9098 183.2 50.9198C181.47 52.8998 179.66 54.8898 177.85 56.8898C166.02 69.9798 153.78 83.5098 151.43 102.24C151.27 103.07 151.15 103.82 151.05 104.55C150.94 105.27 150.86 105.99 150.79 106.71C150.75 107.13 150.72 107.45 150.7 107.78C150.53 110.1 150.55 112.43 150.75 114.73C150.79 115.21 150.85 115.7 150.9 116.19C151.3 119.51 152.12 122.87 153.32 126.16C157.08 135.14 162.98 142.14 170.84 146.89C172.99 148.17 175.17 148.58 177.32 148.1L179.02 147.72L178.52 161.8C178.52 162.83 177.8 163.76 176.77 164L176.62 164.03C172.6 164.45 168.75 163.7 165.18 161.8C150.87 154.11 141.3 141.76 136.73 125.08C135.13 119.44 134.46 113.2 134.69 106C135.25 87.9598 142.19 71.1898 155.32 56.1498C163.64 46.6498 172.52 37.4198 181.7 28.7198C182.61 27.9398 183.9 27.9398 184.76 28.6698C197.87 40.9898 211.37 53.6898 221.5 69.5498C221.51 69.5598 221.6 69.6898 221.67 69.7998L221.9 70.2698C227.16 79.2698 230.7 88.2598 232.44 96.9898C235.68 114.11 233.04 129.8 224.61 143.65C216.37 157.23 203.17 165.44 189.82 165.44L189.83 165.43ZM188.73 162.43C201.59 162.88 214.39 155.09 222.34 141.99C230.35 128.83 232.85 113.89 229.77 97.5898C228.08 89.0998 224.58 80.3198 219.39 71.4898L219.17 71.0798C209.24 55.6298 196.04 43.1798 183.25 31.1498C174.25 39.6998 165.5 48.7998 157.29 58.1698C144.64 72.6598 137.95 88.7698 137.41 106.07C137.19 112.93 137.82 118.85 139.33 124.18C143.67 140.05 152.77 151.79 166.37 159.1C169.32 160.67 172.49 161.34 175.81 161.09L176.16 151.23C173.91 151.36 171.7 150.78 169.52 149.48C161.13 144.41 154.83 136.95 150.8 127.31C149.49 123.73 148.62 120.13 148.18 116.55C148.12 116.02 148.06 115.51 148.02 115.01C147.8 112.53 147.78 110.02 147.96 107.55C147.98 107.21 148.01 106.86 148.04 106.5C148.12 105.62 148.21 104.84 148.33 104.06C148.45 103.28 148.57 102.5 148.72 101.72C151.18 82.1198 163.74 68.2298 175.88 54.7898C177.68 52.7998 179.47 50.8098 181.22 48.8298C181.74 48.2498 182.46 47.9198 183.22 47.9198H183.24C184 47.9198 184.7 48.2398 185.23 48.8098L189.52 53.1598L190.82 53.9898C198.8 61.5298 205.74 69.9298 211.44 78.9698C212.7 81.0798 213.64 82.9698 214.34 84.7698C223.58 102.86 223.21 122.89 213.35 138.36C210.84 142.26 207.28 145.77 202.45 149.09C202.43 149.1 202.42 149.11 202.4 149.13L202.32 149.22L202.07 149.33C201.27 149.79 200.63 149.5 200.39 149.35C200.14 149.19 199.56 148.71 199.56 147.62C199.27 137.74 198.92 135.33 198.79 134.76C198.09 131.64 196.26 128.49 194.32 125.16C192.66 122.3 190.94 119.33 189.94 116.31C188.72 112.63 188.1 107.66 188.1 101.55C188.1 97.5298 188.43 94.1798 189.1 91.3398C186.78 87.0698 184.43 83.6698 181.93 80.9898C181.91 80.9998 181.9 81.0098 181.88 81.0198C181.52 81.3298 181.26 81.5998 180.91 82.0198C180.58 82.4898 180.37 82.8798 180.35 82.9098C179.99 83.5198 179.59 84.2498 179.18 85.2998C175.89 95.2298 175.43 104.87 177.85 113.86C178.98 118.17 181.89 124.04 184.23 128.77C185.51 131.35 186.61 133.58 187.33 135.31C191.02 144.35 189.84 155.94 188.71 162.43H188.73ZM188.09 162.41C188.09 162.41 188.12 162.41 188.14 162.41C188.11 162.41 188.1 162.41 188.09 162.41ZM175.8 161.67C175.8 161.67 175.8 161.71 175.8 161.73V161.67Z" fill="#C9D5B3"/>
<path d="M167.38 101.42C167.38 101.42 167.32 101.47 167.29 101.5C167.24 101.55 167.24 101.64 167.19 101.64C166.88 101.88 166.67 102.08 166.38 102.39C166.66 102.03 167.02 101.61 167.38 101.42Z" fill="#C9D5B3"/>
<path d="M192.24 96.3502V96.3102C192.24 96.3102 192.18 96.2202 192.14 96.1802C192.2 96.1802 192.27 96.1802 192.33 96.1802L192.24 96.3602V96.3502Z" fill="#C9D5B3"/>
<path d="M192.329 283.38C192.329 283.59 192.149 283.85 191.939 283.85H172.869C172.009 283.85 171.239 283.29 171.019 282.43C170.379 279.94 169.429 275.77 168.359 272.89C161.439 254.33 144.779 241.01 125.139 238.35C124.889 238.35 124.759 238.18 124.759 237.92C124.759 237.92 124.759 232.21 124.709 232.21V217.22C124.709 216.96 124.839 216.87 125.099 216.87C133.429 217.17 141.339 219.1 148.769 222.67C149.029 222.8 149.249 222.76 149.409 222.59C155.809 216.88 158.129 209.66 156.369 200.98C154.779 193.63 149.539 186.76 143.699 182.42C136.269 176.92 128.409 172.58 120.119 169.36C119.809 169.23 119.639 169.31 119.639 169.66V282.95C119.639 283.46 119.209 283.89 118.699 283.89H97.5993C97.1693 283.89 96.8293 283.54 96.8293 283.11V214.03L96.7393 137.17C96.7393 136.57 97.0392 136.31 97.6492 136.44C107.359 138.46 116.679 141.77 125.619 146.37C128.449 147.83 132.839 150.28 138.719 153.67C146.279 158.05 152.849 162.39 158.399 166.73C162.049 169.57 165.749 173.52 169.519 178.54C174.589 185.76 177.509 194.09 178.629 202.98L178.459 203.41C178.669 205.26 178.809 207.15 178.939 208.95C179.449 211.44 180.869 219.69 176.279 227.94C173.999 231.98 171.079 234.6 169.059 236.1C172.669 239.71 176.019 243.62 179.029 247.87C183.539 254.23 186.589 261.4 189.159 268.67L189.209 268.71C190.329 271.85 191.139 275.07 191.699 278.38L192.339 283.37L192.329 283.38Z" fill="#C9D5B3"/>
<path d="M85.23 137.61V152.9L85.01 158.66C85.01 159.22 84.71 159.52 84.11 159.48H55.73V283.76H49.43C49.34 283.84 49.23 283.89 49.1 283.89H31.87C31.4 283.89 31.06 283.51 31.06 283.04V190.2L30.8 159.66V159.49L0.770004 159.58C0.520004 159.58 0 159.44 0 159.19V153.65L0.090004 137.37C0.090004 137.11 0.340001 136.9 0.610001 136.9H84.6C85.07 136.9 85.29 137.15 85.25 137.63L85.23 137.61Z" fill="#C9D5B3"/>
<path d="M273.4 137.39V158.27C273.4 158.61 273.27 158.96 273.01 159.17C272.84 159.34 272.67 159.47 272.41 159.56C267.47 160.93 262.61 162.7 257.85 164.76C250.33 168.24 237.4 174.9 229.97 186.8C227.82 190.28 226.96 193.46 226.53 202.87H272.03C272.76 202.87 273.4 203.47 273.4 204.24V224.26C273.4 224.99 272.8 225.63 272.03 225.63H226.02V226.32C225.81 240.63 225.93 253.26 226.02 262.45H272.8C273.19 262.45 273.4 262.66 273.4 263.05V283.16C273.4 283.5 273.1 283.8 272.76 283.8H201.62C201.15 283.8 200.72 283.41 200.72 282.9V269.37C200.59 247.85 200.55 226.32 200.55 204.84C200.55 195.86 202.44 187.7 206.18 180.4C207.13 178.6 209.02 175.59 211.89 171.42C217.69 164.55 224.05 158.75 230.96 153.98C235.6 150.8 241.27 147.24 246.43 144.87C252.4 142.12 259.06 139.76 266.36 137.87C269.07 137.18 270.96 136.8 272.03 136.71H272.85C273.15 136.8 273.32 137.01 273.32 137.31L273.41 137.4L273.4 137.39Z" fill="#C9D5B3"/>
<path d="M310.73 225.63V262.49H355.67C355.97 262.49 356.23 262.75 356.23 263.05V282.64C356.23 283.28 355.71 283.84 355.03 283.84H287.5C287.03 283.84 286.64 283.5 286.55 283.07C286.29 281.57 286.16 279.93 286.16 278.22V202.95L286.37 137.43C286.37 137.13 286.58 136.91 286.89 136.91H355.58C355.88 136.91 356.05 137.08 356.05 137.38V155.72L356.09 158.86C356.09 159.12 355.75 159.55 355.49 159.55H310.38H310.72V202.98H354.88C355.61 202.98 356.25 203.58 356.25 204.35V224.37C356.25 225.1 355.65 225.74 354.88 225.74H310.72V225.61L310.73 225.63Z" fill="#C9D5B3"/>
</svg>
