<?xml version="1.0" encoding="UTF-8"?>
<svg xmlns="http://www.w3.org/2000/svg" width="312" height="40" viewBox="0 0 312 40" fill="none">
  <path fill-rule="evenodd" clip-rule="evenodd" d="M16.2054 4.80027C24.0483 4.80027 29.6026 8.87599 29.8968 13.7446C30.0883 16.8931 26.9997 18.7531 24.114 18.5003C22.3926 18.3488 21.1483 17.5188 20.1954 16.1231C18.0911 13.036 18.2926 9.1017 13.9354 9.1017C10.6397 9.1017 8.59113 12.7603 8.59113 17.5931C8.59113 27.066 13.3597 33.9646 19.1154 33.9646C20.2754 33.9646 21.1111 33.7746 21.7611 33.4874V27.2203C21.7611 24.9703 19.1611 24.4446 19.1611 23.106V22.9131C19.1611 22.3403 19.7183 21.956 20.3683 21.956L30.7183 22.0046C31.414 22.0046 31.8326 22.3874 31.8326 22.9617V23.1531C31.8326 24.4931 29.604 25.0188 29.604 27.2674V32.8174C29.604 34.2046 29.2326 35.1146 27.6554 36.406C25.6126 38.0803 21.9468 39.8503 17.2583 39.8503C7.28256 39.8517 0.411133 31.4303 0.411133 22.4374C0.411133 11.526 8.26827 4.80027 16.2054 4.80027ZM230.013 15.496C231.324 15.496 231.721 16.5031 231.721 17.6246C231.721 17.6246 231.654 27.3588 231.654 30.976C231.654 34.5946 232.554 35.9046 234.531 35.9046C236.195 35.9046 237.5 34.4531 237.5 31.0203L237.464 21.2146C237.464 18.9188 236.61 18.2174 235.987 17.626C235.303 16.9746 235.377 15.496 236.601 15.496H243.715C245.025 15.496 245.424 16.5031 245.424 17.6246L245.411 33.7946C245.411 37.5046 246.583 36.3746 246.583 38.1003C246.583 39.0446 245.591 39.7117 242.714 39.7117C239.925 39.7117 238.711 38.9803 238.487 36.8788C237.318 38.8331 235.204 39.836 232.147 39.836C227.604 39.836 223.738 36.5374 223.738 30.2846L223.761 21.216C223.761 18.9203 222.907 18.2188 222.284 17.6274C221.598 16.976 221.674 15.4974 222.898 15.4974L230.013 15.496ZM294.698 5.07884C296.01 5.07884 296.407 6.0917 296.407 7.2217L296.391 16.7446C297.56 15.7617 299.134 15.2717 300.977 15.2717C306.058 15.2717 311.59 19.1503 311.59 27.1046C311.59 34.8617 306.553 39.8217 300.977 39.8217C298.594 39.8217 296.885 39.256 295.537 37.8817V38.3246C295.537 39.256 295.177 39.6003 294.367 39.6003L288.647 39.5517C288.018 39.5517 287.613 39.2074 287.613 38.6188V38.4217C287.613 37.0474 288.65 36.236 288.65 33.9288L288.763 10.8288C288.763 8.52027 288.363 7.81456 287.741 7.22027C287.055 6.56599 287.131 5.07884 288.355 5.07884H294.698ZM82.6868 15.5231C88.6268 14.726 91.7597 17.9331 92.1126 20.9746C92.2797 22.4231 91.6654 23.486 90.6897 24.206L82.2897 30.8231C83.6983 32.6446 85.6011 33.566 87.8226 33.2674C89.7726 33.006 91.4297 31.8031 92.1126 30.5346C92.6697 29.7731 93.7897 29.9174 93.8683 30.986C94.084 33.6531 91.4626 38.8574 85.5226 39.656C78.9468 40.5388 73.7583 36.2846 72.9097 28.9446C72.084 21.7988 76.7468 16.3203 82.6868 15.5231ZM61.2626 15.5231C67.2026 14.726 70.3368 17.9331 70.6883 20.9746C70.8554 22.4231 70.2426 23.486 69.2668 24.206L60.8668 30.8231C62.2754 32.6446 64.1783 33.566 66.3997 33.2674C68.3497 33.006 70.0068 31.8031 70.6883 30.5346C71.2454 29.7731 72.3668 29.9174 72.4454 30.986C72.6597 33.6531 70.0397 38.8574 64.0997 39.656C57.524 40.5388 52.3354 36.2846 51.4868 28.9446C50.6611 21.7988 55.3226 16.3203 61.2626 15.5231ZM205.025 5.4117C206.337 5.4117 206.734 6.40313 206.734 7.50884V18.3174C208.037 16.8746 209.927 16.0574 212.22 16.0574C216.131 16.0574 220.268 18.4131 220.763 25.6746L220.883 34.4146C221.063 36.6274 222.501 37.1074 222.501 38.5017V38.6946C222.501 39.2717 222.097 39.6088 221.423 39.6088H212.474C211.8 39.6088 211.395 39.2717 211.395 38.6946V38.5017C211.395 37.1074 213.104 36.6274 213.014 34.416C213.014 34.416 213.028 28.406 213.028 26.4731V26.1517C213.028 21.9488 211.95 19.996 209.881 19.996C207.903 19.996 206.958 21.8717 206.958 24.6603V34.3803C206.958 36.5917 208.983 37.1203 208.983 38.5146V38.7074C208.983 39.2846 208.533 39.6217 207.903 39.6217H198.145C197.517 39.6217 197.111 39.2846 197.111 38.7074V38.5146C197.111 37.1203 199.09 36.5917 199.09 34.3803V11.0431C199.09 8.78313 198.235 8.0917 197.613 7.50884C196.927 6.86884 197.001 5.4117 198.227 5.4117H205.025ZM108.983 15.5288C112.98 15.5288 117.755 18.4674 117.755 25.7331L117.617 34.2217C117.755 36.4788 119.27 37.0674 119.27 38.4903V38.686C119.27 39.2746 118.811 39.6188 118.168 39.6188H109.254C108.567 39.6188 108.154 39.276 108.154 38.686V38.4903C108.154 37.0674 109.944 36.4788 109.807 34.2217L109.81 28.4731V26.0488C109.81 21.3603 108.71 19.9103 106.643 19.9103C104.621 19.9103 103.657 21.8246 103.657 24.6688V34.2217C103.657 36.4788 105.677 37.0674 105.677 38.4903V38.686C105.677 39.2746 105.264 39.6188 104.575 39.6188H94.654C93.964 39.6188 93.5511 39.276 93.5511 38.686V38.4903C93.5511 37.0674 95.5711 36.4788 95.5711 34.2217V21.3003C95.5711 18.9917 94.6968 18.286 94.0611 17.6903C93.3611 17.036 93.4368 15.5474 94.6897 15.5474H100.677C102.018 15.5474 102.424 16.5603 102.424 17.6903V19.1931C103.667 16.8488 105.96 15.5288 108.983 15.5288ZM38.4768 15.4931C39.7883 15.4931 40.2311 16.5317 40.2311 17.6574L40.2397 20.4817C41.2297 17.3531 43.4868 15.6417 46.5897 15.6417C49.2426 15.6417 51.2311 17.7646 51.5711 20.4817C51.8997 23.1203 50.1854 25.2146 47.5783 25.2146C43.4868 25.2146 44.9611 20.4817 42.7126 20.4817C41.274 20.4817 41.0497 23.0246 41.0497 25.176V34.2717C41.0497 36.5217 43.4326 37.1088 43.4326 38.4774V38.6731C43.4326 39.2588 42.9826 39.6017 42.354 39.6017H32.6826C32.054 39.6017 31.604 39.2588 31.604 38.6731V38.4774C31.604 37.1088 33.4026 36.5203 33.4026 34.2717L33.3654 21.2188C33.3654 18.9203 32.5111 18.2188 31.8883 17.626C31.2026 16.9746 31.2783 15.4931 32.5026 15.4931H38.4768ZM276.481 15.4974C278.9 15.4974 281.07 16.336 282.655 17.9588C284.041 19.4131 285.12 21.436 285.12 24.6074C285.12 26.556 285.248 34.1917 285.248 34.1917C285.248 36.4488 286.487 37.086 286.487 38.4603V38.656C286.487 39.246 286.037 39.5888 285.408 39.5888H277.223C276.548 39.5888 276.143 39.246 276.143 38.656V38.4603C276.143 37.086 277.335 36.4488 277.335 34.1917V25.6488C277.335 21.4788 276.167 19.5174 274.278 19.5174C272.21 19.5174 271.264 21.5288 271.264 24.1774V24.5403C271.268 24.5631 271.271 24.5831 271.273 24.6074C271.298 27.696 271.391 33.4988 271.401 34.136V34.1917C271.401 36.4488 272.64 37.086 272.64 38.4603V38.656C272.64 39.246 272.19 39.5888 271.56 39.5888H263.374C262.701 39.5888 262.295 39.246 262.295 38.656V38.4603C262.295 37.086 263.488 36.4488 263.488 34.1917V25.6488C263.488 21.4788 262.32 19.5174 260.431 19.5174C258.363 19.5174 257.417 21.5288 257.417 24.1774V34.1917C257.417 36.4488 259.015 37.086 259.015 38.4603V38.656C259.015 39.246 258.61 39.5888 257.935 39.5888H249.367C248.693 39.5888 248.288 39.246 248.288 38.656V38.4603C248.288 37.086 249.504 36.4488 249.504 34.1917L249.473 21.2546C249.473 18.9488 249.38 18.2446 248.758 17.6503C248.073 16.996 248.147 15.5103 249.373 15.5103H254.901C256.214 15.5103 256.611 16.5217 256.611 17.6503L256.583 18.7303C257.242 17.7296 258.141 16.9096 259.198 16.345C260.254 15.7803 261.436 15.489 262.634 15.4974C265.053 15.4974 267.223 16.336 268.808 17.9588C269.231 18.4246 269.665 19.0203 270.055 19.8274L270.06 19.7674C271.037 17.0603 273.918 15.4974 276.481 15.4974ZM161.77 35.2546C162.178 35.1631 162.675 35.0303 162.963 35.2446C163.061 35.3083 163.143 35.3948 163.201 35.4967C163.259 35.5986 163.292 35.713 163.297 35.8303C163.31 36.416 163.304 36.9931 163.283 37.5774C163.267 38.0431 163.374 38.7903 163.141 39.206C162.858 39.7117 162.155 39.566 161.68 39.566H158.708C157.58 39.5631 156.455 39.566 155.328 39.566C155.071 39.566 154.523 39.6031 154.605 39.1774C154.644 38.9831 154.827 38.7974 154.983 38.686C155.248 38.496 155.375 38.3788 155.64 38.186C156.389 37.6312 157.176 37.1281 157.994 36.6803C158.786 36.2488 159.615 35.8901 160.471 35.6088C160.9 35.4703 161.331 35.3517 161.771 35.2531L161.77 35.2546ZM162.761 28.8846C163.291 28.9974 163.274 29.356 163.275 29.7546V30.7317C163.278 31.1888 163.337 31.7317 163.275 32.1031C163.167 32.756 162.68 32.6588 162.093 32.7988C161.387 32.9688 160.523 33.0831 159.821 33.2717C158.888 33.5231 157.968 33.8331 157.078 34.2103C155.038 35.0731 153.164 36.3217 151.718 38.0174C151.23 38.5917 150.727 39.2788 149.963 39.4917C149.344 39.6631 148.701 39.536 148.07 39.5631C147.485 39.595 146.899 39.5883 146.315 39.5431C146.13 39.5274 145.923 39.4874 145.818 39.3346C145.524 38.896 146.024 38.3088 146.278 37.9788C148.878 34.626 152.153 31.6874 156.188 30.2174C158.143 29.5074 160.278 29.1346 162.338 28.8888C162.478 28.8646 162.621 28.8632 162.761 28.8846ZM194.225 5.40599C195.257 5.40599 195.678 5.83884 195.82 6.89742L196.804 13.4931C196.944 14.3117 196.428 14.8403 195.633 14.8403H194.834C192.631 14.8403 192.021 9.01599 188.834 9.01599H187.191V34.3374C187.191 36.5517 189.205 37.1303 189.205 38.4774V38.6703C189.205 39.2474 188.784 39.5846 188.081 39.5846H177.813C177.155 39.5846 176.734 39.2474 176.734 38.6703V38.4774C176.734 37.1303 178.75 36.5517 178.75 34.3374V9.01599H177.458C174.315 9.01599 173.754 14.8403 171.55 14.8403H170.753C169.955 14.8403 169.487 14.3117 169.581 13.4446L170.52 6.89742C170.613 5.84027 171.081 5.40599 172.113 5.40599H194.225ZM162.628 21.896C163.255 21.9017 163.304 22.4031 163.303 22.8931C163.3 23.6888 163.278 24.9074 163.291 25.7003C163.303 26.3231 163.195 26.6446 162.355 26.6803C156.277 26.9317 150.384 29.3717 146.193 33.8374C145.214 34.8771 144.341 36.0107 143.585 37.2217C143.04 38.0974 142.737 39.4546 141.505 39.5288C140.587 39.5846 139.868 39.5474 138.95 39.5417C138.464 39.5388 137.664 39.7003 137.321 39.256C136.97 38.7988 137.36 38.3131 137.524 37.8746C137.771 37.2217 138.065 36.586 138.393 35.9703C140.261 32.446 143.097 29.5346 146.37 27.2703C149.473 25.1264 152.945 23.5719 156.611 22.6846C158.585 22.2131 160.593 21.8774 162.628 21.896ZM126.365 35.6846C126.607 35.5131 126.881 35.5446 127.13 35.5874C127.855 35.7131 128.573 35.8874 129.275 36.1017C130.454 36.466 131.59 36.9531 132.675 37.5403C132.975 37.7031 133.344 37.876 133.683 38.0831C133.937 38.2374 134.22 38.4231 134.4 38.6617C134.671 39.0203 134.285 39.5531 133.795 39.5503C131.485 39.5403 129.735 39.5217 127.425 39.5503C126.213 39.5646 126.165 38.8788 126.165 38.1131C126.165 37.0703 126.18 36.8246 126.19 36.2674C126.194 36.0674 126.161 35.8303 126.365 35.6846ZM299.088 18.4588C297.47 18.4588 296.391 20.0303 296.391 22.7788V30.7417C296.391 33.7374 298.28 36.6346 300.258 36.6346C302.551 36.6346 303.675 34.4731 303.675 30.4474C303.675 25.1446 302.37 18.4588 299.088 18.4588ZM126.46 29.0703C126.814 28.7988 127.604 28.8703 128.084 28.9631C128.868 29.1108 129.647 29.2823 130.42 29.4774C132.501 30.0103 134.53 30.8088 136.25 32.1188C136.378 32.216 136.545 32.3274 136.704 32.4546C136.925 32.6331 137.164 32.8588 137.184 33.1603C137.213 33.5746 136.89 33.8731 136.703 34.2031C136.501 34.5588 136.304 34.916 136.113 35.2788C135.93 35.6246 135.748 35.9688 135.313 36.0331C134.91 36.0931 134.398 35.8046 134.094 35.6117C133.757 35.3974 133.514 35.2231 133.165 35.0231C131.414 34.0103 129.513 33.4117 127.443 33.0974C126.811 33.0017 126.274 33.0688 126.223 32.6103C126.181 32.1549 126.162 31.6976 126.165 31.2403C126.168 30.7974 126.177 30.3231 126.165 29.8788C126.158 29.5646 126.211 29.2617 126.46 29.0703ZM126.948 22.0417C132.214 22.0015 137.349 23.6741 141.581 26.8074C141.797 26.9688 142.034 27.1888 141.991 27.4546C141.968 27.5974 141.867 27.7117 141.771 27.8174C141.04 28.626 140.297 29.4274 139.585 30.2517C139.134 30.7746 138.738 30.766 138.185 30.3917C135.377 28.4831 132.088 27.3217 128.723 26.8603C128.677 26.8531 128.63 26.8488 128.584 26.8431C128.035 26.7888 127.47 26.8174 126.935 26.6717C126.718 26.6117 126.49 26.5174 126.351 26.3303C126.261 26.1999 126.202 26.0502 126.18 25.8931C126.147 25.7103 126.19 25.3246 126.18 25.1503C126.16 24.8546 126.178 24.4217 126.171 24.1231C126.154 23.6452 126.166 23.1668 126.207 22.6903C126.224 22.476 126.313 22.2503 126.493 22.1331C126.624 22.0474 126.791 22.0417 126.95 22.0403L126.948 22.0417ZM64.334 21.796C64.154 20.2517 63.034 17.686 60.7197 17.996C58.8626 18.246 57.9454 20.6731 58.2683 23.4731C58.4854 25.3574 58.914 26.2974 59.534 27.686L63.4383 24.416C64.1026 23.7874 64.4511 22.8103 64.334 21.796ZM85.7568 21.796C85.5768 20.2517 84.4568 17.686 82.1426 17.996C80.2854 18.246 79.3683 20.6731 79.6911 23.4731C79.9097 25.3574 80.3368 26.2974 80.9568 27.686L84.8626 24.416C85.5254 23.7874 85.8726 22.8103 85.7568 21.796ZM138.583 9.89884C141.307 8.03313 144.983 7.57027 148.137 8.46027C152.155 9.5917 154.977 12.6588 156.074 16.6346C156.308 17.4831 156.485 18.3488 156.617 19.2188C156.674 19.6003 156.593 19.9974 156.205 20.126C152.907 21.2231 152.624 21.2731 149.801 22.5931C147.727 23.5617 146.691 24.2731 145.73 24.8831C145.315 25.1493 144.833 25.2929 144.34 25.2974C143.607 25.326 142.487 24.4203 141.937 24.0731C141.273 23.6546 140.305 23.1474 139.718 22.8403C138.885 22.3994 138.045 21.9726 137.197 21.5603C135.643 20.8174 135.28 20.706 133.583 20.256C133.061 20.1174 132.803 20.0217 132.837 19.456C132.865 19.0246 132.951 18.5874 133.05 18.166C133.225 17.4203 133.471 16.7903 133.721 16.066C134.35 14.2488 135.547 12.4974 136.94 11.1617C137.043 11.0646 137.161 10.976 137.28 10.8874L137.503 10.716C137.901 10.3917 138.254 10.1246 138.583 9.89884ZM162.688 14.5717C163.103 16.1546 163.264 17.0903 163.303 18.9931C163.308 19.2703 163.245 19.406 163.111 19.4674C162.741 19.6417 161.937 19.5817 161.541 19.5774C160.801 19.566 160.455 19.6103 159.691 19.6303C159.384 19.6388 158.887 19.7217 158.751 19.3731C158.637 19.076 158.635 18.5617 158.594 18.2474C158.503 17.4646 158.347 16.6906 158.13 15.9331C157.978 15.3974 158.033 15.1874 158.521 15.0003C159.891 14.476 160.461 14.3288 161.67 13.9803C161.984 13.8903 162.555 14.0646 162.688 14.5717ZM126.825 14.3803C126.937 13.8974 127.351 13.8231 127.667 13.9146C128.875 14.2631 129.578 14.4474 130.948 14.9717C131.435 15.1603 131.491 15.3688 131.34 15.906C131.122 16.6634 130.967 17.4375 130.875 18.2203C130.834 18.5346 130.833 19.0488 130.718 19.346C130.583 19.6946 130.085 19.6103 129.777 19.6031C129.014 19.5817 128.668 19.5388 127.928 19.5503C127.531 19.5546 126.728 19.6131 126.357 19.4403C126.225 19.3774 126.161 19.2431 126.167 18.966C126.205 17.0631 126.457 15.9746 126.825 14.3803ZM158.643 6.60742C159.177 7.1717 159.721 7.74742 160.343 8.75456C160.608 9.18313 160.823 9.6117 161.09 10.0403C161.284 10.3531 161.63 11.0203 161.367 11.3646C161.238 11.5317 161.033 11.6074 160.851 11.7031C160.681 11.7931 160.523 11.8988 160.345 11.9746C159.651 12.2731 159.085 12.5503 158.408 12.8831C157.82 13.1717 157.433 13.5474 156.961 12.8403C156.65 12.3717 156.775 12.5403 156.5 12.0517C156.226 11.6052 155.937 11.1678 155.634 10.7403C155.477 10.526 154.965 9.96313 154.825 9.73599C154.789 9.68059 154.765 9.61834 154.754 9.55313C154.715 9.28599 155.448 8.67742 155.617 8.52884C156.368 7.86742 156.721 7.43456 157.533 6.74313C157.79 6.52456 158.23 6.17313 158.643 6.60742ZM130.828 6.60742C131.24 6.17313 131.681 6.52456 131.938 6.74313C132.748 7.43456 133.103 7.86742 133.853 8.52884C134.023 8.67742 134.755 9.28599 134.717 9.55313C134.706 9.61834 134.682 9.68059 134.645 9.73599C134.505 9.96313 133.995 10.526 133.837 10.7403C133.668 10.9688 133.108 11.806 132.971 12.0517C132.695 12.5403 132.821 12.3717 132.51 12.8403C132.038 13.5474 131.651 13.1717 131.063 12.8831C130.385 12.5503 129.82 12.2731 129.125 11.976C128.947 11.8988 128.788 11.7931 128.618 11.7046C128.437 11.6074 128.233 11.5331 128.104 11.3646C127.84 11.0217 128.187 10.3531 128.381 10.0403C128.647 9.6117 128.863 9.18313 129.127 8.75456C129.75 7.74742 130.294 7.1717 130.828 6.60742ZM151.475 1.34313C152.255 1.58313 152.575 1.73742 153.665 2.34313C154.128 2.6017 154.547 2.88599 155.011 3.14313C155.351 3.3317 156.014 3.76884 155.954 4.22884C155.925 4.45456 155.778 4.63456 155.664 4.82027C155.557 4.99456 155.47 5.17884 155.348 5.34456C154.874 5.99313 154.348 6.75599 153.908 7.42884C153.525 8.0117 153.373 8.56884 152.575 8.16027C152.048 7.89027 152.25 7.9817 151.747 7.67313C151.266 7.40309 150.776 7.14914 150.278 6.9117C150.011 6.78544 149.75 6.64818 149.494 6.50027C149.433 6.46805 149.378 6.42385 149.334 6.37027C149.158 6.14027 149.505 5.1817 149.581 4.95313C149.915 3.93456 150.167 3.14027 150.543 2.06313C150.661 1.7217 150.877 1.15884 151.475 1.34313ZM137.993 1.34313C138.591 1.15884 138.807 1.7217 138.925 2.06313C139.3 3.14027 139.553 3.93456 139.887 4.95313C139.963 5.1817 140.31 6.13884 140.134 6.37027C140.089 6.424 140.035 6.46821 139.973 6.50027C139.73 6.63742 139.444 6.79599 139.19 6.9117C138.918 7.03456 137.975 7.51742 137.721 7.67313C137.217 7.9817 137.418 7.89027 136.893 8.16027C136.095 8.56884 135.941 8.0117 135.56 7.42884C135.097 6.72261 134.616 6.02765 134.12 5.34456C133.998 5.17884 133.91 4.99456 133.803 4.82027C133.688 4.63456 133.541 4.45456 133.513 4.23027C133.454 3.76884 134.117 3.33027 134.455 3.14313C134.92 2.88599 135.34 2.6017 135.803 2.34313C136.891 1.73742 137.213 1.58313 137.993 1.34313ZM145.074 0.151701C145.912 0.137371 146.75 0.208693 147.574 0.364558C148.137 0.478844 148.017 1.11599 147.973 1.53313C147.928 1.94456 147.875 2.35456 147.818 2.76456C147.703 3.59313 147.57 4.41884 147.458 5.24742C147.43 5.45884 147.413 5.62313 147.228 5.73599C147.061 5.83884 146.82 5.84599 146.624 5.83599C145.35 5.76456 144.364 5.79884 142.831 5.92456C142.543 5.94884 142.258 5.8617 142.203 5.55742C142.003 4.40884 141.874 3.40313 141.623 2.2617C141.548 1.92742 141.45 1.43599 141.453 1.09027C141.457 0.741701 141.64 0.604558 141.958 0.518844C142.295 0.430273 142.638 0.361701 142.983 0.307415C143.675 0.202842 144.374 0.150788 145.074 0.151701Z" fill="#ECEBE8"></path>
</svg>
