<?xml version="1.0" encoding="utf-8"?>
<!-- Generator: Adobe Illustrator 16.0.4, SVG Export Plug-In . SVG Version: 6.00 Build 0)  -->
<!DOCTYPE svg PUBLIC "-//W3C//DTD SVG 1.1//EN" "http://www.w3.org/Graphics/SVG/1.1/DTD/svg11.dtd">
<svg version="1.1" id="Layer_1" xmlns="http://www.w3.org/2000/svg" xmlns:xlink="http://www.w3.org/1999/xlink" x="0px" y="0px"
	 width="313.666px" height="118.344px" viewBox="0 0 313.666 118.344" enable-background="new 0 0 313.666 118.344"
	 xml:space="preserve">
<path fill="#474C55" d="M146.281,74.777h-15.229v-7.891l13.674-33.882h8.164v35.081h5.896v6.692h-5.896v15.287h-6.609V74.777z
	 M146.281,68.085V42.162l-8.554,25.923H146.281z"/>
<polygon fill="#474C55" points="163.842,33.004 184.125,33.004 184.125,38.71 171.165,38.71 171.165,57.73 181.208,57.73 
	181.208,63.365 171.165,63.365 171.165,90.063 163.842,90.063 "/>
<path fill="#474C55" d="M189.18,33.004h10.563c10.497,0,15.421,4.297,15.421,15.145c0,6.692-1.813,11.623-6.479,13.314l7.452,28.6
	h-7.062l-6.869-26.768h-5.703v26.768h-7.322V33.004z M199.29,57.589c6.156,0,8.812-2.113,8.812-9.44
	c0-6.692-1.685-9.439-8.358-9.439h-3.241v18.879H199.29z"/>
<path fill="#474C55" d="M221.841,72.171V50.545c0-11.271,3.758-18.034,14.385-18.034c10.563,0,14.321,6.833,14.321,18.034v21.696
	c0,11.201-3.758,18.457-14.321,18.457C225.536,90.698,221.841,83.513,221.841,72.171 M243.161,73.933V48.924
	c0-6.34-1.103-10.214-6.935-10.214c-5.896,0-6.998,3.874-6.998,10.214v25.008c0,6.34,1.103,10.496,6.998,10.496
	C242.058,84.429,243.161,80.272,243.161,73.933"/>
<polygon fill="#474C55" points="257.742,33.004 262.732,33.004 277.635,70.903 277.635,33.004 283.726,33.004 283.726,90.063 
	279.06,90.063 263.962,51.108 263.962,90.063 257.742,90.063 "/>
<polygon fill="#474C55" points="297.725,38.922 288.848,38.922 288.848,33.005 313.666,33.005 313.666,38.922 305.048,38.922 
	305.048,90.063 297.725,90.063 "/>
<path fill="#F36D21" d="M63.78,58.792l16.943,16.943c0,0,9.469,9.292,20.585,0l17.128-16.943l-17.128-16.67
	c0,0-8.56-10.658-20.585,0L63.78,58.792z"/>
<path fill="#006CA3" d="M75.895,16.943c10.658,12.024,0,20.585,0,20.585l-16.67,17.128L42.281,37.528
	c-9.291-11.116,0-20.585,0-20.585L59.225,0L75.895,16.943z"/>
<path fill="#006CA3" d="M59.05,63.688L42.107,80.631c0,0-9.292,9.469,0,20.585l16.943,17.128l16.67-17.128c0,0,10.658-8.56,0-20.585
	L59.05,63.688z"/>
<path fill="#006CA3" d="M0,59.244l16.943,16.943c0,0,9.469,9.291,20.585,0l17.128-16.943l-17.128-16.67c0,0-8.56-10.658-20.585,0
	L0,59.244z"/>
</svg>
