<?xml version="1.0" encoding="utf-8"?>
<!-- Generator: Adobe Illustrator 16.0.0, SVG Export Plug-In . SVG Version: 6.00 Build 0)  -->
<!DOCTYPE svg PUBLIC "-//W3C//DTD SVG 1.1//EN" "http://www.w3.org/Graphics/SVG/1.1/DTD/svg11.dtd">
<svg version="1.1" id="Layer_1" xmlns="http://www.w3.org/2000/svg" xmlns:xlink="http://www.w3.org/1999/xlink" x="0px" y="0px"
	 width="300px" height="124px" viewBox="0 0 300 124" enable-background="new 0 0 300 124" xml:space="preserve">
<g>
	<g>
		<path fill="#808080" d="M122.445,112.427h1.708l0.978,6.535h0.024l1.039-6.535h1.708l1.039,6.535h0.025l0.977-6.535h1.709
			l-1.609,8.834h-1.992l-0.99-6.408h-0.024l-0.989,6.408h-1.992L122.445,112.427z"/>
		<path fill="#808080" d="M133.863,118.194v0.531c0,0.793,0.211,1.547,0.842,1.547c0.582,0,0.805-0.408,0.903-1.25h1.535
			c-0.063,1.547-0.78,2.412-2.413,2.412c-2.475,0-2.574-1.904-2.574-3.563c0-1.781,0.347-3.439,2.648-3.439
			c1.992,0,2.438,1.336,2.438,3.377v0.385H133.863z M135.608,117.179c-0.036-1.014-0.16-1.584-0.866-1.584
			c-0.68,0-0.879,0.691-0.879,1.324v0.26H135.608z"/>
		<path fill="#808080" d="M141.855,112.427h2.921c2.461,0,2.921,1.684,2.921,4.293c0,3.119-0.67,4.541-3.034,4.541h-2.808V112.427z
			 M143.636,119.95h0.792c1.238,0,1.484-0.779,1.484-3.18c0-2.004-0.173-3.031-1.521-3.031h-0.756V119.95z"/>
		<path fill="#808080" d="M150.588,118.194v0.531c0,0.793,0.211,1.547,0.841,1.547c0.582,0,0.805-0.408,0.902-1.25h1.535
			c-0.063,1.547-0.779,2.412-2.412,2.412c-2.475,0-2.575-1.904-2.575-3.563c0-1.781,0.347-3.439,2.649-3.439
			c1.992,0,2.438,1.336,2.438,3.377v0.385H150.588z M152.332,117.179c-0.035-1.014-0.16-1.584-0.865-1.584
			c-0.679,0-0.878,0.691-0.878,1.324v0.26H152.332z"/>
		<path fill="#808080" d="M155.227,112.427h1.707v8.834h-1.707V112.427z"/>
		<path fill="#808080" d="M158.506,112.329h1.707v1.459h-1.707V112.329z M158.506,114.604h1.707v6.656h-1.707V114.604z"/>
		<path fill="#808080" d="M164.877,114.604h1.707l-1.672,6.656h-1.979l-1.719-6.656h1.781l0.951,4.764h0.027L164.877,114.604z"/>
		<path fill="#808080" d="M168.984,118.194v0.531c0,0.793,0.209,1.547,0.84,1.547c0.582,0,0.805-0.408,0.902-1.25h1.535
			c-0.061,1.547-0.779,2.412-2.414,2.412c-2.475,0-2.572-1.904-2.572-3.563c0-1.781,0.346-3.439,2.648-3.439
			c1.992,0,2.438,1.336,2.438,3.377v0.385H168.984z M170.727,117.179c-0.035-1.014-0.16-1.584-0.863-1.584
			c-0.682,0-0.879,0.691-0.879,1.324v0.26H170.727z"/>
		<path fill="#808080" d="M173.561,114.604h1.633v0.891h0.025c0.346-0.643,0.828-1.063,1.533-1.063c0.1,0,0.211,0.012,0.309,0.023
			v1.635c-0.184-0.012-0.346-0.027-0.533-0.027c-0.592,0-1.26,0.311-1.26,1.201v3.996h-1.707V114.604z"/>
		<path fill="#808080" d="M182.738,112.427l1.164,3.414h0.023l1.238-3.414h1.93l-2.289,5.357v3.477h-1.781v-3.477l-2.289-5.357
			H182.738z"/>
		<path fill="#808080" d="M189.418,114.433c2.043-0.039,2.623,1.174,2.623,3.5c0,2.277-0.68,3.502-2.623,3.502
			c-2.041,0.037-2.621-1.176-2.621-3.502C186.797,115.657,187.477,114.433,189.418,114.433z M189.418,120.272
			c0.695,0,0.916-0.67,0.916-2.34s-0.221-2.338-0.916-2.338c-0.84,0-0.916,0.977-0.916,2.338
			C188.502,119.296,188.578,120.272,189.418,120.272z"/>
		<path fill="#808080" d="M196.682,120.481h-0.027c-0.357,0.656-0.963,0.953-1.693,0.953c-1.078,0-1.695-0.568-1.695-1.893v-4.938
			h1.707v4.592c0,0.68,0.223,0.928,0.73,0.928c0.605,0,0.902-0.371,0.902-1.102v-4.418h1.709v6.656h-1.633V120.481z"/>
		<path fill="#808080" d="M199.76,114.604h1.633v0.891h0.025c0.346-0.643,0.83-1.063,1.535-1.063c0.098,0,0.209,0.012,0.309,0.023
			v1.635c-0.186-0.012-0.346-0.027-0.533-0.027c-0.592,0-1.26,0.311-1.26,1.201v3.996h-1.709V114.604z"/>
		<path fill="#808080" d="M207.516,121.261v-8.834h1.783v7.375h3.154v1.459H207.516z"/>
		<path fill="#808080" d="M215.904,114.433c2.041-0.039,2.623,1.174,2.623,3.5c0,2.277-0.682,3.502-2.623,3.502
			c-2.043,0.037-2.623-1.176-2.623-3.502C213.281,115.657,213.961,114.433,215.904,114.433z M215.904,120.272
			c0.693,0,0.916-0.67,0.916-2.34s-0.223-2.338-0.916-2.338c-0.842,0-0.916,0.977-0.916,2.338
			C214.988,119.296,215.063,120.272,215.904,120.272z"/>
		<path fill="#808080" d="M224.736,114.604v6.322c0,1.77-0.779,2.611-2.771,2.611c-1.447,0-2.266-0.643-2.266-1.781h1.635
			c0,0.211,0.086,0.383,0.262,0.508c0.158,0.111,0.357,0.186,0.568,0.186c0.691,0,0.939-0.506,0.939-1.201v-0.879h-0.025
			c-0.346,0.496-0.879,0.818-1.422,0.818c-1.35,0-2.041-0.941-2.041-3.367c0-1.559,0.246-3.389,2.092-3.389
			c0.48,0,1.037,0.223,1.371,0.914h0.025v-0.742H224.736z M222.176,119.876c0.729,0,0.928-0.779,0.928-1.904
			c0-1.623-0.211-2.227-0.891-2.227c-0.756,0-0.893,0.604-0.893,2.398C221.32,119.06,221.445,119.876,222.176,119.876z"/>
		<path fill="#808080" d="M226.307,112.329h1.707v1.459h-1.707V112.329z M226.307,114.604h1.707v6.656h-1.707V114.604z"/>
		<path fill="#808080" d="M230.771,119.085v0.223c0,0.582,0.311,0.965,0.893,0.965c0.531,0,0.865-0.262,0.865-0.793
			c0-0.434-0.285-0.617-0.619-0.754l-1.199-0.432c-0.941-0.336-1.422-0.918-1.422-1.857c0-1.09,0.703-2.004,2.449-2.004
			c1.547,0,2.275,0.691,2.275,1.893v0.271h-1.533c0-0.68-0.197-1.002-0.754-1.002c-0.434,0-0.807,0.234-0.807,0.719
			c0,0.334,0.162,0.594,0.744,0.779l1.025,0.346c1.076,0.359,1.475,0.902,1.475,1.904c0,1.4-1.041,2.092-2.477,2.092
			c-1.93,0-2.449-0.828-2.449-2.115v-0.234H230.771z"/>
		<path fill="#808080" d="M235.695,112.7h1.709v1.904h0.988v1.164h-0.988v3.6c0,0.531,0.109,0.73,0.605,0.73
			c0.135,0,0.271-0.012,0.383-0.023v1.186c-0.383,0.039-0.719,0.076-1.113,0.076c-1.338,0-1.584-0.422-1.584-1.758v-3.811h-0.865
			v-1.164h0.865V112.7z"/>
		<path fill="#808080" d="M239.357,112.329h1.707v1.459h-1.707V112.329z M239.357,114.604h1.707v6.656h-1.707V114.604z"/>
		<path fill="#808080" d="M245.777,117.005c0-0.643-0.123-1.336-0.766-1.336c-0.844,0-0.979,0.744-0.979,2.277
			c0,1.645,0.162,2.326,0.914,2.326c0.584,0,0.83-0.471,0.83-1.561h1.635c0,1.746-0.719,2.723-2.537,2.723
			c-1.707,0-2.549-0.828-2.549-3.502c0-2.732,1.113-3.5,2.697-3.5s2.389,0.99,2.389,2.572H245.777z"/>
		<path fill="#808080" d="M249.859,119.085v0.223c0,0.582,0.309,0.965,0.893,0.965c0.533,0,0.865-0.262,0.865-0.793
			c0-0.434-0.285-0.617-0.619-0.754l-1.201-0.432c-0.938-0.336-1.422-0.918-1.422-1.857c0-1.09,0.705-2.004,2.449-2.004
			c1.547,0,2.277,0.691,2.277,1.893v0.271h-1.533c0-0.68-0.199-1.002-0.756-1.002c-0.434,0-0.805,0.234-0.805,0.719
			c0,0.334,0.16,0.594,0.744,0.779l1.025,0.346c1.078,0.359,1.473,0.902,1.473,1.904c0,1.4-1.039,2.092-2.475,2.092
			c-1.93,0-2.449-0.828-2.449-2.115v-0.234H249.859z"/>
		<path fill="#808080" d="M259.793,112.427l2.152,6.051h0.025v-6.051h1.633v8.834h-2.029l-2.178-6.186h-0.025v6.186h-1.633v-8.834
			H259.793z"/>
		<path fill="#808080" d="M266.561,118.194v0.531c0,0.793,0.211,1.547,0.84,1.547c0.582,0,0.805-0.408,0.902-1.25h1.535
			c-0.061,1.547-0.779,2.412-2.412,2.412c-2.475,0-2.574-1.904-2.574-3.563c0-1.781,0.346-3.439,2.648-3.439
			c1.992,0,2.438,1.336,2.438,3.377v0.385H266.561z M268.303,117.179c-0.037-1.014-0.16-1.584-0.863-1.584
			c-0.684,0-0.879,0.691-0.879,1.324v0.26H268.303z"/>
		<path fill="#808080" d="M272.598,118.194v0.531c0,0.793,0.209,1.547,0.84,1.547c0.582,0,0.805-0.408,0.904-1.25h1.535
			c-0.064,1.547-0.781,2.412-2.414,2.412c-2.475,0-2.574-1.904-2.574-3.563c0-1.781,0.348-3.439,2.648-3.439
			c1.992,0,2.438,1.336,2.438,3.377v0.385H272.598z M274.342,117.179c-0.039-1.014-0.162-1.584-0.867-1.584
			c-0.68,0-0.877,0.691-0.877,1.324v0.26H274.342z"/>
		<path fill="#808080" d="M280.588,120.556h-0.023c-0.385,0.633-0.83,0.879-1.512,0.879c-1.398,0-2.039-1.025-2.039-3.502
			c0-2.475,0.641-3.5,2.039-3.5c0.645,0,1.078,0.26,1.436,0.791h0.025v-2.797h1.709v8.834h-1.635V120.556z M279.611,120.124
			c0.754,0,0.902-0.744,0.902-2.191s-0.148-2.188-0.902-2.188c-0.744,0-0.891,0.74-0.891,2.188S278.867,120.124,279.611,120.124z"/>
		<path fill="#808080" d="M284.918,119.085v0.223c0,0.582,0.311,0.965,0.891,0.965c0.533,0,0.865-0.262,0.865-0.793
			c0-0.434-0.285-0.617-0.619-0.754l-1.199-0.432c-0.939-0.336-1.424-0.918-1.424-1.857c0-1.09,0.705-2.004,2.449-2.004
			c1.549,0,2.279,0.691,2.279,1.893v0.271h-1.535c0-0.68-0.199-1.002-0.756-1.002c-0.434,0-0.805,0.234-0.805,0.719
			c0,0.334,0.164,0.594,0.744,0.779l1.025,0.346c1.078,0.359,1.473,0.902,1.473,1.904c0,1.4-1.039,2.092-2.475,2.092
			c-1.928,0-2.449-0.828-2.449-2.115v-0.234H284.918z"/>
	</g>
	<g>
		<path fill="#183650" d="M0,55.599h18.83c8.874,0,14.645,4.112,14.645,12.698c0,6.061-3.174,10.678-8.08,11.615v0.143
			c3.824,0.578,9.523,2.238,9.523,12.771c0,6.059-2.669,14.284-17.026,14.284H0V55.599z M12.12,76.16h3.319
			c4.256,0,5.915-2.381,5.915-6.061c0-2.598-1.443-5.555-5.843-5.555H12.12V76.16z M12.12,98.164h3.68
			c4.906,0,6.565-3.029,6.565-6.709c0-5.123-2.598-7.215-6.349-7.215H12.12V98.164z"/>
		<path fill="#183650" d="M40.09,68.08h11.255v5.482h0.144c1.515-3.463,4.473-6.492,9.378-6.492h0.866
			c0.288,0,0.649,0.072,1.01,0.145V78.18c-1.154-0.217-2.092-0.289-3.246-0.289c-4.689,0-7.72,1.877-7.72,7.07v22.149H40.09V68.08z"
			/>
		<path fill="#183650" d="M66.711,68.08h11.687v39.03H66.711V68.08z"/>
		<path fill="#183650" d="M104.947,68.08h10.822v37.659c0,8.875-3.896,14.646-16.232,14.646c-11.327,0-14.646-4.979-14.646-10.822
			h10.822c0.217,1.082,0.649,1.875,1.227,2.381c0.793,0.504,1.731,0.795,2.886,0.795c3.824,0,4.689-2.525,4.689-9.957v-2.38h-0.145
			c-1.659,4.544-5.194,5.771-9.234,5.771c-8.369,0-10.966-8.37-10.966-19.118c0-9.234,1.298-19.984,11.398-19.984
			c5.267,0,7.864,2.74,9.235,6.275h0.144V68.08z M100.113,97.66c3.175,0,4.401-2.309,4.401-11.111
			c0-7.215-0.865-10.533-4.257-10.533c-3.824,0-4.4,4.473-4.4,10.895C95.857,95.061,96.939,97.66,100.113,97.66z"/>
		<path fill="#183650" d="M121.901,55.599h11.687v16.737h0.145c1.947-3.824,4.906-5.266,8.946-5.266
			c6.637,0,10.171,3.318,10.171,10.82v29.22h-11.686V80.488c0-2.813-1.154-4.473-3.392-4.473c-2.236,0-4.185,1.73-4.185,5.555v25.54
			h-11.687V55.599z"/>
		<path fill="#183650" d="M160.496,76.16h-4.832v-8.08h4.832V56.609h11.688V68.08h5.41v8.08h-5.41v19.695
			c0,2.814,0.938,3.609,3.752,3.609c0.504,0,1.154-0.074,1.658-0.146v7.792c-2.234,0.289-4.473,0.434-6.709,0.434
			c-8.15,0-10.389-1.443-10.389-10.534V76.16z"/>
		<path fill="#F8CA0F" d="M191.879,91.383v1.803c0,3.896,1.01,6.855,5.266,6.855c4.258,0,5.484-3.176,5.484-6.133
			c0-11.111-22.148-4.906-22.148-24.168c0-8.225,4.4-15.151,16.881-15.151c12.119,0,16.449,6.204,16.449,14.067v1.227h-11.688
			c0-2.525-0.361-4.328-1.01-5.41c-0.723-1.227-1.947-1.803-3.68-1.803c-3.102,0-4.834,1.803-4.834,5.555
			c0,10.82,22.148,5.266,22.148,23.52c0,11.759-6.494,16.376-17.604,16.376c-8.875,0-16.953-2.67-16.953-13.419v-3.318H191.879z"/>
		<path fill="#F8CA0F" d="M221.24,76.16h-4.834v-8.08h4.834V56.609h11.688V68.08h5.41v8.08h-5.41v19.695
			c0,2.814,0.938,3.609,3.752,3.609c0.504,0,1.152-0.074,1.658-0.146v7.792c-2.234,0.289-4.473,0.434-6.709,0.434
			c-8.152,0-10.389-1.443-10.389-10.534V76.16z"/>
		<path fill="#F8CA0F" d="M241.871,80.055c0.074-5.41,1.588-8.512,4.402-10.459c2.814-1.949,5.986-2.525,10.895-2.525
			c9.594,0,13.852,3.246,13.852,11.543V98.67c0,2.958,0,6.71,1.371,8.44h-11.256c-0.504-1.371-0.578-2.959-0.65-4.473h-0.145
			c-1.658,3.463-5.193,5.482-9.16,5.482c-6.639,0-10.389-3.463-10.389-11.905c0-4.615,1.875-8.295,4.76-9.955
			c2.887-1.658,7.217-2.309,10.463-3.174c3.533-1.01,4.184-1.516,4.184-4.473c0-2.381-1.082-3.896-3.68-3.896
			c-3.246,0-4.184,1.949-4.258,5.338H241.871z M255.436,100.041c2.523,0,4.689-1.371,4.689-5.34c0-3.246,0.072-5.195,0.072-6.854
			c-3.68,1.947-5.268,2.02-6.35,2.885c-1.227,0.939-1.805,2.094-1.805,4.328C252.043,98.164,253.199,100.041,255.436,100.041z"/>
		<path fill="#F8CA0F" d="M277.348,68.08H288.6v5.482h0.145c1.518-3.463,4.473-6.492,9.381-6.492h0.865
			c0.289,0,0.648,0.072,1.01,0.145V78.18c-1.154-0.217-2.092-0.289-3.246-0.289c-4.691,0-7.721,1.877-7.721,7.07v22.149h-11.686
			V68.08z"/>
	</g>
	<path fill="#F8CA0F" d="M80.815,36.858c-1.283-2.368,0.46-2.692,0.46-2.692l19.355-2.979c0,0,0,0-18.322-2.877
		c-2.101-0.33-1.708-2.277-1.708-2.277l1.405-4.617c0,0-2.445,0.882-4.565,1.711c-2.122,0.828-2.256-1.716-2.256-1.716L72.554,0.462
		l-2.63,20.949c0,0-0.133,2.544-2.256,1.716c-2.12-0.829-4.565-1.711-4.565-1.711l1.405,4.617c0,0,0.393,1.947-1.707,2.277
		c-18.323,2.877-18.323,2.877-18.323,2.877l19.355,2.979c0,0,1.743,0.324,0.461,2.692c0,0.001,0,0.001,0,0.001
		c-0.091,0.118-3.105,5.418-3.105,5.418s3.256-0.739,6.112-1.233c2.237-0.382,2.26,1.704,2.26,1.704l2.993,24.665V67.41v0.002
		l2.994-24.665c0,0,0.023-2.086,2.26-1.704c2.855,0.494,6.112,1.233,6.112,1.233S80.906,36.977,80.815,36.858
		C80.815,36.859,80.815,36.859,80.815,36.858z M78.176,31.218c-0.867,0.155-4.13,1.022-5.274,5.305
		c-0.102,0.521-0.19,1.057-0.301,1.588c-0.016,0.14-0.033,0.276-0.047,0.421v-0.013v0.013c-0.012-0.145-0.03-0.281-0.046-0.421
		c-0.11-0.531-0.199-1.066-0.3-1.588c-1.145-4.282-4.408-5.149-5.275-5.305c-0.071-0.01-0.142-0.021-0.215-0.032
		c0.902-0.237,5.3-0.613,5.834-6.446c0,0.014,0.001,0.036,0.002,0.061c0.002-0.025,0.002-0.047,0.003-0.061
		c0.534,5.833,4.932,6.208,5.834,6.446C78.318,31.197,78.248,31.208,78.176,31.218z"/>
</g>
</svg>
