<svg width="213" height="73" viewBox="0 0 213 73" fill="none" xmlns="http://www.w3.org/2000/svg">
  <g clip-path="url(#clip0_222_259)">
    <path
      d="M126.06 56.5915C126.202 63.3549 131.47 68.8256 138.398 68.8256C143.087 68.8256 146.19 66.5961 148.14 64.434C148.79 63.7146 149.44 63.4973 150.015 63.4973C151.169 63.4973 152.251 64.2879 152.251 65.6556C152.251 66.1614 152.108 66.7347 151.529 67.383C148.14 71.1263 143.591 72.996 138.398 72.996C128.367 72.996 120.935 65.4382 120.935 55.2912C120.935 45.1442 128.367 37.5864 137.962 37.5864C147.558 37.5864 154.126 44.1363 154.126 54.0659C154.126 55.7221 153.258 56.584 151.454 56.584H126.056L126.06 56.5915ZM149.151 52.7058C148.862 46.3733 144.966 41.6969 137.966 41.6969C131.399 41.6969 126.567 46.9503 126.131 52.7058H149.151Z"
      fill="#061E21" />
    <path
      d="M120.341 68.9007C119.334 68.9007 118.575 68.4773 118.207 67.7054C117.892 67.0534 117.738 66.2403 117.738 65.2211V27.9417C117.738 27.3459 117.523 26.8438 117.084 26.4054C116.652 25.9745 116.077 25.7646 115.326 25.7646C114.574 25.7646 114.003 25.9745 113.567 26.4054C113.128 26.8438 112.913 27.3496 112.913 27.9417V65.5508C112.913 68.1288 113.391 70.0473 114.337 71.2538C115.254 72.4266 116.678 72.9962 118.692 72.9962C119.706 72.9962 120.439 72.7901 120.867 72.3779C121.299 71.962 121.514 71.4074 121.514 70.6843C121.514 70.1634 121.405 69.7138 121.175 69.3166C121.059 69.1105 120.867 68.8969 120.338 68.8969L120.341 68.9007Z"
      fill="#061E21" />
    <path
      d="M212.594 26.9713C212.335 26.5779 211.869 26.2931 211.182 26.0983C211.02 26.0458 210.678 25.9671 209.957 25.8884C209.341 25.8247 208.589 25.791 207.721 25.791C203.675 25.791 200.97 27.0163 198.678 29.5381C196.405 32.0411 195.251 35.612 195.251 40.2434V70.7668C195.251 71.4113 195.465 71.9322 195.913 72.3556C196.363 72.7865 196.927 72.9963 197.626 72.9963C198.366 72.9963 198.933 72.7902 199.365 72.3631C199.794 71.9359 200 71.4113 200 70.7631V43.4921H207.56C208.168 43.4921 208.661 43.2972 209.063 42.8925C209.468 42.4879 209.664 41.9783 209.664 41.3263C209.664 40.7305 209.472 40.2546 209.074 39.8724C208.668 39.4865 208.172 39.2991 207.563 39.2991H200.03L200.072 38.6621C200.26 35.7657 200.962 33.9184 202.164 32.4308C203.404 30.8945 205.05 30.1189 207.796 30.1189C208.552 30.1189 209.156 30.1526 209.641 30.2275C210.054 30.2875 210.502 30.3212 210.971 30.3212C211.554 30.3212 212.038 30.1563 212.444 29.8191C212.816 29.5118 213.004 28.976 213.004 28.2228C213.004 27.7994 212.869 27.3873 212.594 26.9676V26.9713Z"
      fill="#061E21" />
    <path
      d="M28.0696 64.7941C29.3696 64.7941 30.2337 65.7308 30.2337 66.8812C30.2337 67.3833 30.091 68.0315 29.3696 68.7509C26.5555 71.4863 22.8021 72.9964 18.0418 72.9964C7.14609 72.9964 0.00375366 65.4386 0.00375366 55.2953C0.00375366 45.152 7.14609 37.5942 18.0418 37.5942C21.8666 37.5942 26.052 38.9619 28.9375 41.6223C29.5875 42.2706 29.8768 42.8439 29.8768 43.567C29.8768 44.7886 28.8661 45.7253 27.6413 45.7253C26.9913 45.7253 26.4879 45.5829 25.1879 44.3577C23.7451 42.99 21.2917 41.6935 18.1169 41.6935C10.2532 41.6935 5.19988 47.5951 5.19988 55.2953C5.19988 62.9955 10.1781 68.8221 18.0418 68.8221C21.5773 68.8221 24.0307 67.6718 26.1234 65.7271C26.9162 65.0076 27.4948 64.7903 28.0734 64.7903L28.0696 64.7941Z"
      fill="#061E21" />
    <path
      d="M57.6722 37.5977C57.0259 37.5977 56.4511 37.7963 55.9739 38.1822C55.463 38.5981 55.1925 39.1789 55.1925 39.8684V59.4017C55.1925 60.7244 54.9971 61.9685 54.6139 63.0963C54.2344 64.2017 53.6671 65.1609 52.9194 65.9478C52.1642 66.7422 51.2399 67.3754 50.1729 67.8363C49.1021 68.2972 47.851 68.5295 46.4496 68.5295C45.0482 68.5295 43.7933 68.2972 42.7263 67.8363C41.6592 67.3754 40.735 66.7422 39.9798 65.9478C39.2321 65.1609 38.661 64.2017 38.2853 63.0963C37.9021 61.9722 37.7067 60.7282 37.7067 59.4017V39.8684C37.7067 39.1714 37.4437 38.6056 36.9252 38.1822C36.4443 37.7925 35.8732 37.5977 35.227 37.5977C34.5808 37.5977 34.0022 37.8037 33.5663 38.2122C33.1155 38.6318 32.8863 39.1864 32.8863 39.8684V59.2668C32.8863 61.2265 33.1718 63.0551 33.7354 64.7001C34.3065 66.36 35.1744 67.8288 36.3203 69.0654C37.4662 70.3056 38.9052 71.2836 40.596 71.9731C42.2792 72.6588 44.2479 73.0035 46.4496 73.0035C48.6513 73.0035 50.5524 72.6588 52.2356 71.9731C53.9263 71.2836 55.3653 70.3056 56.5112 69.0654C57.6534 67.8326 58.5326 66.3675 59.1262 64.7076C59.7161 63.0626 60.0129 61.234 60.0129 59.2668V39.8684C60.0129 39.1864 59.7837 38.6318 59.3291 38.2084C58.8895 37.8037 58.3297 37.5977 57.6684 37.5977H57.6722Z"
      fill="#061E21" />
    <path
      d="M110.847 69.3278C110.731 69.1217 110.539 68.9119 110.013 68.9119C109.01 68.9119 108.251 68.4885 107.883 67.7203C107.567 67.0683 107.413 66.259 107.413 65.2435V39.7749C107.413 39.1828 107.199 38.6807 106.759 38.2423C106.327 37.8114 105.752 37.6016 105.005 37.6016C104.257 37.6016 103.686 37.8114 103.25 38.2423C102.81 38.6807 102.596 39.1828 102.596 39.7749V44.3537C101.488 42.6526 100.143 41.2062 98.595 40.0559C96.4008 38.4259 93.6243 37.6016 90.3443 37.6016C88.0374 37.6016 85.8733 38.0587 83.9083 38.958C81.9546 39.8498 80.2263 41.0976 78.7685 42.6638C77.3145 44.2301 76.1611 46.1261 75.3382 48.2956C74.5154 50.4652 74.0946 52.8333 74.0946 55.3401C74.0946 57.8469 74.5004 60.2038 75.3007 62.3508C76.1047 64.5054 77.2506 66.3901 78.7009 67.9489C80.1511 69.5114 81.8682 70.7592 83.8031 71.651C85.7493 72.5503 87.9021 73.0074 90.209 73.0074C93.3613 73.0074 96.1228 72.1493 98.4259 70.4557C100.064 69.2491 101.469 67.7578 102.604 66.0342V65.7906C102.634 68.2337 103.107 70.1072 104.017 71.2725C104.93 72.4416 106.353 73.0112 108.36 73.0112C109.374 73.0112 110.103 72.8051 110.531 72.3929C110.963 71.9807 111.174 71.4262 111.174 70.703C111.174 70.1821 111.065 69.7363 110.84 69.3391L110.847 69.3278ZM90.75 68.1363C83.4687 68.1363 78.9 62.3733 78.9 55.2652C78.9 48.157 83.773 42.394 90.75 42.394C97.0621 42.394 102.596 47.8273 102.596 55.2652C102.596 63.1564 97.0583 68.1363 90.75 68.1363Z"
      fill="#061E21" />
    <path
      d="M91.6668 33.2815C92.4596 33.2815 93.0645 33.0417 93.4702 32.5733C93.8497 32.1311 94.0413 31.5728 94.0413 30.9133C94.0413 30.2539 93.5604 28.2679 90.3443 28.2679C88.492 28.2679 82.8713 28.1443 76.1648 32.5695C70.9424 36.0168 69.2179 41.6449 68.7595 42.3343V39.8238C68.7595 38.4074 67.8954 37.5943 66.385 37.5943C65.6561 37.5943 65.0737 37.8079 64.6492 38.2313C64.2284 38.6547 64.0105 39.1906 64.0105 39.8238V70.6995C64.0105 71.4002 64.2584 71.9697 64.7506 72.3932C65.2165 72.7941 65.7876 72.9964 66.4526 72.9964C67.1176 72.9964 67.6887 72.7866 68.1358 72.3782C68.5942 71.951 68.8271 71.389 68.8271 70.6995V59.6532C68.8271 56.7193 68.6768 53.8116 69.2404 50.9076C69.7927 48.0636 70.841 45.2758 72.3138 42.7765C73.6926 40.4346 75.5073 38.3362 77.7616 36.7962C78.1711 36.5152 78.5919 36.2566 79.024 36.0168C84.1074 33.1953 89.8371 33.2852 91.6668 33.2852V33.2815Z"
      fill="#061E21" />
    <path
      d="M192.392 69.3278C192.276 69.1217 192.084 68.9119 191.558 68.9119C190.555 68.9119 189.796 68.4885 189.428 67.7203C189.112 67.0683 188.958 66.259 188.958 65.2435V39.7749C188.958 39.1828 188.744 38.6807 188.304 38.2423C187.872 37.8114 187.297 37.6016 186.55 37.6016C185.802 37.6016 185.231 37.8114 184.795 38.2423C184.356 38.6807 184.141 39.1828 184.141 39.7749V44.3537C183.033 42.6526 181.688 41.2062 180.14 40.0559C177.946 38.4259 175.169 37.6016 171.889 37.6016C169.582 37.6016 167.418 38.0587 165.453 38.958C163.5 39.8498 161.771 41.0976 160.314 42.6638C158.86 44.2301 157.706 46.1261 156.883 48.2956C156.06 50.4652 155.64 52.8333 155.64 55.3401C155.64 57.8469 156.045 60.2038 156.846 62.3508C157.65 64.5054 158.796 66.3901 160.246 67.9489C161.696 69.5114 163.413 70.7592 165.348 71.651C167.294 72.5503 169.447 73.0074 171.754 73.0074C174.906 73.0074 177.668 72.1493 179.971 70.4557C181.609 69.2491 183.014 67.7578 184.149 66.0342V65.7906C184.179 68.2337 184.652 70.1072 185.562 71.2725C186.475 72.4416 187.899 73.0112 189.905 73.0112C190.919 73.0112 191.648 72.8051 192.076 72.3929C192.509 71.9807 192.719 71.4262 192.719 70.703C192.719 70.1821 192.61 69.7363 192.385 69.3391L192.392 69.3278ZM172.291 68.1363C165.01 68.1363 160.441 62.3733 160.441 55.2652C160.441 48.157 165.314 42.394 172.291 42.394C178.603 42.394 184.138 47.8273 184.138 55.2652C184.138 63.1564 178.6 68.1363 172.291 68.1363Z"
      fill="#061E21" />
    <path
      d="M125.023 0.0710113C124.568 -0.363646 121.179 1.27007 117.655 1.64102C114.131 2.01573 109.419 2.23306 104.475 7.07424C97.8811 13.5304 101.263 22.943 101.529 22.2723C101.796 21.6015 99.6244 15.033 105.726 8.974C111.828 2.91502 120.909 3.79183 120.909 3.79183C120.909 3.79183 120.217 13.9838 115.055 18.9411C111.576 22.2835 108.476 23.1116 105.903 23.3477L106.139 22.2161C106.308 21.2306 106.496 20.2301 106.801 19.2746C107.094 18.3566 107.533 17.491 108.063 16.6929C108.604 15.8761 109.25 15.1341 109.923 14.426C110.092 14.2498 110.257 14.0587 110.438 13.8939C110.475 13.8564 110.862 13.5079 110.742 13.4442C110.655 13.3955 110.513 13.4442 110.426 13.4705C110.212 13.5342 110.005 13.6316 109.806 13.7365C109.509 13.8939 109.224 14.0812 108.95 14.2798C108.589 14.5421 108.251 14.8306 107.928 15.1379C107.526 15.5201 107.154 15.9285 106.804 16.3557C106.387 16.869 106.004 17.4086 105.651 17.9707C105.238 18.6301 104.869 19.3196 104.535 20.024C104.058 21.0432 103.716 22.1111 103.258 23.1378C102.795 24.1758 102.239 25.1687 101.619 26.1205C101.093 26.9224 100.526 27.4245 99.5794 27.6455C99.2525 27.7242 98.9181 27.7617 98.5537 27.7729C97.8849 27.7954 97.1522 27.9678 96.5812 28.3312C95.5254 29.0132 95.2211 30.602 95.8974 31.6586C96.5699 32.7115 98.3583 32.7265 99.4253 32.3593C100.703 31.9209 101.582 30.8043 102.424 29.8113L102.461 29.7589L102.566 29.6165L102.728 29.3992L102.934 29.1181C103.013 29.0095 103.096 28.9008 103.175 28.7921C103.265 28.6722 103.352 28.5523 103.442 28.4324C103.532 28.3125 103.626 28.1814 103.72 28.054C103.814 27.9266 103.908 27.8029 103.998 27.6755C104.088 27.5481 104.178 27.432 104.268 27.3083C104.351 27.1959 104.434 27.0835 104.52 26.9711L104.738 26.6751L104.914 26.4352C104.945 26.394 104.978 26.3528 105.008 26.3078C105.038 26.2666 105.061 26.2254 105.099 26.1917C105.178 26.1205 105.298 26.098 105.395 26.0868C105.486 26.0755 105.576 26.0755 105.666 26.0718C105.703 26.0718 105.737 26.068 105.775 26.0643C105.816 26.0643 105.858 26.053 105.899 26.053C107.127 25.8919 108.315 25.6446 109.502 25.2886C111.215 24.7716 112.891 24.0671 114.371 23.0592C114.946 22.6695 115.491 22.2311 115.987 21.7439C121.942 15.9135 122.573 9.06393 123.411 5.82648C124.245 2.58903 125.474 0.505669 125.019 0.0747584L125.023 0.0710113Z"
      fill="#061E21" />
  </g>
  <defs>
    <clipPath id="clip0_222_259">
      <rect width="213" height="73" fill="white" />
    </clipPath>
  </defs>
</svg>
  