<svg width="40" height="15" viewBox="0 0 40 15" fill="none" xmlns="http://www.w3.org/2000/svg">
<g clip-path="url(#clip0_1915_465)">
<mask id="mask0_1915_465" style="mask-type:luminance" maskUnits="userSpaceOnUse" x="0" y="0" width="40" height="15">
<path d="M40 0.0585938H0V14.0657H40V0.0585938Z" fill="white"/>
</mask>
<g mask="url(#mask0_1915_465)">
<path d="M38.6978 4.05304C38.6978 3.93056 38.7271 3.81828 38.7839 3.71281C38.8407 3.60904 38.92 3.52568 39.0217 3.46614C39.1232 3.4066 39.2318 3.37598 39.3506 3.37598C39.4696 3.37598 39.578 3.4066 39.6797 3.46614C39.7812 3.52568 39.8605 3.60904 39.9173 3.71281C39.974 3.81659 40.0034 3.93056 40.0034 4.05304C40.0034 4.17551 39.9741 4.29118 39.9155 4.39496C39.857 4.50043 39.7778 4.58209 39.678 4.64163C39.578 4.70117 39.4679 4.73179 39.3523 4.73179C39.237 4.73179 39.1249 4.70117 39.0234 4.64163C38.9234 4.58039 38.8442 4.49873 38.7857 4.39496C38.7289 4.29118 38.6995 4.17721 38.6995 4.05473L38.6978 4.05304ZM39.8881 4.05304C39.8881 3.95268 39.8657 3.8591 39.8192 3.77235C39.7726 3.68558 39.7089 3.61754 39.6244 3.5648C39.5402 3.51379 39.4489 3.48656 39.3489 3.48656C39.2491 3.48656 39.1612 3.51207 39.0785 3.56141C38.9958 3.61073 38.9286 3.67878 38.8822 3.76724C38.8338 3.85401 38.8099 3.94926 38.8099 4.05134C38.8099 4.1534 38.8338 4.24867 38.8805 4.33542C38.9286 4.42219 38.9941 4.49193 39.0768 4.54127C39.1595 4.59229 39.2508 4.61782 39.3489 4.61782C39.4471 4.61782 39.5385 4.59229 39.6227 4.54127C39.7071 4.49023 39.7726 4.42049 39.8192 4.33372C39.8657 4.24697 39.8899 4.1534 39.8899 4.05134L39.8881 4.05304ZM39.6434 4.17382C39.6434 4.26568 39.6158 4.33542 39.5624 4.38476C39.5091 4.43408 39.4333 4.45789 39.335 4.45789C39.237 4.45789 39.1595 4.42558 39.101 4.36095C39.0422 4.29629 39.0148 4.20955 39.0148 4.10066V3.99861C39.0148 3.89313 39.0439 3.80806 39.1027 3.74513C39.1612 3.6805 39.2387 3.64816 39.335 3.64816C39.4316 3.64816 39.5108 3.67369 39.5642 3.72301C39.6175 3.77235 39.6434 3.84209 39.6434 3.93226H39.5005C39.5005 3.87441 39.4866 3.8319 39.4575 3.80806C39.4299 3.78255 39.3886 3.77066 39.335 3.77066C39.2817 3.77066 39.2353 3.79105 39.2042 3.8319C39.1733 3.87271 39.1578 3.92715 39.1578 3.99519V4.10747C39.1578 4.17893 39.1733 4.23336 39.2042 4.27418C39.2353 4.31502 39.28 4.33542 39.335 4.33542C39.3903 4.33542 39.4299 4.32352 39.4575 4.29799C39.4849 4.27248 39.4987 4.23166 39.4987 4.17212H39.6417L39.6434 4.17382Z" fill="black"/>
<path fill-rule="evenodd" clip-rule="evenodd" d="M7.58041 10.7622C8.77234 9.75678 9.29421 8.01823 9.22532 6.38345C9.07201 2.76513 6.50905 1.43994 3.23298 1.43994C2.80755 1.43994 2.29943 1.45865 1.70864 1.49268C1.11784 1.5267 0.547719 1.59474 0.00170898 1.69511V7.9706C0.00170898 9.59177 0.676902 10.7026 1.66386 11.3456C1.86882 11.4239 2.09963 11.4324 2.31666 11.412C3.20888 11.3286 4.13039 10.5427 4.45592 10.1429C3.71527 10.228 2.89194 9.97284 2.46134 9.40636C1.96011 8.74461 1.83782 7.72904 1.83782 6.79681V3.44217C2.27876 3.41666 2.72142 3.39794 3.16236 3.39794C5.08804 3.39794 6.97411 4.12262 7.27725 6.20652C7.33582 6.60968 7.32204 7.37859 7.16014 7.76647C6.66923 5.95306 5.0915 5.03105 3.54303 4.68401C4.85725 5.58391 5.86485 7.25442 5.96305 8.48604C5.97165 8.59321 5.97165 8.69529 5.96305 8.79223C5.88725 10.0103 4.96574 11.1857 3.56369 11.9495L3.49997 11.9836C4.90031 12.1469 6.44876 11.7182 7.58384 10.7605L7.58041 10.7622Z" fill="#76BC21"/>
<path fill-rule="evenodd" clip-rule="evenodd" d="M21.6252 3.81312L21.62 14.0659H23.8368L23.8505 10.9017C24.1347 11.3866 25.8865 12.5927 27.9257 11.5243C29.0746 10.9222 29.8652 9.71435 29.886 7.96049C29.9151 5.29311 28.0499 3.55453 26.0398 3.80462C24.9754 3.93729 24.4586 4.29283 23.8368 4.8338V3.81312H21.6269H21.6252ZM23.8936 8.43169C24.3276 10.9426 28.0721 10.3727 27.602 7.3787C27.1956 4.78787 23.3493 5.28458 23.8936 8.43169Z" fill="black"/>
<path fill-rule="evenodd" clip-rule="evenodd" d="M30.7953 7.88882C30.8195 13.375 39.2008 13.3852 39.2852 7.89562C39.3679 2.46051 30.7711 2.44859 30.7953 7.88882ZM33.019 7.89562C32.964 5.04453 37.1168 5.04453 37.0615 7.89562C37.0064 10.728 33.0758 10.7807 33.019 7.89562Z" fill="black"/>
<path fill-rule="evenodd" clip-rule="evenodd" d="M14.8422 9.33652L14.074 10.8709C14.8026 11.2384 15.7981 11.8899 17.3018 11.9256C20.3402 11.9954 21.2634 9.30759 19.7287 7.90418C18.7624 7.07402 17.0676 7.09444 16.5939 6.52966C16.0686 5.90364 16.9436 5.41201 17.9563 5.68078C18.5437 5.78797 19.0036 6.004 19.4066 6.20305L19.3928 6.1724L20.3109 4.71625H20.3161C19.634 4.35221 18.7435 3.90991 17.5102 3.88268C14.4719 3.81294 13.5486 6.50074 15.0833 7.90418C16.0496 8.73433 17.7445 8.71391 18.2181 9.27869C18.7435 9.90469 17.8685 10.3963 16.8557 10.1276C15.9773 9.96765 15.383 9.56277 14.8422 9.33652Z" fill="black"/>
<path fill-rule="evenodd" clip-rule="evenodd" d="M10.6998 11.9869L12.9286 11.9852L12.9355 3.81299H10.717L10.6998 11.9869Z" fill="black"/>
<path fill-rule="evenodd" clip-rule="evenodd" d="M11.8263 0.0585938C12.5755 0.0585938 13.1818 0.657393 13.1818 1.39739C13.1818 2.13738 12.5755 2.73619 11.8263 2.73619C11.077 2.73619 10.4707 2.13738 10.4707 1.39739C10.4707 0.657393 11.077 0.0585938 11.8263 0.0585938Z" fill="black"/>
</g>
</g>
<defs>
<clipPath id="clip0_1915_465">
<rect width="40" height="14.2529" fill="white"/>
</clipPath>
</defs>
</svg>
