<svg width="313" height="174" viewBox="0 0 313 174" fill="none" xmlns="http://www.w3.org/2000/svg">
<g clip-path="url(#clip0_668_2047)">
<path fill-rule="evenodd" clip-rule="evenodd" d="M191.66 22.9626C193.372 18.4233 196.267 14.1827 199.544 10.7813C204.13 6.0282 208.571 4.57968 214.969 3.93007C237.223 1.66247 259.702 -0.22182 282.089 0.020273C291.559 0.121145 299.35 4.269 306.517 10.1559C310.318 13.2748 312.714 17.6809 312.976 22.6277C313.334 29.4143 309.702 34.9018 304.416 38.7914C294.18 46.3245 284.195 54.1966 274.503 62.4196C284.541 62.5487 294.543 65.0746 301.154 73.3945C302.733 75.3796 304.001 77.5827 304.947 79.935C308.994 89.9899 303.679 99.3266 294.366 103.696C289.647 105.912 284.594 107.82 279.492 108.926C275.969 109.688 272.373 109.341 269.112 107.909C264.466 108.224 259.823 108.801 255.221 109.575C255.881 112.371 255.93 115.317 255.422 118.198C254.537 123.253 252.475 128.422 249.806 132.792C244.523 141.443 235.89 148.35 225.224 146.357C220.932 145.554 216.99 144.09 213.121 142.084C212.215 141.616 211.055 140.833 210.109 140.438C191.773 136.944 168.976 138.953 150.712 142.201C132.307 145.474 104.251 152.922 89.8851 165.24C89.4623 165.636 89.0677 166.08 88.649 166.483C83.0885 171.797 75.8652 173.814 68.4445 171.511C62.3083 169.606 57.0498 165.281 52.9872 160.394C52.7496 160.108 52.5201 159.817 52.3027 159.519C47.0885 162.21 41.8381 164.833 36.5635 167.403C35.8992 168.033 35.271 168.654 34.5141 169.231C29.0462 173.411 22.7288 175.186 16.0007 173.173C8.76931 171.01 4.54562 165.244 1.79559 158.547C-2.23886 148.718 0.559486 138.691 9.35314 132.651C11.2778 131.331 13.2306 130.052 15.2075 128.814C15.3968 123.249 17.1201 117.689 19.4393 112.694C25.35 99.952 31.599 87.3713 38.1338 74.9398C32.6378 71.2479 29.0422 65.244 27.6652 58.6551C25.5715 48.6365 29.2234 38.1418 39.1807 34.0706C60.2347 25.4642 84.0549 20.6788 106.788 20.3924C111.688 20.3318 116.339 22.2403 119.882 25.5167C124.613 20.5255 130.427 16.7731 137.65 16.7731C146.037 16.7731 153.12 21.8288 159.401 26.8401C159.518 26.9329 159.634 27.0257 159.747 27.1185C163.757 21.4414 169.479 16.9587 176.787 16.8578C182.758 16.769 187.775 19.081 191.66 22.9626Z" fill="url(#paint0_linear_668_2047)"/>
<path fill-rule="evenodd" clip-rule="evenodd" d="M160.499 35.5055C160.938 34.7187 161.381 33.936 161.824 33.1532C164.936 27.6819 169.925 22.3599 176.681 22.2631C183.466 22.1662 188.314 26.0639 191.434 31.3779C192.465 30.7888 193.568 30.3328 194.8 30.0585C194.86 29.4976 194.953 28.9247 195.078 28.3396C196.153 23.3121 199.294 18.3856 202.837 14.7138C206.614 10.796 210.072 9.84373 215.274 9.31516C237.138 7.08791 259.867 5.19555 281.855 5.43361C290.177 5.52237 296.986 9.31112 303.275 14.4758C306.021 16.7272 307.781 19.8704 307.97 23.4574C308.248 28.6664 305.329 32.552 301.375 35.4612C287.109 45.9639 273.303 57.1284 260.108 68.9708C262.492 68.6117 264.855 68.3252 267.183 68.1194C277.736 67.1874 290.044 67.9863 297.195 76.98C298.484 78.598 299.515 80.3976 300.288 82.3141C303.384 90.0087 299.084 96.6218 292.138 99.878C287.786 101.92 282.986 103.743 278.291 104.76C275.272 105.414 272.361 104.913 269.904 103.562C262.826 103.969 255.506 105.002 248.206 106.483C250.425 109.602 251.234 113.637 250.485 117.926C248.548 129.002 239.086 144.621 225.932 142.163C222.071 141.441 218.636 140.15 215.162 138.351C214.151 137.826 212.295 136.668 211.248 136.329C192.396 132.641 168.484 134.663 149.692 138.003C130.434 141.429 101.609 149.184 86.5021 162.193C86.039 162.616 85.6002 163.109 85.1412 163.548C80.8772 167.624 75.4939 169.254 69.704 167.458C64.4978 165.84 59.9722 162.011 56.5296 157.867C55.4143 156.524 54.6332 155.075 54.158 153.582C47.3695 157.149 40.5166 160.587 33.6395 163.932C32.8946 164.609 32.2786 165.291 31.4169 165.949C27.1933 169.177 22.4783 170.678 17.2158 169.104C11.4621 167.381 8.25308 162.532 6.09493 157.274C2.92213 149.543 5.01586 141.954 11.9131 137.213C14.5262 135.417 17.1957 133.706 19.9095 132.064C19.5109 126.468 21.206 120.569 23.65 115.303C30.2171 101.149 37.2029 87.1963 44.5309 73.4253C44.3578 73.3688 44.1887 73.3043 44.0155 73.2397C37.6176 70.7623 33.5912 64.7826 32.2182 58.2259C30.6076 50.5233 33.0718 42.2882 40.8307 39.1168C61.2566 30.7686 84.654 26.072 106.674 25.7976C111.043 25.7411 115.126 27.8151 117.88 31.1721L118.254 31.6321L118.576 32.1324C118.923 32.669 119.261 33.2097 119.583 33.7544C120.062 33.1169 120.549 32.4915 121.045 31.8822C125.184 26.8063 130.539 22.1783 137.472 22.1783C144.514 22.1783 150.928 26.9758 156.211 31.1923C157.838 32.4875 159.295 33.9158 160.499 35.5055Z" fill="black"/>
<path fill-rule="evenodd" clip-rule="evenodd" d="M229.976 127.171C235.029 128.116 240.955 118.658 242.208 111.5C242.61 109.2 242.131 107.485 239.719 106.719C191.37 91.3659 97.0883 109.499 67.5587 142.472C65.9441 144.275 66.0247 145.631 66.7414 146.494C68.7707 148.936 71.7864 151.776 74.9351 152.757C78.3897 153.83 79.9117 151.147 81.7155 149.589C108.608 126.409 177.822 113.969 215.468 121.369C219.503 122.164 222.853 125.84 229.976 127.171Z" fill="white"/>
<path fill-rule="evenodd" clip-rule="evenodd" d="M27.1295 152.938C28.1642 152.147 28.9856 150.864 30.7814 149.993C55.1532 138.15 77.8097 125.739 98.2074 111.621C103.542 107.929 105.757 103.172 104.779 97.5676C104.428 95.5703 103.212 92.3384 101.94 87.6377C101.167 84.781 99.6972 82.6466 97.1525 81.3272C94.3944 79.8948 88.6166 79.8625 79.8712 80.4839C91.8981 72.5594 103.369 63.7593 114.192 54.1442C116.262 52.5706 117.156 51.0858 116.87 49.6857C117.152 44.3677 115.477 38.8964 111.841 33.2758C111.076 32.3397 110.001 31.7466 108.922 31.7628C88.7977 32.017 66.4875 36.306 46.9313 44.2991C44.8899 45.1343 43.8672 47.6642 44.6604 51.453C45.4536 55.2377 47.5151 57.8361 49.935 58.7722C51.2395 59.2766 52.1173 57.9733 53.748 57.0897C56.0672 55.8308 60.8948 54.1523 67.6833 52.4254C56.1155 72.8903 45.2482 93.7748 35.3272 115.152C31.643 123.092 31.5947 128.798 34.9729 132.171C29.8432 135.011 24.8143 138.009 19.9907 141.322C17.3936 143.105 16.5964 145.312 17.9613 148.641C19.2136 151.687 20.5825 153.838 22.3421 154.362C24.1539 154.911 25.5873 154.116 27.1295 152.938ZM275.494 22.9264C258.313 23.5599 236.679 25.2343 210.665 28.5631C207.842 28.9262 206.997 28.3089 207.5 25.9525C208.148 22.9223 210.419 19.642 212.529 17.4551C214.272 15.6475 215.456 15.5304 218.448 15.2278C246.56 12.3631 268.359 11.2293 283.848 11.3987C288.394 11.4472 292.856 13.2507 298.698 18.0482C300.308 19.3717 299.519 20.6628 297.236 22.3413C269.555 42.7174 246.246 63.5858 226.726 84.1072C267.215 71.6516 287.927 70.0295 292.61 81.6661C293.331 83.4576 292.107 84.6075 289.771 85.705C285.914 87.5167 281.666 89.0701 278.167 89.8287C277.052 90.0708 276.275 89.1952 275.896 88.2309C253.179 88.7352 224.185 96.2724 200.192 106.997C198.187 107.893 198.199 106.896 197.676 103.632C197.176 100.513 197.108 98.9435 197.108 97.6563C197.112 89.1548 252.286 37.4035 275.494 22.9264ZM145.59 96.0545C145.228 97.5635 145.908 99.2743 147.374 99.589C154.392 101.086 159.014 99.928 162.058 96.3087C168.198 89.0056 178.611 71.9058 186.724 62.9846C184.984 68.1251 183.611 75.4766 183.152 80.5727C182.947 82.8685 184.127 85.7898 188.101 85.9592C191.95 86.1206 196.069 85.9552 198.243 85.705C200.273 85.475 201.65 84.1758 203.84 81.077C211.466 70.3039 224.612 46.1552 226.557 35.2166C226.718 34.3209 225.341 33.9537 224.286 33.9537C222.043 33.9537 219.793 34.5388 217.957 35.2166C215.408 36.1567 213.942 37.6133 213.169 39.7599C208.869 51.7072 202.338 63.4971 196.375 73.3341C198.944 63.6786 201.694 54.1846 204.814 46.0704C205.531 44.2063 205.845 42.4269 205.543 40.8533C204.971 37.8796 201.891 35.721 199.781 35.721C198.517 35.721 197.47 36.8628 195.968 38.3315C184.996 49.0199 173.429 62.0284 167.019 72.0429C172.136 60.8623 179.903 45.675 184.771 39.5097C185.999 37.9523 186.402 36.5965 185.745 34.8817C184.207 30.871 182.041 28.1919 178.929 28.2322C177.298 28.2565 175.011 30.399 173.086 33.7842C159.791 57.1784 148.509 83.9377 145.59 96.0545ZM116.222 64.3242C119.543 54.2935 124.753 42.0315 131.325 33.9658C134.159 30.4877 136.978 28.1435 139.583 28.1435C143.44 28.1435 149.125 32.7594 151.746 34.8535C153.719 36.4271 155.31 38.2266 155.507 40.4337C156.614 52.8127 152.64 67.5844 147.334 78.5593C142.977 87.5651 126.666 112.154 114.78 107.308C104.481 103.107 113.343 73.0153 116.222 64.3242ZM127.495 68.0605C127.109 69.0813 117.764 93.7869 122.418 92.9839C126.718 92.2415 135.669 74.1209 137.598 69.8722C140.489 63.5132 142.719 57.0251 144.318 50.4362C144.745 48.685 142.973 41.6361 141.854 41.3779C141.354 41.2609 139.478 43.6616 139.502 44.3839C142.667 45.0577 137.231 50.7791 135.359 51.687C133.752 54.1039 128.156 66.3053 127.495 68.0605ZM83.1407 49.1369C88.8662 48.1161 95.2319 47.172 102.097 46.4053C92.7839 53.9909 83.2131 61.2254 73.3968 68.0968C75.0516 64.8931 76.7749 61.5482 78.5667 58.058C82.1743 54.6082 83.6963 51.6345 83.1407 49.1369ZM57.3757 99.3308L57.3959 99.3348C60.5969 99.9764 67.0149 98.431 76.9521 96.2199C96.9915 91.7614 97.4424 94.6705 81.7395 105.896C70.7071 113.78 58.475 119.848 46.3595 126.118C46.7903 121.511 50.5993 112.872 57.3757 99.3308Z" fill="white"/>
<path fill-rule="evenodd" clip-rule="evenodd" d="M108.016 124.484C107.251 124.783 106.506 125.077 105.749 125.372C105.753 124.815 105.753 124.258 105.745 123.701C105.741 123.52 105.645 123.467 105.463 123.536C105.121 123.669 104.787 123.802 104.457 123.939C104.263 124.02 104.175 124.149 104.175 124.331C104.179 125.303 104.179 126.268 104.167 127.236C104.159 128.208 104.131 129.181 104.11 130.153C104.106 130.335 104.191 130.387 104.38 130.306C104.702 130.169 105.045 130.032 105.379 129.899C105.56 129.826 105.665 129.697 105.673 129.512C105.697 128.951 105.697 128.394 105.709 127.837C106.466 127.539 107.219 127.24 107.984 126.941C107.976 127.668 107.96 128.394 107.936 129.116C107.915 129.721 107.758 130.23 107.448 130.629C107.142 131.029 106.538 131.404 105.661 131.759C105.049 132.005 104.441 132.251 103.829 132.51C102.951 132.873 102.359 132.986 102.073 132.824C101.787 132.663 101.666 132.263 101.683 131.662C101.715 130.516 101.739 129.37 101.751 128.233C101.763 127.091 101.763 125.949 101.759 124.811C101.755 124.214 101.884 123.709 102.178 123.306C102.472 122.898 103.08 122.515 103.957 122.152C104.569 121.898 105.177 121.656 105.802 121.418C106.687 121.079 107.267 120.99 107.565 121.155C107.867 121.325 108.02 121.712 108.024 122.305C108.028 123.036 108.016 123.762 108.016 124.484ZM118.666 118.601C118.525 119.404 118.392 120.211 118.263 121.018C118.134 121.821 117.989 122.632 117.861 123.439C118.364 123.278 118.855 123.116 119.367 122.955C119.246 122.229 119.129 121.506 119.016 120.776C118.907 120.05 118.779 119.324 118.666 118.601ZM116.729 117.484C118.014 117.068 119.31 116.656 120.603 116.245C120.905 117.851 121.251 119.453 121.541 121.055C121.835 122.664 122.125 124.27 122.39 125.876C121.589 126.122 120.776 126.372 119.962 126.627C119.87 126.017 119.761 125.412 119.668 124.807C118.936 125.045 118.183 125.287 117.438 125.525C117.301 126.211 117.164 126.901 117.019 127.583C116.206 127.861 115.401 128.14 114.599 128.414C114.99 126.582 115.36 124.759 115.719 122.939C116.077 121.123 116.407 119.299 116.729 117.484ZM131.667 117.633C131.651 118.577 131.635 119.521 131.615 120.469C131.591 121.414 131.558 122.366 131.522 123.31C130.761 123.508 130 123.701 129.239 123.911C129.296 122.213 129.356 120.514 129.384 118.815C129.412 117.121 129.428 115.426 129.449 113.731C130.25 113.517 131.059 113.312 131.872 113.106C132.223 113.993 132.581 114.877 132.927 115.761C133.274 116.652 133.62 117.544 133.962 118.432C133.982 117.455 134.006 116.471 134.019 115.494C134.035 114.518 134.039 113.538 134.047 112.561C134.796 112.384 135.549 112.202 136.31 112.02C136.302 113.707 136.277 115.398 136.245 117.084C136.213 118.775 136.161 120.465 136.092 122.16C135.291 122.362 134.49 122.555 133.688 122.757C133.354 121.902 133.024 121.042 132.69 120.191C132.356 119.34 132.013 118.484 131.667 117.633ZM145.941 114.409C145.913 115.353 145.896 116.289 145.868 117.229C145.84 118.17 145.812 119.11 145.784 120.05C145.023 120.203 144.266 120.361 143.505 120.518C143.561 118.827 143.609 117.141 143.646 115.454C143.682 113.772 143.71 112.081 143.738 110.398C144.54 110.229 145.349 110.072 146.154 109.91C146.504 110.814 146.867 111.714 147.205 112.618C147.547 113.521 147.877 114.429 148.228 115.329C148.248 114.353 148.276 113.384 148.296 112.408C148.316 111.439 148.324 110.463 148.332 109.491C149.089 109.345 149.85 109.208 150.607 109.067C150.579 110.749 150.543 112.432 150.507 114.115C150.47 115.797 150.422 117.484 150.366 119.17C149.556 119.32 148.747 119.469 147.938 119.626C147.608 118.755 147.269 117.887 146.943 117.016C146.621 116.152 146.271 115.281 145.941 114.409ZM161.201 109.051C161.052 109.829 160.907 110.604 160.762 111.383C160.617 112.162 160.48 112.94 160.343 113.715C160.842 113.642 161.342 113.57 161.837 113.505C161.716 112.767 161.603 112.024 161.511 111.278C161.414 110.532 161.297 109.789 161.201 109.051ZM159.312 107.618C160.589 107.425 161.873 107.235 163.162 107.053C163.443 108.7 163.733 110.346 164.007 111.992C164.281 113.642 164.571 115.297 164.841 116.951C164.035 117.044 163.238 117.153 162.441 117.258C162.336 116.636 162.244 116.011 162.147 115.39C161.398 115.49 160.653 115.599 159.904 115.704C159.767 116.362 159.622 117.02 159.49 117.669C158.68 117.79 157.875 117.903 157.078 118.036C157.456 116.293 157.835 114.554 158.197 112.823C158.555 111.088 158.938 109.357 159.312 107.618ZM171.657 116.241C171.714 114.53 171.77 112.827 171.822 111.121C171.875 109.414 171.927 107.707 171.967 106C173.332 105.863 174.701 105.734 176.074 105.621C176.96 105.548 177.54 105.657 177.826 105.916C178.12 106.182 178.253 106.618 178.24 107.215C178.224 107.852 178.196 108.494 178.172 109.14C178.152 109.737 177.866 110.213 177.302 110.523C177.165 110.6 177.081 110.649 177.077 110.693C177.077 110.737 177.153 110.778 177.29 110.834C177.886 111.08 178.184 111.508 178.16 112.109C178.136 112.751 178.116 113.388 178.091 114.034C178.071 114.631 177.91 115.087 177.6 115.39C177.302 115.684 176.69 115.862 175.837 115.922C174.44 116.015 173.05 116.12 171.657 116.241ZM174.258 109.914C174.677 109.882 175.104 109.846 175.531 109.813C175.72 109.797 175.813 109.7 175.821 109.519C175.841 108.974 175.861 108.429 175.877 107.889C175.881 107.707 175.8 107.614 175.611 107.63C175.184 107.667 174.758 107.703 174.339 107.739C174.315 108.458 174.287 109.188 174.258 109.914ZM174.142 114.062C174.56 114.03 174.987 113.998 175.414 113.965C175.603 113.949 175.7 113.852 175.704 113.671C175.712 113.134 175.728 112.589 175.748 112.045C175.756 111.867 175.668 111.774 175.482 111.79C175.056 111.827 174.629 111.859 174.218 111.891C174.178 112.618 174.162 113.34 174.142 114.062ZM185.75 105.068C186.563 105.048 187.368 105.032 188.17 105.016C188.109 106.763 188.041 108.514 187.98 110.257C187.92 112.004 187.872 113.743 187.811 115.49C187.018 115.494 186.205 115.498 185.403 115.511C185.464 113.772 185.504 112.033 185.56 110.289C185.621 108.55 185.689 106.807 185.75 105.068ZM195.502 110.035C195.216 109.733 195.083 109.248 195.115 108.583C195.143 107.998 195.163 107.417 195.184 106.836C195.208 106.222 195.373 105.77 195.683 105.488C195.989 105.21 196.581 105.088 197.45 105.117C198.054 105.137 198.658 105.169 199.27 105.206C200.132 105.258 200.712 105.435 200.994 105.746C201.28 106.057 201.408 106.525 201.384 107.142C201.36 107.715 201.34 108.284 201.316 108.857C200.563 108.809 199.814 108.76 199.061 108.716C199.077 108.316 199.093 107.921 199.109 107.522C199.117 107.332 199.033 107.235 198.844 107.223C198.489 107.203 198.131 107.183 197.777 107.17C197.599 107.162 197.495 107.255 197.487 107.441C197.475 107.776 197.467 108.115 197.446 108.45C197.434 108.688 197.93 109.087 198.924 109.664C199.923 110.245 200.567 110.693 200.853 111C201.147 111.31 201.284 111.794 201.251 112.468C201.223 113.029 201.227 113.59 201.203 114.151C201.179 114.768 201.014 115.22 200.704 115.49C200.398 115.757 199.806 115.866 198.948 115.809C198.288 115.769 197.644 115.728 196.991 115.696C196.11 115.652 195.534 115.478 195.256 115.184C194.974 114.881 194.841 114.421 194.865 113.808C194.89 113.239 194.89 112.674 194.914 112.101C195.687 112.129 196.456 112.162 197.237 112.198C197.221 112.597 197.217 112.997 197.209 113.392C197.205 113.582 197.285 113.679 197.475 113.687C197.821 113.703 198.175 113.719 198.534 113.739C198.723 113.751 198.815 113.667 198.819 113.481C198.827 113.138 198.827 112.803 198.84 112.464C198.848 112.275 198.372 111.879 197.398 111.318C196.42 110.753 195.783 110.334 195.502 110.035Z" fill="black"/>
</g>
<defs>
<linearGradient id="paint0_linear_668_2047" x1="174.404" y1="2.93249" x2="142.811" y2="173.431" gradientUnits="userSpaceOnUse">
<stop stop-color="#7B4192"/>
<stop offset="0.1086" stop-color="#784192"/>
<stop offset="1" stop-color="#664394"/>
</linearGradient>
<clipPath id="clip0_668_2047">
<rect width="313" height="174" fill="white"/>
</clipPath>
</defs>
</svg>
