<svg width="314" height="92" viewBox="0 0 314 92" fill="none" xmlns="http://www.w3.org/2000/svg">
<g clip-path="url(#clip0_3013_2371)">
<g filter="url(#filter0_d_3013_2371)">
<path d="M44.5102 52.72C44.5102 54.4267 44.0435 55.8133 43.1102 56.88C42.2035 57.9467 40.9768 58.7333 39.4302 59.24C37.8835 59.7467 36.1768 60 34.3102 60H20.3502V31.6H36.8302C38.1635 31.6 39.3102 31.96 40.2702 32.68C41.2568 33.3733 42.0035 34.28 42.5102 35.4C43.0435 36.52 43.3102 37.68 43.3102 38.88C43.3102 40.1867 42.9635 41.4533 42.2702 42.68C41.6035 43.9067 40.5902 44.8267 39.2302 45.44C40.8568 45.92 42.1368 46.76 43.0702 47.96C44.0302 49.16 44.5102 50.7467 44.5102 52.72ZM36.5902 51.12C36.5902 50.64 36.4968 50.2267 36.3102 49.88C36.1502 49.5067 35.9235 49.2133 35.6302 49C35.3368 48.7867 34.9902 48.68 34.5902 48.68H28.1502V53.44H34.3102C34.7368 53.44 35.1235 53.3467 35.4702 53.16C35.8168 52.9733 36.0835 52.7067 36.2702 52.36C36.4835 52.0133 36.5902 51.6 36.5902 51.12ZM28.1502 38.24V42.6H33.4702C33.8168 42.6 34.1502 42.5467 34.4702 42.44C34.7902 42.3067 35.0568 42.08 35.2702 41.76C35.4835 41.44 35.5902 40.9867 35.5902 40.4C35.5902 39.8667 35.4968 39.4533 35.3102 39.16C35.1502 38.84 34.9235 38.6133 34.6302 38.48C34.3635 38.32 34.0568 38.24 33.7102 38.24H28.1502ZM57.8073 60.4C55.9407 60.4 54.2873 60.1067 52.8473 59.52C51.4073 58.9333 50.194 58.1333 49.2073 57.12C48.2473 56.08 47.514 54.9067 47.0073 53.6C46.5273 52.2933 46.2873 50.92 46.2873 49.48C46.2873 48.04 46.5273 46.6667 47.0073 45.36C47.514 44.0267 48.2473 42.8533 49.2073 41.84C50.194 40.8267 51.4073 40.0267 52.8473 39.44C54.2873 38.8533 55.9407 38.56 57.8073 38.56C59.7007 38.56 61.354 38.8533 62.7673 39.44C64.2073 40.0267 65.4073 40.8267 66.3673 41.84C67.354 42.8533 68.0873 44.0267 68.5673 45.36C69.074 46.6667 69.3273 48.04 69.3273 49.48C69.3273 50.92 69.074 52.2933 68.5673 53.6C68.0873 54.9067 67.354 56.08 66.3673 57.12C65.4073 58.1333 64.2073 58.9333 62.7673 59.52C61.354 60.1067 59.7007 60.4 57.8073 60.4ZM54.0873 49.48C54.0873 50.4133 54.2473 51.2267 54.5673 51.92C54.8873 52.5867 55.3273 53.1067 55.8873 53.48C56.4473 53.8267 57.0873 54 57.8073 54C58.5273 54 59.1673 53.8267 59.7273 53.48C60.2873 53.1067 60.7273 52.5867 61.0473 51.92C61.3673 51.2267 61.5273 50.4133 61.5273 49.48C61.5273 48.5467 61.3673 47.7467 61.0473 47.08C60.7273 46.3867 60.2873 45.8667 59.7273 45.52C59.1673 45.1467 58.5273 44.96 57.8073 44.96C57.0873 44.96 56.4473 45.1467 55.8873 45.52C55.3273 45.8667 54.8873 46.3867 54.5673 47.08C54.2473 47.7467 54.0873 48.5467 54.0873 49.48ZM86.2977 45.44C84.831 45.44 83.4977 45.6 82.2977 45.92C81.0977 46.24 80.2043 46.7733 79.6177 47.52V60H72.0177V38.96H78.9777V42.96C79.7243 41.5467 80.6577 40.4667 81.7777 39.72C82.8977 38.9467 84.0843 38.56 85.3377 38.56C85.631 38.56 85.831 38.56 85.9377 38.56C86.071 38.56 86.191 38.5733 86.2977 38.6V45.44ZM87.5383 49.44C87.5383 47.36 87.9249 45.5067 88.6983 43.88C89.4983 42.2267 90.5916 40.9333 91.9783 40C93.3649 39.04 94.9516 38.56 96.7383 38.56C98.0983 38.56 99.3516 38.88 100.498 39.52C101.645 40.1333 102.512 40.9867 103.098 42.08V30.8H110.698V51.6C110.698 52.32 110.805 52.8267 111.018 53.12C111.232 53.3867 111.605 53.5467 112.138 53.6V60C110.832 60.2667 109.765 60.4 108.938 60.4C107.658 60.4 106.645 60.16 105.898 59.68C105.152 59.2 104.672 58.4667 104.458 57.48L104.298 56.72C103.578 58 102.605 58.9333 101.378 59.52C100.152 60.1067 98.8449 60.4 97.4583 60.4C96.0183 60.4 94.6849 60.1333 93.4583 59.6C92.2583 59.0667 91.2049 58.32 90.2983 57.36C89.4183 56.3733 88.7383 55.2133 88.2583 53.88C87.7783 52.52 87.5383 51.04 87.5383 49.44ZM103.138 51.84V48.08C102.898 47.4667 102.565 46.9333 102.138 46.48C101.738 46 101.285 45.6267 100.778 45.36C100.272 45.0933 99.7516 44.96 99.2183 44.96C98.6583 44.96 98.1383 45.08 97.6583 45.32C97.2049 45.56 96.8049 45.8933 96.4583 46.32C96.1116 46.7467 95.8449 47.24 95.6583 47.8C95.4716 48.36 95.3783 48.96 95.3783 49.6C95.3783 50.2667 95.4716 50.8667 95.6583 51.4C95.8716 51.9333 96.1649 52.4 96.5383 52.8C96.9116 53.1733 97.3516 53.4667 97.8583 53.68C98.3649 53.8933 98.9249 54 99.5383 54C99.9116 54 100.258 53.96 100.578 53.88C100.898 53.7733 101.205 53.64 101.498 53.48C101.792 53.2933 102.072 53.0667 102.338 52.8C102.632 52.5067 102.898 52.1867 103.138 51.84ZM125.62 60.4C123.78 60.4 122.14 60.12 120.7 59.56C119.26 58.9733 118.047 58.1867 117.06 57.2C116.1 56.2133 115.367 55.08 114.86 53.8C114.353 52.52 114.1 51.1733 114.1 49.76C114.1 47.7333 114.54 45.88 115.42 44.2C116.3 42.4933 117.593 41.1333 119.3 40.12C121.007 39.08 123.113 38.56 125.62 38.56C128.127 38.56 130.233 39.0667 131.94 40.08C133.647 41.0933 134.94 42.4267 135.82 44.08C136.7 45.7333 137.14 47.5333 137.14 49.48C137.14 49.88 137.113 50.2933 137.06 50.72C137.033 51.12 136.993 51.48 136.94 51.8H122.18C122.233 52.5467 122.433 53.16 122.78 53.64C123.153 54.0933 123.607 54.4267 124.14 54.64C124.7 54.8533 125.273 54.96 125.86 54.96C126.687 54.96 127.46 54.7733 128.18 54.4C128.927 54.0267 129.42 53.5067 129.66 52.84L136.1 54.68C135.54 55.8 134.753 56.7867 133.74 57.64C132.753 58.4933 131.58 59.1733 130.22 59.68C128.86 60.16 127.327 60.4 125.62 60.4ZM122.02 47.24H128.98C128.9 46.5467 128.7 45.96 128.38 45.48C128.087 45 127.687 44.6267 127.18 44.36C126.7 44.0933 126.14 43.96 125.5 43.96C124.86 43.96 124.287 44.0933 123.78 44.36C123.3 44.6267 122.9 45 122.58 45.48C122.287 45.96 122.1 46.5467 122.02 47.24ZM153.915 45.44C152.448 45.44 151.115 45.6 149.915 45.92C148.715 46.24 147.822 46.7733 147.235 47.52V60H139.635V38.96H146.595V42.96C147.342 41.5467 148.275 40.4667 149.395 39.72C150.515 38.9467 151.702 38.56 152.955 38.56C153.248 38.56 153.448 38.56 153.555 38.56C153.688 38.56 153.808 38.5733 153.915 38.6V45.44Z" fill="#F7AA0F"/>
<path d="M189.12 52.72C189.12 54.4267 188.653 55.8133 187.72 56.88C186.813 57.9467 185.586 58.7333 184.04 59.24C182.493 59.7467 180.786 60 178.92 60H164.96V31.6H181.44C182.773 31.6 183.92 31.96 184.88 32.68C185.866 33.3733 186.613 34.28 187.12 35.4C187.653 36.52 187.92 37.68 187.92 38.88C187.92 40.1867 187.573 41.4533 186.88 42.68C186.213 43.9067 185.2 44.8267 183.84 45.44C185.466 45.92 186.746 46.76 187.68 47.96C188.64 49.16 189.12 50.7467 189.12 52.72ZM181.2 51.12C181.2 50.64 181.106 50.2267 180.92 49.88C180.76 49.5067 180.533 49.2133 180.24 49C179.946 48.7867 179.6 48.68 179.2 48.68H172.76V53.44H178.92C179.346 53.44 179.733 53.3467 180.08 53.16C180.426 52.9733 180.693 52.7067 180.88 52.36C181.093 52.0133 181.2 51.6 181.2 51.12ZM172.76 38.24V42.6H178.08C178.426 42.6 178.76 42.5467 179.08 42.44C179.4 42.3067 179.666 42.08 179.88 41.76C180.093 41.44 180.2 40.9867 180.2 40.4C180.2 39.8667 180.106 39.4533 179.92 39.16C179.76 38.84 179.533 38.6133 179.24 38.48C178.973 38.32 178.666 38.24 178.32 38.24H172.76ZM191.661 52.8V38.96H199.261V51.08C199.261 51.9867 199.461 52.7067 199.861 53.24C200.288 53.7467 200.861 54 201.581 54C201.981 54 202.381 53.9467 202.781 53.84C203.181 53.7333 203.581 53.52 203.981 53.2C204.408 52.88 204.821 52.4267 205.221 51.84V38.96H212.821V51.6C212.821 52.32 212.928 52.8267 213.141 53.12C213.355 53.3867 213.728 53.5467 214.261 53.6V60C213.595 60.1333 212.995 60.2267 212.461 60.28C211.928 60.36 211.461 60.4 211.061 60.4C209.781 60.4 208.768 60.16 208.021 59.68C207.275 59.2 206.795 58.4667 206.581 57.48L206.421 56.72C205.435 58.0267 204.248 58.9733 202.861 59.56C201.501 60.12 199.955 60.4 198.221 60.4C196.115 60.4 194.488 59.7467 193.341 58.44C192.221 57.1333 191.661 55.2533 191.661 52.8ZM216.249 49.44C216.249 47.36 216.636 45.5067 217.409 43.88C218.209 42.2267 219.303 40.9333 220.689 40C222.076 39.04 223.663 38.56 225.449 38.56C226.809 38.56 228.063 38.88 229.209 39.52C230.356 40.1333 231.223 40.9867 231.809 42.08V30.8H239.409V51.6C239.409 52.32 239.516 52.8267 239.729 53.12C239.943 53.3867 240.316 53.5467 240.849 53.6V60C239.543 60.2667 238.476 60.4 237.649 60.4C236.369 60.4 235.356 60.16 234.609 59.68C233.863 59.2 233.383 58.4667 233.169 57.48L233.009 56.72C232.289 58 231.316 58.9333 230.089 59.52C228.863 60.1067 227.556 60.4 226.169 60.4C224.729 60.4 223.396 60.1333 222.169 59.6C220.969 59.0667 219.916 58.32 219.009 57.36C218.129 56.3733 217.449 55.2133 216.969 53.88C216.489 52.52 216.249 51.04 216.249 49.44ZM231.849 51.84V48.08C231.609 47.4667 231.276 46.9333 230.849 46.48C230.449 46 229.996 45.6267 229.489 45.36C228.983 45.0933 228.463 44.96 227.929 44.96C227.369 44.96 226.849 45.08 226.369 45.32C225.916 45.56 225.516 45.8933 225.169 46.32C224.823 46.7467 224.556 47.24 224.369 47.8C224.183 48.36 224.089 48.96 224.089 49.6C224.089 50.2667 224.183 50.8667 224.369 51.4C224.583 51.9333 224.876 52.4 225.249 52.8C225.623 53.1733 226.063 53.4667 226.569 53.68C227.076 53.8933 227.636 54 228.249 54C228.623 54 228.969 53.96 229.289 53.88C229.609 53.7733 229.916 53.64 230.209 53.48C230.503 53.2933 230.783 53.0667 231.049 52.8C231.343 52.5067 231.609 52.1867 231.849 51.84ZM252.411 60.4C250.571 60.4 248.757 60.1067 246.971 59.52C245.211 58.9067 243.717 58.0267 242.491 56.88L245.091 52.2C246.397 53.0533 247.651 53.72 248.851 54.2C250.077 54.68 251.184 54.92 252.171 54.92C252.731 54.92 253.144 54.8533 253.411 54.72C253.677 54.56 253.811 54.3067 253.811 53.96C253.811 53.72 253.717 53.52 253.531 53.36C253.344 53.2 253.037 53.04 252.611 52.88C252.211 52.72 251.691 52.5467 251.051 52.36C249.397 51.7733 248.011 51.2267 246.891 50.72C245.797 50.2133 244.971 49.6 244.411 48.88C243.877 48.1333 243.611 47.1467 243.611 45.92C243.611 44.48 243.971 43.2133 244.691 42.12C245.411 41 246.437 40.12 247.771 39.48C249.131 38.84 250.757 38.52 252.651 38.52C254.064 38.52 255.477 38.7467 256.891 39.2C258.331 39.6267 259.717 40.4133 261.051 41.56L258.171 46.2C256.837 45.3733 255.704 44.7867 254.771 44.44C253.864 44.0933 253.051 43.92 252.331 43.92C251.984 43.92 251.677 43.96 251.411 44.04C251.171 44.12 250.984 44.24 250.851 44.4C250.717 44.56 250.651 44.7733 250.651 45.04C250.651 45.3067 250.744 45.5333 250.931 45.72C251.117 45.88 251.411 46.04 251.811 46.2C252.211 46.3333 252.717 46.4933 253.331 46.68C255.144 47.2133 256.624 47.76 257.771 48.32C258.917 48.8533 259.757 49.5067 260.291 50.28C260.851 51.0533 261.131 52.0667 261.131 53.32C261.131 55.5333 260.344 57.2667 258.771 58.52C257.224 59.7733 255.104 60.4 252.411 60.4Z" fill="#FFE210"/>
</g>
</g>
<defs>
<filter id="filter0_d_3013_2371" x="20.3501" y="30.8" width="244.781" height="33.5999" filterUnits="userSpaceOnUse" color-interpolation-filters="sRGB">
<feFlood flood-opacity="0" result="BackgroundImageFix"/>
<feColorMatrix in="SourceAlpha" type="matrix" values="0 0 0 0 0 0 0 0 0 0 0 0 0 0 0 0 0 0 127 0" result="hardAlpha"/>
<feOffset dx="4" dy="4"/>
<feComposite in2="hardAlpha" operator="out"/>
<feColorMatrix type="matrix" values="0 0 0 0 0 0 0 0 0 0 0 0 0 0 0 0 0 0 1 0"/>
<feBlend mode="normal" in2="BackgroundImageFix" result="effect1_dropShadow_3013_2371"/>
<feBlend mode="normal" in="SourceGraphic" in2="effect1_dropShadow_3013_2371" result="shape"/>
</filter>
<clipPath id="clip0_3013_2371">
<rect width="314" height="92" fill="white"/>
</clipPath>
</defs>
</svg>
