<svg id="b8170621-b117-46e8-9eeb-a0b2926d8819" data-name="Layer 1" xmlns="http://www.w3.org/2000/svg" xmlns:xlink="http://www.w3.org/1999/xlink" viewBox="0 0 1000 86.12"><defs><mask id="e7c03f1d-8b7c-4968-b19a-0c092849311b" x="903.36" y="3.06" width="91.64" height="80.01" maskUnits="userSpaceOnUse"><g id="eb2899a4-3fb8-456e-9ff9-758e0b60c874" data-name="mask-2"><polygon id="a26df0ff-815a-4b3f-9c6d-d4d8f30eeeeb" data-name="path-1" points="903.36 3.06 995 3.06 995 83.07 903.36 83.07 903.36 3.06" style="fill:#fff;fill-rule:evenodd"/></g></mask></defs><g id="b173aa6f-ebe5-4186-a332-c69421571594" data-name="Homepage"><g id="beb2d550-e212-4301-8b1d-8c5c20fe2e44" data-name="01_CC_Homepage"><g id="b560b244-c024-455e-9bcd-2f6e6623c5d5" data-name="Cloud-Cover-Logo-(White)"><path id="f089f768-dfa1-4a42-a806-a1a147769ac4" data-name="Fill-1" d="M53.19,85.69C24.75,85.69,5,70.37,5,43.06S24.75.43,54.15.43C74,.43,89.67,9.68,96.22,21.57l-21.68,12c-4.61-7.65-11.7-11.31-20.71-11.31-13.31,0-22.32,7.54-22.32,20.8s9,20.8,22.32,20.8c9,0,16.2-3.43,21.14-11.54L96.54,64.43C89.78,76.54,74,85.69,53.19,85.69" style="fill:#fff;fill-rule:evenodd"/><path id="eb784de2-a649-4211-b1bc-dad06b10f429" data-name="Fill-3" d="M318.86,43.17V3.06H292.68V45.35c0,24.68,16.2,40.34,45,40.34S382.5,70,382.5,45.35V3.06H356.31V43.17c0,11.89-5.79,20.46-18.67,20.46s-18.78-8.57-18.78-20.46" style="fill:#fff;fill-rule:evenodd"/><polygon id="e461ccdb-89d4-468e-aaef-98c1226f8db5" data-name="Fill-5" points="180 83.06 180 61.69 131.82 61.69 131.82 3.06 105.63 3.06 105.63 83.06 180 83.06" style="fill:#fff;fill-rule:evenodd"/><polygon id="bf10e9e0-3144-46f5-bea0-3caa2eff9c90" data-name="Fill-7" points="703.6 3.08 739.32 83.05 766.69 83.05 802.41 3.08 774.72 3.08 753.15 56.91 731.59 3.08 703.6 3.08" style="fill:#fff;fill-rule:evenodd"/><polygon id="a331333b-3c0f-4da4-914b-c179e7c0de29" data-name="Fill-9" points="891.47 83.06 891.47 62.95 834.59 62.95 834.59 51.86 879.98 51.86 879.98 33.35 834.59 33.35 834.59 23.17 890.28 23.17 890.28 3.06 808.94 3.06 808.94 83.06 891.47 83.06" style="fill:#fff;fill-rule:evenodd"/><g id="ab140908-8142-43d3-baf6-f5bd6bacc377" data-name="Group-13"><g style="mask:url(#e7c03f1d-8b7c-4968-b19a-0c092849311b)"><path id="e82f1cf9-fefa-40eb-98e5-bc7c6905c2fe" data-name="Fill-11" d="M954.54,40.89c6.76,0,11.59-2.06,11.59-8.91s-4.83-8.92-11.59-8.92H929.32V40.89ZM903.36,83.07v-80h53.33c20.07,0,35.95,9.14,35.95,28.23,0,13.14-7.52,21.6-18.78,25.6L995,83.07H965.16L946.92,59.52h-17.6V83.07Z" style="fill:#fff;fill-rule:evenodd"/></g></g><path id="b903206e-4862-4c7b-aecc-f696d044d5a0" data-name="Fill-14" d="M602.32,64.44,580.75,52.32c-4.94,8.11-12.13,11.54-21.14,11.54-13.31,0-22.32-7.54-22.32-20.79s9-20.81,22.32-20.81c9,0,16.1,3.66,20.71,11.31l21.68-12C595.45,9.69,579.78.43,559.93.43c-29.4,0-49.15,15.32-49.15,42.64S530.53,85.69,559,85.69c20.82,0,36.6-9.14,43.36-21.25" style="fill:#fff;fill-rule:evenodd"/><path id="b642f72c-d207-451e-b195-87932b947a37" data-name="Fill-16" d="M438.27,61.8c14.38,0,23.29-6.62,23.29-18.74s-8.91-18.75-23.29-18.75H422.82V61.8ZM396.64,83.06v-80h43.78c29.19,0,47.86,14.64,47.86,40s-18.67,40-47.86,40Z" style="fill:#fff;fill-rule:evenodd"/><path id="add6d1e4-c6cd-47fb-ac18-93ccd90aba1c" data-name="Fill-18" d="M247.06,67.09c8.22-5.31,8.75-20.37,1.19-33.64S227.9,13.72,219.68,19s-8.74,20.38-1.18,33.65,20.35,19.72,28.56,14.41m-13.73,18.6c-30.05,0-50-15.34-50-42.62S203.28.43,233.33.43s50.09,15.3,50.09,42.64-19.95,42.62-50.09,42.62" style="fill:#fff;fill-rule:evenodd"/><path id="add2fe31-3c0a-4a28-8766-50eea90941c8" data-name="Fill-20" d="M670.55,67.09c8.22-5.31,8.75-20.37,1.19-33.64S651.39,13.72,643.17,19,634.43,39.41,642,52.68s20.35,19.72,28.56,14.41m-13.73,18.6c-30.05,0-50-15.34-50-42.62S626.77.43,656.82.43s50.09,15.3,50.09,42.64-20,42.62-50.09,42.62" style="fill:#fff;fill-rule:evenodd"/></g></g></g></svg>