<?xml version="1.0" encoding="UTF-8"?>
<svg id="Layer_2" data-name="Layer 2" xmlns="http://www.w3.org/2000/svg" viewBox="0 0 299.41 65.5">
  <defs>
    <style>
      .cls-1 {
        fill: #000;
        stroke-width: 0px;
      }
    </style>
  </defs>
  <g id="Layer_1-2" data-name="Layer 1">
    <g>
      <path class="cls-1" d="M71.53,40.26c-.19-2.23-.88-4.35-1.92-6.38-1.79-3.5-2.45-7.18-2.04-11.02.35-3.22,1.46-6.2,3.31-8.95.22-.33.45-.65.67-.95-4.72-4.33-9.42-8.63-14.14-12.96-.05.04-.11.07-.17.11-2.69,2-5.75,3.17-9.21,3.42-4.45.32-8.43-.8-11.92-3.35-.24-.17-.37-.18-.61,0-2.56,1.89-5.47,3.02-8.74,3.32-4.36.4-8.33-.6-11.86-3-.25-.17-.48-.34-.69-.49C9.49,4.34,4.79,8.65.07,12.98c.18.26.39.54.58.83.2.29.39.58.57.87,2.41,3.97,3.32,8.21,2.79,12.72-.28,2.35-1.02,4.57-2.11,6.71-1.68,3.28-2.27,6.73-1.68,10.32.77,4.73,3.22,8.6,7.29,11.58,3.18,2.33,6.83,3.61,10.89,3.84,1.37.08,2.74.03,4.11.06.83.02,1.67.03,2.5.13,4.27.53,7.81,2.32,10.62,5.31.06.06.09.14.1.15.86-.75,1.63-1.49,2.48-2.14,2.7-2.03,5.82-3.19,9.31-3.4,1.42-.08,2.84-.02,4.26-.07.98-.03,1.96-.05,2.92-.19,5.12-.71,9.34-2.91,12.57-6.61,3.27-3.75,4.65-8.06,4.24-12.84ZM35.54,45.08c-1.94,2.05-4.44,3.21-7.35,3.62-2.24.32-4.47.23-6.61-.51-3.96-1.37-6.54-3.94-7.82-7.63-.08-.22-.14-.45-.2-.68,0-.03,0-.05,0-.1,1.89-.5,3.78-1,5.7-1.51.1.3.19.59.3.87.81,2.06,2.26,3.52,4.65,4.04,2.16.46,4.24.27,6.06-.98,1.93-1.33,2.66-3.18,2.49-5.35-.08-1.03-.42-2-1.09-2.85-.71-.9-1.65-1.45-2.9-1.5-.82-.03-1.64-.1-2.49-.15v-5.29c.41,0,.81.02,1.2,0,.47-.02.95-.03,1.41-.13,1.39-.29,2.23-1.23,2.42-2.55.46-3.14-2.35-5.23-5.12-5.25-2.53-.02-4.33,1.06-5.56,3.03-.06.09-.11.18-.17.27,0,0-.02.01-.06.04-1.79-.61-3.61-1.24-5.45-1.86.47-1.07,1.06-2.05,1.83-2.93,1.89-2.15,4.31-3.47,7.29-3.91,6.1-.91,11.98,2.98,12.98,8.59.45,2.52-.07,4.84-1.7,6.93-.08.11-.16.22-.22.3.29.28.55.55.83.82,1.24,1.18,2.18,2.53,2.45,4.17.64,3.87-.02,7.47-2.9,10.51ZM55.43,48.24h-5.96v-27.53h-3.35v-4.29c.39-.04.8-.05,1.18-.11,1.35-.23,2.44-.87,3.29-1.86.08-.09.22-.19.33-.19,1.46-.01,2.93,0,4.39,0,.03,0,.06,0,.12.02v33.96Z"/>
      <g>
        <path class="cls-1" d="M80.67,31.2c0-2.3.27-4.45.81-6.44s1.32-3.79,2.34-5.39c1.02-1.6,2.26-2.96,3.72-4.1,1.46-1.13,3.1-2,4.93-2.61,1.83-.61,3.83-.92,5.98-.92,3.09,0,5.77.5,8.03,1.51,2.26,1.01,4.11,2.46,5.55,4.37,1.44,1.91,2.48,4.22,3.13,6.95l-5.34,1.02c-.43-1.98-1.12-3.67-2.08-5.09-.95-1.42-2.19-2.51-3.72-3.26-1.53-.75-3.39-1.13-5.58-1.13-1.55,0-2.97.22-4.28.67-1.31.45-2.47,1.1-3.48,1.97-1.01.86-1.85,1.91-2.53,3.15-.68,1.24-1.2,2.64-1.56,4.2-.36,1.56-.54,3.26-.54,5.09s.18,3.53.54,5.09c.36,1.56.88,2.96,1.56,4.18.68,1.22,1.53,2.26,2.53,3.13,1.01.86,2.16,1.52,3.45,1.97,1.29.45,2.73.67,4.31.67,2.19,0,4.09-.39,5.69-1.16,1.6-.77,2.89-1.89,3.88-3.37.99-1.47,1.64-3.25,1.97-5.34l5.23,1.02c-.47,2.8-1.44,5.18-2.91,7.14-1.47,1.96-3.38,3.45-5.71,4.47-2.34,1.02-5.05,1.54-8.14,1.54-1.87,0-3.61-.21-5.23-.62-1.62-.41-3.09-1.02-4.42-1.83-1.33-.81-2.5-1.78-3.5-2.91-1.01-1.13-1.85-2.42-2.53-3.85-.68-1.44-1.2-3.01-1.56-4.72-.36-1.71-.54-3.51-.54-5.42Z"/>
        <path class="cls-1" d="M117.43,29.47c.25-1.54.73-2.9,1.43-4.07.7-1.17,1.58-2.14,2.64-2.91,1.06-.77,2.3-1.36,3.72-1.75,1.42-.39,2.99-.59,4.72-.59,1.83,0,3.48.22,4.96.65,1.47.43,2.71,1.1,3.72,1.99,1.01.9,1.78,2.04,2.32,3.42.54,1.38.81,3.05.81,4.99v13.04c0,.58.08,1.04.24,1.4.16.36.4.62.73.78.32.16.7.24,1.13.24.14,0,.3,0,.49-.03.18-.02.3-.03.38-.03l-.16,3.45c-.29.11-.64.19-1.05.24-.41.05-.76.08-1.05.08-1.19,0-2.17-.19-2.94-.57-.77-.38-1.35-.95-1.72-1.72-.38-.77-.57-1.73-.57-2.88v-.38c-.22.36-.45.7-.7,1.02-.79,1.01-1.7,1.86-2.72,2.56-1.02.7-2.16,1.23-3.4,1.59s-2.58.54-4.02.54c-2.05,0-3.82-.34-5.31-1.02-1.49-.68-2.64-1.66-3.45-2.94-.81-1.27-1.21-2.78-1.21-4.5s.4-3.27,1.19-4.53c.79-1.26,1.97-2.25,3.53-2.99,1.56-.74,3.53-1.21,5.9-1.43l10.13-.97v-.65c0-1.37-.17-2.51-.51-3.45-.34-.93-.83-1.7-1.46-2.29-.63-.59-1.39-1.02-2.29-1.29-.9-.27-1.92-.4-3.07-.4-1.44,0-2.72.22-3.85.67-1.13.45-2.03,1.11-2.69,1.99-.67.88-1.07,2-1.21,3.37l-4.64-.65ZM137.21,35.83l-9.38.92c-1.51.14-2.76.43-3.75.86-.99.43-1.73,1-2.24,1.7-.5.7-.75,1.54-.75,2.51s.22,1.87.67,2.59c.45.72,1.12,1.27,2.02,1.64.9.38,1.98.57,3.23.57,1.15,0,2.24-.15,3.26-.46,1.02-.3,1.96-.73,2.8-1.27.84-.54,1.57-1.18,2.18-1.91.61-.74,1.09-1.56,1.43-2.48.34-.92.51-1.88.51-2.88v-1.78Z"/>
        <path class="cls-1" d="M147.07,50.01v-29.32h4.37l.38,5.39c.72-1.26,1.61-2.33,2.67-3.21,1.06-.88,2.26-1.55,3.61-2.02,1.35-.47,2.78-.7,4.28-.7,2.16,0,4.02.46,5.61,1.37,1.58.92,2.79,2.18,3.64,3.8.84,1.62,1.27,3.5,1.27,5.66v19.03h-4.96v-17.95c0-1.47-.28-2.78-.84-3.91-.56-1.13-1.36-2.02-2.4-2.67-1.04-.65-2.34-.97-3.88-.97-1.26,0-2.42.22-3.48.65-1.06.43-1.99,1.06-2.78,1.89-.79.83-1.41,1.81-1.86,2.96-.45,1.15-.67,2.43-.67,3.83v16.17h-4.96Z"/>
        <path class="cls-1" d="M176.39,50.01v-29.32h4.37l.38,5.39c.72-1.26,1.61-2.33,2.67-3.21,1.06-.88,2.26-1.55,3.61-2.02,1.35-.47,2.78-.7,4.28-.7,2.16,0,4.02.46,5.61,1.37,1.58.92,2.79,2.18,3.64,3.8.84,1.62,1.27,3.5,1.27,5.66v19.03h-4.96v-17.95c0-1.47-.28-2.78-.84-3.91-.56-1.13-1.36-2.02-2.4-2.67-1.04-.65-2.34-.97-3.88-.97-1.26,0-2.42.22-3.48.65-1.06.43-1.99,1.06-2.78,1.89-.79.83-1.41,1.81-1.86,2.96-.45,1.15-.67,2.43-.67,3.83v16.17h-4.96Z"/>
        <path class="cls-1" d="M205.6,29.47c.25-1.54.73-2.9,1.43-4.07.7-1.17,1.58-2.14,2.64-2.91,1.06-.77,2.3-1.36,3.72-1.75,1.42-.39,2.99-.59,4.72-.59,1.83,0,3.48.22,4.96.65,1.47.43,2.71,1.1,3.72,1.99,1.01.9,1.78,2.04,2.32,3.42.54,1.38.81,3.05.81,4.99v13.04c0,.58.08,1.04.24,1.4.16.36.4.62.73.78.32.16.7.24,1.13.24.14,0,.3,0,.49-.03.18-.02.3-.03.38-.03l-.16,3.45c-.29.11-.64.19-1.05.24-.41.05-.76.08-1.05.08-1.19,0-2.17-.19-2.94-.57-.77-.38-1.35-.95-1.72-1.72-.38-.77-.57-1.73-.57-2.88v-.38c-.22.36-.45.7-.7,1.02-.79,1.01-1.7,1.86-2.72,2.56-1.02.7-2.16,1.23-3.4,1.59s-2.58.54-4.02.54c-2.05,0-3.82-.34-5.31-1.02-1.49-.68-2.64-1.66-3.45-2.94-.81-1.27-1.21-2.78-1.21-4.5s.4-3.27,1.19-4.53c.79-1.26,1.97-2.25,3.53-2.99,1.56-.74,3.53-1.21,5.9-1.43l10.13-.97v-.65c0-1.37-.17-2.51-.51-3.45-.34-.93-.83-1.7-1.46-2.29-.63-.59-1.39-1.02-2.29-1.29-.9-.27-1.92-.4-3.07-.4-1.44,0-2.72.22-3.85.67-1.13.45-2.03,1.11-2.69,1.99-.67.88-1.07,2-1.21,3.37l-4.64-.65ZM225.38,35.83l-9.38.92c-1.51.14-2.76.43-3.75.86-.99.43-1.73,1-2.24,1.7-.5.7-.75,1.54-.75,2.51s.22,1.87.67,2.59c.45.72,1.12,1.27,2.02,1.64.9.38,1.98.57,3.23.57,1.15,0,2.24-.15,3.26-.46,1.02-.3,1.96-.73,2.8-1.27.84-.54,1.57-1.18,2.18-1.91.61-.74,1.09-1.56,1.43-2.48.34-.92.51-1.88.51-2.88v-1.78Z"/>
        <path class="cls-1" d="M239.61,50.01h-4.37V9.59h4.96v16.39c.29-.47.63-.93,1.02-1.4,1.11-1.37,2.47-2.44,4.07-3.23,1.6-.79,3.4-1.19,5.42-1.19,1.58,0,3.04.25,4.37.75,1.33.5,2.52,1.2,3.58,2.1,1.06.9,1.96,1.98,2.69,3.23.74,1.26,1.29,2.66,1.67,4.2.38,1.55.57,3.18.57,4.9s-.19,3.4-.57,4.93c-.38,1.53-.93,2.92-1.67,4.18-.74,1.26-1.64,2.34-2.69,3.26-1.06.92-2.26,1.62-3.58,2.1-1.33.49-2.79.73-4.37.73-2.01,0-3.82-.39-5.42-1.16-1.6-.77-2.96-1.86-4.07-3.26-.47-.54-.88-1.11-1.24-1.72l-.38,5.61ZM249.37,46.4c1.19,0,2.26-.18,3.23-.54.97-.36,1.81-.87,2.53-1.54.72-.66,1.33-1.46,1.83-2.37.5-.92.88-1.93,1.13-3.05.25-1.11.38-2.3.38-3.56s-.13-2.44-.38-3.56c-.25-1.11-.63-2.13-1.13-3.05-.5-.92-1.11-1.71-1.83-2.37-.72-.66-1.56-1.18-2.53-1.54-.97-.36-2.05-.54-3.23-.54-1.87,0-3.5.49-4.88,1.46-1.38.97-2.44,2.29-3.18,3.96-.74,1.67-1.1,3.57-1.1,5.69,0,1.55.21,2.99.62,4.34.41,1.35,1.02,2.52,1.83,3.5.81.99,1.78,1.76,2.91,2.32,1.13.56,2.4.84,3.8.84Z"/>
        <path class="cls-1" d="M266.4,16.16v-5.39h5.39v5.39h-5.39ZM266.61,50.01v-29.32h4.96v29.32h-4.96Z"/>
        <path class="cls-1" d="M286.58,24.08c-1.44,0-2.68.17-3.72.51-1.04.34-1.84.82-2.4,1.43-.56.61-.84,1.35-.84,2.21,0,.93.22,1.7.65,2.29.43.59,1.14,1.06,2.13,1.4.99.34,2.27.62,3.85.84l2.43.32c2.51.32,4.56.82,6.14,1.48,1.58.67,2.74,1.56,3.48,2.69.74,1.13,1.1,2.58,1.1,4.34s-.48,3.37-1.43,4.72c-.95,1.35-2.33,2.39-4.12,3.13-1.8.74-3.99,1.1-6.58,1.1-2.73,0-5.01-.35-6.85-1.05s-3.26-1.78-4.29-3.23c-1.02-1.46-1.72-3.28-2.08-5.47l4.58-.65c.29,2.23,1.15,3.86,2.59,4.9,1.44,1.04,3.41,1.56,5.93,1.56,1.26,0,2.34-.11,3.26-.32s1.68-.52,2.29-.92c.61-.4,1.07-.86,1.37-1.4.3-.54.46-1.15.46-1.83,0-1.01-.22-1.82-.67-2.45-.45-.63-1.17-1.13-2.16-1.51-.99-.38-2.33-.67-4.02-.89l-2.53-.32c-2.34-.32-4.26-.82-5.77-1.48-1.51-.66-2.63-1.55-3.37-2.67-.74-1.11-1.1-2.48-1.1-4.1,0-1.72.47-3.23,1.4-4.53.93-1.29,2.27-2.29,4.02-2.99,1.74-.7,3.82-1.05,6.23-1.05s4.52.34,6.23,1.02c1.71.68,3.06,1.71,4.07,3.07,1.01,1.37,1.63,3.09,1.89,5.17l-4.53.59c-.14-1.37-.52-2.48-1.13-3.34-.61-.86-1.46-1.51-2.53-1.94-1.08-.43-2.41-.65-3.99-.65Z"/>
      </g>
    </g>
  </g>
</svg>