<svg xmlns="http://www.w3.org/2000/svg" id="Layer_1" data-name="Layer 1" viewBox="0 0 393.9 370.8"><defs><style>      .cls-1, .cls-2 {        stroke-width: 0px;      }      .cls-1, .cls-3 {        fill: #221f20;      }      .cls-2 {        fill: #fff;      }      .cls-3 {        stroke: #fff;        stroke-miterlimit: 10;        stroke-width: 8.6px;      }    </style></defs><polygon class="cls-1" points="197.5 369.8 334.1 317.5 392.1 185.5 335 58.8 197.4 3 58.8 58.8 2 188.3 58.8 317.5 197.5 369.8"></polygon><polygon class="cls-3" points="197.4 362.4 328.9 312.1 384.3 185.4 329.8 63.8 197.5 10.3 66.1 63.8 11.9 188.3 66.1 312.1 197.4 362.4"></polygon><polygon class="cls-2" points="17.1 187.1 198.3 354 378.2 184.7 198.3 16.6 17.1 187.1"></polygon><path class="cls-1" d="M232.4,85.7v46.8h8.3v11.8h-30.9v-11.8h9.3v-35.5l-18.1,28.2h0l-18.2-28.3v35.6h9.4v11.8h-30.9v-11.8h8.3v-46.8h-8.3v-11.8h21.7l18,29,18-29h21.6v11.8h-8.3Z"></path><g><path class="cls-1" d="M162.6,238.3h-7.4v32.1h-14.4v-32.1h-32.5v-12.8l31.4-67.4h15.6v67.2h7.4v13ZM140.7,225.3v-38.6l-18.1,38.6h18.1Z"></path><path class="cls-1" d="M207.7,219.8c-12.8,16.3-17.7,24.4-18.6,37.3h33.6v13.2h-50.3v-6.3c0-20.3,9.4-34.5,18.8-46.5,4.6-6,9.3-11.6,12.8-17.2,3.5-5.5,5.7-10.9,5.7-17s-3.6-11.5-9.4-11.5c-8.4,0-10.7,8.3-10.4,14.4h-14.4c0-14.4,7.2-29.4,24.8-29.6,15.8-.1,24.3,11.8,24.3,25.9s-8.3,26.2-16.8,37.3Z"></path><path class="cls-1" d="M287.3,225c-.8,16-2.1,23.7-4.5,30-3.8,9.5-10.1,16.3-21.5,16.3s-17.8-6.7-21.6-16.3c-2.4-6.2-3.5-14-4.5-30-.1-3.2-.3-8-.3-10s.1-7.6.4-11.8c1-15.1,2.2-22.6,4.9-29.9,3.6-10,10.7-16.1,21-16.1s17.2,6.2,20.9,16.1c2.7,7.3,4.1,14.7,4.9,29.9.3,4.2.4,9.5.4,11.6s-.1,6.7-.3,10.1ZM272.9,209.4c-.6-10.7-.3-18.6-2.9-28.2-1.5-5.3-4.3-9.8-8.6-9.8s-7.2,4.5-8.6,9.8c-2.7,9.7-2.5,17.5-3.1,28.2-.1,2.2-.1,5.3-.1,6.4s.1,2.2.3,5.9c.4,9.4,1.3,21.3,3.6,28,1.7,4.5,3.5,7.6,7.9,7.6s6-3.1,7.7-7.6c2.5-6.7,3.2-18.6,3.6-28,.1-3.6.3-4.6.3-5.9s0-4.2-.1-6.4Z"></path></g></svg>