<?xml version="1.0" standalone="no"?>
<!DOCTYPE svg PUBLIC "-//W3C//DTD SVG 20010904//EN"
 "http://www.w3.org/TR/2001/REC-SVG-20010904/DTD/svg10.dtd">
<svg version="1.0" xmlns="http://www.w3.org/2000/svg"
 width="1000.000000pt" height="1000.000000pt" viewBox="0 0 1000.000000 1000.000000"
 preserveAspectRatio="xMidYMid meet">
<metadata>
Created by potrace 1.14, written by Peter Selinger 2001-2017
</metadata>
<g transform="translate(0.000000,1000.000000) scale(0.100000,-0.100000)"
fill="#000000" stroke="none">
<path d="M4975 8232 c-13 -9 -49 -95 -103 -252 -133 -379 -214 -675 -296
-1080 -20 -101 -31 -166 -61 -370 -2 -14 -7 -52 -10 -85 -4 -33 -8 -71 -10
-85 -4 -25 -15 -132 -20 -200 -28 -338 -24 -849 9 -1155 3 -27 8 -75 11 -105
3 -30 8 -66 10 -80 2 -14 7 -46 10 -72 7 -66 46 -301 50 -308 2 -3 6 -26 10
-50 3 -25 11 -63 17 -85 5 -22 12 -51 15 -65 14 -81 93 -373 136 -500 26 -80
19 -74 -38 26 -46 80 -148 253 -167 283 -10 14 -25 40 -34 56 -9 17 -69 109
-132 205 -471 715 -1008 1320 -1633 1842 -261 218 -665 505 -880 627 -53 29
-58 31 -73 15 -21 -20 -19 -36 34 -229 59 -212 172 -536 235 -670 61 -130 181
-371 210 -420 19 -33 38 -67 42 -75 12 -26 104 -171 166 -265 259 -387 615
-777 1006 -1100 217 -180 478 -363 746 -525 66 -40 111 -69 100 -65 -163 57
-461 153 -575 185 -80 22 -161 45 -180 50 -19 6 -66 17 -105 26 -38 9 -77 17
-85 19 -37 9 -208 45 -235 49 -16 3 -55 10 -85 16 -30 5 -73 12 -95 15 -22 3
-49 8 -61 10 -11 3 -43 7 -70 11 -27 3 -60 7 -74 9 -14 2 -54 7 -90 10 -36 4
-78 8 -94 10 -202 26 -647 25 -916 -1 -169 -16 -154 -44 130 -248 311 -222
653 -399 995 -514 91 -31 295 -87 350 -97 17 -2 41 -7 55 -10 75 -17 155 -29
255 -41 33 -3 69 -8 80 -11 11 -2 133 -6 270 -8 248 -3 351 2 564 30 44 6 39
2 -44 -30 -84 -32 -76 -28 -245 -108 -202 -95 -469 -254 -616 -367 -21 -16
-44 -33 -49 -37 -121 -91 -271 -227 -406 -369 -139 -147 -160 -182 -121 -203
34 -18 617 158 836 253 17 7 76 33 131 57 140 61 333 161 444 230 51 33 95 59
97 59 2 0 12 6 21 14 10 8 57 43 104 79 131 97 240 199 343 322 l59 70 -7
-360 c-4 -198 -8 -447 -9 -554 l-2 -194 26 -19 c42 -32 98 -34 139 -6 l35 24
-1 179 c-1 99 -5 349 -9 555 l-8 374 59 -69 c68 -81 177 -190 243 -243 25 -20
48 -40 51 -43 14 -16 168 -124 265 -184 142 -89 422 -228 603 -299 131 -52
451 -163 496 -172 10 -2 33 -8 51 -14 18 -6 41 -12 51 -15 10 -2 59 -15 109
-29 94 -25 125 -22 125 12 0 39 -231 283 -425 448 -142 121 -352 267 -526 367
-156 89 -436 222 -542 257 -54 17 -42 21 33 10 124 -18 256 -25 480 -25 220 0
317 6 480 30 499 74 987 263 1435 558 177 116 375 270 375 290 0 25 -19 41
-52 43 -18 2 -45 5 -60 8 -137 24 -706 26 -903 2 -16 -2 -61 -7 -100 -10 -87
-8 -135 -14 -205 -26 -30 -5 -77 -12 -105 -15 -27 -4 -57 -8 -65 -10 -8 -2
-29 -7 -45 -9 -28 -5 -198 -40 -250 -51 -11 -3 -30 -7 -41 -9 -12 -2 -71 -16
-130 -31 -60 -15 -113 -28 -119 -29 -11 -3 -46 -13 -200 -58 -79 -23 -393
-126 -500 -163 -11 -4 45 32 125 80 558 337 1033 740 1421 1205 57 69 116 141
131 160 75 98 98 131 98 140 0 6 4 10 8 10 4 0 16 15 27 33 10 17 21 34 25 37
12 11 131 201 205 330 166 289 299 593 409 935 33 102 106 375 106 395 0 5 -7
16 -16 25 -15 14 -21 13 -73 -16 -108 -61 -428 -277 -596 -404 -154 -116 -404
-319 -480 -391 -17 -16 -58 -53 -90 -83 -150 -134 -494 -484 -600 -609 -16
-20 -48 -56 -70 -82 -191 -217 -446 -554 -633 -835 -62 -93 -118 -178 -125
-188 -34 -50 -164 -267 -228 -379 -40 -71 -74 -127 -75 -125 -2 2 12 50 30
107 47 147 139 515 161 640 28 166 48 293 60 385 13 99 14 111 20 180 4 39 8
86 10 105 10 99 18 308 19 500 0 253 -9 472 -29 665 -3 33 -8 83 -11 110 -5
45 -20 163 -29 218 -2 12 -6 42 -9 67 -3 25 -8 56 -11 70 -3 14 -10 52 -16 85
-76 423 -195 854 -350 1271 -49 132 -61 154 -84 154 -5 0 -15 -4 -20 -8z"/>
</g>
</svg>
