<?xml version="1.0" standalone="no"?>
<!DOCTYPE svg PUBLIC "-//W3C//DTD SVG 20010904//EN"
 "http://www.w3.org/TR/2001/REC-SVG-20010904/DTD/svg10.dtd">
<svg version="1.0" xmlns="http://www.w3.org/2000/svg"
 width="1896.000000pt" height="1896.000000pt" viewBox="0 0 1896.000000 1896.000000"
 preserveAspectRatio="xMidYMid meet">
<metadata>
Created by potrace 1.11, written by Peter Selinger 2001-2013
</metadata>
<g transform="translate(0.000000,1896.000000) scale(0.100000,-0.100000)"
fill="#000000" stroke="none">
<path d="M11728 16255 c-2 -2 -52 -6 -113 -10 -60 -3 -123 -8 -140 -10 -16 -2
-66 -7 -110 -10 -44 -3 -91 -8 -105 -10 -14 -2 -50 -7 -81 -10 -31 -3 -65 -7
-75 -9 -11 -2 -41 -7 -69 -10 -27 -4 -57 -9 -65 -11 -8 -2 -35 -6 -60 -9 -47
-6 -89 -13 -130 -21 -14 -3 -38 -8 -55 -11 -95 -16 -384 -80 -431 -95 -17 -5
-40 -11 -50 -13 -11 -2 -39 -10 -64 -17 -25 -7 -49 -13 -55 -14 -44 -10 -311
-96 -562 -183 -24 -8 -43 -18 -43 -21 0 -4 19 -18 43 -31 135 -76 428 -284
557 -396 61 -53 298 -289 345 -344 39 -46 136 -167 155 -195 8 -12 29 -42 45
-65 17 -24 35 -50 40 -59 25 -40 59 -80 65 -76 7 4 285 50 360 60 25 3 61 7
80 10 19 3 62 7 95 11 33 3 74 8 90 10 17 2 68 6 115 9 47 3 99 8 115 10 192
25 912 25 1225 0 181 -14 262 -22 420 -41 339 -40 761 -120 1075 -204 66 -18
127 -34 135 -36 227 -53 788 -255 1125 -404 150 -66 513 -247 615 -305 36 -21
90 -51 120 -68 116 -65 293 -175 487 -303 192 -127 272 -189 165 -125 -27 16
-76 44 -108 62 -67 37 -428 218 -489 244 -22 10 -58 26 -80 35 -633 283 -1392
517 -2025 625 -113 19 -139 24 -165 29 -26 5 -99 15 -150 21 -22 3 -71 9 -110
15 -86 12 -165 21 -225 26 -240 20 -276 22 -440 29 -243 11 -670 6 -830 -10
-19 -2 -75 -6 -124 -10 -49 -4 -97 -8 -107 -10 -10 -2 -49 -7 -86 -10 -37 -4
-75 -8 -83 -10 -8 -3 -40 -7 -70 -10 -156 -16 -580 -98 -773 -148 -33 -9 -62
-18 -65 -21 -5 -6 24 -66 111 -226 136 -253 327 -519 562 -785 287 -324 719
-669 1130 -900 406 -228 922 -420 1320 -491 17 -3 62 -11 100 -19 39 -7 90
-16 115 -19 43 -6 60 -8 155 -20 218 -28 820 -29 961 -2 11 2 42 7 69 10 28 4
66 9 85 12 32 4 61 9 130 20 443 75 939 244 1370 467 103 53 323 177 385 217
13 8 45 28 72 44 75 46 297 202 406 285 55 42 110 83 123 91 49 31 49 32 -121
284 -58 87 -111 163 -116 170 -5 6 -46 61 -91 121 -75 101 -252 323 -295 370
-10 11 -33 38 -52 60 -108 127 -323 349 -487 505 -798 756 -1787 1330 -2844
1651 -283 86 -670 177 -915 214 -113 17 -309 45 -355 49 -122 13 -148 16 -220
22 -41 3 -100 8 -130 11 -59 5 -797 13 -802 8z"/>
<path d="M1386 15903 c-1 -1 -35 -3 -75 -4 -41 -1 -92 -6 -115 -10 -23 -4 -59
-10 -81 -13 -72 -11 -208 -57 -302 -102 -143 -68 -275 -163 -393 -283 -234
-236 -358 -491 -410 -841 -11 -75 -11 -10565 0 -10660 71 -600 415 -1020 986
-1204 61 -19 126 -38 144 -41 18 -3 36 -7 39 -9 3 -2 22 -7 41 -10 19 -3 46
-8 60 -11 14 -3 48 -8 75 -12 70 -9 5332 -8 5545 1 264 12 389 21 545 41 17 2
57 7 90 10 106 13 96 11 315 46 320 52 709 150 988 251 l84 31 -79 34 c-585
258 -1187 634 -1698 1063 -172 144 -274 238 -465 430 -182 183 -217 220 -334
360 -49 58 -90 107 -92 108 -1 2 -880 4 -1953 4 l-1951 0 0 107 c0 154 -1
3073 0 3221 l0 125 1389 0 1389 0 6 -40 c4 -22 9 -58 11 -79 3 -22 8 -53 11
-70 3 -17 14 -80 25 -141 23 -133 24 -140 37 -190 6 -22 13 -56 16 -75 16
-107 177 -652 236 -800 10 -25 35 -88 55 -140 41 -106 41 -105 121 -285 242
-543 610 -1124 993 -1569 171 -199 504 -539 651 -666 35 -30 68 -60 74 -65 6
-6 38 -33 71 -60 33 -28 66 -56 74 -63 93 -88 670 -502 700 -502 5 0 11 -4 13
-8 3 -8 242 -151 353 -212 102 -56 444 -228 467 -236 13 -4 50 -19 83 -34 107
-49 130 -59 296 -124 378 -147 880 -294 1169 -342 38 -7 42 -8 80 -17 14 -4
41 -9 60 -12 19 -2 62 -9 95 -15 75 -13 242 -37 315 -45 30 -4 66 -8 80 -10
31 -4 149 -16 210 -20 25 -2 92 -7 150 -12 58 -4 251 -7 430 -8 331 0 484 6
708 30 28 3 78 8 110 11 31 3 84 9 117 14 33 5 83 12 110 15 28 4 61 8 75 11
14 2 79 13 145 25 66 11 148 26 183 34 34 8 77 17 95 20 17 3 50 11 72 16 22
6 47 13 55 14 303 65 864 249 1160 382 30 13 87 38 125 56 113 50 455 223 551
278 198 113 218 125 429 264 1099 721 1984 1769 2489 2948 82 192 131 323 201
532 45 134 124 407 140 480 2 11 6 29 9 40 5 22 35 158 42 190 10 52 24 123
29 150 3 17 7 39 9 50 3 19 14 84 22 130 8 52 24 175 29 225 3 30 8 71 10 90
2 19 7 69 10 110 4 41 8 95 11 120 12 131 11 541 -2 625 -60 395 -257 688
-524 781 l-73 26 -2376 4 c-1307 2 -2468 6 -2581 10 -329 8 -492 7 -540 -5
-276 -71 -485 -339 -566 -726 -2 -11 -7 -40 -10 -65 -3 -24 -8 -56 -10 -70 -6
-41 -5 -210 2 -285 11 -129 56 -294 115 -425 23 -50 115 -190 152 -231 69 -77
187 -153 286 -186 50 -16 109 -17 2736 -27 660 -2 1203 -5 1206 -5 15 -2 -106
-411 -173 -586 -425 -1114 -1255 -2018 -2356 -2565 -181 -90 -542 -240 -612
-254 -8 -2 -22 -6 -30 -9 -47 -19 -345 -103 -430 -121 -251 -53 -450 -87 -600
-101 -36 -3 -81 -8 -100 -10 -158 -17 -553 -23 -720 -11 -41 3 -109 8 -150 11
-41 3 -91 7 -110 10 -19 3 -55 7 -80 10 -70 8 -120 15 -180 25 -30 5 -71 12
-90 15 -172 28 -409 86 -617 151 -527 165 -1020 417 -1473 752 -63 47 -124 93
-135 103 -11 10 -51 44 -90 76 -86 71 -123 104 -238 213 -147 139 -187 179
-187 188 0 5 -14 21 -31 38 -46 43 -245 294 -327 412 -110 157 -186 279 -297
477 -219 387 -428 889 -510 1223 -13 50 -12 52 7 52 30 0 258 -66 345 -100
251 -99 461 -251 599 -432 230 -303 332 -743 303 -1309 -4 -75 -5 -73 149
-225 534 -529 1195 -913 1927 -1124 128 -36 292 -74 370 -85 22 -4 53 -10 69
-16 27 -8 86 -13 86 -6 0 1 16 50 36 107 70 206 151 549 170 715 3 33 8 63 10
66 2 3 6 41 9 83 4 42 8 87 11 99 9 46 18 280 18 492 0 234 -7 404 -25 550 -6
50 -12 101 -14 115 -1 14 -5 45 -9 70 -4 25 -10 59 -12 75 -3 17 -12 62 -20
100 -8 39 -17 84 -21 100 -21 111 -108 384 -166 520 -68 159 -224 431 -313
544 -285 361 -613 621 -1069 847 -146 72 -218 105 -330 150 -36 15 -63 30 -58
34 4 4 48 29 97 55 295 158 513 318 719 527 438 448 681 1022 744 1758 16 186
9 759 -11 880 -2 14 -7 51 -11 84 -4 32 -9 70 -11 85 -7 47 -14 85 -19 111 -3
14 -7 36 -10 50 -10 53 -14 72 -19 88 -3 9 -7 28 -10 42 -34 178 -148 489
-256 695 -80 152 -234 382 -322 480 -14 17 -36 41 -48 55 -57 66 -140 148
-266 261 -47 42 -235 181 -294 218 -30 18 -66 41 -80 51 -59 40 -269 150 -380
199 -41 18 -84 37 -95 42 -137 60 -557 195 -670 215 -16 3 -46 9 -65 14 -47
12 -221 47 -295 59 -33 6 -69 12 -80 14 -11 3 -47 8 -80 12 -32 4 -67 8 -75
10 -17 3 -94 12 -185 21 -27 2 -68 7 -90 9 -22 3 -74 7 -115 10 -41 2 -111 7
-155 10 -44 3 -181 8 -305 10 -264 5 -3570 18 -3710 15 -122 -3 -700 -2 -1323
2 -269 2 -490 2 -491 1z m5218 -2316 c15 -3 69 -9 120 -12 50 -4 93 -9 96 -10
3 -2 28 -6 55 -9 43 -5 116 -18 240 -42 17 -3 82 -22 145 -41 430 -130 689
-361 815 -727 30 -89 30 -90 50 -196 34 -174 38 -465 10 -625 -66 -376 -225
-634 -509 -826 -96 -65 -245 -144 -253 -135 -5 5 2 27 32 101 17 41 63 161
125 330 54 146 101 257 132 313 39 70 58 103 85 144 42 66 136 188 187 243 25
28 49 60 52 72 7 27 -43 202 -92 316 -106 251 -289 471 -526 629 -143 96 -249
144 -438 198 -192 55 -198 56 -349 65 -57 3 -109 7 -114 8 -16 3 -146 -171
-291 -388 -73 -110 -143 -218 -156 -240 -44 -77 -82 -143 -121 -212 -43 -75
-178 -351 -234 -478 -168 -380 -315 -814 -411 -1217 -17 -71 -21 -78 -44 -79
-14 0 -663 -1 -1442 -2 l-1418 -2 0 65 c-1 88 -1 2191 0 2512 l0 258 2113 -4
c1161 -2 2125 -6 2141 -9z"/>
</g>
</svg>
