<?xml version="1.0" standalone="no"?>
<!DOCTYPE svg PUBLIC "-//W3C//DTD SVG 20010904//EN"
 "http://www.w3.org/TR/2001/REC-SVG-20010904/DTD/svg10.dtd">
<svg version="1.0" xmlns="http://www.w3.org/2000/svg"
 width="115.000000pt" height="115.000000pt" viewBox="0 0 115.000000 115.000000"
 preserveAspectRatio="xMidYMid meet">
<metadata>
Created by potrace 1.11, written by Peter Selinger 2001-2013
</metadata>
<g transform="translate(0.000000,115.000000) scale(0.100000,-0.100000)"
fill="#000000" stroke="none">
<path d="M566 1028 c-19 -18 -38 -44 -41 -57 l-7 -24 35 27 c46 35 99 44 132
22 23 -15 25 -15 25 1 0 24 -10 38 -37 52 -38 19 -71 13 -107 -21z"/>
<path d="M828 985 c-17 -17 20 -144 56 -195 6 -9 -13 9 -41 40 -29 30 -53 58
-53 61 0 14 -85 51 -116 51 -32 0 -72 -19 -102 -48 -19 -20 -52 -96 -52 -122
0 -23 0 -23 -37 7 -45 37 -90 40 -139 10 -46 -28 -43 -34 3 -9 45 24 65 25
102 6 32 -17 57 -51 76 -104 l13 -37 0 47 c0 60 17 114 50 157 68 91 173 67
232 -54 37 -75 48 -133 38 -208 -10 -75 -31 -113 -71 -132 -17 -8 -42 -22 -54
-31 -22 -16 -23 -15 -23 3 0 10 -7 28 -15 41 -12 17 -13 21 -2 16 27 -10 66
15 88 58 53 103 -21 263 -108 233 -33 -12 -73 -83 -73 -130 0 -49 20 -106 46
-132 24 -24 32 -39 15 -29 -5 4 -21 2 -35 -3 -23 -9 -26 -7 -50 41 -14 29 -26
58 -26 64 0 7 -3 15 -7 17 -5 3 -8 -9 -7 -26 2 -51 -26 -116 -64 -154 -21 -21
-26 -31 -14 -24 25 14 67 67 77 99 6 21 25 31 25 13 0 -5 8 -17 17 -26 16 -16
15 -18 -2 -27 -10 -6 -35 -26 -56 -45 -35 -32 -37 -36 -27 -66 5 -18 12 -38
14 -45 3 -10 13 -8 41 9 l38 23 -30 -34 c-24 -28 -37 -35 -65 -34 -34 1 -35 2
-32 36 3 34 2 36 -31 40 -46 5 -57 0 -57 -25 0 -27 -15 -53 -24 -39 -7 12 16
122 24 117 4 -3 5 6 3 19 -4 18 -14 26 -38 30 -33 6 -34 9 -51 84 -10 42 -18
93 -18 114 -1 20 -4 34 -8 32 -4 -2 -8 8 -10 23 -2 23 -9 29 -33 31 -30 3 -31
2 -49 -68 -10 -40 -22 -68 -26 -63 -4 4 -15 29 -25 56 -16 42 -21 47 -49 47
-17 0 -36 -4 -43 -8 -8 -5 -14 -60 -18 -169 l-5 -161 32 -4 c44 -7 68 1 69 23
1 11 3 24 4 29 1 6 3 29 4 53 l2 42 15 -35 15 -34 24 39 c21 35 24 37 25 16 0
-13 5 -41 12 -63 9 -31 16 -38 30 -34 18 4 19 -1 12 -95 l-6 -99 41 -1 c68 -2
66 -1 63 -44 -3 -40 -2 -40 30 -39 81 3 78 2 78 38 0 29 3 34 26 34 14 0 22
-3 16 -7 -9 -5 -16 -47 -13 -78 1 -7 17 -5 51 8 28 11 68 22 88 25 85 12 97
16 104 27 5 8 8 9 8 1 0 -16 58 -38 93 -36 41 3 65 18 87 55 50 82 -4 226 -91
244 -37 7 -37 19 -1 26 16 3 29 12 30 19 1 7 8 38 17 68 8 30 15 76 15 102 0
26 5 50 10 53 15 9 12 23 -5 28 -11 4 -10 4 2 3 16 -1 18 -17 21 -168 l2 -167
56 4 c120 9 162 40 171 129 7 69 -15 134 -58 170 -16 14 -29 29 -29 35 0 14
-54 24 -92 17 -25 -5 -28 -4 -12 3 22 10 104 98 104 112 0 24 -56 -15 -91 -65
-33 -45 -35 -43 -13 10 21 50 29 129 15 139 -15 9 -41 -54 -43 -107 -2 -46 -8
-37 -28 44 -12 47 -52 113 -62 103z m67 -243 c-3 -3 -11 0 -18 7 -9 10 -8 11
6 5 10 -3 15 -9 12 -12z m-151 -103 c16 -38 11 -65 -16 -84 -27 -18 -44 -10
-57 26 -25 71 44 126 73 58z m290 -45 c9 -8 16 -26 16 -39 0 -23 -23 -55 -40
-55 -8 0 -18 81 -12 100 5 14 18 12 36 -6z m-349 -224 c-9 -16 -18 -30 -21
-30 -2 0 2 14 11 30 9 17 18 30 21 30 2 0 -2 -13 -11 -30z m-15 -77 c-1 -28
-3 -34 -10 -22 -8 14 -3 59 6 59 2 0 4 -17 4 -37z m134 21 c18 -17 21 -50 7
-58 -16 -10 -41 6 -47 30 -10 41 12 57 40 28z m-279 -84 c3 -5 1 -10 -4 -10
-6 0 -11 5 -11 10 0 6 2 10 4 10 3 0 8 -4 11 -10z m185 -54 c0 -6 -7 -1 -15
10 -8 10 -15 23 -15 28 0 6 7 1 15 -10 8 -10 15 -23 15 -28z m-193 12 c-3 -8
-6 -5 -6 6 -1 11 2 17 5 13 3 -3 4 -12 1 -19z"/>
<path d="M307 922 c-15 -16 -24 -72 -12 -72 2 0 16 12 30 26 23 23 32 26 73
21 l47 -5 -28 24 c-34 29 -87 32 -110 6z"/>
<path d="M415 693 c-30 -8 -44 -22 -61 -61 -42 -100 22 -210 101 -174 41 19
61 73 56 153 -1 26 -51 90 -68 88 -4 -1 -17 -4 -28 -6z m45 -102 c15 -30 12
-56 -9 -75 -18 -17 -20 -17 -40 3 -24 24 -26 43 -9 71 16 25 44 26 58 1z"/>
<path d="M398 383 c7 -3 16 -2 19 1 4 3 -2 6 -13 5 -11 0 -14 -3 -6 -6z"/>
</g>
</svg>
