<?xml version="1.0" standalone="no"?>
<!DOCTYPE svg PUBLIC "-//W3C//DTD SVG 20010904//EN"
 "http://www.w3.org/TR/2001/REC-SVG-20010904/DTD/svg10.dtd">
<svg version="1.0" xmlns="http://www.w3.org/2000/svg"
 width="700.000000pt" height="700.000000pt" viewBox="0 0 700.000000 700.000000"
 preserveAspectRatio="xMidYMid meet">
<metadata>
Created by potrace 1.11, written by Peter Selinger 2001-2013
</metadata>
<g transform="translate(0.000000,700.000000) scale(0.100000,-0.100000)"
fill="#000000" stroke="none">
<path d="M5300 6974 c-157 -21 -324 -49 -338 -58 -4 -2 -23 -7 -42 -10 -60 -9
-401 -103 -551 -151 -381 -122 -831 -315 -1117 -479 -35 -20 -66 -36 -68 -36
-6 0 -186 -111 -259 -160 -366 -247 -800 -733 -998 -1120 -91 -176 -182 -406
-213 -535 -41 -172 -46 -195 -69 -335 -5 -26 -13 -110 -20 -195 -5 -71 -6
-247 -5 -2172 l0 -1722 78 36 c42 19 104 48 137 63 33 15 101 47 150 70 50 23
115 53 146 67 l56 27 1 167 c1 173 12 248 53 359 70 192 200 365 357 478 26
18 162 91 304 162 518 261 986 508 1098 580 8 5 47 28 85 51 203 121 289 185
409 305 292 292 470 673 525 1124 11 92 14 459 4 444 -13 -19 -161 -112 -238
-149 -67 -32 -252 -98 -300 -107 -17 -3 -19 -12 -21 -108 0 -58 -4 -121 -8
-140 -31 -168 -57 -246 -122 -374 -82 -161 -166 -269 -306 -393 -73 -64 -140
-106 -325 -199 -294 -150 -631 -323 -708 -364 -38 -21 -131 -69 -205 -107 -74
-39 -174 -91 -222 -117 -48 -25 -92 -46 -97 -46 -24 0 -152 -86 -211 -141 -34
-33 -65 -57 -68 -55 -7 7 -4 824 3 872 22 143 65 247 171 412 180 278 421 488
765 664 205 105 604 263 924 365 186 59 237 78 365 140 74 36 160 77 190 91
99 47 248 152 345 244 309 293 489 708 550 1271 4 43 9 1105 6 1279 -1 32 18
32 -211 2z m-356 -940 c0 -290 -7 -390 -35 -514 -10 -47 -16 -77 -25 -120 -12
-58 -69 -211 -109 -295 -77 -158 -187 -297 -303 -383 -128 -96 -225 -135 -599
-242 -174 -50 -419 -136 -540 -191 -36 -16 -71 -29 -79 -29 -8 0 -14 -4 -14
-10 0 -5 -6 -10 -14 -10 -27 0 -427 -202 -498 -251 -14 -11 -29 -19 -32 -19
-23 0 -365 -234 -542 -371 -20 -16 -9 221 16 356 5 28 12 66 14 85 10 65 55
237 87 332 94 280 308 606 569 869 443 445 1094 793 1870 999 85 22 169 45
185 49 17 5 34 8 40 7 6 -2 9 -102 9 -262z"/>
</g>
</svg>
