<?xml version="1.0" encoding="UTF-8"?>
<svg id="Layer_1" xmlns="http://www.w3.org/2000/svg" version="1.1" xmlns:xlink="http://www.w3.org/1999/xlink" viewBox="0 0 250 250">
  <!-- Generator: Adobe Illustrator 29.8.1, SVG Export Plug-In . SVG Version: 2.1.1 Build 2)  -->
  <defs>
    <style>
      .st0 {
        fill: #fff;
      }

      .st1 {
        fill: #111611;
      }

      .st2 {
        fill: url(#linear-gradient);
      }
    </style>
    <linearGradient id="linear-gradient" x1="86.77" y1="63.59" x2="87.42" y2="143.12" gradientUnits="userSpaceOnUse">
      <stop offset=".2" stop-color="lime"/>
      <stop offset=".78" stop-color="#00d000"/>
    </linearGradient>
  </defs>
  <rect class="st1" x="0" width="250" height="250"/>
  <g>
    <path class="st0" d="M133.72,185.97c-26.24,0-48.33-9.91-59.98-18.07l8.84-11.65c9.64,6.16,28.25,12.99,51.15,12.99s41.37-6.83,51.14-12.99l8.7,11.65c-11.51,8.17-33.61,18.07-59.85,18.07Z"/>
    <path class="st2" d="M141.18,64.03l-25.35,78.85h-13.74l-15.32-51.82-15.32,51.82h-13.74l-25.35-78.85h16.22l16.45,54.07,15.88-54.07h11.72l15.88,54.18,16.45-54.18h16.22Z"/>
    <path class="st0" d="M217.63,107.94v34.79h-13.94v-31.94c0-6.91-2.85-11.52-9.33-11.52s-9.88,5.16-9.88,11.52v31.94h-13.94v-31.94c0-6.91-2.85-11.52-9.33-11.52s-9.88,5.16-9.88,11.52v31.94h-13.94v-55.65h13.94v5.93c2.85-4.06,7.35-7.24,14.71-7.24s12.51,3.51,15.37,8.78c3.4-4.94,8.89-8.78,16.79-8.78,12.84,0,19.43,10.43,19.43,22.17Z"/>
  </g>
</svg>