<svg width="1076" height="184" viewBox="0 0 1076 184" fill="none" xmlns="http://www.w3.org/2000/svg">
<g clip-path="url(#clip0_504_2046)">
<path d="M300.902 112.094L257.622 43.2236H241.134V140.948H258.996L257.965 72.4208L300.559 140.776H316.531V43.2236H298.498L300.902 112.094ZM379.734 120.338C377.502 122.743 372.521 126.693 363.934 126.693C355.346 126.693 351.224 122.915 348.82 119.995C345.385 115.873 344.698 111.579 344.354 109.518H395.535C395.192 96.122 391.928 87.7063 388.837 82.7256C385.23 77.4014 377.158 69.501 361.529 69.501C341.435 69.501 332.847 82.2104 329.756 89.0803C327.523 94.4045 326.664 99.9004 326.664 105.74C326.664 116.56 329.584 126.006 337.484 133.563C346.931 142.322 357.751 142.837 362.216 142.837C376.471 142.837 385.746 135.967 389.696 132.532C392.959 129.441 395.02 126.865 396.05 125.319L381.967 117.075C381.108 118.793 380.25 119.823 379.734 120.338ZM355.003 84.0996C356.377 83.5844 358.266 82.8974 361.873 82.8974C370.804 82.8974 374.41 88.3933 375.956 91.8283C376.986 94.2327 377.33 97.4959 377.33 97.4959H344.87C345.385 95.0915 347.102 87.3628 355.003 84.0996ZM469.215 118.964L456.506 71.562H441.735L428.854 118.964L416.832 71.562H399.485L419.58 140.776H436.068L449.292 96.6372L461.83 140.776H478.318L499.099 71.562H481.753L469.215 118.964ZM581.023 82.8974L570.89 80.6647C561.959 78.7754 556.463 77.4014 554.058 73.4512C553.2 72.0773 552.856 70.7033 552.856 68.9858C552.856 67.4401 553.2 66.0661 553.887 64.5204C557.837 56.9635 570.203 56.9635 571.233 56.9635C586.519 56.9635 593.56 66.5813 596.48 71.562L611.594 60.3984C598.026 42.0214 580.851 40.6474 572.092 40.6474C552.341 40.6474 541.693 49.2348 537.227 56.62C533.792 62.4594 533.449 68.8141 533.449 71.0468C533.449 85.1301 542.895 91.313 547.36 93.7175C551.826 96.122 557.15 97.1524 562.131 98.3547L573.809 100.931C578.618 101.961 587.549 103.335 590.812 107.629C592.53 109.862 592.53 112.438 592.53 113.468C592.53 122.571 582.912 125.319 580.851 125.663C577.931 126.35 574.496 126.35 573.638 126.35C555.604 126.35 547.704 118.106 543.41 111.751L528.124 122.399C529.327 124.632 531.216 127.037 532.762 128.754C546.33 143.009 565.05 143.353 570.89 143.353C575.355 143.353 591.156 143.181 602.835 133.219C609.533 127.38 612.453 120.682 612.453 111.751C612.453 102.82 609.533 98.3547 606.785 95.2632C600.602 87.7063 590.297 84.9584 581.023 82.8974ZM642.165 47.0021H625.506V71.562H615.372V83.2409H625.506V118.621C625.506 124.632 625.677 129.613 626.364 131.845C626.536 132.532 627.051 134.25 628.425 135.796C631.173 139.059 635.81 141.292 645.085 141.292C650.752 141.292 654.703 140.433 656.935 140.261V126.35C654.874 126.865 652.47 127.208 650.237 127.208C649.894 127.208 645.772 127.38 643.883 125.147C641.822 122.915 642.165 117.59 642.165 114.842V83.4126H656.935V71.7338H642.165V47.0021ZM987.378 75.8557C985.661 77.4014 984.287 79.4624 983.256 81.5234V71.7338H967.284V140.948H983.256V111.236C983.256 107.286 983.256 103.679 984.458 99.9004C988.409 87.1911 1001.8 87.1911 1005.24 87.1911V70.188H1003.87C1001.98 70.188 992.874 70.3598 987.378 75.8557ZM729.756 92.8587C729.756 88.9085 729.756 84.0996 728.039 80.4929C727.524 79.4624 725.978 77.0579 723.058 74.997C718.765 71.9055 712.066 69.6728 700.731 69.6728C688.709 69.6728 682.182 72.4208 677.889 76.0275C671.19 81.5234 670.503 88.9085 670.332 92L687.163 93.0305C687.163 92 686.991 89.252 688.88 87.0193C690.598 84.6149 694.72 82.7256 701.075 82.7256C707.086 82.7256 710.692 84.7866 712.066 87.3628C712.925 89.0803 713.097 91.313 713.097 93.0305C707.944 94.748 704.166 95.6067 694.033 97.6677C687.678 98.8699 682.182 99.7287 676.515 103.679C668.099 109.347 667.068 117.075 667.068 121.025C666.897 126.521 668.958 130.3 670.16 132.017C676.515 142.322 689.052 142.666 692.315 142.666C697.468 142.666 701.762 141.635 706.227 139.402C707.601 138.887 710.005 137.685 712.582 135.452L712.925 140.776H732.504C729.756 136.311 729.413 134.765 729.413 129.613V92.8587H729.756ZM712.238 120.338C710.692 123.602 705.368 128.239 696.266 128.239C688.022 128.239 684.93 124.289 684.93 119.995C684.93 116.903 686.648 114.671 688.88 113.125C692.315 111.064 696.437 110.892 700.044 110.205C706.742 109.175 710.349 107.629 713.269 106.255V113.812C713.269 116.216 713.44 118.106 712.238 120.338ZM954.918 92.8587C954.918 88.9085 954.918 84.0996 953.2 80.4929C952.685 79.4624 951.139 77.0579 948.22 74.997C943.926 71.9055 937.228 69.6728 925.892 69.6728C913.87 69.6728 907.344 72.4208 903.05 76.0275C896.352 81.5234 895.665 88.9085 895.493 92L912.324 93.0305C912.324 92 912.153 89.252 914.042 87.0193C915.759 84.6149 919.881 82.7256 926.236 82.7256C932.247 82.7256 935.854 84.7866 937.228 87.3628C938.087 89.0803 938.258 91.313 938.258 93.0305C933.106 94.748 929.327 95.6067 919.194 97.6677C912.84 98.8699 907.344 99.7287 901.676 103.679C893.26 109.347 892.23 117.075 892.23 121.025C892.058 126.521 894.119 130.3 895.321 132.017C901.676 142.322 914.214 142.666 917.477 142.666C922.629 142.666 926.923 141.635 931.388 139.402C932.762 138.887 935.167 137.685 937.743 135.452L938.087 140.776H957.666C954.918 136.311 954.574 134.765 954.574 129.613V92.8587H954.918ZM937.399 120.338C935.854 123.602 930.53 128.239 921.427 128.239C913.183 128.239 910.092 124.289 910.092 119.995C910.092 116.903 911.809 114.671 914.042 113.125C917.477 111.064 921.427 110.892 925.205 110.205C931.904 109.175 935.51 107.629 938.43 106.255V113.812C938.43 116.216 938.43 118.106 937.399 120.338ZM1059.51 43.2236V77.4014C1059.17 77.058 1058.31 75.8557 1056.94 74.997C1055.22 73.7947 1054.53 73.2795 1053.5 72.7643C1048.18 69.8445 1043.2 69.6728 1040.96 69.6728C1035.12 69.6728 1031.17 71.0468 1028.94 72.0773C1021.04 75.684 1009.53 86.6758 1009.53 107.801C1009.53 127.724 1019.84 136.654 1027.4 140.261C1032.89 142.837 1037.87 143.181 1040.28 143.181C1049.21 143.181 1054.87 139.231 1057.62 136.654C1058.31 135.967 1058.83 135.109 1059.51 134.422V141.12H1076V43.2236H1059.51ZM1054.02 123.086C1051.1 126.35 1047.66 127.724 1043.2 127.724C1031 127.724 1026.71 115.873 1026.71 105.74C1026.71 103.679 1027.05 92.5153 1034.95 87.3628C1038.39 85.1301 1041.99 84.7866 1043.37 84.7866C1046.8 84.7866 1049.89 85.6453 1052.64 87.8781C1053.84 88.9085 1055.39 90.626 1056.25 92.1718C1058.65 96.2937 1059.34 101.961 1059.34 106.427C1059.51 112.781 1058.31 118.449 1054.02 123.086ZM782.655 69.501C780.25 69.501 770.804 70.0163 764.449 76.1992C763.076 77.5732 761.701 79.4624 761.358 79.8059V71.562H744.698V140.776H761.358V110.892C761.358 99.0417 762.904 93.2022 767.884 89.0803C771.319 86.1606 774.754 85.8171 776.644 85.8171C779.907 85.8171 786.261 86.8476 788.151 94.9197C788.838 97.4959 788.838 100.244 788.838 105.568V140.948H805.154V100.244C805.154 93.2022 805.497 84.4431 801.204 78.0884C798.799 74.8252 792.96 69.501 782.655 69.501ZM865.781 77.4014C865.437 77.058 864.578 75.8557 863.204 74.997C861.487 73.7947 860.628 73.2795 859.77 72.7643C854.445 69.8445 849.465 69.6728 847.232 69.6728C841.392 69.6728 837.442 71.0468 835.21 72.0773C827.309 75.684 815.802 86.6758 815.802 107.801C815.802 127.724 826.107 136.654 833.664 140.261C839.16 142.837 844.14 143.181 846.545 143.181C855.476 143.181 861.143 139.231 863.891 136.654C864.578 135.967 865.094 135.109 865.781 134.422V141.12H882.268V43.2236H865.781V77.4014ZM860.456 123.086C857.537 126.35 854.102 127.724 849.636 127.724C837.442 127.724 833.149 115.873 833.149 105.74C833.149 103.679 833.492 92.5153 841.392 87.3628C844.827 85.1301 848.434 84.7866 849.808 84.7866C853.243 84.7866 856.335 85.6453 859.083 87.8781C860.285 88.9085 861.83 90.626 862.689 92.1718C865.094 96.2937 865.781 101.961 865.781 106.427C865.781 112.781 864.75 118.449 860.456 123.086ZM85.7022 104.881L56.8485 59.0244H45.8567V124.117H57.7073L57.0203 78.6037L85.5304 124.117H96.1788V59.0244H84.1564L85.7022 104.881ZM137.913 78.7754C136.024 77.4014 133.62 76.7145 131.215 76.1992C128.983 75.684 126.75 75.3405 124.345 74.997C120.91 74.4817 118.162 73.7947 117.132 72.936C116.96 72.7643 115.93 71.7338 115.758 70.3598C115.758 69.6728 116.102 68.2988 117.647 67.2683C119.536 66.0661 122.284 66.0661 122.8 66.0661C126.235 66.0661 128.983 66.7531 131.559 69.1576C132.246 69.6728 133.276 70.7033 134.135 72.5925L141.348 65.8943C134.994 58.5092 126.578 58.1657 123.315 58.1657C114.212 58.1657 109.232 62.1159 107.171 65.3791C106.655 66.2378 105.281 68.6423 105.281 71.9055C105.281 81.0081 115.071 83.4126 116.789 83.7561C119.536 84.4431 122.284 84.7866 125.032 85.3018C128.124 85.9888 129.498 85.9888 130.528 87.5346C131.044 88.2216 131.215 88.9086 131.215 89.252C131.215 90.1108 130.872 90.9695 130.185 91.6565C128.467 93.5457 125.548 94.2327 122.971 94.2327C121.769 94.2327 116.445 94.061 112.838 90.9695C111.808 90.1108 111.293 89.252 110.949 88.9086L103.564 94.5762C104.766 95.7785 106.14 96.9807 107.514 97.8394C110.09 99.3852 115.758 102.133 123.658 102.133C133.963 102.133 139.116 97.3242 141.177 93.5457C142.035 91.8283 142.551 89.7673 142.551 87.8781C142.551 82.7256 139.459 79.8059 137.913 78.7754ZM103.22 124.117H141.692V113.64H103.22V124.117ZM91.8851 0.114929C41.2195 0.114929 0 41.3344 0 92C0 142.666 41.2195 183.885 91.8851 183.885C142.551 183.885 183.77 142.666 183.77 92C183.77 41.3344 142.551 0.114929 91.8851 0.114929ZM91.8851 173.408C47.0589 173.408 10.4766 136.826 10.4766 92C10.4766 47.1738 47.0589 10.5915 91.8851 10.5915C136.711 10.5915 173.294 47.1738 173.294 92C173.294 136.826 136.711 173.408 91.8851 173.408Z" fill="black"/>
</g>
<defs>
<clipPath id="clip0_504_2046">
<rect width="1076" height="184" fill="white"/>
</clipPath>
</defs>
</svg>
