<?xml version="1.0" encoding="UTF-8"?>
<svg id="Layer_1" data-name="Layer 1" xmlns="http://www.w3.org/2000/svg" viewBox="0 0 47.24 47.24">
  <defs>
    <style>
      .cls-1 {
        fill: #86c55f;
      }
    </style>
  </defs>
  <path class="cls-1" d="M39.56,18.19c-.58-.71-1.44-1.12-2.36-1.12h-2.3l-3.13-6.26c-.32-.65-1.11-.91-1.76-.59s-.91,1.11-.59,1.76l2.54,5.09H15.27l2.54-5.09c.32-.65.06-1.43-.59-1.76-.65-.32-1.43-.06-1.76.59l-3.13,6.26h-2.3c-.92,0-1.78.41-2.36,1.12s-.81,1.64-.63,2.54l1.95,9.76c.77,3.86,4.19,6.67,8.13,6.67h12.99c3.94,0,7.36-2.8,8.13-6.67l1.95-9.75c.18-.9-.05-1.83-.63-2.54ZM35.68,29.97c-.53,2.64-2.87,4.56-5.56,4.56h-12.99c-2.7,0-5.03-1.92-5.56-4.56l-1.95-9.76c-.03-.18.04-.3.09-.36s.16-.16.34-.16h27.16c.18,0,.29.1.34.16s.13.19.09.36l-1.95,9.76Z"/>
  <path class="cls-1" d="M17.91,23.3c-.17-.7-.89-1.12-1.59-.95-.7.18-1.13.89-.95,1.59l1.75,6.98c.15.59.68.99,1.27.99.1,0,.21-.01.32-.04.7-.18,1.13-.89.95-1.59l-1.75-6.98Z"/>
  <path class="cls-1" d="M30.92,22.35c-.69-.17-1.41.25-1.59.95l-1.75,6.98c-.18.7.25,1.41.95,1.59.11.03.21.04.32.04.59,0,1.12-.4,1.27-.99l1.75-6.98c.18-.7-.25-1.41-.95-1.59Z"/>
  <path class="cls-1" d="M23.62,22.31c-.72,0-1.31.59-1.31,1.31v6.98c0,.72.59,1.31,1.31,1.31s1.31-.59,1.31-1.31v-6.98c0-.72-.59-1.31-1.31-1.31Z"/>
</svg>