<?xml version="1.0" encoding="UTF-8"?>
<svg data-bbox="0 0 319.443 404.26" viewBox="0 0 319.45 404.26" xmlns="http://www.w3.org/2000/svg" data-type="color">
    <g>
        <path d="M120.97 164.22c.28-11.13-.47-22.54-7.82-30.89-4.06-4.61-9.31-6.73-15.62-8.08-.57 3.09-.88 6.28-.88 9.54 0 20.27 11.46 37.86 28.26 46.65-2.59-5.82-4.08-11.68-3.94-17.23Z" fill="#d78e29" data-color="1"/>
        <path d="M149.3 82.14c-23.62 0-43.6 15.55-50.27 36.97 3.62-.3 7.28.82 10.86-.07 3.46-.87 5.9-4.81 8.78-6.91 8.65-6.31 20.44-7.73 30.63-4.44 10.19 3.29 18.92 12.28 23.98 21.72 1.92 3.59 3.41 7.46 6 10.59 4.2 5.07 10.67 7.52 16.56 10.47 1.07.54 2.12 1.1 3.16 1.68 1.9-5.44 2.94-11.27 2.94-17.36 0-29.08-23.57-52.65-52.65-52.65Z" fill="#d78e29" data-color="1"/>
        <path d="M166.15 304.87c-.67-.47-1.67-.92-1.67-.92-1.86.84-4.56 2.63-6.43 3.75 1.12 1.77 2.16 3.14 2.92 4.65 3.68 7.28 3.3 14.59-1.05 21.29-2.82 4.34-6.77 7.94-10.01 12.03-1.73 2.18-3.38 5.15-4.16 9.38 0 0-4.1-4.78-5.09-6.76-3.28-6.62-6.76-13.29-5.93-21.12.61-5.73 2.41-11.2 6.07-15.48 2.5-2.93 6-5.84 10.49-5.23 3.96.54 6.82-2.19 9.9-4.07 0 0-11.88-7.51-21.44-7.09-8 .35-15.14-.5-22.65-2.45-5.54-1.44-17.21-2.85-17.78-2.97 0 0 10.89-7.17 17.1-7.91 6.45-.77 15.31 0 19.52 1.19 2.32.66 4.38 2.18 6.98 3.56-4.83-7.92-2.08-16.7-3.82-25 2.84 1.13 3.84 3.39 4.57 5.82 1.45 4.87 2.78 9.75 2.38 14.94-.13 1.6.21 3.26.49 4.87.59 3.31 1.57 4.32 5.01 5.52 3.87 2.25 17.82 8.58 18.94 9.57.22-.12.43-.24.65-.36-.3-2.37-.45-4.78-.98-7.1-.15-.62-10-5.79-4.25-28.26 1.29-5.05-2.64-10.11-4.18-15.09-.23-.74-1.37-1.52-2.2-1.69-2.79-.55-9.32-10-9.29-14.73 0-1.18.65-2.35 1.11-3.86-1.37-1.61-2.99-3.49-4.61-5.38 1.9 8.09-1.74 16.36 1.18 24.41-1.75 1.44-12.86-14.73-14.72-22.98-.74-3.3-2.13-6.45-3.33-9.96-.86.43-3.39.52-3.67.52 0 0-3.21-1.15-3.89 3.27-.22 1.41-1.02 2.63-1.59 3.9-.96 2.15-.46 4.05-.03 6.25-4.36-1.07-5.99-12.32-3.22-16.87-7.35-1.54-7.97-.69-14.62 4.64 6.32 8.18 5.16 17.26 3.37 26.53-1.37 7.08-5.11 12.98-9.17 18.61-2.59 3.6-6.26 6.42-9.37 9.65-1.31 1.36-5.55-9.12-7.26-13.83-2.19-6.02-3.72-12.16-1.28-18.51.65-1.68 1.54-3.26 2.29-4.89.91-1.96 2.18-3.86 2.63-5.92 1.63-7.53 5.46-10.78 12.82-12.16 3.24-.61 7.6-3.62 10.65-5.3.08-.04-.62-.5-.64-.51-.88-.47-1.92-.71-2.88-.94-5.01-1.19-10.16-1.59-15.28-2-.97-.08-2.04-.28-3-.01-.31.09-.6.21-.87.38-.03.02-.07.04-.1.06-1.86 1.25-1.82 4.14-2.5 6.07-.83 2.35-2.04 4.55-3.56 6.53-1.19 1.54-2.89 2.88-4.39 4.11-1.56 1.27-3.2 2.44-4.91 3.49a45.162 45.162 0 0 1-10.53 4.75c-4.27 1.3-8.85 1.81-13.13 3.11l103.58 140.32 34.27-46.44c-2.83-6.86-6.42-15.68-7.04-16.89-2.37-4.6-6.31-7.62-10.39-10.49Z" fill="#f6eee5" data-color="2"/>
        <path d="M200.12 224.32c2.01 4.06 4.89 10.99 3 13.2-8.49 9.92-16.87 19.95-25.26 29.97-1.48 1.77-.98 6.73.4 8.59 1.37 1.84 2.56 3.86 3.56 5.94 1.14 2.38.5 4.58-1.35 6.46-.33.34-.62.95-.58 1.39.89 9.3 3.48 17.83 9.98 24.99 1.36 1.49 2.17 3.35 2.6 5.36l64.67-87.63c-15.32-6.71-34.73-11.69-57.03-8.26Z" fill="#f6eee5" data-color="2"/>
        <path d="M170.6 249.2c.8 2.19 5.31 14.14 5.31 14.14.53-.91.97-1.89 1.61-2.71 5.81-7.33 11.69-14.59 17.47-21.94 2.58-3.29.96-7.9-3.2-8.96-2.96-.75-4.69-1.81-5.97-2.74-6.11 1.74-15.25 4.21-20.64 5.74 1.24 2.98 4.83 5.87 4.61 8.49-.27 3.26-.14 5.38.81 7.98Z" fill="#f6eee5" data-color="2"/>
        <path d="M199.05 212.63c-.36-1.04-1.08-1.92-1.81-2.74-4.77-5.4-11.03-9.89-18.17-10.83-5.74-.76-11.75.8-17.28-.92-3.29-1.02-5.95-3.01-8.33-5.44-1.58-1.61-3.03-3.42-4.47-5.26-2.13-2.73-4.21-5.55-6.58-7.96-1.47-1.49-5.69-2.72-6.44-3.33-9.01-7.32-8.5-15.97-8.79-18.65.11 1.04-1.28 3.31-1.55 4.44-.37 1.6-.56 3.25-.57 4.89-.04 3.37.63 6.76 1.94 9.87 1.23 2.93 3.09 5.87 5.48 7.99l.04.04c3.17 2.79 7.21 4.66 10.65 7.11 1.31.93 2.74 1.68 4.05 2.62.35.25.69.51 1.03.78 2.38 1.89 4.39 4.18 6.05 6.74 1.69 2.61 3.12 5.43 4.08 8.39.52 1.61.97 3.3 1.74 4.81.43.84.95 1.62 1.64 2.3 1.83 1.81 4.34 2.89 6.73 3.73 3.38 1.18 6.94 1.82 10.49 2.2 3.21.4 6.45.84 9.7.92 1.07.03 2.16.02 3.2-.26 1.6-.43 2.97-1.51 4.04-2.78 1.87-2.23 4.2-5.61 3.14-8.64Z" fill="#f6eee5" data-color="2"/>
        <path d="M77.14 202.36c1.99.9 5.8 3.86 5.8 3.86 4.96.45 9.77.47 14.66 1.53 11.39 2.49 20.13 4.41 31.87 4.27-5.27-3.48-12.92-10.42-15.35-14.03-1.92-2.86-3.73-5.81-5.48-8.78 0 0 1.01-4.06 2.91-5.49 2.98-2.24 3.07.19 4.09 1.41 5.36 6.38 10.47 12.98 16.13 19.08 2.76 2.98 6.61 4.92 9.82 7.52 4.78 3.86 7.96 8.61 12.66 12.58.55.47 1.23.87 1.59 1.46 2.61 4.18 7.63 2.58 11.38 1.34.89-.3 1.79-.58 2.69-.86.49-.15.97-.31 1.45-.47-3.89-.5-6.72-2-9.39-3.71-13.31-7.69-29.67-24-37.05-40.63-16.79-8.8-28.26-26.38-28.26-46.65 0-3.26.31-6.44.88-9.54-1.94-.42-3.99-.76-6.13-1.08.14-.31.63-1.1.68-1.17.37-.5.73-1.06 1.17-1.5 1.33-1.33 3.2-2.04 5.03-2.31.25-.04.5-.06.75-.08 6.67-21.42 26.66-36.97 50.27-36.97 29.08 0 52.65 23.57 52.65 52.65 0 6.08-1.04 11.92-2.94 17.36 24.91 13.77 42.39 38.65 66.92 53.3 2.68 1.6 5.8 4.08 6.22 6.81l7.58-10.27L149.31 25.54 18.87 201.99l15.05 20.39c.93-1.65 2.06-3.18 3.2-4.7 5.46-7.03 12.25-12.3 20.67-15.32 6.42-2.3 12.88-2.93 19.35 0Z" fill="#f6eee5" data-color="2"/>
        <path d="M124.55 139.96c1.88 2.81 2.26 6.33 2.59 9.7 1.68-4.55 2.81-9.41 2.34-14.24l-.09-.8c-.34-2.59-1.1-5.11-1.81-7.62-.56-1.99-1.08-4.18-.21-6.05 1.02-2.18 3.78-3.15 7.34-3.59-1.07-1.05-3.35-2.73-4.85-2.81-2.28-.12-4.5.64-6.5 1.69-1.68.89-4.05 2.73-5.81 3.45-1.84.75-3.75 1.33-5.65 1.91-.35.11-1.96.67-1.96.67 1.33.27 3.08.54 4.41.77.65.11 1.34.21 1.94-.04.4-.17.72-.48 1.1-.66 1.08-.51 2.39.1 3.21.97 1.21 1.28 1.77 3.14 1.46 4.87-.3 1.73-1.46 5.02-.53 5.21.92.19 1.99.72 2.03 1.66.02.53-.3 1-.41 1.52-.26 1.24.68 2.35 1.39 3.4Z" fill="#f6eee5" data-color="2"/>
        <path d="M263.09 224.52c-3.93-1.92-8.42-3.39-13.02-4.61-8.9-2.36-18.18-3.8-24.4-5.84-3.52-1.16-7.5-2.28-10.79-.58-1.62.84-7.56 5.96-16.46 7.72.02.02.13.2.62 1.17 19.72-4.35 38.07-1.87 51.73 1.75 3.81 1.01 7.25 2.1 10.26 3.17 5.69 2.02 9.82 3.91 11.87 4.85-2.31-3.19-5.76-5.65-9.81-7.64Z" fill="#f6eee5" data-color="2"/>
        <path d="m319.42 263.05-.66-11.85c-.1-1.8-.22-3.66-1.07-5.25-1.11-2.08-3.28-3.33-5.33-4.48-10.13-5.65-20.26-11.31-30.38-16.96l16.62-22.52L149.31 0 0 201.98l149.31 202.28 121.58-164.74c4.08 2.32 7.69 4.6 10.77 6.59 10.91 7.04 20.98 15.46 32.6 21.27 1.01.5 2.16 1 3.22.64 1.82-.61 2.05-3.05 1.94-4.96Zm-126.95 57.17c-.43-2.02-1.25-3.87-2.6-5.36-6.49-7.16-9.09-15.69-9.98-24.99-.04-.45.25-1.06.58-1.39 1.85-1.88 2.49-4.07 1.35-6.46-.99-2.07-2.19-4.09-3.56-5.94-1.38-1.86-1.88-6.82-.4-8.59 8.38-10.02 16.76-20.04 25.26-29.97 1.89-2.21-.99-9.13-3-13.2 22.3-3.43 41.7 1.56 57.03 8.26l-64.67 87.63ZM149.31 25.54l130.41 176.45-7.58 10.27c-.42-2.73-3.53-5.21-6.22-6.81-24.54-14.66-42.02-39.53-66.92-53.3a86.43 86.43 0 0 0-3.16-1.68c-5.89-2.95-12.36-5.39-16.56-10.47-2.59-3.13-4.08-7.01-6-10.59-5.06-9.44-13.79-18.42-23.98-21.72-10.19-3.29-21.98-1.87-30.63 4.44-2.88 2.1-5.32 6.04-8.78 6.91-3.58.9-7.24-.23-10.86.07-.25.02-.5.05-.75.08-1.83.26-3.7.98-5.03 2.31-.44.44-.79 1-1.17 1.5-.05.07-.54.86-.68 1.17 2.14.32 4.19.66 6.13 1.08 6.31 1.35 11.55 3.46 15.62 8.08 7.36 8.35 8.1 19.76 7.82 30.89-.14 5.54 1.35 11.4 3.94 17.23 7.38 16.63 23.75 32.95 37.05 40.63 2.67 1.71 5.51 3.22 9.39 3.71-.48.16-.97.31-1.45.47-.9.28-1.8.57-2.69.86-3.75 1.25-8.77 2.84-11.38-1.34-.37-.59-1.04-1-1.59-1.46-4.7-3.96-7.88-8.71-12.66-12.58-3.21-2.6-7.06-4.54-9.82-7.52-5.66-6.1-10.77-12.71-16.13-19.08-1.02-1.22-1.12-3.64-4.09-1.41-1.9 1.43-2.91 5.49-2.91 5.49 1.75 2.97 3.56 5.91 5.48 8.78 2.43 3.61 10.08 10.55 15.35 14.03-11.74.14-20.48-1.78-31.87-4.27-4.88-1.07-9.7-1.08-14.66-1.53 0 0-3.8-2.96-5.8-3.86-6.47-2.93-12.93-2.3-19.35 0-8.42 3.01-15.21 8.29-20.67 15.32-1.14 1.52-2.26 3.06-3.2 4.7L18.86 202 149.31 25.54Zm101.47 198.6c-13.66-3.62-32.01-6.09-51.73-1.75-.49-.97-.6-1.15-.62-1.17 8.9-1.77 14.83-6.88 16.46-7.72 3.29-1.71 7.27-.58 10.79.58 6.22 2.04 15.5 3.48 24.4 5.84 4.6 1.22 9.09 2.68 13.02 4.61 4.05 1.98 7.5 4.45 9.81 7.64-2.05-.94-6.18-2.83-11.87-4.85-3.01-1.06-6.45-2.16-10.26-3.17Zm-85.6 8.59c5.39-1.53 14.53-4 20.64-5.74 1.28.93 3.02 1.99 5.97 2.74 4.16 1.06 5.78 5.67 3.2 8.96-5.78 7.35-11.66 14.62-17.47 21.94-.65.82-1.08 1.8-1.61 2.71 0 0-4.5-11.95-5.31-14.14-.95-2.6-1.08-4.72-.81-7.98.22-2.62-3.38-5.51-4.61-8.49Zm30.72-11.47c-1.06 1.27-2.43 2.35-4.04 2.78-1.04.28-2.13.29-3.2.26-3.25-.08-6.48-.52-9.7-.92-3.55-.38-7.11-1.02-10.49-2.2-2.4-.84-4.9-1.92-6.73-3.73-.69-.68-1.22-1.47-1.64-2.3-.77-1.51-1.21-3.19-1.74-4.81-.96-2.96-2.38-5.78-4.08-8.39-1.66-2.55-3.67-4.85-6.05-6.74-.34-.27-.68-.53-1.03-.78-1.31-.94-2.74-1.69-4.05-2.62-3.44-2.44-7.47-4.31-10.65-7.11l-.04-.04c-2.39-2.12-4.25-5.07-5.48-7.99a24.756 24.756 0 0 1-1.94-9.87c.02-1.64.21-3.29.57-4.89.26-1.14 1.66-3.4 1.55-4.44.28 2.68-.22 11.33 8.79 18.65.75.61 4.97 1.84 6.44 3.33 2.37 2.41 4.45 5.23 6.58 7.96 1.44 1.85 2.89 3.65 4.47 5.26 2.38 2.43 5.04 4.42 8.33 5.44 5.53 1.72 11.54.16 17.28.92 7.15.94 13.4 5.43 18.17 10.83.73.83 1.45 1.7 1.81 2.74 1.06 3.03-1.28 6.4-3.14 8.64ZM127.58 127c.71 2.52 1.46 5.04 1.81 7.62.04.27.07.53.09.8.47 4.83-.66 9.69-2.34 14.24-.33-3.37-.71-6.89-2.59-9.7-.7-1.05-1.65-2.17-1.39-3.4.11-.52.43-.99.41-1.52-.04-.94-1.11-1.46-2.03-1.66-.92-.19.23-3.48.53-5.21.3-1.73-.25-3.59-1.46-4.87-.82-.87-2.13-1.47-3.21-.97-.39.18-.71.49-1.1.66-.6.26-1.29.16-1.94.04-1.33-.23-3.08-.5-4.41-.77 0 0 1.61-.57 1.96-.67 1.9-.58 3.81-1.15 5.65-1.91 1.76-.72 4.13-2.56 5.81-3.45 1.99-1.05 4.22-1.81 6.5-1.69 1.5.08 3.78 1.75 4.85 2.81-3.56.45-6.32 1.41-7.34 3.59-.87 1.87-.35 4.06.21 6.05ZM45.73 238.38c4.28-1.3 8.86-1.81 13.13-3.11a45.35 45.35 0 0 0 15.44-8.24c1.5-1.23 3.2-2.56 4.39-4.11 1.52-1.97 2.73-4.18 3.56-6.53.69-1.94.64-4.83 2.5-6.07.03-.02.06-.04.1-.06.27-.17.57-.3.87-.38.95-.27 2.03-.06 3 .01 5.12.41 10.27.81 15.28 2 .96.23 2 .46 2.88.94.02.01.72.46.64.51-3.04 1.68-7.4 4.69-10.65 5.3-7.36 1.38-11.19 4.63-12.82 12.16-.45 2.07-1.72 3.96-2.63 5.92-.76 1.63-1.65 3.22-2.29 4.89-2.45 6.35-.91 12.49 1.28 18.51 1.72 4.71 5.95 15.2 7.26 13.83 3.12-3.24 6.78-6.06 9.37-9.65 4.06-5.63 7.8-11.52 9.17-18.61 1.79-9.27 2.95-18.36-3.37-26.53 6.65-5.33 7.28-6.19 14.62-4.64-2.77 4.55-1.14 15.8 3.22 16.87-.43-2.19-.94-4.1.03-6.25.57-1.28 1.38-2.5 1.59-3.9.68-4.42 3.89-3.27 3.89-3.27.28 0 2.81-.09 3.67-.52 1.19 3.5 2.58 6.66 3.33 9.96 1.86 8.25 12.97 24.42 14.72 22.98-2.92-8.05.72-16.32-1.18-24.41 1.62 1.89 3.23 3.78 4.61 5.38-.45 1.51-1.1 2.68-1.11 3.86-.03 4.73 6.5 14.18 9.29 14.73.83.16 1.97.95 2.2 1.69 1.54 4.99 5.47 10.04 4.18 15.09-5.75 22.47 4.1 27.64 4.25 28.26.54 2.32.69 4.72.98 7.1-.22.12-.43.24-.65.36-1.11-.99-15.06-7.32-18.94-9.57-3.44-1.2-4.42-2.21-5.01-5.52-.29-1.61-.62-3.27-.49-4.87.41-5.19-.93-10.07-2.38-14.94-.72-2.42-1.72-4.69-4.57-5.82 1.74 8.3-1.02 17.09 3.82 25-2.6-1.37-4.66-2.9-6.98-3.56-4.21-1.2-13.07-1.96-19.52-1.19-6.21.74-17.1 7.91-17.1 7.91.56.12 12.24 1.53 17.78 2.97 7.51 1.95 14.66 2.81 22.65 2.45 9.57-.42 21.44 7.09 21.44 7.09-3.08 1.88-5.94 4.61-9.9 4.07-4.49-.61-7.99 2.3-10.49 5.23-3.66 4.28-5.46 9.75-6.07 15.48-.83 7.83 2.65 14.5 5.93 21.12.99 1.99 5.09 6.76 5.09 6.76.78-4.23 2.43-7.2 4.16-9.38 3.24-4.09 7.19-7.69 10.01-12.03 4.35-6.7 4.74-14.01 1.05-21.29-.76-1.51-1.8-2.88-2.92-4.65 1.86-1.12 4.57-2.91 6.43-3.75 0 0 1 .45 1.67.92 4.07 2.87 8.02 5.89 10.39 10.49.63 1.21 4.21 10.04 7.04 16.89L149.3 378.7 45.73 238.38Z" fill="#11302f" data-color="3"/>
    </g>
</svg>
