<?xml version="1.0" encoding="UTF-8"?> <svg xmlns="http://www.w3.org/2000/svg" id="Layer_2" viewBox="0 0 235.69 135.19"><defs><style> .cls-1 { fill: #fff; } </style></defs><g id="Layer_1-2" data-name="Layer_1"><g><path class="cls-1" d="M23.36,108.72c-1.22-.01-2.57.2-3.82-.16-.85-.26-1.69-.61-2.57-.75-1.43-.23-2.14-1.92-3.6-1.88-1.92.05-1.35,4.34-1.12,6.31.27,2.33.14,3.34.35,5.69.18,1.23.43,2.43.54,3.66.3,1.87.32,3.9.76,5.75.18.76.34,1.56.31,2.35-.16,3.77-4.61,6.76-8.04,4.99-1.62-.8-3.12-2.14-3.89-3.83-.71-1.65.15-3.37.34-5.04.26-1.65.08-3.27.07-4.89,0-1.32.23-1.99.08-3.3-.15-3.27-.46-6.67-.97-9.89-.25-3.2-.56-6.49-.93-9.67.25-2.57-.04-5.78.1-8.36.05-.66.09-1.32.04-1.98-.08-1.8-.85-3.47-.98-5.27-.39-5.55,3.81-7.94,6.68-8.01,3.7-.1,2.94,4.36,5.56,4.29.91-.02,1.56-.08,2.4-.79,1.67-1.41,3.31-3.02,5.88-3.09,5.57-.14,11.33.53,15.16,5.03,2.45,2.93,2.94,6.97,3.36,10.66.43,2.65.12,6.08-1.19,8.42-1.11,2.52-3,4.47-4.97,6.32-2.6,2.44-6.03,3.52-9.45,3.45h-.08ZM20.78,97.73c3.73-.13,5.96-1.02,7.28-2.06,1.02-.8,1.51-1.7,1.76-2.41.62-1.81.46-5.71-.85-7.26-.89-1.04-3.94-1.52-7.6-1.42-1.49.04-4.02.1-5.18,2.41-.94,1.87-2.92,2.77-2.87,4.76.05,1.99-.62,6.26,7.47,5.98Z"></path><path class="cls-1" d="M186.21,132.61c-.71,0-1.41,0-2.12,0-1.03,0-2.04.01-3.07.23-1,.21-2.04.26-3.06.35-2.58.22-5.16.42-7.73.63-.78-.23-1.57.02-2.37-.1-1.53-.22-3.08-.29-4.64-.16-1.5.13-3.02.12-4.53.22-2.14.14-4.29.19-6.41.52-2.37.37-4.75.25-7.12.28-1.18.02-2.36-.26-3.54-.41-.37-.05-.74-.12-1.11-.15-1.13-.09-2.26-.13-3.39-.32-.95-.16-1.94-.11-2.92-.11-.81,0-1.61-.05-2.42-.18-.96-.15-1.94-.13-2.92-.15-1.14-.02-2.28,0-3.41,0-3.3,0-6.6.02-9.9,0-.64,0-1.29-.14-1.93-.2-2.1-.19-4.19-.3-6.3.05-2.5.41-5.03.64-7.57.43-.95-.08-1.91-.05-2.86-.18-.96-.14-1.95-.05-2.92-.13-.86-.07-1.72-.19-2.56-.39-.86-.2-1.71-.23-2.58-.24-1.62-.02-3.25-.08-4.87-.12-.27,0-.54-.02-.8,0-1.78.17-3.55.41-5.27.89-1.53.43-3.05.76-4.63.29-.1-.03-.22-.02-.32-.02-1.63.06-3.22-.28-4.82-.54-.57-.1-1.09.1-1.58.22-.91.22-1.81.28-2.73.3-1.18.03-2.36.02-3.54.21-.62.1-1.29-.1-1.93-.08-1.71.05-3.42-.37-5.13.07-.05.01-.11,0-.16,0-2.28.04-4.53.47-6.79.5-1.93.03-3.89.05-5.82-.24-.8-.12-1.61.05-2.39.23-1.89.45-3.78.3-5.67.15-1.84-.14-3.61-.63-5.36-1.23-.78-.26-1.47-.63-2.06-1.25-.64-.68-1.24-1.38-1.77-2.14-.42-.6-.69-1.24-.7-1.98-.02-1.21-.24-2.42-.4-3.58-.16-1.19-.12-2.44.03-3.25.19-1,.92-2.9,1.83-3.6.96-.64,2.13-1.14,3.33-1.09,1.13.05,1.83-.13,2.95.16,1.18.31,2.94.39,4.17.11,1.47-.33,2.53-.52,4.03-.76,2.04-.55,3.76-1.53,5.24-2.54,1.04-.73,2-1.19,2.6-2.26,1.18-1.15,2.32-2.06,3.22-3.55.77-1.27,1.84-2.61,2.9-3.66,1.24-1.23,1.95-1.91,2.79-3.47.6-1.1,1.31-2.15,2.05-3.16.85-1.15,1.92-2.09,2.99-3.03.57-.5,1.13-1.02,1.66-1.57,1.29-1.33,2.57-2.66,3.83-4.02.67-.72,1.48-1.26,2.31-1.73,1.65-.94,3.34-1.83,5.05-2.64,1.12-.53,2.31-.91,3.48-1.34.66-.25,1.33-.47,1.99-.7.82-.29,1.66-.47,2.54-.32.32.05.65.03.97.05,2.74.14,5.3.87,7.56,2.52.83.61,1.63,1.26,2.48,1.85,1.1.77,1.92,1.75,2.48,2.97.21.44.59.8.81,1.23.35.7,1.03.76,1.64.93.18.05.41-.08.61-.14,1.13-.39,1.86-1.31,2.64-2.13,1.05-1.11,2.03-2.28,3.03-3.45.53-.62,1.03-1.27,1.51-1.93.74-1.02,1.6-1.92,2.51-2.79.77-.73,1.72-1.14,2.58-1.68,1.7-1.07,3.35-2.2,4.95-3.41,1.78-1.36,3.64-2.56,5.67-3.52,1.52-.72,3-1.52,4.59-2.06,1.64-.56,3.17-1.39,4.75-2.08,1.4-.61,2.88-.98,4.39-1,2.58-.03,5.15,0,7.73.13.95.05,1.91.38,2.81.74,1.37.54,2.79.84,4.21,1.2,2.4.6,4.56,1.67,6.39,3.4.71.67,1.46,1.31,2.16,1.99,1.65,1.61,3.03,3.42,4.06,5.52.91,1.87,1.76,3.77,2.88,5.53.74,1.18,1.78,1.46,3.05.87,1.48-.69,2.89-1.48,4.28-2.34,1.43-.89,3.03-1.46,4.72-1.58,1.34-.1,2.7-.19,4.04-.11,1.99.12,3.98.28,5.88,1.02,1.51.59,3.08,1.01,4.55,1.72.91.44,1.55,1.16,2.2,1.87.81.87,1.41,1.92,2.34,2.71.64.55,1.22,1.23,1.64,2.03.35.67.8,1.33,1.34,1.86,1.17,1.15,1.67,2.69,2.45,4.07.67,1.18,1.22,2.45,1.45,3.82.07.43.17.85.24,1.28.23,1.47.4,2.94.68,4.4.28,1.49.58,3.7.43,5.02-.19,1.7-.14,3.4-.11,5.11.01.71-.07,1.4-.32,2.1-.66,1.84-.65,3.78-.7,5.7-.01.55-.13,1.1-.13,1.63,0,1.43-.85,2.24-1.92,2.83-1.09.59-2.24,1.06-3.51,1.23-.96.12-1.9.43-2.84.67-1,.26-1.98.57-2.98.81-.58.13-1.18.2-1.77.22-1.08.03-2.17,0-3.25,0,0-.03,0-.05,0-.08Z"></path><path class="cls-1" d="M44.48,83.09c-.31-1.86.16-3.88-.11-5.78-.2-1.69-1.17-3.26-1.21-4.96-.15-4.71-1.49-9.36-1.91-14.04-.31-3.47-.78-6.95-.78-10.45,0-3.37-.76-6.73-1.21-10.08-.74-3.84-3.43-9.84-.46-13.15,1.42-1.54,3.31-3.45,5.55-3.12,1.85.49,3.82,1.25,5.04,2.5,1.35,1.28,1.65,3.03,1.45,4.82.04,2.32-.22,4.64.09,6.93.84,3.46.89,7.14,1.73,10.62.12.53.62,5.22.75,7.05.17,2.38,1.64,13.19,2.47,16.81.99,4.32,1.28,8.78,1.96,13.15.07,7.52-12.8,8.28-13.33-.22v-.09Z"></path><path class="cls-1" d="M200.43,65.17c-.84.05-1.82,1-2.49,1.63-1.24,1.16-2.69.94-4.31.03-1.04-.59-4.18-3.18-2.64-6.95.31-.76,2.86-4.79,3.73-5.5,2.28-1.87,5.06-3.15,7.05-1.84,1.01.67,2.72,2.05,2.45,3.91-.37,2.49-1.13,3.89,2.27,5.81,1.68.95,3.31-.26,4.34-1.72.62-.88.73-1.22.91-2,.77-3.36,1.28-7.04-2.54-11.68-1.57-1.62-3.44-3.46-5.55-4.32-1.79-.72-3.1-.58-5.2.64-1.91,1.11-4.07,1.61-6.06,2.52-.64.26-1.26.57-1.86.93-1.9,1.15-3.54,2.79-4.77,4.71-1.41,2.23-3.2,5.07-4.3,7.88-.38.96-.67,1.91-.85,2.84-1.18,6.24,4.7,12.74,6.28,13.64,3.64,2.05,7.51,1.99,7.89,2.05.58.1.97.05,2.25.01,4.4-.14,7.14-3.9,8.38-5.97.82-1.38-.1-3.78-.99-4.6-1.58-1.46-2.46-2.1-3.98-2.01Z"></path><path class="cls-1" d="M120.42,37.03c-3.54.52-5.05,2.21-5.17,4.5-.08,1.59,1.07,2.73,2.74,3.88,1.53,1.04,3.55,1.63,5.01,2.71,3.14,2.32,2.76,5.11,2.63,7.52-.06,1.14-.5,2.26-1.11,3.25-.78,1.37-2.02,2.55-3.32,3.61-2.57,2.09-4.46,2.8-6.7,4.57-2.01,1.6-4.41,1.85-6.7,1.72-.95-.05-5.94-1.75-5.77-4.95.17-3.21,1.87-3.4,5.45-4.99,3.56-1.58,5.08-2.25,5.16-3.92.05-1.02-1.02-1.41-1.84-2.07-1.52-1.22-3.77-1.9-5.11-3.3-1.96-2.05-2.51-5.81-2.45-8.5.06-2.14,1.06-4.02,2.22-5.8,3.43-5.27,8.5-5.68,10.51-6.26,2.92-.84,6.46-2.04,8.39-.68,3.87,2.73,2.49,5.82,1.63,6.59-2.06,1.83-3.99,1.88-5.59,2.11Z"></path><path class="cls-1" d="M213.57,117.94c-3.9-4.47-3.01-5.62.04-10.35.24-.33.52-.61.82-.85,1.05-.81,2.44-1.09,3.78-.87,2.28.63,4.24,2.13,6.12,3.51.6.44.98,1.07,1.17,1.77s.2,1.45.05,2.15c-.34,1.2-1.23,2.14-2.08,3.03-.61.77-1.13,1.51-1.82,2.02-.53.39-1.15.65-1.99.65-1.42,0-5.17,0-6.09-1.05Z"></path><path class="cls-1" d="M136.53,14.78c.48-3.55.09-7.33,1.09-10.82.62-2.83,3.89-4.69,6.84-3.68,2.99,1.06,3.81,4.72,3.46,7.24-.2,1.44-.98,2.72-1.22,4.2-.32,2.31-.39,4.64-.67,6.96-.51,3.33-1.21,6.64-1.32,10.01-.02.94-.05,3.21,1.11,3.31,2.3.2,2.96-2.1,4.77-2.79.94-.43,2.01-.54,3.04-.68,3.7-.72,5.71-.04,7.84,2.99,2.49,3.42,3.01,6.98,3.31,11.02.07,2.16.36,4.28.59,6.43.1,1.8.77,5.85.44,7.65-.34,1.7-.38,4-1.55,5.38-.75.99-1.71,1.4-2.94,1.29-1.47-.13-6.38-2.39-6.52-7.14-.06-1.93.61-5.95.44-7.87-.1-1.79.54-3.66-.13-5.42-.45-1.14-1.84-1.23-2.81-.61-2.38,1.33-3.01,3.96-4.19,6.14-.57,1.16-1.12,1.4-1.72,2.54-1.89,3.63-3.8,9.15-7.53,8.82-2.06-.18-4.1-1.38-5.16-3.11-.65-1.07-.61-2.36-.63-3.54-.35-2.83.25-4.77.18-7.58-.13-1.37.23-2.71.47-4.02.54-5.35.9-10.74,1.27-16.09.59-3.49,1.33-7.01,1.52-10.57v-.08Z"></path><path class="cls-1" d="M97.66,46.25c.11,1.29-.13,2.65-.38,3.93-.36,1.77-.57,3.77-1.28,5.58-.43,1.11-.67,2.81-.96,3.96-.5,2.09-.65,3.76-1.84,5.69-1.74,3.53-3.75,6-7.5,7.5-1.82.71-4.8,1.71-6.74,1.8-3.38.16-7.62-.94-11.25-5.48-1.77-2.21-2.63-4.81-4.22-7.1-1.35-2.23-1.88-4.81-2.56-7.3-.53-2.46-1.63-5.51.3-7.64,1.44-1.58,3.26-2.45,5.08-2.51,5.97-.23,6.44,5.55,6.49,8.19.1,5.13.73,8.67,6.57,9.97,5.02,1.24,5.14-4.15,5.96-7.42.56-2.24.63-6.54.92-8.81.58-4.46,3.38-6.44,6.52-6.59,1.56-.07,3.23.54,3.98,1.81.7,1.24.72,2.97.91,4.34v.09Z"></path><path class="cls-1" d="M209.96,96.03c-.61-.5-1.12-1.19-1.56-1.85-2.32-3.31-5.03-6.92-3.81-11.15.94-3.29,3.24-5.99,5.33-8.6,1.8-2.2,4.25-3.91,7.01-4.69,2.05-.68,4.24-.98,6.22-1.85s3.81-1.39,6.78.72c2.96,2.11,4.85,4.56,5.62,8.22.31,1.46.08,5.25-.29,6.37-.59,1.81-.77,3.74-1.55,5.48-.78,1.67-2.01,3.05-2.96,4.61-.97,1.27-2.4,2.09-3.69,3-2.1,1.41-4.62,2.51-7.16,2.51-2.06-.02-4.09-.55-6.03-1.23-1.32-.49-2.74-.67-3.85-1.5l-.06-.05ZM220.03,88.24c3.63-.26,4.55-.35,6.27-2.63,1.27-1.68,1.11-4.29,1.03-6.44-.11-.93-.55-1.57-1.15-1.96-.9-.58-2.16-.63-3.3-.34-1.44.2-3,.27-4.2,1.08-.9.54-1.5,1.42-2.13,2.22-.45.56-1.08,1.01-1.45,1.64-.9,1.74-.15,4.69,1.52,6.05,1.57,1.19,1.78.48,3.4.36Z"></path></g></g></svg> 