<?xml version="1.0" encoding="UTF-8"?>
<svg data-bbox="0 0 597.3 597.3" viewBox="0 0 597.3 597.3" xmlns="http://www.w3.org/2000/svg" data-type="ugc">
    <g>
        <path d="M597.3 0v597.3H0V0h597.3z"/>
        <linearGradient y2="239.775" x2="421.777" y1="486.048" x1="175.505" gradientUnits="userSpaceOnUse" id="f0df8645-6724-4ede-91c2-9ffcb3171fd2">
            <stop offset="0" stop-color="#bb9343"/>
            <stop offset=".23" stop-color="#d3ad5d"/>
            <stop offset=".51" stop-color="#ebc577"/>
            <stop offset=".78" stop-color="#dab465"/>
            <stop offset="1" stop-color="#b38b3c"/>
        </linearGradient>
        <path d="M464.8 443 298.6 155.2l-42.3 73.2-18.3-.1 57-99 57.2 99.7h-5.1l3.2 5.5h16.3l-68-117.7-68 117.7h22.2L132.5 443h332.3zM260.5 234.4h35.3l-3.4-5.8-28.5-.2 25.7-44.9L350 286.2c-7.3-8.1-15.8-14.6-25.4-19.2 0-.4.1-.8.1-1.3 0-6.6-5.5-11.9-12.3-11.9-4.7 0-8.8 2.6-10.9 6.4-3.3-.4-6.7-.7-10.2-.7-21.4 0-41.1 7.5-56.6 20.1l25.8-45.2zm31.6 33.6c2.8 0 5.6.2 8.3.4 1.3 5.3 6.2 9.2 12 9.2 3.8 0 7.2-1.7 9.4-4.3 15 5.7 27.9 15.9 38.4 30.3l76.1 129.6H291.1l.1-.1c-21.4 0-39.3-8.1-52.3-21.5 1.3-1.9 2.1-4.1 2.1-6.6 0-6.6-5.5-11.9-12.3-11.9-1 0-1.9.1-2.9.4-1.8-3.4-3.3-6.9-4.7-10.5 2-2.1 3.3-4.9 3.3-8 0-5.1-3.4-9.5-8.1-11.1-.7-4.7-1-9.5-1-14.4 0-46 30.8-81.5 76.8-81.5zm-89.4 99.3c-1.8 2.1-3 4.7-3 7.7 0 5.4 3.8 10 8.9 11.4 2.3 5.2 5.2 10.1 8.4 14.7-.5 1.3-.8 2.6-.8 4 0 6.6 5.5 11.9 12.3 11.9 1.1 0 2.1-.2 3.1-.4 9.9 8 21.8 13.7 35.1 16.7H146.6l55.5-96.8c-.6 4.3-1 8.8-1 13.3 0 6 .5 11.9 1.6 17.5z" fill="url(#f0df8645-6724-4ede-91c2-9ffcb3171fd2)"/>
    </g>
</svg>
