<svg width="68" height="91" viewBox="0 0 68 91" fill="none" xmlns="http://www.w3.org/2000/svg">
<path d="M66.9811 36.5225L67.4028 35.9615L66.7272 35.7732C66.6822 35.7609 62.0063 34.463 56.2413 33.9307C56.053 33.9143 55.8687 33.8979 55.6845 33.8815C56.229 32.4976 56.7449 31.0195 57.224 29.4514C59.1156 23.2728 59.7626 17.9009 59.7666 17.8477L59.8485 17.1516L59.1689 17.3318C59.1156 17.3441 53.887 18.7403 48.0401 21.4836C46.7791 22.0773 45.5835 22.6832 44.4575 23.3056C43.6878 20.1119 42.484 16.6644 40.8462 12.9753C37.7385 5.95742 34.1354 0.630545 34.0986 0.581411L33.7055 0L33.3124 0.581411C33.2756 0.634639 29.6725 5.95742 26.5566 12.9753C24.9188 16.6644 23.7191 20.1119 22.9453 23.3056C21.8193 22.6832 20.6278 22.0773 19.3626 21.4836C13.5117 18.7403 8.28716 17.3441 8.23393 17.3318L7.55426 17.1516L7.63614 17.8477C7.64433 17.9009 8.28716 23.2728 10.1788 29.4514C10.6578 31.0195 11.1737 32.4935 11.7183 33.8815C11.5341 33.8979 11.3498 33.9143 11.1615 33.9307C5.39648 34.463 0.724717 35.7609 0.675584 35.7732L0 35.9615L0.421728 36.5225C0.450389 36.5593 3.38611 40.4204 7.65252 44.3347C8.57377 45.1781 9.48274 45.9602 10.3794 46.6808C10.2484 46.7668 10.1215 46.8569 9.99045 46.9469C5.75679 49.8663 2.69824 52.9003 2.66958 52.9289L2.17415 53.4243L2.81698 53.7069C2.85792 53.7232 6.80907 55.4388 11.8125 56.618C15.0225 57.3755 17.9214 57.7522 20.4927 57.7522C23.3383 57.7522 25.7827 57.2895 27.7972 56.3601C30.6838 55.0335 32.6368 52.757 33.6072 49.5878C33.6441 49.4691 33.6727 49.3504 33.6973 49.2275C33.7219 49.3463 33.7546 49.4691 33.7874 49.5878C34.7578 52.7529 36.7108 55.0335 39.5974 56.3601C41.616 57.2895 44.0563 57.7522 46.9019 57.7522C49.4691 57.7522 52.368 57.3755 55.5821 56.618C60.5855 55.4388 64.5408 53.7273 64.5776 53.7069L65.2204 53.4243L64.725 52.9289C64.6964 52.9003 61.6378 49.8663 57.4041 46.9469C57.2731 46.8569 57.1462 46.7709 57.0152 46.6808C57.9119 45.9602 58.8208 45.1781 59.7421 44.3347C64.0085 40.4204 66.9442 36.5593 66.9729 36.5225H66.9811ZM58.7267 18.4537C58.4114 20.6155 57.2813 27.3222 54.6732 33.8078C51.1478 33.5745 48.0197 33.7055 45.3092 34.1927C45.6899 31.2488 45.4852 27.9446 44.6909 24.2924C50.5664 21.0045 56.6958 19.0515 58.7267 18.4537ZM23.6127 24.8001C27.3755 27.007 30.9376 29.7748 33.1405 33.0913C32.9235 33.4475 32.7187 33.8078 32.5345 34.1723C31.8139 35.593 31.3594 37.0466 31.171 38.5287C30.5159 37.8491 29.7707 37.2349 28.9314 36.6985C27.31 35.6585 25.361 34.8888 23.1009 34.3893C22.6628 31.3307 22.9412 28.0347 23.6127 24.8001ZM44.3142 34.3893C42.05 34.8888 40.1051 35.6626 38.4837 36.6985C37.6443 37.239 36.8992 37.8491 36.244 38.5287C36.0557 37.0466 35.6012 35.593 34.8806 34.1723C34.6963 33.8078 34.4916 33.4475 34.2746 33.0913C36.4733 29.7748 40.0396 27.007 43.8024 24.8001C44.4739 28.0306 44.7564 31.3266 44.3142 34.3852V34.3893ZM41.4849 41.4645C39.2494 41.7797 37.2963 42.746 35.6544 44.347C36.1417 42.832 36.371 41.3334 36.3423 39.8635C37.0711 38.9587 37.9596 38.1725 38.9996 37.5051C40.5064 36.5388 42.2629 35.8715 44.1422 35.4252C44.089 35.679 44.0358 35.9329 43.9703 36.1826C43.4748 38.1684 42.6396 39.929 41.4849 41.4645ZM34.4261 44.9447C34.3975 45.0144 34.3688 45.084 34.336 45.1536C34.336 45.1413 34.336 45.1331 34.3319 45.1208C34.291 44.8751 34.246 44.6295 34.1968 44.392C34.4425 43.3111 34.8151 42.312 35.3105 41.4071C35.1836 42.5741 34.8929 43.7533 34.4261 44.9447ZM33.079 45.1208C33.079 45.1208 33.079 45.1413 33.0749 45.1536C33.0422 45.084 33.0135 45.0184 32.9849 44.9447C32.5181 43.7533 32.2274 42.57 32.1005 41.4071C32.5959 42.312 32.9685 43.3111 33.2142 44.392C33.165 44.6336 33.1159 44.8751 33.079 45.1208ZM32.1087 46.1526C32.1291 46.1813 32.1496 46.2058 32.1701 46.2345C31.8384 46.1362 31.5109 46.0052 31.1956 45.8414C29.5169 44.9611 28.092 43.8884 26.9128 42.6355C28.9355 43.1718 30.6756 44.347 32.1046 46.1526H32.1087ZM35.3064 46.1526C36.7354 44.347 38.4755 43.1718 40.4982 42.6355C39.3231 43.8884 37.8982 44.9611 36.2154 45.8414C35.9001 46.0052 35.5767 46.1362 35.2409 46.2345C35.2614 46.2058 35.2819 46.1772 35.3023 46.1526H35.3064ZM34.0289 34.6063C34.8437 36.2113 35.29 37.8654 35.3719 39.5565C34.6718 40.4859 34.1149 41.5177 33.7096 42.656C33.3042 41.5177 32.7474 40.4818 32.0472 39.5565C32.1291 37.8654 32.5754 36.2113 33.3902 34.6104C33.4926 34.4097 33.599 34.2132 33.7137 34.0167C33.8242 34.2132 33.9348 34.4097 34.033 34.6104L34.0289 34.6063ZM28.4196 37.5051C29.4595 38.1725 30.348 38.9587 31.0769 39.8635C31.0482 41.3375 31.2775 42.832 31.7647 44.347C30.1228 42.746 28.1657 41.7797 25.9342 41.4645C24.7796 39.929 23.9443 38.1684 23.4489 36.1826C23.3875 35.9329 23.3302 35.679 23.2769 35.4211C25.1563 35.8674 26.9128 36.5388 28.4196 37.5051ZM22.5195 36.416C22.9739 38.2421 23.6946 39.8881 24.6731 41.358C22.5686 41.2884 20.2675 41.7347 17.7822 42.6928C15.8946 40.4204 14.3633 37.6321 13.135 34.7537C16.128 34.5776 19.3176 34.6431 22.2615 35.2081C22.3352 35.6176 22.4212 36.0229 22.5195 36.416ZM24.927 42.3243C25.0867 42.3325 25.2464 42.3489 25.406 42.3652C26.7859 44.1013 28.5711 45.5466 30.7534 46.6931C31.2652 46.9633 31.8016 47.1517 32.3543 47.2745C32.0227 47.4506 31.6665 47.5857 31.2939 47.6716C27.5474 48.552 24.1245 47.9296 21.1151 45.821C20.1652 45.1536 19.2808 44.3592 18.4619 43.4707C20.6278 42.6682 22.8347 42.2015 24.9311 42.3243H24.927ZM20.5623 46.603C22.8552 48.2121 25.3692 49.0187 28.0674 49.0187C29.1852 49.0187 30.3358 48.8795 31.5109 48.6011C31.9408 48.4987 32.3461 48.3472 32.731 48.1548C32.5836 48.3677 32.4116 48.5724 32.2192 48.7567C29.738 51.1274 26.8227 52.1919 23.5594 51.9299C19.6124 51.6146 15.5835 49.4159 12.05 46.7463C13.7573 45.6613 15.608 44.6377 17.5038 43.8474C18.4701 44.9325 19.4937 45.8496 20.5664 46.603H20.5623ZM34.68 48.1548C35.0648 48.3513 35.4702 48.5028 35.9001 48.6011C37.0793 48.8795 38.2258 49.0187 39.3435 49.0187C42.0418 49.0187 44.5558 48.2121 46.8487 46.603C47.9214 45.8496 48.9409 44.9325 49.9113 43.8474C51.807 44.6377 53.6618 45.6613 55.3651 46.7463C51.8316 49.4159 47.8027 51.6105 43.8556 51.9258C40.5883 52.1878 37.673 51.1192 35.1918 48.7526C34.9993 48.5683 34.8274 48.3677 34.68 48.1507V48.1548ZM46.3 45.821C43.2906 47.9296 39.8635 48.552 36.1171 47.6716C35.7445 47.5857 35.3883 47.4465 35.0567 47.2745C35.6053 47.1557 36.1458 46.9633 36.6576 46.6931C38.8399 45.5466 40.6251 44.1013 42.0049 42.3652C42.1646 42.3489 42.3243 42.3366 42.484 42.3243C42.7092 42.312 42.9344 42.3038 43.1596 42.3038C45.0471 42.3038 47.0124 42.7501 48.9491 43.4707C48.1302 44.3592 47.2499 45.1536 46.3 45.821ZM42.7378 41.358C43.7164 39.8922 44.437 38.2421 44.8915 36.416C44.9898 36.0229 45.0758 35.6217 45.1495 35.2122C47.1762 34.8233 49.3176 34.6677 51.4344 34.6677C52.3925 34.6677 53.3465 34.7004 54.2801 34.7537C53.0518 37.6321 51.5204 40.4204 49.6329 42.6928C47.1476 41.7347 44.8424 41.2884 42.7419 41.358H42.7378ZM27.4205 13.3766C29.8977 7.78764 32.6901 3.28784 33.7014 1.71557C34.7168 3.28784 37.5092 7.78764 39.9823 13.3766C41.3212 16.3942 42.6928 20.0341 43.5731 23.8051C39.0979 26.3887 35.7896 29.2057 33.6973 32.2233C31.605 29.2057 28.3008 26.3887 23.8215 23.8051C24.7018 20.0341 26.0734 16.3942 27.4123 13.3766H27.4205ZM8.68432 18.4537C10.7111 19.0515 16.8446 21.0004 22.7201 24.2924C21.9299 27.9446 21.721 31.2488 22.1018 34.1927C19.3913 33.7055 16.2631 33.5745 12.7378 33.8078C10.1297 27.3263 8.9996 20.6155 8.68432 18.4537ZM1.63778 36.5143C3.22642 36.1212 7.34134 35.1959 12.1032 34.8233C13.4871 38.1398 15.0717 40.8953 16.8405 43.0736C15.0594 43.8352 13.1882 44.8547 11.2352 46.1199C6.5593 42.4185 2.8743 38.0497 1.63778 36.5143ZM27.4041 55.4879C19.7311 59.0174 6.9319 54.3251 3.87335 53.105C4.97475 52.0732 7.72213 49.6165 11.1819 47.3072C15.6039 50.7056 19.727 52.5768 23.4776 52.8798C23.8297 52.9084 24.1777 52.9207 24.5216 52.9207C27.5147 52.9207 30.2088 51.8521 32.555 49.7353C31.6255 52.4048 29.8977 54.3415 27.4041 55.4879ZM63.5376 53.105C60.4791 54.3251 47.6798 59.0174 40.0068 55.4879C37.5133 54.3415 35.7814 52.4048 34.856 49.7353C37.2021 51.8521 39.9004 52.9207 42.8893 52.9207C43.2333 52.9207 43.5813 52.9084 43.9334 52.8798C47.6839 52.5768 51.807 50.7056 56.229 47.3072C59.6929 49.6165 62.4362 52.0732 63.5376 53.105ZM50.5705 43.0736C52.3393 40.8994 53.9239 38.1439 55.3078 34.8233C60.0696 35.1918 64.1846 36.1212 65.7732 36.5143C64.5367 38.0497 60.8517 42.4185 56.1758 46.1199C54.2187 44.8547 52.3516 43.8352 50.5664 43.0736H50.5705Z" fill="#212121"/>
<path d="M18.1674 67.8983C18.1469 67.7427 18.1019 67.4275 18.0773 67.1163C18.0323 67.4275 17.8972 67.7632 17.8521 67.8983L14.077 78.4252C13.9665 78.7159 13.7208 78.9411 13.1845 78.9411C12.8487 78.9411 11.8456 78.851 11.6859 78.4252L7.86577 67.8983C7.80026 67.6977 7.68561 67.3374 7.66514 67.0508C7.64467 67.3415 7.6201 67.7427 7.59963 67.8779L6.12563 78.4047C6.06012 78.896 4.89729 78.9411 4.20533 78.9411C3.95967 78.9411 3.40282 78.7855 3.51337 78.2245L6.06012 62.8253C6.12563 62.3995 7.1779 62.334 7.66923 62.334C8.05002 62.334 8.34072 62.4896 8.47584 62.8253L12.5212 74.0441C12.6767 74.4249 12.8774 75.0063 12.9675 75.297C12.9879 75.0063 13.2131 74.4494 13.3482 74.0687L17.3485 62.8294C17.5041 62.4282 18.6014 62.3381 18.9576 62.3381C19.494 62.3381 19.7192 62.5837 19.7601 62.8294L22.2414 78.2286C22.3315 78.8305 21.7705 78.9452 21.5248 78.9452C20.8083 78.9452 19.6701 78.9001 19.6045 78.4088L18.1756 67.9065L18.1674 67.8983Z" fill="#212121"/>
<path d="M25.4961 63.161C25.4961 62.7597 25.8073 62.5796 26.1881 62.5796H35.1508C35.4865 62.5796 35.7322 62.8703 35.7322 63.2265C35.7322 63.7178 35.6421 64.9707 35.2859 64.9707H28.178V69.3068H34.2992C34.5899 69.3068 34.8601 69.5975 34.8601 69.9332C34.8601 70.4246 34.77 71.6979 34.4138 71.6979H28.178V76.2796H35.1508C35.4865 76.2796 35.7322 76.5703 35.7322 76.9265C35.7322 77.3974 35.6421 78.6708 35.2859 78.6708H26.5033C25.9014 78.6708 25.4961 78.5357 25.4961 78.2245V63.161Z" fill="#212121"/>
<path d="M44.8958 62.5796C49.6126 62.5796 51.8686 64.0986 51.8686 68.6803V72.57C51.8686 77.1517 49.6126 78.6708 44.8958 78.6708H40.224C39.6221 78.6708 39.1963 78.6257 39.1963 78.2245V63.161C39.1963 62.6901 39.4624 62.5796 39.9128 62.5796H44.8958ZM41.8781 64.9707V76.2796H44.8958C48.1795 76.2796 49.1212 75.1168 49.1212 72.1893V69.0816C49.1212 66.154 48.1836 64.9707 44.8958 64.9707H41.8781Z" fill="#212121"/>
<path d="M59.4229 76.726C60.7863 76.726 62.1702 76.2101 62.1702 74.515C62.1702 71.0306 55.0418 71.8331 55.0418 66.7601C55.0418 63.6524 56.8966 62.334 60.0493 62.334C61.032 62.334 63.2225 62.4445 64.0946 62.8253C64.4959 63.0055 64.5409 63.1611 64.4959 63.6278C64.4304 64.3894 64.1601 65.0118 63.6934 64.9258C62.9318 64.8152 61.8591 64.59 60.1844 64.59C58.5098 64.59 57.6827 65.2369 57.6827 66.4653C57.6827 69.7941 64.8112 69.0816 64.8112 74.2406C64.8112 78.0403 62.1743 78.9329 59.558 78.9329C57.8588 78.9329 56.1391 78.7322 55.2015 78.4415C54.7552 78.2859 54.7306 78.1508 54.7757 77.7045C54.8657 76.8775 55.0869 76.0954 55.5127 76.1855C56.0286 76.2961 57.6786 76.7219 59.4229 76.7219V76.726Z" fill="#212121"/>
<path d="M18.9124 87.662C18.9124 88.8616 19.1499 89.3284 20.3496 89.3284H20.4192C20.9801 89.3284 21.4551 89.2424 21.7089 89.1974C21.8932 89.1728 21.9546 89.6191 21.9546 89.8893C21.9546 90.135 20.8777 90.2128 20.3168 90.2128H20.2472C18.6258 90.2128 17.8438 89.615 17.8438 87.8217V86.0938C17.8438 84.2963 18.6422 83.7026 20.2963 83.7026H20.3659C20.8655 83.7026 21.9505 83.8009 21.9505 84.0179C21.9505 84.3864 21.8973 84.7263 21.758 84.7099C21.5574 84.6853 21.0047 84.587 20.4683 84.587H20.3987C19.154 84.587 18.9083 85.0497 18.9083 86.2535V87.6661L18.9124 87.662Z" fill="#212121"/>
<path d="M30.4139 88.7224H28.0841L27.6624 90.0286C27.601 90.2046 27.2693 90.2128 26.9254 90.2128C26.7657 90.2128 26.5938 90.1678 26.5938 90.0286C26.5938 90.004 26.6019 89.9753 26.6101 89.9508L28.7556 83.8869C28.8088 83.7313 29.2797 83.7026 29.5254 83.7026C29.6318 83.7026 29.726 83.7722 29.771 83.8951L31.892 89.9508C31.9002 89.9753 31.9083 90.004 31.9083 90.0286C31.9083 90.1678 31.7241 90.2128 31.5767 90.2128C31.1918 90.2128 30.8929 90.1964 30.8315 90.004L30.4098 88.7224H30.4139ZM28.3544 87.8831H30.1436L29.3207 85.3404C29.2961 85.2544 29.2674 85.1316 29.2592 85.0333C29.2429 85.1316 29.2224 85.2544 29.1896 85.3404L28.3585 87.8831H28.3544Z" fill="#212121"/>
<path d="M37.8775 89.959C37.8775 90.1064 37.7628 90.2129 37.554 90.2129C37.3616 90.2129 36.8252 90.1883 36.8252 90.0122V84.0057C36.8252 83.8747 36.9398 83.7969 37.1241 83.7969H40.5266C40.6494 83.7969 40.7477 83.9197 40.7477 84.0507C40.7477 84.2432 40.7108 84.7345 40.5716 84.7345H37.8816V86.5402H40.0803C40.2031 86.5402 40.3014 86.6548 40.3014 86.7858C40.3014 86.9865 40.2645 87.4778 40.1253 87.4778H37.8816V89.959H37.8775Z" fill="#212121"/>
<path d="M45.6289 84.0262C45.6289 83.8706 45.7517 83.7969 45.8991 83.7969H49.4122C49.5432 83.7969 49.6415 83.9115 49.6415 84.0507C49.6415 84.2432 49.6046 84.7345 49.4654 84.7345H46.6771V86.4337H49.0805C49.1952 86.4337 49.3016 86.5483 49.3016 86.6794C49.3016 86.8718 49.2648 87.3713 49.1256 87.3713H46.6812V89.1688H49.4163C49.5473 89.1688 49.6456 89.2834 49.6456 89.4226C49.6456 89.6069 49.6087 90.1064 49.4695 90.1064H46.0261C45.7886 90.1064 45.633 90.0532 45.633 89.9304V84.0221L45.6289 84.0262Z" fill="#212121"/>
</svg>
