<?xml version="1.0" encoding="UTF-8"?>
<svg xmlns="http://www.w3.org/2000/svg" width="261" height="228" viewBox="0 0 261 228" fill="none">
  <g clip-path="url(#clip0_10472_16573)">
    <path d="M226.569 137.112C226.569 137.112 223.71 134.337 223.119 131.983C222.529 129.629 222.782 129.039 222.192 127.782C221.716 126.762 217.04 121.326 215.238 119.256C213.988 118.466 212.968 117.845 212.393 117.485C211.489 116.925 208.238 114.84 204.336 112.325C204.014 114.817 201.001 117.654 201.001 117.654C201.629 116.389 201.76 112.44 201.76 112.44C201.591 114.035 199.406 116.059 198.562 116.519C197.719 116.979 196.922 117.025 196.669 117.7C196.416 118.374 194.905 118.413 193.303 117.953C191.701 117.493 190.865 116.312 190.65 115.009C190.443 113.705 190.275 113.245 189.807 111.52C189.439 110.14 189.738 108.116 189.876 107.357C189.853 107.357 189.822 107.357 189.799 107.357C188.688 107.457 187.538 107.518 186.457 107.503C186.395 108.799 186.25 111.996 186.296 113.192C186.357 114.702 186.012 116.941 185.314 117.477C184.616 118.014 184.087 118.865 182.822 118.612C181.557 118.359 180.423 117.953 179.48 117.922C178.537 117.891 175.194 115.522 174.151 112.939C174.151 112.939 174.466 117.324 176.106 119.938C176.106 119.938 173.423 119.908 172.388 114.832C171.345 109.757 172.925 109.343 173.147 107.925C173.369 106.506 173.308 105.686 173.967 105.088C174.627 104.49 174.535 103.861 175.041 102.757C175.547 101.653 177.088 101.814 177.816 101.4C178.544 100.986 178.981 97.5206 178.981 97.5206L180.308 100.388C180.308 100.388 183.367 98.6553 182.293 95.2129C182.293 95.2129 184.908 96.6006 183.773 99.123C183.773 99.123 186.71 99.3453 186.173 96.2556C185.797 94.0705 184.601 92.5832 183.926 91.9008C183.505 91.7551 183.052 91.5865 182.631 91.3718C182.094 91.7705 181.128 91.9852 180.154 91.8702C179.802 92.1692 178.882 92.9435 178.031 93.4419C176.957 94.0705 173.99 94.0092 173.99 94.0092L173.929 96.8459L172.986 96.2786C172.986 96.2786 169.137 100.564 169.267 106.752L167.312 104.229C167.312 104.229 166.047 107.127 165.357 109.021C165.357 109.021 166.047 106.943 162.582 102.78C159.117 98.617 159.117 97.1679 156.97 95.5886C154.823 94.0092 154.003 91.5481 154.003 91.5481L153.558 97.6663C153.558 97.6663 150.721 95.0826 149.395 91.7398C148.069 88.3971 148.766 82.5933 148.766 82.5933C148.766 82.5933 145.171 87.6994 145.301 91.8625C145.301 91.8625 142.648 89.4014 143.346 83.728C143.346 83.728 140.317 85.683 139.75 90.6051C139.183 95.5272 142.464 97.2523 142.802 104.398C143.139 111.543 138.93 115.584 131.531 115.499C131.531 115.499 133.256 118.673 139.566 117.094C145.876 115.515 147.195 107.189 146.566 103.723C146.566 103.723 152.178 107.258 153.251 115.515C153.251 115.515 156.28 110.846 156.027 107.066C156.027 107.066 164.729 113.629 157.537 123.404C157.537 123.404 159.048 119.049 156.847 113.437C156.847 113.437 156.027 118.29 150.476 121.51C150.476 121.51 150.852 115.269 148.897 111.674C148.897 111.674 149.019 116.849 145.071 120.628C141.115 124.416 138.684 123.22 138.01 127.337C138.01 127.337 140.448 125.344 145.079 124.753C149.702 124.163 149.364 125.42 150.706 123.396C150.706 123.396 151.887 124.907 149.027 128.694C146.167 132.481 144.91 136.936 145.746 140.884C145.746 140.884 148.268 136.599 152.224 134.321C156.18 132.052 157.859 129.867 157.438 125.236C157.438 125.236 160.129 127.421 158.948 132.55C157.767 137.68 153.734 140.033 155.329 148.359C155.329 148.359 156.594 142.387 159.531 138.692C159.531 138.692 156.165 154.332 164.069 165.602C164.069 165.602 158.856 147.608 165.748 135.157C165.748 135.157 163.226 155.505 174.075 166.944C174.075 166.944 172.227 160.381 172.227 153.573C172.227 153.573 174.918 155.336 180.131 171.904C180.131 171.904 179.035 161.056 181.312 156.939C181.312 156.939 181.987 165.602 185.429 170.563C185.429 170.563 188.036 165.602 185.935 156.433C185.935 156.433 192.582 161.899 189.723 178.805C189.723 178.805 198.723 173.675 190.903 157.023C190.903 157.023 196.117 157.445 200.403 168.378C200.403 168.378 201.246 159.039 195.02 150.468C195.02 150.468 204.021 151.143 204.443 167.036C204.443 167.036 205.455 168.048 206.375 157.031C207.303 146.013 211.588 139.535 211.588 139.535L213.352 154.669C213.352 154.669 215.284 149.371 214.778 143.146C214.272 136.921 215.115 135.916 213.85 132.129C213.85 132.129 215.361 132.213 216.288 136.415C217.216 140.616 218.811 141.291 219.907 143.897C221.003 146.504 220.835 151.633 220.835 151.633C220.835 151.633 224.622 148.858 222.598 143.729C220.582 138.6 217.722 135.403 218.979 128.257C218.979 128.257 220.827 136.583 226.546 137.089L226.569 137.112ZM168.079 120.628C168.079 123.849 167.887 134.314 167.887 134.314C166.247 130.779 166.308 125.359 166.308 125.359C164.92 126.555 163.471 129.714 163.471 129.714C163.471 129.714 161.708 126.816 162.459 121.012C163.218 115.208 168.455 115.17 168.455 115.17C164.545 119.356 164.483 123.787 164.483 123.787C165.871 121.641 168.079 120.636 168.079 120.636V120.628ZM182.838 150.713C180.124 147.562 177.663 140.493 177.663 140.493C176.022 143.33 174.006 150.207 174.006 150.207C174.006 150.207 171.108 145.852 170.916 139.236C170.724 132.612 173.63 128.196 173.63 128.196C172.871 131.853 173.691 140.999 173.691 140.999C175.708 133.493 182.707 130.404 182.707 130.404C179.679 135.702 181.511 143.836 181.511 143.836C182.646 139.359 186.119 139.612 186.119 139.612C183.658 142.64 182.838 150.713 182.838 150.713ZM194.192 150.062C194.192 150.062 192.007 145.607 190.574 144.764C190.574 144.764 190.658 151.572 191.333 154.685C191.333 154.685 187.377 148.543 188.22 137.358C188.22 137.358 190.574 138.784 192.007 142.234C192.007 142.234 192.26 137.611 188.519 127.184C188.519 127.184 193.019 131.891 194.614 138.285C196.209 144.679 194.192 150.062 194.192 150.062ZM206.559 139.213C205.8 144.173 201.177 146.864 201.177 146.864C202.02 136.775 194.951 127.437 194.951 127.437C202.097 130.634 203.446 138.454 203.446 138.454C204.205 135.594 203.784 129.622 203.784 129.622C203.784 129.622 207.318 134.245 206.559 139.205V139.213ZM211.197 134.62C211.197 134.62 209.012 126.547 201.89 122.277C201.89 122.277 207.303 121.993 209.672 125.888C212.048 129.783 211.19 134.62 211.19 134.62H211.197ZM215.828 126.678C215.269 126.057 214.908 125.489 214.479 124.983C214.295 124.723 214.065 124.485 213.889 124.232C213.674 124.002 213.498 123.749 213.283 123.519L212.033 122.062C211.596 121.549 211.144 121.035 210.653 120.375C211.067 120.306 211.466 120.345 211.849 120.421C212.041 120.46 212.232 120.513 212.416 120.575C212.6 120.636 212.784 120.713 212.961 120.79C213.666 121.119 214.303 121.618 214.816 122.223C215.085 122.515 215.292 122.867 215.491 123.205C215.66 123.573 215.836 123.925 215.913 124.324C216.12 125.091 216.097 125.919 215.821 126.685L215.828 126.678Z" fill="white"></path>
    <path d="M233.232 93.6949C233.232 93.6949 218.788 94.2622 219.355 83.1606C219.355 83.1606 221.027 83.314 223.02 82.9613C224.822 82.6393 226.876 81.9109 228.21 80.2779C228.954 79.3655 229.475 78.1695 229.575 76.6055C229.575 76.6055 228.931 77.5102 227.72 78.4608C226.501 79.4192 224.714 80.4236 222.43 80.6152C220.459 80.7839 218.113 80.3469 215.453 78.7445C215.453 78.7445 215.828 82.7159 217.216 85.1157L214.502 83.6053C214.502 83.6053 217.4 90.2908 218.473 91.6172C218.473 91.6172 215.759 91.7398 213.298 87.5767C213.298 87.5767 213.176 92.1845 215.882 95.9029C215.882 95.9029 213.107 95.5272 211.596 92.7518C211.596 92.7518 211.658 100.633 214.057 104.543C214.057 104.543 209.772 101.96 208.131 97.858C208.131 97.858 208.951 101.707 206.552 105.425C206.552 105.425 206.996 100.319 204.474 96.8459C204.474 96.8459 204.351 98.4253 203.906 99.6213C203.906 99.6213 203.147 96.2173 201.698 94.6992C200.249 93.1889 199.552 92.4912 198.67 92.3685C197.842 92.2535 196.347 92.9129 195.12 91.1648C194.415 91.5865 193.441 91.8318 192.115 91.8012C191.962 92.0312 191.785 92.2535 191.571 92.4682C191.295 92.7442 190.835 92.8899 190.298 92.9512C190.068 93.5952 189.815 94.7452 190.466 96.1253C191.479 98.272 192.138 98.019 192.138 98.019C192.138 98.019 194.438 96.9456 193.587 95.0212C193.587 95.0212 195.228 96.0026 194.438 98.111C194.438 98.111 196.615 99.56 198.478 97.7353C198.478 97.7353 198.164 100.097 199.421 100.541C200.679 100.986 202.358 99.4067 202.358 99.4067C202.358 99.4067 201.79 100.603 202.266 101.423C202.741 102.243 203.147 102.243 203.147 102.243C203.147 102.243 204.658 102.588 204.911 105.08C205.041 106.361 205.072 107.035 205.072 107.388L220.889 116.404L222.322 116.151C222.322 116.151 218.857 112.686 217.339 108.392C217.339 108.392 221.816 112.111 225.473 112.808C225.473 112.808 225.282 109.404 222.89 107.005C220.498 104.605 217.714 102.841 219.547 97.168C219.547 97.168 220.697 99.491 222.69 102.044C223.81 102.22 225.788 102.512 227.367 102.596C227.367 102.596 220.804 99.9434 221.755 92.7595C221.755 92.7595 228.249 98.18 233.232 93.7025V93.6949Z" fill="white"></path>
    <path d="M53.4123 77.1503C53.4123 77.1503 54.4626 75.134 54.4243 73.1099C54.386 71.0859 53.0979 69.1538 53.0979 69.1538C53.0979 69.1538 52.7223 71.6149 52.8449 74.0069C52.9676 76.4066 53.4123 77.1427 53.4123 77.1427V77.1503Z" fill="white"></path>
    <path d="M123.464 110.363C119.424 108.768 117.875 105.356 116.234 100.058C115.575 97.9347 115.268 95.4124 115.123 93.143C114.379 95.1594 112.869 100.457 114.716 106.322C114.716 106.322 110.262 101.784 109.419 92.867C109.419 92.867 107.824 97.4057 108.491 101.446C109.166 105.487 111.772 109.519 109.503 112.801C109.503 112.801 108.575 108.093 106.812 105.487C106.467 104.981 106.145 104.467 105.846 103.915C105.056 103.148 104.343 102.612 104.343 102.612C104.343 102.612 104.788 104.314 104.596 105.893C104.466 106.951 103.668 108.569 103.162 109.519C102.963 111.927 101.598 114.618 97.9413 116.021C97.9413 116.021 100.211 112.364 100.594 108.768C100.97 105.172 98.4473 103.348 98.4473 103.348C98.4473 103.348 101.43 104.084 102.587 106.092C102.626 105.134 102.396 103.892 101.79 102.274C100.939 100.012 99.1373 99.1844 97.9183 98.8854C98.225 100.166 98.1023 101.96 98.1023 101.96C98.1023 101.96 97.4429 100.764 95.9556 98.8088C94.4682 96.8537 93.7475 95.8417 92.2985 95.374C90.8495 94.9063 88.0127 93.6106 88.0127 93.6106C88.0127 93.6106 85.59 91.1879 84.463 91.0653C84.4476 91.0653 84.4323 91.0653 84.417 91.0653C84.417 91.0653 84.6087 90.9886 84.877 90.8429H83.566C83.4893 90.8429 82.0249 90.9043 81.3579 90.9273C81.3579 90.9656 81.3732 91.0039 81.3732 91.0423C81.3732 91.0883 81.3809 91.1343 81.3886 91.1803C81.4729 92.6293 80.3152 95.075 77.2561 94.9523C74.3351 94.8373 73.4687 93.1276 73.4917 92.0773C73.4917 91.9929 73.4917 91.9163 73.5147 91.8396C73.5301 91.7553 73.5454 91.6786 73.5684 91.6019L72.909 91.4716L72.1424 91.8396C72.3877 91.9929 72.5487 92.0926 72.5487 92.0926C71.8357 92.1999 70.195 93.902 69.3133 95.374C68.4316 96.8461 68.5159 96.639 66.5379 98.8241C64.5598 101.009 64.7285 105.341 64.7285 105.341C63.0495 104.965 63.3791 102.987 63.3791 102.987C61.4011 106.307 62.3671 111.267 62.3671 111.267C62.3671 111.267 60.2664 108.783 60.3047 105.425C60.3354 102.696 61.8918 101.185 62.4821 100.71C62.4285 98.4714 62.0911 91.4486 60.0364 89.2329C60.0364 89.2329 60.6038 98.8854 59.2774 102.734C59.2774 102.734 57.8897 89.5549 55.6203 86.8408C55.6203 86.8408 56.755 97.1834 56.065 106.33C55.375 115.476 49.8855 126.325 43.89 130.427C37.8945 134.529 32.5354 133.77 32.5354 133.77C32.5354 133.77 36.1312 138.5 40.8616 134.398C40.8616 134.398 38.5922 139.19 32.3438 136.982C32.3438 136.982 33.6088 141.03 39.8726 137.511C43.683 134.015 48.1758 131.37 48.1758 131.37C31.4621 146.129 46.0981 155.589 46.0981 155.589C40.4246 145.5 51.1429 132.88 51.1429 132.88C43.4453 150.292 55.306 160.887 55.306 160.887C55.306 160.887 52.4079 152.185 52.2775 144.618C52.1472 137.051 56.6937 132.635 56.6937 132.635C52.1549 156.977 61.2324 164.974 61.2324 164.974C55.3443 145.462 62.1141 141.973 62.1141 141.973C62.3671 148.467 63.6935 154.332 67.6649 160.328C71.6363 166.323 73.9057 171.429 73.9057 171.429C76.3055 166.254 73.3384 156.923 73.3384 156.923C81.3502 165.503 77.6931 181.963 77.6931 181.963C81.6032 176.98 80.9132 165.503 80.9132 165.503C84.6316 173.89 79.3339 184.486 79.3339 184.486C89.9908 174.902 83.8113 161.593 83.8113 161.593C93.9009 166.07 94.7826 176.727 94.7826 176.727C94.7826 176.727 96.4846 172.503 95.6642 167.642C94.8439 162.789 90.2438 160.328 90.2438 160.328C92.7662 159.883 96.4693 162.451 96.4693 162.451C96.2163 157.491 93.1035 153.703 93.1035 153.703C96.0476 154.715 101.261 160.098 101.261 160.098C99.835 157.912 97.2206 152.024 96.3849 146.811C95.7716 142.993 96.4156 139.941 96.8066 138.584C93.5329 133.417 94.8899 128.824 95.4649 127.391C93.8549 121.909 95.9862 117.631 95.9862 117.631C95.9862 117.631 96.4309 122.553 98.1943 128.104C99.9347 133.57 101.79 137.687 101.79 137.687C100.157 136.56 98.754 134.874 97.558 132.604C96.8526 135.656 100.97 143.177 100.97 143.177C99.9193 142.318 99.0377 141.452 98.3016 140.585C98.3016 142.103 98.4396 145.086 99.329 147.823C100.594 151.695 103.032 155.559 104.627 158.503C106.221 161.447 106.643 166.239 106.643 166.239C107.234 164.56 107.571 161.194 106.559 153.121C105.547 145.048 103.024 140.256 103.024 140.256C107.479 143.368 111.266 150.851 111.266 150.851C109.587 137.733 104.205 135.548 104.205 135.548C114.885 136.139 116.357 154.094 116.357 154.094C117.2 151.319 117.154 145.14 115.138 139.167C113.122 133.195 109.587 128.824 109.587 128.824C114.847 131.263 117.323 139.466 117.323 139.466C117.66 136.568 116.104 128.786 116.104 128.786L118.542 132.321C118.542 132.321 119.807 132.827 121.571 134.552C123.334 136.277 123.334 139.934 123.334 139.934C124.844 138.086 124.177 131.945 122.406 129.675C120.643 127.406 117.906 127.575 115.215 123.366C112.524 119.164 113.198 114.618 113.198 114.618C113.198 114.618 114.548 120.084 118.833 121.51C123.119 122.936 124.469 121.089 124.469 121.089C120.934 121.342 117.323 118.482 115.805 115.622C114.295 112.762 115.13 109.312 115.13 109.312C115.13 109.312 115.13 110.738 116.978 113.598C118.826 116.458 122.023 117.301 122.023 117.301L117.653 110.823C119.753 112.586 123.878 114.94 127.405 114.273C130.939 113.598 128.915 109.144 128.915 109.144C128.915 109.144 127.489 112.003 123.449 110.409L123.464 110.363ZM52.7222 129.077C52.7222 129.077 54.7999 123.082 56.3793 119.87C57.9587 116.657 57.3223 112.87 57.3223 112.87C58.7714 113.629 59.6531 116.274 59.4001 119.808C59.147 123.343 52.7146 129.077 52.7146 129.077H52.7222ZM61.3628 139.865C59.5994 134.506 62.2445 129.583 62.2445 129.583C61.3014 129.898 58.273 132.482 58.273 132.482C58.273 132.482 58.9017 126.931 60.6728 124.531C62.4361 122.131 62.5051 117.593 62.5051 117.593C65.2805 123.266 62.2521 127.245 62.2521 127.245C64.0845 125.919 66.2235 125.413 66.2235 125.413C63.1951 129.952 61.3704 139.857 61.3704 139.857L61.3628 139.865ZM78.6438 155.444C74.2737 152.837 69.2213 141.229 69.2213 141.229C67.5422 147.539 70.0646 157.629 70.0646 157.629C70.0646 157.629 63.7548 151.403 65.6945 140.217C67.6266 129.031 73.1774 127.521 73.1774 127.521C69.7273 138.96 75.4468 147.202 75.4468 147.202C74.9408 140.309 78.8125 137.112 78.8125 137.112C76.6275 145.017 78.6438 155.444 78.6438 155.444ZM85.8737 147.777C85.4367 151.756 89.3621 159.983 89.3621 159.983C80.1619 149.149 82.6383 144.112 83.911 142.586C83.5966 141.337 83.3206 139.934 83.0983 138.37C81.4192 126.846 86.0423 123.151 86.0423 123.151C86.0423 123.151 84.946 126.77 85.705 137.197C86.464 147.624 91.7005 151.917 91.7005 151.917C89.4004 151.672 87.4224 150.483 85.8813 147.785L85.8737 147.777ZM96.0092 109.144C95.4649 111.206 93.5252 113.897 90.9645 116.627C88.3961 119.356 86.5484 118.643 85.245 117.807C83.9416 116.964 83.0599 111.796 83.0139 112.049C82.9756 112.302 81.6646 119.241 81.6646 119.241L79.8552 112.049C79.8552 112.049 80.0622 118.022 77.4171 118.988C74.7644 119.954 71.828 117.723 71.3603 117.179C70.9003 116.634 70.563 116.673 69.3823 115.453C68.2016 114.234 67.6189 112.885 66.9442 110.156C66.2696 107.426 66.7372 105.234 67.5346 103.509C68.3319 101.784 68.5849 99.8055 68.5849 99.8055C69.4666 100.097 69.0449 102.581 69.0449 102.581C69.6353 102.29 70.057 100.396 70.77 99.6368C71.483 98.8778 71.782 97.7047 71.782 97.7047C72.8784 98.3334 71.6977 100.273 71.6977 100.273C72.9627 99.5141 75.0634 97.1604 75.0634 97.1604L74.6417 99.1768C75.6921 98.0421 76.4051 95.9414 76.4051 95.9414C76.6581 96.9534 77.5015 99.2611 77.5015 99.2611C77.5015 99.2611 78.1762 98.4178 78.2605 96.9917C78.3448 95.5657 79.6099 95.811 79.6099 95.811C79.6942 97.1987 80.3229 99.2611 80.3229 99.2611C80.3229 99.2611 80.9516 98.5481 80.8672 97.4517C80.7829 96.3554 81.2889 94.845 81.2889 94.845C81.2889 94.845 81.8792 95.6884 82.1323 97.1144C82.3853 98.5404 82.8913 99.0924 82.8913 99.0924C83.1826 98.5021 83.4816 95.558 83.4816 95.558C84.8693 98.5864 87.4761 99.2611 87.4761 99.2611C86.1267 96.0257 87.8134 95.1824 87.8134 95.1824C88.1507 98.4638 91.0105 99.5985 91.0105 99.5985C90.0444 97.9578 91.2175 97.0301 91.2175 97.0301C90.9645 97.7047 92.8965 99.0924 94.4989 101.316C96.0936 103.547 96.5613 107.074 96.0092 109.136V109.144ZM104.726 131.853C104.397 131.6 104.052 131.347 103.753 131.048C103.599 130.902 103.438 130.757 103.3 130.603L102.879 130.128C102.733 129.975 102.618 129.79 102.488 129.622C102.365 129.453 102.235 129.277 102.12 129.1C102.005 128.916 101.897 128.74 101.79 128.556L101.491 127.996C100.747 126.463 100.372 124.776 100.395 123.12C100.41 122.292 100.517 121.472 100.74 120.675C100.855 120.276 100.985 119.885 101.161 119.509C101.246 119.318 101.338 119.134 101.437 118.95C101.552 118.766 101.652 118.589 101.79 118.421C101.928 119.946 102.158 121.395 102.495 122.798C102.679 123.496 102.856 124.186 103.109 124.853C103.346 125.52 103.607 126.179 103.929 126.808C104.22 127.444 104.588 128.05 104.972 128.64C105.34 129.246 105.8 129.783 106.237 130.358C107.165 131.454 108.223 132.466 109.365 133.494C107.678 133.455 106.106 132.819 104.726 131.853ZM106.52 123.212C104.121 119.364 105.892 115.246 105.892 115.246C105.892 115.246 106.582 118.421 107.908 121.449C109.235 124.477 112.071 126.057 112.071 126.057C112.071 126.057 108.92 127.069 106.52 123.22V123.212Z" fill="white"></path>
    <path d="M34.7459 109.78C34.7459 109.78 36.5553 115.201 42.4818 113.062C48.4083 110.915 52.901 103.654 53.7061 100.91C54.8638 96.9766 54.2351 85.7294 50.0873 75.1338C50.0873 75.1338 49.29 79.2969 49.4586 83.8357C49.6273 88.3744 50.256 96.578 49.5813 99.1387C49.5813 99.1387 51.429 95.6043 50.463 87.6154C50.463 87.6154 52.2724 90.0535 52.2724 94.6766C52.2724 99.2997 51.0073 102.581 47.3502 105.564C43.6932 108.546 37.4677 108.423 35.7043 106.024C35.7043 106.024 37.092 111.444 43.5245 109.428C43.5245 109.428 41.6308 113.591 34.7383 109.765L34.7459 109.78Z" fill="white"></path>
    <path d="M39.793 126.111C39.793 126.111 43.9561 126.617 46.2255 122.454C48.4948 118.291 47.8048 113.369 47.8048 113.369C47.8048 113.369 44.9681 123.205 39.793 126.111Z" fill="white"></path>
    <path d="M68.7942 65.6957C68.8325 65.872 68.8478 66.0483 68.8478 66.2323C68.8478 67.8654 67.3835 69.1841 65.5817 69.1841C63.78 69.1841 62.3157 67.8654 62.3157 66.2323C62.3157 66.056 62.3387 65.8797 62.3693 65.711C60.721 66.102 59.4099 66.585 58.7812 66.838C59.0113 67.2214 59.7856 67.9497 62.4153 68.9617C66.4174 70.5104 69.8292 68.8697 70.5192 66.7537C70.5192 66.7537 69.9518 66.148 68.7942 65.688V65.6957Z" fill="white"></path>
    <path d="M96.7068 65.2354C96.8448 65.565 96.9214 65.9177 96.9214 66.2934C96.9214 67.9571 95.4417 69.2988 93.617 69.2988C91.7923 69.2988 90.3126 67.9494 90.3126 66.2934C90.3126 66.2244 90.3126 66.1554 90.3279 66.0864C89.7759 66.2934 89.2852 66.5387 88.8789 66.8454C88.9096 67.2364 88.9709 67.6197 89.1242 68.0184C89.1549 68.0951 89.1856 68.1718 89.2162 68.2484C89.5383 68.5551 90.9106 69.6898 94.054 69.9735C97.4428 70.2878 100.755 68.2178 101.798 66.2704C101.483 66.1937 101.169 66.117 100.855 66.0404C99.6892 65.7644 98.2861 65.3887 96.6991 65.2354H96.7068Z" fill="white"></path>
    <path d="M175.321 70.411C174.823 70.4493 174.317 70.5567 173.657 70.687C173.765 70.9323 173.834 71.193 173.834 71.4613C173.834 72.734 172.523 73.7614 170.897 73.7614C169.272 73.7614 167.961 72.734 167.961 71.4613C167.961 71.354 167.976 71.2543 167.992 71.1547C167.769 71.1547 167.539 71.1547 167.302 71.147C167.302 71.147 166.872 71.1547 166.328 71.17C165.638 73.1481 169.096 74.2981 171.212 74.2367C173.42 74.1754 176.287 72.7264 176.348 71.584C176.387 70.9553 175.827 70.6027 175.313 70.4033L175.321 70.411Z" fill="white"></path>
    <path d="M199.8 68.4787C199.486 68.6321 198.811 69.1457 198.788 69.6747C198.788 69.6747 198.788 69.7437 198.788 69.7821C198.788 71.0548 197.653 72.0821 196.258 72.0821C195.1 72.0821 194.119 71.3691 193.827 70.4031C193.827 70.3954 193.827 70.3801 193.827 70.3724C193.812 70.3034 193.789 70.2421 193.781 70.1731C193.666 69.8204 193.398 69.5291 193.122 69.3067C192.539 69.5367 192.072 69.8051 191.803 70.0964C190.446 71.5455 191.581 72.1741 191.581 72.1741C191.581 72.1741 195.369 72.5498 197.577 72.1741C199.785 71.7985 201.203 71.1928 201.425 70.3418C201.571 69.7897 200.873 68.9847 199.823 68.4634L199.8 68.4787Z" fill="white"></path>
    <path d="M89.3456 102.152C88.8396 102.09 88.3335 102.09 87.8275 102.152C87.1682 102.221 86.4935 102.389 85.8418 102.267C85.5198 102.205 85.2131 102.075 84.8988 101.983C84.3084 101.807 83.6798 101.761 83.0664 101.715C82.3764 101.661 81.6557 101.615 80.9964 101.83C80.4597 102.014 79.946 102.374 79.3787 102.305C79.1333 102.274 78.9033 102.167 78.6657 102.075C77.991 101.814 77.2473 101.738 76.5343 101.845C75.8596 101.945 75.4456 101.546 74.7939 101.508C74.1422 101.469 73.6515 102.052 73.2835 102.589C73.0689 102.911 72.8465 103.248 72.7928 103.631C72.7162 104.13 72.9308 104.643 73.2835 105.004C73.6362 105.364 74.1115 105.586 74.5946 105.709C75.1082 105.839 75.6526 105.878 76.1816 105.809C76.9789 105.709 77.7533 105.379 78.5583 105.372C79.21 105.372 79.8463 105.571 80.4827 105.732C82.0314 106.138 83.6644 106.322 85.2208 105.962C85.7115 105.847 86.2022 105.686 86.7005 105.701C87.1222 105.717 87.5669 105.855 87.9425 105.671C88.2569 105.525 88.4332 105.195 88.6172 104.904C88.8702 104.513 89.1616 104.153 89.4989 103.823C89.6906 103.631 89.9052 103.455 90.0356 103.217C90.1659 102.98 90.2043 102.665 90.0509 102.443C89.8976 102.228 89.6062 102.159 89.3379 102.129L89.3456 102.152Z" fill="white"></path>
    <path d="M188.324 102.435C187.788 102.473 186.921 102.512 186.323 102.496C185.411 102.466 184.307 103.347 183.831 103.6C183.356 103.853 182.789 104.451 182.95 105.18C183.111 105.908 183.111 106.284 185.311 106.629C187.236 106.928 192.894 106.445 194.32 106.314C191.69 104.62 189.497 103.194 188.324 102.443V102.435Z" fill="white"></path>
    <path d="M229.872 88.0904C229.336 86.1737 228.592 85.0697 228.163 84.5483C227.595 84.8243 227.013 85.0543 226.438 85.246C227.036 86.35 228.224 89.0564 227.381 91.9162C228.032 92.1845 228.753 92.4222 229.543 92.6062C229.903 91.8165 230.447 90.1375 229.88 88.0904H229.872Z" fill="white"></path>
    <path d="M226.537 78.101C226.629 76.7286 226.683 73.6696 225.648 70.8865C224.26 67.1681 221.676 63.8253 219.783 61.5483C217.889 59.2789 215.934 55.3688 214.607 50.6383C213.281 45.9079 205.062 26.8174 183.327 29.0638C183.327 29.0638 185.159 27.7375 187.429 27.6148C189.192 27.5151 193.616 27.5305 195.502 27.5458C194.229 25.9128 191.507 23.0607 187.49 22.2327C181.77 21.052 177.316 20.8066 171.765 19.8789C166.214 18.9513 157.466 18.1156 154.522 17.1879C151.578 16.2602 147.124 12.8178 145.353 13.4005C143.589 13.9908 142.156 16.0915 142.156 20.3773C142.156 24.6631 142.409 28.6192 140.477 31.7319C138.545 34.8446 134.926 38.9617 133.914 43.1708C132.902 47.3723 132.043 52.1487 131.476 55.2998C130.909 58.4509 127.121 66.5931 127.121 66.5931C127.121 66.5931 131.974 61.3566 135.317 58.3972C138.66 55.4378 145.851 49.9483 145.851 49.9483C145.851 49.9483 138.974 58.5275 137.464 62.499C135.953 66.4704 132.925 70.5108 132.227 74.8579C132.227 74.8579 134.558 69.1844 139.227 64.707C143.896 60.2296 149.57 54.6788 152.537 51.589C155.504 48.4993 158.801 43.7688 162.672 40.5718C166.544 37.3747 173.69 33.7636 176.718 32.8359C176.718 32.8359 167.633 38.8927 163.094 43.4315C158.555 47.9703 155.527 51.6734 154.515 52.8541C153.503 54.0348 152.414 55.9668 151.318 58.3205C150.221 60.6742 147.201 65.466 144.509 68.0728C141.818 70.6795 133.998 78.4997 133.239 87.2475C132.48 95.9954 132.649 101.209 141.397 104.237L141.144 102.39C141.144 102.39 135.003 98.9395 135.509 91.6253C136.015 84.3111 138.706 78.423 143.582 73.6312C148.458 68.8394 150.812 65.8954 153.671 59.7542C156.531 53.6131 162.251 45.2025 173.099 41.0011C183.948 36.7997 202.448 35.1973 210.521 48.737C210.521 48.737 206.235 45.1182 203.629 43.9452C203.629 43.9452 211.533 52.6931 214.814 57.0632C218.096 61.4333 223.9 70.4341 224.314 73.4625C224.628 75.7013 224.061 78.0243 223.746 79.09C224.452 78.9213 225.464 78.6223 226.522 78.1087L226.537 78.101Z" fill="white"></path>
    <path d="M122.064 58.8415C122.685 58.0212 123.628 56.7025 125.008 54.6248C127.323 51.1594 128.795 48.821 129.516 47.4946C126.924 46.3446 117.732 42.3885 111.215 41.1695C103.564 39.7434 102.552 38.5627 97.5068 37.5507C92.462 36.5387 82.7864 34.6066 80.0954 34.2693C77.4043 33.932 70.5962 33.8476 66.3027 34.185C62.017 34.5223 57.7235 34.3536 52.5101 39.9044C47.2966 45.4552 40.1511 49.074 34.1786 51.8494C28.2062 54.6248 18.5383 59.5852 17.6106 63.5413C16.6829 67.4974 17.6106 71.9519 26.4428 70.3495C26.4428 70.3495 19.9643 69.0001 22.157 64.7143C22.157 64.7143 20.1406 66.5621 21.5667 68.9158C21.5667 68.9158 16.6906 66.6464 23.5831 61.8546C30.4755 57.0628 42.8422 49.327 54.1968 46.1299C65.5514 42.9328 78.332 40.7478 96.8321 47.2263C109.413 51.627 117.908 56.3038 122.056 58.8415H122.064Z" fill="white"></path>
    <path d="M76.9017 33.0045C85.9026 34.2695 90.1883 35.4425 96.5825 35.6955C102.977 35.9485 113.066 37.8806 117.521 39.3986C121.362 40.702 125.578 44.0064 129.527 45.1641C128.722 43.2704 127.442 40.3263 126.437 38.4786C125.601 36.9375 125.187 35.4962 124.75 34.1468C124.62 33.7711 123.677 31.3561 120.196 29.9607C116.409 28.4503 114.646 27.308 112.944 26.5566C111.241 25.8053 108.021 24.1569 105.185 23.4669C102.348 22.7769 98.9439 21.1975 98.1848 21.0672C97.4258 20.9368 90.3647 20.3772 86.8302 20.6225C83.2958 20.8755 81.9081 21.0672 80.3134 20.9368C78.7187 20.8142 76.779 20.9368 74.341 21.1438C71.9029 21.3508 70.5995 20.6378 69.3345 21.1055C68.0695 21.5655 65.4627 22.9532 63.5767 25.3529C61.7827 27.63 60.1343 29.9837 59.1836 33.1731C63.5767 32.5674 69.9402 32.0308 76.9093 33.0121L76.9017 33.0045ZM121.676 38.3482C123.662 38.2562 123.508 36.4239 123.255 35.7645C123.002 35.1052 122.274 33.9705 120.856 33.6178C120.856 33.6178 122.121 33.2115 123.255 33.9628C124.39 34.7142 125.21 36.6462 124.482 38.2486C123.754 39.851 121.96 40.081 120.664 39.7283C119.368 39.3756 118.364 38.8159 118.111 37.2979C118.111 37.2979 119.69 38.4326 121.676 38.3406V38.3482ZM105.024 30.1141C105.43 33.4875 107.738 34.2465 109.532 34.2772C111.326 34.3078 113.381 33.4261 113.442 31.5938C113.503 29.7614 111.456 28.8184 111.456 28.8184C116.026 28.5653 115.681 33.4875 113.189 35.2508C110.697 37.0142 107.293 36.1325 105.56 34.4612C103.828 32.7898 105.024 30.1064 105.024 30.1064V30.1141ZM96.3295 31.7854C99.3962 31.6168 100.577 30.3977 100.953 28.55C101.328 26.7023 99.5649 23.7582 98.1772 23.4209C98.1772 23.4209 100.071 22.7922 101.965 25.2303C103.858 27.6683 103.184 30.5281 101.758 32.1688C100.332 33.8095 96.5825 34.7372 93.4314 32.8434C90.2803 30.9497 89.8127 29.7767 89.8127 29.7767C89.8127 29.7767 93.2627 31.9618 96.3295 31.7931V31.7854ZM82.9125 30.2291C85.3122 29.6004 86.8686 28.1667 86.7382 26.319C86.6079 24.4713 84.6375 22.2785 83.2038 22.1175C83.2038 22.1175 86.0176 21.6115 87.6583 23.9652C89.299 26.319 88.9616 29.056 86.4776 30.5664C83.9935 32.0768 79.1634 32.4601 77.7757 29.6004C77.7757 29.6004 80.7351 30.8041 82.9048 30.2291H82.9125ZM66.4288 30.5664C64.7037 29.976 64.5811 28.6727 64.4507 27.1163C64.4507 27.1163 65.1637 29.8074 68.7365 29.47C72.3092 29.1327 72.6926 26.6946 72.3552 25.4756C72.0179 24.2566 70.9292 22.9916 69.6258 23.0376C69.6258 23.0376 71.1362 22.2785 72.9073 23.3749C74.6706 24.4713 74.7166 28.3353 72.7386 29.769C70.7605 31.1951 68.1538 31.1567 66.4288 30.5664Z" fill="white"></path>
    <path d="M74.4064 19.3652C79.1982 18.6752 82.6713 18.7979 85.3164 18.4835C87.9614 18.1692 96.5406 18.6752 98.12 19.2425C99.6994 19.8099 102.344 21.5119 103.732 21.8263C105.12 22.1406 109.659 23.6586 110.671 23.904C111.683 24.1493 114.266 25.353 115.593 25.859C116.543 26.2194 119.595 27.2927 121.251 27.8754C120.891 27.2391 120.584 26.549 120.262 25.5447C119.503 23.214 118.184 19.4265 117.486 17.2798C116.796 15.1331 117.364 12.2964 117.609 10.2187C117.854 8.14093 117.295 6.6229 115.209 6.17822C113.124 5.73355 106.692 4.16184 99.6917 3.90884C92.6919 3.65583 90.0391 3.08848 86.7654 3.53316C83.4916 3.97784 80.6472 5.86388 77.8105 9.52863C75.3341 12.718 73.5784 17.6325 71.332 19.3882C71.7537 19.5799 72.5357 19.6412 74.4064 19.3729V19.3652Z" fill="white"></path>
    <path d="M65.1016 65.2509C64.7259 65.2892 64.3579 65.3429 63.9975 65.3966C63.9132 65.5806 63.8672 65.7799 63.8672 65.9869C63.8672 66.8456 64.6339 67.5356 65.5769 67.5356C66.5199 67.5356 67.2866 66.8456 67.2866 65.9869C67.2866 65.7262 67.2176 65.4886 67.0949 65.2739C66.5046 65.1972 65.8376 65.1742 65.0939 65.2509H65.1016Z" fill="white"></path>
    <path d="M92.4822 65.4659C92.1909 65.5349 91.8995 65.6039 91.6235 65.673C91.5775 65.811 91.5469 65.9643 91.5469 66.1176C91.5469 66.9303 92.2752 67.5897 93.1646 67.5897C94.0539 67.5897 94.7823 66.9303 94.7823 66.1176C94.7823 65.765 94.6443 65.4429 94.4219 65.1899C93.7933 65.2283 93.1492 65.3203 92.4822 65.4659Z" fill="white"></path>
    <path d="M169.207 71.1474C169.284 71.8144 170.004 72.3358 170.871 72.3358C171.791 72.3358 172.542 71.7454 172.542 71.0247C172.542 70.9787 172.542 70.9327 172.534 70.8867C171.699 71.0094 170.641 71.1167 169.207 71.1474Z" fill="white"></path>
    <path d="M196.427 68.7931C195.453 68.8544 195.147 69.1228 195.055 69.2838C195.055 70.0274 195.714 70.6255 196.527 70.6255C197.339 70.6255 197.999 70.0274 197.999 69.2838C197.999 69.1994 197.991 69.1151 197.976 69.0384C197.853 68.9311 197.477 68.7241 196.427 68.7931Z" fill="white"></path>
    <path d="M174.692 68.5634C176.302 69.0694 177.59 69.6368 177.59 69.6368C177.59 69.6368 178.188 68.2797 175.129 67.5897C172.07 66.892 168.85 67.1757 168.85 67.1757C168.85 67.1757 164.978 68.2184 163.629 68.6937L164.411 69.3838C164.411 69.3838 166.174 68.1877 168.229 68.0957C170.284 67.9961 173.09 68.0651 174.692 68.5711V68.5634Z" fill="white"></path>
    <path d="M193.015 89.8157C193.291 90.1837 193.391 90.7433 193.276 91.3567C193.874 91.2034 195.277 90.682 195.568 89.1026C195.936 87.1476 195.154 85.0852 193.583 84.9165C193.583 85.9746 193.406 87.0173 192.962 87.9679C192.962 87.9679 193.215 85.0239 192.203 83.3832C191.191 81.7425 189.933 80.0634 189.136 76.3603C188.339 72.6572 188.208 71.6529 188.799 70.8939C189.389 70.1349 188.799 68.8315 190.102 68.0801L188.285 67.6201C188.285 67.6201 189.956 66.8611 190.646 64.4691C191.336 62.077 193.169 59.3629 196.826 59.2633C196.826 59.2633 195.032 60.2753 194.932 61.4407C194.932 61.4407 197.868 59.9609 199.003 59.1406C199.003 59.1406 198.75 60.4056 198.313 60.9346C198.313 60.9346 199.793 59.9533 200.836 59.7693C201.878 59.5853 202.568 60.6816 202.568 60.6816C202.568 60.6816 203.527 60.4823 204.24 60.858C203.81 59.3323 203.243 58.1286 202.752 57.4616C201.871 56.2655 201.303 54.6862 199.977 54.4332C198.651 54.1801 197.646 54.1801 195.752 52.5394C193.859 50.8987 191.781 49.8254 188.5 50.5844C185.218 51.3434 183.263 52.7924 179.483 53.0454C175.704 53.2985 171.288 51.8494 167.124 54.1801C162.961 56.5109 158.929 60.0453 158.676 60.8043C158.423 61.5633 159.182 62.0693 159.182 62.0693L159.304 65.7878C159.304 65.7878 160.171 67.2368 161.344 67.4898C161.344 67.4898 161.934 65.8108 164.334 65.4121C164.334 65.4121 162.018 64.3387 160.048 64.4691C160.048 64.4691 162.609 62.8283 167.577 63.6717C167.577 63.6717 166.733 62.3683 164.088 62.2457C164.088 62.2457 166.358 60.858 169.217 61.617C171.97 62.3453 173.12 63.503 173.212 63.5874C173.181 63.5107 172.66 62.2303 171.027 61.433C171.027 61.433 173.588 60.9423 176.156 63.3804C178.724 65.8184 180.403 69.1842 179.56 71.4536C179.56 71.4536 178.816 71.0395 177.36 70.6792C177.705 71.1852 178.18 71.9979 177.95 72.4196C177.605 73.0483 177.099 72.6726 177.099 72.6726C177.007 73.9376 174.201 75.9847 168.742 75.356C163.283 74.7273 163.506 72.1742 163.506 72.1742C164.073 72.4272 165.338 72.9946 165.338 72.9946C164.878 72.5576 164.878 71.7066 164.916 71.2312C164.763 71.2312 164.625 71.2389 164.51 71.2465C163.628 71.2926 161.229 71.2925 159.634 72.6342C158.231 73.8226 157.733 75.034 155.8 75.2486C155.793 75.3023 155.785 75.3483 155.785 75.3867C155.785 76.46 158.116 76.3987 157.74 80.8761C157.365 85.3535 155.662 90.5287 167.83 93.1737C167.83 93.1737 165.875 94.4388 163.099 93.3654C160.324 92.292 159.695 92.1694 159.695 92.7981C159.695 93.4267 159.818 94.6918 161.022 95.5735C162.218 96.4551 163.23 97.5898 163.23 99.0389C163.23 100.488 164.87 99.1002 165.944 104.843L167.331 101.814L168.658 103.394C168.658 103.394 169.67 99.7979 170.805 98.2875C171.939 96.7771 172.254 96.7771 172.698 95.6348C173.143 94.5001 173.327 93.7411 173.772 93.4267C174.216 93.1124 175.849 93.1737 176.355 93.1124C176.739 93.0664 177.988 92.108 178.571 91.648C178.226 91.2494 177.965 90.7357 177.866 90.084C177.36 86.8026 179.253 86.0436 179.253 86.0436C178.847 87.2089 178.525 89.1026 179.759 90.4597C180.457 91.2264 181.27 91.28 181.845 91.1804C181.086 90.0687 182.029 88.6656 182.029 88.6656C182.029 89.9613 184.175 91.9164 187.741 92.4837C191.306 93.0511 193.038 89.831 193.038 89.831L193.015 89.8157ZM171.794 78.024C169.271 78.3384 165.928 77.5794 164.096 76.2607C164.096 76.2607 168.32 77.2727 171.288 76.8894C174.255 76.506 176.585 76.5137 176.585 76.5137C176.585 76.5137 174.316 77.7097 171.794 78.024ZM181.822 78.9671C181.362 80.3548 181.193 81.9111 181.193 81.9111C181.193 81.9111 180.817 80.2321 180.48 78.7601C180.143 77.288 180.189 76.575 179.89 75.1413C179.598 73.7153 179.514 72.0286 179.514 72.0286C179.514 72.0286 181.109 74.758 181.661 75.9847C182.205 77.2037 182.289 77.5794 181.829 78.9671H181.822ZM185.134 71.6222C184.444 71.6529 184.122 71.1469 183.654 71.2772C183.654 71.2772 184.129 70.5182 185.356 70.6485C186.583 70.7789 187.058 71.5916 187.058 71.5916C187.058 71.5916 185.832 71.5916 185.134 71.6222Z" fill="white"></path>
    <path d="M203.893 67.8885C203.264 65.7877 200.826 65.1131 197.713 65.0901C194.601 65.0671 193.105 66.9224 193.105 66.9224C199.055 65.3661 203.893 67.8885 203.893 67.8885Z" fill="white"></path>
    <path d="M204.686 69.3221C204.027 69.1074 202.961 68.7854 201.558 68.4634C201.551 68.4634 201.535 68.4634 201.528 68.4634C201.75 68.8007 201.965 69.3221 202.064 70.1424C202.287 72.0668 200.232 73.0788 196.736 73.4545C193.24 73.8302 190.809 73.4545 189.828 72.4425C189.828 72.4425 189.974 74.3899 191.407 77.3723C192.236 79.0973 193.148 81.267 193.462 83.4214C194.152 83.3294 195.54 83.3601 196.368 84.8934C197.089 86.2275 197.94 89.1562 196.767 91.0116C197.089 91.2876 197.625 91.5483 198.469 91.5176C200.171 91.4563 200.485 91.5176 200.991 92.0849C201.497 92.6523 201.75 93.2196 201.75 93.2196C201.75 93.2196 203.391 93.4113 204.211 94.4157C205.031 95.42 205.154 95.926 205.154 95.926C205.154 95.926 205.883 95.3357 206.519 95.5963C206.542 94.776 206.465 93.304 205.998 90.8582C205.998 90.8582 205.093 92.0159 202.448 91.0039C202.448 91.0039 207.37 90.4366 207.431 83.9427C207.493 77.4489 204.909 75.5552 204.403 74.9265C203.897 74.2978 203.713 73.4775 204.088 72.1511C204.28 71.4765 204.518 70.5334 204.694 69.3221H204.686ZM197.518 75.2792C195.755 75.4402 193.386 75.1565 193.386 75.1565C193.386 75.1565 195.149 74.5585 196.951 74.3055C198.752 74.0525 201.995 74.3055 201.995 74.3055C201.995 74.3055 199.281 75.1259 197.518 75.2869V75.2792Z" fill="white"></path>
    <path d="M181.85 106.123C181.85 106.123 179.864 105.962 178.76 107.419C177.656 108.875 176.836 110.922 176.836 112.624C176.836 114.326 177.465 115.806 178.791 116.535C180.117 117.263 180.807 117.294 182.226 117.516C183.644 117.738 184.94 117.677 185.093 116.443C185.231 115.392 185.453 109.841 185.515 108.262C184.51 108.147 183.644 107.917 183.038 107.518C181.559 106.537 181.842 106.131 181.842 106.131L181.85 106.123Z" fill="white"></path>
    <path d="M196.421 107.664C195.639 107.733 193.722 107.902 191.836 108.07C191.867 108.576 191.943 109.757 192.074 110.961C192.242 112.556 192.281 115.208 192.702 116.22C193.124 117.232 195.018 118.321 195.938 117.646C196.858 116.972 197.617 116.259 198.291 116.052C198.966 115.845 199.641 115.423 199.802 114.58C199.97 113.736 200.729 113.23 201.312 112.479C201.619 112.088 201.627 111.482 201.565 110.991C199.832 109.872 198.077 108.737 196.405 107.664H196.421Z" fill="white"></path>
    <path d="M242.139 118.613C241.61 124.608 239.716 127.652 239.716 127.652C240.038 126.027 240.467 120.545 240.598 118.889C239.655 119.027 238.604 119.119 237.462 119.119C237.4 119.119 237.339 119.119 237.27 119.119C236.457 119.119 235.691 119.042 234.978 118.927C234.886 119.701 234.663 122.162 234.64 127.905C234.64 127.905 232.931 124.846 233.36 118.582C231.995 118.222 230.907 117.731 230.155 117.332L230.316 121.94C230.431 121.457 230.623 120.936 230.937 120.506C231.627 121.771 231.528 122.316 231.566 123.826C231.604 125.337 231.19 127.23 231.19 127.23C231.19 127.23 230.286 126.057 230.155 123.857L226.974 122.032L214.806 115.063C214.431 115.147 213.955 115.377 213.679 116.006C213.503 116.42 213.526 116.773 213.641 117.056C218.617 120.077 222.672 122.538 223.393 122.975C224.237 123.489 225.471 124.424 226.736 125.49C228.584 127.046 230.508 128.886 231.405 130.082C231.919 130.765 232.317 131.332 232.739 131.792C232.662 131.11 232.639 129.983 233.023 128.718C233.023 128.718 233.49 131.823 234.74 133.003C235.238 133.134 235.829 133.21 236.572 133.241C236.68 133.241 236.787 133.241 236.894 133.241C237.37 132.459 238.827 130.029 239.08 129.139C239.08 129.139 239.356 131.623 238.811 133.065C240.337 132.735 240.989 132.068 240.989 132.068C240.989 132.068 242.714 129.04 243.718 124.286C244.232 121.879 244.607 119.709 244.837 117.808C244.232 118.038 243.312 118.352 242.146 118.605L242.139 118.613Z" fill="white"></path>
    <path d="M192.002 102.965C191.749 103.471 191.841 103.846 191.841 103.846C191.841 103.846 199.561 108.531 207.374 113.277C207.42 112.801 207.642 112.065 208.547 111.498L192.914 102.551C192.914 102.551 192.255 102.459 192.002 102.957V102.965Z" fill="white"></path>
    <path d="M63.7872 91.7173C63.7872 92.9977 64.4082 94.8377 64.8376 96.4248C65.2976 95.6504 66.2253 92.5454 66.2253 92.5454L66.6853 96.8771C67.7816 96.7928 68.4103 95.8651 68.579 95.5508C68.7477 95.2364 69.1233 94.1631 69.8593 93.9101C70.5954 93.6571 70.6337 92.921 70.6337 92.921C70.6337 92.921 69.614 92.7524 68.9087 91.817C67.682 92.829 66.8003 92.2387 66.8003 92.2387C67.2066 92.024 67.889 90.6746 68.257 89.908C68.257 89.8466 68.2416 89.793 68.2416 89.724C68.1573 86.9102 70.005 86.8259 71.8987 83.7975C73.7924 80.7691 73.6468 78.078 73.6468 78.078C75.1418 81.5281 72.8878 85.5839 71.5001 87.2859C70.1124 88.9879 70.0894 89.77 70.511 90.69C70.8177 91.3647 72.0904 92.2463 72.7574 92.668L73.5241 92.3L74.1835 92.4304C74.4058 91.5257 74.9731 90.7743 74.9731 90.7743C74.9731 90.7743 76.0235 92.369 76.7825 92.4534C77.5415 92.5377 78.1702 92.415 78.1702 92.415C79.3509 92.2924 80.4396 92.208 80.6083 91.5717C80.7769 90.943 80.7769 90.5213 80.7769 90.5213C80.7769 90.5213 81.766 90.4446 81.9806 91.748C82.64 91.725 84.112 91.6637 84.1887 91.6637H85.4997C86.2357 91.265 87.5851 90.3373 87.4701 88.8883C87.3091 86.9026 84.6334 85.3539 83.813 83.5905C82.9927 81.8271 83.2457 79.9947 83.2457 78.1317C83.2457 76.2686 83.5907 75.0726 83.721 72.1055C83.8513 69.1385 84.3804 65.5427 85.0474 65.0137C85.0474 65.0137 84.388 63.5033 85.6454 61.2646C86.9028 59.0259 89.7778 57.2625 91.2882 57.8299C91.2882 57.8299 88.7965 58.7422 88.2904 61.0806C88.2904 61.0806 92.5456 56.0358 99.231 57.5155C99.231 57.5155 96.6473 58.4586 95.6966 59.4092C95.6966 59.4092 102.413 58.2745 106.009 60.5746C106.009 60.5746 103.547 60.3523 103.041 60.6053C103.041 60.6053 104.682 61.74 106.576 62.246C108.47 62.752 109.666 62.591 109.666 62.591C109.666 62.591 109.259 64.546 106.921 64.799C104.583 65.052 103.547 64.1704 103.547 64.1704C103.547 64.1704 104.444 65.259 104.928 65.9721C105.234 65.8724 105.832 65.7421 106.469 65.8877C107.396 66.0947 108.953 67.5668 110.041 67.4824C110.041 67.4824 109.451 68.1571 107.182 67.3598C106.101 66.9764 105.533 66.7771 105.234 66.6774C105.265 66.9764 105.242 67.2064 105.242 67.2064C105.242 67.2064 104.521 66.9994 103.509 66.7234C102.965 67.3904 100.074 70.7638 97.0843 71.0628C93.7646 71.4002 89.7701 70.6028 89.1338 68.1648C89.1338 68.1648 89.1645 68.1954 89.2105 68.2414C89.1798 68.1648 89.1491 68.0881 89.1185 68.0114C88.9728 67.6128 88.9038 67.2294 88.8731 66.8384C87.7078 67.7124 87.3014 69.0465 88.2981 71.3082C88.2981 71.3082 86.8184 71.7145 85.7757 69.0081C85.7757 69.0081 85.2084 70.9325 85.1164 72.9489C85.0244 74.9653 84.549 75.5633 84.457 76.4143C84.365 77.2653 84.3344 80.2631 84.5797 81.5894C84.825 82.9158 85.6837 84.4875 86.8798 85.4689C87.7538 86.1819 88.3211 86.8412 88.5818 87.9146C89.1415 88.5049 90.5828 89.9386 92.2772 90.92C94.4546 92.185 97.23 92.5914 97.23 92.5914C97.23 92.5914 93.4426 93.473 91.4875 92.1467C90.1152 91.219 89.1491 90.414 88.6891 90.0153C88.4591 91.3493 87.5391 91.518 87.5391 91.518C87.5391 91.518 88.5205 93.0667 90.0308 93.6647C91.5412 94.2627 93.3429 94.8914 94.6003 95.1138C95.2443 95.2288 95.988 95.9188 96.6473 96.7238C97.368 96.8158 98.334 96.9998 99.2694 97.3525C101.063 98.0425 102.045 99.6525 102.045 99.6525C103.218 99.5299 104.306 100.067 105.043 100.557C104.698 98.6175 105.763 97.8432 105.871 94.2474C105.871 94.2474 111.314 88.6429 108.96 80.8994C108.96 80.8994 97.138 90.2836 105.127 89.609C113.116 88.9343 109.474 82.4788 109.474 82.4788C109.474 82.4788 105.694 93.5037 105.357 96.1104C105.357 96.1104 118.912 75.9006 117.394 71.6915C115.883 67.4901 113.307 64.799 113.307 64.799C113.307 64.799 112.717 69.7595 113.982 73.0409C113.982 73.0409 111.797 71.1932 111.628 67.6588C111.46 64.1244 111.421 63.5493 111.483 62.89C111.544 62.2306 111.36 61.533 110.601 60.9656C109.842 60.3983 100.864 49.956 80.4319 49.3273C59.9998 48.6987 54.7787 61.0576 55.7907 64.845C55.8444 65.0444 55.898 65.2207 55.9517 65.3894C56.2507 64.615 56.91 63.3807 58.2517 62.4453C58.2517 62.4453 56.6724 62.3533 56.519 62.384C56.519 62.384 57.7151 60.6819 62.9822 60.7126C62.9822 60.7126 62.1925 59.8616 59.5781 59.7696C59.5781 59.7696 60.9965 58.6042 63.9329 59.2022C66.8693 59.8003 66.8999 60.7126 66.8999 60.7126C66.8999 60.7126 69.2997 60.3369 70.4037 61.694C70.4037 61.694 69.3917 59.2329 65.0446 58.7959C65.0446 58.7959 66.3096 57.5309 69.8057 58.5429C73.3018 59.5549 75.0421 62.8287 75.5788 63.557C76.1155 64.2854 76.3378 65.6731 75.8932 65.8877C75.8932 65.8877 76.9359 67.1144 76.3685 69.5755C75.8012 72.0365 74.5745 72.7572 74.5745 72.7572C74.5745 72.7572 74.8581 70.6105 74.3828 68.8471C74.3828 68.8471 74.3828 70.7102 72.5197 71.4002C72.5197 71.4002 73.5931 68.6248 72.6807 66.7004C72.6807 66.7004 72.8418 69.3148 70.5034 69.8208C70.5034 69.8208 71.1627 68.8088 70.9787 67.5821C70.9787 67.5821 67.038 73.4166 59.9078 71.0859C59.9078 71.0859 62.2385 71.0858 63.9099 70.2962C63.9099 70.2962 61.4795 70.2348 59.8694 69.1615C58.6044 68.3181 58.0831 67.5514 57.9144 66.9994C57.6384 67.0224 57.2934 67.1144 57.0174 67.3904C57.7611 68.3258 58.4511 68.8471 58.5738 72.1592C58.7654 77.3343 55.438 77.112 55.7524 82.5325M64.8759 74.2599C61.3031 74.6816 60.7128 73.1252 60.7128 73.1252C60.7128 73.1252 66.4706 73.5852 68.8243 71.6992C68.8243 71.6992 68.4487 73.8459 64.8682 74.2676L64.8759 74.2599ZM73.5548 91.748C73.0334 92.07 72.3281 91.4797 71.9447 91.1807C71.8681 91.1193 71.7837 91.058 71.7301 90.966C71.5997 90.736 71.7301 90.4293 71.9524 90.276C72.1594 90.1303 72.4201 90.0766 72.6731 90.0843C72.9261 90.092 73.1714 90.1686 73.4168 90.2453C73.5241 90.2836 73.6391 90.322 73.7234 90.3986C74.0531 90.69 73.9304 91.5103 73.5548 91.7403V91.748ZM76.6982 86.2432C75.4332 86.3659 74.2601 86.6649 74.2601 86.6649C74.2601 86.6649 74.8045 84.9858 76.8285 84.8172C78.8449 84.6485 79.8109 86.4579 79.8109 86.4579C79.8109 86.4579 77.9632 86.1205 76.6982 86.2509V86.2432ZM83.537 89.5016C83.8897 89.3023 84.319 89.2409 84.7024 89.379C85.0857 89.5093 85.3924 89.8466 85.4614 90.2453C85.4767 90.3373 85.4767 90.437 85.4384 90.5213C85.3694 90.667 85.2084 90.7436 85.0474 90.7667C84.8864 90.7896 84.7254 90.7743 84.572 90.8126C84.2424 90.8893 84.0047 91.173 83.7133 91.334C83.1843 91.6177 82.2796 91.4183 82.479 90.644C82.5633 90.322 82.8163 90.0843 83.0617 89.8696C83.215 89.7393 83.3683 89.609 83.5447 89.5093L83.537 89.5016ZM93.6802 73.8383C89.3485 73.2096 89.3485 71.5919 89.3485 71.5919C89.3485 71.5919 90.9048 72.3279 94.5236 72.7036C98.1423 73.0792 99.024 73.0792 99.024 73.0792C99.024 73.0792 98.012 74.4669 93.6802 73.8383Z" fill="white"></path>
    <path d="M77.8991 110.347C77.7764 110.286 76.3504 108.331 76.4194 106.974C76.4194 106.974 72.4173 107.917 70.6463 105.111L69.2279 106.023C69.2279 106.023 68.7832 108.262 70.1096 111.827C71.4359 115.392 72.6013 115.798 73.0767 116.68C73.552 117.562 76.0437 118.259 76.8257 118.259C77.6078 118.259 78.5891 117.278 78.5891 117.063C78.5891 116.849 78.8728 113.376 78.5584 112.394C78.2441 111.413 78.0218 110.409 77.8991 110.347Z" fill="white"></path>
    <path d="M91.5589 102.205C91.5589 102.205 91.8732 104.283 90.2632 105.609C88.6531 106.936 87.0431 107.311 87.0431 107.311C87.0431 107.311 85.8164 109.075 85.8164 111.252C85.8164 113.43 86.0694 115.415 86.3838 116.144C86.6981 116.872 86.5754 117.562 88.1165 117.593C89.6575 117.623 92.3716 114.879 93.1306 113.805C93.8896 112.732 94.7406 109.266 94.5183 106.644C94.2959 104.03 93.7899 101.945 91.5512 102.198L91.5589 102.205Z" fill="white"></path>
    <path d="M208.653 113.054C208.492 113.422 208.499 113.736 208.576 114.005C209.864 114.787 211.145 115.569 212.387 116.32C212.41 115.837 212.624 115.017 213.644 114.419L209.657 112.142C209.304 112.249 208.89 112.494 208.645 113.062L208.653 113.054Z" fill="white"></path>
    <path d="M237.151 110.631C240.977 110.67 244.343 111.85 244.343 111.85C244.343 111.85 243.668 109.198 237.067 109.244C231.309 109.282 230.297 111.513 230.297 111.513C230.297 111.513 233.824 110.593 237.151 110.631Z" fill="white"></path>
    <path d="M245.058 113.069C245.058 113.069 243.041 114.664 237.613 114.541C232.193 114.419 230 112.985 230 112.985L230.1 115.852C231.05 116.443 233.672 117.83 237.284 117.861C241.37 117.899 244.345 116.673 244.981 116.389C245.088 115.139 245.119 114.028 245.058 113.069ZM231.288 115.875C230.882 115.875 230.552 115.5 230.552 115.047C230.552 114.595 230.882 114.219 231.288 114.219C231.694 114.219 232.024 114.595 232.024 115.047C232.024 115.5 231.694 115.875 231.288 115.875ZM234.838 117.048C234.431 117.048 234.102 116.673 234.102 116.22C234.102 115.768 234.431 115.392 234.838 115.392C235.244 115.392 235.574 115.768 235.574 116.22C235.574 116.673 235.244 117.048 234.838 117.048ZM239.89 117.094C239.484 117.094 239.154 116.719 239.154 116.266C239.154 115.814 239.484 115.438 239.89 115.438C240.297 115.438 240.626 115.814 240.626 116.266C240.626 116.719 240.297 117.094 239.89 117.094ZM243.609 116.297C243.202 116.297 242.873 115.921 242.873 115.469C242.873 115.017 243.202 114.641 243.609 114.641C244.015 114.641 244.345 115.017 244.345 115.469C244.345 115.921 244.015 116.297 243.609 116.297Z" fill="white"></path>
    <path d="M231.77 132.451L232.061 133.754C232.061 133.754 232.598 135.188 236.055 135.226C239.59 135.264 239.965 134.513 239.965 134.513L240.556 133.332C240.556 133.332 235.135 135.395 231.77 132.451Z" fill="white"></path>
    <path d="M132.245 141.245V129.323C132.245 126.97 130.543 126.088 130.543 126.088C131.709 128.894 131.486 133.333 129.654 140.019C127.814 146.704 124.348 151.672 120.615 156.64C118.69 159.193 116.444 161.44 114.711 163.019C114.335 163.364 113.829 162.812 114.144 162.398C115.685 160.366 117.732 157.729 119.319 155.935C122.24 152.623 123.053 148.782 123.053 148.782C121.864 152.094 110.609 162.735 110.609 162.735C112.718 164.69 115.692 165.871 115.692 165.871C118.399 163.211 126.135 153.336 129.431 148.483C130.888 146.344 131.747 143.622 132.245 141.261V141.245Z" fill="white"></path>
    <path d="M135.466 143.338C135.259 142.464 136.248 141.858 136.808 142.533C137.306 143.131 137.912 143.79 138.648 144.457C139.33 145.078 140.266 144.151 139.76 143.353C138.349 141.13 136.754 138.332 136.141 136.231C134.952 132.152 133.488 126.709 138.004 121.833C138.004 121.833 134.998 122.408 134.232 126.755C134.232 126.755 134.032 126.801 134.032 131.991V156.87C134.032 161.232 132.53 166.599 129.21 169.421C128.965 169.628 129.049 170.049 129.348 170.134C130.467 170.425 132.974 170.778 137.49 170.003C144.038 168.876 144.743 167.519 144.743 167.519C144.743 167.519 139.062 161.018 137.544 152.968C137.544 152.968 141.278 158.235 144.628 160.535C147.986 162.842 151.551 164.56 151.551 164.56L154.419 162.727C154.419 162.727 150.524 161.424 143.762 154.624C138.54 149.372 136.286 146.803 135.458 143.346L135.466 143.338Z" fill="white"></path>
    <path d="M132.243 152.722V148.628C130.656 151.212 127.566 155.137 126.776 156.272C126.109 157.23 121.594 162.766 118.488 166.553C118.151 166.959 118.634 167.557 119.048 167.243C121.325 165.487 124.047 163.686 125.044 164.192C126.738 165.066 126.684 166.944 126.301 168.439C126.117 169.152 126.884 169.704 127.405 169.221C132.365 164.659 132.235 155.053 132.235 152.722H132.243Z" fill="white"></path>
    <path d="M142.249 145.922C141.911 145.531 141.344 145.508 140.976 145.868C140.631 146.206 140.577 146.781 140.846 147.187C144.963 153.42 155.995 161.348 155.995 161.348L157.943 159.929C157.943 159.929 151.127 154.961 148.421 152.477C146.351 150.576 143.483 147.34 142.249 145.914V145.922Z" fill="white"></path>
    <path d="M240.976 108.316C233.409 107.242 228.678 108.676 228.678 112.586C228.678 112.609 228.678 112.632 228.678 112.655C227.459 111.735 226.593 109.052 226.593 109.052C228.234 109.052 229.368 108.293 229.368 108.293C227.743 107.442 226.286 106.215 225.037 104.896C229.506 105.686 232.841 103.501 232.841 103.501C227.605 102.113 225.903 98.1419 225.903 98.1419C234.038 100.664 236.874 92.7214 236.874 92.7214C235.149 92.9974 233.608 93.0664 232.228 92.9898C232.466 92.0544 232.734 90.314 232.358 87.9757C231.86 84.9243 230.557 83.6669 230.158 83.3526C230.771 82.8772 231.323 82.3252 231.768 81.6888C234.666 77.5257 231.323 73.0483 231.323 73.0483C230.764 74.6967 229.752 75.9234 228.609 76.8281C228.502 75.3254 228.257 72.3046 227.981 70.7789C227.605 68.7012 224.891 63.9018 222.56 60.812C220.23 57.7223 218.397 55.1386 217.707 51.9185C217.017 48.6984 215.054 42.9023 212.724 39.3678C210.393 35.8334 209.258 36.0251 204.773 31.8007C203.086 30.206 201.476 29.2093 200.127 28.5959C193.764 19.2884 186.495 18.721 183.628 18.4757C180.684 18.2227 173.239 16.582 166.807 15.7846C160.374 14.9873 155.751 13.8526 151.711 11.8285C147.67 9.81215 146.076 9.51314 144.941 9.68181C143.806 9.85048 141.154 11.7442 140.402 12.7946C139.651 13.8449 138.976 16.9576 138.976 21.3278C138.976 25.6979 138.555 28.9793 136.96 31.7547C135.365 34.5301 134.1 36.2934 133.004 37.0525C132.291 37.5431 131.225 38.8925 130.566 39.7742C129.906 38.3712 129.186 36.8838 128.588 35.7031C127.008 32.6134 127.261 29.5236 125.122 25.9279C122.976 22.3321 121.404 17.8547 120.837 15.3323C120.269 12.8099 121.91 11.0465 121.09 7.7651C120.269 4.48369 118.437 4.04668 117.494 3.54067C116.551 3.03466 109.865 2.0303 107.404 1.52429C104.943 1.01828 92.8985 0.328259 86.65 0.6426C80.4092 0.95694 76.9975 5.31171 75.4871 7.20542C73.9767 9.09913 71.324 14.5196 70.634 16.1603C70.197 17.1877 69.4226 17.985 68.9013 18.445C66.2102 18.7057 61.9705 22.5468 59.0954 26.5029C56.8797 29.5466 55.814 32.4523 55.4 33.794C51.7352 34.6604 50.2019 37.9955 43.1177 43.9526C35.7192 50.1781 12.504 54.7169 13.8533 66.6618C15.2027 78.6068 47.8251 75.241 47.8251 75.241C47.8251 75.241 47.4035 77.0044 47.3191 79.8641C47.2348 82.7239 48.7452 90.6284 48.4998 96.7695C48.2545 102.911 45.6401 107.028 40.4266 106.775C35.2132 106.522 36.3862 101.14 36.3862 101.14C33.7795 101.73 30.9197 107.028 34.7072 113.085C38.4946 119.141 44.6281 115.776 44.6281 115.776C43.363 123.258 36.6392 126.962 36.6392 126.962C37.6512 130.419 40.8636 130.197 40.8636 130.197C34.5845 133.509 30.2681 129.752 30.2681 129.752C30.2681 129.752 28.1903 133.54 31.1497 138.899C32.8978 142.065 35.3282 142.702 37.0302 142.694C35.7959 145.416 36.3862 148.16 38.0882 151.702C40.488 156.686 46.4144 161.922 50.9532 164.445C55.492 166.967 63.8795 174.412 66.0876 178.697C66.0876 178.697 67.4139 172.955 65.5202 164.759C65.5202 164.759 68.4183 168.416 69.116 174.028C69.806 179.64 68.61 184.248 68.61 184.248C68.61 184.248 72.6504 184.501 73.7851 179.326C73.7851 179.326 75.0501 181.404 73.9767 185.567C73.0414 189.193 71.0327 189.132 70.5267 189.055C71.761 189.285 82.7246 191.003 87.5777 180.683C88.2601 181.151 88.7738 182.14 88.8198 183.643C89.6324 182.577 91.2962 179.625 91.1121 177.846C90.9895 176.704 90.5448 176.091 90.6828 176.075C91.0968 176.037 95.5513 181.197 94.0026 183.704L96.4789 181.619C99.929 178.713 101.677 174.182 100.818 169.75C100.78 169.559 100.742 169.367 100.696 169.168C100.098 166.676 99.0703 165.48 99.3233 165.403C99.791 165.25 103.831 169.007 106.308 173.338L111.644 168.846C111.644 168.846 114.58 170.923 118.398 171.958C122.217 172.993 128.841 173.752 128.841 173.752C128.841 173.752 130.596 174.189 137.895 173.752C145.194 173.315 151.504 170.172 151.504 170.172C151.504 170.172 156.51 167.328 157.959 166.254C158.672 165.725 162.935 168.961 167.083 172.388C166.899 169.06 167.213 166.369 167.466 166.346C167.65 166.331 167.65 167.719 168.532 170.088C169.874 173.706 171.997 176.282 173.914 178.222C174.236 178.506 174.52 178.759 174.757 178.966C175.938 178.053 177.012 177.141 177.939 176.236C185.269 182.631 185.491 185.322 185.491 185.322C196.508 184.731 198.862 172.372 198.862 172.372C199.705 174.895 199.284 178.935 199.284 178.935C212.823 171.79 211.144 155.559 211.144 155.559C211.735 159.515 212.072 165.058 212.072 165.058C220.567 156.816 218.044 146.811 218.044 146.811C220.314 151.097 218.972 155.981 218.972 155.981C231.5 153.037 224.692 140.762 224.692 140.762C229.23 142.525 231.753 141.099 231.753 141.099C227.942 135.855 228.188 130.435 228.341 128.963C228.724 129.338 229.023 129.668 229.207 129.959C231.04 132.735 230.848 134.122 230.848 134.122C230.848 134.122 232.174 137.02 237.219 136.583C242.264 136.139 243.146 132.167 244.848 124.915C246.925 116.052 248.566 109.42 240.999 108.346L240.976 108.316Z" stroke="white" stroke-width="0.843353" stroke-miterlimit="10"></path>
    <path d="M6.53953 208.729C6.53953 215.23 11.8297 220.521 18.3311 220.521H30.1228V213.498H18.3311V206.943H36.6779V227.068H18.3311C8.21857 227.068 -0.015625 218.842 -0.015625 208.721C-0.015625 198.601 8.2109 190.375 18.3311 190.375H36.6779V196.93H18.3311C11.8297 196.93 6.53953 202.22 6.53953 208.721V208.729Z" fill="white"></path>
    <path d="M107.222 220.574V227.129H88.615C86.7826 227.129 85.0499 226.707 83.4782 225.925C81.1705 224.775 79.2844 222.889 78.1881 220.581C77.3984 219.01 76.9844 217.277 76.9844 215.444V190.443H83.5319V216.073C83.8462 218.381 85.6786 220.213 87.9863 220.528L107.222 220.581V220.574Z" fill="white"></path>
    <path d="M116.388 200.295V203.699H139.972V210.247H116.388V217.162C116.388 218.995 117.906 220.52 119.746 220.52H146.527V227.076H119.746C114.295 227.076 109.895 222.621 109.895 217.17V200.295C109.895 194.844 114.295 190.39 119.746 190.39H146.527V196.945H119.746C117.914 196.945 116.388 198.463 116.388 200.303V200.295Z" fill="white"></path>
    <path d="M186.358 190.436V227.122L179.802 222.092L156.219 203.907V227.122H149.664V190.536L156.219 195.565L179.802 213.751V190.375L186.358 190.428V190.436Z" fill="white"></path>
    <path d="M253.802 200.556V200.349C253.802 198.516 252.284 196.991 250.444 196.991H235.563C233.73 196.991 232.205 198.509 232.205 200.349V200.556C232.205 202.388 233.723 203.914 235.563 203.914H248.773C252.177 203.914 255.22 205.378 257.314 207.686C257.467 207.847 257.574 208 257.735 208.161C259.361 210.155 260.357 212.723 260.357 215.498C260.357 221.893 255.167 227.083 248.773 227.083H237.295C230.901 227.083 225.711 221.893 225.711 215.498H232.266C232.266 218.274 234.52 220.528 237.295 220.528H248.773C251.548 220.528 253.856 218.274 253.856 215.498C253.856 212.723 251.548 210.469 248.773 210.469H235.563C232.887 210.469 230.48 209.419 228.693 207.694C228.218 207.218 227.804 206.697 227.436 206.122C226.332 204.55 225.703 202.61 225.703 200.517V200.31C225.703 194.859 230.104 190.405 235.555 190.405H250.436C255.888 190.405 260.342 194.859 260.342 200.31V200.517L253.787 200.571L253.802 200.556Z" fill="white"></path>
    <path d="M73.4191 219.524L60.3778 190.037H55.747L42.7057 219.524L39.3477 227.076H46.6848L50.0429 219.524L58.0624 201.407L66.0819 219.524L69.4324 227.076H76.7695L73.4191 219.524Z" fill="white"></path>
    <path d="M49.3242 227.075H66.8046L58.0644 207.326L49.3242 227.075Z" fill="white"></path>
    <path d="M223.091 219.524L210.057 190.037H205.419L192.378 219.524L189.027 227.076H196.365L199.715 219.524L207.734 201.407L215.754 219.524L219.112 227.076H226.449L223.091 219.524Z" fill="white"></path>
    <path d="M198.996 227.075H216.484L207.736 207.326L198.996 227.075Z" fill="white"></path>
  </g>
  <defs>
    <clipPath id="clip0_10472_16573">
      <rect width="260.366" height="227" fill="white" transform="translate(0 0.128906)"></rect>
    </clipPath>
  </defs>
</svg>
