<?xml version="1.0" encoding="UTF-8"?><svg id="Layer_2" xmlns="http://www.w3.org/2000/svg" viewBox="0 0 563.86 213.59"><defs><style>.cls-1{fill:#eaeaea;stroke-width:0px;}</style></defs><g id="Layer_2-2"><path class="cls-1" d="M562.59,83.81l-2.18-.36-2,1.45-.91,2-.73,1.64-.73,1.27-.91,1.64-1.82,4-.91,1.64-.73,1.45-.91,1.45-2.55,3.64-1.82,2.91-1.82,2.55-1.27,1.27-3.27,2.91-1.45.91-1.64.55-1.45.36-1.64-.18-1.45-.55-1.09-1.09-.55-1.64-.55-2.18-.18-2.36-.18-1.82v-1.64l.18-1.64.36-1.64.18-1.64.36-2.18.36-2.36.36-1.64.18-1.64,1.09-4.91.36-2.36.36-2.18.36-1.64.55-2,.36-1.09.73-2.36.55-2.36.55-1.64.36-1.64.36-1.45.36-1.64.55-1.64.55-1.45.55-1.64.36-1.64.36-1.45.36-1.64.55-1.45.55-1.64.55-1.45.55-1.64.55-1.45.36-1.64,2-6,.55-1.82.91-2.18,1.27-3.82.55-1.45.55-1.64.91-2.18.73-2.18,2.18-5.82.73-2,.73-2.18.91-2.18.55-1.64.55-1.45.73-1.45.73-1.64.36-1.64.36-1.45-.55-1.45-1.27-.91-1.82-.55-1.09-.36-1.82-.36-1.64-.18h-1.82l-2,.73-1.64,1.27-.73,1.45-1.64,3.09-.55,1.45-1.45,3.27-.36,1.09-.73,1.82-.55,1.45-1.09,3.27-.91,2.18-1.82,5.45-.55,1.45-1.09,3.27-.36,1.45-.73,1.82-.36,1.09-.55,1.82-1.27,3.09-.55,1.64-.36,1.45-1.09,3.27-.36,1.64-.73,1.27-1.09.55-1.27-.18-2-.36-2.36-.36h-4.18l-3.27.36-1.82.18-1.64.18-3.27.73-1.45.55-3.27,1.09-1.64.91-2.73,1.45-1.64.73-1.45.73-1.27.91-1.45,1.09-1.27.91-3.82,3.27-2.18,2.55-1.27,1.27-1.09,1.27-1.82,2.54-1.09,1.45-.73.91-1.09,1.82-.91,2-1.09,2-1.45,2.91-.55,1.64-1.64,4.36-.55,1.64-.55,1.82-.18,1.09-.55,1.82-.36,1.64-.36,2.36-.18,2.18-.18,1.82v.89l-1.89,2.2-2.55,2.36-1.27,1.09-1.27.91-2.55,2-2.91,1.45-3.09,1.27-1.45.55-1.64.55-1.64.36-4.73.91-1.64.18h-1.82l-1.64-.18-1.64-.36-1.27-.18-1.64-.55-1.82-.55-2.91-1.82-1.09-1.09-1.09-1.27-1.82-2.91-1.09-3.27-.36-1.45-.18-1.82v-3.09l.18-1.82v-1.64l.36-1.27.91-.73h1.27l4.91,1.09,1.64.18,3.27.18,3.27.36h1.64l1.64-.18,2.18-.36,2-.18,1.82-.36,1.64-.18,1.64-.55,1.82-.55,1.64-.73,1.09-.55,1.82-1.09,1.09-.36,1.64-.91,1.27-.91,2.55-2.18,2.18-2.55.91-1.27.73-1.45.91-1.64.55-.91.73-1.82.73-2.18.55-2.18.18-1.82.18-2.36v-2.18l-.18-1.64-.36-1.64-.55-1.64-.91-2.18-1.09-1.82-1.09-1.27-2.55-2.18-1.09-.73-1.45-.73-1.64-.73-1.64-.55-2.36-.55-2.91-.55-2.36-.36h-4l-2.36.36-3.27.73-3.82,1.27-2.36,1.09-1.64.73-1.82.91-1.82,1.09-1.64,1.27-1.82,1.27-1.64,1.27-1.45,1.27-2.73,2.73-2.73,2.91-1.09,1.27-.91,1.27-.73,1.64-1.27,1.82-1.09,2-.91,1.64-.91,2.18-.73,2-.55,1.64-.36,1.64-.55,1.64-.36,1.64-.55,1.45-.18.82-2.21,3.54-.91,1.27-.73,1.45-.91,1.45-.91,1.27-1.09,1.45-1.27,1.45-.55.91-2.36,2.91-.91,1.45-1.09,1.27-2.36,2.36-1.27,1.09-2.36,2.36-1.45.91-1.27.91-1.45.91-1.64.73-1.45.36-1.64.18-1.82-.18-1.45-.36-1.45-.73-1.27-1.27-.73-1.64-.55-1.45-.36-1.64-.18-1.64v-5.09l.18-1.64.36-1.64.36-3.27.18-2v-1.09l.36-2,.18-1.64.73-3.09.73-3.27.55-1.82.73-2.36.36-2.18.36-1.82.73-3.27,1.09-3.27.36-1.64.36-1.45.36-1.64.55-1.64.55-1.82.36-1.64.36-1.45.55-1.64.36-1.45,1.09-3.27.55-1.45.91-.73,1.45-.18,12.18-1.27,1.64-.36,1.82-1.27,1.27-2.18.55-2.36-.18-1.82-1.09-1.45-2-.55-10.91,1.09-1.27-.18-.91-.55.18-1.45.55-1.64.36-1.45.55-1.45.73-3.09.73-2.18.36-1.64,1.09-3.27.36-1.64.55-1.45.73-3.09.55-1.82v-1.64l-.73-1.45-1.27-1.09-1.45-.73-1.82-.54-1.64-.18h-1.64l-1.64.18-1.64.36-1.27.73-.73,1.45-.55,1.45-.55,1.64-.55,1.45-.55,1.64-.36,1.45-.18,1.64-.55,1.64-.36,1.45-.73,3.27-.55,1.45-.36,2-1.09,3.64-.73,2.18-.73,1.45-1.64.36-2.18-.18h-2.18l-1.27.54-1.09,1.27-.73,1.45-.55,1.64-.18,1.45.55,1.64,1.09.91,2,.55,2,.91.91,1.82-.36,2.55-.55,2.36-.55,1.82-.36,2.18-.91,3.45-.55,2.55-.73,2.36-.36,1.82-.55,2.18-.55,2.91-.55,2.36-.55,1.64-1.09,4.36-.73,1.64-.91,1.45-.91,1.27-.91,1.45-1.09,1.27-.91,1.45-.91,1.27-1.27,1.45-1.09,1.09-1.09.91-1.09,1.09-1.45,1.09-1.27.91-1.45.73-1.64.91-1.09.36-3.27,1.45-1.64.55-1.45.36-1.82.36-2.18.55-2.36.36h-4.91l-1.82.18h-1.82l-2.18-.36-2-.18-1.64-.36-2-.18-1.45-.55-.55-.91v-1.45l.55-1.82,1.09-4.91.55-1.82.36-1.64.55-1.64.73-3.45.55-1.45.91-1.27,2.91-1.45,1.64-.91,6.55-4.55,1.45-.91,3.82-2.73,1.27-1.27,1.27-1.09,1.09-1.09,1.27-1.09,1.09-1.09,1.09-1.27,4.55-4.55,2.18-2.54,1.09-1.45,2.18-3.64,1.09-1.64.91-1.27,1.09-1.45,2.18-4.36,1.27-2.73.91-1.64.55-1.45,1.27-3.82.55-2.36.73-1.64.73-3.27.55-2.18.36-2.36.36-1.82v-1.64l.18-1.64-.36-2.36-.55-2.73-.73-2.36-.55-1.64-.73-1.27-.91-1.27-1.45-1.27-1.27-1.09-1.09-.73-1.64-.73-2-.55-2.36-.18h-1.82l-2.36.36-2.73.73-2.36.73-1.64.73-1.82,1.27-1.82,1.45-1.45,1.27-2.18,2.18-1.64,1.82-1.64,2.36-1.27,2.36-.91,1.45-.73,1.27-1.45,2.91-.91,1.45-.73,1.82-.55.91-.73,1.82-.73,1.27-.73,1.64-.55,1.45-.73,1.64-1.45,2.91-.55,1.64-.55,1.45-.55,1.64-.73,1.45-.55,1.64-.55,1.45-.55,1.64-.55,1.45-.55,1.64-.36,1.64-.55,1.45-.55,1.64-.55,1.45-.55,1.64-.55,2-.73,2.36-.55,2-.55,1.64-.55,1.45-.55,1.64-.55,1.82-.18,1.09-.55,2.18-.36.91-.55,2-.36,1.45-1.09,3.27-.36,1.45-.47,1.42-.7-.88-2.18-.18-1.64,1.09-2.18,4.36-.91,1.45-.91,1.64-2,4-1.82,2.91-1.64,2.91-.91,1.45-1.09,1.45-.91,1.27-1.09,1.09-2.18,2.54-.91,1.27-1.09,1.27-1.27,1.09-1.09,1.09-1.27,1.09-1.45,1.45-.91.73-1.27,1.27-1.45,1.09-1.27.91-1.64.91-2,1.09-2.36.73-1.09-.55v-1.82l.55-1.82.36-1.09.55-1.82.73-3.27.36-2.18.55-2.36.36-1.82.73-2.18.55-2.18.55-1.64.36-1.45.55-1.64.55-2.36.55-2.18.36-1.64.55-1.64.36-1.64.73-2.18.55-2.18.55-1.64.73-3.27.73-2.36.55-2.18.55-1.82.73-2,.55-2.18.55-1.82.55-2.18.36-2.36.55-1.64,1.09-2.91.55-1.64.18-1.64v-1.64l-.55-1.27-1.45-.91-1.64-.55-1.82-.36h-3.45l-1.64.18-1.64.55-1.09,1.09-.73,1.45-.55,1.82-.55,2.18-.55,2-.73,3.27-.55,1.82-.55,2.18-.73,2-.73,1.64-.55,1.45-.36,1.64-.55,1.64-.36,1.64-.73,2.36-1.09,2.54-1.09,2.36-.55,1.64-.55,1.45-1.45,3.27-.73.91-.91,1.64-.55,1.64-.73,1.45-.91,1.64-.91,1.27-1.09,1.45-1.09,1.64-.55.91-1.27,1.64-.91,1.27-1.09,1.27-2.18,2.18-1.82,1.45-.73.73-1.45,1.27-1.45,1.09-1.27,1.09-1.45.91-1.64.55-1.64.36-1.64-.18-1.64-.36-1.64-.55-1.09-1.09-.73-1.64-.18-1.64v-3.45l.18-1.64.36-1.82.36-1.64.55-2,.18-1.09.36-1.82.36-1.64.55-1.64.36-1.45.36-1.64.18-1.64,1.09-3.27.73-3.27.55-2.18.55-2.36.73-1.64.36-1.64.36-1.45,1.09-4.91.55-1.64.36-1.64.36-1.45,1.09-4.91.55-1.64.36-1.64.18-1.64v-1.45l-.73-1.27-1.45-.91-1.45-.36-1.82-.18h-1.64l-1.82.18-1.64.18-1.64.73-.91,1.09-.55,1.45-1.09,4.91-.55,1.64-.36,1.64-1.09,3.27-.55,1.45-.18,1.64-.55,1.82-.55,1.45-1.09,3.27-.36,1.27-.55,1.64-.73,1.82-1.09,3.27-.55,1.45-1.45,6.55-.55,1.64-.36,1.64-.55,1.64-.14,1.3-1.07,1.61-.73.91-1.09,1.64-.73,1.27-1.09,1.45-.73.91-1.09,1.45-1.45,1.27-2.18,2-1.64,1.64-1.82,1.45-1.45,1.09-2,1.09-2.18.91-1.64.55-1.45.18h-3.09l-1.82-.36-1.45-.55-1.45-.91-1.09-1.27-.73-1.45-.73-1.64-.36-1.82-.18-1.09-.36-2v-3.64l.18-2.36v-3.82l.18-1.82.27-1.19.17-.26.73-1.45.55-1.27.55-1.64v-2.18l-.79-.88.17-.94.73-1.45,1.27-1.64,2-1.64,1.45-.91,1.27-.55,4-2.55,1.45-.91,2.73-2.36,2-1.45,1.45-1.45,1.27-1.09,2-2.18,1.09-1.27,2.36-2.36,1.27-1.45.73-.91,1.64-1.64,1.64-1.82,1.27-1.64.91-1.45.73-1.09.91-1.64.91-1.27.91-1.45.91-1.27,1.27-2,.91-2,1.45-2.91.91-1.64.55-1.64.73-1.45,1.45-4.36.36-1.82.55-1.45.73-3.27.36-4.91v-3.27l-.36-2.36-.73-2.18-.73-1.64-.91-2.18-1.27-1.82-.91-1.45-2.55-2.18-1.45-.73-1.82-.55-1.09-.18-1.82-.36h-3.27l-1.64.36-1.64.55-2,.91-2,1.27-2.91,2-1.27.91-1.27,1.27-.73.91-2.36,2.36-1.09,1.45-2.36,3.27-1.45,2.36-1.09,1.64-.91,1.64-.91,1.82-1.27,3.09-.91,1.64-.55,1.09-.73,1.64-.91,2.18-1.27,2.91-1.09,2.55-.36,1.09-1.82,4.73-.73,1.64-.73,2.18-.73,2.36-.55,1.27-.73,2.36-.73,2.54-.18,1.27-.73,2.55-.55,2.18-.36,1.64-.55,2.36-.73,2.73-.36,1.09-.55,2.18-.36.91-.55,3.27-.55,2.18-1.27,6-.36,1.82-.36,1.64v1.64l-.18,2.18-.55,4-.18,2.36v1.09l-.18,1.82-.05.47-2.42,2.07-3.09,1.64-1.45.73-1.82.73-1.64.36h-1.27l-1.82.18-1.64.18-1.27-.36-.36-.73,2-4,2-4.36.73-1.64.55-1.64.36-1.45.36-1.64.55-1.64.91-3.09.36-1.64.36-1.45.18-1.64.18-1.82.18-1.64v-1.64l.18-1.64-.18-1.64v-4.91l-.73-3.27-.36-1.45-.36-1.64-.55-1.64-.55-1.45-.73-1.45-1.09-1.64-2.18-2.18-1.09-1.27-1.27-.91-1.45-.73-1.82-.73-1.45-.55-1.45-.36-1.45-.55-1.64-.36-1.82-.18h-2.36l-2.18.18-1.82.18-2.36.73-2.55.91-2.18.91-1.64.73-2,1.27-1.82,1.09-1.45,1.27-1.82,1.27-1.64,1.45-.91.73-.36-.18.36-1.09.55-2.36v-2.73l-1.64-2-2.73-1.09-2.91-.18-2.91.18-2.18.73-1.27,1.09-1.45,4.36-.36,1.64-.55,1.45-.55,1.64-.55,1.82-.73,2.91-.18,1.45-.36,1.64-.55,1.64-.55,1.45-.36,1.64-.55,1.64-.36,1.45-.55,1.64-.55,1.45-.55,1.64-.36,1.64-.55,2.18-.45,1.97-1.2,2.4-.91,2-.91,1.82-1.09,1.82-.73.91-.91,1.64-.91,1.45-.73,1.64-.73,1.27-1.09,1.27-1.09,1.45-1.82,2.54-2.18,2.55-1.27.91-1.27,1.09-1.27,1.27-2.55,1.82-1.64.73-1.45.18-1.64-.18-1.27-.73-.91-1.27-.55-1.64-.36-3.27v-1.64l.18-1.64v-1.64l.18-1.82.36-2.36.36-2.18.55-1.82.55-2.36.55-2.18,1.09-4.91.55-1.64.36-1.64.36-1.45.55-1.64.36-1.27.55-1.64.55-1.82.55-1.45.55-1.64.73-3.27.73-1.45.55-1.64.36-1.45.55-1.64,1.45-2.91,1.27-3.82.55-2.18-.73-1.45-1.45-.91-1.45-.55-1.82-.36-1.64-.18-1.82-.18-1.82.18-1.64.55-1.27.91-.91,1.45-.73,1.45-.55,1.64-.36,1.45-1.09,3.27-.55,1.45-1.09,3.27-.36,1.45-.36,1.64-.73,1.64-.55,1.45-.55,1.64-.55,1.45-.55,1.64-.73,3.27-.55,1.45-.73,1.64-.55,1.45-.55,1.64-.55,1.45-.55,1.64-.55,1.45-.73,1.64-.73,1.45-.91,1.64-1.45,2.91-1.27,2-1.09,1.82-1.09,1.64-.91,1.27-3.27,3.82-1.09,1.09-2.55,2.18-1.45.91-1.64.91-1.45.73-1.27.55-1.45.73-3.27.73-2.18-.36-2.36-1.45-1.45-2.55-.36-2.91v-3.27l.36-2.91.55-2.36.36-1.64.55-1.64.36-1.45.73-3.27.55-1.64.36-1.64.18-1.64.73-3.27.55-1.45.36-1.64.55-1.64.73-2,.36-1.09.73-2.36.55-2.36.55-1.64.55-2,.55-.91.73-2.18.18-1.09.73-1.82,1.09-3.27.36-1.45.55-1.64.36-1.64v-1.45l-.73-1.09-1.45-.73-1.64-.55-1.64-.36-1.64-.18-1.82.36-1.64.36-1.64.73-1.27.91-.73,1.45-.55,1.64-.55,2.18-.91,2.18-.55,1.64-.55,1.45-2,6-.55,1.82-2.55,7.64-.18,1.45-.55,1.64-.36,1.64-.55,1.45-1.27,3.82-.55,2.18-.55,1.64-.73,3.27-.55,2.36-.36,2.18-.18,1.64-.36,1.64-.18,1.64-.36,1.64-.18,1.64v4.91l.18,1.82.18,1.64.55,1.45.73,1.64,1.82,2.55,1.27,1.27,2.55,1.82,1.45.73,1.64.55,1.27.36,1.64.18,1.82.18,1.64.18,1.64-.18,6.55-1.45,1.64-.55,2.91-1.45,2.91-1.64,1.45-.91,1.27-.91,1.09-1.27,3.45-3.45,3.27-3.82,1.09-1.45,1.82-2.55.91-1.45.55-.91.18.73-.36,1.82-.18,1.82.18,2.36.36,2.91.73,2.91.91,2.18,1.09,1.64,1.45,1.64,1.64,1.45,1.82.73,2.18.54,2.18.18,1.64-.18,3.27-.73,4.36-2.18,2.91-1.82,2.55-2.18,1.09-1.09,2.36-2.18,2.18-2.54,1.09-1.45.91-1.27.89-1.04-.33,1.4-.55,1.64-.55,1.45-1.09,4.91-.36,1.45-.36,1.64-.55,1.64-.55,2.36-.36,2.18-.36,1.82-1.09,4.36-.55,1.82-.36,1.64-.18,1.45-.18,1.64-1.82,8.18-.36,2.18-.36,2.36-.36,1.82-.36,2.36-.55,2.18-.36,1.64-.18,1.64-1.45,6.54-.18,1.45-.36,1.64-.18,1.64.18,1.45.91,1.27,1.64.73,2,.36,1.09.18h2l2-.18,1.64-.18,1.27-.55,1.27-.91.55-1.45.36-1.64.36-2.18.36-2.36.36-1.82.18-1.64.55-1.45.18-1.64.36-1.82.36-2.18.36-2.36.55-1.82.36-2.18.36-2.36.18-1.64,1.45-6.55.55-1.64.18-1.64.36-1.64.18-1.64,1.09-4.36.55-1.82.36-1.64.18-1.45.73-3.27.55-1.45.55-1.09.91-.18,1.09.55,1.09,1.27,1.27,1.09,1.27.91,1.64.73,1.45.73,1.64.73,1.45.55,1.64.36,1.64.18,2,.18h6.36l3.27-.73,1.82-.55,1.09-.36,1.82-.55,1.64-.73,1.45-.73,1.64-.91.91-.55,1.64-1.09,1.45-1.09,1.27-.91,1.27-1.09,1.27-1.27,1.09-1.27,1.27-.91,1.45-.36h1.45l1.64.55,1.64.36,1.64.18h1.82l1.64-.18,1.82-.55,2.36-.54,2-.73,1.64-.55,1.45-.91,1.27-.73,1.64-1.27.19-.13.28,1.4.18,1.64.55,1.64.36,1.64.55,1.45.73,1.64.73,1.45,1.09,1.27,1.09,1.09,1.27,1.09,1.45.91,1.45.73,1.64.54,1.45.55,1.64.36,1.82.18h1.09l2,.18,2.18-.18,3.64-.73,2.18-.73,1.64-.73,1.45-.55,1.45-.73,1.64-.73,1.45-.73,1.64-.91,1.27-1.09,1.09-.91,1.27-1.27,1.64-1.45,1.45-1.82,1.09-1.27.98-1.26.05.71v2.18l.18,1.82.73,2.18.91,2,.91,1.45,1.27,1.09,1.45,1.09,2,.91,1.82.73,1.64.36,2,.36,1.64.18,2.36-.36,2.18-.18,3.27-.73,1.64-.54,2.18-1.09,1.82-1.09,1.64-.73,1.27-.91,1.45-1.09,1.64-1.64,1.82-1.45,2.18-2.18,1.27-1.45,1.09-1.27,1.82-2.55,1.09-1.27.91-1.27,1.09-1.27.91-1.27h.18l-.36,1.64-.36,1.82-1.45,4.36-.36,1.64-.55,1.64-.91,3.09-.55,1.64-.55,1.45-.55,1.64-.36,1.64-.36,1.45-.55,1.64-.91,1.45-1.64,1.45-2,.91-1.64.91-2.18.91-2.36,1.09-1.09.36-4.73,2.18-.91.55-1.82.91-1.45.91-4.91,3.45-1.64,1.09-1.45.91-3.27,3.27-1.27,1.45-1.27,2-1.09,2-.73,1.64-.55,1.45-.36,1.64-.36,1.45-.36,1.64-.18,1.64v1.64l.36,2.18.55,2.18.91,1.82,1.45,1.82,2,2,1.82,1.45,1.82.73,2.18.73,2.91.55h4.91l2.18-.36,2.55-.55,2.18-.73,1.64-.91,2-1.09,1.82-1.27,1.45-1.09,1.27-1.09,1.09-1.09,2.18-2.55.91-1.27,1.45-2.91.91-1.64.36-1.09.91-1.64.55-1.45.73-1.64.91-2.18.73-2.18.36-1.82.55-1.64.55-1.82,1.64-4.91.36-1.64,1.09-3.27,1.09-1.09,1.27-1.09,2-.91,3.27-1.64,4-2.54,1.09-.73,3.09-2,1.45-1.27,1.27-1.09,2.36-2,1.27-1.27.91-1.09,2.36-2.36,1.27-1.09,1.09-1.45,1.45-1.82,1.27-1.64,1.09-1.45.91-1.45.91-1.64.73-.91,1.82-2.91.73-1.64.91-2,1.09-2,1.09-1.64.69-1.27-.24,1.09-.55,1.64-.36,1.45-1.09,4.91-.36,2.18-.55,2.36-.73,3.27-.18,1.45-.36,1.64-.55,1.64-.36,1.64-.18,1.64-.36,2.36-.36,2.18-.36,1.82-.55,2.18-.36,2.36-.36,1.64v1.45l-.18,1.82-.73,4.73-.18,1.82-.36,2.36-.18,2.18-.18,1.82v3.27l-.18,1.64v1.64l-.18,2.36v2.18l.18,1.82v1.64l.18,1.64.36,1.45.55,1.64.55,1.45.73,1.64.91,1.27,1.09,1.27,1.09,1.09,1.27,1.09,1.27.91,1.64.73,2.36.55,2.18.36h1.82l3.27-.36,1.45-.36,1.64-.55,1.45-.73,1.64-.73,1.82-1.27,1.82-1.45,1.45-1.09,1.09-1.09,1.09-1.27,1.09-1.45.91-1.27,1.45-2.91.55-1.64.73-1.45.55-2,.36-.91.55-2,.36-1.45.36-1.64.73-3.64.18-1.09.36-1.82.18-1.82v-1.64l.18-1.64v-1.64l.18-1.82-.18-1.64v-1.64l-.55-4.91-.55-1.64-.36-1.64-.18-1.64-1.09-3.27-2.18-4.36-.91-1.45-1.09-1.45-2.18-2.55-.55-.91.18-.55,1.27.18h6.54l2-.18h1.64l1.82-.18,1.64-.36,3.27-.55,1.64-.36,1.82-.73,1.09-.36,3.64-1.45,2.73-1.45,1.64-.73,1.27-1.09,1.45-1.09,1.27-1.09.91-.73.55.18.18,1.27-.18,1.64v8.36l.18,1.64.36,1.64.55,1.45.55,1.64.91,1.45.91,1.27,1.09,1.27,1.45,1.27.73.73,1.64,1.09,1.45.73,1.64.54,3.27.73,1.64.18h1.64l4.55-.36,1.82-.36,2.18-.73,2-.91,1.64-.91,1.27-.55,1.27-.91,1.64-1.09,2.55-2.18,2.18-2.18,1.09-1.27.91-1.27,1.27-1.45,1.27-1.82,1.64-2,.91-1.09,1.45-2,1.27-2,.16-.29.05.47.36,1.64.36,1.45.36,1.64.55,1.64.55,1.45.73,1.64.73,1.27.91,1.45,1.09,1.27,1.27,1.45.73.91,1.27,1.27,1.27,1.09,1.45.73,2.91,1.64,1.45.73,1.64.73,1.64.55,1.45.36,6.55.73h1.64l2-.18,2.36-.18,3.82-.36,2.18-.55,2.36-.36,1.64-.54,1.45-.55,4.55-2,2.91-1.82,1.64-1.45,1.82-1.45,2.55-2.18,1.09-1.27,1.27-1.45.43-.57.19.57,1.09,2.91.55,1.64.73,1.45.91,1.45,1.64,1.45,1.64,1.64,1.45,1.09,1.27.73,1.64.73,1.45.36,1.64.36,1.64.18,1.45.18,1.64-.18,1.82-.36,4.18-.91,1.82-.54,1.45-.73,1.64-1.09,1.82-1.45,1.64-1.27,3.82-3.27,1.09-1.09,2-2.55,1.09-1.27.91-1.27,1.64-2.91.91-1.45.91-1.27.36.18v3.45l.55,4.91.36,1.45.55,1.64.73,1.45,1.82,2.55,1.27,1.27,1.09.91,1.45.91,1.45.73,1.64.36,1.64.18,1.64-.18h1.45l1.64-.36,4.73-1.64,1.45-.73,1.27-.73,1.45-.91,1.27-1.09,1.27-1.45.73-.73,1.27-1.45,1.27-1.09,1.09-1.09.91-1.27,1.09-1.45.91-1.27,1.82-2.91,2.36-3.82,1.09-1.64,2.18-4.36.73-1.09,1.09-2.36,1.09-2,.91-1.82.91-2.18v-2.36l-1.27-1.82ZM426.34,82.54l.55-1.45.73-1.64.73-2.18,1.09-2,.91-1.64,1.27-1.82,1.27-2,1.27-1.45,1.45-1.64,1.64-1.64,2.55-2.18,1.45-.91,2.18-1.09,2.55-1.09,2.36-.55,1.82-.36,1.64.18,1.64.36,1.64.73,1.45,1.09,1.09,1.27.73,1.64.18,1.82-.18,1.64-.36,1.82-1.09,3.27-.91,1.64-.73,1.45-.91,1.27-1.09,1.45-1.27,1.09-1.27,1.27-1.27,1.09-1.27.91-1.82.91-1.09.36-1.82.73-1.64.36-1.82.36h-5.09l-1.82-.18-3.64-.18-2.36-.55-.91-.91.18-1.27ZM323.23,67.81l1.09-3.27.73-3.27.55-1.64.36-1.64.55-1.45.73-1.64.55-1.64.36-1.45,1.09-3.27.73-1.82.55-1.64.55-1.27.55-1.64.55-1.45.73-1.64.55-1.64.55-1.45.55-1.64.73-1.64.73-1.45.55-1.64.55-1.45.73-1.64.55-1.45.73-1.64,2.73-4.36.73-1.45.91-1.45,1.09-1.27,2.55-2.18,1.64-.91,1.45-.18,1.45.55,1.09,1.09.55,1.64.36,1.64-.36,3.27-.18,1.82-.36,1.45-.73,3.27-.55,1.45-1.09,3.27-.55,1.45-1.09,3.27-1.09,2.18-.91,2-.91,1.64-.91,1.45-2.18,4.36-1.09,1.64-3.64,5.09-2.18,2.55-2.55,2.55-.73.91-1.27,1.45-3.27,3.64-3.82,3.27-.91.73-.36-.18.36-1.27ZM184.48,66.36l.55-1.64.55-1.82.18-1.09.55-1.82,1.27-3.82.73-2.36.55-1.64.36-1.64,2.55-7.64,1.82-4.54.73-1.64,1.09-2.73.73-2,.55-1.45.73-1.64.73-1.45.73-1.64.73-1.45.73-1.64.91-1.64,1.82-2.73.91-1.45.91-1.27.91-1.09,1.27-1.09,1.64-1.27,1.64-.36,1.45.36,1.27.91.55,1.45.36,1.45v3.45l-.18,1.64-.18,1.82-.73,2-.55,2-.73,2-.55,2-.55,1.64-.36,1.64-.73,1.64-.73,1.82-.55,1.09-.73,1.82-1.45,2.91-.91,1.27-.73,1.27-.91,1.45-1.27,2-1.27,1.82-1.27,1.64-1.09,1.64-.73.73-1.09,1.64-.91,1.45-.91,1.27-7.45,7.45-1.82,1.45-1.09.73-.36-1.09.36-1.82ZM141.1,80.54l-.36,1.64-.36,1.45-.55,1.64-.36,1.64-.36,1.45-1.09,3.27-.55,1.45-.73,1.64-1.09,1.64-1.82.73-2.55.55-2.18.73-1.27,1.27-.73,1.27-.36,1.64.18,1.45.55,1.64.91,1.82.36,1.82-.73,1.27-1.27,1.09-1.45.91-2.73,1.82-1.45.73-1.64.36-1.45.36-1.64.36-1.64.18-1.82.18-3.27-.36-2.18-.55-2.36-.73-1.64-.73-1.27-.91-1.27-1.09-1.27-1.27-.91-1.09-.36-1.45.18-1.64.55-2.36.91-2.91.73-2.91.36-2.36.55-1.64.55-2.36.73-2.73.55-2.36.36-1.82.55-2.18,1.27-3.82.73-2.36.91-2.73.91-2,1.09-1.45,2.55-2.55,1.27-1.09,1.45-.91,1.27-1.09,1.64-.91,3.27-1.64,1.09-.36,3.64-1.45,1.82-.36,1.27-.36,1.64-.18h1.82l1.45.18,1.64.36,1.64.73,1.64,1.45,1.45,1.64.91,1.64.36,1.64.36,1.45.18,1.64v1.64l.18,1.82-.73,6.55ZM245.33,145.45l-.73,2.91-.73,2.73-.73,2.18-.55,1.82-.55,1.27-.73,1.64-.91,1.82-.91,1.45-1.09,1.27-.91,1.45-1.27,1.45-2.91,1.82-1.82.55h-2.36l-2.36-1.09-1.64-1.64-.36-1.64.18-2.18.91-2.73,1.64-2.55,1.82-2.36,2.91-2.91,1.45-1.09,1.27-1.09,3.82-2.18,1.27-.91,1.45-1.09,1.45-.91,1.82-.73.91.54-.36,2.18ZM321.23,133.81v6.73l-.36,1.64-.18,1.64-.36,1.82-1.09,4.91-.55,1.64-.55,1.45-.36,1.64-.55,1.64-.36,1.64-.73,1.64-.73,1.45-.91,1.45-2.18,2.54-1.27,1.09-1.64.55-1.45-.18-1.27-1.09-.73-1.45-.73-3.27-.18-1.64v-3.27l.36-3.27v-1.64l.36-3.27v-1.64l.18-1.82.36-2.36.36-2.18.36-1.64.36-2,.18-1.64v-1.45l.36-1.64.36-2.36.36-2.18.73-3.27.36-1.82.55-2.18.55-2.36.36-1.82.73-1.82.91-.91,1.09.55,1.09,1.09,1.09,1.45.91,1.27.91,1.45,1.09,3.27.36,1.27.55,1.64.55,1.82.36,1.64.36,1.82.18,1.64-.18,1.82ZM523.32,64.72l-.55,1.82-.55,2.36-1.45,5.82-.73,2.36-2.55,7.64-.55,1.45-.73,1.64-.91,2-.91,2.18-.73,1.64-.55,1.45-.73,1.64-.73,1.45-1.27,1.64-1.27,2.18-1.09,1.64-.91,1.45-.91,1.27-1.27,1.27-1.09,1.27-1.27,1.45-2.18,2.18-1.27.91-1.64.91-1.09.55-1.82.73-2.18.18-2.18-.36-1.64-.73-1.27-1.09-1.09-1.09-.91-1.27-.55-1.64-.36-2.36-.36-2.91-.36-2.36.18-1.82.18-2.18.36-2.36.55-1.64,1.09-4.36.73-1.64.55-1.45.55-1.64.55-1.45.91-1.45,2.18-4,.91-1.64.91-1.27,2.18-2.73,1.09-1.27,1.09-1.09,2.55-2.18,1.27-1.27,1.27-1.09,1.27-.91,1.45-.91,1.64-.73,1.64-.55,1.82-.73,1.09-.36,1.82-.36,1.64-.36h1.64l3.45-.18h1.64l1.27.73.55,1.64-.36,2Z"/><path class="cls-1" d="M68.8,210.93c-5.6,0-9.85-4.62-9.85-10.5v-.07c0-5.85,4.22-10.43,9.85-10.43,3.45,0,5.85,1.45,8,3.49l1.96-2.11c-2.54-2.4-5.31-4.03-9.92-4.03-7.49,0-12.87,5.96-12.87,13.16v.07c0,7.31,5.42,13.09,12.76,13.09,4.62,0,7.52-1.78,10.18-4.47l-1.89-1.85c-2.44,2.33-4.73,3.67-8.22,3.67Z"/><path class="cls-1" d="M111.51,187.53l-11.6,25.63h2.94l3.02-6.72h13.85l2.98,6.72h3.09l-11.6-25.63h-2.69ZM107,203.85l5.82-12.98,5.78,12.98h-11.6Z"/><polygon class="cls-1" points="167.7 208.1 151.67 187.71 148.98 187.71 148.98 213.15 151.78 213.15 151.78 192.29 168.21 213.15 170.5 213.15 170.5 187.71 167.7 187.71 167.7 208.1"/><polygon class="cls-1" points="214.58 208.1 198.55 187.71 195.86 187.71 195.86 213.15 198.66 213.15 198.66 192.29 215.09 213.15 217.38 213.15 217.38 187.71 214.58 187.71 214.58 208.1"/><path class="cls-1" d="M252.16,187.53l-11.6,25.63h2.94l3.02-6.72h13.85l2.98,6.72h3.09l-11.6-25.63h-2.69ZM247.66,203.85l5.82-12.98,5.78,12.98h-11.6Z"/><path class="cls-1" d="M304.72,199.99c2-.87,4.04-2.58,4.04-5.89v-.07c0-1.64-.58-2.98-1.64-4.07-1.45-1.42-3.74-2.25-6.65-2.25h-10.83v25.45h11.3c5.56,0,9.23-2.58,9.23-6.94v-.07c0-3.49-2.44-5.23-5.45-6.14ZM292.47,190.29h7.74c3.64,0,5.63,1.64,5.63,4.14v.07c0,2.98-2.4,4.54-5.85,4.54h-7.52v-8.76ZM307.26,206.03c0,2.83-2.4,4.54-6.25,4.54h-8.54v-8.98h8.03c4.43,0,6.76,1.6,6.76,4.36v.07Z"/><rect class="cls-1" x="334.3" y="187.71" width="2.87" height="25.45"/><path class="cls-1" d="M371.92,199.05c-5.6-1.2-6.91-2.54-6.91-4.94v-.07c0-2.29,2.11-4.11,5.42-4.11,2.62,0,4.98.84,7.34,2.76l1.67-2.22c-2.58-2.07-5.23-3.13-8.94-3.13-4.83,0-8.36,2.94-8.36,6.94v.07c0,4.18,2.69,6.07,8.54,7.34,5.34,1.13,6.62,2.47,6.62,4.83v.07c0,2.51-2.25,4.33-5.67,4.33s-6.07-1.2-8.72-3.6l-1.78,2.11c3.05,2.73,6.36,4.07,10.4,4.07,5.05,0,8.69-2.83,8.69-7.2v-.07c0-3.89-2.62-5.96-8.29-7.2Z"/><path class="cls-1" d="M445.01,210.93c-5.6,0-9.85-4.62-9.85-10.5v-.07c0-5.85,4.22-10.43,9.85-10.43,3.45,0,5.85,1.45,8,3.49l1.96-2.11c-2.54-2.4-5.31-4.03-9.92-4.03-7.49,0-12.87,5.96-12.87,13.16v.07c0,7.31,5.42,13.09,12.76,13.09,4.62,0,7.52-1.78,10.18-4.47l-1.89-1.85c-2.44,2.33-4.73,3.67-8.22,3.67Z"/><path class="cls-1" d="M478.56,187.27c-7.74,0-13.01,6.14-13.01,13.16v.07c0,7.02,5.2,13.09,12.94,13.09s13.01-6.14,13.01-13.16v-.07c0-7.02-5.2-13.09-12.94-13.09ZM488.52,200.5c0,5.78-4.14,10.43-9.96,10.43s-10.03-4.73-10.03-10.5v-.07c0-5.78,4.14-10.43,9.96-10.43s10.03,4.73,10.03,10.51v.07Z"/><rect class="cls-1" x="502.58" y="209.34" width="3.34" height="3.82"/></g></svg>