<?xml version="1.0" encoding="UTF-8"?><svg id="Layer_2" xmlns="http://www.w3.org/2000/svg" viewBox="0 0 513.94 45.98"><defs><style>.cls-1{fill:#FFFFFF;fill-rule:evenodd;}</style></defs><g id="Layer_1-2"><path class="cls-1" d="m7.2,30.58c0,2.88.8,5.09,2.38,6.64,1.58,1.54,3.63,2.31,6.13,2.31,1,0,1.94-.15,2.83-.47.87-.31,1.63-.75,2.28-1.31.65-.56,1.16-1.24,1.53-2.03.38-.8.57-1.69.57-2.69,0-1.12-.22-2.06-.66-2.82-.44-.75-1-1.39-1.69-1.91-.69-.52-1.43-.96-2.25-1.32-.82-.35-1.6-.66-2.35-.91-2-.71-3.88-1.43-5.63-2.16-1.76-.73-3.29-1.61-4.6-2.63-1.32-1.03-2.35-2.26-3.1-3.73-.75-1.46-1.13-3.3-1.13-5.51,0-1.79.36-3.43,1.1-4.91.73-1.48,1.71-2.76,2.95-3.82,1.23-1.06,2.67-1.88,4.31-2.44C11.51.3,13.26.02,15.09.02c1.96,0,3.8.34,5.51,1,1.71.67,3.19,1.61,4.44,2.82,1.26,1.21,2.24,2.65,2.95,4.32.71,1.67,1.06,3.53,1.06,5.57h-7.19c0-2.17-.59-3.92-1.76-5.26-1.17-1.33-2.78-2-4.82-2-1.79,0-3.34.46-4.63,1.38-1.3.92-1.94,2.32-1.94,4.19,0,.88.17,1.66.53,2.35.35.69.83,1.28,1.44,1.78.6.5,1.28.94,2.03,1.32.75.37,1.54.71,2.38,1,1.71.63,3.45,1.29,5.23,2,1.77.71,3.39,1.59,4.85,2.63,1.45,1.05,2.64,2.3,3.57,3.76.92,1.46,1.38,3.24,1.38,5.32,0,2.25-.4,4.24-1.19,5.95-.79,1.71-1.88,3.15-3.25,4.32-1.38,1.17-2.98,2.05-4.79,2.63-1.81.58-3.75.87-5.79.87-2.01,0-3.91-.34-5.73-1.03-1.82-.69-3.42-1.69-4.79-3.01-1.38-1.32-2.48-2.92-3.32-4.82C.41,35.22,0,33.04,0,30.58h7.2Z"/><polygon class="cls-1" points="57.29 7.53 57.29 19.93 75.39 19.93 75.39 26.38 57.29 26.38 57.29 38.46 75.39 38.46 75.39 44.91 50.09 44.91 50.09 1.08 75.39 1.08 75.39 7.53 57.29 7.53 57.29 7.53"/><polygon class="cls-1" points="112.52 44.91 107.45 44.91 92.29 1.08 99.87 1.08 110.01 32.95 120.09 1.08 127.67 1.08 112.52 44.91 112.52 44.91"/><polygon class="cls-1" points="152.09 7.53 152.09 19.92 170.18 19.92 170.18 26.37 152.09 26.37 152.09 38.46 170.18 38.46 170.18 44.9 144.89 44.91 144.89 1.08 170.18 1.07 170.18 7.53 152.09 7.53 152.09 7.53"/><polygon class="cls-1" points="216.77 32.25 216.77 1.07 223.97 1.07 223.97 44.9 216.08 44.9 198.73 13.72 198.73 44.9 191.54 44.9 191.54 1.07 199.43 1.07 216.77 32.25 216.77 32.25"/><path class="cls-1" d="m289.53,25.3c1.25,0,2.39-.24,3.41-.72,1.02-.48,1.89-1.13,2.6-1.94.71-.81,1.26-1.75,1.66-2.82.4-1.06.59-2.2.59-3.41,0-1.21-.19-2.35-.6-3.41-.39-1.07-.95-2-1.65-2.82-.71-.81-1.58-1.46-2.6-1.94-1.02-.48-2.16-.72-3.41-.72h-8.52s0,17.79,0,17.79h8.52Zm-15.72-24.23h15.72c2.34,0,4.46.41,6.36,1.22,1.9.82,3.52,1.93,4.88,3.35,1.36,1.42,2.4,3.06,3.13,4.91.73,1.86,1.1,3.81,1.1,5.85,0,2.08-.37,4.05-1.1,5.88-.73,1.84-1.77,3.46-3.13,4.88-1.36,1.42-2.98,2.54-4.88,3.35-1.9.81-4.02,1.22-6.36,1.22h-8.51s0,13.15,0,13.15h-7.2s0-43.83,0-43.83h0Z"/><path class="cls-1" d="m344.13,39.51c2.34,0,4.43-.46,6.29-1.37,1.85-.92,3.44-2.15,4.76-3.7,1.31-1.55,2.32-3.31,3-5.29.69-1.98,1.03-4.04,1.03-6.17,0-2.13-.34-4.18-1.03-6.17-.69-1.98-1.69-3.74-3-5.29-1.32-1.54-2.9-2.78-4.76-3.69-1.86-.92-3.96-1.38-6.29-1.38-2.34,0-4.44.46-6.29,1.38-1.86.92-3.45,2.15-4.76,3.7-1.32,1.54-2.32,3.31-3.01,5.29-.69,1.99-1.03,4.04-1.03,6.17,0,2.13.34,4.19,1.03,6.17.69,1.98,1.69,3.74,3.01,5.29,1.31,1.54,2.9,2.78,4.76,3.69,1.86.92,3.95,1.38,6.29,1.38h0Zm0,6.45c-3.51,0-6.67-.63-9.49-1.91-2.82-1.27-5.2-2.98-7.14-5.1-1.94-2.13-3.43-4.58-4.48-7.36-1.04-2.78-1.56-5.64-1.56-8.61,0-2.96.52-5.83,1.56-8.61,1.04-2.78,2.54-5.23,4.48-7.36,1.94-2.13,4.32-3.83,7.14-5.1,2.82-1.27,5.98-1.91,9.49-1.91,3.51,0,6.67.64,9.48,1.91,2.82,1.27,5.2,2.97,7.14,5.1,1.94,2.13,3.43,4.58,4.48,7.36,1.05,2.77,1.57,5.64,1.57,8.6,0,2.97-.52,5.84-1.57,8.61-1.04,2.78-2.54,5.23-4.48,7.36-1.93,2.13-4.31,3.83-7.14,5.1-2.82,1.28-5.98,1.91-9.48,1.91h0Z"/><polygon class="cls-1" points="386.26 1.06 393.71 1.06 393.71 44.89 386.27 44.89 386.26 1.06 386.26 1.06"/><polygon class="cls-1" points="440.61 32.24 440.61 1.06 447.81 1.06 447.82 44.89 439.92 44.89 422.58 13.71 422.58 44.89 415.38 44.89 415.38 1.06 423.27 1.06 440.61 32.24 440.61 32.24"/><polygon class="cls-1" points="476.36 7.51 465.54 7.51 465.54 1.06 494.46 1.05 494.46 7.5 483.57 7.5 483.57 44.89 476.37 44.88 476.36 7.51 476.36 7.51"/><path class="cls-1" d="m503.86,40.25c0-1.42.49-2.62,1.47-3.6.98-.98,2.16-1.47,3.54-1.47,1.42,0,2.62.49,3.6,1.47.98.98,1.48,2.18,1.48,3.6,0,1.38-.49,2.56-1.48,3.54-.98.98-2.18,1.47-3.6,1.47-1.38,0-2.56-.49-3.54-1.47-.98-.98-1.47-2.16-1.47-3.54h0Z"/></g></svg>