<svg xmlns="http://www.w3.org/2000/svg" width="259" height="116" viewBox="0 0 259 116" fill="none"><path d="M40.178 13.3499H33.1708V13.1804C33.1708 11.146 31.5321 9.56378 29.4977 9.56378H13.4492C11.4713 9.56378 9.83258 11.146 9.83258 13.1804V13.3499C9.83258 15.3842 11.4713 16.9665 13.4492 16.9665H27.6895C31.3625 16.9665 34.6401 18.5487 36.9004 21.0916C37.07 21.2612 37.2395 21.4307 37.3525 21.6002C39.1608 23.8041 40.178 26.5165 40.178 29.5115C40.178 36.4056 34.5836 42 27.6895 42H15.314C8.36334 42 2.82545 36.4056 2.82545 29.5115H9.83258C9.83258 32.5065 12.2625 34.9364 15.314 34.9364H27.6895C30.6844 34.9364 33.1708 32.5065 33.1708 29.5115C33.1708 26.5165 30.6844 24.0866 27.6895 24.0866H13.4492C10.5672 24.0866 7.96778 22.9564 6.10298 21.0916C5.5944 20.5831 5.08582 20.018 4.69025 19.4529C3.50356 17.7011 2.82545 15.6103 2.82545 13.3499V13.1804C2.82545 7.24691 7.57222 2.44364 13.4492 2.44364H29.4977C35.4312 2.44364 40.178 7.24691 40.178 13.1804V13.3499ZM78.3622 5.55164C80.2835 7.52946 81.4702 10.1854 81.4702 13.1239C81.4702 17.4751 78.8708 21.2047 75.1977 22.8434C74.237 23.2955 73.2199 23.6345 72.1462 23.7476C72.0332 23.7476 71.9202 23.7476 71.8072 23.7476V23.8041H52.8766V42H45.8695V2.44364H70.79C73.7285 2.44364 76.3844 3.63033 78.3622 5.55164ZM72.2592 16.4579C73.6154 15.8363 74.4066 14.5931 74.4066 13.1239C74.4066 11.8241 73.7285 10.9765 73.3329 10.5244C72.8808 10.0724 72.0332 9.50727 70.79 9.50727H52.8766V16.7969H70.79C71.2986 16.7969 71.8072 16.6839 72.2592 16.4579ZM115.911 34.9364L119.527 42.0565H111.616L107.999 34.9364L99.3536 18.0401L90.7642 34.9364L87.1476 42.0565H79.2363L82.7964 34.9364L99.3536 2.50015L115.911 34.9364ZM144.983 9.50727C137.92 9.50727 132.212 15.2147 132.212 22.2783C132.212 29.2855 137.92 34.9929 144.983 34.9929H164.762V42.0565H144.983C134.021 42.0565 125.205 33.1846 125.205 22.2783C125.205 11.3156 134.021 2.50015 144.983 2.50015H164.762V9.50727H144.983ZM181.025 9.50727C179.047 9.50727 177.409 11.146 177.409 13.1804V16.8535H202.838V23.8606H177.409V31.3198C177.409 33.3541 179.047 34.9929 181.025 34.9929H209.901V42.0565H181.025C175.148 42.0565 170.401 37.2532 170.401 31.3198V13.1804C170.401 7.24691 175.148 2.50015 181.025 2.50015H209.901V9.50727H181.025ZM235.376 2.50015C246.226 2.50015 255.097 11.3156 255.097 22.2218C255.097 27.0816 253.346 31.5458 250.407 34.9929C250.068 35.3884 249.729 35.8405 249.277 36.2361C245.717 39.7961 240.801 42 235.376 42H215.598V2.50015H235.376ZM235.376 34.9929C242.326 34.9929 248.034 29.2855 248.034 22.2218C248.034 15.2147 242.326 9.50727 235.376 9.50727H222.605V34.9929H235.376Z" fill="white"></path><path d="M20.064 103.495C10.08 103.495 2.64 96.2465 2.64 86.4545C2.64 76.6625 10.08 69.4145 20.064 69.4145C24.816 69.4145 29.088 70.9505 32.016 74.0705L30.48 75.6545C27.6 72.8225 24.096 71.6705 20.16 71.6705C11.568 71.6705 5.088 78.0065 5.088 86.4545C5.088 94.9025 11.568 101.239 20.16 101.239C24.096 101.239 27.6 100.039 30.48 97.2065L32.016 98.7905C29.088 101.911 24.816 103.495 20.064 103.495ZM67.0688 103.255H64.4288L60.1088 93.7985H40.6208L36.3488 103.255H33.7088L49.1648 69.6545H51.6128L67.0688 103.255ZM50.3648 72.3425L41.5808 91.7345H59.1968L50.3648 72.3425ZM98.0805 98.8385V69.6545H100.529V103.255H98.5125L75.6165 74.0705V103.255H73.1685V69.6545H75.2325L98.0805 98.8385ZM137.174 98.8385V69.6545H139.622V103.255H137.606L114.71 74.0705V103.255H112.262V69.6545H114.326L137.174 98.8385ZM179.1 103.255H176.46L172.14 93.7985H152.652L148.38 103.255H145.74L161.196 69.6545H163.644L179.1 103.255ZM162.396 72.3425L153.612 91.7345H171.228L162.396 72.3425ZM205.168 85.9265C209.92 86.8385 212.56 89.7185 212.56 94.3745C212.56 100.039 208.432 103.255 200.176 103.255H185.2V69.6545H199.216C206.416 69.6545 210.784 72.6785 210.784 78.2465C210.784 82.2305 208.528 84.8225 205.168 85.9265ZM199.12 71.7665H187.648V85.1585H199.12C204.928 85.1585 208.288 82.9025 208.288 78.4385C208.288 74.0225 204.928 71.7665 199.12 71.7665ZM187.648 101.143H200.176C206.608 101.143 210.112 99.0305 210.112 94.1825C210.112 89.3825 206.608 87.2705 200.176 87.2705H187.648V101.143ZM223.742 103.255H221.294V69.6545H223.742V103.255ZM244.282 103.495C239.29 103.495 234.49 101.623 232.042 98.9345L233.146 97.1105C235.45 99.5105 239.722 101.335 244.234 101.335C250.954 101.335 253.93 98.4065 253.93 94.7585C253.93 84.6785 232.954 90.7265 232.954 78.3425C232.954 73.5905 236.602 69.4145 244.858 69.4145C248.554 69.4145 252.394 70.5665 254.986 72.4385L254.074 74.4065C251.29 72.4865 247.882 71.5745 244.858 71.5745C238.33 71.5745 235.402 74.5985 235.402 78.2945C235.402 88.3745 256.378 82.4225 256.378 94.6145C256.378 99.3665 252.586 103.495 244.282 103.495Z" fill="white"></path></svg>