<svg xmlns="http://www.w3.org/2000/svg" fill="#fff" viewBox="0 0 2520 479"><path fill-rule="evenodd" d="M239.125 0c-8.236 9.891-15.911 20.1-22.392 31.632-25.437 43.156-38.037 89.266-36.723 139.468 40.004-16.422 79.381-16.159 118.784.012C300.248 112.82 279.11 46.314 239.125 0Zm-47.742 369.775c22.754 17.638 47.851 21.365 75.404 12.131 12.533-5.758 23.6-12.725 32.296-23.379 11.054-13.542 16.434-28.974 17.829-46.253a61.93 61.93 0 0 1-1.278.346l-.001.001c-.859.227-1.671.441-2.455.731a73384.82 73384.82 0 0 0-71.729 26.54c-2.65.982-4.314.402-5.328-2.487-.995-2.832-1.984-5.665-2.973-8.499l-.001-.004-.002-.005v-.001c-4.401-12.609-8.803-25.22-13.659-37.652-1.719-4.4-.496-5.905 3.119-7.198 7.057-2.524 14.117-5.043 21.176-7.563l.008-.002.007-.003.008-.003.008-.003.007-.002.008-.003.008-.003.008-.003.007-.002.008-.003.008-.003.007-.003.008-.002.008-.003c16.616-5.93 33.232-11.86 49.825-17.853l1.332-.481.003-.001c23.088-8.337 46.178-16.676 69.14-25.351 3.73-1.409 4.54-.287 6.073 2.627 5.783 10.988 10.721 22.306 14.098 34.375 2.048-1.419 3.354-3.163 4.618-4.85.526-.702 1.045-1.395 1.607-2.05 9.835-11.467 18.194-23.927 25.449-37.167 10.587-19.32 18.262-39.732 22.689-61.292.157-.765.316-1.53.475-2.295 1.328-6.38 2.663-12.799 2.816-19.375.052-2.256-.117-3.122-3.036-2.416-3.172.768-6.423 1.193-9.68 1.618h-.001c-2.065.27-4.132.54-6.184.898-18.98 3.311-37.143 9.246-54.516 17.324-19.907 9.256-37.871 21.677-54.362 36.176l-1.502 1.318c-5.651 4.955-11.427 10.021-15.944 15.696-1.739 2.185-3.543 4.332-5.351 6.484-4.85 5.773-9.726 11.575-13.423 18.207-1.053 1.888-2.154 2.974-4.47 1.846-14.414-7.025-29.431-9.41-45.445-7.078-14.689 2.14-27.787 7.709-38.673 17.413-20.96 18.685-30.53 42.007-26.464 70.365 2.905 20.258 12.296 36.693 28.42 49.192ZM118.3 164.658c10.167 4.874 19.139 11.109 28.08 17.322l.001.001h.001c1.255.873 2.51 1.745 3.768 2.613 2.955 2.039.93 3.32-.481 4.212-.21.133-.407.258-.571.374-4.978 3.539-9.373 7.686-13.796 11.864-19.572 18.49-32.735 40.819-40.264 66.564-.257.878-.715 1.429-1.207 1.927-8.75-8.72-16.038-18.638-22.66-29.011-15.005-23.508-25.731-48.77-31.335-76.223-.624-3.057-1.08-6.137-1.535-9.215-.61-4.114-1.218-8.226-2.226-12.272-.336-1.345-.539-3.309 1.99-2.84 3.425.635 6.864 1.189 10.304 1.744 6.61 1.065 13.22 2.13 19.73 3.768 17.375 4.372 34.038 10.588 50.201 19.172ZM1570 348.913V229.96c0-7.787-.01-7.788-7.24-8.106l-.73-.032c-4.14-.187-5.16.899-5.14 5.091.14 35.027.13 70.055.12 105.083-.01 9.626-.01 19.251-.01 28.877v4.694l-1.19.571c-.13-.225-.25-.457-.37-.689-.26-.498-.51-.997-.86-1.426-2.27-2.845-4.54-5.693-6.81-8.541l-.01-.016-.01-.012c-7.06-8.866-14.13-17.733-21.29-26.519-4.78-5.871-9.63-11.691-14.47-17.51-4.88-5.854-9.75-11.708-14.57-17.613-4.93-6.061-9.81-12.176-14.68-18.29l-.01-.017c-4.47-5.601-8.93-11.202-13.44-16.762-3.2-3.938-6.45-7.839-9.69-11.74v-.008l-.01-.002v-.01l-.01-.002v-.009c-6.14-7.388-12.28-14.775-18.11-22.404-2-2.617-3.83-2.993-6.08-2.518-2.17.457-1.82 2.092-1.51 3.571.1.501.21.984.21 1.397-.09 47.025-.09 94.049-.09 141.074v20.879c0 6.579.03 6.581 5.95 7.011l.48.035.27.02.34.025c5.17.392 6.1-1.308 6.08-6.188-.16-34.009-.14-68.019-.13-102.029.01-9.977.01-19.955.01-29.932v-6.206c.79.917 1.46 1.676 2.03 2.337 1.04 1.185 1.8 2.056 2.53 2.954 3.87 4.77 7.74 9.545 11.6 14.32l.03.037.03.037.06.075c6.05 7.467 12.09 14.934 18.16 22.384 3.62 4.447 7.27 8.873 10.92 13.3 4.13 5.023 8.27 10.046 12.37 15.099 5.62 6.914 11.2 13.849 16.79 20.784l.05.063c5.44 6.749 10.88 13.498 16.34 20.228 2.9 3.567 5.82 7.113 8.74 10.659l.01.005c5.48 6.656 10.96 13.312 16.27 20.108 1.64 2.099 3.35 1.947 5.11 1.791.17-.015.34-.03.52-.044 2.1-.161 1.8-1.579 1.53-2.83-.08-.399-.16-.782-.16-1.101.08-13.987.08-27.974.07-42.217v-.783ZM749.778 240.205c2.786 1.261 6.177 4.004 5.699 5.193-.982 2.441-3.035 4.483-5.046 6.484l-.002.002c-.477.474-.951.947-1.409 1.421-.802.833-1.267.143-1.685-.477v-.001c-.146-.216-.287-.425-.434-.556-13.731-12.285-29.742-18.803-48.134-20.477-14.427-1.314-28.219.851-41.214 6.489-14.213 6.166-25.194 16.534-32.503 30.375-7.52 14.239-11.157 29.508-9.968 45.568 2.103 28.407 13.876 51.365 40.315 64.26 16.983 8.284 35.269 9.358 53.921 5.874 12.046-2.249 22.341-7.923 32.216-14.652 2.882-1.964 4.705-4.461 4.596-8.609-.35-13.32-.276-26.658-.034-39.983.066-3.62-1.027-4.305-4.422-4.27-7.299.075-14.599.059-21.899.044-10.196-.022-20.391-.044-30.582.182-4.432.099-4.331-1.956-4.22-4.23.028-.572.056-1.158.014-1.727l-.005-.063c-.236-3.145-.4-5.336 4.341-5.265 21.489.325 42.986.237 64.478.048 3.596-.031 4.32.99 4.284 4.406-.019 1.864-.04 3.728-.061 5.592v.021c-.174 15.624-.349 31.258.177 46.864.219 6.494-2.247 10.608-6.804 14.278-13.434 10.819-28.412 18.965-45.615 20.716-32.102 3.267-61.428-3.24-83.464-29.106-10.471-12.292-16.25-26.906-18.335-42.963-2.348-18.08-1.588-35.877 5.043-53.055 8.307-21.521 23.306-36.593 44.491-45.686 15.59-6.691 32.017-8.236 48.533-6.78 17.69 1.559 33.862 7.921 47.728 20.083Zm1664.612-.061c12.2-6.674 25.36-8.809 39.59-8.214a375.73 375.73 0 0 0 3.14.12c3.34.116 6.45.224 9.61.724 14.47 2.287 27.09 7.401 35.27 20.341 1.14 1.796 1.98 1.801 3.89.906l.35-.164c4.04-1.896 6.06-2.843 6.45-4.247.39-1.403-.84-3.262-3.31-6.979l-.21-.318c-.83-1.252-1.76-2.33-2.72-3.421-10.83-12.368-25.33-17.644-40.93-18.71-16.95-1.157-34.1-1.255-50.35 5.682-23.91 10.212-32.25 24.736-30.01 48.341.49 5.139 2.33 10.181 5.98 14.518 7.85 9.333 18.24 13.856 29.5 17.248 9.08 2.738 18.38 4.523 27.68 6.307 9.69 1.859 19.37 3.718 28.81 6.653 9.38 2.916 19.02 6.406 24.52 14.681 10.62 15.99 4.4 36.746-12.15 45.174-18.73 9.539-38.42 10.462-58.46 5.624-14.7-3.549-27.73-10.509-36.22-23.455-3.53-5.385-6.42-5.17-10.75-2.036-.47.337-1.02.56-1.57.782l-.23.096c-.13.052-.26.105-.38.161-1.96.868-2.01 1.89-.98 3.816 3.13 5.82 6.95 11.137 11.94 15.358 14.25 12.083 31.19 18.102 49.53 19.661 14.76 1.254 29.54-.022 43.61-4.961 26.81-9.408 36.93-27.909 32.85-53.704-2.31-14.615-12.65-23.395-25.47-28.931-12.44-5.373-25.82-7.878-39.13-10.245-13.49-2.398-26.99-4.823-39.65-10.253-6.45-2.768-12.11-6.748-14.68-13.961-5.74-16.049 1.52-29.503 14.48-36.594Zm-1291.16 73.797h-.03c-20.7.018-41.19.036-61.68-.109-4.42-.031-5.67 1.227-5.62 5.627.23 19.826.21 39.657.01 59.484-.04 4.023 1.2 5.084 5.14 5.067 33.49-.141 66.98-.101 100.47-.025.46.001.99-.076 1.54-.155 1.61-.234 3.35-.487 3.7 1.175.63 3.027.3 6.296-.02 9.465l-.01.087-.05.53-.03.287c-.07.737-1.09.654-1.98.58-.17-.014-.34-.027-.49-.035l-.12-.004-.1-.001c-10.68.005-21.35.004-32.03.003-28.31-.002-56.63-.003-84.94.101-3.18.011-3.1-1.522-3.01-3.233v-.005c.01-.289.03-.582.03-.875-.01-22.709-.01-45.419-.01-68.129v-16.351c0-6.488 0-12.977.01-19.465.01-20.505.03-41.011-.11-61.515-.02-3.716.84-4.629 4.6-4.612 36.82.16 73.65.171 110.47-.008 4.11-.02 5.82.875 5.06 5.088-.2 1.13-.16 2.346 0 3.49.39 2.806-.66 3.647-3.52 3.594-6.99-.129-13.98-.107-20.97-.084-2.67.008-5.35.016-8.02.016-5.91 0-11.82.006-17.73.011-17.59.016-35.17.032-52.75-.094-3.95-.028-5.17 1.071-5.13 5.081.19 19.66.19 39.324 0 58.984-.03 3.979 1.13 5.121 5.11 5.102 13.17-.064 26.34-.063 39.51-.063 17.99 0 35.98.001 53.96-.162 4.63-.042 4.6 2.009 4.57 4.858-.01.255-.01.517-.01.784v.389c0 .141.01.281.01.421.04 2.927.07 5.44-4.58 4.777-2.22-.317-4.51-.243-6.95-.163-1.14.037-2.31.075-3.53.075-6.94 0-13.85.006-20.73.012h-.04Zm117.15-90.702c-1.38 1.355-1.38 4.109-1.38 9.71v85.905c0 24.353 0 48.706.01 73.059 0 .291-.02.582-.03.869-.09 1.719-.16 3.248 3.02 3.236 28.33-.105 56.67-.103 85.01-.101h.03c10.64.001 21.29.001 31.93-.004.21 0 .45.02.71.041.89.072 1.91.155 1.98-.588l.02-.197.03-.277.04-.445v-.001c.32-3.166.64-6.431.01-9.453-.35-1.648-2.1-1.396-3.71-1.164-.55.079-1.08.156-1.54.155-33.82-.075-67.65-.1-101.48.018-3.2.012-4.14-.736-4.11-4.051.16-20.162.2-40.326-.02-60.486-.05-4.39 1.19-5.659 5.61-5.633 13.83.082 27.66.082 41.49.082 17.16 0 34.33 0 51.49.157 4.63.042 4.6-2.013 4.57-4.881l-.01-.195v-1.037c0-.11 0-.219.01-.326.03-2.839.05-4.887-4.57-4.845-17.98.163-35.96.163-53.95.162h-.01c-13.17 0-26.34 0-39.51.064-3.98.019-5.14-1.125-5.11-5.103.19-19.661.2-39.326 0-58.986-.04-4.014 1.19-5.106 5.13-5.078 17.86.125 35.71.109 53.57.094 5.97-.006 11.94-.011 17.92-.011 2.59 0 5.18-.009 7.78-.018 6.73-.023 13.47-.045 20.21.087 2.86.056 3.9-.804 3.51-3.601-.16-1.144-.2-2.361 0-3.49.76-4.224-.97-5.103-5.07-5.082-26.79.14-53.59.126-80.38.112-8.03-.004-16.06-.008-24.09-.008-5.16 0-7.78 0-9.11 1.31ZM83.133 303.931c2.082.304 3.572-.326 5.713-1.232l.145-.062c-.556 14.937 1.146 29.287 4.604 43.373 3.42 13.932 8.649 27.195 16.352 39.563l-2.62-.25-.012-.002h-.003c-8.783-.837-17.337-1.652-25.828-3.313-20.744-4.055-39.95-11.89-58.245-22.288-4.568-2.596-8.833-5.617-13.098-8.637v-.001c-2.449-1.734-4.896-3.467-7.4-5.119-3.217-2.123-2.265-3.491-.003-5.257C24.1 324.038 47.97 312.528 74.235 305.95a214.55 214.55 0 0 1 8.898-2.019Zm286.007 81.456c26.244-1.075 50.598-7.891 74.14-19.182a243.843 243.843 0 0 1 4.426-2.322l.003-.002c1.955-1.009 3.844-1.983 5.69-3.034 7.889-4.488 15.313-9.682 22.427-15.307a9.463 9.463 0 0 1 .201-.156l.07-.053.095-.072.087-.066c1.391-1.051 2.449-1.851-.33-4.147-9.563-7.899-19.982-14.417-30.916-19.971-17.253-8.764-35.538-14.787-54.978-17.965.265 29.297-6.352 56.911-20.915 82.277Zm1400.97 10.542c-3.98.593-5.23-.414-5.22-4.388.16-54.996.14-109.992.03-164.987 0-3.488.47-4.898 4.47-4.742l.76.029c7.84.297 7.85.297 7.85 8.484v31.125c.01 38.954.02 77.909-.09 116.863-.02 4.291.71 5.791 5.49 5.748 16.01-.144 32.02-.145 48.03-.146 13.15-.001 26.3-.001 39.46-.082 3.96-.024 5.97.641 5.14 5-.19.964-.15 2.011-.01 2.991.44 3.086-.46 4.386-3.93 4.194-4.1-.228-8.2-.179-12.31-.13-1.73.021-3.46.041-5.19.041h-84.48ZM132.947 415.392c-5.083-5.206-5.136-5.154-8.943 1.549-11.731 19.181-17.699 39.804-20.212 61.926 2.581-1.214 5.04-1.333 7.388-1.447 1.138-.055 2.25-.11 3.338-.286 23.195-3.767 43.847-13.326 63.065-26.423 2.493-1.7 3.463-3.118-.372-4.825-16.63-7.402-31.502-17.426-44.264-30.494Zm201.967 53.555c-13.699-4.806-25.448-12.334-37.453-20.862 20.411-8.98 38.084-21.168 53.175-37.37 13.405 20.788 21.507 43.034 23.753 67.775-13.822-1.609-26.843-3.923-39.475-9.543ZM2263.9 395.128c15.74-1.601 29.19-7.255 39.88-19.61 8.12-13.336 9.29-27.089 3.91-41.194-5.46-14.307-16.33-22.983-31.55-27.438 6.63-2.46 12.09-5.041 16.67-9.245 13.88-12.731 15.26-32.61 7.72-48.416-9.12-19.134-26.71-26.14-46.25-27.025-16.45-.745-32.94-.597-49.44-.449-8.34.075-16.69.15-25.02.109-2.97-.014-3.91.559-3.9 3.764.11 55.485.12 110.971-.01 166.456-.01 3.564 1.28 3.92 4.25 3.906 11.85-.054 23.7-.053 35.55-.053h.02c10.97 0 21.94 0 32.91-.042 5.09-.02 10.15-.243 15.26-.763Zm32.72-34.654c3.39-12.035 1.51-23.536-7.86-33.281-.91-.713-1.69-1.444-2.44-2.15-.86-.808-1.68-1.583-2.63-2.262-10.69-7.652-23.1-9.263-35.52-9.691-11.19-.385-22.39-.319-33.6-.254-6.96.041-13.93.082-20.9.015-3.85-.038-4.76 1.334-4.74 4.942.14 20.666.17 41.334-.03 61.998-.03 3.689 1.16 4.249 4.48 4.217 17.33-.169 34.66-.204 51.99-.028 9.23.093 18.36-.74 27.18-3.169 10.99-3.027 20.77-8.59 24.07-20.337Zm-98.58-59.545c-4.62 0-6.88 0-7.98-1.129-1.06-1.08-1.06-3.194-1.06-7.331 0-3.26 0-6.521.01-9.781v-4.192c.01-13.832.03-27.665-.08-41.496-.02-3.137.62-4.188 4.01-4.158 7.03.063 14.06-.007 21.09-.078 12.81-.129 25.61-.257 38.36.421 15.45.82 30 5.801 36.85 21.614 8.14 18.775 1.81 38.009-20.79 44.115-6.03 1.63-12.17 2.136-18.44 2.074-12.27-.122-24.53-.1-36.97-.077-4.97.009-9.97.018-15 .018ZM933.412 372.974l4.822 5.225 5.545 6.011c.38.458.719.895 1.035 1.302.47.606.889 1.145 1.313 1.587.824.859 1.581 1.829 2.341 2.802 2.107 2.697 4.235 5.422 7.86 5.897 3.203.419 6.473.325 9.96.224h.003c1.595-.046 3.235-.093 4.935-.093-2.467-2.941-4.731-5.428-6.909-7.82l-.025-.027-.064-.071c-.525-.577-1.046-1.148-1.563-1.72-11.184-12.361-22.509-24.595-33.834-36.83l-.011-.012c-5.036-5.44-10.072-10.881-15.096-16.332-.276-.3-.647-.582-1.021-.867l-.001-.001c-.927-.705-1.877-1.428-1.467-2.477.53-1.357 1.833-1.145 3.085-.94.47.077.933.152 1.344.143 13.065-.286 24.915-4.017 34.634-12.93 14.404-13.21 18.579-29.826 15.747-48.785-4.025-26.951-25.978-44.941-53.056-45.267-13.404-.161-26.81-.137-40.217-.113h-.004c-11.579.021-23.157.041-34.735-.057-4.104-.035-5.154.877-5.141 5.081.131 42.755.122 85.51.113 128.266-.003 10.881-.005 21.762-.005 32.642 0 7.899.009 7.9 7.244 8.189l.637.025c3.973.162 5.31-.621 5.242-4.989-.139-9.01-.127-18.023-.115-27.036.014-9.644.027-19.287-.146-28.928-.084-4.651 1.382-5.329 5.506-5.241 12.654.268 25.319.216 37.975.013 3.123-.05 5.218.899 7.272 3.143 12.161 13.295 24.382 26.536 36.717 39.901l.049.053.031.032Zm-14.375-56.122c9.7-1.029 18.164-5.067 24.709-13.167 7.513-10.638 10.287-21.887 8.355-34.602-3.126-20.572-17.744-33.826-36.674-34.869-14.896-.821-29.846-.648-44.797-.474h-.002c-7.203.083-14.406.167-21.604.139-2.366-.009-3.085.603-3.077 3.032.086 25.968.077 51.936.011 77.904-.006 2.236.36 3.239 2.935 3.164 8.783-.256 17.574-.129 26.365-.003 14.607.21 29.213.42 43.779-1.124Zm1121.673-67.661c21.95 48.822 43.64 97.346 65.73 146.735-1.36 0-2.68-.014-3.96-.027-3-.031-5.83-.06-8.64.091-1.67.089-2.06-1.008-2.38-1.912-.02-.06-.04-.119-.07-.176a3.046 3.046 0 0 0-.13-.338 2324.433 2324.433 0 0 1-15.27-34.863c-1.65-3.871-3.54-5.999-8.57-5.944-31.16.343-62.32.241-93.48.08-3.61-.018-5.38.847-6.83 4.347-3.19 7.715-6.58 15.345-9.98 22.975l-.01.021c-1.88 4.247-3.77 8.494-5.63 12.756-.88 2.023-1.88 3.199-4.33 3.048-2.41-.148-4.82-.117-7.45-.084-1.19.014-2.41.03-3.7.03 1.08-2.481 2.14-4.936 3.19-7.37l.01-.036c2.28-5.274 4.51-10.451 6.82-15.593 5.32-11.825 10.66-23.639 16-35.454 5.78-12.78 11.56-25.56 17.31-38.352 6.53-14.541 13.02-29.1 19.52-43.659l.05-.105c3.37-7.56 6.74-15.119 10.12-22.676.03-.064.06-.125.1-.185.05-.073.1-.143.16-.214.1-.133.2-.265.26-.413 4.49-10.565 6.26-11.524 17.46-10.01 1.44.195 1.86.794 2.35 1.922 3.66 8.385 7.38 16.741 11.35 25.406Zm3.29 91.738h-69.91l46.98-106.623 46.94 106.623H2044Z" clip-rule="evenodd"/></svg>