<?xml version="1.0" encoding="UTF-8"?>
<!-- Generator: Adobe Illustrator 28.2.0, SVG Export Plug-In . SVG Version: 6.00 Build 0)  -->
<svg xmlns="http://www.w3.org/2000/svg" xmlns:xlink="http://www.w3.org/1999/xlink" version="1.1" id="Layer_1" x="0px" y="0px" viewBox="0 0 512 522" style="enable-background:new 0 0 512 522;" xml:space="preserve">
<style type="text/css">
	.st0{fill:#3CB54A;}
	.st1{fill:#FFFFFF;}
</style>
<polygon class="st0" points="430.1,246.9 495.1,126.4 429.5,6.5 299.5,7.2 234.6,127.7 300.2,247.6 "></polygon>
<polygon class="st0" points="430.1,274.4 299.5,275.1 234.6,395.6 300.2,515.5 430.8,514.8 495.8,394.3 "></polygon>
<path class="st1" d="M346.4,359.5c-3.3,28.1-18.8,97.8,39.5,145.3h-68.3c-6-33.5-21.4-149.4,42.2-178.1  c-32.1,6.7-38.8,26.1-38.8,26.1s6-58.9,98.5-41.5C404.7,344.7,372.5,364.1,346.4,359.5z"></path>
<polygon class="st0" points="211.8,141.8 81.2,142.5 16.2,263 81.9,382.9 212.5,382.2 277.4,261.7 "></polygon>
<polygon class="st1" points="162.2,277.1 162.2,336.7 124.1,336.7 124.1,277.1 67.8,277.1 67.8,236.2 124.1,236.2 124.1,176.6   162.2,176.6 162.2,236.2 218.5,236.2 218.5,277.1 "></polygon>
</svg>
