<?xml version="1.0" encoding="UTF-8"?>
<svg width="418.36" height="537.4" version="1.1" viewBox="-1507 702.41 418.36 537.4" xml:space="preserve" xmlns="http://www.w3.org/2000/svg" xmlns:cc="http://creativecommons.org/ns#" xmlns:dc="http://purl.org/dc/elements/1.1/" xmlns:rdf="http://www.w3.org/1999/02/22-rdf-syntax-ns#"><metadata><rdf:RDF><cc:Work rdf:about=""><dc:format>image/svg+xml</dc:format><dc:type rdf:resource="http://purl.org/dc/dcmitype/StillImage"/><dc:title/></cc:Work></rdf:RDF></metadata>
<path d="m-1092.6 971.11c0 146.19-91.88 264.7-205.2 264.7-113.3 0-205.16-118.51-205.16-264.7 0-146.19 91.861-264.7 205.16-264.7 113.32 0 205.2 118.51 205.2 264.7z" fill="#fff" stroke="#29496f" stroke-width="8"/>
<path d="m-1345.8 865.82c-0.673-0.947-3.495-1.276-5.284-0.991-0.487-0.128-0.938-0.195-1.327-0.188-0.421-1.001-0.902-1.928-1.39-2.74 0 0.355-1.422 0.712-1.422 0.355 0.378 0.631 0.719 1.337 1.037 2.056-0.48 0.066-1.027 0.21-1.596 0.41-2.306 0.471-5.02 1.521-5.488 2.346-0.309 0.695 0.287 1.526 1.133 2.36 0.053 0.206 0.124 0.416 0.204 0.626-0.147 2.285 2.979 5.347 3.642 7.172-0.173-0.45-0.25-0.989-0.258-1.582 0.025 0.053 0.058 0.106 0.079 0.156-0.03-0.063-0.051-0.132-0.079-0.195-0.021-2.448 1.146-5.788 1.857-7.646 0.328-0.55 0.791-1.164 1.308-1.557 0.194 0.604 0.363 1.196 0.473 1.734 0.532 0.356 1.065 0.356 1.422 0.534l0.179-0.178c-0.159-1.11-0.462-2.181-0.839-3.188 0.046 7e-3 0.093 0.015 0.142 0.022 0.539 0.45 1.018 1.093 1.229 1.739 0.891 1.961 2.668 6.772 1.601 9.089 0.561-1.119 2.1-2.871 3.036-4.639 0.104 0.315 0.166 0.617 0.166 0.896 0-0.506 0.201-1.329 0.398-2.233 0.086-0.286 0.146-0.568 0.17-0.845 0.264-1.407 0.371-2.844-0.393-3.513zm-8.932 0.325c0.186-0.396 0.512-0.774 0.869-1.091 0.114 0.286 0.209 0.564 0.308 0.849-0.365 0.038-0.761 0.119-1.177 0.242zm1.869 61.059c-0.488-0.127-0.938-0.195-1.328-0.188-0.418-1.001-0.902-1.929-1.39-2.741 0 0.356-1.422 0.714-1.422 0.356 0.379 0.631 0.72 1.336 1.037 2.054-0.481 0.068-1.03 0.212-1.604 0.414-2.304 0.471-5.013 1.521-5.481 2.345-0.31 0.696 0.29 1.526 1.136 2.361 0.054 0.205 0.123 0.412 0.203 0.621-0.151 2.284 2.979 5.35 3.644 7.177-0.174-0.451-0.25-0.992-0.258-1.584 0.024 0.052 0.058 0.107 0.08 0.158-0.031-0.063-0.053-0.133-0.08-0.198-0.021-2.447 1.146-5.787 1.856-7.644 0.329-0.549 0.792-1.164 1.31-1.557 0.192 0.605 0.361 1.197 0.471 1.734 0.533 0.356 1.065 0.356 1.423 0.535l0.177-0.179c-0.158-1.11-0.461-2.181-0.838-3.188 0.046 7e-3 0.094 0.015 0.142 0.023 0.538 0.449 1.017 1.093 1.23 1.74 0.89 1.96 2.668 6.771 1.602 9.089 0.56-1.119 2.098-2.871 3.033-4.638 0.104 0.313 0.166 0.616 0.166 0.896 0-0.507 0.202-1.331 0.399-2.236 0.086-0.284 0.145-0.563 0.17-0.839 0.264-1.411 0.374-2.85-0.391-3.52-0.674-0.946-3.498-1.275-5.287-0.991zm-3.648 1.314c0.188-0.396 0.511-0.773 0.869-1.09 0.114 0.285 0.208 0.563 0.308 0.848-0.365 0.039-0.761 0.12-1.177 0.242zm-36.744-45.618c-0.568-0.202-1.115-0.345-1.597-0.412 0.234-0.532 0.49-1.045 0.756-1.538 0.447-0.01 0.91-0.063 1.348-0.161-0.178-1.96 0.356-2.673 2.847-2.139-0.354-1.067 0.355-2.138 0.533-3.386-2.666 1.071-6.4 1.783-7.113 4.636 0.067 0.409 0.399 0.687 0.871 0.854-0.355 0.645-0.705 1.324-1.015 2.065-0.39-7e-3 -0.841 0.061-1.33 0.188-1.788-0.285-4.61 0.044-5.284 0.99-0.765 0.67-0.654 2.11-0.393 3.521 0.024 0.271 0.083 0.551 0.169 0.834 0.197 0.905 0.398 1.73 0.398 2.238 0-0.278 0.063-0.582 0.166-0.896 0.938 1.767 2.478 3.52 3.037 4.639-1.067-2.315 0.711-7.128 1.601-9.089 0.215-0.646 0.69-1.29 1.229-1.739 0.049-9e-3 0.096-0.017 0.143-0.021-0.377 1.008-0.682 2.079-0.839 3.188l0.178 0.177c0.356-0.177 0.891-0.177 1.422-0.534 0.107-0.538 0.276-1.128 0.473-1.734 0.515 0.392 0.979 1.007 1.309 1.556 0.711 1.855 1.878 5.197 1.857 7.645-0.027 0.064-0.05 0.135-0.08 0.198 0.022-0.051 0.055-0.105 0.08-0.157-0.01 0.592-0.084 1.131-0.259 1.582 0.664-1.826 3.793-4.889 3.644-7.173 0.08-0.209 0.149-0.418 0.203-0.624 0.847-0.834 1.442-1.665 1.136-2.362-0.471-0.824-3.186-1.876-5.49-2.346zm-2.227 1.18c0.1-0.284 0.192-0.562 0.308-0.848 0.358 0.314 0.686 0.693 0.87 1.09-0.418-0.122-0.813-0.203-1.178-0.242z" fill="#078381" stroke="#000" stroke-width=".25"/>
<path d="m-1237.7 927.1c-0.57-0.202-1.121-0.346-1.604-0.414 0.317-0.718 0.657-1.423 1.038-2.054 0 0.357-1.424 0-1.424-0.356-0.485 0.813-0.971 1.74-1.389 2.741-0.391-7e-3 -0.84 0.062-1.328 0.188-1.789-0.285-4.611 0.045-5.287 0.992-0.766 0.67-0.654 2.11-0.393 3.521 0.024 0.271 0.084 0.547 0.168 0.828 0.199 0.908 0.401 1.735 0.401 2.244 0-0.28 0.063-0.583 0.166-0.896 0.938 1.767 2.478 3.52 3.034 4.639-1.064-2.317 0.713-7.128 1.602-9.089 0.215-0.647 0.689-1.291 1.229-1.74 0.049-9e-3 0.097-0.017 0.145-0.023-0.377 1.009-0.684 2.079-0.838 3.188l0.178 0.179c0.354-0.179 0.889-0.179 1.422-0.535 0.106-0.538 0.275-1.129 0.471-1.734 0.519 0.393 0.979 1.008 1.312 1.557 0.709 1.856 1.877 5.197 1.854 7.645-0.026 0.064-0.049 0.135-0.08 0.197 0.021-0.05 0.056-0.104 0.08-0.157-0.01 0.592-0.084 1.132-0.258 1.582 0.662-1.826 3.793-4.89 3.643-7.174 0.08-0.21 0.15-0.418 0.203-0.623 0.849-0.834 1.443-1.665 1.136-2.36-0.471-0.823-3.18-1.875-5.481-2.346zm-2.234 1.178c0.101-0.284 0.191-0.563 0.308-0.848 0.356 0.315 0.685 0.694 0.869 1.09-0.417-0.122-0.814-0.203-1.177-0.242zm-4.556-61.209c0.215-0.646 0.69-1.29 1.229-1.739 0.049-9e-3 0.096-0.017 0.144-0.023-0.377 1.009-0.683 2.079-0.841 3.188l0.179 0.178c0.356-0.178 0.89-0.178 1.422-0.534 0.106-0.538 0.274-1.129 0.473-1.734 0.518 0.393 0.979 1.007 1.309 1.557 0.713 1.856 1.879 5.197 1.857 7.646-0.025 0.063-0.048 0.134-0.078 0.195 0.021-0.05 0.055-0.104 0.078-0.156-0.01 0.592-0.084 1.132-0.26 1.582 0.664-1.827 3.796-4.891 3.645-7.176 0.08-0.208 0.149-0.416 0.201-0.62 0.848-0.834 1.443-1.666 1.137-2.362-0.471-0.823-3.184-1.875-5.486-2.346-0.567-0.2-1.115-0.343-1.598-0.41 0.318-0.719 0.66-1.425 1.037-2.056 0 0.356-1.422 0-1.422-0.355-0.486 0.813-0.973 1.739-1.391 2.74-0.389-7e-3 -0.84 0.062-1.327 0.188-1.791-0.285-4.61 0.044-5.286 0.991-0.768 0.67-0.654 2.114-0.391 3.527 0.022 0.268 0.082 0.541 0.164 0.817 0.199 0.911 0.401 1.74 0.401 2.249 0-0.279 0.063-0.582 0.166-0.897 0.938 1.769 2.478 3.521 3.035 4.641-1.064-2.318 0.714-7.13 1.603-9.091zm3.084-2.013c0.358 0.315 0.686 0.694 0.869 1.091-0.416-0.123-0.813-0.204-1.177-0.243 0.101-0.283 0.194-0.562 0.308-0.848zm49.377 18.944c-0.676-0.946-3.496-1.275-5.285-0.99-0.486-0.128-0.938-0.194-1.327-0.188-0.345-0.82-0.731-1.572-1.13-2.271 0.242-0.163 0.406-0.376 0.451-0.648-0.713-2.853-4.444-3.564-7.112-4.635 0.179 1.248 0.89 2.318 0.53 3.387 2.49-0.534 3.024 0.179 2.85 2.139 0.611 0.137 1.275 0.193 1.877 0.152 0.27 0.496 0.521 1.012 0.762 1.547-0.48 0.066-1.029 0.21-1.601 0.412-2.306 0.47-5.017 1.521-5.483 2.344-0.312 0.697 0.287 1.528 1.135 2.362 0.053 0.206 0.123 0.415 0.203 0.625-0.148 2.284 2.979 5.346 3.641 7.172-0.172-0.451-0.25-0.992-0.258-1.584 0.025 0.053 0.06 0.107 0.082 0.16-0.033-0.063-0.055-0.135-0.08-0.201-0.021-2.447 1.146-5.786 1.857-7.642 0.328-0.549 0.793-1.164 1.309-1.556 0.193 0.605 0.362 1.196 0.472 1.733 0.532 0.356 1.063 0.356 1.424 0.535l0.178-0.178c-0.157-1.109-0.463-2.181-0.84-3.188 0.047 6e-3 0.095 0.014 0.142 0.021 0.539 0.45 1.02 1.094 1.231 1.739 0.89 1.961 2.666 6.773 1.601 9.089 0.561-1.119 2.102-2.872 3.035-4.639 0.104 0.314 0.166 0.617 0.166 0.896 0-0.506 0.2-1.328 0.397-2.231 0.088-0.287 0.146-0.57 0.172-0.847 0.255-1.409 0.362-2.846-0.399-3.515zm-8.934 0.325c0.187-0.396 0.513-0.775 0.869-1.091 0.112 0.286 0.209 0.563 0.308 0.848-0.367 0.039-0.761 0.12-1.177 0.243z" fill="#078381" stroke="#000" stroke-width=".25"/>
<path d="m-1269.7 975.42c-0.675-0.943-3.494-1.273-5.285-0.988-0.487-0.127-0.938-0.195-1.328-0.188-0.318-0.766-0.678-1.486-1.047-2.146 0-0.021 0.016-0.037 0.016-0.061-0.533-2.496-4.09-3.386-6.4-4.1 0 0.891 0.709 1.96 0.354 2.852 2.31-0.356 2.845 0.356 2.666 2.137 0.763 0.086 1.562 0.127 2.19 0.033 0.157 0.314 0.303 0.627 0.446 0.951-0.481 0.068-1.028 0.211-1.603 0.414-2.303 0.469-5.014 1.521-5.481 2.344-0.312 0.695 0.289 1.527 1.136 2.361 0.053 0.205 0.122 0.414 0.202 0.623-0.149 2.285 2.979 5.348 3.642 7.174-0.174-0.451-0.25-0.99-0.258-1.584 0.024 0.053 0.057 0.107 0.08 0.158-0.031-0.063-0.054-0.133-0.08-0.197-0.021-2.447 1.146-5.787 1.858-7.645 0.327-0.551 0.793-1.164 1.31-1.559 0.192 0.605 0.36 1.197 0.469 1.734 0.533 0.354 1.065 0.354 1.425 0.533l0.179-0.18c-0.156-1.105-0.461-2.18-0.838-3.188 0.045 6e-3 0.092 0.016 0.141 0.021 0.539 0.449 1.018 1.094 1.232 1.738 0.888 1.961 2.664 6.771 1.6 9.09 0.559-1.119 2.098-2.871 3.033-4.639 0.104 0.313 0.166 0.617 0.166 0.895 0-0.504 0.201-1.322 0.396-2.225 0.09-0.291 0.148-0.578 0.176-0.855 0.258-1.397 0.363-2.833-0.397-3.503zm-8.933 0.326c0.187-0.396 0.51-0.773 0.868-1.09 0.111 0.285 0.207 0.563 0.308 0.848-0.365 0.039-0.76 0.119-1.176 0.242zm-43.528-17.254c0.215-0.647 0.692-1.291 1.23-1.741 0.048-9e-3 0.095-0.017 0.142-0.021-0.377 1.008-0.683 2.078-0.84 3.188l0.178 0.179c0.354-0.179 0.89-0.179 1.423-0.534 0.106-0.538 0.276-1.13 0.472-1.735 0.515 0.393 0.979 1.007 1.308 1.556 0.713 1.856 1.879 5.198 1.856 7.646-0.026 0.063-0.047 0.133-0.077 0.194 0.021-0.05 0.053-0.104 0.079-0.154-0.01 0.592-0.086 1.131-0.259 1.582 0.664-1.828 3.793-4.893 3.645-7.176 0.08-0.209 0.148-0.416 0.2-0.621 0.849-0.834 1.444-1.665 1.136-2.362-0.47-0.823-3.183-1.875-5.484-2.345-0.57-0.202-1.118-0.346-1.6-0.413 0.316-0.719 0.66-1.423 1.037-2.056 0 0.357-1.423 0-1.423-0.355-0.485 0.813-0.969 1.74-1.388 2.74-0.39-7e-3 -0.84 0.061-1.328 0.188-1.79-0.285-4.611 0.044-5.286 0.991-0.765 0.67-0.653 2.11-0.392 3.521 0.024 0.272 0.084 0.552 0.169 0.834 0.197 0.906 0.4 1.73 0.4 2.237 0-0.279 0.063-0.581 0.166-0.896 0.937 1.767 2.477 3.52 3.035 4.639-1.068-2.315 0.711-7.125 1.601-9.086zm3.085-2.014c0.357 0.314 0.683 0.693 0.867 1.09-0.416-0.123-0.813-0.204-1.174-0.242 0.099-0.284 0.192-0.563 0.307-0.848zm3.701 62.044c-0.57-0.201-1.118-0.346-1.601-0.412 0.317-0.719 1.55-4.119 1.927-4.752 0 0.355-0.688-1.305-0.688-1.658-0.485 0.813-2.594 5.74-3.013 6.74-0.39-0.01-0.84 0.063-1.328 0.188-1.79-0.285-4.612 0.045-5.287 0.99-0.764 0.67-0.655 2.107-0.393 3.518 0.024 0.275 0.084 0.559 0.172 0.846 0.196 0.9 0.397 1.727 0.397 2.23 0-0.277 0.063-0.58 0.166-0.895 0.938 1.768 2.478 3.52 3.035 4.641-1.065-2.316 0.712-7.131 1.601-9.09 0.215-0.646 0.691-1.291 1.23-1.74 0.048-0.01 0.097-0.018 0.145-0.021-0.378 1.008-0.683 2.078-0.839 3.188l0.177 0.178c0.355-0.178 0.891-0.178 1.424-0.531 0.106-0.537 0.274-1.131 0.471-1.734 0.517 0.395 0.979 1.008 1.31 1.557 0.709 1.855 1.875 5.195 1.854 7.645-0.027 0.064-0.048 0.137-0.08 0.199 0.023-0.053 0.055-0.105 0.081-0.158-0.01 0.592-0.084 1.133-0.258 1.584 0.661-1.826 3.794-4.895 3.642-7.176 0.08-0.209 0.15-0.416 0.202-0.621 0.847-0.834 1.444-1.666 1.136-2.361-0.469-0.834-3.18-1.885-5.483-2.355zm-2.23 1.178c0.102-0.283 0.193-0.563 0.309-0.846 0.356 0.313 0.684 0.689 0.869 1.09-0.416-0.123-0.813-0.205-1.178-0.244z" fill="#078381" stroke="#000" stroke-width=".25"/>
<path d="m-1349.7 931.05c1.247-1.96 3.025-2.316 4.625-1.426 1.423 0.713 2.135 3.208 0.356 4.812 3.199 1.069 2.846 5.703-0.533 6.06 2.488 1.248 2.488 5.348-0.891 5.882 1.602 1.781 0.535 4.633-1.422 5.345 0.178 1.07-0.533 2.14-1.778 2.673 0.712 1.427 0.355 2.675-0.533 3.565-0.179 1.068-0.89 1.604-1.601 2.138-0.355 1.247-1.425 2.316-3.024 2.316s-3.021-1.248-3.021-3.029c-2.49-1.425-1.957-4.099 0-5.346-2.668-1.069-3.022-3.921-1.246-5.168-0.533-0.714-0.711-1.426-0.711-2.139-1.423-0.892-1.955-2.495-1.244-3.743-2.847-0.712-3.2-3.564-1.957-4.99-2.133-1.604-1.243-4.634 0.713-5.346-0.355-1.783 1.065-3.208 2.666-3.387 1.068-0.178 2.313 0.356 2.846 1.248 0.89-0.534 2.489-0.179 3.379 0.892 0.71-0.536 2.133-1.07 3.376-0.357zm1.781-62.376c1.245-1.96 3.021-2.315 4.624-1.426 1.423 0.714 2.133 3.208 0.354 4.812 3.199 1.07 2.846 5.703-0.533 6.061 2.487 1.248 2.487 5.347-0.892 5.88 1.603 1.782 0.536 4.634-1.423 5.346 0.18 1.069-0.532 2.141-1.775 2.676 0.709 1.425 0.354 2.672-0.535 3.563-0.179 1.07-0.89 1.604-1.603 2.139-0.354 1.247-1.422 2.315-3.021 2.315-1.6 0-3.022-1.247-3.022-3.029-2.488-1.425-1.957-4.098 0-5.345-2.669-1.07-3.023-3.922-1.246-5.169-0.533-0.713-0.711-1.425-0.711-2.139-1.422-0.891-1.956-2.495-1.245-3.742-2.846-0.713-3.2-3.564-1.955-4.99-2.136-1.604-1.245-4.633 0.71-5.346-0.354-1.783 1.068-3.209 2.668-3.388 1.066-0.179 2.313 0.356 2.846 1.248 0.89-0.535 2.49-0.178 3.38 0.892 0.71-0.535 2.131-1.069 3.379-0.358zm-53.174 18.177c-1.245-1.96-3.023-2.315-4.624-1.425-1.423 0.713-2.134 3.208-0.354 4.813-3.2 1.068-2.846 5.703 0.533 6.06-2.49 1.247-2.49 5.348 0.89 5.88-1.602 1.783-0.535 4.634 1.422 5.347-0.177 1.068 0.535 2.139 1.778 2.673-0.711 1.426-0.354 2.674 0.534 3.564 0.179 1.069 0.891 1.604 1.602 2.14 0.354 1.247 1.424 2.315 3.022 2.315 1.603 0 3.023-1.248 3.023-3.03 2.487-1.425 1.955-4.099 0-5.345 2.666-1.068 3.021-3.921 1.244-5.169 0.531-0.712 0.711-1.425 0.711-2.139 1.422-0.891 1.955-2.495 1.243-3.742 2.847-0.713 3.202-3.564 1.957-4.99 2.136-1.604 1.245-4.633-0.711-5.348 0.355-1.781-1.065-3.208-2.668-3.384-1.065-0.18-2.311 0.354-2.844 1.246-0.891-0.535-2.491-0.179-3.38 0.892-0.712-0.534-2.134-1.069-3.378-0.358z" fill="#b400b4" stroke="#000" stroke-width=".324"/>
<path d="m-1245.5 931.05c-1.245-1.96-3.021-2.316-4.625-1.426-1.424 0.713-2.137 3.208-0.354 4.812-3.203 1.069-2.847 5.703 0.532 6.06-2.489 1.248-2.489 5.348 0.89 5.882-1.601 1.781-0.533 4.633 1.424 5.345-0.178 1.07 0.533 2.14 1.779 2.673-0.714 1.427-0.356 2.675 0.532 3.565 0.177 1.068 0.89 1.604 1.601 2.138 0.356 1.247 1.422 2.316 3.022 2.316 1.602 0 3.021-1.248 3.021-3.029 2.49-1.425 1.957-4.099 0-5.346 2.668-1.069 3.021-3.921 1.244-5.168 0.537-0.714 0.713-1.426 0.713-2.139 1.424-0.892 1.955-2.495 1.244-3.743 2.846-0.712 3.201-3.564 1.957-4.99 2.133-1.604 1.244-4.634-0.713-5.346 0.354-1.783-1.064-3.208-2.664-3.387-1.07-0.178-2.313 0.356-2.848 1.248-0.893-0.534-2.492-0.179-3.38 0.892-0.709-0.536-2.133-1.07-3.375-0.357zm-1.779-62.376c-1.243-1.96-3.021-2.315-4.623-1.426-1.424 0.714-2.135 3.208-0.356 4.812-3.2 1.07-2.844 5.703 0.535 6.061-2.49 1.248-2.49 5.347 0.89 5.88-1.603 1.782-0.534 4.634 1.423 5.346-0.18 1.069 0.531 2.141 1.777 2.676-0.711 1.425-0.354 2.672 0.533 3.563 0.178 1.07 0.89 1.604 1.604 2.139 0.354 1.247 1.422 2.315 3.021 2.315 1.601 0 3.022-1.247 3.022-3.029 2.487-1.425 1.957-4.098 0-5.345 2.67-1.07 3.021-3.922 1.245-5.169 0.531-0.713 0.712-1.425 0.712-2.139 1.422-0.891 1.954-2.495 1.243-3.742 2.847-0.713 3.199-3.564 1.957-4.99 2.134-1.604 1.242-4.633-0.713-5.346 0.354-1.783-1.065-3.209-2.668-3.388-1.063-0.179-2.313 0.356-2.846 1.248-0.889-0.535-2.488-0.178-3.379 0.892-0.711-0.535-2.133-1.069-3.377-0.358zm53.175 18.177c1.241-1.96 3.021-2.315 4.622-1.425 1.423 0.713 2.134 3.208 0.354 4.813 3.201 1.068 2.847 5.703-0.532 6.06 2.487 1.247 2.487 5.348-0.892 5.88 1.601 1.783 0.533 4.634-1.424 5.347 0.178 1.068-0.533 2.139-1.777 2.673 0.714 1.426 0.355 2.674-0.532 3.564-0.179 1.069-0.892 1.604-1.603 2.14-0.354 1.247-1.422 2.315-3.021 2.315-1.603 0-3.022-1.248-3.022-3.03-2.49-1.425-1.957-4.099 0-5.345-2.666-1.068-3.021-3.921-1.244-5.169-0.531-0.712-0.713-1.425-0.713-2.139-1.422-0.891-1.957-2.495-1.244-3.742-2.844-0.713-3.199-3.564-1.955-4.99-2.135-1.604-1.244-4.633 0.712-5.348-0.354-1.781 1.065-3.208 2.669-3.384 1.064-0.18 2.311 0.354 2.846 1.246 0.889-0.535 2.488-0.179 3.379 0.892 0.706-0.534 2.131-1.069 3.377-0.358z" fill="#b400b4" stroke="#000" stroke-width=".324"/>
<path d="m-1355.6 956c-0.709 2.673 1.246 5.346 3.38 4.813-1.423 1.782-4.802 1.426-5.513-1.426-0.532-0.892 0.354-3.03 2.133-3.387zm2.135-2.318c-0.711 2.317 1.776 4.278 3.912 3.921-1.423 1.782-4.802 1.248-5.515-1.246-0.532-0.892-0.175-2.496 1.603-2.675zm1.957-4.989c-0.713 2.494 1.244 5.168 3.379 4.634-1.604 1.96-4.803 1.425-5.515-1.248-0.534-1.069 0.179-3.207 2.136-3.386zm-5.692-4.99c-0.889 2.496 1.245 5.169 3.379 4.634-1.602 2.139-4.801 1.425-5.69-1.248-0.357-1.07 0.355-3.031 2.311-3.386zm3.914-2.316c-0.712 2.672 1.243 5.347 3.555 4.633-1.599 1.961-4.978 1.427-5.689-1.069-0.534-1.069 0.353-3.208 2.134-3.564zm-5.16-3.208c-0.889 2.673 1.246 4.455 3.379 3.92-1.6 2.14-4.801 1.427-5.69-1.247-0.355-1.069 0.356-2.317 2.311-2.673zm8.714-0.179c-0.889 2.495 1.247 4.99 3.38 4.634-1.601 1.96-4.802 1.425-5.69-1.247-0.356-1.07 0.354-3.208 2.31-3.387zm-4.801-3.386c-0.71 2.674 0.354 4.812 2.489 4.455-1.422 1.961-3.912 1.604-4.623-0.891-0.355-1.247 0.358-3.208 2.134-3.564zm-7.291-1.96c-0.71 2.673 1.246 5.346 3.559 4.811-1.603 1.961-4.979 1.248-5.69-1.247-0.536-1.069 0.353-3.208 2.131-3.564zm1.779-3.208c-0.713 2.674 1.244 5.168 3.379 4.812-1.6 1.96-4.801 1.426-5.514-1.248-0.533-1.069 0.178-3.386 2.135-3.564zm8.18 1.425c-0.712 2.495 1.244 5.168 3.379 4.813-1.423 1.96-4.802 1.247-5.514-1.248-0.533-1.07 0.357-3.386 2.135-3.565zm4.269-1.604c-0.89 2.674 1.243 5.168 3.379 4.813-1.603 1.96-4.802 1.425-5.516-1.248-0.53-1.069 0.18-3.208 2.137-3.565zm-6.225-35.642c-0.712 2.673 1.245 5.346 3.379 4.813-1.422 1.781-4.801 1.426-5.513-1.427-0.534-0.891 0.355-3.029 2.134-3.386zm2.133-2.318c-0.71 2.317 1.779 4.277 3.912 3.921-1.423 1.781-4.801 1.247-5.512-1.247-0.533-0.891-0.177-2.495 1.6-2.674zm1.956-4.989c-0.71 2.496 1.247 5.169 3.38 4.633-1.601 1.961-4.802 1.427-5.513-1.247-0.533-1.07 0.177-3.208 2.133-3.386zm-5.69-4.991c-0.89 2.496 1.244 5.169 3.379 4.635-1.601 2.138-4.803 1.425-5.689-1.248-0.356-1.07 0.353-3.031 2.31-3.387zm3.914-2.316c-0.713 2.673 1.244 5.347 3.557 4.633-1.602 1.96-4.979 1.428-5.691-1.067-0.536-1.071 0.356-3.209 2.134-3.566zm-5.158-3.208c-0.891 2.674 1.244 4.455 3.379 3.921-1.602 2.139-4.803 1.426-5.691-1.247-0.356-1.07 0.357-2.318 2.312-2.674zm8.715-0.178c-0.891 2.495 1.245 4.99 3.379 4.633-1.602 1.961-4.802 1.426-5.69-1.247-0.358-1.069 0.354-3.208 2.311-3.386zm-4.803-3.386c-0.711 2.673 0.355 4.812 2.49 4.456-1.425 1.959-3.914 1.604-4.623-0.892-0.356-1.247 0.354-3.207 2.133-3.564zm-7.291-1.96c-0.713 2.673 1.244 5.346 3.557 4.811-1.6 1.96-4.979 1.248-5.69-1.247-0.535-1.068 0.354-3.207 2.133-3.564zm1.78-3.209c-0.712 2.674 1.243 5.169 3.379 4.813-1.603 1.96-4.803 1.425-5.515-1.248-0.533-1.07 0.179-3.386 2.136-3.565zm8.179 1.427c-0.711 2.496 1.244 5.167 3.38 4.813-1.423 1.96-4.802 1.248-5.515-1.247-0.533-1.071 0.356-3.389 2.135-3.566zm4.266-1.605c-0.888 2.673 1.246 5.167 3.379 4.813-1.6 1.96-4.802 1.426-5.512-1.247-0.533-1.07 0.177-3.209 2.133-3.566zm-49.436 44.911c0.711 2.673-1.246 5.347-3.379 4.812 1.422 1.782 4.801 1.427 5.514-1.427 0.531-0.89-0.358-3.029-2.135-3.385zm-2.134-2.317c0.713 2.316-1.779 4.276-3.912 3.921 1.422 1.78 4.801 1.247 5.513-1.249 0.533-0.891 0.176-2.494-1.601-2.672zm-1.956-4.991c0.711 2.496-1.246 5.169-3.38 4.634 1.602 1.96 4.802 1.426 5.513-1.247 0.535-1.07-0.177-3.208-2.133-3.387zm5.689-4.989c0.889 2.496-1.246 5.168-3.379 4.633 1.6 2.14 4.801 1.428 5.689-1.247 0.358-1.069-0.353-3.029-2.31-3.386zm-3.912-2.317c0.711 2.674-1.245 5.346-3.557 4.634 1.601 1.96 4.979 1.426 5.688-1.069 0.536-1.071-0.351-3.209-2.131-3.565zm5.159-3.207c0.888 2.673-1.245 4.455-3.379 3.92 1.6 2.138 4.802 1.426 5.688-1.247 0.358-1.07-0.353-2.317-2.309-2.673zm-8.715-0.179c0.889 2.495-1.245 4.99-3.379 4.633 1.601 1.961 4.802 1.427 5.689-1.248 0.356-1.068-0.355-3.206-2.31-3.385zm4.801-3.387c0.711 2.674-0.354 4.813-2.49 4.456 1.424 1.961 3.912 1.604 4.623-0.891 0.357-1.247-0.354-3.208-2.133-3.565zm7.292-1.96c0.711 2.674-1.245 5.348-3.557 4.813 1.601 1.96 4.979 1.246 5.689-1.247 0.535-1.071-0.354-3.21-2.132-3.566zm-1.779-3.208c0.711 2.673-1.245 5.168-3.38 4.813 1.602 1.961 4.803 1.426 5.516-1.248 0.532-1.07-0.179-3.386-2.136-3.565zm-8.181 1.427c0.712 2.495-1.245 5.167-3.378 4.813 1.423 1.96 4.801 1.248 5.512-1.248 0.534-1.07-0.355-3.389-2.134-3.565zm-4.268-1.604c0.891 2.672-1.244 5.167-3.377 4.811 1.6 1.96 4.801 1.426 5.513-1.248 0.532-1.067-0.179-3.207-2.136-3.563z" fill="#642864" stroke="#000" stroke-width=".324"/>
<path d="m-1239.6 956c0.711 2.673-1.244 5.346-3.379 4.813 1.422 1.782 4.803 1.426 5.515-1.426 0.53-0.892-0.357-3.03-2.136-3.387zm-2.133-2.318c0.713 2.317-1.774 4.278-3.912 3.921 1.424 1.782 4.804 1.248 5.516-1.246 0.529-0.892 0.174-2.496-1.604-2.675zm-1.956-4.989c0.711 2.494-1.244 5.168-3.379 4.634 1.604 1.96 4.801 1.425 5.515-1.248 0.53-1.069-0.18-3.207-2.136-3.386zm5.691-4.99c0.89 2.496-1.246 5.169-3.379 4.634 1.601 2.139 4.801 1.425 5.688-1.248 0.359-1.07-0.354-3.031-2.309-3.386zm-3.912-2.316c0.709 2.672-1.245 5.347-3.558 4.633 1.601 1.961 4.979 1.427 5.688-1.069 0.536-1.069-0.353-3.208-2.13-3.564zm5.158-3.208c0.89 2.673-1.246 4.455-3.382 3.92 1.601 2.14 4.804 1.427 5.689-1.247 0.359-1.069-0.351-2.317-2.307-2.673zm-8.715-0.179c0.888 2.495-1.245 4.99-3.383 4.634 1.604 1.96 4.806 1.425 5.691-1.247 0.358-1.07-0.351-3.208-2.308-3.387zm4.801-3.386c0.711 2.674-0.354 4.812-2.489 4.455 1.422 1.961 3.911 1.604 4.622-0.891 0.357-1.247-0.356-3.208-2.133-3.564zm7.291-1.96c0.711 2.673-1.246 5.346-3.56 4.811 1.604 1.961 4.98 1.248 5.689-1.247 0.537-1.069-0.352-3.208-2.129-3.564zm-1.778-3.208c0.711 2.674-1.244 5.168-3.379 4.812 1.602 1.96 4.803 1.426 5.514-1.248 0.533-1.069-0.178-3.386-2.135-3.564zm-8.179 1.425c0.709 2.495-1.248 5.168-3.381 4.813 1.424 1.96 4.803 1.247 5.512-1.248 0.535-1.07-0.356-3.386-2.131-3.565zm-4.272-1.604c0.892 2.674-1.246 5.168-3.379 4.813 1.603 1.96 4.803 1.425 5.516-1.248 0.531-1.069-0.18-3.208-2.137-3.565zm6.227-35.642c0.711 2.673-1.246 5.346-3.382 4.813 1.427 1.781 4.804 1.426 5.515-1.427 0.535-0.891-0.356-3.029-2.133-3.386zm-2.133-2.318c0.709 2.317-1.778 4.277-3.914 3.921 1.423 1.781 4.802 1.247 5.515-1.247 0.532-0.891 0.176-2.495-1.601-2.674zm-1.957-4.989c0.709 2.496-1.245 5.169-3.383 4.633 1.604 1.961 4.806 1.427 5.519-1.247 0.53-1.07-0.179-3.208-2.136-3.386zm5.691-4.991c0.89 2.496-1.244 5.169-3.379 4.635 1.603 2.138 4.801 1.425 5.69-1.248 0.357-1.07-0.356-3.031-2.311-3.387zm-3.913-2.316c0.711 2.673-1.244 5.347-3.558 4.633 1.601 1.96 4.979 1.428 5.688-1.067 0.536-1.071-0.351-3.209-2.13-3.566zm5.156-3.208c0.892 2.674-1.243 4.455-3.377 3.921 1.601 2.139 4.802 1.426 5.688-1.247 0.36-1.07-0.354-2.318-2.311-2.674zm-8.713-0.178c0.89 2.495-1.243 4.99-3.379 4.633 1.601 1.961 4.804 1.426 5.688-1.247 0.357-1.069-0.352-3.208-2.309-3.386zm4.802-3.386c0.711 2.673-0.354 4.812-2.488 4.456 1.425 1.959 3.912 1.604 4.623-0.892 0.354-1.247-0.357-3.207-2.135-3.564zm7.291-1.96c0.711 2.673-1.244 5.346-3.556 4.811 1.601 1.96 4.979 1.248 5.688-1.247 0.536-1.068-0.354-3.207-2.132-3.564zm-1.781-3.209c0.713 2.674-1.242 5.169-3.379 4.813 1.604 1.96 4.803 1.425 5.517-1.248 0.532-1.07-0.181-3.386-2.138-3.565zm-8.178 1.427c0.713 2.496-1.244 5.167-3.377 4.813 1.422 1.96 4.801 1.248 5.512-1.247 0.533-1.071-0.355-3.389-2.135-3.566zm-4.268-1.605c0.892 2.673-1.244 5.167-3.38 4.813 1.604 1.96 4.804 1.426 5.515-1.247 0.533-1.07-0.179-3.209-2.135-3.566zm49.438 44.911c-0.709 2.673 1.246 5.347 3.379 4.812-1.422 1.782-4.801 1.427-5.513-1.427-0.532-0.89 0.355-3.029 2.134-3.385zm2.133-2.317c-0.711 2.316 1.779 4.277 3.912 3.922-1.422 1.781-4.801 1.247-5.514-1.249-0.531-0.892-0.175-2.495 1.602-2.673zm1.955-4.991c-0.713 2.496 1.246 5.169 3.379 4.634-1.6 1.96-4.801 1.426-5.514-1.247-0.531-1.07 0.18-3.208 2.135-3.387zm-5.689-4.989c-0.892 2.496 1.246 5.168 3.379 4.633-1.603 2.14-4.801 1.428-5.69-1.247-0.355-1.069 0.354-3.029 2.311-3.386zm3.914-2.317c-0.714 2.674 1.243 5.346 3.558 4.634-1.604 1.96-4.979 1.426-5.691-1.069-0.534-1.071 0.354-3.209 2.133-3.565zm-5.158-3.207c-0.89 2.673 1.244 4.455 3.38 3.92-1.604 2.138-4.802 1.426-5.691-1.247-0.357-1.07 0.354-2.317 2.311-2.673zm8.716-0.179c-0.892 2.495 1.241 4.99 3.377 4.633-1.601 1.961-4.8 1.427-5.688-1.248-0.36-1.068 0.354-3.206 2.311-3.385zm-4.804-3.387c-0.711 2.674 0.354 4.813 2.489 4.456-1.424 1.961-3.911 1.604-4.625-0.891-0.353-1.247 0.36-3.208 2.136-3.565zm-7.291-1.96c-0.711 2.674 1.244 5.348 3.558 4.813-1.601 1.96-4.979 1.246-5.689-1.247-0.537-1.071 0.355-3.21 2.131-3.566zm1.777-3.208c-0.711 2.673 1.244 5.168 3.379 4.813-1.6 1.961-4.803 1.426-5.512-1.248-0.533-1.07 0.178-3.386 2.133-3.565zm8.182 1.427c-0.711 2.495 1.244 5.167 3.377 4.813-1.422 1.96-4.799 1.248-5.513-1.248-0.532-1.07 0.358-3.389 2.136-3.565zm4.268-1.604c-0.892 2.672 1.244 5.167 3.379 4.811-1.601 1.96-4.801 1.426-5.512-1.248-0.534-1.067 0.175-3.207 2.133-3.563z" fill="#642864" stroke="#000" stroke-width=".324"/>
<path d="m-1323.2 1022.5c-1.246-1.959-3.022-2.314-4.625-1.426-1.423 0.713-2.135 3.209-0.354 4.813-3.202 1.068-2.847 5.703 0.533 6.061-2.488 1.248-2.488 5.348 0.89 5.883-1.601 1.781-0.533 4.633 1.423 5.35-0.178 1.064 0.533 2.137 1.779 2.67-0.713 1.428-0.356 2.676 0.533 3.563 0.176 1.068 0.889 1.604 1.6 2.143 0.354 1.248 1.423 2.313 3.023 2.313s3.022-1.246 3.022-3.027c2.488-1.428 1.956-4.1 0-5.348 2.667-1.068 3.021-3.92 1.244-5.168 0.535-0.713 0.712-1.428 0.712-2.141 1.423-0.893 1.956-2.496 1.246-3.742 2.844-0.713 3.2-3.563 1.956-4.988 2.133-1.604 1.244-4.635-0.713-5.348 0.355-1.781-1.065-3.209-2.666-3.385-1.068-0.182-2.313 0.354-2.847 1.244-0.89-0.533-2.491-0.178-3.379 0.893-0.71-0.536-2.133-1.073-3.377-0.36zm-1.777-62.373c-1.246-1.961-3.023-2.316-4.625-1.426-1.422 0.713-2.134 3.208-0.355 4.813-3.2 1.069-2.844 5.704 0.535 6.06-2.491 1.247-2.491 5.347 0.888 5.88-1.601 1.783-0.534 4.637 1.423 5.348-0.177 1.068 0.533 2.139 1.778 2.672-0.71 1.428-0.355 2.674 0.532 3.564 0.18 1.068 0.891 1.604 1.603 2.139 0.354 1.248 1.421 2.316 3.022 2.316 1.6 0 3.022-1.248 3.022-3.027 2.488-1.428 1.955-4.1 0-5.348 2.668-1.07 3.021-3.922 1.244-5.17 0.533-0.711 0.71-1.426 0.71-2.139 1.423-0.893 1.957-2.494 1.245-3.74 2.847-0.715 3.2-3.567 1.957-4.992 2.133-1.604 1.244-4.635-0.712-5.348 0.356-1.782-1.067-3.208-2.667-3.385-1.066-0.18-2.313 0.355-2.846 1.248-0.89-0.535-2.49-0.18-3.379 0.891-0.709-0.534-2.13-1.069-3.375-0.356zm53.172 18.178c1.244-1.961 3.022-2.314 4.623-1.426 1.422 0.713 2.136 3.209 0.354 4.813 3.201 1.068 2.847 5.701-0.533 6.061 2.488 1.248 2.488 5.348-0.891 5.883 1.603 1.779 0.533 4.635-1.422 5.348 0.178 1.07-0.533 2.139-1.779 2.674 0.713 1.426 0.355 2.672-0.533 3.563-0.178 1.066-0.889 1.604-1.6 2.139-0.354 1.248-1.424 2.316-3.021 2.316-1.604 0-3.024-1.246-3.024-3.029-2.488-1.426-1.955-4.098 0-5.348-2.666-1.068-3.021-3.922-1.244-5.17-0.531-0.713-0.711-1.424-0.711-2.137-1.425-0.893-1.957-2.496-1.246-3.744-2.845-0.711-3.199-3.563-1.955-4.986-2.135-1.604-1.244-4.637 0.711-5.35-0.354-1.779 1.065-3.207 2.67-3.385 1.063-0.18 2.311 0.354 2.846 1.246 0.889-0.533 2.486-0.178 3.379 0.893 0.708-0.541 2.133-1.074 3.376-0.361z" fill="#b400b4" stroke="#000" stroke-width=".324"/>
<path d="m-1316.4 1048.6c0.711 2.674-1.245 5.348-3.379 4.813 1.423 1.781 4.802 1.426 5.513-1.428 0.533-0.891-0.357-3.028-2.134-3.385z" fill="#642864" stroke="#000" stroke-width=".324"/>
<path d="m-1318.5 1046.3c0.712 2.314-1.778 4.277-3.913 3.922 1.423 1.779 4.802 1.246 5.514-1.248 0.532-0.892 0.176-2.496-1.601-2.674z" fill="#642864" stroke="#000" stroke-width=".324"/>
<path d="m-1320.5 1041.3c0.712 2.494-1.244 5.168-3.379 4.635 1.602 1.959 4.802 1.426 5.514-1.248 0.534-1.07-0.178-3.207-2.135-3.387z" fill="#642864" stroke="#000" stroke-width=".324"/>
<path d="m-1314.8 1036.4c0.89 2.492-1.244 5.168-3.38 4.633 1.601 2.139 4.802 1.424 5.691-1.248 0.356-1.071-0.357-3.03-2.311-3.385z" fill="#642864" stroke="#000" stroke-width=".324"/>
<path d="m-1318.7 1034c0.709 2.674-1.246 5.346-3.558 4.633 1.601 1.961 4.979 1.428 5.689-1.064 0.537-1.073-0.353-3.214-2.131-3.569z" fill="#642864" stroke="#000" stroke-width=".324"/>
<path d="m-1313.5 1030.8c0.89 2.672-1.245 4.455-3.38 3.92 1.602 2.139 4.803 1.426 5.691-1.248 0.355-1.071-0.354-2.317-2.311-2.672z" fill="#642864" stroke="#000" stroke-width=".324"/>
<path d="m-1322.2 1030.6c0.888 2.494-1.246 4.988-3.38 4.633 1.604 1.959 4.802 1.428 5.69-1.248 0.357-1.071-0.354-3.207-2.31-3.385z" fill="#642864" stroke="#000" stroke-width=".324"/>
<path d="m-1317.4 1027.3c0.709 2.674-0.356 4.813-2.492 4.457 1.424 1.959 3.914 1.604 4.625-0.893 0.355-1.246-0.357-3.206-2.133-3.564z" fill="#642864" stroke="#000" stroke-width=".324"/>
<path d="m-1310.1 1025.3c0.711 2.674-1.244 5.348-3.558 4.813 1.603 1.961 4.98 1.248 5.691-1.248 0.535-1.071-0.356-3.207-2.133-3.565z" fill="#642864" stroke="#000" stroke-width=".324"/>
<path d="m-1311.9 1022.1c0.712 2.672-1.246 5.168-3.379 4.813 1.6 1.959 4.802 1.426 5.512-1.248 0.535-1.069-0.178-3.385-2.133-3.565z" fill="#642864" stroke="#000" stroke-width=".324"/>
<path d="m-1320.1 1023.5c0.709 2.494-1.246 5.168-3.38 4.813 1.423 1.961 4.802 1.248 5.513-1.246 0.534-1.073-0.357-3.389-2.133-3.567z" fill="#642864" stroke="#000" stroke-width=".324"/>
<path d="m-1324.4 1021.9c0.891 2.672-1.245 5.168-3.379 4.813 1.602 1.961 4.802 1.426 5.514-1.246 0.534-1.073-0.178-3.211-2.135-3.567z" fill="#642864" stroke="#000" stroke-width=".324"/>
<path d="m-1318.1 986.27c0.714 2.674-1.245 5.346-3.379 4.813 1.425 1.783 4.802 1.426 5.515-1.426 0.532-0.891-0.358-3.03-2.136-3.387z" fill="#642864" stroke="#000" stroke-width=".324"/>
<path d="m-1320.3 983.96c0.711 2.314-1.777 4.277-3.913 3.922 1.425 1.781 4.802 1.246 5.515-1.248 0.532-0.892 0.177-2.496-1.602-2.674z" fill="#642864" stroke="#000" stroke-width=".324"/>
<path d="m-1322.2 978.97c0.71 2.496-1.246 5.168-3.38 4.635 1.604 1.961 4.802 1.426 5.516-1.248 0.531-1.068-0.18-3.209-2.136-3.387z" fill="#642864" stroke="#000" stroke-width=".324"/>
<path d="m-1316.5 973.98c0.89 2.494-1.244 5.166-3.379 4.633 1.603 2.141 4.803 1.426 5.69-1.248 0.358-1.069-0.356-3.03-2.311-3.385z" fill="#642864" stroke="#000" stroke-width=".324"/>
<path d="m-1320.5 971.66c0.712 2.674-1.244 5.348-3.557 4.635 1.601 1.959 4.979 1.426 5.69-1.068 0.536-1.073-0.354-3.212-2.133-3.567z" fill="#642864" stroke="#000" stroke-width=".324"/>
<path d="m-1315.3 968.45c0.89 2.674-1.246 4.457-3.379 3.921 1.6 2.139 4.802 1.426 5.689-1.249 0.358-1.068-0.355-2.315-2.31-2.672z" fill="#642864" stroke="#000" stroke-width=".324"/>
<path d="m-1324 968.27c0.889 2.494-1.246 4.989-3.379 4.633 1.6 1.961 4.801 1.426 5.689-1.25 0.356-1.067-0.355-3.206-2.31-3.383z" fill="#642864" stroke="#000" stroke-width=".324"/>
<path d="m-1319.2 964.89c0.711 2.673-0.355 4.813-2.489 4.455 1.422 1.959 3.912 1.604 4.623-0.892 0.354-1.246-0.355-3.207-2.134-3.563z" fill="#642864" stroke="#000" stroke-width=".324"/>
<path d="m-1311.9 962.93c0.712 2.673-1.246 5.348-3.558 4.813 1.602 1.961 4.979 1.248 5.689-1.248 0.537-1.07-0.353-3.208-2.131-3.565z" fill="#642864" stroke="#000" stroke-width=".324"/>
<path d="m-1313.7 959.72c0.712 2.672-1.244 5.168-3.379 4.812 1.602 1.96 4.802 1.425 5.516-1.247 0.531-1.07-0.181-3.389-2.137-3.565z" fill="#642864" stroke="#000" stroke-width=".324"/>
<path d="m-1321.9 961.14c0.712 2.495-1.244 5.168-3.379 4.812 1.422 1.961 4.801 1.249 5.513-1.246 0.534-1.07-0.354-3.387-2.134-3.566z" fill="#642864" stroke="#000" stroke-width=".324"/>
<path d="m-1326.1 959.54c0.89 2.673-1.243 5.169-3.38 4.813 1.604 1.959 4.803 1.426 5.516-1.247 0.532-1.071-0.181-3.211-2.136-3.566z" fill="#642864" stroke="#000" stroke-width=".324"/>
<path d="m-1277.7 1003.5c-0.712 2.672 1.243 5.344 3.377 4.811-1.423 1.781-4.802 1.426-5.511-1.426-0.534-0.891 0.353-3.032 2.134-3.385z" fill="#642864" stroke="#000" stroke-width=".324"/>
<path d="m-1275.6 1001.1c-0.713 2.316 1.775 4.275 3.91 3.92-1.422 1.783-4.803 1.248-5.512-1.248-0.531-0.889-0.177-2.492 1.602-2.672z" fill="#642864" stroke="#000" stroke-width=".324"/>
<path d="m-1273.6 996.14c-0.713 2.494 1.246 5.17 3.379 4.635-1.601 1.961-4.801 1.428-5.515-1.248-0.531-1.071 0.18-3.209 2.136-3.387z" fill="#642864" stroke="#000" stroke-width=".324"/>
<path d="m-1279.3 991.15c-0.892 2.496 1.243 5.168 3.377 4.635-1.601 2.141-4.804 1.428-5.688-1.244-0.358-1.075 0.354-3.034 2.311-3.391z" fill="#642864" stroke="#000" stroke-width=".324"/>
<path d="m-1275.4 988.84c-0.713 2.674 1.244 5.348 3.558 4.635-1.603 1.961-4.979 1.426-5.69-1.068-0.536-1.071 0.355-3.211 2.132-3.567z" fill="#642864" stroke="#000" stroke-width=".324"/>
<path d="m-1280.6 985.63c-0.89 2.674 1.246 4.455 3.381 3.92-1.604 2.141-4.804 1.428-5.692-1.246-0.355-1.07 0.354-2.318 2.311-2.674z" fill="#642864" stroke="#000" stroke-width=".324"/>
<path d="m-1271.8 985.45c-0.89 2.494 1.244 4.988 3.379 4.633-1.603 1.961-4.801 1.426-5.69-1.248-0.357-1.069 0.354-3.208 2.311-3.385z" fill="#642864" stroke="#000" stroke-width=".324"/>
<path d="m-1276.6 982.07c-0.714 2.672 0.354 4.813 2.487 4.455-1.422 1.961-3.912 1.604-4.625-0.893-0.355-1.246 0.358-3.207 2.138-3.562z" fill="#642864" stroke="#000" stroke-width=".324"/>
<path d="m-1283.9 980.1c-0.712 2.674 1.245 5.348 3.558 4.813-1.602 1.961-4.979 1.246-5.689-1.248-0.535-1.069 0.354-3.208 2.131-3.565z" fill="#642864" stroke="#000" stroke-width=".324"/>
<path d="m-1282.2 976.9c-0.711 2.672 1.246 5.168 3.379 4.813-1.602 1.961-4.801 1.426-5.512-1.246-0.533-1.073 0.178-3.389 2.133-3.567z" fill="#642864" stroke="#000" stroke-width=".324"/>
<path d="m-1274 978.32c-0.709 2.496 1.245 5.17 3.379 4.813-1.425 1.961-4.802 1.248-5.515-1.246-0.53-1.071 0.356-3.388 2.136-3.567z" fill="#642864" stroke="#000" stroke-width=".324"/>
<path d="m-1270.4 976.72c-0.89 2.674 1.245 5.168 3.381 4.813-1.603 1.959-4.804 1.428-5.515-1.248-0.532-1.071 0.179-3.209 2.134-3.565z" fill="#642864" stroke="#000" stroke-width=".324"/>
<path d="m-1341.5 975.25c-11.735-3.563-21.695-0.895-22.229-2.494-1.245-3.744-3.913-3.921-3.913-9.088v-24.676c2.819-2.911 5.604-5.876 8.003-8.652 3.379-3.92 5.156-6.415 6.045-10.871 0.183-0.987 0.279-1.946 0.317-2.885 1.114 0.12 2.18-0.036 3.063-0.679-1.424 4.455-1.244 13.722 1.603 17.643 0-2.138 0.354-2.495 1.956-2.673 0.888 1.783 2.846 1.96 4.445 1.96 0.711-1.069 0.711-3.208-0.711-4.633 1.067 1.247 3.022 1.425 3.911-0.535 0.534-1.96 0.534-4.991-2.312-6.771 2.312-1.781 7.114-1.248 9.78 3.029 1.065-1.782 1.246-2.316-0.355-3.92 2.135 0.891 4.98-0.891 6.226-3.209-0.533-2.494-3.38-4.811-5.514-4.276 1.423-0.534 1.956-1.427 1.602-3.387-3.558 2.317-6.759 2.317-10.492 0.714 3.022-1.783 3.378-3.564 3.201-5.704-0.533-1.604-2.136-1.604-3.734-1.425 1.602-0.355 2.313-1.426 1.956-3.921-1.956-0.356-3.199 0.535-4.089 1.96-1.603-0.891-1.422-1.782-1.603-3.743-4.268 2.854-5.513 10.693-5.513 16.218-1.064 0.712-2.263 0.935-3.48 0.78-0.404-4.439-2.271-8.446-4.699-12.542-2.269-3.67-5.777-6.48-9.604-8.941v-29.047c2.575-0.024 5.097-0.09 6.758-0.507 1.066-0.356 0.179-1.96 1.957-1.96 1.423-0.178 2.668 1.248 3.556 3.03-0.09-0.729 0.472-1.271 1.35-1.554 1.986 3.981 4.703 7.511 7.9 8.505-0.181-2.14-0.713-3.03 0.354-4.278 1.603 1.07 3.202 1.783 4.98 0.713-0.178-2.495-1.065-3.742-2.847-3.742 1.425 0 3.202-0.713 3.38-2.674-0.711-2.139-1.423-3.92-5.334-5.168 3.379-2.852 6.936-3.921 11.383-2.138-0.181-2.317-1.068-3.387-2.668-3.563 2.133 0 4.623-3.563 4.623-6.237-2.313-2.139-5.689-3.208-7.646-1.604 1.067-2.138 1.067-2.851-0.712-4.633-1.6 5.523-6.402 7.662-9.604 6.415 2.668-3.03 1.777-6.237 0.532-8.021-1.423-1.961-3.556-1.068-4.269 0.534 1.067-2.315 0.534-4.275-0.354-5.346-1.778 0.535-3.911 1.426-4.268 3.564-1.602 0.355-2.135-0.18-3.023-2.495-1.553 5.012 0.743 14.869 3.479 19.198-0.985 0.173-1.522-0.313-1.522-1.556-0.506 0.9-1 1.643-1.536 2.257-0.919 0.384-1.816 0.986-2.666 1.752-0.635 0.179-1.355 0.269-2.201 0.269-0.506 0-1.045 0.049-1.602 0.128v-2.98c0-1.604-1.245-2.673-2.845-2.673s-2.846 1.247-2.846 2.852v4.483c-2.965 1.242-5.752 2.9-7.291 4.249-0.457 0.438-0.916 0.921-1.369 1.437-0.938-2.523-2.836-4.636-5.389-4.466 3.911-3.029 9.426-11.406 9.247-16.218-1.422 1.782-1.956 1.961-3.379 1.248 0.354-2.138-1.067-3.386-2.489-4.455-1.246 0.712-2.313 2.316-2.136 4.634 0-1.604-1.778-3.029-3.557-1.783-1.602 1.248-3.379 3.921-1.956 7.307-3.202 0.178-6.937-3.03-6.58-8.376-2.135 0.891-2.489 1.425-1.957 3.742-1.245-1.96-4.802-1.96-7.291-0.892-0.89 2.674 0.179 6.415 2.134 6.95-1.422-0.177-2.487 0.356-3.379 2.317 4.447-0.179 7.114 1.604 9.427 5.347-3.734-0.179-5.158 1.069-6.225 2.852-0.355 1.96 0.891 2.852 2.313 3.563-1.602-0.535-2.847 0-3.734 2.139 1.244 1.604 2.845 1.425 4.624 0.892 0.534 1.426-0.179 2.138-1.067 3.92 5.334 0.181 11.025-6.057 14.226-10.87 2.547 0 4.274 1.639 5.354 4.42-2.684 3.685-4.984 8.333-5.887 12.333-0.533 3.029-0.179 6.238 1.778 8.02 4.268 4.098 9.604 6.771 14.227 9.979 0.114 0.08 0.229 0.167 0.344 0.247-0.01 13.416-0.024 26.84-0.061 40.276-1.644 1.686-3.282 3.392-4.836 5.153-1.883-0.763-3.991-0.964-5.939-0.23 2.847-4.456 4.624-14.437 2.136-18.535-0.535 2.138-1.246 2.495-3.023 2.673-0.711-1.782-3.023-2.316-4.98-2.495-1.064 1.246-1.423 3.207 0 5.168-0.888-1.426-3.379-1.782-4.802 0.177-1.064 1.961-1.775 4.991 1.246 7.309-3.379 1.604-8.892 0.89-11.203-4.099-1.956 1.96-1.956 2.673-0.179 4.454-2.489-1.069-6.225 0.714-8.536 2.853 0.356 2.672 3.202 5.346 5.869 4.99-1.779 0.534-2.845 1.604-2.845 3.741 4.801-2.494 8.713-2.316 12.979-0.177-4.09 1.781-4.979 3.563-5.156 5.702 0.355 1.783 2.136 1.96 4.091 1.783-1.955 0.355-3.022 1.604-2.847 3.92 1.956 0.714 3.734-0.178 5.515-1.782 1.064 1.069 0.711 1.96 0.532 4.276 5.868-2.672 9.248-10.87 10.314-16.93 0.361-0.149 0.717-0.267 1.068-0.36v3e-3c-2.846 8.555-0.89 16.04-2.488 25.129-0.754 3.897-4.688 5.044-8.067 5.882-5.691 0.666-11.25 1.637-16.297 3.205-1.245 0.893-0.89 1.961 0 3.029h70.778c0.533-1.424 0.178-3.385-1.424-4.454zm-16.405-123.4c0.015 0.021 0.03 0.051 0.045 0.072-0.034-0.01-0.069-9e-3 -0.104-0.018 0.02-0.017 0.038-0.035 0.059-0.054zm-2.472 3.375c1.133-0.443 2.336-0.511 3.584-0.095 0.258 0.977 0.582 2.009 0.955 3.06-1.457-0.708-3.021-1.137-4.688-1.455-0.089-0.488-0.023-0.998 0.149-1.51zm-7.265 43.863c2.682 2.417 5.111 5.212 6.759 8.617 1.955 4.099 1.065 9.267-0.891 13.009-1.493 2.85-3.559 5.498-5.868 8.085v-29.711zm-5.866 64.576c-1.424 5.167 0.888 8.198-3.202 8.375-1.683 0.104-3.39 0.213-5.106 0.326 1.145-0.348 2.267-0.732 3.33-1.218-1.603-1.426-2.491-2.673-2.491-5.347 0-6.416 2.667-15.86 5.691-19.067 0.601-0.604 1.219-1.223 1.848-1.854-0.023 6.263-0.042 12.524-0.07 18.785zm0.169-74.54c-2.164-1.236-4.289-2.44-6.217-3.696-1.777-1.247-4.091-6.059-3.913-9.443 0-5.525 5.336-11.764 8.002-12.119 0.608-0.122 1.337-0.2 2.136-0.253-0 8.496-0.01 16.999-0.01 25.511zm104.22 132.28c1.603-1.604 1.603-2.139-0.354-3.92-1.957 4.455-7.109 5.17-10.313 3.742 2.847-2.139 2.313-4.988 1.065-6.771-1.241-1.779-3.557-1.426-4.271-0.178 1.248-1.783 0.893-3.389 0-4.635-1.953 0.178-4.088 0.713-4.799 2.316-1.604-0.18-2.136-0.535-2.668-2.496-2.313 3.744-0.711 12.832 1.957 16.932-1.818-0.729-3.721-0.533-5.479 0.164-1.494-1.652-3.077-3.25-4.66-4.822v-36.26c0.118-0.082 0.237-0.17 0.354-0.248 4.269-3.029 9.25-5.348 13.341-9.09 1.776-1.604 2.133-4.455 1.6-7.309-0.766-3.58-2.904-7.795-5.432-11.08 0.901-2.543 2.478-4.068 4.896-4.068 3.021 4.278 8.357 9.98 13.158 9.803-0.889-1.604-1.422-2.317-0.889-3.564 1.6 0.535 3.021 0.535 4.27-0.713-0.891-1.96-2.137-2.495-3.557-2.138 1.42-0.535 2.486-1.428 2.133-3.03-1.065-1.782-2.133-2.853-5.69-2.673 2.138-3.387 4.625-4.989 8.715-4.813-0.711-1.78-1.776-2.315-3.2-2.138 1.957-0.534 2.846-3.921 1.957-6.237-2.313-1.068-5.515-1.068-6.58 0.712 0.356-2.138 0.178-2.495-1.955-3.386 0.354 4.813-3.021 7.842-6.049 7.664 1.424-3.208-0.354-5.525-1.777-6.593-1.775-1.249-3.199 0-3.379 1.604 0.354-2.139-0.711-3.564-1.775-4.277-1.425 0.892-2.85 2.139-2.49 4.099-1.244 0.535-1.779 0.357-3.201-1.247 0 4.455 5.158 11.94 8.715 14.791-2.43-0.173-4.176 1.859-5.086 4.109-0.436-0.456-0.875-0.879-1.313-1.259-1.457-1.361-4.029-2.881-6.76-3.981v-4.395c0-1.426-1.601-2.494-3.023-2.494s-2.666 1.068-2.666 2.494v2.895c-0.306-0.026-0.604-0.042-0.89-0.042-0.741 0-1.379-0.075-1.95-0.21-0.9-0.838-1.873-1.477-2.867-1.819-0.435-0.526-0.834-1.148-1.229-1.893 0 1.071-0.399 1.539-1.354 1.402 2.562-3.96 4.684-12.951 3.134-17.441-0.71 2.139-1.246 2.495-2.667 2.315-0.535-1.96-2.313-2.852-3.914-3.386-0.889 1.069-1.424 2.853-0.354 4.99-0.714-1.425-2.668-2.316-3.914-0.535-1.244 1.604-1.957 4.456 0.354 7.307-3.021 1.069-7.468-0.891-8.891-5.881-1.604 1.604-1.779 2.316-0.533 4.276-1.779-1.424-5.158-0.535-7.114 1.426 0 2.317 2.134 5.703 4.27 5.703-1.603 0.178-2.313 1.07-2.492 3.208 4.092-1.604 7.294-0.713 10.494 1.96-3.558 1.069-4.27 2.673-4.979 4.633 0.178 1.782 1.779 2.316 3.202 2.495-1.602-0.179-2.491 1.069-2.668 3.207 1.603 1.069 3.023 0.535 4.625-0.534 0.891 1.068 0.533 1.96 0.178 3.92 3.063-0.877 5.583-4.047 7.445-7.642 0.611 0.306 0.99 0.782 0.912 1.404 0.712-1.782 1.957-3.03 3.734-2.852 1.603 0 0.713 1.426 1.778 1.782 1.396 0.388 3.497 0.472 5.689 0.487v26.657c-3.369 2.162-6.459 4.623-8.535 7.785-2.428 3.715-4.205 7.338-4.555 11.328-1.037 0.061-2.031-0.17-2.916-0.813 0-4.99-1.244-12.117-5.156-14.611 0 1.781 0 2.672-1.422 3.387-0.892-1.25-1.957-2.141-3.912-1.783-0.18 2.143 0.354 3.209 1.955 3.564-1.603-0.18-2.846-0.18-3.558 1.426-0.178 1.781 0.179 3.391 3.024 4.99-3.379 1.426-6.404 1.426-9.604-0.715-0.533 1.783 0.178 2.676 1.424 3.209-1.959-0.533-4.625 1.605-5.158 3.74 1.244 2.141 3.912 3.922 5.867 3.031-1.422 1.426-1.422 1.959-0.355 3.563 2.488-3.92 6.758-4.453 9.068-2.852-2.666 1.781-2.666 4.457-2.133 6.236 0.711 1.783 2.668 1.605 3.557 0.533-1.244 1.25-1.244 3.209-0.71 4.1 1.6 0 3.378-0.178 4.268-1.779 1.421 0.178 1.602 0.535 1.777 2.496 2.668-3.564 2.668-11.941 1.423-16.039 0.726 0.58 1.601 0.764 2.521 0.707 0.047 0.813 0.148 1.646 0.323 2.5 0.714 4.098 2.489 6.416 5.868 9.979 2.077 2.342 4.492 4.854 6.938 7.346v22.416c0 4.813-2.489 4.988-3.56 8.379-0.354 1.424-9.78-0.895-20.628 2.314-1.423 0.891-1.775 2.672-1.243 3.92h65.976c0.892-0.895 1.068-1.783 0-2.674-5.182-1.51-10.815-2.412-16.528-3.041-2.688-0.787-5.345-1.98-5.877-4.98-1.599-8.188 0.172-14.951-2.48-22.783 0.35 0.084 0.702 0.193 1.063 0.328 1.064 5.523 4.088 12.832 9.424 15.326-0.178-2.141-0.532-2.852 0.711-3.742 1.603 1.428 3.199 2.141 4.979 1.428 0.182-1.961-0.889-3.209-2.666-3.389 1.777 0 3.557-0.178 3.912-1.779-0.355-1.963-1.064-3.564-4.979-5.168 4.09-1.783 7.646-1.963 12.097 0.178 0-1.961-0.894-2.854-2.671-3.387 2.488 0.354 5.158-1.961 5.515-4.455-2.147-1.951-5.526-3.557-7.838-2.666zm-29.52-64.156c0.735 0.032 1.404 0.086 1.956 0.178 2.49 0.535 7.471 6.06 7.647 11.049 0 3.208-2.135 7.486-3.735 8.554-1.813 1.182-3.821 2.309-5.868 3.463v-23.244zm-14.215-10.533c0.01 4e-3 0.01 8e-3 0.017 0.014-0.011 2e-3 -0.02 2e-3 -0.027 5e-3 0-6e-3 0.01-0.013 0.01-0.019zm2.477 4.472c-1.586 0.218-2.99 0.563-4.273 1.097 0.343-0.927 0.646-1.839 0.895-2.701 1.085-0.417 2.169-0.351 3.216 0.062 0.182 0.506 0.256 1.024 0.162 1.542zm6.047 64.723c-1.979-2.189-3.727-4.42-4.979-6.803-1.777-3.389-2.667-8.021-0.71-11.764 1.438-2.881 3.451-5.285 5.689-7.375v25.942zm12.609 39.611c-1.25-0.088-2.489-0.172-3.719-0.256-4.088-0.18-1.777-2.854-3.201-7.662v-16.627c0.609 0.623 1.205 1.236 1.778 1.836 3.023 2.85 5.334 11.402 5.334 17.105 0 2.494-0.712 3.563-2.136 4.813 0.632 0.295 1.282 0.553 1.944 0.791zm109.74-118.23c-2.313-2.139-6.049-3.922-8.537-2.853 1.779-1.781 1.779-2.494-0.178-4.454-2.313 4.988-7.824 5.702-11.205 4.099 3.023-2.317 2.313-5.347 1.246-7.309-1.424-1.959-3.91-1.604-4.803-0.177 1.424-1.961 1.064-3.922 0-5.168-1.955 0.179-4.27 0.712-4.979 2.495-1.776-0.179-2.488-0.536-3.022-2.673-2.487 4.099-0.709 14.079 2.138 18.535-1.949-0.732-4.061-0.531-5.941 0.23-1.553-1.762-3.189-3.468-4.834-5.152-0.033-13.437-0.051-26.861-0.062-40.277 0.113-0.081 0.229-0.167 0.343-0.247 4.623-3.208 9.961-5.882 14.229-9.979 1.957-1.781 2.313-4.99 1.775-8.02-0.896-4-3.201-8.646-5.887-12.332 1.079-2.783 2.809-4.422 5.354-4.422 3.199 4.813 8.894 11.051 14.228 10.872-0.89-1.783-1.603-2.495-1.067-3.92 1.779 0.533 3.382 0.712 4.625-0.891-0.89-2.14-2.135-2.675-3.732-2.14 1.422-0.712 2.668-1.604 2.313-3.563-1.063-1.782-2.49-3.03-6.225-2.852 2.313-3.743 4.979-5.524 9.426-5.347-0.891-1.961-1.955-2.495-3.379-2.317 1.955-0.535 3.021-4.276 2.133-6.949-2.488-1.069-6.045-1.069-7.289 0.891 0.531-2.317 0.176-2.852-1.957-3.742 0.355 5.346-3.379 8.554-6.58 8.376 1.422-3.386-0.354-6.059-1.957-7.307-1.776-1.247-3.555 0.178-3.555 1.782 0.178-2.316-0.893-3.921-2.137-4.633-1.422 1.069-2.848 2.316-2.488 4.455-1.424 0.713-1.955 0.535-3.381-1.248-0.176 4.813 5.336 13.188 9.248 16.219-2.551-0.171-4.449 1.941-5.39 4.466-0.452-0.516-0.911-0.998-1.368-1.438-1.539-1.349-4.326-3.006-7.291-4.249v-4.483c0-1.604-1.602-2.852-3.201-2.852-1.601 0-2.847 1.068-2.847 2.673v2.937c-0.429-0.049-0.849-0.084-1.243-0.084-0.848 0-1.566-0.089-2.201-0.269-0.849-0.766-1.744-1.367-2.664-1.75-0.535-0.615-1.029-1.357-1.533-2.259 0 1.188-0.492 1.688-1.541 1.58 2.742-4.317 5.051-14.201 3.494-19.222-0.889 2.315-1.422 2.851-3.023 2.495-0.354-2.139-2.487-3.03-4.268-3.564-0.889 1.07-1.424 3.03-0.354 5.346-0.715-1.604-2.848-2.495-4.27-0.533-1.246 1.782-2.135 4.989 0.533 8.02-3.201 1.247-8.004-0.892-9.604-6.415-1.777 1.782-1.777 2.495-0.713 4.633-1.955-1.604-5.334-0.535-7.646 1.604 0 2.674 2.489 6.237 4.625 6.237-1.604 0.178-2.488 1.247-2.668 3.564 4.443-1.783 8.002-0.714 11.381 2.138-3.912 1.248-4.623 3.029-5.334 5.168 0.178 1.96 1.955 2.675 3.379 2.675-1.779 0-2.668 1.246-2.846 3.741 1.775 1.069 3.377 0.357 4.979-0.713 1.065 1.249 0.53 2.14 0.354 4.278 3.166-0.985 5.857-4.458 7.842-8.393 0.701 0.304 1.13 0.799 1.051 1.441 0.889-1.782 2.133-3.208 3.912-3.03 1.776 0 0.889 1.604 1.955 1.96 1.587 0.398 3.953 0.477 6.401 0.504v29.282c-3.687 2.406-7.052 5.152-9.248 8.708-2.687 4.102-4.625 8.112-5.047 12.56-1.099 0.072-2.171-0.154-3.134-0.797 0-5.524-1.244-13.365-5.513-16.219-0.181 1.961 0 2.854-1.603 3.743-0.893-1.426-2.135-2.316-4.092-1.96-0.354 2.495 0.355 3.565 1.957 3.921-1.602-0.179-3.203-0.179-3.734 1.425-0.178 2.14 0.179 3.921 3.201 5.704-3.733 1.604-6.938 1.604-10.491-0.714-0.354 1.96 0.178 2.853 1.601 3.387-2.134-0.534-4.979 1.782-5.513 4.276 1.243 2.318 4.09 4.1 6.226 3.209-1.603 1.604-1.424 2.138-0.354 3.92 2.668-4.277 7.469-4.812 9.777-3.029-2.844 1.781-2.844 4.812-2.312 6.771 0.888 1.96 2.845 1.782 3.912 0.535-1.423 1.425-1.423 3.563-0.713 4.633 1.603 0 3.56-0.178 4.444-1.96 1.604 0.179 1.957 0.535 1.957 2.673 2.846-3.921 3.023-13.188 1.603-17.643 0.789 0.574 1.726 0.761 2.707 0.711 0.039 0.929 0.138 1.877 0.313 2.853 0.891 4.456 2.668 6.95 6.404 10.871 2.299 2.659 4.947 5.493 7.646 8.285v25.042c0 5.167-2.668 5.346-3.912 9.089-0.532 1.604-10.491-1.07-22.229 2.494-1.604 1.068-1.955 3.029-1.425 4.455h71.136c0.89-1.068 1.246-2.143 0-3.029-5.045-1.568-10.604-2.539-16.297-3.207-3.38-0.838-7.313-1.984-8.065-5.881-1.601-9.089 0.354-16.574-2.489-25.129v-3e-3c0.354 0.094 0.71 0.211 1.069 0.36 1.065 6.06 4.445 14.258 10.313 16.93-0.179-2.315-0.532-3.207 0.532-4.276 1.777 1.604 3.559 2.496 5.516 1.782 0.176-2.316-0.893-3.563-2.848-3.92 1.955 0.178 3.732 0 4.089-1.783-0.177-2.138-1.065-3.92-5.155-5.702 4.269-2.14 8.182-2.316 12.98 0.178 0-2.139-1.066-3.208-2.846-3.742 2.673 0.355 5.521-2.319 5.876-4.991zm-52.996-80.553c-1.688 0.294-3.225 0.684-4.633 1.298 0.35-0.996 0.652-1.976 0.898-2.902 1.243-0.416 2.443-0.349 3.575 0.093 0.184 0.511 0.248 1.022 0.16 1.511zm6.758 71.666c-2.168-2.461-4.098-4.985-5.514-7.688-1.955-3.742-2.846-8.91-0.891-13.009 1.573-3.253 3.864-5.947 6.401-8.291v28.988zm6.049-64.791c0.797 0.054 1.522 0.132 2.133 0.253 2.666 0.355 8.002 6.594 8.002 12.119 0.181 3.385-2.133 8.196-3.911 9.443-1.929 1.255-4.052 2.46-6.216 3.696-0-8.51-0.01-17.013-0.01-25.511zm3.377 108.43c-4.444-0.18-1.776-3.208-3.201-8.375-0.028-6.261-0.047-12.521-0.067-18.782 0.627 0.63 1.246 1.25 1.848 1.853 3.021 3.208 5.691 12.652 5.691 19.067 0 2.673-0.892 3.921-2.49 5.348 1.063 0.482 2.188 0.871 3.328 1.216-1.719-0.116-3.424-0.221-5.109-0.327z" fill="#078381" stroke="#000" stroke-width=".5"/>
<path d="m-1149.4 970.36c0 114.4-66.44 207.15-148.39 207.15-81.935 0-148.36-92.744-148.36-207.15 0-114.4 66.43-207.15 148.36-207.15 81.95 0 148.39 92.743 148.39 207.15z" fill="none" stroke="#074b9c" stroke-width="4"/>

































	<path d="m-1180 1040.2c-0.353-2.875-0.563-5.762-0.757-8.648-0.254-3.795-0.873-4.633-3.998-6.627-2.176-1.391-4.461-2.604-6.741-3.813-5.192-2.742-10.509-5.357-15.332-8.736-10.172-7.123-15.037-19.012-26.74-24.557 3.615 10.332 10.996 19.85 17.521 28.533-3.986-2.844-7.984-5.676-12.051-8.402-5.238-3.512-7.979-1.734-13.979-2.109 2.489 1.869 4.944 3.82 7.595 5.463 2.075 1.287 4.599 1.807 6.604 3.109 2.051 1.334 2.424 3.924 3.568 5.9 1.059 1.832 2.75 2.574 4.615 3.309 7.725 3.027 18.096 5.764 23.729 12.24 3.822 4.393-6.765 4.859-9.447 4.805-6.609-0.143-12.682 1.838-17.934 5.902-8.756 6.777-11.213 15.275-8.768 25.877 0.93 4.023 0.843 4.557-1.938 7.492-1.888 1.99-3.91 3.85-5.988 5.637-4.922 4.23-8.965 7.217-14.01 10.629-3.338 2.26-6.813 4.689-10.553 6.248-4.439 1.85-10.02 1.184-14.682 0.867-5.308-0.357-9.701-0.586-14.854 1.07-0.843 0.27-2.943 0.27-3.787 0-5.152-1.656-9.547-1.432-14.854-1.07-4.663 0.314-10.239 0.98-14.681-0.867-3.741-1.559-7.214-3.988-10.554-6.248-5.045-3.412-9.086-6.396-14.009-10.629-2.077-1.787-4.103-3.646-5.987-5.637-2.781-2.939-2.869-3.469-1.939-7.492 2.445-10.602-0.01-19.1-8.768-25.877-5.25-4.064-11.322-6.045-17.934-5.902-2.685 0.057-13.269-0.412-9.447-4.805 5.633-6.479 16.004-9.213 23.729-12.24 1.867-0.732 3.56-1.477 4.617-3.309 1.144-1.979 1.519-4.566 3.568-5.9 2.006-1.307 4.526-1.822 6.603-3.109 2.649-1.643 5.104-3.594 7.595-5.463-6 0.375-8.739-1.4-13.979 2.109-4.066 2.729-8.064 5.561-12.051 8.402 6.521-8.688 13.902-18.201 17.52-28.533-11.704 5.545-16.57 17.434-26.742 24.557-4.821 3.379-10.138 5.994-15.332 8.736-2.28 1.205-4.565 2.422-6.741 3.813-3.125 1.994-3.744 2.832-3.998 6.627-0.191 2.891-0.404 5.773-0.757 8.648-0.472 3.861 0.065 5.182 2.808 7.973 4.273 4.354 9.768 7.895 15.336 10.354 3.567 1.578 9.949-0.389 12.205 3.063 2.324 3.553 6.701 12.59 5.258 16.658-0.867 2.438-3.077 3.945-4.938 5.586-2.173 1.914-2.261 2.096-0.646 4.209 2.688 3.521 5.668 6.832 8.654 10.1 2.379 2.604 7.123 7.977 12.394 10.318 4.505 2.004 13.002 3.443 15.979 6.258 4.783 4.521 9.479 9.029 16.441 9.313 7.037 0.285 13.492-2.764 20.544-0.959 3.575 0.914 20.425 0.914 24 0 7.056-1.805 13.508 1.244 20.545 0.959 6.965-0.281 11.658-4.787 16.441-9.313 2.979-2.813 11.475-4.254 15.979-6.258 5.271-2.344 10.016-7.715 12.396-10.318 2.986-3.268 5.965-6.578 8.652-10.1 1.611-2.113 1.523-2.295-0.646-4.209-1.861-1.641-4.072-3.146-4.938-5.586-1.445-4.068 2.934-13.105 5.256-16.658 2.256-3.449 8.641-1.482 12.207-3.063 5.564-2.461 11.063-6.002 15.334-10.354 2.741-2.791 3.276-4.11 2.807-7.973z" fill="#074b9c" stroke="#fff"/>
	<path d="m-1396.1 1038.4c-4.334 0-13-5.666-14-11.666" fill="none" stroke="#fff"/>
	<path d="m-1376.4 1077.5s4.602-9.131 6.602-9.131 9.668 8.334 9.668 8.334" fill="none" stroke="#fff"/>
	<path d="m-1195.5 1038.7c6-4.332 12-6.334 13.666-11" fill="none" stroke="#fff"/>
	<path d="m-1231.5 1076.7s4.282-6.334 7.479-6.334c3.195 0 8.428 8.197 8.428 8.197" fill="none" stroke="#fff"/>
	<g fill="#fff">
		<path d="m-1393.7 1053.9c-0.606 0.201-1.353 0.336-1.986 0.109-0.923-0.326-1.15-1.357-1.126-2.227-0.203-0.014-0.401-0.039-0.608-0.084-0.207-0.043-0.41-0.102-0.621-0.176-2.64-0.938-3.414-3.9-2.537-6.367 0.895-2.521 3.271-4.572 6.068-3.58 2.771 0.982 3.438 3.998 2.541 6.531-0.634 1.781-1.755 3.018-3.572 3.574-0.013 0.619 0.381 1.604 0.987 1.822 0.226 0.076 0.521 0.078 0.771 0.049l0.083 0.349zm0.192-6.277c0.631-1.779 1.123-4.799-1.158-5.609-2.217-0.785-3.779 1.941-4.383 3.646-0.353 0.988-0.619 2.246-0.44 3.291 0.372-0.672 1.101-0.801 1.786-0.557 1.003 0.354 1.654 1.449 1.879 2.449 1.109-0.571 1.918-2.097 2.316-3.22zm-4.351 1.205c-0.476-0.168-1.084-0.043-1.271 0.484-0.276 0.777 0.528 1.521 1.188 1.76 0.355 0.125 0.73 0.199 1.104 0.154 0.077-0.878-0.058-2.056-1.021-2.398z"/>
		<path d="m-1378.2 1051c0.644-1.398 0.635-1.818-0.345-2.27l0.192-0.42 2.913 1.338-0.192 0.42c-1.019-0.467-1.34-0.199-1.982 1.199l-1.806 3.932c-1.034 2.252-2.573 2.887-4.837 1.846-1.935-0.887-2.752-2.494-1.846-4.467l1.975-4.303c0.643-1.398 0.635-1.816-0.319-2.256l0.193-0.42 3.6 1.65-0.191 0.42c-1.058-0.482-1.379-0.217-2.021 1.186l-1.643 3.572c-0.771 1.682-1.143 3.357 0.862 4.264 2.105 0.982 3.064-0.502 3.854-2.221l1.593-3.47z"/>
		<path d="m-1372 1061.4c-0.997 1.189-1.081 1.596-0.211 2.324l-0.297 0.354-3.091-2.59 0.296-0.355c0.858 0.721 1.243 0.564 2.239-0.627l3.521-4.209c0.989-1.18 1.081-1.596 0.223-2.313l0.297-0.355 3.092 2.588-0.297 0.355c-0.869-0.73-1.262-0.564-2.25 0.615l-3.522 4.213z"/>
	</g>
	<g fill="#fff">
		<path d="m-1372 1086c-1.266 0.902-1.456 1.262-0.708 2.313l-0.376 0.268-2.504-3.51 0.376-0.27c0.739 1.037 1.142 0.975 2.407 0.07l4.764-3.398c0.57-0.404 1.371-0.754 0.816-1.527-0.828-1.162-2.394-1.477-3.711-1.273l-0.095-0.395 2.694-0.686 4.692 6.576-1.541 2.303-0.328-0.193c0.631-1.189 0.776-2.791-0.012-3.947-0.555-0.773-1.145-0.131-1.714 0.273l-4.76 3.396z"/>
		<path d="m-1363.3 1092.2-1.813 1.889c-1.076 1.121-1.188 1.52-0.39 2.285l-0.319 0.332-2.877-2.764 0.319-0.332c0.798 0.766 1.19 0.639 2.269-0.482l3.781-3.938c0.786-0.816 1.398-1.354 0.409-2.307l0.319-0.332 2.968 2.852c1.183 1.135 2.31 2.994 0.922 4.438-0.989 1.029-2.588 0.834-3.674 0.023l-0.965 3.713c-0.247 1.006-0.477 1.426 0.371 2.182l-0.32 0.332-1.676-1.605 1.394-5.596-0.718-0.69zm0.322-0.334 0.525 0.506c0.95 1.049 2.565 1.611 3.683 0.449 0.96-0.998 0.565-2.367-0.343-3.24-0.849-0.813-1.197-0.49-1.926 0.27l-1.939 2.015z"/>
		<path d="m-1349 1096.6-2.139 7.738c-0.154 0.557-0.501 1.725-0.414 2.271 0.049 0.354 0.262 0.615 0.527 0.846l-0.258 0.385-3.414-2.301 0.259-0.383c0.418 0.23 1.071 0.84 1.479 0.236 0.125-0.189 0.255-0.656 0.304-0.877l0.483-1.748-2.961-1.994-0.446 0.34c-0.345 0.258-1.303 0.932-1.529 1.27-0.397 0.592 0.162 1.088 0.64 1.406l-0.258 0.385-2.974-2.002 0.258-0.385c1.007 0.66 1.97-0.092 2.774-0.713l6.384-4.92 1.285 0.446zm-1.648 0.746-3.939 3.021 2.613 1.758 1.326-4.779z"/>
		<path d="m-1339.4 1110.6 2.12-4.805c0.622-1.406 0.608-1.828-0.417-2.279l0.188-0.424 2.972 1.313-0.188 0.426c-1.012-0.447-1.344-0.182-1.965 1.229l-3.178 7.195-0.437-0.189-2.104-10.248-2.481 5.623c-0.627 1.422-0.607 1.828 0.417 2.277l-0.188 0.426-2.983-1.316 0.188-0.424c1.023 0.451 1.352 0.197 1.979-1.227l2.216-5.02c0.622-1.408 0.596-1.834-0.429-2.287l0.188-0.422 2.229 0.982 1.873 9.17z"/>
		<path d="m-1325.4 1109.5-0.441 0.088c-0.387-1.242-1.106-2.703-2.462-3.055-1.016-0.266-2.006 0.314-2.271 1.334-0.305 1.18 0.818 1.977 1.693 2.508 1.568 0.973 3.196 1.887 2.639 4.041-0.451 1.732-2.104 2.535-3.785 2.098-0.854-0.221-1.482-0.805-2.025-0.943-0.298-0.076-0.672 0.027-0.929 0.18l-0.304-2.898 0.457-0.084c0.541 1.314 1.427 2.916 2.836 3.281 1.043 0.271 2.188-0.186 2.479-1.309 0.816-3.146-5.141-2.984-4.197-6.615 0.442-1.707 1.909-2.455 3.59-2.02 0.435 0.111 0.655 0.258 1.023 0.512 0.287 0.178 0.393 0.275 0.688 0.354 0.229 0.063 0.52 0.064 0.731-0.084l0.278 2.612z"/>
		<path d="m-1317.3 1115.2c-0.021 1.557 0.155 1.922 1.443 1.938l-0.01 0.463-4.313-0.057 0.01-0.463c1.273 0.018 1.461-0.344 1.48-1.898l0.078-5.852c0.01-0.699 0.203-1.551-0.75-1.564-1.429-0.018-2.604 1.061-3.222 2.24l-0.377-0.16 1.043-2.574 8.075 0.105 0.945 2.604-0.352 0.148c-0.586-1.211-1.791-2.277-3.189-2.324-0.952-0.012-0.781 0.844-0.791 1.545l-0.071 5.849z"/>
		<path d="m-1301.5 1109.5c-0.021-1.539-0.207-1.916-1.287-1.9l-0.01-0.461 3.207-0.045 0.01 0.461c-1.121 0.018-1.297 0.396-1.275 1.938l0.062 4.326c0.034 2.479-1.082 3.711-3.574 3.746-2.127 0.027-3.558-1.07-3.588-3.24l-0.065-4.73c-0.021-1.539-0.208-1.916-1.258-1.9l-0.01-0.463 3.961-0.055 0.01 0.463c-1.162 0.018-1.339 0.396-1.317 1.939l0.056 3.934c0.024 1.85 0.414 3.521 2.609 3.479 2.324-0.02 2.553-1.771 2.525-3.66l-0.056-3.832z"/>
		<path d="m-1286.2 1115.1-1.048 2.543-7.25-0.229 0.017-0.461c1.146 0.035 1.341-0.322 1.392-1.875l0.174-5.484c0.051-1.539-0.12-1.924-1.268-1.959l0.014-0.463 4.061 0.129-0.016 0.463c-1.161-0.037-1.354 0.334-1.402 1.873l-0.188 5.766c-0.039 1.232 0.063 1.645 1.444 1.688 1.875 0.061 2.726-0.627 3.697-2.164l0.373 0.173z"/>
		<path d="m-1279.5 1115.5c-0.018 1.555 0.175 1.92 1.311 1.934l-0.01 0.463-4.03-0.045 0.01-0.463c1.119 0.014 1.319-0.35 1.336-1.902l0.063-5.486c0.018-1.539-0.176-1.92-1.295-1.934l0.01-0.463 4.031 0.045-0.01 0.463c-1.134-0.014-1.335 0.363-1.353 1.902l-0.061 5.486z"/>
		<path d="m-1268.8 1115c0.146 1.549 0.357 1.895 1.644 1.773l0.041 0.461-4.293 0.395-0.043-0.459c1.271-0.115 1.416-0.494 1.271-2.045l-0.539-5.824c-0.063-0.697 0.037-1.564-0.908-1.479-1.424 0.131-2.479 1.326-2.969 2.564l-0.393-0.115 0.766-2.676 8.043-0.742 1.215 2.486-0.334 0.188c-0.711-1.145-2.021-2.076-3.416-1.977-0.946 0.088-0.688 0.924-0.623 1.617l0.538 5.833z"/>
		<path d="m-1250 1103.7-0.295 0.342c-1.069-0.74-2.539-1.441-3.821-0.885-0.962 0.42-1.382 1.488-0.964 2.451 0.488 1.115 1.863 1.051 2.88 0.93 1.836-0.205 3.682-0.49 4.569 1.551 0.717 1.645-0.093 3.293-1.685 3.986-0.809 0.352-1.664 0.281-2.178 0.506-0.281 0.123-0.512 0.438-0.619 0.713l-2.027-2.094 0.308-0.348c1.235 0.697 2.923 1.414 4.259 0.832 0.987-0.432 1.606-1.496 1.146-2.564-1.3-2.977-5.888 0.826-7.388-2.611-0.705-1.617-0.013-3.109 1.58-3.807 0.41-0.18 0.674-0.201 1.121-0.229 0.334-0.039 0.479-0.023 0.76-0.146 0.22-0.096 0.447-0.27 0.522-0.52l1.832 1.893z"/>
		<path d="m-1239.9 1097.7c-0.82-1.305-1.177-1.525-2.089-0.953l-0.245-0.391 2.713-1.707 0.246 0.391c-0.947 0.598-0.9 1.014-0.08 2.316l2.303 3.662c1.32 2.098 1.009 3.729-1.103 5.059-1.801 1.135-3.594 0.938-4.75-0.898l-2.521-4.004c-0.817-1.305-1.176-1.525-2.063-0.969l-0.245-0.393 3.354-2.107 0.245 0.391c-0.982 0.619-0.938 1.035-0.115 2.342l2.094 3.328c0.983 1.564 2.188 2.793 4.041 1.609 1.975-1.227 1.256-2.842 0.25-4.438l-2.035-3.238z"/>
		<path d="m-1230.2 1090.1-0.181 0.412c-1.242-0.389-2.854-0.623-3.912 0.291-0.795 0.688-0.879 1.832-0.19 2.627 0.797 0.922 2.093 0.449 3.024 0.031 1.688-0.74 3.369-1.563 4.824 0.123 1.172 1.354 0.892 3.172-0.423 4.307-0.668 0.578-1.506 0.766-1.93 1.131-0.231 0.201-0.358 0.568-0.381 0.865l-2.561-1.396 0.189-0.424c1.388 0.301 3.209 0.479 4.313-0.473 0.814-0.701 1.092-1.902 0.332-2.781-2.123-2.459-5.375 2.533-7.828-0.305-1.152-1.334-0.938-2.967 0.377-4.104 0.34-0.293 0.586-0.395 1.004-0.553 0.309-0.137 0.449-0.166 0.684-0.367 0.181-0.154 0.347-0.391 0.347-0.648l2.312 1.264z"/>
		<path d="m-1220.1 1087.2c1.18 1.01 1.575 1.107 2.412 0.131l0.352 0.301-2.803 3.275-0.353-0.303c0.827-0.967 0.67-1.342-0.513-2.354l-4.444-3.807c-0.53-0.455-1.063-1.148-1.683-0.426-0.928 1.084-0.854 2.678-0.342 3.908l-0.361 0.188-1.313-2.451 5.255-6.137 2.604 0.939-0.11 0.365c-1.308-0.326-2.896-0.084-3.827 0.963-0.619 0.723 0.146 1.139 0.68 1.596l4.446 3.812z"/>
	</g>
	<g fill="#fff">
		<path d="m-1218.2 1067.3c1.508 0.377 1.907 0.273 2.185-0.826l0.446 0.111-0.976 3.912-0.448-0.111c0.271-1.086-0.033-1.363-1.541-1.74l-5.326-1.328c-1.494-0.373-1.907-0.271-2.181 0.813l-0.446-0.111 0.977-3.91 0.447 0.109c-0.273 1.104 0.046 1.383 1.539 1.754l5.324 1.327z"/>
		<path d="m-1211 1053.9-3.662-3.762c-1.073-1.104-1.469-1.246-2.271-0.465l-0.322-0.332 2.326-2.266 0.322 0.33c-0.791 0.77-0.668 1.18 0.404 2.281l5.488 5.639-0.341 0.332-10.291-1.879 4.287 4.4c1.084 1.113 1.47 1.248 2.271 0.467l0.322 0.33-2.338 2.275-0.322-0.33c0.805-0.781 0.688-1.182-0.396-2.293l-3.828-3.934c-1.074-1.104-1.479-1.234-2.279-0.455l-0.322-0.332 1.744-1.697 9.208 1.691z"/>
		<path d="m-1197.2 1050.7-0.379 0.146c-0.627-1.682-1.781-1.328-2.789-0.867l-0.537 0.205 1.153 3.021c0.406 1.061 0.647 1.266 1.841 0.813 2.131-0.814 2.305-1.496 2.983-3.645l0.36 0.012-0.018 2.854-7.01 2.682-0.166-0.434c1.032-0.395 1.086-0.807 0.53-2.256l-1.959-5.127c-0.55-1.438-0.866-1.723-1.899-1.326l-0.166-0.434 6.842-2.613 1.771 1.887-0.252 0.32c-1.735-1.09-2.35-1.395-4.271-0.66-1.334 0.51-1.332 0.748-0.844 2.029l0.936 2.445 0.537-0.205c1.229-0.469 1.98-1.012 1.531-2.459l0.367-0.143 1.439 3.755z"/>
		<path d="m-1186.8 1045.8c0.854 1.299 1.207 1.502 2.281 0.795l0.254 0.385-3.602 2.371-0.256-0.387c1.063-0.699 1.018-1.104 0.162-2.4l-3.22-4.889c-0.386-0.586-0.7-1.398-1.496-0.875-1.192 0.785-1.563 2.338-1.411 3.662l-0.398 0.078-0.584-2.717 6.748-4.443 2.242 1.625-0.209 0.32c-1.164-0.676-2.761-0.883-3.943-0.135-0.795 0.521-0.174 1.137 0.213 1.721l3.219 4.889z"/>
	</g>

<g><path d="m-1423.8 1151.9-3.0586 0.2876-0.9217-1.0878 7.9563-6.8947 0.8333 0.9835c-1.9419 2.7034-2.9677 5.1384-3.0776 7.305-0.1098 2.1666 0.5002 4.0347 1.8301 5.6043 1.1111 1.3114 2.4126 2.0518 3.9044 2.2214 1.4919 0.1695 2.8041-0.2255 3.9366-1.1851 0.7054-0.5976 1.1891-1.2805 1.4512-2.0488 0.2622-0.7682 0.2924-1.6087 0.091-2.5215-0.2016-0.9128-0.8545-2.4034-1.9584-4.4717-1.5426-2.9083-2.4594-5.0882-2.7506-6.5396-0.2911-1.4514-0.2281-2.772 0.189-3.9616s1.182-2.2558 2.2946-3.1985c1.9869-1.6834 4.1996-2.4105 6.6381-2.1812s4.5541 1.402 6.347 3.518c1.9275 2.275 2.8674 4.8748 2.8196 7.7995l3.4832-0.058 0.909 1.0729-8.5386 7.2346-0.9091-1.0729c2.001-2.4121 3.0675-4.92 3.1996-7.5236 0.1321-2.6035-0.572-4.8143-2.1124-6.6323-1.2457-1.4703-2.6967-2.3016-4.353-2.494s-3.1053 0.2375-4.3471 1.2897c-0.7053 0.5976-1.1765 1.2954-1.4134 2.0934-0.2368 0.7981-0.2167 1.7282 0.06 2.7904 0.2772 1.0623 1.0959 2.9199 2.4564 5.573 1.486 2.9221 2.2459 5.1283 2.2798 6.6185 0.039 2.1004-0.8706 3.9375-2.7284 5.5116-1.9372 1.6413-4.0482 2.3675-6.333 2.1787-2.2847-0.1889-4.2436-1.247-5.8765-3.1743-0.7828-0.9239-1.3638-1.942-1.743-3.0542-0.3792-1.1123-0.5651-2.4395-0.5578-3.9818z"/><path d="m-1432.3 1144.4-7.4916-11.014 1.2112-0.8239 1.2852 1.8895c0.5712 0.8397 1.0369 1.2986 1.3969 1.3765 0.3601 0.078 0.8793-0.1138 1.5575-0.5752l18.087-12.303c0.7213-0.4906 1.1076-0.8951 1.1588-1.2134 0.072-0.4268-0.1229-0.9794-0.5842-1.6576l-1.439-2.1156 1.2112-0.8239 7.4916 11.014-1.2112 0.8239-1.417-2.0833c-0.498-0.7321-0.9279-1.1326-1.2897-1.2014-0.3618-0.069-0.9034 0.142-1.6247 0.6326l-18.087 12.303c-0.6891 0.4687-1.0484 0.8549-1.0781 1.1585-0.043 0.4699 0.2108 1.1086 0.76 1.9161l1.2742 1.8733z"/><path d="m-1451.1 1108.7-3.287-0.062-0.6159-1.1546 9.8272-6.0611 0.5975 1.1201c-2.4699 2.4244-4.0472 4.5718-4.7318 6.4422-0.8691 2.3821-0.7889 4.5382 0.2406 6.4683 0.7906 1.482 1.9177 2.5852 3.3815 3.3097 1.4637 0.7244 3.2013 0.9524 5.2126 0.6838 2.0113-0.2687 4.5392-1.215 7.5836-2.839 2.9526-1.5749 5.0948-3.1198 6.4266-4.6345 1.3318-1.5148 2.0971-3.0335 2.2957-4.5562 0.1987-1.5226-0.097-3.025-0.8879-4.507-1.0724-2.0105-2.4642-3.264-4.1753-3.7606-1.7112-0.4966-3.4571-0.2699-5.2378 0.68l-2.3954 1.2777c-0.3791 0.2023-0.5939 0.505-0.6444 0.9083-0.051 0.4033 0.1019 0.938 0.4574 1.6044l1.149 2.1541-1.2063 0.6434-5.6993-10.684 1.2063-0.6434 0.7721 1.4475c0.3432 0.6434 0.7004 1.0432 1.0715 1.1994s0.7692 0.121 1.1942-0.1058l9.7366-5.1938 0.6067 1.1374c-1.2959 1.2225-2.5194 2.4286-3.6705 3.6181 1.8727 0.1079 3.4795 0.5679 4.8203 1.3801s2.4127 1.9707 3.2155 3.4757c1.146 2.1484 1.6563 4.4329 1.5308 6.8536-0.1254 2.4208-0.9071 4.6972-2.3449 6.8293-1.4379 2.132-3.4206 3.8722-5.948 5.2204-2.539 1.3544-5.0987 2.0336-7.6791 2.0376-2.5804 0-4.9571-0.606-7.1302-1.8302-2.173-1.2242-3.7651-2.7841-4.7763-4.6797-0.5761-1.0799-0.9451-2.2075-1.1073-3.3828-0.162-1.1753-0.091-2.6407 0.2117-4.3963z"/><path d="m-1458.6 1098-5.0842-12.312 1.3539-0.5591 0.8722 2.1122c0.3877 0.9387 0.7498 1.483 1.0864 1.6328s0.8839 0.068 1.6421-0.245l20.219-8.3495c0.8063-0.333 1.2671-0.65 1.3822-0.9511 0.1575-0.4032 0.08-0.9839-0.2334-1.7421l-0.9766-2.3649 1.354-0.5591 5.0842 12.312-1.3539 0.5592-0.9617-2.3288c-0.338-0.8184-0.677-1.2982-1.0171-1.4395s-0.9133-0.046-1.7197 0.2875l-20.219 8.3495c-0.7702 0.3181-1.2009 0.6227-1.292 0.9139-0.1376 0.4513-0.02 1.1282 0.3527 2.0308l0.8647 2.0941z"/><path d="m-1465.7 1080.9-4.0732-12.744 1.3953-0.4459 0.9752 3.051c0.1546 0.4838 0.3957 0.7997 0.7233 0.9479s0.7643 0.1351 1.31-0.039l21.711-6.9391c0.5209-0.1665 0.8433-0.4302 0.9672-0.791s0.045-0.9816-0.2364-1.8622l-1.2368-3.8696c-0.658-2.0589-1.8814-3.5235-3.6701-4.394-1.7887-0.8704-4.4712-1.0622-8.0474-0.5754l-0.4162-1.3023 10.788-2.7508 7.3256 22.92-1.3953 0.4459-0.7195-2.2511c-0.2457-0.7689-0.5639-1.2619-0.9545-1.4788-0.3905-0.2169-0.9083-0.2223-1.5532-0.016l-21.488 6.8678c-0.4589 0.1466-0.7645 0.3879-0.9169 0.7236-0.1524 0.3358-0.1474 0.758 0.015 1.2665l0.892 2.7906z"/><path d="m-1474.4 1052.8-2.8306-13.076 1.4316-0.31 0.6777 3.1307c0.1075 0.4963 0.3172 0.8339 0.629 1.0129 0.3119 0.1789 0.7478 0.2078 1.3077 0.087l22.277-4.8224c0.5345-0.1157 0.8807-0.3472 1.0386-0.6945 0.158-0.3473 0.1392-0.9727-0.056-1.8762l-0.8595-3.9706c-0.4573-2.1125-1.5344-3.6878-3.2313-4.726-1.6968-1.0382-4.3485-1.4867-7.955-1.3455l-0.2892-1.3362 11.002-1.7023 5.091 23.518-1.4317 0.3099-0.5-2.3098c-0.1708-0.789-0.4402-1.3102-0.8081-1.5636s-0.8828-0.3085-1.5446-0.1652l-22.048 4.7728c-0.4708 0.1019-0.7982 0.3127-0.9822 0.6323-0.1839 0.3196-0.2194 0.7402-0.1065 1.262l0.6199 2.8634z"/><path d="m-1480.5 1023.9-1.4957-13.256 1.4556-0.1643 0.3 2.659c0.08 0.7116 0.253 1.1966 0.518 1.455 0.265 0.2583 0.6369 0.3605 1.1156 0.3065l16.206-1.8287c1.695-0.1912 2.9592-0.4845 3.7925-0.88 1.2313-0.5844 2.1626-1.5052 2.7938-2.7623 0.6313-1.2571 0.8403-2.8301 0.6271-4.7192-0.2949-2.6136-1.1958-4.5299-2.7026-5.7488-1.5069-1.2189-3.3924-1.7006-5.6567-1.4452l-13.178 1.487c-1.1645 0.13142-2.0384 0.31193-2.6218 0.54153-0.5834 0.22965-1.0262 0.51546-1.3283 0.85746-0.302 0.3421-0.5077 0.7551-0.6169 1.2391-0.1091 0.4841-0.1024 1.2695 0.02 2.3564l-1.4556 0.1642-1.2242-10.849 1.4556-0.16425 0.088 0.77633c0.1373 1.2163 0.5662 2.0851 1.2867 2.6065 0.7206 0.52148 1.7019 0.71212 2.944 0.57194l14.11-1.5921c3.0794-0.34745 5.54 0.26593 7.3818 1.8402 2.0736 1.7709 3.2958 4.2996 3.6667 7.586 0.3212 2.8465 0.1694 5.1305-0.4553 6.852-0.6247 1.7216-1.6523 3.0365-3.083 3.9448-1.0887 0.6863-2.5065 1.128-4.2532 1.3251l-17.331 1.9557c-0.4399 0.05-0.7689 0.2407-0.9869 0.5733-0.218 0.3325-0.2926 0.8028-0.2241 1.4109l0.3088 2.7366z"/><path d="m-1484.4 988.62 0.02-9.6289 22.83-8.567-22.796-7.9955 0.02-9.8437 1.4648 3e-3v2.4023c0 0.84639 0.1209 1.4163 0.3677 1.7097 0.2468 0.2935 0.6762 0.44086 1.2881 0.44206l22.871 0.0464c0.4557 9.6e-4 0.8076-0.17411 1.0557-0.5252 0.2481-0.35103 0.3731-0.95624 0.3748-1.8156v-2.207l1.4648 3e-3 -0.027 13.203-1.4648-3e-3 0.01-2.4609c0-0.7031-0.131-1.2242-0.3972-1.5633-0.2663-0.33905-0.6077-0.50902-1.0244-0.50989l-24.531-0.0498 27.402 9.6064v1.3281l-27.326 10.218 20.996 0.0426c1.25 3e-3 2.1846-0.15181 2.8037-0.46306 0.6191-0.31124 1.0953-0.75623 1.4285-1.335 0.3332-0.57875 0.5402-1.5386 0.6211-2.8796l1.4648 3e-3 -0.022 10.898-1.4648-3e-3c-0.1136-1.7841-0.4953-2.9958-1.145-3.6352-0.6497-0.63933-1.8014-0.96068-3.4551-0.96404l-19.922-0.0404c-0.4948-1e-3 -0.8564 0.148-1.0849 0.44701-0.2285 0.29902-0.3435 0.85869-0.3452 1.679v2.4609z"/><path d="m-1481.2 923.17 2.7501-14.666c0.5328-2.8411 1.5924-4.9243 3.1789-6.2497 1.5866-1.3253 3.4293-1.7912 5.5281-1.3977 1.2542 0.2352 2.3126 0.75492 3.1752 1.5592 0.8627 0.8043 1.4754 1.8465 1.8381 3.1267 0.3627 1.2802 0.4369 3.1985 0.2225 5.7548 0.8423-1.7365 1.5682-2.9053 2.1777-3.5064 0.6095-0.60107 1.3339-1.0382 2.1734-1.3114 0.8395-0.27312 2.4806-0.45887 4.9234-0.55726 1.7485-0.0695 2.9707-0.2643 3.6665-0.58426 0.5359-0.24393 0.8399-0.55787 0.9119-0.94183 0.074-0.39671-0.1478-0.81924-0.6665-1.2676-0.5187-0.4483-1.5067-0.84884-2.9641-1.2016l0.2448-1.3054c4.3057 1.0591 6.1801 3.0732 5.6234 6.0422-0.1752 0.93426-0.5637 1.6993-1.1656 2.2952-0.6019 0.59591-1.396 0.98024-2.3822 1.153-0.7415 0.13919-2.6088 0.10038-5.6019-0.11643-1.7381-0.12718-3.0045-0.05-3.7991 0.23152-0.7947 0.28156-1.4924 0.82306-2.0931 1.6245-0.6007 0.80148-1.0162 1.8165-1.2466 3.0451l-0.4356 2.3228 11.153 2.0914c0.4735 0.0888 0.8291 0.0296 1.0666-0.17756 0.3008-0.26154 0.5124-0.71866 0.6347-1.3714l0.5112-2.7259 1.4397 0.26997-2.4729 13.188-1.4397-0.26996 0.5219-2.7835c0.1152-0.61429 0.078-1.0882-0.111-1.4218-0.1891-0.33354-0.4949-0.53991-0.9172-0.61911l-22.69-4.2547c-0.4863-0.0912-0.8786-0.0124-1.177 0.23635-0.2983 0.24877-0.5039 0.67389-0.6167 1.2754l-0.5219 2.7835zm14.677-6.21 0.6299-3.3594c0.4224-2.2524 0.3274-4.0951-0.2849-5.5281-0.6123-1.4329-2.0062-2.3534-4.1819-2.7614-1.4973-0.28074-2.7261-0.26275-3.6863 0.054-0.9602 0.31676-1.6735 0.83546-2.1399 1.5561-0.4663 0.7207-0.9142 2.2264-1.3438 4.5172-0.2831 1.5102-0.3527 2.4642-0.2088 2.8621 0.144 0.39795 0.472 0.64491 0.9838 0.74088z"/><path d="m-1474.6 890.34 6.498-21.949 9.5004 2.2423-0.3715 1.2548c-3.0943-0.37288-5.3882-0.19307-6.8815 0.53942-1.4933 0.73255-2.4969 1.9665-3.0107 3.7019l-1.6078 5.4311c-0.1294 0.437-0.1087 0.80297 0.062 1.0979 0.1707 0.29498 0.4995 0.51453 0.9864 0.65867l9.8696 2.9219 0.7041-2.3784c0.377-1.2735 0.2272-2.4415-0.4495-3.5042-0.6767-1.0626-1.9484-1.9042-3.8152-2.5248l0.3825-1.2922 12.828 3.7979-0.3825 1.2922c-2.141-0.56591-3.7895-0.58207-4.9456-0.0485-1.156 0.53364-1.9392 1.4934-2.3495 2.8792l-0.6431 2.1724 11.012 3.2601c0.3995 0.1183 0.7451 0.0746 1.0369-0.13097 0.2917-0.20558 0.5299-0.62051 0.7148-1.2448l1.2696-4.2887c1.3787-4.657-0.7981-8.221-6.5303-10.692l0.3992-1.3484 10.18 3.5232-6.7586 22.829-1.4046-0.41583 0.56-1.8915c0.218-0.73662 0.2435-1.2926 0.076-1.6681-0.1672-0.37541-0.4943-0.6352-0.9812-0.77936l-21.949-6.498c-0.4869-0.14414-0.8877-0.12024-1.2026 0.0717-0.3148 0.19197-0.5554 0.56887-0.7218 1.1307l-0.6708 2.2661z"/><path d="m-1465.6 861.49 4.8535-12.405 1.3642 0.53374-0.8327 2.1281c-0.37 0.94583-0.4854 1.5893-0.3463 1.9304 0.1392 0.34111 0.5908 0.66111 1.3547 0.95998l20.371 7.9705c0.8124 0.31788 1.3644 0.40801 1.656 0.27039 0.3927-0.18189 0.7385-0.6548 1.0374-1.4187l0.9323-2.3827 1.3641 0.53373-4.8534 12.405-1.3642-0.53374 0.9181-2.3463c0.3226-0.82455 0.4101-1.4055 0.2624-1.7429-0.1476-0.3374-0.6276-0.66503-1.44-0.98291l-20.371-7.9705c-0.776-0.30363-1.2976-0.3819-1.565-0.23481-0.4117 0.23041-0.7954 0.80033-1.1513 1.7097l-0.8255 2.1099z"/><path d="m-1458.7 843.85 6.3245-12.757c1.4286-2.8814 3.1721-4.7565 5.2305-5.6254 2.0585-0.86875 4.1434-0.77972 6.2549 0.2671 2.1116 1.0469 3.3744 2.545 3.7886 4.4943 0.5739 2.6825 0.1611 5.4354-1.2386 8.2585l-2.2903 4.6197 8.8368 4.3811c0.5133 0.25449 0.9415 0.31418 1.2846 0.17908 0.442-0.18782 0.7988-0.55589 1.0707-1.1042l1.4575-2.9398 1.3124 0.65067-6.151 12.407-1.3124-0.65067 1.284-2.5898c0.2545-0.51329 0.3389-0.94011 0.2533-1.2805-0.086-0.34036-0.3033-0.5973-0.6533-0.77081l-20.631-10.228c-0.5249-0.26025-0.9793-0.29657-1.363-0.10894-0.3836 0.18765-0.7837 0.70144-1.2002 1.5414l-0.9456 1.9074zm16.792-1.3757 1.7438-3.5172c1.1046-2.2282 1.4376-4.065 0.9989-5.5106-0.4387-1.4455-1.7255-2.6975-3.8603-3.756-1.4932-0.74028-2.7493-1.0869-3.7682-1.0398-1.0189 0.0471-1.9333 0.40399-2.7434 1.0705-0.8101 0.6666-1.701 1.9798-2.6726 3.9396-0.642 1.2949-0.9258 2.1752-0.8515 2.6408 0.074 0.46562 0.4149 0.8488 1.0215 1.1495z"/><path d="m-1445.2 816.95 7.458-11.06 1.2145 0.81896-1.496 2.2185c-0.4003 0.59379-0.5834 1.0749-0.5493 1.4435 0.034 0.36857 0.251 0.68751 0.6504 0.95683l13.522 9.1177c1.4142 0.95364 2.5667 1.5502 3.4575 1.7896 1.3163 0.35363 2.6223 0.25668 3.9181-0.29085 1.2957-0.54751 2.475-1.6094 3.5378-3.1856 1.4705-2.1807 2.0275-4.2236 1.671-6.1287-0.3566-1.905-1.4795-3.4946-3.3687-4.7685l-10.996-7.4143c-0.9717-0.65513-1.754-1.0845-2.347-1.2881-0.593-0.20352-1.1154-0.27308-1.5671-0.20868-0.4518 0.0645-0.8762 0.24551-1.2732 0.54313-0.397 0.29769-0.9012 0.89994-1.5127 1.8068l-1.2146-0.81896 6.104-9.0523 1.2145 0.81896-0.4368 0.64775c-0.6842 1.0148-0.9212 1.9544-0.7109 2.8185 0.2103 0.86427 0.8337 1.6458 1.8701 2.3446l11.773 7.9384c2.5694 1.7326 4.0446 3.7952 4.4257 6.1879 0.43 2.6928-0.2795 5.4102-2.1285 8.1523-1.6015 2.3751-3.1983 4.0153-4.7902 4.9206-1.592 0.9053-3.227 1.2398-4.9051 1.0034-1.2738-0.18366-2.6395-0.76686-4.0969-1.7496l-14.461-9.751c-0.367-0.24749-0.7413-0.31537-1.1229-0.20364-0.3816 0.11177-0.7435 0.42134-1.0856 0.92873l-1.5397 2.2833z"/><path d="m-1423.3 785.83 10.29-10.995c2.0197-2.158 4.0409-3.365 6.0637-3.6209 2.0228-0.25583 3.752 0.28797 5.1875 1.6314 1.1979 1.1211 1.8415 2.4724 1.9307 4.0539 0.089 1.5816-0.3755 3.4025-1.3943 5.463 2.2778-1.5954 4.3308-2.4695 6.159-2.6222 1.8281-0.15267 3.4267 0.41158 4.7957 1.6928 1.0458 0.97872 1.708 2.129 1.9867 3.4509 0.2787 1.3219 0.082 2.9037-0.5889 4.7454-0.6714 1.8417-1.79 3.5991-3.3559 5.2723l-9.9827 10.667-1.0695-1.0009 1.6282-1.7398c0.4893-0.52288 0.7619-0.98561 0.8176-1.3882 0.056-0.40257-0.026-0.70618-0.2443-0.91082l-16.899-15.815c-0.3993-0.37366-0.8124-0.53731-1.2392-0.49095-0.4268 0.0464-0.8538 0.29776-1.2808 0.75408l-1.735 1.8538zm15.596 2.772 3.7368-3.9929c1.1478-1.2264 1.7007-2.5413 1.6588-3.9448-0.042-1.4034-0.8852-2.8748-2.5299-4.414-1.0172-0.95196-1.9734-1.5214-2.8686-1.7082-0.8952-0.18679-1.7827-0.0722-2.6625 0.34385-0.8797 0.41609-2.0803 1.437-3.6018 3.0626-1.0765 1.1504-1.6606 1.9412-1.7523 2.3726-0.092 0.43143 0.072 0.84287 0.49 1.2343zm1.0553 0.98759 8.1284 7.6071c0.3803 0.3559 0.77 0.51111 1.1693 0.46563 0.3992-0.0455 0.8702-0.35816 1.4129-0.93809l2.3889-2.5526c1.5837-1.6922 2.3805-3.2916 2.3905-4.7981 0.01-1.5065-0.7741-2.9982-2.3523-4.4752-1.4451-1.3524-2.975-1.9995-4.5898-1.9414-1.6148 0.0581-3.1117 0.82397-4.4908 2.2975z"/><path d="m-1400.2 762.02 10.659-8.0854 0.8853 1.1671-2.552 1.9358c-0.4046 0.30692-0.6222 0.63949-0.6528 0.99771-0.031 0.35827 0.1272 0.76562 0.4735 1.222l13.775 18.16c0.3305 0.43571 0.6865 0.65188 1.068 0.64849 0.3815-3e-3 0.9405-0.2844 1.6771-0.84311l3.2367-2.4552c1.7221-1.3062 2.6956-2.9476 2.9205-4.9242 0.2249-1.9765-0.4877-4.5697-2.138-7.7795l1.0892-0.82625 6.1872 9.2555-19.171 14.542-0.8852-1.1671 1.8828-1.4282c0.6432-0.48787 1.002-0.95207 1.0765-1.3926 0.074-0.44051-0.093-0.93049-0.5022-1.47l-13.633-17.973c-0.2911-0.38382-0.6204-0.59166-0.9878-0.62354-0.3673-0.0318-0.7637 0.11355-1.189 0.43616l-2.3342 1.7705z"/><path d="m-1374.7 743.83 11.702-6.3641 0.6998 1.2868-2.0074 1.0918c-0.8922 0.48526-1.3949 0.90317-1.5081 1.2537-0.1132 0.35061 0.026 0.88621 0.4181 1.6068l10.451 19.217c0.4168 0.76639 0.7811 1.1908 1.0927 1.2733 0.4176 0.1138 0.9867-0.0253 1.7074-0.4172l2.2477-1.2224 0.6998 1.2868-11.702 6.3641-0.6998-1.2868 2.2134-1.2038c0.7778-0.42302 1.2189-0.81113 1.3232-1.1643 0.1044-0.35318-0.052-0.91297-0.4687-1.6794l-10.451-19.217c-0.3981-0.73204-0.7468-1.1279-1.046-1.1875-0.4634-0.0889-1.124 0.1-1.9819 0.56651l-1.9903 1.0824z"/><path d="m-1334.4 728.97 0.4039-3.0747 1.1684-0.38582 4.1261 10.876-1.2426 0.41031c-1.8408-2.8339-3.6224-4.7824-5.3446-5.8455-2.1415-1.336-4.2756-1.6529-6.4022-0.95067-2.2998 0.75942-3.8341 2.4042-4.603 4.9343-0.7688 2.5302-0.3449 6.2433 1.2719 11.14 1.3595 4.1173 3.2249 6.9842 5.5962 8.6009 2.0138 1.3645 4.2942 1.6262 6.8412 0.78514 2.2255-0.73489 3.8568-2.0654 4.8937-3.9916 1.0368-1.9262 1.3083-4.4052 0.8146-7.4371l1.3168-0.43481c0.6945 3.3907 0.4043 6.2702-0.8705 8.6383-1.2749 2.3681-3.3219 4.0176-6.1409 4.9485-2.2874 0.75531-4.5761 0.87342-6.866 0.35433-2.29-0.51909-4.363-1.6686-6.2192-3.4485-1.8561-1.7799-3.2087-3.9557-4.058-6.5275-0.9022-2.7325-1.159-5.493-0.7703-8.2816 0.3887-2.7885 1.3052-5.0897 2.7494-6.9036 1.4442-1.8138 3.2296-3.0718 5.3563-3.7741 1.1869-0.39191 2.4042-0.56759 3.6517-0.52705 1.2475 0.0406 2.6898 0.33907 4.3271 0.8954z"/><path d="m-1309.7 722.4 25.091-0.59308 0.8216 9.9638-1.3668 0.0323c-0.8241-5.6592-3.397-8.4377-7.7187-8.3356l-3.5537 0.084c-0.5467 0.0129-0.9536 0.15607-1.2207 0.42936-0.267 0.27334-0.3953 0.63129-0.3848 1.0738l0.2441 10.329 1.7573-0.0415c2.9289-0.0692 4.4318-2.0584 4.5087-5.9676l1.3278-0.0314 0.3175 13.434-1.3277 0.0314c-0.1051-2.2377-0.5788-3.8188-1.4211-4.7431-0.8424-0.92434-2.0056-1.369-3.4895-1.3339l-1.6402 0.0388 0.2695 11.403c0.011 0.4556 0.1356 0.77827 0.3746 0.96798 0.3185 0.25296 0.7512 0.37298 1.2979 0.36006l3.749-0.0886c1.4188-0.0335 2.6576-0.38517 3.7163-1.0549 1.0587-0.66973 1.9369-1.6706 2.6349-3.0026 0.6978-1.332 1.2063-3.239 1.5253-5.7212l1.3473-0.0318-0.1488 11.061-23.08 0.54554-0.035-1.4644 2.8117-0.0665c0.5597-0.0132 0.986-0.16332 1.2788-0.45027 0.2928-0.28694 0.4341-0.6452 0.4239-1.0748l-0.2252-9.5286-8.1813 0.19339-3.66 7.1588c-0.311 0.6195-0.4589 1.2482-0.4438 1.886 0.015 0.63785 0.2353 1.1373 0.6606 1.4985 0.4253 0.36115 0.9894 0.53341 1.6924 0.51679l0.5076-0.012 0.035 1.4644-8.4742 0.20031-0.035-1.4644c0.7935-0.0448 1.4997-0.33501 2.1187-0.87062s1.3643-1.6538 2.2358-3.3546l10.164-19.64c0.2989-0.58011 0.4431-1.0915 0.4327-1.5341-0.01-0.29937-0.1232-0.52456-0.3481-0.67556-0.225-0.15095-0.6499-0.21905-1.2747-0.20431l-3.2804 0.0775zm7.5325 1.2872-7.1813 13.572 7.4979-0.17723z"/><path d="m-1226.3 743.16 2.4335-1.9223 1.1065 0.53815-4.6257 10.673-1.1768-0.57231c0.6564-3.3149 0.7381-5.9538 0.2448-7.9168-0.6035-2.4508-1.9123-4.166-3.9263-5.1455-2.178-1.0592-4.4247-0.95002-6.74 0.32748-2.3153 1.2775-4.6005 4.2348-6.8555 8.8717-1.8964 3.8993-2.5582 7.255-1.9857 10.067 0.4921 2.3822 1.9442 4.1598 4.3564 5.3329 2.1077 1.025 4.2047 1.2087 6.291 0.55098 2.0863-0.65772 4.0094-2.2454 5.7696-4.763l1.247 0.60648c-1.8664 2.9148-4.0821 4.7765-6.6471 5.585-2.5651 0.80855-5.1825 0.56365-7.8523-0.73471-2.1663-1.0535-3.8892-2.5647-5.1687-4.5335-1.2795-1.9688-1.964-4.2382-2.0534-6.8083-0.089-2.5701 0.4581-5.0729 1.6426-7.5085 1.2585-2.5878 2.9992-4.7456 5.2223-6.4734 2.223-1.7278 4.4844-2.7383 6.7844-3.0315 2.2999-0.29316 4.4569 0.05 6.471 1.0294 1.1241 0.5467 2.1191 1.2695 2.9851 2.1684 0.8659 0.89894 1.6917 2.1186 2.4773 3.659z"/><path d="m-1202.4 755.97c1.9152 1.5036 3.3141 3.417 4.1967 5.7404 0.8825 2.3234 1.0879 4.7608 0.6162 7.3122-0.4718 2.5514-1.5961 4.9588-3.373 7.2223-1.777 2.2634-3.8573 3.9328-6.2409 5.0081-2.3837 1.0753-4.8077 1.4692-7.272 1.1817-2.4643-0.28752-4.6285-1.1629-6.4925-2.6263-1.823-1.4312-3.1414-3.2732-3.9552-5.5261-0.8138-2.2529-0.975-4.6887-0.4835-7.3074 0.4915-2.6187 1.6257-5.0598 3.4026-7.3232 1.7528-2.2327 3.8033-3.8799 6.1515-4.9417 2.3482-1.0617 4.7366-1.4629 7.165-1.2036 2.4285 0.25937 4.5235 1.0805 6.2851 2.4634zm-0.6828 1.3759c-1.9972-1.5679-4.2667-2.0086-6.8085-1.3224-2.5418 0.6863-5.2841 2.9037-8.2268 6.6522-3.1921 4.066-4.7641 7.3759-4.7163 9.9296 0.048 2.5538 1.0089 4.5663 2.8832 6.0377 1.3109 1.0292 2.7405 1.5804 4.2887 1.6536 1.5483 0.0732 3.2199-0.42714 5.0148-1.5011 1.795-1.074 3.6734-2.8604 5.6353-5.3594 2.1387-2.7243 3.5325-5.0692 4.1815-7.0345 0.649-1.9653 0.7508-3.7187 0.3056-5.2602-0.4453-1.5414-1.2978-2.8066-2.5575-3.7956z"/><path d="m-1185.3 771.31 4.5258 5.2012-5.6851 28.041 12.392-10.782c1.2475-1.0855 1.9229-2.1738 2.0264-3.2649 0.097-0.99926-0.2933-2.0231-1.1711-3.0716l1.1051-0.96156 6.6284 7.6176-1.1051 0.96156c-0.6753-0.77601-1.2876-1.2615-1.837-1.4566-0.5495-0.19506-1.233-0.18715-2.0506 0.0237-0.8176 0.21087-1.5653 0.61119-2.243 1.201l-17.313 15.064-1.2052-1.385 5.9801-29.1-13.143 11.436c-1.1886 1.0342-1.8144 2.1052-1.8775 3.2129-0.063 1.1078 0.4426 2.2988 1.517 3.5732l-1.1051 0.96156-7.2309-8.3101 1.1051-0.96156c0.9453 1.007 2.0046 1.5351 3.1779 1.5843 1.1733 0.0492 2.2266-0.33223 3.1597-1.1442l14.778-12.859 0.047-0.48125c0.1031-0.95268 0.114-1.5749 0.033-1.8667-0.1103-0.40451-0.3621-0.8327-0.7552-1.2846l-0.859-0.9872z"/><path d="m-1161.4 799.94 3.6253 5.8645-10.144 26.753 13.972-8.637c1.4065-0.86952 2.2491-1.8343 2.5276-2.8943 0.2573-0.97042 0.038-2.0439-0.6591-3.2205l1.246-0.77025 5.3095 8.589-1.2459 0.77024c-0.541-0.87498-1.0667-1.4531-1.5774-1.7344-0.5107-0.28133-1.1865-0.38404-2.0274-0.30811-0.841 0.0759-1.6435 0.35007-2.4077 0.82249l-19.52 12.067-0.9654-1.5616 10.606-27.75-14.819 9.1607c-1.3402 0.82844-2.1309 1.7842-2.3722 2.8671-0.2414 1.083 0.065 2.3401 0.9192 3.7715l-1.2459 0.77025-5.7923-9.3699 1.246-0.77024c0.7701 1.1466 1.7301 1.839 2.88 2.0773s2.251 0.0321 3.3031-0.6183l16.663-10.301 0.1244-0.46729c0.2558-0.92348 0.3671-1.5358 0.3341-1.8368-0.043-0.41703-0.2227-0.88028-0.5376-1.3898l-0.6881-1.1131z"/><path d="m-1142.5 832.15 9.3536 20.892-8.6719 4.4816-0.5347-1.1944c2.5918-1.731 4.2162-3.3606 4.8731-4.8887 0.6568-1.5281 0.6155-3.1181-0.124-4.77l-2.3145-5.1696c-0.1862-0.41594-0.4401-0.68033-0.7617-0.79315-0.3216-0.11283-0.7141-0.0655-1.1775 0.14201l-9.3945 4.2059 1.0136 2.2639c0.5427 1.2122 1.4167 2.0014 2.6221 2.3676 1.2054 0.36623 2.7187 0.17736 4.5398-0.56662l0.5507 1.23-12.211 5.4669-0.5507-1.23c1.9937-0.96393 3.2557-2.0247 3.7861-3.1823 0.5302-1.1576 0.5001-2.396-0.091-3.7151l-0.9257-2.0678-10.482 4.6928c-0.3803 0.17025-0.6142 0.42835-0.7019 0.77432-0.088 0.34595 0 0.81604 0.2676 1.4103l1.8276 4.0822c1.9846 4.4328 5.9569 5.7216 11.917 3.8664l0.5746 1.2835-10.022 3.9518-9.7286-21.73 1.3369-0.59856 0.8061 1.8004c0.3139 0.70116 0.6565 1.1398 1.0278 1.316 0.3714 0.17614 0.7888 0.16046 1.2522-0.047l20.892-9.3536c0.4635-0.2075 0.7523-0.48658 0.8663-0.83724 0.1141-0.35066 0.051-0.79338-0.188-1.3282l-0.9657-2.157z"/><path d="m-1125.7 881.94 3.0704 0.43497 0.374 1.1722-10.917 4.016-0.3977-1.2467c2.8523-1.8121 4.8187-3.5739 5.8991-5.2853 1.3576-2.1279 1.696-4.2587 1.0153-6.3923-0.7362-2.3073-2.3654-3.8581-4.8876-4.6525-2.5223-0.79438-6.2395-0.40794-11.152 1.1593-4.1308 1.3179-7.0164 3.1543-8.6569 5.5091-1.3848 1.9999-1.6695 4.2775-0.8542 6.8329 0.7124 2.2328 2.0264 3.8774 3.942 4.9337 1.9155 1.0562 4.3917 1.3528 7.4285 0.88965l0.4215 1.3211c-3.3976 0.66026-6.2739 0.34104-8.6291-0.95766-2.3551-1.2987-3.9838-3.3622-4.8862-6.1905-0.7322-2.2949-0.8272-4.5846-0.285-6.8692 0.5422-2.2846 1.7126-4.3459 3.5111-6.184s3.9879-3.1687 6.5681-3.9919c2.7415-0.87465 5.5044-1.1035 8.2889-0.68668s5.0763 1.3565 6.8755 2.8189c1.7992 1.4624 3.0391 3.2605 3.7199 5.3941 0.3799 1.1908 0.5432 2.4098 0.4901 3.6568-0.053 1.247-0.3662 2.6863-0.939 4.3178z"/><path d="m-1120.8 891.3 4.8588 22.928-10.563 2.8175-0.2794-1.3184c6.0962-2.197 8.7556-5.1297 7.9782-8.7982-0.1565-0.73881-0.3912-1.2182-0.704-1.438-0.3128-0.21989-0.7622-0.26775-1.3481-0.14357l-22.584 4.786c-0.4586 0.0972-0.7678 0.30244-0.9276 0.61585-0.1599 0.31337-0.175 0.77577-0.046 1.3872l0.6033 2.8469-1.433 0.30368-2.7817-13.126 1.433-0.30367 0.6884 3.2482c0.092 0.43309 0.2702 0.74133 0.5354 0.92473 0.2651 0.18339 0.576 0.23729 0.9326 0.16172l22.909-4.8548c0.484-0.10258 0.8192-0.32667 1.0055-0.67228s0.2106-0.84324 0.073-1.4929c-0.3914-1.847-1.5906-3.2034-3.5975-4.0692-1.6553-0.71401-4.0779-0.96596-7.2677-0.75584l-0.2956-1.3948z"/><path d="m-1115.2 919.33 1.7947 13.199-1.4515 0.19737-0.3078-2.2643c-0.1369-1.0064-0.3491-1.6247-0.6366-1.855-0.2876-0.23029-0.8378-0.29017-1.6506-0.17964l-21.676 2.9473c-0.8644 0.11753-1.3905 0.30733-1.5783 0.5694-0.2546 0.34999-0.3267 0.93141-0.2161 1.7442l0.3447 2.5353-1.4515 0.19736-1.7947-13.199 1.4515-0.19737 0.3395 2.4966c0.1193 0.87734 0.3255 1.4275 0.6186 1.6504 0.2931 0.22295 0.8719 0.27565 1.7364 0.15812l21.676-2.9473c0.8257-0.11228 1.3195-0.2977 1.4815-0.55625 0.2476-0.40161 0.3057-1.0862 0.1741-2.0539l-0.3053-2.245z"/><path d="m-1113.6 959.41 2.8694 1.1762 0.075 1.2282-11.569 1.2101-0.079-1.3062c3.2102-1.0556 5.5493-2.2801 7.0171-3.6736 1.8388-1.729 2.6905-3.7113 2.555-5.9468-0.1466-2.4174-1.3447-4.3211-3.5944-5.7109-2.2497-1.3899-5.9479-1.9288-11.095-1.6167-4.328 0.26238-7.5764 1.3333-9.7453 3.2128-1.8337 1.5983-2.6694 3.7361-2.5071 6.4135 0.1418 2.3394 1.0114 4.2565 2.6086 5.7511 1.5973 1.4946 3.9247 2.3906 6.9821 2.6879l0.084 1.3842c-3.4556-0.19491-6.1653-1.2112-8.129-3.0488-1.9638-1.8377-3.0355-4.2382-3.2152-7.2014-0.1457-2.4045 0.3249-4.6473 1.4119-6.7286 1.0869-2.0813 2.728-3.7918 4.9231-5.1315 2.195-1.3397 4.6443-2.0915 7.3476-2.2554 2.8723-0.17414 5.6068 0.28297 8.2035 1.3713 2.5967 1.0883 4.5873 2.5624 5.9719 4.4221 1.3846 1.8597 2.1447 3.9073 2.2802 6.1428 0.076 1.2477-0.065 2.4694-0.4235 3.6652-0.358 1.1957-1.0151 2.5139-1.9713 3.9547z"/><path d="m-1110.9 968.97-0.5138 13.33-1.4638-0.0564 0.1031-2.6738c0.027-0.71563-0.07-1.2211-0.2934-1.5163-0.2232-0.29529-0.5755-0.4522-1.0569-0.47075l-16.296-0.62822c-1.7044-0.0657-2.9983 0.0343-3.8816 0.29992-1.3051 0.39271-2.3642 1.163-3.1773 2.311-0.813 1.1479-1.2562 2.6717-1.3294 4.5713-0.1013 2.6282 0.5013 4.6582 1.8078 6.0898 1.3065 1.4316 3.0982 2.1913 5.3751 2.2791l13.252 0.51085c1.171 0.0451 2.0621-2e-3 2.6735-0.14126 0.6112-0.13935 1.0919-0.35536 1.442-0.64806 0.3501-0.29275 0.6154-0.67017 0.7962-1.1323 0.1806-0.46216 0.2921-1.2397 0.3342-2.3326l1.4638 0.0564-0.4206 10.91-1.4638-0.0564 0.03-0.78067c0.047-1.2231-0.2463-2.1465-0.8802-2.7703-0.634-0.62387-1.5756-0.95987-2.8246-1.008l-14.189-0.54697c-3.0967-0.1194-5.4371-1.0957-7.0213-2.9289-1.7839-2.0624-2.6121-4.7461-2.4847-8.0509 0.1104-2.8625 0.6037-5.0977 1.4801-6.7058 0.8764-1.6081 2.0901-2.7536 3.641-3.4365 1.1795-0.51484 2.6476-0.73841 4.4041-0.67069l17.428 0.67186c0.4424 0.017 0.7963-0.12242 1.0619-0.41839 0.2654-0.29599 0.41-0.74974 0.4336-1.3613l0.1061-2.7519z"/><path d="m-1112.8 1005-3.1778 23.221-10.894-0.9191 0.1827-1.3352c6.48-0.01 9.9743-1.8681 10.483-5.5834 0.1024-0.7483 0.044-1.2787-0.1765-1.5914-0.2201-0.3127-0.6268-0.5096-1.2202-0.5908l-22.873-3.1301c-0.4644-0.064-0.8248 0.025-1.0812 0.266-0.2563 0.2409-0.4269 0.671-0.5116 1.2902l-0.3946 2.8833-1.4513-0.1986 1.8192-13.294 1.4513 0.1986-0.4501 3.2897c-0.06 0.4386 0 0.789 0.1912 1.0513 0.1876 0.2622 0.4619 0.418 0.8231 0.4674l23.202 3.1751c0.4902 0.067 0.8814-0.031 1.1736-0.2928 0.2921-0.2623 0.4832-0.7224 0.5733-1.3803 0.2559-1.8706-0.4142-3.5525-2.0103-5.0457-1.3165-1.2315-3.5113-2.2876-6.5844-3.1681l0.1934-1.4126z"/><path d="m-1117.2 1035.1-5.257 22.279-9.6112-1.706 0.3005-1.2736c3.1104 0.1988 5.3906-0.1094 6.8405-0.9245s2.3827-2.1034 2.7983-3.8649l1.3008-5.5127c0.1047-0.4435 0.063-0.8078-0.1234-1.0927-0.187-0.2849-0.5276-0.4857-1.0218-0.6023l-10.018-2.3639-0.5696 2.4142c-0.305 1.2926-0.09 2.4504 0.6453 3.4735 0.7352 1.0229 2.0522 1.7919 3.9508 2.3068l-0.3095 1.3117-13.021-3.0726 0.3095-1.3116c2.1693 0.4449 3.8162 0.3686 4.9405-0.229s1.8524-1.5997 2.1844-3.0064l0.5203-2.2051-11.177-2.6374c-0.4055-0.096-0.7482-0.033-1.0279 0.1889-0.2797 0.2216-0.4944 0.6492-0.6439 1.2829l-1.0272 4.3531c-1.1154 4.7269 1.2578 8.1633 7.1196 10.309l-0.3229 1.3687-10.362-2.9467 5.4678-23.172 1.4257 0.3365-0.453 1.9199c-0.1765 0.7477-0.1707 1.3042 0.017 1.6697 0.1881 0.3654 0.5292 0.6065 1.0234 0.7231l22.279 5.257c0.4942 0.1166 0.8932 0.07 1.1968-0.139 0.3035-0.2093 0.5226-0.5991 0.6572-1.1694l0.5427-2.3001z"/><path d="m-1124.6 1065.4-2.3284 6.4895-27.246 8.7334 15.461 5.5474c1.5564 0.5585 2.836 0.6164 3.8387 0.1738 0.9194-0.4033 1.6222-1.244 2.1084-2.522l1.3788 0.4947-3.4102 9.5044-1.3788-0.4947c0.3474-0.9683 0.472-1.7397 0.3739-2.3144-0.098-0.5748-0.4389-1.1674-1.0222-1.7778-0.5833-0.6105-1.2978-1.0675-2.1434-1.3709l-21.601-7.7505 0.62-1.7281 28.314-8.9933-16.398-5.8838c-1.483-0.5321-2.7232-0.5552-3.7206-0.069-0.9975 0.4859-1.7899 1.5088-2.3773 3.0688l-1.3788-0.4947 3.7203-10.368 1.3788 0.4947c-0.4171 1.3167-0.3606 2.499 0.1695 3.5469s1.3773 1.7807 2.5416 2.1985l18.439 6.616 0.443-0.1938c0.8817-0.3753 1.43-0.6697 1.6449-0.8831 0.2991-0.2938 0.5498-0.7226 0.7521-1.2864l0.442-1.2317z"/><path d="m-1146.7 1113.1 1.4777 2.6934-0.6328 1.2777-9.4858-4.567 0.5721-1.1551c3.252 0.7096 5.8941 0.6849 7.9264-0.074 2.0323-0.759 3.5049-2.0602 4.418-3.9038 0.7627-1.5402 0.9259-3.0287 0.4895-4.4653-0.4364-1.4367-1.3197-2.4844-2.6499-3.1431-0.8284-0.4103-1.6473-0.5833-2.4564-0.5191-0.8092 0.064-1.5927 0.37-2.3505 0.9174s-1.867 1.7381-3.3274 3.5721c-2.0574 2.57-3.6944 4.2766-4.9112 5.1198-1.2167 0.8432-2.4538 1.3094-3.7112 1.3987-1.2575 0.089-2.5396-0.1898-3.8465-0.837-2.3337-1.1557-3.8791-2.8982-4.6363-5.2274-0.7571-2.3293-0.5203-4.7366 0.7105-7.222 1.3233-2.672 3.3367-4.5664 6.0402-5.6832l-1.4359-3.1739 0.6241-1.2602 10.029 4.9667-0.624 1.2602c-3.0081-0.8795-5.7333-0.8632-8.1755 0.049-2.4423 0.9119-4.1921 2.4355-5.2496 4.5708-0.8552 1.7269-1.0425 3.3887-0.5618 4.9853s1.4503 2.7561 2.9088 3.4784c0.8285 0.4103 1.656 0.5658 2.4825 0.4666 0.8265-0.099 1.6723-0.4869 2.5373-1.1627 0.8651-0.6759 2.2453-2.1646 4.1407-4.4662 2.0925-2.5236 3.8159-4.0966 5.1704-4.719 1.9124-0.8691 3.9597-0.7634 6.1417 0.3172 2.2753 1.1268 3.7796 2.7763 4.5129 4.9484 0.7332 2.1722 0.5394 4.3901-0.5817 6.6537-0.5374 1.0852-1.2413 2.0225-2.1117 2.8119-0.8705 0.7895-2.015 1.4868-3.4335 2.092z"/><path d="m-1149.9 1123.6-6.9694 11.352-1.2484-0.7665 1.1957-1.9474c0.5313-0.8655 0.7587-1.4784 0.682-1.8387-0.077-0.3604-0.4647-0.7551-1.1637-1.1843l-18.642-11.445c-0.7434-0.4564-1.2708-0.6427-1.5821-0.5588-0.4187 0.1096-0.8426 0.514-1.2718 1.213l-1.3387 2.1805-1.2484-0.7665 6.9694-11.352 1.2484 0.7664-1.3183 2.1472c-0.4633 0.7545-0.6521 1.3109-0.5664 1.6691 0.086 0.3581 0.5003 0.7655 1.2437 1.2219l18.642 11.445c0.7101 0.436 1.2097 0.6052 1.4988 0.5077 0.446-0.154 0.9245-0.6472 1.4354-1.4794l1.1854-1.9307z"/><path d="m-1172.1 1152.2 0.9389 2.9251-0.864 1.1342-8.4451-6.2864 0.7812-1.0254c3.0579 1.3147 5.6566 1.7926 7.796 1.4337 2.1395-0.3589 3.8326-1.3566 5.0794-2.9931 1.0415-1.3672 1.4846-2.7975 1.3292-4.2909-0.1555-1.4934-0.8236-2.6899-2.0043-3.5894-0.7354-0.5602-1.5064-0.8857-2.313-0.9764-0.8067-0.091-1.634 0.061-2.482 0.454-0.8481 0.3933-2.1633 1.3515-3.9456 2.8746-2.5083 2.1322-4.4399 3.4966-5.7947 4.0932s-2.6579 0.8192-3.9094 0.6679c-1.2515-0.1514-2.4573-0.6689-3.6173-1.5527-2.0715-1.5781-3.2576-3.5826-3.5584-6.0133-0.3007-2.4307 0.3893-4.7491 2.07-6.9553 1.807-2.3719 4.1437-3.8491 7.0102-4.4317l-0.8066-3.389 0.8522-1.1186 8.9023 6.7821-0.8522 1.1186c-2.7861-1.4351-5.4647-1.9371-8.0357-1.5059s-4.5786 1.5945-6.0226 3.4899c-1.1678 1.5329-1.6674 3.1288-1.4989 4.7877s0.9001 2.9815 2.1948 3.9678c0.7353 0.5602 1.5182 0.8702 2.3485 0.9298 0.8303 0.06 1.7343-0.1601 2.7121-0.6592 0.9777-0.4992 2.6157-1.6985 4.9139-3.5979 2.534-2.08 4.5249-3.2968 5.973-3.6505 2.0428-0.4898 4.0326 0 5.9695 1.4786 2.0197 1.5387 3.1831 3.444 3.4902 5.7159 0.3072 2.2719-0.3047 4.4125-1.8355 6.4219-0.7338 0.9632-1.603 1.7497-2.6076 2.3594-1.0047 0.6096-2.2608 1.0767-3.7685 1.4013z"/></g></svg>
