<?xml version="1.0" encoding="UTF-8"?>
<svg version="1.0" viewBox="0 0 297 297" xml:space="preserve" xmlns="http://www.w3.org/2000/svg" xmlns:xlink="http://www.w3.org/1999/xlink"><ellipse transform="matrix(0 -1.0089 1.0099 0 -226.38 454.59)" cx="303.38" cy="371.2" rx="146.63" ry="146.49" fill="#fdb827" stroke="#000" stroke-miterlimit="3.864" stroke-width="1.1026"/><ellipse transform="matrix(0 -1.0089 1.0099 0 -226.38 454.59)" cx="303.23" cy="371.2" rx="132.04" ry="131.91" fill="none" stroke="#000" stroke-miterlimit="3.864" stroke-width=".99264"/><path d="m4.1387 148.64c0-79.729 64.632-144.36 144.36-144.36 79.73 0 144.36 64.632 144.36 144.36 0 79.73-64.632 144.36-144.36 144.36-79.73 0-144.36-64.632-144.36-144.36zm0 0c0-79.729 64.632-144.36 144.36-144.36 79.73 0 144.36 64.632 144.36 144.36 0 79.73-64.632 144.36-144.36 144.36-79.73 0-144.36-64.632-144.36-144.36zm7.7582 0c0-75.444 61.159-136.6 136.6-136.6 75.445 0 136.6 61.158 136.6 136.6 0 75.445-61.159 136.6-136.6 136.6-75.445 0-136.6-61.159-136.6-136.6z" fill="none" stroke="#000" stroke-miterlimit="3.864" stroke-width=".859"/><polygon transform="matrix(0 -1.0089 1.0099 0 -226.38 454.59)" points="289.41 505.7 290.98 506.99 297.14 512.86 298.64 513.86 308.38 513.94 306.73 512.94 299.72 507.35 299.14 506.92 298.28 506.42"/><polygon transform="matrix(0 -1.0089 1.0099 0 -226.38 454.59)" points="307.52 506.35 308.66 507.21 313.03 510.14 316.11 512.36 317.82 513.22 326.92 512.15 325.77 511.36 318.11 506.71 316.54 505.85"/><polygon transform="matrix(0 -1.0089 1.0099 0 -226.38 454.59)" points="280.25 504.27 281.39 505.56 285.54 509.93 287.9 512.43 288.76 513.22 279.32 511.93 277.96 510.5 272.66 504.06 271.16 502.56"/><polygon transform="matrix(0 -1.0089 1.0099 0 -226.38 454.59)" points="262.28 499.98 263.71 501.48 266.22 504.92 269.29 509.21 270.22 510.07 260.63 507.57 258.92 504.56 255.76 499.55 254.91 498.26 254.05 497.19"/><polygon transform="matrix(0 -1.0089 1.0099 0 -226.38 454.59)" points="245.89 493.61 246.68 494.9 250.83 503.06 251.76 504.42 243.52 501.05 242.74 500.07 238.52 491.03 237.66 489.81"/><polygon transform="matrix(0 -1.0089 1.0099 0 -226.38 454.59)" points="229.62 484.75 230.7 486.32 233.88 495.11 234.56 496.45 226.35 491.85 225.68 490.3 223.23 481.51 222.66 479.95"/><polygon transform="matrix(0 -1.0089 1.0099 0 -226.38 454.59)" points="215.18 473.74 216.04 475.57 217.97 484.7 218.54 486.41 211.21 480.51 210.74 479.65 209.24 469.99 208.67 468.2"/><polygon transform="matrix(0 -1.0089 1.0099 0 -226.38 454.59)" points="202.23 461.11 202.8 463.01 203.62 472.42 203.98 474.06 197.43 467.34 197.07 465.35 197.03 456.96 196.78 454.82"/><polygon transform="matrix(0 -1.0089 1.0099 0 -226.38 454.59)" points="325.45 504.67 327.02 505.35 334.64 509.43 336.58 510.25 346.06 507.71 343.59 506.89 336.36 503.66 334.07 502.95"/><polygon transform="matrix(0 -1.0089 1.0099 0 -226.38 454.59)" points="342.63 500.62 344.49 500.98 352.83 503.99 354.83 504.56 363.88 500.69 362.2 500.48 352.68 497.94 351.14 497.8"/><polygon transform="matrix(0 -1.0089 1.0099 0 -226.38 454.59)" points="359.95 494 361.52 494.25 370.22 496.33 371.94 496.58 380.49 491.71 378.7 491.5 369.47 490.21 367.5 490.21"/><polygon transform="matrix(0 -1.0089 1.0099 0 -226.38 454.59)" points="375.38 485.73 377.16 485.52 386.08 486.09 388.26 486.13 396.24 479.83 394.24 480.37 385.36 480.29 382.82 480.69"/><polygon transform="matrix(0 -1.0089 1.0099 0 -226.38 454.59)" points="389.8 475.18 391.44 474.68 400.57 474.14 402.61 473.85 409.62 466.73 407.76 467.37 398.24 468.52 396.7 469.02"/><polygon transform="matrix(0 -1.0089 1.0099 0 -226.38 454.59)" points="402.86 462.69 404.79 461.9 413.63 460.29 415.82 459.46 421.15 452.09 419.32 452.66 411.16 454.85 408.8 455.6"/><polygon transform="matrix(0 -1.0089 1.0099 0 -226.38 454.59)" points="414.31 448.48 415.71 447.76 424.51 444.72 426.34 443.86 430.88 435.66 429.45 436.38 421.44 439.57 419.4 440.78"/><polygon transform="matrix(0 -1.0089 1.0099 0 -226.38 454.59)" points="423.66 432.98 425.55 431.69 433.42 427.86 435.11 426.82 438.47 417.81 437.15 419.02 429.06 423.6 427.38 425.14"/><polygon transform="matrix(0 -1.0089 1.0099 0 -226.38 454.59)" points="430.88 416.59 432.06 415.27 439.87 410.08 441.41 408.43 443.34 399.95 442.37 400.73 434.68 406.57 433.57 407.82"/><polygon transform="matrix(0 -1.0089 1.0099 0 -226.38 454.59)" points="435.64 399.05 436.93 397.69 443.7 391.5 445.24 389.5 446.02 380.26 445.16 381.59 438.44 388.49 437.29 390.18"/><polygon transform="matrix(0 -1.0089 1.0099 0 -226.38 454.59)" points="438.44 380.76 439.29 379.3 445.31 372.46 446.27 370.71 445.99 361.12 445.34 362.51 439.8 369.81 438.69 371.85"/><polygon transform="matrix(0 -1.0089 1.0099 0 -226.38 454.59)" points="438.36 362.62 439.37 360.86 444.09 353.92 445.06 351.7 443.45 342.58 442.7 344.29 438.36 351.74 437.47 353.64"/><polygon transform="matrix(0 -1.0089 1.0099 0 -226.38 454.59)" points="436.18 345.01 436.9 342.65 440.58 334.74 441.12 332.77 438.29 323.97 437.93 325.72 434.68 333.74 434.07 336.42"/><polygon transform="matrix(0 -1.0089 1.0099 0 -226.38 454.59)" points="431.46 327.62 431.78 325.36 434.46 317.24 434.93 315.05 430.85 306.54 430.67 307.82 428.45 317.06 428.27 319.21"/><polygon transform="matrix(0 -1.0089 1.0099 0 -226.38 454.59)" points="424.55 311.19 424.44 309.08 426.02 300.31 426.3 298.2 421.15 290.25 421.08 292.29 419.93 300.92 420.11 302.81"/><polygon transform="matrix(0 -1.0089 1.0099 0 -226.38 454.59)" points="415.5 295.44 415.06 293.54 415.6 284.45 415.42 282.34 409.12 275.08 409.38 276.62 409.59 285.92 410.05 287.85"/><path d="m44.054 48.739c0.18077-0.071635 1.9522-0.57712 1.9522-0.57712l9.3973-0.93933 2.0602-0.3612-7.0482 6.4633-1.6623 0.3612-8.3136 1.3005-2.1319 0.57611s5.5656-6.7508 5.7464-6.8235z"/><polygon transform="matrix(0 -1.0089 1.0099 0 -226.38 454.59)" points="387.76 255.89 388.47 257.15 390.48 266.7 390.98 268.06 384.04 262.62 383.32 261.3 380.88 252.6 379.99 250.42 387.86 255.93" fill-rule="evenodd"/><polygon transform="matrix(0 -1.0089 1.0099 0 -226.38 454.59)" points="371.83 245.52 372.55 246.95 375.73 255.72 376.77 257.54 369.29 253.14 368.07 251.53 364.21 243.12 363.1 241.33 371.9 245.52" fill-rule="evenodd"/><polygon transform="matrix(0 -1.0089 1.0099 0 -226.38 454.59)" points="354.72 237.75 355.62 239.25 359.59 246.91 360.66 248.66 352.61 245.3 351.54 244.08 346.49 235.96 345.46 234.56"/><polygon transform="matrix(0 -1.0089 1.0099 0 -226.38 454.59)" points="335.76 231.92 337.26 233.2 342.52 240.47 344.2 242.22 335.36 239.75 334.25 238.79 328.02 231.41 326.63 230.02 335.83 231.92" fill-rule="evenodd"/><polygon transform="matrix(0 -1.0089 1.0099 0 -226.38 454.59)" points="317.43 228.91 318.72 230.05 324.84 236.64 326.49 237.89 317.43 236.68 316.04 235.64 309.63 229.7 307.84 228.34"/><polygon transform="matrix(0 -1.0089 1.0099 0 -226.38 454.59)" points="298.39 228.23 299.54 228.98 306.41 234.78 308.02 235.96 299.61 235.96 297.96 235.24 290.41 229.95 288.66 228.94"/><polygon transform="matrix(0 -1.0089 1.0099 0 -226.38 454.59)" points="278.96 230.23 280.82 230.98 288.16 235.49 290.27 236.46 281.43 237.71 279.67 237.07 271.84 232.92 270.04 232.09 279.03 230.2" fill-rule="evenodd"/><polygon transform="matrix(0 -1.0089 1.0099 0 -226.38 454.59)" points="260.99 234.71 262.35 235.17 270.44 238.86 272.23 239.4 263.53 241.83 262.17 241.4 253.55 238.32 251.72 237.86"/><polygon transform="matrix(0 -1.0089 1.0099 0 -226.38 454.59)" points="242.24 241.79 243.99 241.79 253.19 244.26 255.3 244.48 246.6 248.27 244.96 248.02 236.37 246.09 234.15 245.77"/><polygon transform="matrix(0 -1.0089 1.0099 0 -226.38 454.59)" points="225.88 250.96 227.6 250.78 236.37 252.17 238.87 252.21 231.46 256.5 229.64 256.82 220.16 256.14 218.19 256.18"/><polygon transform="matrix(0 -1.0089 1.0099 0 -226.38 454.59)" points="223.48 261.73 221.84 261.98 212.64 261.91 210.64 262.16 203.62 268.53 205.44 268.28 213.82 267.85 216.5 267.38 223.56 261.69" fill-rule="evenodd"/><polygon transform="matrix(0 -1.0089 1.0099 0 -226.38 454.59)" points="209.85 273.25 207.84 273.9 198.86 275.08 197.11 275.29 190.81 282.7 193.28 282.09 200.69 280.7 203.37 279.69"/><polygon transform="matrix(0 -1.0089 1.0099 0 -226.38 454.59)" points="197.68 286.39 196.07 287.35 186.98 289.82 185.04 290.57 179.89 298.66 181.82 297.7 189.73 295.01 191.99 293.9"/><polygon transform="matrix(0 -1.0089 1.0099 0 -226.38 454.59)" points="187.05 301.67 185.83 302.38 176.81 306.07 175.52 306.79 171.55 315.27 173.52 314.27 180.96 310.69 182.79 309.54"/><polygon transform="matrix(0 -1.0089 1.0099 0 -226.38 454.59)" points="179.03 317.2 177.92 318.63 169.23 323.57 167.9 324.68 165.22 333.49 166.65 332.38 173.66 327.65 175.6 325.9"/><polygon transform="matrix(0 -1.0089 1.0099 0 -226.38 454.59)" points="172.77 334.88 171.8 336.13 164 341.9 162.89 343.01 161.42 352.2 162.6 350.99 169.16 345.19 170.84 343.22 172.84 334.81"/><polygon transform="matrix(0 -1.0089 1.0099 0 -226.38 454.59)" points="169.44 351.7 168.33 353.53 161.71 360.26 160.46 362.22 160.21 371.14 161.1 370.03 166.86 363.37 168.22 361.62"/><polygon transform="matrix(0 -1.0089 1.0099 0 -226.38 454.59)" points="167.87 370.03 166.97 372.1 161.46 379.3 160.39 381.23 161.42 390.1 162.1 388.96 167.15 381.55 168.12 379.23"/><polygon transform="matrix(0 -1.0089 1.0099 0 -226.38 454.59)" points="168.94 387.99 168.4 390.1 163.68 398.3 163.07 399.91 165.25 408.9 165.9 407.68 169.69 399.3 170.41 397.3"/><polygon transform="matrix(0 -1.0089 1.0099 0 -226.38 454.59)" points="172.48 406.25 172.02 408.11 168.55 416.48 168.04 418.63 171.41 427.04 172.06 425.21 174.7 417.13 175.1 414.76 172.56 406.28"/><polygon transform="matrix(0 -1.0089 1.0099 0 -226.38 454.59)" points="178.32 423.42 178.1 425.32 175.92 434.02 175.7 436.13 180.21 444.36 180.43 442.75 181.97 433.98 182.08 431.23 178.32 423.5"/><polygon transform="matrix(0 -1.0089 1.0099 0 -226.38 454.59)" points="186.3 439.39 186.51 441.1 185.37 450.05 185.3 452.06 190.16 458.78 190.99 459.72 190.88 458.36 191.45 449.55 191.42 447.37 186.37 439.35"/><path d="m203.38 62.856c0.79078-1.127 2.346-1.4024 3.4751-0.61142 1.1281 0.789 1.4028 2.3438 0.61201 3.4708-0.79076 1.128-2.347 1.4024-3.4741 0.61141-1.1291-0.78798-1.4038-2.3428-0.61302-3.4708zm-8.4136-4.8137c0.66857-1.2037 2.1865-1.6395 3.3923-0.97161 1.2038 0.66691 1.6401 2.1844 0.97255 3.388-0.66857 1.2027-2.1865 1.6395-3.3923 0.97161-1.2038-0.6659-1.6401-2.1834-0.97255-3.388zm-8.8327-3.9863c0.53828-1.2672 2.0027-1.8585 3.2711-1.3207 1.2685 0.53777 1.8603 2.0017 1.322 3.269-0.53727 1.2672-2.0016 1.8585-3.2701 1.3197-1.2684-0.53777-1.8613-1.9997-1.323-3.268zm-9.1589-3.162c0.42618-1.3096 1.832-2.026 3.1428-1.6012 1.3109 0.42577 2.0279 1.8322 1.6017 3.1408-0.42517 1.3096-1.832 2.026-3.1429 1.6012-1.3099-0.42477-2.0289-1.8322-1.6017-3.1408zm-9.4326-2.2308c0.28682-1.3469 1.6128-2.2066 2.9601-1.919 1.3482 0.28553 2.2087 1.6103 1.9209 2.9562-0.28478 1.3469-1.6108 2.2066-2.959 1.919-1.3482-0.28452-2.2077-1.6093-1.9219-2.9562zm-9.5982-1.3247c0.14543-1.3691 1.3715-2.364 2.7419-2.2187 1.3704 0.14428 2.3662 1.3691 2.2208 2.7393-0.14441 1.3691-1.3704 2.3629-2.7419 2.2187-1.3694-0.14529-2.3652-1.3712-2.2208-2.7393zm-9.677-0.50144c0.04746-1.3762 1.2038-2.4538 2.5814-2.4043 1.3765 0.047421 2.4551 1.2017 2.4066 2.5779-0.04848 1.3762-1.2038 2.4527-2.5803 2.4043-1.3785-0.048429-2.4561-1.2037-2.4076-2.5779zm-9.6811 0.50044c-0.09594-1.3732 0.94023-2.5647 2.3147-2.6616 1.3755-0.095851 2.5672 0.94034 2.6632 2.3125 0.09594 1.3732-0.94024 2.5647-2.3147 2.6616-1.3745 0.09585-2.5672-0.94034-2.6632-2.3125zm-9.5872 1.4145c-0.23833-1.356 0.66756-2.6485 2.0239-2.8866 1.3573-0.23912 2.652 0.66489 2.8904 2.0219 0.23935 1.356-0.66654 2.6485-2.0239 2.8866-1.3563 0.23912-2.651-0.66489-2.8904-2.0219zm-9.4165 2.2842c-0.3565-1.3298 0.43325-2.6979 1.7643-3.0531 1.3311-0.35515 2.6995 0.43284 3.056 1.7626s-0.43326 2.6969-1.7643 3.0531c-1.3311 0.35616-2.6995-0.43384-3.056-1.7626zm-9.1408 3.2145c-0.49385-1.2844 0.14846-2.7272 1.4351-3.2205 1.2866-0.49236 2.7298 0.14932 3.2236 1.4347 0.49385 1.2844-0.14846 2.7262-1.4351 3.2195s-2.7298-0.14731-3.2237-1.4337zm-8.7893 4.0751c-0.62615-1.2269-0.13735-2.7282 1.0907-3.3527 1.227-0.62554 2.7298-0.13722 3.356 1.0887 0.62513 1.2269 0.13734 2.7282-1.0907 3.3527-1.2281 0.62554-2.7308 0.1362-3.356-1.0886zm-8.3823 4.853c-0.73016-1.1673-0.37467-2.706 0.7938-3.4344 1.1685-0.73047 2.7076-0.37431 3.4378 0.79304 0.73016 1.1663 0.37467 2.705-0.7938 3.4344-1.1685 0.73047-2.7076 0.37431-3.4378-0.79304zm-7.8582 5.6612c-0.84833-1.0846-0.65644-2.6515 0.43022-3.499 1.0857-0.84751 2.6531-0.6548 3.5014 0.42981 0.84934 1.0846 0.65645 2.6515-0.42921 3.499-1.0867 0.84852-2.6541 0.65581-3.5024-0.42981zm-7.3158 6.3463c-0.93922-1.0069-0.88469-2.5839 0.12321-3.5232 1.0079-0.93832 2.5874-0.88383 3.5266 0.12309 0.94023 1.0069 0.88468 2.5849-0.12321 3.5232-1.0079 0.93832-2.5864 0.88384-3.5266-0.12308zm-6.7139 6.9809c-1.0079-0.93933-1.0624-2.5163-0.12321-3.5232 0.94023-1.0069 2.5187-1.0614 3.5266-0.12308 1.0079 0.94034 1.0624 2.5163 0.12321 3.5232-0.94023 1.0069-2.5187 1.0634-3.5266 0.12309zm-5.9565 7.6428c-1.1008-0.82835-1.321-2.3912-0.49183-3.491 0.83016-1.0998 2.3945-1.3187 3.4943-0.49035 1.1008 0.82834 1.321 2.3912 0.49183 3.491-0.83016 1.0977-2.3945 1.3187-3.4943 0.49035zm-5.2394 8.1472c-1.1685-0.73048-1.524-2.2671-0.7938-3.4355 0.73018-1.1673 2.2693-1.5225 3.4378-0.79202 1.1685 0.73047 1.524 2.2671 0.7938 3.4344-0.73017 1.1673-2.2693 1.5215-3.4378 0.79303zm-4.4002 8.6295c-1.2382-0.60334-1.7522-2.0956-1.1483-3.3325 0.60392-1.239 2.0976-1.7515 3.3358-1.1492 1.2392 0.60437 1.7532 2.0956 1.1493 3.3346-0.60393 1.236-2.0976 1.7495-3.3368 1.1472zm-3.5933 8.9927c-1.2866-0.49338-1.9289-1.9352-1.4351-3.2206 0.49386-1.2834 1.937-1.9271 3.2227-1.4337 1.2866 0.49338 1.9299 1.9352 1.4361 3.2206-0.49385 1.2844-1.937 1.9271-3.2237 1.4337zm-2.6753 9.3075c-1.3311-0.35616-2.1208-1.7233-1.7643-3.0521 0.3565-1.3298 1.7249-2.1198 3.056-1.7626 1.3311 0.35616 2.1208 1.7233 1.7643 3.0521-0.35751 1.3298-1.7249 2.1198-3.056 1.7626zm-1.7764 9.5184c-1.3614-0.2149-2.2905-1.4922-2.0744-2.8523 0.21512-1.359 1.4937-2.2883 2.855-2.0714 1.3604 0.21491 2.2895 1.4922 2.0734 2.8503-0.21511 1.3611-1.4937 2.2893-2.854 2.0734z" fill="none" stroke="#000" stroke-miterlimit="3.864" stroke-width="1.002"/><path d="m186.56 243.04c0.49385 1.2854-0.14846 2.7272-1.4351 3.2205-1.2856 0.49338-2.7298-0.14931-3.2227-1.4337-0.49384-1.2854 0.14746-2.7272 1.4351-3.2206 1.2856-0.49337 2.7298 0.1473 3.2226 1.4337zm8.7893-4.0741c0.62514 1.2269 0.13735 2.7282-1.0907 3.3527-1.2281 0.62554-2.7308 0.13721-3.356-1.0897-0.62515-1.2259-0.13736-2.7272 1.0907-3.3517 1.2281-0.62656 2.7298-0.13823 3.356 1.0886zm8.3813-4.854c0.73219 1.1673 0.37569 2.706-0.79177 3.4354-1.1695 0.72946-2.7096 0.37431-3.4388-0.79304-0.73118-1.1673-0.37468-2.706 0.79379-3.4354 1.1675-0.73047 2.7066-0.37532 3.4368 0.79304zm7.8592-5.6612c0.84833 1.0846 0.65543 2.6505-0.43022 3.498-1.0857 0.84852-2.6541 0.65581-3.5024-0.4288-0.84934-1.0846-0.65544-2.6515 0.43022-3.499s2.6541-0.65582 3.5024 0.42981zm14.029-13.327c1.0079 0.93832 1.0644 2.5163 0.12321 3.5232-0.93922 1.0059-2.5167 1.0614-3.5246 0.12308-1.0079-0.93932-1.0645-2.5163-0.12321-3.5232 0.93821-1.0069 2.5187-1.0624 3.5246-0.1231zm5.9575-7.6417c1.1008 0.82834 1.32 2.3912 0.49082 3.491-0.82913 1.0998-2.3935 1.3187-3.4943 0.49034-1.1008-0.82834-1.321-2.3912-0.49082-3.491 0.82914-1.0998 2.3935-1.3187 3.4943-0.49034zm5.2405-8.1482c1.1675 0.73047 1.524 2.2671 0.79279 3.4344-0.73119 1.1684-2.2703 1.5225-3.4378 0.79303-1.1685-0.73047-1.525-2.2671-0.79379-3.4344 0.72916-1.1674 2.2683-1.5215 3.4388-0.79302zm4.3982-8.6285c1.2402 0.60334 1.7532 2.0956 1.1493 3.3325-0.60392 1.239-2.0966 1.7515-3.3368 1.1492-1.2382-0.60436-1.7512-2.0956-1.1483-3.3346 0.60394-1.237 2.0976-1.7505 3.3358-1.1472zm3.5953-8.9927c1.2856 0.49338 1.9279 1.9352 1.4351 3.2206-0.49384 1.2834-1.937 1.9261-3.2236 1.4337-1.2866-0.49337-1.9289-1.9352-1.4351-3.2206 0.49285-1.2854 1.936-1.9281 3.2237-1.4337zm2.6742-9.3085c1.3311 0.35615 2.1218 1.7233 1.7643 3.052-0.3565 1.3298-1.7249 2.1198-3.056 1.7626-1.3301-0.35616-2.1208-1.7233-1.7643-3.052 0.35651-1.3298 1.7249-2.1198 3.056-1.7626zm1.7764-9.5184c1.3624 0.2149 2.2905 1.4922 2.0754 2.8523-0.21714 1.359-1.4937 2.2873-2.855 2.0714-1.3624-0.21491-2.2905-1.4922-2.0754-2.8503 0.21714-1.3611 1.4937-2.2893 2.855-2.0734zm0.96043-9.6344c1.3735 0.12006 2.3884 1.3288 2.2683 2.701-0.12018 1.3722-1.3301 2.3861-2.7025 2.2661-1.3735-0.12007-2.3884-1.3288-2.2683-2.701 0.12018-1.3722 1.3311-2.3862 2.7025-2.2661zm-0.04444-9.6848c1.3775-0.02422 2.5137 1.0725 2.5379 2.4487 0.02424 1.3762-1.0735 2.5123-2.4511 2.5365-1.3775 0.02421-2.5137-1.0725-2.5379-2.4497-0.02424-1.3772 1.0735-2.5123 2.4511-2.5355zm-0.95538-9.6364c1.3684-0.1675 2.6126 0.80512 2.7813 2.1702 0.16765 1.3661-0.8049 2.6102-2.1713 2.7776-1.3684 0.16849-2.6127-0.80413-2.7813-2.1692-0.16865-1.3661 0.8039-2.6111 2.1713-2.7786zm-1.8663-9.4992c1.3422-0.30975 2.6823 0.52666 2.9924 1.8696 0.31005 1.3409-0.52616 2.6798-1.8704 2.9895-1.3422 0.30975-2.6823-0.52566-2.9924-1.8686-0.31005-1.3409 0.52718-2.6798 1.8704-2.9905zm-2.7258-9.2873c1.3099-0.42678 2.7177 0.28957 3.1439 1.6002 0.42517 1.3096-0.29187 2.7141-1.6027 3.1398-1.3099 0.42577-2.7177-0.29058-3.1439-1.6002-0.42517-1.3096 0.29187-2.7151 1.6027-3.1398zm-3.6438-8.9715c1.2594-0.55997 2.7338 0.00505 3.2943 1.2632 0.56051 1.2572-0.00505 2.7312-1.2644 3.2912-1.2584 0.56097-2.7339-0.00605-3.2944-1.2632-0.5605-1.2572 0.00606-2.7312 1.2644-3.2912zm-4.4426-8.6013c1.2048-0.66792 2.7238-0.23206 3.3913 0.97161 0.66856 1.2027 0.23228 2.7201-0.97255 3.388-1.2048 0.66691-2.7238 0.23206-3.3913-0.97262-0.66857-1.2037-0.23329-2.7211 0.97255-3.387zm-5.2778-8.12c1.1281-0.789 2.6834-0.51557 3.4741 0.61242 0.79077 1.127 0.51607 2.6818-0.612 3.4718-1.1291 0.78798-2.6844 0.51556-3.4751-0.61243-0.78976-1.128-0.51606-2.6818 0.61302-3.4718zm-5.9545-7.6357c1.0715-0.86669 2.6419-0.70223 3.5095 0.36725s0.7019 2.6394-0.36862 3.5071c-1.0715 0.86567-2.6419 0.70121-3.5105-0.36928-0.86652-1.0695-0.7019-2.6404 0.36962-3.5051zm-6.6867-7.0132c0.99073-0.95648 2.5712-0.92924 3.5276 0.061547 0.9574 0.98977 0.93013 2.5678-0.0616 3.5242-0.99174 0.95648-2.5702 0.92924-3.5276-0.061547-0.95741-0.99078-0.93014-2.5678 0.0616-3.5242zm-7.3492-6.318c0.88672-1.0544 2.4602-1.1926 3.5145-0.30773 1.0544 0.88485 1.1937 2.4578 0.30802 3.5111-0.8867 1.0554-2.4602 1.1926-3.5145 0.30772-1.0544-0.88484-1.1937-2.4568-0.30803-3.5111z" fill="none" stroke="#000" stroke-miterlimit="3.864" stroke-width="1.002"/><path d="m46.826 153.72c-1.3785 0.02422-2.5147-1.0725-2.5389-2.4487-0.024241-1.3772 1.0735-2.5123 2.4511-2.5365 1.3785-0.0232 2.5147 1.0725 2.5389 2.4487 0.023221 1.3782-1.0735 2.5133-2.4511 2.5365zm0.95438 9.6354c-1.3674 0.16748-2.6127-0.80412-2.7803-2.1692-0.16865-1.3661 0.80491-2.6101 2.1723-2.7776 1.3674-0.16849 2.6126 0.80311 2.7803 2.1692 0.16766 1.3661-0.8049 2.6111-2.1723 2.7776zm1.8673 9.4992c-1.3432 0.31076-2.6823-0.52566-2.9924-1.8686-0.31005-1.3409 0.52717-2.6798 1.8694-2.9895 1.3432-0.30974 2.6823 0.52567 2.9924 1.8686 0.31004 1.3409-0.52718 2.6798-1.8694 2.9895zm2.7258 9.2883c-1.3109 0.42678-2.7177-0.28957-3.1439-1.6002-0.42618-1.3096 0.29086-2.7151 1.6017-3.1398 1.3109-0.42679 2.7177 0.29058 3.1439 1.6002 0.42619 1.3096-0.29086 2.7151-1.6017 3.1398zm3.6428 8.9715c-1.2583 0.55996-2.7338-0.00607-3.2943-1.2632-0.5605-1.2582 0.006057-2.7312 1.2644-3.2922 1.2594-0.55996 2.7338 0.00706 3.2943 1.2632 0.56051 1.2582-0.006057 2.7312-1.2644 3.2922zm4.4436 8.6012c-1.2058 0.66792-2.7237 0.23206-3.3923-0.97161-0.66756-1.2027-0.23228-2.7201 0.97255-3.388 1.2058-0.66691 2.7237-0.23206 3.3923 0.97262 0.66756 1.2027 0.23228 2.7211-0.97255 3.387zm5.2768 8.119c-1.1281 0.789-2.6844 0.51557-3.4741-0.61243-0.79077-1.128-0.51607-2.6818 0.61201-3.4718 1.1291-0.78799 2.6844-0.51558 3.4751 0.61243 0.79076 1.129 0.51607 2.6828-0.61302 3.4718zm5.9555 7.6367c-1.0715 0.86669-2.6419 0.70121-3.5095-0.36827-0.86752-1.0695-0.70189-2.6394 0.36863-3.5061 1.0715-0.86566 2.6419-0.70121 3.5095 0.36828 0.86751 1.0715 0.70189 2.6404-0.36863 3.5061zm6.6856 7.0132c-0.99072 0.95649-2.5702 0.92924-3.5276-0.06154-0.95741-0.99078-0.92913-2.5688 0.061606-3.5242 0.99173-0.95647 2.5712-0.92923 3.5276 0.06155 0.95741 0.99079 0.93014 2.5688-0.061606 3.5242zm7.3502 6.319c-0.88569 1.0544-2.4592 1.1916-3.5145 0.30671-1.0564-0.88484-1.1937-2.4568-0.30803-3.5111 0.88569-1.0554 2.4591-1.1926 3.5155-0.30772 1.0554 0.88484 1.1927 2.4558 0.30702 3.5121zm16.303 10.439c-0.66755 1.2047-2.1865 1.6395-3.3913 0.97161-1.2058-0.66692-1.6411-2.1844-0.97255-3.388 0.66755-1.2047 2.1865-1.6395 3.3913-0.97161 1.2058 0.66792 1.6411 2.1854 0.97255 3.388zm8.8337 3.9873c-0.53828 1.2672-2.0037 1.8585-3.2721 1.3207-1.2684-0.53777-1.8603-2.0017-1.322-3.269 0.5393-1.2672 2.0037-1.8585 3.2721-1.3207 1.2685 0.53777 1.8603 2.0018 1.322 3.269zm9.1589 3.161c-0.42517 1.3096-1.833 2.026-3.1439 1.6012-1.3099-0.42577-2.0269-1.8322-1.6017-3.1418 0.4262-1.3086 1.834-2.025 3.1439-1.6002 1.3109 0.42577 2.0279 1.8322 1.6017 3.1408zm9.4316 2.2318c-0.28581 1.3469-1.6108 2.2056-2.9591 1.92-1.3472-0.28655-2.2077-1.6103-1.9219-2.9562 0.28682-1.3469 1.6118-2.2066 2.9601-1.92 1.3472 0.28453 2.2077 1.6083 1.9209 2.9562zm9.5993 1.3258c-0.14442 1.3691-1.3725 2.363-2.7429 2.2187-1.3705-0.14429-2.3642-1.3702-2.2198-2.7393 0.14341-1.3691 1.3715-2.363 2.7419-2.2187s2.3642 1.3691 2.2208 2.7393zm9.677 0.50044c-0.04847 1.3762-1.2028 2.4527-2.5813 2.4043-1.3765-0.04844-2.4541-1.2027-2.4056-2.5779 0.04746-1.3762 1.2018-2.4527 2.5803-2.4043 1.3765 0.04843 2.4541 1.2037 2.4066 2.5778zm9.6801-0.49943c0.09796 1.3732-0.94024 2.5647-2.3147 2.6606-1.3735 0.09586-2.5662-0.93932-2.6632-2.3125-0.09594-1.3742 0.94023-2.5647 2.3158-2.6606 1.3745-0.09686 2.5662 0.93832 2.6621 2.3125zm9.5871-1.4166c0.23935 1.355-0.66655 2.6485-2.0239 2.8876-1.3573 0.23911-2.651-0.66591-2.8904-2.0219-0.23834-1.356 0.66654-2.6485 2.0249-2.8876 1.3563-0.23811 2.651 0.66692 2.8894 2.0219zm9.4165-2.2822c0.35751 1.3298-0.43326 2.6969-1.7643 3.0531-1.3311 0.35616-2.6985-0.43283-3.054-1.7626-0.35751-1.3298 0.43325-2.6969 1.7633-3.0531s2.6995 0.43182 3.055 1.7626z" fill="none" stroke="#000" stroke-miterlimit="3.864" stroke-width="1.002"/><path d="m46.78 144.04c-1.3725-0.12006-2.3885-1.3298-2.2683-2.7009 0.12018-1.3712 1.3301-2.3862 2.7035-2.2661 1.3725 0.12006 2.3874 1.3288 2.2673 2.7009-0.11917 1.3712-1.3301 2.3862-2.7025 2.2661zm0 0c-1.3725-0.12006-2.3885-1.3298-2.2683-2.7009 0.12018-1.3712 1.3301-2.3862 2.7035-2.2661 1.3725 0.12006 2.3874 1.3288 2.2673 2.7009-0.11917 1.3712-1.3301 2.3862-2.7025 2.2661z" fill="none" stroke="#000" stroke-miterlimit="3.864" stroke-width=".859"/><rect transform="rotate(-90)" x="-229.73" y="69.634" width="4.9105" height="161.35" fill="#fdb827"/><rect transform="rotate(-90)" x="-229.73" y="69.634" width="4.9105" height="161.35" fill="none" stroke="#000" stroke-miterlimit="3.864" stroke-width="1.288"/><rect transform="rotate(-90)" x="-234.94" y="62.695" width="5.2001" height="175.23" fill="#fdb827"/><rect transform="rotate(-90)" x="-234.94" y="62.695" width="5.2001" height="175.23" fill="none" stroke="#000" stroke-miterlimit="3.864" stroke-width="1.288"/><path d="m91.049 129.38c-0.008077-0.06154-0.022222-0.1241-0.022222-0.18766 0-0.89796 0.84227-1.6244 1.8795-1.6244 1.0382 0 1.8795 0.72745 1.8795 1.6244 0 0.04843-0.002019 0.09686-0.007067 0.14428m53.523 0.04338c-0.00808-0.06154-0.02122-0.1241-0.02122-0.18766 0-0.89796 0.84127-1.6244 1.8784-1.6244 1.0382 0 1.8795 0.72745 1.8795 1.6244 0 0.04843-0.00202 0.09686-0.00707 0.14428m53.899 0.04338c-0.00909-0.06154-0.02121-0.1241-0.02121-0.18766 0-0.89796 0.84126-1.6244 1.8794-1.6244 1.0382 0 1.8784 0.72745 1.8784 1.6244 0 0.04843-0.00303 0.09686-0.00707 0.14428" fill="none" stroke="#000" stroke-miterlimit="3.864" stroke-width=".716"/><rect transform="rotate(-90)" x="-110.58" y="74.406" width="3.3214" height="150.65" fill="none" stroke="#000" stroke-miterlimit="3.864" stroke-width="1.288"/><path d="m82.501 116.86h134.75c0.47869 0 0.8665 0.38844 0.8665 0.86668v0.28856c0 0.47825-0.38882 0.86669-0.8665 0.86669h-134.75c-0.47869 0-0.86751-0.38946-0.86751-0.86669v-0.28856c0-0.47824 0.38882-0.86668 0.86751-0.86668z" fill="none" stroke="#000" stroke-miterlimit="3.864" stroke-width="1.145"/><path d="m202.91 129.36h9.7164c0.79783 0 1.4452 0.46915 1.4452 1.0473 0 0.57712-0.64736 1.0473-1.4452 1.0473h-9.7164c-0.79784 0-1.4462-0.47016-1.4462-1.0473 0.00101-0.57813 0.64837-1.0473 1.4462-1.0473zm12.463 63.119-2.6026-61.098m-12 60.666 1.8794-60.665m13.084 66.73v23.327m-15.831 0.28957v-23.543m3.7589 18.922v-13.577h8.458v13.577h-8.458zm-2.8722-24.801h14.01c0.99477 0 1.8017 0.63665 1.8017 1.4226 0 0.78496-0.80692 1.4226-1.8017 1.4226h-14.01c-0.99375 0-1.8007-0.63766-1.8007-1.4226 0-0.78697 0.80592-1.4226 1.8007-1.4226zm-0.815 2.8452h16.049c1.118 0 2.0249 0.67902 2.0249 1.5174 0 0.83742-0.9059 1.5164-2.0249 1.5164h-16.049c-1.118 0-2.0239-0.67902-2.0239-1.5164 0-0.83843 0.90589-1.5174 2.0239-1.5174zm-54.462-65.791h9.7154c0.79784 0 1.4452 0.46915 1.4452 1.0473 0 0.57712-0.64736 1.0473-1.4452 1.0473h-9.7154c-0.79885 0-1.4472-0.47016-1.4472-1.0473 0.00101-0.57813 0.64837-1.0473 1.4472-1.0473zm12.462 63.119-2.6026-61.098m-12 60.666 1.8795-60.665m13.085 66.73v23.327m-15.832 0.28957v-23.543m-3.5569 26.504v-3.0329h22.554v3.0329h-22.554zm7.3158-7.5822v-13.577h8.4581v13.577h-8.4581zm-2.8712-24.801h14.009c0.99578 0 1.8027 0.63665 1.8027 1.4226 0 0.78496-0.80693 1.4226-1.8027 1.4226h-14.009c-0.99578 0-1.8027-0.63766-1.8027-1.4226 0-0.78697 0.80692-1.4226 1.8027-1.4226zm-0.81601 2.8452h16.049c1.118 0 2.0239 0.67902 2.0239 1.5174 0 0.83742-0.90487 1.5164-2.0239 1.5164h-16.049c-1.117 0-2.0239-0.67902-2.0239-1.5164 0-0.83843 0.90691-1.5174 2.0239-1.5174zm-54.462-65.791h9.7154c0.79884 0 1.4462 0.46915 1.4462 1.0473 0 0.57712-0.64736 1.0473-1.4462 1.0473h-9.7154c-0.79884 0-1.4462-0.47016-1.4462-1.0473 0-0.57813 0.64736-1.0473 1.4462-1.0473zm12.462 63.119-2.6026-61.098m-12 60.666 1.8795-60.665m13.084 66.73v23.327m-15.831 0.28957v-23.543m-3.5418 26.504v-3.0329h22.554v3.0329h-22.554zm7.3017-7.5822v-13.577h8.4581v13.577h-8.4581zm-2.8722-24.801h14.009c0.99577 0 1.8027 0.63665 1.8027 1.4226 0 0.78496-0.80693 1.4226-1.8027 1.4226h-14.009c-0.99578 0-1.8027-0.63766-1.8027-1.4226 0-0.78697 0.80692-1.4226 1.8027-1.4226zm-0.815 2.8452h16.048c1.118 0 2.0249 0.67902 2.0249 1.5174 0 0.83742-0.9069 1.5164-2.0249 1.5164h-16.048c-1.118 0-2.0239-0.67902-2.0239-1.5164 0-0.83843 0.90589-1.5174 2.0239-1.5174z" fill="none" stroke="#000" stroke-miterlimit="3.864" stroke-width="1.145"/><rect transform="rotate(-90)" x="-224.69" y="196.72" width="3.0329" height="22.554" fill="#fdb827"/><rect transform="rotate(-90)" x="-224.69" y="196.72" width="3.0329" height="22.554" fill="none" stroke="#000" stroke-miterlimit="3.864" stroke-width="1.145"/><path d="m95.792 127.57s0 0.55391 0.4989 0.53172c0.4979-0.0222 0.56354-0.24417 0.58474-0.46513 0.022222-0.22297-0.021201-2.6586 0.23835-3.4122 0.26056-0.75368 0.73622-1.9533 1.6472-2.4164 1.7754-0.89998 4.2255 0.30369 0.76956 1.7949-0.9271 0.39954-1.3331 1.0301-1.5492 1.2965-0.21712 0.26535-0.42315 0.68709-0.47667 0.95143-0.054539 0.26738-0.22824 0.70929-0.29288 1.0644-0.034337 0.18666-0.21714 1.1623 0.38983 1.1966 0.60695 0.0343 0.54232-0.19977 0.56353-0.32085 0.022221-0.12107-0.24945-1.0533-0.011106-1.5628 0.23935-0.50952 0.44436-0.89695 0.72613-1.13 0.28278-0.23105 1.9461-0.82329 2.2652-0.98573 0.42215-0.21289 3.1459-1.3611 0.87863-3.3901-0.47164-0.42174-1.8391-0.97262-2.9379-0.48631-0.80187 0.35414-2.0158 1.2844-2.4925 2.371-0.49284 1.122-0.54233 1.3288-0.71502 2.3932-0.12826 0.78597-0.13028 2.5476-0.13028 2.5476l0.043423 0.02219z"/><path d="m94.503 127.22c-0.54232-0.80514-1.2412-1.6012-1.3997-2.4648-0.12119-1.129-0.020193-2.0633 0.30399-2.8018 0.33327-0.82834 0.84327-1.35 1.528-1.5628 0.56353-0.10392 0.98265 0.05953 1.2573 0.48732 0.15755 0.25728 0.1828 0.5075 0.07575 0.75368-0.087865 0.15538-0.23633 0.25929-0.44437 0.30975-0.16159 0.00806-0.30196-0.06256-0.42214-0.21088-0.37266 0.18868-0.80995 0.59024-1.0513 1.2753-0.21007 0.61849-0.17371 1.2289-0.1525 1.7616 0.072712 0.62756 0.33731 1.1008 0.56555 1.461l0.36863 0.84852c0.010096 0.11099-0.043433 0.22298-0.1626 0.33194-0.18583 0.03935-0.34136-0.0232-0.46659-0.18867z"/><path d="m91.208 127.26c0.54232-0.80615 0.89276-1.6406 1.0513-2.5042 0.12119-1.129 0.020202-2.0633-0.30398-2.8018-0.33328-0.82834-0.84227-1.35-1.528-1.5628-0.56354-0.10392-0.98266 0.05953-1.2573 0.48732-0.15755 0.25728-0.1828 0.5075-0.075741 0.75368 0.087856 0.15538 0.23632 0.25929 0.44436 0.30975 0.16159 0.00806 0.30298-0.06256 0.42316-0.21088 0.37266 0.18868 0.80894 0.59024 1.0513 1.2753 0.20905 0.61849 0.17269 1.2289 0.15148 1.7616-0.071702 0.62756-0.18077 1.1522-0.32519 1.573l-0.26056 0.77586c-0.010096 0.11099 0.044442 0.22298 0.1626 0.33195 0.18684 0.03834 0.34136-0.0232 0.46659-0.18867z"/><path d="m89.587 127.57s0 0.55391-0.4979 0.53172c-0.4989-0.0222-0.56353-0.24417-0.58575-0.46513-0.021202-0.22297 0.022221-2.6586-0.23834-3.4122-0.25955-0.75368-0.73522-1.9533-1.6472-2.4164-1.7754-0.89998-4.2255 0.30369-0.76955 1.7949 0.92811 0.39954 1.3331 1.0301 1.5502 1.2965 0.21612 0.26535 0.42214 0.68709 0.47668 0.95143 0.05353 0.26738 0.22723 0.70929 0.29288 1.0644 0.033327 0.18666 0.21613 1.1623-0.39084 1.1966-0.60696 0.03329-0.54132-0.19977-0.56353-0.32085-0.021212-0.12107 0.24944-1.0533 0.011105-1.5628-0.23834-0.50952-0.44437-0.89695-0.72613-1.13-0.28177-0.23105-1.9451-0.82329-2.2652-0.98573-0.42214-0.21289-3.1459-1.3611-0.87762-3.3901 0.47163-0.42174 1.838-0.97262 2.9368-0.48631 0.80188 0.35414 2.0158 1.2844 2.4925 2.371 0.49284 1.122 0.54233 1.3288 0.71603 2.3932 0.12826 0.78597 0.12927 2.5476 0.12927 2.5476l-0.043423 0.02219z"/><path d="m153.28 127.57s0 0.55391 0.4979 0.53172c0.49889-0.0222 0.56454-0.24417 0.58575-0.46513 0.0212-0.22297-0.02121-2.6586 0.23834-3.4122 0.25955-0.75368 0.73522-1.9533 1.6472-2.4164 1.7754-0.89998 4.2255 0.30369 0.76956 1.7949-0.92811 0.39954-1.3321 1.0301-1.5502 1.2965-0.21613 0.26535-0.42215 0.68709-0.47669 0.95143-0.05352 0.26738-0.22723 0.70929-0.29287 1.0644-0.03333 0.18666-0.21613 1.1623 0.39084 1.1966 0.60797 0.03329 0.54131-0.19977 0.56454-0.32085 0.02121-0.12107-0.24945-1.0533-0.01111-1.5628 0.23733-0.50952 0.44336-0.89695 0.72614-1.13 0.28075-0.23105 1.9451-0.82329 2.2652-0.98573 0.42215-0.21289 3.1449-1.3611 0.87661-3.3901-0.47163-0.42174-1.837-0.97262-2.9358-0.48631-0.80188 0.35414-2.0158 1.2844-2.4935 2.371-0.49183 1.122-0.54132 1.3288-0.71603 2.3932-0.12826 0.78597-0.12927 2.5476-0.12927 2.5476l0.04342 0.02219z"/><path d="m151.99 127.22c-0.54233-0.80514-1.2412-1.6012-1.4008-2.4648-0.12118-1.129-0.02019-2.0633 0.305-2.8018 0.33327-0.82834 0.84228-1.35 1.528-1.5628 0.56353-0.10392 0.98264 0.05953 1.2574 0.48732 0.15754 0.25728 0.18278 0.5075 0.07574 0.75368-0.08787 0.15538-0.23632 0.25929-0.44437 0.30975-0.16159 0.00806-0.30297-0.06256-0.42315-0.21088-0.37266 0.18868-0.80895 0.59024-1.0513 1.2753-0.20906 0.61849-0.1727 1.2289-0.15149 1.7616 0.0717 0.62756 0.33832 1.1008 0.56555 1.461l0.36862 0.84852c0.01111 0.11099-0.04342 0.22298-0.1626 0.33194-0.18683 0.03935-0.34236-0.0232-0.46657-0.18867z"/><path d="m148.69 127.26c0.54334-0.80615 0.89479-1.6406 1.0513-2.5042 0.12221-1.129 0.02121-2.0633-0.30297-2.8018-0.33327-0.82834-0.84328-1.35-1.528-1.5628-0.56353-0.10392-0.98265 0.05953-1.2574 0.48732-0.15755 0.25728-0.18279 0.5075-0.07574 0.75368 0.08786 0.15538 0.23632 0.25929 0.44437 0.30975 0.16158 0.00806 0.30196-0.06256 0.42214-0.21088 0.37265 0.18868 0.80995 0.59024 1.0513 1.2753 0.21007 0.61849 0.1737 1.2289 0.15149 1.7616-0.0717 0.62756-0.18078 1.1522-0.32418 1.573l-0.26157 0.77586c-0.01011 0.11099 0.04443 0.22298 0.1626 0.33195 0.18682 0.03834 0.34235-0.0232 0.46657-0.18867z"/><path d="m147.07 127.57s0 0.55391-0.4989 0.53172c-0.49789-0.0222-0.56354-0.24417-0.58474-0.46513-0.02121-0.22297 0.0212-2.6586-0.23835-3.4122-0.25955-0.75368-0.73622-1.9533-1.6482-2.4164-1.7744-0.89998-4.2245 0.30369-0.76855 1.7949 0.92709 0.39954 1.3331 1.0301 1.5492 1.2965 0.21713 0.26535 0.42316 0.68709 0.47668 0.95143 0.05554 0.26738 0.22925 0.70929 0.29287 1.0644 0.03434 0.18666 0.21714 1.1623-0.38983 1.1966-0.60796 0.03329-0.54232-0.19977-0.56353-0.32085-0.02222-0.12107 0.24845-1.0533 0.0101-1.5628-0.23834-0.50952-0.44436-0.89695-0.72714-1.13-0.28076-0.23105-1.9441-0.82329-2.2652-0.98573-0.42114-0.21289-3.1449-1.3611-0.87762-3.3901 0.47164-0.42174 1.8391-0.97262 2.9378-0.48631 0.80187 0.35414 2.0158 1.2844 2.4925 2.371 0.49285 1.122 0.54132 1.3288 0.71502 2.3932 0.12826 0.78597 0.13028 2.5476 0.13028 2.5476l-0.04241 0.02219z"/><path d="m210.76 127.57s0 0.55391 0.4989 0.53172c0.49889-0.0222 0.56454-0.24417 0.58474-0.46513 0.02222-0.22297-0.02121-2.6586 0.23834-3.4122 0.26055-0.75368 0.73623-1.9533 1.6482-2.4164 1.7744-0.89998 4.2245 0.30369 0.76956 1.7949-0.92812 0.39954-1.3321 1.0301-1.5502 1.2965-0.21714 0.26535-0.42316 0.68709-0.47669 0.95143-0.05453 0.26738-0.22824 0.70929-0.29287 1.0644-0.03434 0.18666-0.21713 1.1623 0.38983 1.1966 0.60797 0.03329 0.54232-0.19977 0.56455-0.32085 0.02221-0.12107-0.24845-1.0533-0.0101-1.5628 0.23733-0.50952 0.44335-0.89695 0.72613-1.13 0.28177-0.23105 1.9451-0.82329 2.2652-0.98573 0.42215-0.21289 3.1449-1.3611 0.87762-3.3901-0.47265-0.42174-1.8391-0.97262-2.9368-0.48631-0.80187 0.35414-2.0158 1.2844-2.4945 2.371-0.49082 1.122-0.5403 1.3288-0.71401 2.3932-0.12927 0.78597-0.13129 2.5476-0.13129 2.5476l0.04343 0.02219z"/><path d="m209.47 127.22c-0.54334-0.80514-1.2422-1.6012-1.3998-2.4648-0.1222-1.129-0.02121-2.0633 0.30297-2.8018 0.33327-0.82834 0.84328-1.35 1.528-1.5628 0.56354-0.10392 0.98265 0.05953 1.2574 0.48732 0.15754 0.25728 0.18279 0.5075 0.07574 0.75368-0.08786 0.15538-0.23531 0.25929-0.44436 0.30975-0.16159 0.00806-0.30197-0.06256-0.42215-0.21088-0.37266 0.18868-0.80995 0.59024-1.0513 1.2753-0.20905 0.61849-0.17371 1.2289-0.15048 1.7616 0.0707 0.62756 0.33731 1.1008 0.56454 1.461l0.36862 0.84852c0.01112 0.11099-0.04342 0.22298-0.1626 0.33194-0.18581 0.03935-0.34235-0.0232-0.46657-0.18867z"/><path d="m206.18 127.26c0.54132-0.80615 0.89277-1.6406 1.0513-2.5042 0.12119-1.129 0.0212-2.0633-0.30399-2.8018-0.33428-0.82834-0.84328-1.35-1.529-1.5628-0.56353-0.10392-0.98265 0.05953-1.2573 0.48732-0.15654 0.25728-0.18179 0.5075-0.07575 0.75368 0.08887 0.15538 0.23633 0.25929 0.44436 0.30975 0.16159 0.00806 0.30298-0.06256 0.42316-0.21088 0.37265 0.18868 0.80995 0.59024 1.0513 1.2753 0.20906 0.61849 0.1727 1.2289 0.15048 1.7616-0.07069 0.62756-0.17977 1.1522-0.32418 1.573l-0.25955 0.77586c-0.01212 0.11099 0.04342 0.22298 0.16159 0.33195 0.18683 0.03834 0.34337-0.0232 0.46758-0.18867z"/><path d="m204.56 127.57s0 0.55391-0.4989 0.53172c-0.49889-0.0222-0.56353-0.24417-0.58575-0.46513-0.02121-0.22297 0.02222-2.6586-0.23733-3.4122-0.25955-0.75368-0.73623-1.9533-1.6482-2.4164-1.7754-0.89998-4.2245 0.30369-0.76956 1.7949 0.92811 0.39954 1.3331 1.0301 1.5502 1.2965 0.21613 0.26535 0.42215 0.68709 0.47668 0.95143 0.05554 0.26738 0.22825 0.70929 0.29288 1.0644 0.03434 0.18666 0.21612 1.1623-0.39084 1.1966-0.60696 0.0343-0.54132-0.19977-0.56354-0.32085-0.02221-0.12107 0.24845-1.0533 0.01112-1.5628-0.23835-0.50952-0.44437-0.89695-0.72614-1.13-0.28176-0.23105-1.9461-0.82329-2.2652-0.98573-0.42215-0.21289-3.1459-1.3611-0.87762-3.3901 0.47164-0.42174 1.838-0.97262 2.9368-0.48631 0.80188 0.35414 2.0158 1.2844 2.4925 2.371 0.49284 1.122 0.54232 1.3288 0.71603 2.3932 0.12826 0.78597 0.13028 2.5476 0.13028 2.5476l-0.04343 0.02219z"/><path d="m53.586 180.99c-3.8316-2.7443-7.8794-2.0219-7.8794-2.0219s2.9247-3.8834 7.5895-1.9513c2.9641 1.2289 5.4939 5.7782 13.013 1.012 7.5178-4.7673 9.976-8.233 17.06-9.3892 7.0846-1.1552 12.145-2.7443 13.735-3.3224 1.5906-0.57712 4.0791-1.4832 5.3495-9.0997 0.28884-1.7344 7.229 14.443 7.229 14.443s-1.0119 5.3444-7.6622 8.3783c-6.6513 3.0339-18.174 4.848-24.578 9.9664-2.1693 1.7334-6.3362 4.7299-8.856 8.4136-5.9272 8.6668-12.108 9.6415-12.108 9.6415s5.604-4.8914 7.1563-11.483c0.28985-1.2279-0.1828-6.7498 2.0239-8.9554-2.344 2.3418-8.2783-2.2721-7.5178-1.6607 0 0-0.72311-1.2279-4.5537-3.9712z" fill="#fdb827" fill-rule="evenodd"/><path d="m53.586 180.99c-3.8316-2.7443-7.8794-2.0219-7.8794-2.0219s2.9247-3.8834 7.5895-1.9513c2.9641 1.2289 5.4939 5.7782 13.013 1.012 7.5178-4.7673 9.976-8.233 17.06-9.3892 7.0846-1.1552 12.145-2.7443 13.735-3.3224 1.5906-0.57712 4.0791-1.4832 5.3495-9.0997 0.28884-1.7344 7.229 14.443 7.229 14.443s-1.0119 5.3444-7.6622 8.3783c-6.6513 3.0339-18.174 4.848-24.578 9.9664-2.1693 1.7334-6.3362 4.7299-8.856 8.4136-5.9272 8.6668-12.108 9.6415-12.108 9.6415s5.604-4.8914 7.1563-11.483c0.28985-1.2279-0.1828-6.7498 2.0239-8.9554-2.344 2.3418-8.2783-2.2721-7.5178-1.6607 0 0-0.72311-1.2279-4.5537-3.9712z" fill="none" stroke="#000" stroke-miterlimit="3.864" stroke-width="1.002"/><path d="m197.08 156.58s1.1574 6.5733 14.096 9.8957c12.94 3.3214 14.964 7.5096 17.062 8.5205 2.0956 1.011 7.8056 5.5613 13.373 2.9623 5.5657-2.6 9.9032-2.7443 11.348-1.8776 1.4462 0.86667 0.36155-1.0836-4.1922 3.7553-4.5537 4.8389-5.9272 5.8509-7.5178 6.6449-3.4741 1.7354-3.7417 1.9452-6.217 2.0936 0 0 2.3137 2.8886 2.6743 7.5842 0.36054 4.6926 6.6513 9.4599 6.6513 9.4599s-8.3853-2.1662-12.073-7.1494c-3.6862-4.9832-9.7588-9.2439-12-10.328-2.241-1.0826-13.663-4.9822-16.05-5.9215-2.3844-0.93933-9.8295-4.8389-10.841-11.121-1.014-6.2867 3.6852-14.52 3.6852-14.52z" fill="#fdb827"/><path d="m197.08 156.58s1.1574 6.5733 14.096 9.8957c12.94 3.3214 14.964 7.5096 17.062 8.5205 2.0956 1.011 7.8056 5.5613 13.373 2.9623 5.5657-2.6 9.9032-2.7443 11.348-1.8776 1.4462 0.86667 0.36155-1.0836-4.1922 3.7553-4.5537 4.8389-5.9272 5.8509-7.5178 6.6449-3.4741 1.7354-3.7417 1.9452-6.217 2.0936 0 0 2.3137 2.8886 2.6743 7.5842 0.36054 4.6926 6.6513 9.4599 6.6513 9.4599s-8.3853-2.1662-12.073-7.1494c-3.6862-4.9832-9.7588-9.2439-12-10.328-2.241-1.0826-13.663-4.9822-16.05-5.9215-2.3844-0.93933-9.8295-4.8389-10.841-11.121-1.014-6.2867 3.6852-14.52 3.6852-14.52z" fill="none" stroke="#000" stroke-miterlimit="3.864" stroke-width="1.002"/><path d="m208.25 154.27c1.6219 0.4167 4.3942 1.7566 6.0272 2.9259 7.9571 5.6945 6.625 10.304 4.4184 10.434-2.4581 0.14529 15.47 0 17.638-1.1552 2.1693-1.1562 2.8924-2.4568 1.5906-5.2001-1.3008-2.7443-11.132-19.499-27.181-22.677-16.048-3.1772-22.407 3.5646-21.036 5.8498 1.3008 2.1652 7.229 9.3882 7.4451 12.348 1.6472-3.0965 5.3495-3.9793 11.097-2.5264z" fill="#fdb827"/><path d="m208.25 154.27c1.6219 0.4167 4.3942 1.7566 6.0272 2.9259 7.9571 5.6945 6.625 10.304 4.4184 10.434-2.4581 0.14529 15.47 0 17.638-1.1552 2.1693-1.1562 2.8924-2.4568 1.5906-5.2001-1.3008-2.7443-11.132-19.499-27.181-22.677-16.048-3.1772-22.407 3.5646-21.036 5.8498 1.3008 2.1652 7.229 9.3882 7.4451 12.348 1.6472-3.0965 5.3495-3.9793 11.097-2.5264z" fill="none" stroke="#000" stroke-miterlimit="3.864" stroke-width="1.002"/><path d="m72.499 161.75c-8.7832-3.4294-6.3322-5.5764-6.3322-5.5764 1.9461-3.1338 7.1512-9.8614 17.852-13.966 14.314-5.4876 28.916-3.0329 25.013 3.3224-2.3733 3.8633-6.4705 10.616-6.4705 10.616s-1.6987-4.5503-9.5053-1.6617c-7.8077 2.8896-12.115 5.1174-12.579 6.6459-0.7231 2.3821-0.43325 3.8986 5.2051 3.0329-3.6872 1.2279-7.7945-0.05447-12.406-2.0976l-0.77764-0.31581z" fill="#fdb827"/><path d="m72.499 161.75c-8.7832-3.4294-6.3322-5.5764-6.3322-5.5764 1.9461-3.1338 7.1512-9.8614 17.852-13.966 14.314-5.4876 28.916-3.0329 25.013 3.3224-2.3733 3.8633-6.4705 10.616-6.4705 10.616s-1.6987-4.5503-9.5053-1.6617c-7.8077 2.8896-12.115 5.1174-12.579 6.6459-0.7231 2.3821-0.43325 3.8986 5.2051 3.0329-3.6872 1.2279-7.7945-0.05447-12.406-2.0976l-0.77764-0.31581z" fill="none" stroke="#000" stroke-miterlimit="3.864" stroke-width="1.002"/><path d="m112 118.81s12.415 21.236 37.662 20.944c24.94-0.28856 37.663-20.221 37.663-20.221l6.6503 9.8221s2.4592 3.3224-2.3117 7.5096c-16.856 14.798-30.208 17.706-42.001 17.621-17.417-0.94842-31.465-6.8235-42.143-17.621-1.9209-1.5911-2.3137-3.6816-1.735-5.415l6.216-12.639z" fill="#fdb827"/><path d="m112 118.81s12.415 21.236 37.662 20.944c24.94-0.28856 37.663-20.221 37.663-20.221l6.6503 9.8221s2.4592 3.3224-2.3117 7.5096c-16.856 14.798-30.208 17.706-42.001 17.621-17.417-0.94842-31.465-6.8235-42.143-17.621-1.9209-1.5911-2.3137-3.6816-1.735-5.415l6.216-12.639z" fill="none" stroke="#000" stroke-linejoin="round" stroke-miterlimit="3.864" stroke-width="1.002"/><path d="m194.44 130.73c-2.1683-4.6583-6.1443 1.0473-6.1443 1.0473l-1.0008-12.169m-81.771 14.048s-0.75844-4.2971 6.0363-0.83037l0.50598-13.938" fill="none" stroke="#000" stroke-miterlimit="3.864" stroke-width=".859"/><path d="m217.25 116.79s2.1673-5.3444 5.2031-6.3553m-144 0.28856s2.6026 1.1562 4.7708 5.7782" fill="none" stroke="#000" stroke-miterlimit="3.864" stroke-width="1.288"/><line x1="85.385" x2="86.668" y1="164.27" y2="163.82" fill="none" stroke="#000" stroke-miterlimit="3.864" stroke-width="1.002"/><path d="m179.34 164.02c-0.03636-0.23004 0.26359-0.46816 0.67058-0.53172 0.40498-0.06457 0.76552 0.06861 0.80188 0.29966 0.03635 0.22903-0.2646 0.46714-0.67059 0.5307-0.40699 0.06559-0.76551-0.0686-0.80187-0.29864"/><path d="m176.54 163.93c0.0202-0.22096 0.37468-0.37029 0.79279-0.33295 0.4181 0.03632 0.74229 0.24517 0.72309 0.46613-0.01919 0.21995-0.37467 0.36927-0.79177 0.33295-0.4181-0.03834-0.7433-0.24618-0.72411-0.46613"/><path d="m177.29 168.3s1.631 2.2943 4.0376-0.80615" fill="none" stroke="#000" stroke-miterlimit="3.864" stroke-width=".533"/><path d="m176.38 163.21s2.5571-0.1009 1.9522 1.1764c-0.1313 0.27747-0.35751 0.46815-0.46861 0.6649-0.40295 0.70726-0.24541 0.92117 0.22925 0.84247 0.60595-0.10191 0.60999-0.06255 0.60999-0.06255l0.21916 0.00403" fill="none" stroke="#000" stroke-linecap="round" stroke-linejoin="round" stroke-miterlimit="3.864" stroke-width=".429"/><path d="m181.11 163.12c-0.47466-0.14427-1.4937-0.32791-1.9794 0.52162" fill="none" stroke="#000" stroke-linecap="round" stroke-miterlimit="3.864" stroke-width=".429"/><path d="m178.17 166.69c0.49386 0.05651 0.97558 0.04137 1.4462-0.04539" fill="none" stroke="#000" stroke-linecap="round" stroke-miterlimit="3.864" stroke-width=".533"/><line x1="178.5" x2="179.38" y1="167.45" y2="167.41" fill="none" stroke="#000" stroke-miterlimit="3.864" stroke-width=".429"/><path d="m183.9 163.42 1.0483 0.46917c0.47164-0.02725 0.86248-0.26233 1.1745-0.70425-0.26157-0.83036-0.65342-1.582-1.1745-2.256" fill="none" stroke="#000" stroke-linejoin="round" stroke-miterlimit="3.864" stroke-width=".644"/><path d="m169.66 183.22c-0.57869 0.86669-3.4337-0.7779-3.5781 1.6769-0.11109 1.8867 0.25551 3.2286 2.0855 3.4637l1.3472-0.88887 0.36054-0.36019" fill="none" stroke="#000" stroke-linejoin="round" stroke-miterlimit="3.864" stroke-width=".716"/><path d="m183.9 194.37-0.77763 1.6617c-0.15654 0.46916 0.20804 1.0463 0.20804 1.0463l-0.14543 0.52364-0.08988 0.48832 0.26157 0.79304c0.50193 1.3076 1.5139 0.92116 2.6753-0.28755" fill="none" stroke="#000" stroke-linejoin="round" stroke-miterlimit="3.864" stroke-width=".573"/><path d="m168.02 181.41c-0.27975-7.4299 0.32924-15.976 0.65443-26.676-2.3329 3.3769-2.3945 25.012-2.3541 26.686l1.6997-0.00907z" stroke="#000" stroke-miterlimit="3.864" stroke-width=".564"/><path d="m169.82 187.05 0.37973-0.26232 1.5533-0.43385 2.5207-1.011c0.10302 1.2652 0.13635 4.399 0.04545 5.9941-0.09998 1.7556-0.08281 3.5242-0.0101 6.9183 0.07171 3.3941 0.94023 5.416 1.2291 6.6449 0.28884 1.2269 2.3127 12.132 2.6015 14.877 0.28985 2.7443-0.50596 1.4438-3.1792 2.9613-2.6753 1.5164-1.1574 1.7324-1.1574 1.7324h10.626s-0.7231-1.011-0.86752-3.6826c-0.14442-2.6717 1.3735-12.638 1.3735-12.638l1.5179-11.123 0.21712-1.9493s2.1067-2.8029 2.3955-10.025c0.40902-3.3053 0.10704-6.6035-0.10907-9.7494 0 0 0.3161-1.8918-1.7078-3.6968-2.0239-1.806-3.1085-2.0229-3.3974-3.9006-0.03534-0.23004-0.28277-0.30974-0.31609-0.46411" fill="none" stroke="#000" stroke-linejoin="round" stroke-miterlimit="3.864" stroke-width=".859"/><path d="m184.73 176.03c0.43426 7.2937 0.29085 12.72-0.51607 15.441l-0.43427 2.9612-0.01615 0.03128" fill="none" stroke="#000" stroke-miterlimit="3.864" stroke-width=".573"/><path d="m183.93 194.37s1.0735-5.756 3.0621-7.4884c0.1212-0.10695 0.93923 3.0329-0.10906 8.124" fill="none" stroke="#000" stroke-linejoin="round" stroke-miterlimit="3.864" stroke-width=".573"/><path d="m174.51 171.92c4.0013 7.1352 6.2968 10.494 10.345 14.466m-8.6661-15.577c3.2267 5.5028 6.522 9.6425 8.757 12.075" fill="none" stroke="#000" stroke-miterlimit="3.864" stroke-width=".716"/><path d="m179.04 186.81s3.1439 11.519 5.7454 15.419l0.86853 1.8776m-5.9989-19.173s1.735 5.6329 4.3366 7.9444m-4.5901-23.437c0.28884 0 2.4592 1.8776 2.4592 1.8776s0.21612 0.93933 1.1564-0.07164c0.94023-1.011 1.5906-2.3115 1.5906-2.3115" fill="none" stroke="#000" stroke-miterlimit="3.864" stroke-width=".573"/><path d="m179.63 224.41v-0.3612l0.36055-1.1189s0.36155-0.68608 0.53121-0.84549c1.121-1.0422 0.05959-5.1022-0.14543-13.288l-1.0008-13.924" fill="none" stroke="#000" stroke-linecap="round" stroke-miterlimit="3.864" stroke-width=".716"/><path d="m177.17 168.16c-0.02929 0.68609-0.72513 1.9029-1.427 2.5395-0.79481 0.7224-2.447 2.7958-2.1582 5.756 0.2131 2.1773 0.71603 4.5604 0.09796 4.8238-1.6492 0.70627-3.8852 2.0744-3.865 2.0724" fill="none" stroke="#000" stroke-linejoin="round" stroke-miterlimit="3.864" stroke-width=".859"/><path d="m183.92 194.57c0.80288 0.46108 1.7189 0.74964 2.747 0.86668" fill="none" stroke="#000" stroke-miterlimit="3.864" stroke-width=".573"/><path d="m174.25 192.2s5.9625-2.6364 5.9625-11.375" fill="none" stroke="#000" stroke-miterlimit="3.864" stroke-width=".716"/><path d="m183.78 166.91c-4.1922 3.8279-4.689 2.3972-4.689 2.3972 1.4815 0.7224 1.023 5.409 1.3008 7.8718" fill="none" stroke="#000" stroke-linejoin="bevel" stroke-miterlimit="3.864" stroke-width=".716"/><polyline transform="matrix(0 -1.0089 1.0099 0 -226.38 454.59)" points="281.5 398.44 280.46 399.34 282.79 401.63" fill="none" stroke="#000" stroke-miterlimit="3.864" stroke-width=".56765"/><path d="m174.52 201.72s0.36155-2.9613 1.3018-5.3444c0.94023-2.3831 3.2539-9.1007 3.2539-9.1007" fill="none" stroke="#000" stroke-miterlimit="3.864" stroke-width=".716"/><path d="m173.96 180.11c0.01009 0.37532 0.09796 2.029 0.34336 5.5976" fill="none" stroke="#000" stroke-miterlimit="3.864" stroke-width=".859"/><path d="m169.52 182.93s0.89478 2.37 0.02727 4.4646" fill="none" stroke="#000" stroke-linejoin="round" stroke-miterlimit="3.864" stroke-width=".716"/><path d="m184.99 161c-0.9271-1.3893-1.2836-2.3276-3.4378-2.596-2.1532-0.2694-4.7769-0.53777-5.9212-1.0755-1.1452-0.53777-2.1552-1.1088-1.6159 0.37028 0.56254 1.5457 0.37873 4.0247 1.8078 3.7523m0.06766 0.07365c0.14745 0.46411 0.21007 0.96254 0.21007 1.1492 0 0.33599 0 2.3529 0.40295 3.2952 0.3868 0.902 0.72916 2.3428 0.72916 2.3428" fill="none" stroke="#000" stroke-linejoin="round" stroke-miterlimit="3.864" stroke-width=".644"/><path d="m183.46 167.18c-0.21511-1.0281-0.30197-0.68104 0.11109-2.2136 0.47062-1.7445 0.27671-0.64068 0.27571-1.7031" fill="none" stroke="#000" stroke-linejoin="round" stroke-miterlimit="3.864" stroke-width=".573"/><path d="m181.45 162c0.80087-0.69113 1.5755-1.4751 2.3218-2.3539m-3.97 1.8171c0.87661-0.71736 1.7734-1.5931 2.6884-2.6313m-6.723 2.5718c4.272-0.21288 5.1415-0.15235 8.1733 1.9402" fill="none" stroke="#000" stroke-miterlimit="3.864" stroke-width=".533"/><path d="m182.76 164.22s0.03433 1.6194-0.70594 2.1238" fill="none" stroke="#000" stroke-miterlimit="3.864" stroke-width=".429"/><path d="m175.58 204.66c0.85136-0.95748 3.257-0.98674 4.3386-0.10795l0.10806-0.57712c-0.67361 0.02321 4.4366-1.7646 5.096 1.697" fill="none" stroke="#000" stroke-miterlimit="3.864" stroke-width=".573"/><path d="m168.03 181.48 1.0655 0.03431h0.51708s0.30903 0.60234-0.1727 0.81522c-0.48172 0.21189-0.61807 0.2472-0.61807 0.2472l-0.03434 0.76075" fill="none" stroke="#000" stroke-linejoin="round" stroke-miterlimit="3.864" stroke-width=".553"/><path d="m168.85 182.56h-1.8562s-0.98669 0.26333-1.0311 1.0634c-0.06968 1.2733-0.09291 3.0753 0.45648 3.7825l0.55041 0.56603m1.9441-0.06761c-0.58777 0.95547-1.019 1.0372-2.0511 1.129-1.3917 0.1241-2.7843-1.5033-3.1106-3.8572-0.35953-2.601 0.15452-3.7169 3.059-3.7079" fill="none" stroke="#000" stroke-miterlimit="3.864" stroke-width=".553"/><path d="m102.65 107.3c7.8127-18.617 25.919-31.659 47.006-31.659 21.102 0 39.216 13.057 47.022 31.692m-112.7-0.22197c8.661-28.644 34.791-49.455 65.679-49.455 30.91 0 57.053 20.84 65.707 49.512" fill="none" stroke="#000" stroke-linejoin="round" stroke-miterlimit="3.864" stroke-width="1.288"/><path d="m108.07 91.034c-0.00707 0.17052-0.08685 0.43083-0.23834 0.77992-0.14846 0.3511-0.36962 0.72139-0.6625 1.1098-0.73825 0.97867-1.6593 1.5386-2.7621 1.6799-1.1048 0.1352-2.2743-0.26234-3.5084-1.1916l-0.31004-0.23306c-1.1503-0.86467-1.837-1.8736-2.0623-3.0248-0.22218-1.1542 0.024241-2.2045 0.73825-3.1519 0.30803-0.40761 0.58979-0.72845 0.84631-0.96354 0.25349-0.23609 0.47769-0.39954 0.6726-0.48934l1.218 0.91613c-0.18178 0.079702-0.39286 0.2149-0.63321 0.4066-0.23834 0.18968-0.47669 0.44192-0.71604 0.75974-0.44537 0.59023-0.55242 1.236-0.32115 1.9331 0.2343 0.69416 0.77764 1.3641 1.631 2.0048l0.10604 0.079702c0.91298 0.68811 1.7048 1.0422 2.3733 1.0624 0.67159 0.017157 1.2089-0.24214 1.6138-0.7789 0.2737-0.3612 0.46962-0.69919 0.58878-1.013 0.11615-0.3158 0.19694-0.57308 0.2434-0.77588l1.1826 0.88988z"/><path d="m111.41 81.637-0.17371-0.19271c-0.79077-0.87778-1.4492-1.464-1.9754-1.7596-0.52616-0.29562-1.0604-0.19977-1.6017 0.28755-0.4989 0.44898-0.66049 0.9363-0.48476 1.461 0.17875 0.52263 0.70592 1.2703 1.5815 2.2419l0.15654 0.17454c0.88166 0.97766 1.5603 1.584 2.036 1.8161 0.47466 0.23306 0.9786 0.10997 1.5108-0.36725 0.43629-0.3935 0.57464-0.87274 0.41507-1.4418-0.15654-0.57107-0.64432-1.3116-1.4644-2.2197zm1.6189-1.2854c1.0119 1.123 1.531 2.2076 1.5553 3.2569 0.02121 1.0453-0.38478 1.9442-1.219 2.6939-0.82611 0.74257-1.7593 1.0493-2.8005 0.92116-1.0443-0.13116-2.0643-0.74964-3.0621-1.8575l-0.3656-0.40459c-0.93012-1.0311-1.4502-2.0865-1.5613-3.1661-0.10906-1.0806 0.29794-2.0361 1.219-2.8644 0.89984-0.81018 1.8774-1.0917 2.9338-0.84549 1.0584 0.24316 2.0441 0.87173 2.957 1.8837l0.34337 0.38239z" fill-rule="evenodd"/><polygon transform="matrix(0 -1.0089 1.0099 0 -226.38 454.59)" points="373.25 347.71 372.8 346.96 375.59 340.02 370.48 343.09 369.74 341.85 377.87 336.96 378.43 337.9 375.83 344.47 380.65 341.58 381.39 342.82"/><path d="m132.85 71.606c0.34742 0.95447 0.30196 1.7707-0.13634 2.4477-0.43931 0.67398-1.1988 1.2057-2.2764 1.5982-0.61605 0.22399-1.1503 0.37533-1.6007 0.45302-0.45143 0.078694-0.8352 0.11098-1.1533 0.095851l-0.56556-1.5507c0.26662 0.061546 0.65241 0.06659 1.1564 0.019174 0.50394-0.052469 0.97861-0.15941 1.425-0.32185 0.62716-0.22802 1.0261-0.47219 1.1968-0.7325 0.17472-0.26232 0.18885-0.59527 0.0404-1.0009-0.09594-0.26232-0.26561-0.46411-0.509-0.60637-0.2444-0.14025-0.82611-0.23207-1.7462-0.27646-0.73319-0.038338-1.3502-0.2038-1.8502-0.49539-0.50091-0.29461-0.88367-0.80413-1.1473-1.5275-0.25248-0.69315-0.18583-1.3782 0.19996-2.0593 0.38983-0.68205 1.0796-1.2027 2.0703-1.5629 0.48073-0.17555 0.92711-0.28957 1.3392-0.34607 0.41407-0.060538 0.71098-0.087771 0.88873-0.08071l0.49991 1.3722c-0.35549 0.034304-0.70493 0.078704-1.0503 0.13217-0.34439 0.054486-0.69786 0.1463-1.0614 0.27746-0.51405 0.18767-0.85438 0.40559-1.02 0.65379-0.16562 0.24921-0.20299 0.49942-0.11209 0.74964 0.11614 0.31883 0.28883 0.52868 0.51808 0.62958 0.22925 0.10191 0.81601 0.16042 1.7603 0.17657 0.87862 0.015129 1.5634 0.18968 2.0532 0.52465 0.49284 0.32992 0.85338 0.80615 1.0806 1.4307z"/><polygon transform="matrix(0 -1.0089 1.0099 0 -226.38 454.59)" points="386.76 363.76 386.39 361.83 378.46 363.38 378.07 361.38 386 359.84 385.62 357.87 387.01 357.6 388.15 363.49"/><rect transform="matrix(.9994 -.034567 .034633 .9994 0 0)" x="143.68" y="67.519" width="2.0521" height="9.5779"/><polygon transform="matrix(0 -1.0089 1.0099 0 -226.38 454.59)" points="386.74 381.4 386.91 379.44 378.86 378.74 379.04 376.72 387.08 377.42 387.26 375.42 388.67 375.54 388.14 381.52"/><path d="m168.41 72.216c-0.2343 0.87072-0.67159 1.4862-1.3139 1.8433-0.6413 0.35515-1.4947 0.38945-2.5642 0.10291-1.1462-0.30772-1.8996-0.79101-2.2592-1.4519-0.35953-0.66186-0.39992-1.5114-0.12219-2.5486l1.6684-6.2232 1.9825 0.52969-1.736 6.4744c-0.13533 0.50245-0.13028 0.90906 0.01615 1.2198 0.15049 0.30773 0.49183 0.53273 1.0251 0.67498 0.49284 0.13217 0.88974 0.11805 1.1877-0.043381 0.30096-0.16042 0.52819-0.52969 0.68472-1.1108l1.727-6.4381 1.4694 0.39349-1.7653 6.5773z"/><polygon transform="matrix(0 -1.0089 1.0099 0 -226.38 454.59)" points="379.68 402.04 380.54 400.28 373.28 396.74 374.17 394.91 381.42 398.45 382.3 396.65 383.58 397.27 380.95 402.66"/><rect transform="matrix(.82943 .55861 -.55936 .82893 0 0)" x="193.81" y="-42.645" width="2.0516" height="9.5821"/><path d="m191.32 84.834 0.18177-0.18767c0.82106-0.84953 1.3604-1.5467 1.6189-2.0915s0.12523-1.0705-0.3979-1.576c-0.48375-0.46613-0.98265-0.59326-1.4937-0.38137-0.51001 0.21389-1.219 0.79101-2.1269 1.7324l-0.1636 0.16849c-0.91499 0.94639-1.4725 1.6648-1.6714 2.1551-0.19996 0.49034-0.04242 0.98473 0.47364 1.4811 0.42215 0.40661 0.91095 0.51255 1.4674 0.31378 0.55647-0.19775 1.2614-0.73552 2.1118-1.6143zm1.3977 1.5245c-1.0503 1.0866-2.0986 1.6789-3.1439 1.7757-1.0422 0.094842-1.9663-0.2482-2.7742-1.0271-0.79884-0.77183-1.1705-1.6789-1.116-2.7262 0.05958-1.0493 0.60696-2.1097 1.6411-3.1812l0.37973-0.39349c0.96548-0.99785 1.9835-1.5901 3.052-1.7778 1.0715-0.18261 2.0532 0.15538 2.9449 1.017 0.87156 0.84044 1.221 1.7939 1.0493 2.8644-0.16967 1.0715-0.72815 2.0976-1.6754 3.0783l-0.35751 0.37028z" fill-rule="evenodd"/><polygon transform="matrix(0 -1.0089 1.0099 0 -226.38 454.59)" points="353.52 418.12 354.24 417.62 361.36 419.91 357.93 415.03 359.12 414.2 364.56 421.98 363.67 422.6 356.93 420.46 360.15 425.06 358.97 425.89"/><path d="m34.339 160.28c1.7098-0.23912 3.1419 0.07467 4.2982 0.9464 1.1473 0.87171 1.8421 2.1692 2.0845 3.8935 0.10806 0.76578 0.098972 1.698-0.02626 2.7998-0.12119 1.0059-0.13735 1.8181-0.05049 2.4356-1.4533 0.25728-2.8995 0.56501-4.3376 0.92419-0.13836 0.02018-0.22521-0.09887-0.26056-0.35716-0.02626-0.1796 0.027269-0.30067 0.15856-0.36222 1.5331-0.68911 2.5753-1.4377 3.1267-2.251 0.55142-0.8122 0.73522-1.8706 0.55142-3.1741-0.14643-1.0382-0.55949-1.7989-1.2412-2.2812-0.68169-0.49035-1.5644-0.65885-2.646-0.50851-0.69583 0.09888-1.3058 0.43789-1.8279 1.019-0.53121 0.58114-1.1553 1.7495-1.8724 3.5051-0.81197 2.0138-1.5512 3.3598-2.2168 4.0398-0.66654 0.68002-1.4553 1.0836-2.3662 1.2117-1.3997 0.19675-2.6531-0.15235-3.7609-1.0473-1.116-0.90199-1.7865-2.147-2.0097-3.7341-0.084827-0.60132-0.099981-1.3036-0.046452-2.1077 0.043423-0.74965 0.027269-1.3903-0.047472-1.923 1.4977-0.31479 2.8096-0.63967 3.9367-0.97262 0.13735-0.01917 0.22117 0.08273 0.25248 0.30571 0.034337 0.24013-0.015154 0.38441-0.14947 0.4288-1.2493 0.46412-2.1158 1.0241-2.6026 1.6779-0.48577 0.6538-0.65746 1.4892-0.51506 2.5012 0.13533 0.96153 0.52616 1.6849 1.1725 2.1723 0.64736 0.4853 1.4513 0.66187 2.4137 0.52668 0.60999-0.08577 1.1604-0.40258 1.6522-0.95346 0.48274-0.55895 1.0756-1.696 1.7805-3.4143 0.8352-2.034 1.5805-3.3931 2.238-4.0822 0.65644-0.6881 1.427-1.0947 2.3117-1.2188z"/><path d="m27.149 126.39c0.16361 0.01916 0.22622 0.18464 0.18785 0.49438-0.016164 0.13721-0.086856 0.21591-0.21209 0.23508-1.2594 0.22197-2.1814 0.64572-2.7652 1.2723-0.59282 0.62454-0.97154 1.6143-1.1382 2.9643l-0.14846 1.2127c-0.052509 0.42073-0.018173 0.71737 0.099981 0.88889 0.11917 0.17253 0.36762 0.2815 0.74633 0.3279l13.109 1.6083c0.59384 0.07264 1.0251 0.05044 1.2927-0.06357 0.26056-0.12511 0.48678-0.36827 0.67968-0.72947 0.18482-0.37028 0.36458-0.90603 0.53829-1.6103 0.034337-0.13519 0.15956-0.19068 0.37467-0.16345 0.24037 0.02926 0.35246 0.11301 0.3363 0.25022-0.071702 0.57611-0.18178 1.2612-0.33226 2.0552-0.14441 0.75065-0.24742 1.3792-0.31004 1.8867-0.064635 0.52465-0.11816 1.1734-0.16058 1.9452-0.046462 0.80615-0.10504 1.4973-0.17573 2.0734-0.017163 0.13923-0.14643 0.1917-0.3868 0.16244-0.21511-0.02523-0.32317-0.10797-0.32418-0.24921 0.008086-1.0554-0.098972-1.7848-0.32014-2.1874-0.22016-0.40964-0.73118-0.6649-1.5321-0.76378l-13.109-1.6083c-0.37871-0.0464-0.64635-1e-3 -0.80389 0.13723-0.15654 0.13822-0.26157 0.42174-0.31409 0.85154l-0.12321 1.0069c-0.14946 1.2128 0.025251 2.3518 0.52314 3.4183 0.48981 1.0644 1.2068 1.807 2.1511 2.2288 0.12421 0.05852 0.17774 0.16143 0.15956 0.30672-0.036356 0.29361-0.14845 0.42678-0.33832 0.40358-1.2412-0.64169-2.6571-1.2783-4.2487-1.9099 0.38478-1.1401 0.83419-3.8007 1.3482-7.9807 0.52717-4.292 0.74229-7.0384 0.64534-8.238 1.1341 0.01815 2.651-0.05751 4.5507-0.226z"/><path d="m38.518 106.86-7.0331 0.00101 5.4818 4.4979 1.5512-4.4989zm9.8709-4.9236c0.22925 0.07869 0.32115 0.18464 0.27571 0.3158-0.19491 0.56501-0.43932 1.1956-0.73421 1.8908-0.26157 0.5983-0.46658 1.1139-0.61605 1.5487-0.17269 0.49943-0.36155 1.127-0.56656 1.8817-0.21814 0.79404-0.42316 1.466-0.61201 2.0159-0.045453 0.13116-0.1828 0.15639-0.41205 0.07769-0.22925-0.07971-0.32721-0.16749-0.29288-0.26636 0.21814-0.74057 0.30399-1.2975 0.25854-1.6708-0.053529-0.37533-0.24844-0.62152-0.58474-0.73653-0.2141-0.07264-0.58171-0.10796-1.1069-0.10493l-4.6002-0.02825-1.7451 5.0649 3.3317 2.712c0.44638 0.35616 0.80894 0.58014 1.0877 0.67699 0.72108 0.24821 1.3442-0.27947 1.8673-1.584 0.034336-0.09888 0.16562-0.10897 0.39488-0.02926 0.23026 0.07869 0.32216 0.18463 0.27672 0.31579-0.16966 0.49036-0.38175 1.0281-0.63726 1.6093-0.24439 0.54887-0.44234 1.0443-0.59484 1.4862-0.12119 0.35414-0.24945 0.80413-0.38377 1.354-0.14239 0.57308-0.28177 1.0584-0.4171 1.4509-0.042413 0.12309-0.16664 0.14933-0.37064 0.0787-0.23026-0.0787-0.32116-0.21491-0.27268-0.40963 0.16967-0.70121 0.16564-1.3036-0.011105-1.804-0.17269-0.50952-0.66553-1.1411-1.4785-1.8978l-12.153-10.615c-0.11514-0.09586-0.14138-0.23106-0.078769-0.41166 0.067663-0.19674 0.17168-0.29864 0.31206-0.30571l15.898-0.20885c0.89378-0.01412 1.6138-0.19674 2.1572-0.54987 0.54636-0.36221 1.0109-0.93731 1.3917-1.7213 0.072721-0.16043 0.21209-0.20482 0.4171-0.1352z" fill-rule="evenodd"/><path d="m50.693 72.883c0.13837 0.089788 0.12321 0.26636-0.047461 0.52667-0.075751 0.11602-0.17371 0.15639-0.29389 0.11906-1.2291-0.35414-2.244-0.37634-3.0439-0.067608-0.80692 0.30269-1.5815 1.0251-2.3238 2.1662l-0.66553 1.0241c-0.23127 0.35616-0.33125 0.63766-0.29994 0.84348 0.031308 0.20683 0.20703 0.41367 0.52717 0.62151l11.076 7.1857c0.50193 0.32488 0.89883 0.49438 1.1907 0.5085 0.28884 0.002017 0.59787-0.11703 0.93014-0.35717 0.32923-0.25122 0.72613-0.65379 1.1907-1.2107 0.089885-0.10594 0.22622-0.1019 0.40801 0.017157 0.20299 0.13217 0.26762 0.25626 0.19188 0.3723-0.31611 0.48631-0.71603 1.0544-1.1998 1.7021-0.4585 0.61141-0.82814 1.131-1.1069 1.5598-0.28783 0.44393-0.62111 1.0029-0.9978 1.6779-0.39588 0.70425-0.75138 1.2995-1.0685 1.7868-0.07473 0.11704-0.21512 0.10796-0.41811-0.023198-0.18179-0.11805-0.24238-0.24014-0.18179-0.36625 0.47063-0.94437 0.69382-1.6476 0.6716-2.1057-0.017163-0.46614-0.36458-0.91815-1.0412-1.358l-11.077-7.1857c-0.32014-0.20784-0.5807-0.28452-0.78268-0.22903-0.20098 0.055494-0.42013 0.26434-0.65544 0.62857l-0.55343 0.84954c-0.66553 1.0251-1.0089 2.1248-1.0281 3.3002-0.02727 1.1714 0.29187 2.1531 0.95538 2.9461 0.085847 0.10594 0.087866 0.22298 0.008077 0.34607-0.16058 0.24718-0.32115 0.31681-0.48071 0.2149-0.83419-1.1199-1.828-2.3125-2.9813-3.5767 0.84631-0.8576 2.4177-3.051 4.7133-6.5834 2.3582-3.6272 3.7559-6.0002 4.1952-7.1211 1.0119 0.51154 2.4076 1.1068 4.1891 1.7879z"/><path d="m76.913 59.921c0.509 1.576 1.0665 3.0117 1.6714 4.3082-2.4622 2.1531-4.2013 3.7008-5.2162 4.6462-1.0028 0.93428-2.6672 2.5557-4.995 4.8661-0.10099 0.094842-0.2343 0.053478-0.39992-0.1241-0.14846-0.15841-0.17674-0.29158-0.087866-0.39954 0.46759-0.55391 0.7938-1.012 0.97861-1.3722 0.17775-0.36726 0.23835-0.69113 0.18078-0.96859-0.05151-0.28352-0.28379-0.64875-0.69786-1.0907l-8.351-8.9473c-0.40801-0.43788-0.74936-0.69415-1.0231-0.77184-0.27267-0.08878-0.59888-0.057502-0.97861 0.09585-0.37972 0.15134-0.86852 0.44696-1.4674 0.88687-0.10099 0.093832-0.23531 0.053467-0.40093-0.1241-0.16562-0.17758-0.19693-0.31479-0.095943-0.40863 1.6694-1.4125 3.3418-2.8997 5.0173-4.4605 1.6876-1.5719 3.2913-3.1378 4.8133-4.6976 1.0624 0.8465 2.1804 1.6183 3.3529 2.3155 0.11816 0.12612 0.066654 0.2936-0.15553 0.50044-0.10806 0.1019-0.21612 0.11805-0.32418 0.054483-1.8653-1.0604-3.566-0.87274-5.1011 0.55795l-1.9229 1.7889c-0.73522 0.68709-0.74835 1.4095-0.038375 2.1692l3.9488 4.2315 2.3986-2.2358c0.63423-0.59023 0.9261-1.1361 0.8756-1.6325-0.043423-0.50448-0.3666-1.1694-0.97053-1.9947-0.093923-0.10089-0.052509-0.23407 0.12422-0.39954 0.17775-0.16648 0.31409-0.19775 0.40902-0.097868 0.2959 0.31681 0.64938 0.73552 1.0614 1.2511 0.39388 0.49842 0.72614 0.89292 0.99881 1.1845 0.27773 0.29764 0.6514 0.66086 1.122 1.0887 0.4989 0.45806 0.8968 0.8465 1.1927 1.1633 0.094923 0.1009 0.05352 0.23307-0.12422 0.39955-0.17775 0.16446-0.31409 0.19674-0.40902 0.096859-0.81702-0.68608-1.4906-1.0715-2.0219-1.1563-0.52414-0.091815-1.0877 0.14428-1.6906 0.70425l-2.3986 2.2348 4.3659 4.6775c0.69786 0.74763 1.4159 0.7789 2.1511 0.093833l2.0754-1.9321c0.7544-0.70323 1.2755-1.6466 1.5623-2.8261 0.28075-1.1855 0.25247-2.3075-0.084836-3.3689-0.028279-0.080711-0.00101-0.15941 0.081808-0.23508 0.088865-0.082738 0.19188-0.13116 0.30903-0.1463 0.1111-0.019165 0.19895 0.004044 0.2646 0.074668z"/><path d="m107.91 37.059c-1.0412-2.3337-2.4581-3.9914-4.2507-4.968-1.7855-0.97968-3.5973-1.0604-5.4354-0.24316-1.8471 0.82128-3.0025 2.2227-3.4681 4.2043-0.45749 1.9765-0.16562 4.1347 0.87459 6.4694 1.0342 2.3196 2.4268 3.953 4.178 4.9004 1.7562 0.9363 3.565 0.98877 5.4273 0.16042 1.8552-0.82431 3.0217-2.2025 3.5004-4.1326 0.48274-1.9402 0.20703-4.0711-0.82612-6.3907zm2.6147-1.1633c1.119 2.5103 1.226 4.9247 0.32216 7.2432-0.9069 2.3105-2.6652 4.0449-5.2728 5.2051-2.6066 1.1583-5.0728 1.3036-7.3986 0.43183-2.3218-0.88384-4.0417-2.5819-5.1597-5.0911-1.122-2.5173-1.2361-4.9569-0.34236-7.3179 0.89074-2.37 2.6278-4.1296 5.2112-5.2778 2.5914-1.1522 5.0668-1.2672 7.4249-0.34304 2.3551 0.91612 4.0932 2.6333 5.2152 5.1497z" fill-rule="evenodd"/><path d="m131.31 26.111c0.03333 0.1695-0.09897 0.28452-0.3979 0.34203-0.14442 0.028251-0.24541-0.014125-0.30196-0.12713-0.49082-0.92823-1.1473-1.578-1.9704-1.9483-0.82308-0.37028-1.7583-0.45302-2.8056-0.24921l-2.2996 0.44595c-1.0049 0.19473-1.4078 0.80312-1.2089 1.8242l1.1048 5.6793 2.9116-0.56703c0.85238-0.16547 1.3886-0.4732 1.6108-0.92218 0.23026-0.44898 0.31207-1.1865 0.24643-2.2066-0.02626-0.1352 0.07574-0.22701 0.30499-0.2714 0.23935-0.046412 0.37063-0.002018 0.3979 0.1352 0.08282 0.42578 0.16159 0.96657 0.23632 1.6214 0.06969 0.6316 0.14241 1.1421 0.21815 1.5346 0.07777 0.39954 0.20299 0.90502 0.37468 1.5164 0.18077 0.65279 0.31206 1.1936 0.39488 1.6183 0.02625 0.13621-0.07979 0.22903-0.31813 0.27443-0.23026 0.044394-0.35852-0.002017-0.38478-0.13822-0.33731-1.012-0.70896-1.694-1.1139-2.0482-0.39689-0.35616-0.99881-0.45402-1.8078-0.29764l-2.9126 0.56602 1.1473 5.8953c0.11412 0.58721 0.26763 0.98977 0.46052 1.2087 0.19996 0.20784 0.50091 0.34808 0.90388 0.42073 0.40901 0.062555 0.97558 0.065582 1.6987 0.013117 0.14847-0.011099 0.2434 0.089795 0.2848 0.30369 0.04645 0.2371 0.00101 0.36927-0.13532 0.39652-0.57061 0.11098-1.2563 0.21793-2.0582 0.32084-0.76753 0.095849-1.4119 0.19372-1.931 0.29562-0.51909 0.10089-1.1483 0.24921-1.8885 0.44494-0.77259 0.2028-1.4452 0.36019-2.0158 0.47219-0.13635 0.025224-0.22723-0.079707-0.27369-0.31782-0.04141-0.21289 0.00403-0.34102 0.13734-0.38441 0.68978-0.22197 1.2099-0.43889 1.5583-0.64673 0.34641-0.21793 0.56859-0.46008 0.66655-0.72644 0.10705-0.26737 0.10301-0.6992-0.01312-1.2945l-2.3359-12.007c-0.11413-0.5862-0.26764-0.98675-0.45851-1.1966-0.1838-0.21995-0.47768-0.36524-0.88065-0.43788-0.40295-0.071635-0.97457-0.079707-1.7148-0.025224-0.13633 0.027241-0.22723-0.078697-0.27368-0.3158-0.04645-0.23811-0.00101-0.37129 0.13432-0.39853 2.1663-0.31378 4.3729-0.69012 6.621-1.126 2.1289-0.41266 4.2518-0.87778 6.3695-1.3964 0.56758 1.4186 1.1402 2.6565 1.7179 3.72z"/><path d="m175.65 33.897c-0.03029 0.21491-0.11513 0.32084-0.2545 0.31782-1.0564-0.024214-1.7926 0.0676-2.2077 0.28049-0.40701 0.2149-0.66655 0.72039-0.77865 1.5185l-0.21411 1.5195c-0.18581 1.3227-0.21914 2.2449-0.09998 2.7685-1.2068 0.29461-2.4925 0.49035-3.8538 0.5872-1.3644 0.10695-2.5531 0.087778-3.567-0.054483-1.9572-0.27443-3.6216-0.902-4.99-1.8817-1.3684-0.97968-2.3642-2.2439-2.9873-3.7926-0.62211-1.5578-0.80996-3.2165-0.56253-4.9761 0.24642-1.7505 0.91903-3.2932 2.0168-4.626 1.0998-1.3419 2.4925-2.3054 4.179-2.8916 1.6856-0.5862 3.5246-0.73956 5.5182-0.45907 0.77259 0.10695 1.7916 0.39147 3.059 0.84953 1.117 0.40156 1.9814 0.64572 2.5904 0.73148-0.05655 1.2168-0.06463 2.705-0.02222 4.4605-0.0202 0.13722-0.16663 0.18666-0.44133 0.14731-0.18077-0.024215-0.27874-0.10897-0.29389-0.25123-0.35044-2.9895-2.1572-4.7138-5.4212-5.1718-2.0188-0.28351-3.8326 0.31076-5.4414 1.7828-1.5997 1.4741-2.5692 3.4163-2.9086 5.8267-0.32923 2.3428 0.06665 4.4343 1.1937 6.2716 1.126 1.8302 2.6702 2.8826 4.6274 3.157 2.8783 0.40459 4.4174-0.10493 4.6173-1.5306l0.4787-3.3981c0.06565-0.47219-0.11411-0.83944-0.54231-1.1008-0.4262-0.26939-1.4906-0.61142-3.1934-1.0251-0.13734-0.021187-0.18784-0.1574-0.15048-0.41568 0.03435-0.24013 0.11918-0.35111 0.25652-0.33093 0.57566 0.080716 1.423 0.22096 2.543 0.42174 1.0756 0.19473 1.8764 0.32992 2.4006 0.40156 0.51607 0.072643 1.2008 0.1473 2.0572 0.22499 0.917 0.084752 1.6633 0.16748 2.238 0.2482 0.13634 0.020178 0.18886 0.14932 0.15452 0.39046z"/><path d="m201.59 47.836c-1.2523 1.0836-2.3571 2.1581-3.3156 3.2205-2.9449-1.4236-5.0526-2.4174-6.3201-2.9824-1.2523-0.55694-3.3974-1.4529-6.4352-2.6909-0.12624-0.0565-0.14139-0.19574-0.0414-0.4177 0.08785-0.19674 0.19794-0.27544 0.33226-0.23508 0.6928 0.2139 1.2412 0.33497 1.6472 0.36221 0.408 0.021187 0.73017-0.050448 0.96346-0.21188 0.24036-0.1584 0.48476-0.51456 0.7332-1.0685l4.9799-11.175c0.2434-0.54584 0.34843-0.96052 0.31207-1.242-0.02424-0.28452-0.18179-0.57207-0.4696-0.86265-0.28884-0.28957-0.7524-0.62353-1.3907-1.0029-0.12624-0.055492-0.1414-0.19473-0.04141-0.41669 0.09796-0.22197 0.21107-0.3047 0.33832-0.2482 1.9542 0.98473 3.977 1.9402 6.0696 2.8725 2.1077 0.93731 4.178 1.8 6.209 2.59-0.36458 1.3076-0.63927 2.6374-0.82308 3.9884-0.06968 0.1584-0.24441 0.17556-0.52314 0.052465-0.13431-0.060536-0.19188-0.15134-0.17472-0.27645 0.24643-2.1289-0.58979-3.6201-2.5066-4.4747l-2.4016-1.0675c-0.91902-0.40963-1.5906-0.13823-2.0138 0.81119l-2.3551 5.2848 2.9964 1.3328c0.79178 0.35212 1.4078 0.4066 1.8471 0.16648 0.44841-0.2371 0.93418-0.79404 1.4573-1.6708 0.05655-0.12612 0.19492-0.14125 0.41709-0.042376 0.22218 0.098876 0.305 0.21188 0.24743 0.338-0.17572 0.39652-0.42214 0.88484-0.73724 1.465-0.30499 0.55694-0.53828 1.017-0.70087 1.3812-0.16563 0.37129-0.35348 0.8576-0.56354 1.4559-0.22925 0.63866-0.43023 1.1562-0.60696 1.5518-0.05655 0.12713-0.19491 0.14125-0.4181 0.042375-0.22118-0.098877-0.30399-0.21188-0.24643-0.338 0.31106-1.019 0.40196-1.7889 0.2737-2.3115-0.12019-0.5186-0.55748-0.94437-1.3099-1.2793l-2.9954-1.3328-2.6036 5.8428c-0.41709 0.93428-0.16562 1.6052 0.75441 2.0149l2.5904 1.1522c0.94326 0.41972 2.0138 0.5307 3.2136 0.33396 1.2008-0.20582 2.2258-0.66994 3.0712-1.3944 0.06362-0.05751 0.14644-0.063564 0.24945-0.017151 0.11008 0.049438 0.19491 0.12511 0.25551 0.22701 0.0616 0.093832 0.07271 0.18464 0.03534 0.27242z"/><path d="m226.83 59.791c1.6118-1.9866 2.444-3.9995 2.5026-6.0395 0.06362-2.033-0.68775-3.6816-2.2511-4.9469-1.5704-1.2723-3.3449-1.6637-5.3233-1.1805-1.9714 0.49035-3.763 1.7303-5.3728 3.717-1.5997 1.9735-2.4238 3.9551-2.4743 5.9447-0.03736 1.9886 0.73622 3.6221 2.3208 4.9045 1.5785 1.2763 3.3368 1.689 5.2748 1.239 1.9491-0.45201 3.7246-1.6648 5.3233-3.6382zm2.2248 1.8c-1.73 2.1339-3.8346 3.3265-6.313 3.5747-2.4723 0.24012-4.8173-0.53676-7.0351-2.3317-2.2178-1.7929-3.466-3.9238-3.7438-6.3907-0.26662-2.4669 0.46658-4.7683 2.1966-6.9042 1.736-2.141 3.8599-3.3497 6.3736-3.6261 2.5157-0.28351 4.8749 0.46411 7.0724 2.2429 2.2046 1.7838 3.4297 3.9339 3.6761 6.4532 0.25147 2.5123-0.49082 4.8399-2.2269 6.9819z" fill-rule="evenodd"/><path d="m249.25 78.354c2.0491-1.4872 2.4238-3.1247 1.123-4.9115-0.4282-0.58922-0.80288-1.0019-1.126-1.24-0.31005-0.23408-0.60494-0.33094-0.8857-0.28856-0.27369 0.049433-0.66856 0.26031-1.1806 0.63159l-4.685 3.4012c0.23833 0.44696 0.58373 0.97867 1.0321 1.5961 0.82107 1.129 1.6866 1.7586 2.5975 1.8908 0.91195 0.13015 1.9532-0.22802 3.1247-1.0796zm-6.6584 13.027c-0.19592 0.14328-0.3353 0.1574-0.41609 0.045408-0.18885-0.2593-0.47264-0.70021-0.85237-1.3247-0.27571-0.45302-0.46456-0.74964-0.56757-0.88989-0.14745-0.2038-0.39993-0.50749-0.75946-0.91208-0.35751-0.40357-0.60999-0.70727-0.75845-0.91108l2.8823-6.9597c0.38983-0.96858 0.58374-1.6668 0.58374-2.0946 0.00504-0.42073-0.29692-1.0493-0.90388-1.8837l-4.5264 3.2861c-0.48375 0.35212-0.78471 0.66086-0.90287 0.92722-0.10402 0.27039-0.10402 0.60233 0.00101 0.99582 0.11715 0.39854 0.35347 0.91208 0.70492 1.5447 0.07372 0.13015 0.0212 0.25829-0.15351 0.38542-0.19592 0.14226-0.33529 0.1574-0.41709 0.045399-0.34135-0.47016-0.72815-1.0463-1.1594-1.7283-0.41204-0.6548-0.7746-1.1956-1.0846-1.6234-0.31106-0.42779-0.71098-0.93529-1.2028-1.5215-0.51102-0.61344-0.9372-1.1563-1.2786-1.6264-0.08181-0.11099-0.02323-0.23812 0.17168-0.38138 0.17573-0.12814 0.31206-0.14024 0.407-0.038338 0.49284 0.5307 0.9069 0.91007 1.2432 1.1371 0.34538 0.22298 0.65745 0.32085 0.94225 0.29865 0.28783-0.017147 0.67766-0.2028 1.1685-0.55996l9.9063-7.1907c0.48476-0.35111 0.78167-0.65682 0.89074-0.92015 0.1222-0.2593 0.13028-0.5872 0.02525-0.98272-0.10503-0.3945-0.33832-0.91612-0.70189-1.5629-0.08181-0.11199-0.02424-0.23912 0.1727-0.38239 0.19592-0.14327 0.33528-0.15739 0.41709-0.045398 0.34135 0.47017 0.72613 1.0422 1.1523 1.7182 0.407 0.64774 0.76653 1.1855 1.0766 1.6133 0.31106 0.42678 0.71502 0.93832 1.2109 1.5316 0.51607 0.62151 0.94528 1.1663 1.2856 1.6365 1.1372 1.5629 1.6835 3.0147 1.6391 4.3546-0.03838 1.3338-0.65544 2.4366-1.8572 3.3063-0.75744 0.55189-1.6795 0.76578-2.7662 0.6427-1.0735-0.12007-2.1531-0.55795-3.2378-1.3126l-2.7096 7.1564c-0.25955 0.61546-0.34034 1.2269-0.24339 1.8312 0.10402 0.60033 0.36761 1.2814 0.79379 2.0421 0.0606 0.10897 0 0.226-0.17572 0.35313z" fill-rule="evenodd"/><path d="m261.9 116.25c-0.20198 0.0777-0.3363 0.05449-0.40194-0.06759-0.4888-0.93631-0.92812-1.5336-1.3159-1.7919-0.38579-0.25223-0.95438-0.23306-1.7078 0.05549l-1.4331 0.54987c-1.2462 0.47825-2.0713 0.89595-2.4723 1.2541-0.84328-0.91107-1.6361-1.9392-2.3824-3.0833-0.75339-1.1401-1.3139-2.1884-1.6805-3.1418-0.70895-1.8444-0.96648-3.6019-0.77258-5.2748 0.1929-1.6698 0.81803-3.154 1.8724-4.4494 1.0614-1.2975 2.4228-2.2651 4.0831-2.9027 1.6522-0.63362 3.3287-0.79304 5.0284-0.48026 1.7068 0.31075 3.2267 1.0604 4.5578 2.2489 1.3301 1.1896 2.3561 2.7211 3.0772 4.5998 0.27975 0.72745 0.52617 1.7566 0.73926 3.0854 0.18987 1.1714 0.39488 2.0441 0.61504 2.6182-1.0937 0.5408-2.3996 1.2541-3.9165 2.142-0.12927 0.05146-0.24338-0.05449-0.34337-0.31278-0.06463-0.17051-0.03938-0.29663 0.07776-0.37834 2.448-1.7556 3.0802-4.171 1.8997-7.2452-0.73118-1.9018-2.1299-3.1973-4.1992-3.8895-2.0653-0.68406-4.2346-0.58922-6.5099 0.28352-2.2107 0.84751-3.8498 2.2076-4.9122 4.0832-1.0554 1.8716-1.2291 3.7301-0.52111 5.5744 1.0412 2.71 2.236 3.8067 3.5792 3.2922l3.2075-1.2299c0.44436-0.17052 0.67866-0.5065 0.69987-1.0069 0.02929-0.50346-0.18784-1.5992-0.65038-3.2881-0.04949-0.13016 0.04645-0.24013 0.28984-0.33295 0.22724-0.08677 0.36357-0.06558 0.41508 0.06356 0.20804 0.54281 0.49486 1.351 0.86246 2.4265 0.35045 1.0332 0.62211 1.799 0.81097 2.2913 0.18784 0.4853 0.45345 1.1209 0.80288 1.9079 0.36963 0.84146 0.65847 1.5336 0.86652 2.0764 0.04948 0.12713-0.03839 0.23609-0.26562 0.32286z"/><path d="m258.17 140.54c-0.24036 0.02825-0.36963-0.02522-0.38679-0.16244-0.0707-0.57611-0.12826-1.2632-0.17371-2.0613-0.04141-0.76277-0.09595-1.4075-0.15957-1.9321-0.06464-0.52566-0.16866-1.1623-0.31408-1.913-0.14947-0.79202-0.26157-1.4831-0.33227-2.0673-0.01817-0.13823 0.09493-0.22096 0.33631-0.25022 0.21511-0.02624 0.33933 0.02724 0.37265 0.16345 0.24845 1.0251 0.52921 1.7071 0.84127 2.0441 0.31408 0.34607 0.87055 0.47016 1.6714 0.37128l12.153-1.4912c0.60191-0.07466 1.015-0.2038 1.2371-0.38743 0.23127-0.17757 0.39387-0.4631 0.48375-0.85962 0.09999-0.39651 0.14746-0.96455 0.14443-1.7061-0.01718-0.13822 0.09594-0.22095 0.3363-0.25121 0.24136-0.02927 0.37063 0.0242 0.3868 0.16244 0.07271 0.58417 0.13229 1.2803 0.17875 2.0855 0.04141 0.76477 0.09493 1.4085 0.15754 1.9321 0.06464 0.52567 0.17069 1.1623 0.3151 1.913 0.14846 0.78496 0.25955 1.466 0.33024 2.0411 0.01718 0.13824-0.09594 0.22197-0.3363 0.25123-0.24137 0.02926-0.37064-0.02421-0.3868-0.16143-0.17674-0.71231-0.35952-1.2481-0.55343-1.6103-0.18381-0.3602-0.40498-0.60032-0.66352-0.71736-0.26056-0.11603-0.69482-0.13722-1.3058-0.06255l-12.153 1.4912c-0.59384 0.07265-1.0069 0.19776-1.2392 0.37432-0.22318 0.17656-0.38578 0.45806-0.48577 0.8455-0.09088 0.39651-0.13533 0.95951-0.1323 1.694 0.00101 0.15034-0.10604 0.23711-0.32216 0.26435z"/><path d="m264.88 164.99 6.9038-1.3409-6.2413-3.3699-0.66251 4.7108zm-8.7489 6.7145c-0.24036-0.03329-0.35145-0.11906-0.33126-0.25627 0.08383-0.59226 0.20199-1.2582 0.35852-1.9977 0.14342-0.63664 0.24542-1.1815 0.31005-1.6365 0.07271-0.52364 0.13937-1.1754 0.19593-1.9553 0.06362-0.82228 0.13532-1.5205 0.21612-2.0956 0.02019-0.13722 0.14845-0.18867 0.38983-0.15538 0.23935 0.0333 0.35347 0.10291 0.33933 0.20482-0.07271 0.76982-0.05251 1.3318 0.06362 1.69 0.12422 0.35817 0.36256 0.56299 0.71502 0.61243 0.2232 0.03127 0.59181-0.00505 1.1069-0.10796l4.5214-0.84852 0.74633-5.304-3.7882-2.028c-0.50597-0.26335-0.90488-0.41569-1.1988-0.45705-0.75541-0.10595-1.2654 0.53171-1.53 1.9119-0.01415 0.10392-0.14342 0.13924-0.38276 0.10493-0.23935-0.03329-0.35146-0.11906-0.33125-0.25627 0.07271-0.51557 0.17875-1.0826 0.31711-1.7031 0.13634-0.58418 0.23531-1.1088 0.30096-1.5719 0.05251-0.36928 0.0919-0.83642 0.11815-1.4014 0.0303-0.59024 0.07373-1.0917 0.13332-1.5033 0.01817-0.12914 0.13432-0.17857 0.34841-0.14831 0.23936 0.03431 0.3565 0.15033 0.3454 0.35111-0.03131 0.72241 0.08685 1.3116 0.35549 1.7697 0.26863 0.46613 0.87156 0.9918 1.8148 1.58l13.957 8.1028c0.13028 0.07063 0.18381 0.20078 0.15553 0.38945-0.02828 0.20582-0.1111 0.32589-0.24744 0.35919l-15.566 3.2357c-0.87559 0.18362-1.5472 0.50043-2.0128 0.95043-0.46759 0.45906-0.81399 1.1118-1.0362 1.9553-0.04241 0.16849-0.17067 0.23912-0.38477 0.20885z" fill-rule="evenodd"/><path d="m116.57 271.14 6.6968 1.6678 0.13533-0.54382-1.1281-0.83237c-0.65644-0.47825-0.65443-0.66188-0.27166-2.1945l3.3014-13.227-0.19594-0.33799-5.1213 0.48429-0.13634 0.54382 1.4038 0.50649c0.78773 0.30167 0.83722 0.44495 0.58474 1.4589l-2.4743 9.9139c-0.38277 1.5336-0.46659 1.696-1.2715 1.8111l-1.3876 0.20582-0.13533 0.54382z"/><path d="m140.58 275.12 0.12927-0.32993c-0.14846-0.32286-0.31207-0.72543-0.26661-1.3742 0.18986-2.7231 2.0229-5.071 4.0094-8.0847 1.4109-2.143 2.3895-3.5858 2.7652-6.5047l-0.20906-0.37936-8.4722-0.59225-0.18482 0.19573-0.78167 3.8279 0.66049 0.04641 0.64129-0.91915c0.37872-0.52062 0.59384-0.53171 1.3816-0.47723l3.3842 0.2371c0.4676 0.03229 0.64937 0.20078 0.62211 0.59023-0.09493 1.349-0.84934 2.6515-2.2662 4.8712-1.4694 2.3478-4.1316 5.5492-4.2861 7.7537-0.03434 0.49237 0.21107 0.95245 0.70088 0.98675l2.1723 0.15235z"/><path d="m162.03 274.58 0.06464-0.34809c-0.20804-0.28956-0.44639-0.65278-0.52516-1.2985-0.33327-2.709 1.018-5.3635 2.3905-8.7011 0.97861-2.372 1.6623-3.9752 1.4724-6.9123l-0.27672-0.33295-8.4298 1.0342-0.14442 0.22701-0.03535 3.9076 0.65645-0.08073 0.45446-1.0251c0.27167-0.58316 0.48072-0.63462 1.2644-0.73148l3.3671-0.41266c0.46658-0.05751 0.67564 0.07467 0.72411 0.46109 0.16462 1.3419-0.32721 2.7645-1.2947 5.2142-0.99377 2.5839-2.9954 6.2353-2.7268 8.4277 0.0616 0.49034 0.39084 0.89594 0.87661 0.83641l2.1622-0.26535z"/><path d="m179.97 260.63c2.5692-0.78496 4.0366 1.4145 4.8001 3.9086 0.83723 2.7362 0.10705 4.3354-1.4189 4.8026-1.8178 0.55492-3.9902-0.74157-5.2354-4.8086-0.44436-1.4529-0.37973-2.1087-0.21108-2.4245 0.42821-0.76579 1.2412-1.2269 2.0653-1.4781zm2.7066-8.8212c-5.806 1.9846-8.5782 7.6498-7.0735 12.565 1.5553 5.0851 4.7315 6.6298 7.5916 5.757 4.3144-1.3177 4.0094-5.4342 3.4691-7.2018-0.99274-3.2448-3.4468-4.508-6.0161-3.723-1.3573 0.41466-1.7774 0.86062-2.8662 2.0663-0.44334-3.0944 0.95539-7.0959 5.0627-9.0916l-0.16765-0.3723z" fill-rule="evenodd"/><polyline transform="matrix(0 -1.0089 1.0099 0 -226.38 454.59)" points="301.82 426.78 301.5 425.15 306.26 424.23 301.04 422.74 300.86 421.82 305.17 418.64 300.42 419.56 300.18 418.34 308.46 416.73 308.72 418.04 303.26 422.17 309.88 424 310.1 425.16 301.82 426.78"/><path d="m210.54 147.06 0.04039-0.22904c0.18381-1.0332 0.23329-1.8151 0.1525-2.3438-0.0808-0.5307-0.44134-0.85255-1.0776-0.96354-0.58777-0.10493-1.018 0.04944-1.2897 0.46008-0.26965 0.40963-0.50396 1.1885-0.70594 2.3337l-0.03635 0.20481c-0.20299 1.1522-0.25652 1.9584-0.15957 2.4174 0.09695 0.46007 0.4585 0.74561 1.0857 0.85659 0.51403 0.0908 0.92608-0.07466 1.2371-0.49741 0.31307-0.42275 0.56454-1.1694 0.7534-2.2388m1.7876 0.4288c-0.23329 1.3227-0.71098 2.2792-1.4321 2.8704-0.72108 0.58721-1.5745 0.79405-2.5561 0.6205-0.97255-0.17051-1.6987-0.65581-2.1784-1.4549-0.47971-0.80211-0.60394-1.8554-0.37368-3.159l0.08383-0.47825c0.21512-1.2148 0.66958-2.1561 1.3664-2.825 0.69785-0.66691 1.5906-0.90502 2.6743-0.71433 1.0614 0.18666 1.7926 0.71736 2.1986 1.5901 0.40802 0.87375 0.508 1.9079 0.29794 3.0995l-0.0808 0.451z" fill-rule="evenodd"/><path d="m218.04 149.97 0.10503-0.20582c0.42416-0.83138 0.60999-1.5346 0.5605-2.1148-0.05049-0.57812-0.31105-0.98776-0.78167-1.2279l-0.60797-0.30975-2.7147 5.3232 0.74532 0.38037c0.46153 0.23509 0.89984 0.23509 1.3109 0.00202 0.41407-0.23609 0.87459-0.85054 1.3826-1.8474m1.6098 0.88283c-0.62715 1.2299-1.326 2.025-2.0946 2.3841-0.76653 0.3612-1.6038 0.31076-2.5127-0.15134l-2.643-1.3459 3.869-7.5852 2.3713 1.2057c1.0826 0.5529 1.6916 1.2733 1.8239 2.1642 0.13634 0.88787-0.0818 1.8958-0.65645 3.0218l-0.15755 0.30672z" fill-rule="evenodd"/><polyline transform="matrix(0 -1.0089 1.0099 0 -226.38 454.59)" points="293.19 444.21 296.66 440.48 302.83 446.24 299.51 449.8 298.59 448.95 300.68 446.7 299.02 445.16 297.4 446.9 296.46 446.03 298.09 444.29 296.35 442.66 294.11 445.07 293.19 444.21"/><path d="m229.94 159.26 0.19694-0.12208c0.31205-0.19574 0.48577-0.41367 0.52212-0.6538 0.03535-0.24215-0.04343-0.51759-0.23531-0.82633l-0.3161-0.50446-1.9108 1.1936 0.26157 0.4177c0.22925 0.36726 0.46355 0.58519 0.70291 0.65481 0.23732 0.06759 0.49889 0.01512 0.77864-0.15942m-4.0599 4.9115-0.95539-1.5286c1.1574-0.73855 1.9229-1.3651 2.2955-1.8746 0.37873-0.50951 0.43325-0.97968 0.1626-1.4105l-0.22723-0.36221-3.2469 2.027-0.9675-1.5457 7.228-4.512 1.6886 2.701c0.41103 0.65682 0.55243 1.2158 0.42215 1.6758-0.12725 0.46311-0.41003 0.83137-0.84732 1.1048l-0.39387 0.24518c-0.41104 0.25728-0.81703 0.34305-1.2149 0.2593-0.39993-0.08375-0.77158-0.35111-1.115-0.80211 0.16765 0.64471 0.04444 1.2844-0.37165 1.919-0.408 0.63462-1.2281 1.3368-2.4571 2.1036z" fill-rule="evenodd"/><path d="m202.41 172.46 1.0352-3.1186-2.5975 1.9846 1.5623 1.134m0.37974 4.3223-1.5108-1.0967 0.72007-2.0018-2.1622-1.5699-1.6967 1.2935-1.2018-0.87274 7.2138-5.2869 1.3765 0.99886-2.7389 8.5357z" fill-rule="evenodd"/><polyline transform="matrix(0 -1.0089 1.0099 0 -226.38 454.59)" points="278.84 434.34 279.61 432.78 273.16 429.63 273.95 428.01 280.4 431.15 281.18 429.55 282.31 430.1 279.98 434.9 278.84 434.34"/><polyline transform="matrix(0 -1.0089 1.0099 0 -226.38 454.59)" points="270.91 434.92 271.62 433.26 279.38 436.56 278.68 438.22 270.91 434.92"/><path d="m221.02 180.35 0.09392-0.21188c0.4282-0.9585 0.66654-1.7051 0.71603-2.2398 0.05049-0.53273-0.22117-0.93126-0.81197-1.1946-0.54637-0.24316-1.0008-0.19776-1.3644 0.13418-0.35954 0.33396-0.77764 1.0322-1.2503 2.0936l-0.08484 0.19069c-0.47566 1.0685-0.7231 1.8373-0.74026 2.3064-0.01818 0.47118 0.26561 0.83439 0.84631 1.0927 0.47768 0.2129 0.917 0.15135 1.322-0.18362 0.40701-0.33296 0.83218-0.99583 1.2735-1.9876m1.63 0.84853c-0.54637 1.2269-1.2412 2.0391-2.0845 2.4386-0.84227 0.39551-1.7189 0.38945-2.6298-0.01514-0.90287-0.40155-1.4896-1.0473-1.7613-1.9402-0.27065-0.89392-0.13634-1.9462 0.40296-3.156l0.19593-0.44191c0.50192-1.127 1.1715-1.9311 2.0087-2.4124 0.83924-0.47824 1.7623-0.49337 2.7692-0.0464 0.98366 0.43888 1.5654 1.129 1.7462 2.0754 0.18583 0.94638 0.03131 1.9735-0.46153 3.0803l-0.18583 0.41771z" fill-rule="evenodd"/><polyline transform="matrix(0 -1.0089 1.0099 0 -226.38 454.59)" points="263.79 449.64 264.17 448.97 270.77 448.15 266.18 445.5 266.82 444.38 274.13 448.6 273.64 449.44 267.41 450.25 271.74 452.75 271.09 453.86 263.79 449.64"/><polyline transform="matrix(0 -1.0089 1.0099 0 -226.38 454.59)" points="307.04 307.7 298.67 310.14 298 309.02 301.84 304.75 296.24 306.1 295.57 304.98 301.66 298.74 302.6 300.31 298.74 304.25 304.14 302.86 304.8 303.96 301.04 308.08 306.29 306.45 307.04 307.7"/><polyline transform="matrix(0 -1.0089 1.0099 0 -226.38 454.59)" points="300.12 314.82 299.59 313.09 307.66 310.63 308.19 312.35 300.12 314.82"/><path d="m98.336 147.99c0.12523 0.89393-0.064635 1.5952-0.57161 2.1026-0.50698 0.50448-1.2644 0.82734-2.2743 0.96859-0.57767 0.08072-1.0695 0.11401-1.4755 0.09887-0.40699-0.01513-0.74734-0.05852-1.021-0.13015l-0.20401-1.4519c0.22016 0.10292 0.55344 0.17858 1.0018 0.23004 0.4474 0.04742 0.87964 0.04137 1.2977-0.01715 0.58777-0.08274 0.98064-0.22096 1.1766-0.41569 0.19996-0.19472 0.27368-0.48328 0.22015-0.86265-0.034337-0.24517-0.14441-0.452-0.33125-0.61949-0.18583-0.16748-0.67463-0.35616-1.4664-0.564-0.63018-0.1695-1.1362-0.42678-1.5169-0.77285-0.38175-0.3491-0.62009-0.86264-0.71502-1.5406-0.090894-0.64774 0.093924-1.2319 0.55545-1.7515 0.46457-0.52264 1.1604-0.84853 2.0885-0.97868 0.45042-0.06256 0.85943-0.08071 1.2281-0.05246 0.37164 0.02422 0.63422 0.05548 0.78874 0.09484l0.18077 1.2844c-0.3161-0.03531-0.62917-0.06255-0.93821-0.07869-0.30903-0.01716-0.63422-0.00202-0.97457 0.0454-0.48172 0.06759-0.81702 0.19472-1.0079 0.38138-0.19086 0.18666-0.26964 0.39752-0.23632 0.63059 0.042414 0.29865 0.15351 0.51254 0.33428 0.64269 0.18078 0.13016 0.68068 0.29058 1.4977 0.48026 0.76147 0.17456 1.324 0.45201 1.6886 0.8344 0.36761 0.37532 0.59181 0.85558 0.67462 1.4418"/><path d="m129.98 145.42c-0.25248 0.51759-0.63019 0.87476-1.1331 1.0725-0.49789 0.19674-1.0796 0.13318-1.7451-0.18968-0.38881-0.18968-0.68977-0.37028-0.90084-0.53978-0.20804-0.1685-0.36559-0.33498-0.47264-0.50044l0.57262-1.1714c0.09897 0.11603 0.23833 0.2482 0.42012 0.39953 0.18482 0.14832 0.38276 0.27343 0.59181 0.37634 0.19895 0.09686 0.39893 0.12411 0.5999 0.0787 0.20097-0.04439 0.3676-0.20078 0.4999-0.47319l2.7975-5.7298 1.6391 0.79909-2.8692 5.8781"/><path d="m138.58 147.81c-0.22016 0.77082-0.61908 1.3096-1.1947 1.6183-0.57566 0.3047-1.3361 0.32186-2.2814 0.05045-1.014-0.29058-1.6754-0.73249-1.9855-1.3248-0.31003-0.59225-0.33226-1.349-0.06867-2.2681l1.5795-5.5048 1.7532 0.50245-1.6431 5.7278c-0.12826 0.44393-0.12927 0.80615-0.00505 1.0846 0.12927 0.27444 0.42922 0.48026 0.90085 0.61546 0.43628 0.1241 0.78773 0.11704 1.0554-0.02119 0.26965-0.13823 0.4787-0.46311 0.62615-0.97666l1.634-5.6965 1.2998 0.37229-1.6704 5.8206"/><path d="m146.49 148.88c-0.11108 0.89593-0.47567 1.5235-1.0968 1.8827-0.62009 0.35615-1.4361 0.47218-2.448 0.34808-0.57869-0.07063-1.0624-0.16648-1.4512-0.28553-0.38882-0.11906-0.70695-0.25022-0.95235-0.39046l0.17875-1.4559c0.18683 0.15538 0.4888 0.3158 0.90892 0.48228 0.41912 0.16143 0.83824 0.26737 1.2574 0.31781 0.58979 0.07265 1.0049 0.04036 1.2452-0.09686 0.24339-0.13721 0.38881-0.3955 0.43528-0.77689 0.03029-0.24617-0.02122-0.4752-0.15755-0.68507-0.13735-0.21086-0.56151-0.5186-1.2705-0.92419-0.56556-0.32589-0.9877-0.70525-1.2654-1.1381-0.27773-0.43587-0.3757-0.99281-0.29187-1.6718 0.07978-0.65077 0.41003-1.1663 0.99072-1.5497 0.58374-0.38339 1.3412-0.5186 2.2713-0.40357 0.45042 0.05549 0.85035 0.14528 1.1998 0.26636 0.35347 0.11905 0.59888 0.21894 0.73623 0.29461l-0.15856 1.2884c-0.29489-0.11603-0.5908-0.22197-0.88468-0.31883-0.2949-0.09686-0.611-0.16445-0.95336-0.20683-0.48274-0.06053-0.83924-0.02321-1.0725 0.10594-0.23229 0.13116-0.36257 0.31479-0.39186 0.54887-0.03635 0.29864 0.01617 0.53473 0.15654 0.70727 0.1414 0.17252 0.58171 0.45604 1.323 0.84953 0.68978 0.36523 1.1604 0.77991 1.4139 1.243 0.25753 0.46009 0.34943 0.98272 0.27772 1.5689"/><polyline transform="matrix(0 -1.0089 1.0099 0 -226.38 454.59)" points="307.55 376.47 307.55 374.73 300.37 374.73 300.37 372.92 307.55 372.92 307.55 371.14 308.81 371.14 308.81 376.47 307.55 376.47"/><polyline transform="matrix(0 -1.0089 1.0099 0 -226.38 454.59)" points="301.01 381.24 300.76 379.45 309.11 378.27 309.36 380.06 301.01 381.24"/><path d="m167.24 148.62c-0.09695 0.11804-0.29288 0.26031-0.58676 0.42678-0.2939 0.1695-0.64837 0.3158-1.0645 0.43384-1.0483 0.30067-2.0027 0.20584-2.8611-0.28351-0.85641-0.49337-1.4735-1.4014-1.8522-2.7201l-0.09493-0.33094c-0.35448-1.2299-0.30096-2.3125 0.15451-3.2498 0.46053-0.93832 1.1988-1.5518 2.2117-1.8423 0.43629-0.12511 0.80894-0.20279 1.117-0.23205 0.306-0.03229 0.55344-0.02825 0.73825 0.0121l0.37367 1.3016c-0.17169-0.04037-0.39387-0.05751-0.66654-0.05045-0.27067 0.00806-0.57566 0.06053-0.916 0.15638-0.63221 0.18162-1.0533 0.58216-1.2624 1.2017-0.20602 0.61747-0.17774 1.3833 0.08383 2.2933l0.03231 0.114c0.28076 0.97565 0.65241 1.6496 1.117 2.0219 0.46658 0.37129 0.9877 0.4742 1.5624 0.30974 0.38781-0.11098 0.70794-0.24516 0.96042-0.40357 0.25147-0.16244 0.44639-0.30269 0.58878-0.42073l0.36459 1.2622"/><polyline transform="matrix(0 -1.0089 1.0099 0 -226.38 454.59)" points="306.44 397.23 304.13 392.69 311.65 388.86 313.86 393.2 312.74 393.78 311.34 391.04 309.33 392.07 310.41 394.19 309.28 394.77 308.19 392.65 306.07 393.73 307.56 396.66 306.44 397.23"/><path d="m78.268 180.5-0.089885-0.21289c-0.36559-0.85861-0.78571-1.4529-1.2614-1.7868-0.47566-0.33396-0.9574-0.39752-1.4452-0.19069l-0.62716 0.26637 2.337 5.4998 0.77056-0.32589c0.47769-0.20179 0.75946-0.53575 0.8453-1.0019 0.083827-0.46916-0.091904-1.2178-0.52919-2.2479m1.7108-0.66388c0.5403 1.2713 0.70088 2.3175 0.48173 3.1358-0.21512 0.82028-0.79178 1.4277-1.731 1.8262l-2.7308 1.1572-3.3297-7.8375 2.4501-1.0382c1.119-0.47522 2.0623-0.47623 2.8298-0.00506 0.76956 0.46614 1.4018 1.2814 1.8956 2.4447l0.13432 0.31681z" fill-rule="evenodd"/><path d="m85.942 177.25-0.089875-0.21289c-0.41104-0.96656-0.79481-1.6496-1.1513-2.0502-0.35751-0.39954-0.83216-0.47421-1.428-0.22096-0.5504 0.23205-0.82712 0.59528-0.83216 1.0876-0.00101 0.49136 0.22521 1.2713 0.67967 2.3397l0.081798 0.19271c0.45749 1.0765 0.85237 1.7818 1.1846 2.1148 0.33226 0.33395 0.79076 0.37634 1.3765 0.12712 0.48072-0.20279 0.73623-0.56702 0.76653-1.0907 0.033327-0.52364-0.1626-1.2864-0.58778-2.2873m1.733-0.61344c0.52515 1.237 0.64635 2.2984 0.36357 3.1862-0.2848 0.88485-0.8867 1.5215-1.8047 1.913-0.90892 0.38542-1.7825 0.37332-2.6207-0.03531-0.83924-0.41266-1.5179-1.2279-2.036-2.4467l-0.18987-0.44697c-0.48173-1.1351-0.61403-2.1722-0.39488-3.1116 0.22218-0.93933 0.84025-1.6244 1.8542-2.0552 0.99073-0.41972 1.8946-0.37331 2.7106 0.13823 0.81904 0.51153 1.4654 1.3247 1.939 2.4386l0.17876 0.41972z" fill-rule="evenodd"/><polyline transform="matrix(0 -1.0089 1.0099 0 -226.38 454.59)" points="275.34 322.16 274.78 320.6 279.33 318.95 273.94 318.29 273.62 317.41 277.38 313.59 272.83 315.25 272.4 314.08 280.33 311.19 280.79 312.45 276.05 317.38 282.87 318.16 283.27 319.27 275.34 322.16"/></svg>
