<?xml version="1.0" encoding="UTF-8"?>
<svg version="1.1" viewBox="0 0 1200.8 1200.8" xmlns="http://www.w3.org/2000/svg"><g transform="translate(-70.086 -18.586)"><circle cx="670.5" cy="619" r="581.52" fill="#002c5a" fill-rule="evenodd"/><path d="m348.68 801.57a370 370 0 0 1-48.18-182.57 370 370 0 0 1 370-370 370 370 0 0 1 370 370 370 370 0 0 1-48.18 182.57" fill="#73c6e5" fill-rule="evenodd"/><circle transform="rotate(224.63)" cx="-912.03" cy="30.478" r="306.84" fill="none"/><g fill="#fff" fill-rule="evenodd" stroke-width="5"><path d="m475.86 381.5-13.995-15.828q-0.47524-0.53748-0.95048-1.075-0.4567-0.55386-3.8951-4.7788 3.0923 6.1491 4.1993 8.6708l8.173 18.73-3.8921 3.4414-17.588-10.405-8.1284-5.1967q4.0243 4.1032 5.2534 5.4932l13.995 15.828-4.8558 4.2935-23.09-26.114 7.3208-6.473 17.584 10.475 1.6532 1.048 3.9868 2.7163-2.5359-5.221-8.7522-19.572 7.2837-6.4403 23.09 26.114z"/><path d="m503.78 361.25-27.636-13.694q2.5621 2.9855 3.8948 4.9513l11.537 17.016-5.365 3.6373-19.561-28.852 6.9008-4.6785 27.945 13.753q-2.4649-2.8422-4.1864-5.3813l-11.37-16.771 5.365-3.6373 19.561 28.852z"/><path d="m516.9 353.26-17.099-30.376 6.3598-3.58 17.099 30.376z"/><path d="m564.29 320q1.937 4.7406-0.56043 8.7009-2.4839 3.928-9.2857 6.7072-6.2063 2.536-10.631 1.7785-4.4252-0.75745-7.2576-4.8115l6.0871-3.7433q1.7122 2.2936 4.1132 2.6755 2.3916 0.35902 5.8039-1.0353 7.0766-2.8915 5.3173-7.197-0.56146-1.3741-1.7509-1.9304-1.1665-0.56564-2.8984-0.55282-1.709 3e-3 -6.2462 0.86856-3.9647 0.63117-5.5904 0.70751-1.6351 0.0534-3.0609-0.16571-1.4352-0.24206-2.6391-0.8993-1.2039-0.65725-2.2047-1.7984-0.97787-1.1505-1.6797-2.8681-1.7873-4.3742 0.54245-8.0254 2.3433-3.6835 8.6184-6.2475 6.0002-2.4517 9.7676-1.7997 3.7903 0.64271 6.4292 4.6155l-6.1849 3.5695q-1.3554-1.8782-3.3432-2.2953-1.9649-0.4265-4.8504 0.75258-6.1376 2.5079-4.5655 6.3553 0.51468 1.2596 1.4834 1.7991 0.99167 0.53017 2.5081 0.57868 1.5071 0.0256 5.7695-0.72721 5.0514-0.91486 7.3901-0.88163 2.3522 9.8e-4 3.9787 0.64591 1.6172 0.62203 2.8718 1.9267 1.2453 1.2817 2.0688 3.2971z"/><path d="m601.2 301.54q1.4422 5.2481 0.46163 9.8023t-4.2617 7.7393q-3.2876 3.1613-8.4404 4.5773-7.9199 2.1765-13.707-1.2363-5.7697-3.4432-7.9986-11.554-2.2224-8.0869 1.0168-13.852 3.2392-5.765 11.231-7.9611t13.735 1.1516q5.7673 3.3412 7.9634 11.333zm-7.1804 1.9732q-1.4947-5.439-4.9167-7.8083-3.4286-2.3932-8.0804-1.1148-4.7233 1.298-6.454 5.0834-1.7372 3.7615-0.22944 9.2482 1.5209 5.5344 5.0234 8.0099 3.5198 2.4451 8.0762 1.1929 4.7233-1.298 6.4236-5.1006 1.7241-3.8092 0.15733-9.5106zm-19.229-15.729-0.20322-0.73951 4.3464-7.7112 6.1546-1.6914 0.28189 1.0258-6.5243 8.0019z"/><path d="m622.25 286.36 4.6486 28.845-7.2052 1.1612-4.6486-28.845-11.113 1.7909-0.89744-5.5688 29.456-4.747 0.89744 5.5688z"/><path d="m662.84 312.07-3.6157-8.707-13.262 0.78867-2.5583 9.0741-7.2853 0.43326 10.624-35.551 8.5942-0.51109 14.714 34.045zm-11.481-28.859-0.11586 0.55213q-0.19409 0.90374-0.47227 2.0603-0.27819 1.1566-3.5046 12.749l10.002-0.5948-4.0276-9.7977-1.2617-3.2955z"/><path d="m715.8 315.3 2.3371-20.998q0.0794-0.71304 0.15873-1.4261 0.10395-0.71031 0.92732-6.095-2.4819 6.4198-3.608 8.933l-8.3963 18.631-5.1634-0.5747-4.0942-20.021-1.6046-9.5132q-0.33986 5.7372-0.54511 7.5813l-2.3372 20.998-6.442-0.71702 3.856-34.644 9.7122 1.081 4.0396 20.065 0.33294 1.9289 0.66297 4.7784 2.1675-5.3844 8.6315-19.625 9.663 1.0755-3.856 34.644z"/><path d="m752.87 323.21-0.89655-9.3851-12.908-3.1445-5.1126 7.9212-7.0908-1.7274 20.605-30.858 8.3647 2.0378 4.0562 36.866zm-2.4905-30.959-0.27305 0.49368q-0.45116 0.80676-1.057 1.8305-0.60587 1.0237-7.0972 11.155l9.7348 2.3715-0.96955-10.549-0.23721-3.5208z"/><path d="m786.99 334.9-6.105-19.382-5.1856 1.5705-4.4624 11.907-6.834-2.5611 12.233-32.641 6.834 2.5611-5.5477 14.803 20.258-9.2903 7.9692 2.9865-19.12 8.5806 8.0229 24.486z"/><path d="m836.76 339.77q-2.5291 4.8194-6.3548 7.4777-3.8257 2.6582-8.3976 2.7456-4.5605 0.0654-9.2923-2.4177-7.2729-3.8166-9.1716-10.261-1.8652-6.4549 2.0434-13.903 3.8971-7.4263 10.2-9.4273 6.3026-2.001 13.641 1.8501 7.3387 3.8511 9.2499 10.218 1.9331 6.3788-1.918 13.717zm-6.5938-3.4602q2.6211-4.9947 1.7381-9.0622-0.87143-4.0894-5.1432-6.3311-4.3375-2.2762-8.1863-0.6918-3.8374 1.5625-6.4814 6.601-2.667 5.0823-1.7978 9.2823 0.90266 4.1896 5.0868 6.3853 4.3375 2.2762 8.1759 0.6584 3.8604-1.6063 6.6079-6.8419z"/><path d="m849.61 363.37q5.4222 3.7725 11.321-0.20054l3.8486 5.6011q-4.5679 2.9701-9.2504 2.726-4.6481-0.25021-9.197-3.4152-6.9047-4.804-7.9691-11.331-1.03-6.5333 3.8587-13.56 4.9029-7.0468 11.166-8.295t13.168 3.5558q5.0364 3.5041 6.7914 7.739 1.7692 4.2146 0.32167 9.0242l-6.2832-2.2318q0.82754-2.6189-0.26631-5.2485-1.0594-2.6358-3.7197-4.4867-4.0616-2.8259-7.9256-1.7771-3.8437 1.0629-7.2206 5.9164-3.4334 4.9348-3.0893 9.0319 0.36439 4.1112 4.4463 6.9512z"/><path d="m863.02 379.67 23.043-26.155 20.568 18.121-3.7288 4.2324-15.092-13.296-5.7894 6.5713 13.959 12.298-3.7288 4.2324-13.959-12.298-6.0674 6.8869 15.853 13.967-3.7288 4.2324z"/></g><g fill-rule="evenodd"><path d="m799.4 570.96c-2.8914-32.477-20.476-47.832-32.018-61.06-13.989-16.034-27.965-25.473-37.207-32.383-19.135-14.305-11.55-19.634 4.2241-37.821s56.108-64.273 56.108-64.273-38.785 19.27-49.745 23.364c-10.96 4.0936-10.165 5.6232-14.164 5.518-3.9988-0.10517-17.178-17.995-43.793 0.28594-26.616 18.281-45.738 36.234-38.946 72.493s34.531 65.884 22.508 78.83c-10.515 11.321-19.696 0.42171-27.905-8.2346-8.3103-8.763-30.755-42.099-41.895-46.704-15.829-6.5446-29.991-5.8423-44.512 14.398s-177.17 264.81-177.17 264.81 2.9636-1e-3 20.466-0.01c17.502-8e-3 27.882 3.2419 47.035-24.102s127.22-181.64 133.96-191.25c6.7322-9.6115 5.825 16.251-3.2272 29.175-9.0522 12.924-130.39 186.15-130.39 186.15s15.273-7e-3 26.782-0.0128c25.979-0.0122 23.107-4.2788 48.935-41.153 18.711-26.714 82.687-118.05 95.219-135.94 5.766-8.2321 4.2733 18.757-5.284 32.402l-101.34 144.68s10.311-5e-3 28.143-0.0135c20.981-0.01 27.524-0.78778 56.995-46.785 14.04-21.912 27.964-45.421 38.503-64.523 5.9985-10.873 14.057-24.358 18.003-31.42 2.6295-4.7052 7.9712-3.5417 7.7484 2.5922-0.31707 8.7304 2.4922 130.78 2.1457 161.52l33.2 2.4e-4c2.4968-4.6034 28.162-47.632 55.091-96.305 26.93-48.673 56.09-94.227 52.529-134.23z" stroke="#000" stroke-width="1.0016"/><circle cx="699.62" cy="423.38" r="8.153" fill="#e40032"/><path d="m664 482.9 38.572 43.649c0.94962 1.0746 0.55318 1.9415-0.86955 1.7685-5.2549-0.63903-17.548-3.5542-27.855-16.775-9.8517-12.638-11.545-23.173-11.74-27.954-0.0619-1.5232 0.88168-1.8325 1.8921-0.68909z" fill="#fff"/><path d="m723.74 492.33 38.24 27.223c1.6476 1.1729 1.3656 2.4468-0.65332 2.5173-4.9824 0.17401-14.487-0.74444-24.732-8.3042-10.038-7.4076-13.735-15.471-15.082-19.983-0.57763-1.935 0.57962-2.6266 2.2272-1.4536z" fill="#fff"/><path d="m692.82 485.55 40.388 37.883c1.046 0.9811 0.73522 1.9216-0.69751 1.9019-4.9199-0.0677-16.151-1.6525-27.618-13.194-0.13324-0.13412-0.34804-0.35292-0.47994-0.48852-10.871-11.176-13.147-20.731-13.566-25.234-0.14117-1.5172 0.8598-1.9123 1.9727-0.86843z" fill="#fff"/><path d="m700.06 751.44 75.141-144.91c1.0681-2.0598 0.0531-3.7968-2.2667-3.7622-9.0898 0.13556-31.015 1.5886-46.543 11.818-6.1302 4.0384-13.641 13.615-17.339 19.991-5.8768 10.133-8.4591 20.563-9.6754 40.372-0.45198 7.3616-0.77591 19.318-0.91147 26.693-0.37163 20.216-0.29386 40.939-0.23884 49.36 0.0141 2.1611 0.83774 2.3564 1.8334 0.43633z" fill="#fff"/></g><path d="m877.72 585.15-8.6797-39.009a38.335 38.335 45.13 0 0-28.924-29.056l-38.97-8.8562 38.591-8.5866a39.012 39.012 135.13 0 0 29.569-29.436l8.7612-38.552 8.5517 38.434a39.266 39.266 45.13 0 0 29.627 29.761l38.395 8.7256-38.51 8.5687a39.142 39.142 135.13 0 0-29.668 29.534z" fill="#fff" fill-rule="evenodd"/><path d="m877.72 585.15-8.8014-32.976a49.489 49.489 45.13 0 0-34.837-34.995l-32.935-8.9506 33.143-8.8461a49.188 49.188 135.13 0 0 34.782-34.625l8.9961-33.103 8.813 33.019a49.411 49.411 45.13 0 0 34.782 34.94l32.979 8.9624-33.237 8.8711a49.02 49.02 135.13 0 0-34.663 34.506z" fill="#fff" fill-rule="evenodd"/><path d="m966.43 537.91-77.625 181.4-44.668-88.307-86.729 170.49h233.94a370 370 0 0 0 40.961-109.48z" fill="#006847" fill-rule="evenodd" stroke="#2e673c" stroke-width="2"/><g fill="#f2ce00" fill-rule="evenodd"><path d="m570.3 454.38c-8.9018 0.0493-17.398 1.3426-25.158 3.7168-3.9578 1.2109-7.721 2.7054-11.252 4.457-21.084 6.2029-60.2 28.844-101.11 76.809-39.114 45.859-79.504 114.89-105.88 214.48a370 370 0 0 0 4.5742 12.264c15.509-62.144 36.465-112.48 59.275-152.88 7.9694 1.0191 9.9062 0.99636 16.363 0.55664 9.5167-0.64809 20.707-7.7857 27.57-14.672 0.46952-0.47106 0.30137-0.8909-0.36328-0.91601-9.5454-0.36066-18.69 0.71733-27.027 3.0449-4.3451 1.213-8.4711 2.7654-12.32 4.6309 5.2837-8.9925 10.651-17.451 16.062-25.428 6.1192 1.1656 7.6945 1.2382 12.809 1.207 7.5526-0.046 16.729-5.0844 22.561-10.189 0.50045-0.43808 0.35734-0.86947-0.30468-0.93359-7.519-0.72818-14.791-0.3135-21.492 1.1172-3.3297 0.71085-6.517 1.6758-9.5254 2.873 5.6603-8.0581 11.352-15.565 17.031-22.58 6.8261 1.1444 8.5312 1.1888 14.15 1.0274 8.2763-0.23773 18.215-6.0126 24.447-11.752 0.48926-0.45053 0.33707-0.87774-0.32617-0.92773-8.2621-0.62272-16.225 8e-3 -23.535 1.7422-3.0645 0.7271-6.0116 1.6512-8.8203 2.7559 0.15265-0.17964 0.30639-0.37578 0.45899-0.55469 5.7206-6.7071 11.404-12.85 17.016-18.562 8.031 1.6264 9.7383 1.7317 16.014 1.748 8.9336 0.0233 19.853-5.8896 26.742-11.869 0.50228-0.43596 0.36441-0.8661-0.29687-0.9375-8.8918-0.96004-17.505-0.55524-25.447 1.0684-3.3307 0.68084-6.5409 1.5794-9.6074 2.6777 10.18-9.7367 19.984-17.859 29.105-24.539 9.1945 2.3421 10.753 2.5136 17.559 2.8555 9.3336 0.46877 21.043-5.1757 28.523-11.082 0.52199-0.41216 0.40512-0.84998-0.25195-0.95312-9.2445-1.451-18.266-1.4576-26.646-0.15625-2.8316 0.43972-5.5885 1.0304-8.2578 1.7637 11.833-7.6808 22.044-12.69 29.689-15.402 5.0817 0.42516 7.3302 0.29267 12.645-0.20117 9.4978-0.8826 20.507-8.2923 27.199-15.346 0.45777-0.48249 0.2803-0.89753-0.38476-0.90625-0.59696-8e-3 -1.1937-0.0111-1.7871-8e-3z" color="#000000" style="-inkscape-stroke:none"/><path d="m622.23 351.36c-1.6542-2e-3 -3.2919 0.0464-4.9121 0.14258-8.9287 0.52981-17.296 2.548-24.623 5.9434-79.705 27.203-140.99 80.319-185.58 143.7-0.11608 0.0682-0.23428 0.13411-0.34961 0.20313 0.0643 0.0161 0.10823 0.027 0.17187 0.043-49.605 70.601-78.502 153.79-89.188 227.91a370 370 0 0 0 5.6055 15.029c7.8457-68.432 31.98-146.28 74.303-214.96 4.66 0.62599 6.521 0.60779 11.199 0.38477 7.961-0.37954 17.418-6.1105 23.324-11.748 0.48112-0.45922 0.32229-0.88285-0.3418-0.91992-7.9616-0.44452-15.614 0.30902-22.617 2.1113-2.2397 0.57637-4.4116 1.2606-6.5078 2.0469 3.9047-6.0607 8.0004-12.011 12.197-17.9 4.8262 1.1031 6.7627 1.2584 11.672 1.4707 8.3484 0.36095 18.774-4.7331 25.461-10.059 0.52027-0.41432 0.39816-0.85162-0.25976-0.94922-8.2719-1.2272-16.334-1.1708-23.818 0.0449-2.5418 0.41289-5.016 0.96296-7.4102 1.6387 4.1555-5.5726 8.4915-11.019 12.92-16.398 9.1354 2.759 10.752 3.0111 17.635 3.6621 9.4963 0.89818 21.692-4.3368 29.578-10.023 0.53947-0.389 0.44092-0.83071-0.21093-0.96289-9.3616-1.8983-18.56-2.313-27.164-1.3633-5.3964 0.5957-10.557 1.7317-15.379 3.3711 5.8198-6.8377 11.87-13.489 18.148-19.949 7.6758 2.2646 9.5984 2.5501 16.033 3.1426 9.4986 0.87452 21.681-4.3914 29.553-10.098 0.5385-0.39034 0.43929-0.83233-0.21289-0.96289-9.3663-1.875-18.566-2.2661-27.168-1.2949-3.8791 0.438-7.636 1.1536-11.232 2.1348 6.6042-6.4612 13.497-12.652 20.59-18.645 7.3619 2.5146 9.2966 2.8849 15.629 3.7441 9.4521 1.2825 21.851-3.4542 29.961-8.8164 0.5548-0.36681 0.47408-0.8122-0.17188-0.9707-9.277-2.2764-18.45-3.063-27.086-2.4629-3.2477 0.2257-6.4181 0.64905-9.4902 1.2617 9.107-7.2218 18.607-14.023 28.488-20.385 8.8274 3.3745 10.445 3.7464 17.238 4.8867 9.4071 1.579 21.948-2.7646 30.223-7.8691 0.56606-0.34919 0.50001-0.79588-0.14062-0.97461-9.2008-2.5669-18.346-3.6428-26.996-3.3144-3.6179 0.13731-7.1478 0.52462-10.561 1.1465 9.9252-5.9321 20.239-11.39 30.92-16.365 9.5028 3.5009 11.049 3.8525 18.035 4.9297 9.4273 1.4537 21.911-3.0573 30.117-8.2715 0.56136-0.35668 0.48867-0.80442-0.1543-0.97461-9.2342-2.4442-18.394-3.3966-27.039-2.9531-1.7976 0.0922-3.571 0.2488-5.3203 0.46094 8.7127-3.5341 17.668-6.7312 26.859-9.5859 3.56 1.0922 5.8292 1.4829 10.334 2.1406 9.4387 1.378 21.885-3.2318 30.049-8.5117 0.55848-0.36118 0.48221-0.80764-0.16211-0.97266-7.5185-1.9257-14.978-2.8684-22.146-2.8789z" color="#000000" style="-inkscape-stroke:none"/><path d="m428.6 415.51c-0.0686 7e-3 -0.1428 0.0218-0.22266 0.0449-10.398 3.0061-19.848 7.4246-27.979 12.902-5.313 3.5794-10.061 7.6126-14.143 12l-6e-3 -6e-3c-0.0156 0.0191-0.0428 0.0569-0.0586 0.0762-2.3703 2.5544-4.5165 5.2267-6.4141 8.002 0.20764-0.039 0.35217-0.0674 0.55469-0.10547-9.1094 12.973-24.679 38.206-39.596 74.879-15.847 38.96-30.693 90.545-35.5 152.83a370 370 0 0 0 6.0547 27.834c1.6478-63.126 14.057-116.28 28.793-157.81 5.4392 0.51239 7.2606 0.41145 12.34-0.0606 8.2375-0.76549 17.78-7.1583 23.629-13.279 0.45948-0.48086 0.28032-0.8968-0.38476-0.9043-8.2783-0.0933-16.179 1.0421-23.357 3.2383-3.3666 1.03-6.5724 2.2946-9.5859 3.7734 1.6378-4.3888 3.289-8.6872 4.959-12.793 1.433-3.5232 2.8752-6.9055 4.3184-10.219 6.0461 0.58303 7.9051 0.47741 13.379-0.0312 8.699-0.80837 18.778-7.5747 24.936-14.037 0.4588-0.48151 0.2803-0.89827-0.38477-0.90625-8.7445-0.10495-17.089 1.0928-24.67 3.4121-3.4383 1.0519-6.7188 2.3352-9.8086 3.832 4.6436-10.131 9.2252-19.115 13.535-26.963 6.9198 0.0749 8.9281-0.20347 14.926-1.293 9.3851-1.7048 19.71-10.044 25.764-17.652 0.41409-0.52046 0.19846-0.91827-0.46484-0.86914-9.5261 0.70559-18.493 2.7946-26.52 6.0371-2.8066 1.1338-5.4947 2.4107-8.0547 3.8164 7.5026-12.717 13.476-21.037 16.578-24.971 5.5336-1.1991 7.9166-2.084 13.445-4.3477 9.997-4.0931 19.475-15.791 24.352-25.625 0.25856-0.52137 0.0659-0.85218-0.41406-0.80273z" color="#000000" style="-inkscape-stroke:none"/></g><path d="m670.5 936.1c-69.012 0-63.531 25.832-125.29 30.066a370 370 0 0 0 125.29 22.836 370 370 0 0 0 125.29-22.836c-61.755-4.2342-56.274-30.066-125.29-30.066z" fill="#73c6e5" fill-rule="evenodd"/><path d="m952.01 858.35a370 370 0 0 0 30.712-41.055c-7.3229-0.76347-15.6-1.2207-25.295-1.2207-81.569 0-68.295 30.668-143.46 30.668-75.168 0-61.894-30.668-143.46-30.668s-68.295 30.668-143.46 30.668c-75.168 0-61.894-30.668-143.46-30.668-9.6947 0-17.972 0.45724-25.295 1.2207a370 370 0 0 0 30.55 41.166" fill="#73c6e5" fill-rule="evenodd"/><path d="m885.54 919.61a370 370 0 0 0 24.651-19.023c-28.054-8.9563-38.164-24.457-96.225-24.457-81.569 0-68.295 30.668-143.46 30.668-75.168 0-61.894-30.668-143.46-30.668-58.06 0-68.17 15.501-96.225 24.457a370 370 0 0 0 24.699 19.188" fill="#73c6e5" fill-rule="evenodd"/><path class="UnoptimicedTransforms" d="m680.55 231.62c0 5.5515-4.5004 10.052-10.052 10.052s-10.052-4.5004-10.052-10.052c0-5.5515 4.5004-10.052 10.052-10.052s10.052 4.5004 10.052 10.052zm-30.05 0.38594c0.4302 5.5348-3.7079 10.37-9.2427 10.801s-10.37-3.7079-10.801-9.2427 3.7079-10.37 9.2427-10.801 10.37 3.7079 10.801 9.2427zm-29.929 2.7134c0.85781 5.4848-2.8931 10.627-8.378 11.484-5.4848 0.85782-10.627-2.8931-11.484-8.378-0.85781-5.4848 2.8931-10.627 8.378-11.484 5.4848-0.85781 10.627 2.8931 11.484 8.378zm-29.629 5.0245c1.2803 5.4019-2.061 10.819-7.4628 12.099s-10.819-2.061-12.099-7.4628c-1.2803-5.4019 2.061-10.819 7.4628-12.099 5.4019-1.2803 10.819 2.061 12.099 7.4628zm-29.151 7.3054c1.695 5.2864-1.2164 10.946-6.5028 12.641-5.2864 1.695-10.946-1.2164-12.641-6.5028s1.2164-10.946 6.5028-12.641c5.2864-1.695 10.946 1.2164 12.641 6.5028zm-28.497 9.5424c2.0996 5.1392-0.3645 11.007-5.5037 13.107-5.1392 2.0996-11.007-0.36449-13.107-5.5037s0.36449-11.007 5.5037-13.107 11.007 0.36449 13.107 5.5037zm-27.672 11.722c2.4915 4.961 0.48959 11.002-4.4714 13.494-4.961 2.4915-11.002 0.48959-13.494-4.4714-2.4915-4.961-0.48959-11.002 4.4714-13.494 4.961-2.4915 11.002-0.48959 13.494 4.4714zm-26.68 13.831c2.8685 4.753 1.3407 10.931-3.4123 13.8-4.753 2.8685-10.931 1.3407-13.8-3.4123-2.8685-4.753-1.3407-10.931 3.4123-13.8s10.931-1.3407 13.8 3.4123zm-25.528 15.857c3.2282 4.5164 2.1838 10.795-2.3326 14.023-4.5164 3.2282-10.795 2.1838-14.023-2.3326-3.2282-4.5164-2.1838-10.795 2.3326-14.023 4.5164-3.2282 10.795-2.1838 14.023 2.3326zm-24.222 17.788c3.5684 4.2527 3.0137 10.593-1.239 14.161-4.2527 3.5684-10.593 3.0137-14.161-1.239-3.5684-4.2527-3.0137-10.593 1.239-14.161 4.2527-3.5684 10.593-3.0137 14.161 1.239zm-22.771 19.611c3.8873 3.9634 3.8256 10.328-0.13784 14.215-3.9634 3.8873-10.328 3.8256-14.215-0.13783-3.8873-3.9634-3.8256-10.328 0.13784-14.215 3.9634-3.8873 10.328-3.8256 14.215 0.13783zm-21.183 21.317c4.1827 3.6502 4.6144 10 0.96413 14.183-3.6502 4.1827-10 4.6144-14.183 0.96413-4.1827-3.6502-4.6144-10-0.96412-14.183 3.6502-4.1827 10-4.6144 14.183-0.96412zm-19.467 22.894c4.453 3.3151 5.3754 9.6124 2.0603 14.065-3.3151 4.453-9.6124 5.3754-14.065 2.0603-4.453-3.3151-5.3754-9.6124-2.0603-14.065 3.3151-4.453 9.6124-5.3754 14.065-2.0603zm-17.635 24.334c4.6965 2.9601 6.1041 9.167 3.144 13.864-2.9601 4.6965-9.167 6.1041-13.863 3.144-4.6965-2.9601-6.1042-9.167-3.1441-13.863 2.9601-4.6965 9.167-6.1042 13.864-3.1441zm-15.696 25.627c4.9118 2.5872 6.7962 8.6664 4.2089 13.578-2.5872 4.9118-8.6664 6.7962-13.578 4.2089s-6.7962-8.6664-4.2089-13.578c2.5872-4.9118 8.6664-6.7962 13.578-4.2089zm-13.663 26.767c5.0975 2.1988 7.4473 8.1137 5.2485 13.211-2.1988 5.0975-8.1137 7.4473-13.211 5.2485s-7.4473-8.1137-5.2485-13.211c2.1988-5.0975 8.1137-7.4473 13.211-5.2485zm-11.548 27.745c5.2526 1.7972 8.0537 7.5122 6.2564 12.765-1.7972 5.2526-7.5122 8.0537-12.765 6.2564-5.2526-1.7972-8.0537-7.5122-6.2564-12.765 1.7972-5.2526 7.5122-8.0537 12.765-6.2564zm-9.3629 28.556c5.376 1.3848 8.6116 6.8655 7.2268 12.242-1.3848 5.376-6.8655 8.6116-12.242 7.2268-5.376-1.3848-8.6116-6.8655-7.2268-12.242 1.3848-5.376 6.8655-8.6116 12.242-7.2268zm-7.1218 29.196c5.4672 0.96401 9.1177 6.1775 8.1537 11.645-0.96401 5.4672-6.1775 9.1177-11.645 8.1537s-9.1177-6.1775-8.1537-11.645c0.96401-5.4672 6.1775-9.1177 11.645-8.1537zm-4.838 29.66c5.5254 0.53745 9.569 5.4524 9.0316 10.978-0.53744 5.5254-5.4524 9.569-10.978 9.0316-5.5254-0.53745-9.569-5.4524-9.0316-10.978 0.53744-5.5254 5.4524-9.569 10.978-9.0316zm-2.525 29.946c5.5505 0.10765 9.9628 4.6945 9.8551 10.245s-4.6945 9.9628-10.245 9.8551c-5.5505-0.10765-9.9627-4.6945-9.8551-10.245s4.6945-9.9627 10.245-9.8551zm-0.19683 30.051c5.5421-0.32279 10.297 3.9083 10.619 9.4504 0.3228 5.5421-3.9083 10.297-9.4504 10.619-5.5421 0.32279-10.297-3.9083-10.619-9.4504-0.32279-5.5421 3.9083-10.297 9.4504-10.619zm2.1325 29.976c5.5004-0.75129 10.568 3.0986 11.32 8.5991 0.75129 5.5004-3.0986 10.568-8.5991 11.32-5.5004 0.7513-10.568-3.0986-11.32-8.5991s3.0986-10.568 8.5991-11.32zm4.449 29.721c5.4257-1.1753 10.777 2.2704 11.952 7.696 1.1753 5.4257-2.2704 10.777-7.696 11.952s-10.777-2.2704-11.952-7.696c-1.1753-5.4257 2.2704-10.777 7.696-11.952zm6.7388 29.287c5.3183-1.5922 10.92 1.4284 12.513 6.7467s-1.4284 10.92-6.7467 12.513c-5.3183 1.5922-10.92-1.4284-12.513-6.7467s1.4284-10.92 6.7467-12.513zm8.988 28.676c5.1789-1.9995 10.998 0.57787 12.998 5.7568 1.9995 5.1789-0.57787 10.998-5.7568 12.998-5.1789 1.9995-10.998-0.57787-12.998-5.7568s0.57787-10.998 5.7568-12.998zm11.183 27.894c5.0084-2.3948 11.01-0.27614 13.405 4.7322 2.3948 5.0084 0.27614 11.01-4.7322 13.405-5.0084 2.3948-11.01 0.27615-13.405-4.7322-2.3948-5.0084-0.27615-11.01 4.7322-13.405zm13.311 26.943c4.8078-2.7758 10.955-1.1285 13.731 3.6792 2.7758 4.8078 1.1285 10.955-3.6793 13.731-4.8078 2.7758-10.955 1.1285-13.731-3.6793-2.7758-4.8078-1.1285-10.955 3.6792-13.731zm15.359 25.831c4.5782-3.14 10.835-1.9741 13.975 2.6041 3.14 4.5782 1.9741 10.835-2.6041 13.975-4.5782 3.14-10.835 1.9741-13.975-2.6041-3.14-4.5782-1.9741-10.835 2.6041-13.975zm17.314 24.563c4.3211-3.4853 10.649-2.8078 14.135 1.5133s2.8078 10.649-1.5133 14.135c-4.3211 3.4853-10.649 2.8078-14.135-1.5134-3.4853-4.3211-2.8078-10.649 1.5133-14.135zm19.166 23.147c4.038-3.8097 10.4-3.6246 14.21 0.41345 3.8097 4.038 3.6246 10.4-0.41346 14.21-4.038 3.8097-10.4 3.6246-14.21-0.41346-3.8097-4.038-3.6246-10.4 0.41345-14.21zm20.902 21.592c3.7307-4.1111 10.088-4.4196 14.199-0.68891 4.1111 3.7307 4.4196 10.088 0.68891 14.199-3.7307 4.1111-10.088 4.4196-14.199 0.68892s-4.4196-10.088-0.68892-14.199zm22.512 19.908c3.4009-4.3879 9.7149-5.188 14.103-1.7872 4.3879 3.4009 5.188 9.7149 1.7872 14.103-3.4009 4.3879-9.7149 5.188-14.103 1.7872-4.3879-3.4009-5.188-9.7149-1.7872-14.103zm23.987 18.103c3.0506-4.6382 9.2836-5.9252 13.922-2.8746 4.6382 3.0506 5.9252 9.2836 2.8746 13.922s-9.2836 5.9252-13.922 2.8746-5.9252-9.2836-2.8746-13.922zm25.318 16.19c2.682-4.8607 8.7966-6.6268 13.657-3.9448 4.8607 2.682 6.6268 8.7966 3.9448 13.657-2.682 4.8607-8.7966 6.6268-13.657 3.9448-4.8607-2.682-6.6268-8.7966-3.9448-13.657zm26.497 14.179c2.2973-5.0539 8.2566-7.2886 13.31-4.9913 5.0539 2.2973 7.2886 8.2566 4.9913 13.31-2.2973 5.0539-8.2566 7.2886-13.31 4.9913-5.0539-2.2973-7.2886-8.2566-4.9913-13.31zm27.516 12.083c1.8987-5.2167 7.6669-7.9065 12.884-6.0078 5.2167 1.8987 7.9065 7.6669 6.0077 12.884-1.8987 5.2167-7.6669 7.9065-12.884 6.0078-5.2167-1.8987-7.9065-7.6669-6.0077-12.884zm28.369 9.9149c1.4888-5.3482 7.0312-8.4768 12.379-6.9881 5.3482 1.4888 8.4768 7.0312 6.9881 12.379-1.4888 5.3481-7.0312 8.4768-12.379 6.988-5.3482-1.4887-8.4768-7.0311-6.9881-12.379zm29.052 7.6867c1.0698-5.4474 6.3532-8.9962 11.801-7.9264 5.4475 1.0698 8.9962 6.3532 7.9264 11.801-1.0698 5.4475-6.3532 8.9962-11.801 7.9264-5.4474-1.0699-8.9962-6.3532-7.9264-11.801zm29.561 5.4122c0.64449-5.514 5.6369-9.4615 11.151-8.817 5.514 0.64449 9.4615 5.6369 8.817 11.151-0.64449 5.5139-5.6369 9.4614-11.151 8.817-5.514-0.6445-9.4615-5.637-8.817-11.151zm29.891 3.1052c0.21526-5.5474 4.8868-9.8699 10.434-9.6546s9.8698 4.8868 9.6546 10.434-4.8868 9.8698-10.434 9.6546c-5.5473-0.2153-9.8698-4.8868-9.6546-10.434zm30.042 0.7795c-0.21526-5.5473 4.1072-10.219 9.6546-10.434s10.219 4.1072 10.434 9.6546c0.21526 5.5473-4.1072 10.219-9.6546 10.434-5.5473 0.2152-10.219-4.1073-10.434-9.6546zm30.012-1.5508c-0.6445-5.514 3.303-10.506 8.817-11.151 5.514-0.64449 10.506 3.303 11.151 8.817 0.64449 5.5139-3.303 10.506-8.817 11.151-5.514 0.6444-10.506-3.3031-11.151-8.817zm29.802-3.8719c-1.0698-5.4474 2.4789-10.731 7.9264-11.801 5.4474-1.0698 10.731 2.4789 11.801 7.9264 1.0698 5.4474-2.4789 10.731-7.9264 11.801-5.4475 1.0698-10.731-2.4789-11.801-7.9264zm29.412-6.1696c-1.4888-5.3482 1.6399-10.891 6.9881-12.379 5.3482-1.4888 10.891 1.6399 12.379 6.9881 1.4888 5.3482-1.6399 10.891-6.9881 12.379-5.3482 1.4888-10.891-1.6399-12.379-6.988zm28.845-8.4303c-1.8987-5.2167 0.79103-10.985 6.0077-12.884 5.2167-1.8987 10.985 0.79103 12.884 6.0078 1.8987 5.2167-0.79103 10.985-6.0077 12.884-5.2167 1.8987-10.985-0.79103-12.884-6.0078zm28.105-10.64c-2.2973-5.0539-0.0626-11.013 4.9913-13.31 5.0539-2.2973 11.013-0.0626 13.31 4.9913 2.2973 5.0539 0.0626 11.013-4.9913 13.31-5.0539 2.2973-11.013 0.0626-13.31-4.9913zm27.196-12.786c-2.682-4.8607-0.91585-10.975 3.9448-13.657 4.8607-2.682 10.975-0.91584 13.657 3.9448 2.682 4.8607 0.91585 10.975-3.9448 13.657-4.8607 2.682-10.975 0.91585-13.657-3.9448zm26.124-14.855c-3.0506-4.6382-1.7636-10.871 2.8746-13.922 4.6382-3.0506 10.871-1.7636 13.922 2.8746 3.0506 4.6382 1.7636 10.871-2.8746 13.922s-10.871 1.7636-13.922-2.8746zm24.894-16.835c-3.4009-4.3879-2.6007-10.702 1.7872-14.103 4.3879-3.4009 10.702-2.6007 14.103 1.7872 3.4009 4.3879 2.6007 10.702-1.7872 14.103-4.3879 3.4009-10.702 2.6007-14.103-1.7872zm23.515-18.713c-3.7307-4.1111-3.4222-10.468 0.68891-14.199 4.1111-3.7307 10.468-3.4222 14.199 0.68891s3.4222 10.468-0.68892 14.199-10.468 3.4222-14.199-0.68892zm21.994-20.479c-4.038-3.8097-4.2231-10.172-0.41346-14.21 3.8097-4.038 10.172-4.2231 14.21-0.41345 4.038 3.8097 4.2231 10.172 0.41345 14.21-3.8097 4.038-10.172 4.2231-14.21 0.41346zm20.341-22.122c-4.3211-3.4853-4.9986-9.8137-1.5133-14.135s9.8136-4.9986 14.135-1.5133c4.3211 3.4853 4.9986 9.8136 1.5133 14.135-3.4853 4.3211-9.8137 4.9986-14.135 1.5134zm18.565-23.632c-4.5782-3.14-5.7441-9.3968-2.6041-13.975 3.14-4.5782 9.3968-5.7441 13.975-2.6041 4.5782 3.14 5.7441 9.3968 2.6041 13.975-3.14 4.5782-9.3968 5.7441-13.975 2.6041zm16.678-24.999c-4.8077-2.7758-6.455-8.9234-3.6792-13.731 2.7757-4.8078 8.9234-6.455 13.731-3.6792 4.8078 2.7758 6.455 8.9234 3.6793 13.731-2.7758 4.8078-8.9234 6.455-13.731 3.6793zm14.691-26.217c-5.0084-2.3948-7.1271-8.3964-4.7323-13.405s8.3964-7.1271 13.405-4.7322c5.0083 2.3948 7.127 8.3964 4.7322 13.405-2.3948 5.0084-8.3964 7.1271-13.405 4.7322zm12.615-27.276c-5.1789-1.9995-7.7563-7.8188-5.7568-12.998 1.9996-5.1789 7.8189-7.7563 12.998-5.7568s7.7563 7.8188 5.7568 12.998c-1.9996 5.1789-7.8189 7.7563-12.998 5.7568zm10.463-28.172c-5.3183-1.5922-8.3389-7.1942-6.7467-12.513s7.1942-8.3389 12.512-6.7467c5.3183 1.5922 8.3389 7.1942 6.7467 12.513s-7.1942 8.3389-12.512 6.7467zm8.2485-28.898c-5.4256-1.1753-8.8713-6.5264-7.696-11.952s6.5264-8.8713 11.952-7.696 8.8713 6.5264 7.696 11.952c-1.1752 5.4257-6.5264 8.8713-11.952 7.696zm5.9845-29.45c-5.5005-0.75129-9.3504-5.8193-8.5991-11.32 0.7513-5.5004 5.8193-9.3504 11.32-8.5991 5.5005 0.7513 9.3504 5.8193 8.5991 11.32s-5.8193 9.3504-11.32 8.5991zm3.6842-29.825c-5.5421-0.3228-9.7732-5.0772-9.4504-10.619s5.0772-9.7732 10.619-9.4504c5.5422 0.32279 9.7733 5.0772 9.4505 10.619-0.3228 5.5421-5.0773 9.7732-10.619 9.4504zm1.3619-30.021c-5.5504 0.10766-10.137-4.3046-10.245-9.8551-0.1076-5.5505 4.3046-10.137 9.8551-10.245s10.137 4.3046 10.245 9.8551c0.1077 5.5505-4.3046 10.137-9.8551 10.245zm-0.9685-30.036c-5.5255 0.53745-10.44-3.5061-10.978-9.0316-0.5375-5.5254 3.5061-10.44 9.0315-10.978 5.5254-0.53744 10.44 3.5061 10.978 9.0316 0.5375 5.5254-3.5061 10.44-9.0315 10.978zm-3.2933-29.871c-5.4671 0.96401-10.681-2.6865-11.645-8.1537-0.964-5.4672 2.6866-10.681 8.1537-11.645 5.4672-0.96402 10.681 2.6865 11.645 8.1537 0.964 5.4672-2.6865 10.681-8.1537 11.645zm-5.5981-29.526c-5.376 1.3848-10.857-1.8508-12.242-7.2268s1.8508-10.857 7.2268-12.242c5.376-1.3848 10.857 1.8508 12.242 7.2268s-1.8508 10.857-7.2268 12.242zm-7.8693-29.003c-5.2526 1.7972-10.968-1.0039-12.765-6.2564-1.7972-5.2526 1.0039-10.968 6.2565-12.765 5.2525-1.7972 10.968 1.0039 12.765 6.2564 1.7972 5.2526-1.0039 10.968-6.2564 12.765zm-10.093-28.306c-5.0975 2.1988-11.012-0.15098-13.211-5.2485-2.1989-5.0975 0.151-11.012 5.2484-13.211 5.0975-2.1988 11.012 0.15097 13.211 5.2485 2.1989 5.0975-0.151 11.012-5.2484 13.211zm-12.256-27.439c-4.9118 2.5872-10.991 0.70285-13.578-4.2089-2.5872-4.9118-0.7028-10.991 4.2089-13.578 4.9118-2.5872 10.991-0.70285 13.578 4.2089 2.5872 4.9118 0.7028 10.991-4.2089 13.578zm-14.346-26.407c-4.6965 2.9601-10.903 1.5524-13.863-3.144-2.9601-4.6965-1.5524-10.903 3.144-13.864 4.6965-2.9601 10.903-1.5524 13.864 3.1441 2.9601 4.6965 1.5524 10.903-3.1441 13.863zm-16.349-25.216c-4.453 3.3151-10.75 2.3927-14.065-2.0603-3.3151-4.453-2.3927-10.75 2.0603-14.065 4.453-3.3151 10.75-2.3927 14.065 2.0603 3.3151 4.453 2.3927 10.75-2.0603 14.065zm-18.254-23.873c-4.1827 3.6502-10.533 3.2186-14.183-0.96413-3.6502-4.1827-3.2186-10.533 0.96413-14.183 4.1827-3.6502 10.533-3.2186 14.183 0.96412 3.6502 4.1827 3.2186 10.533-0.96412 14.183zm-20.049-22.387c-3.8873 3.9634-10.251 4.0251-14.215 0.13783-3.9634-3.8873-4.0251-10.251-0.13784-14.215s10.251-4.0251 14.215-0.13783c3.9634 3.8873 4.0251 10.251 0.13784 14.215zm-21.724-20.766c-3.5684 4.2527-9.9087 4.8074-14.161 1.239-4.2527-3.5684-4.8074-9.9087-1.239-14.161 3.5684-4.2527 9.9087-4.8074 14.161-1.239 4.2527 3.5684 4.8074 9.9087 1.239 14.161zm-23.267-19.02c-3.2282 4.5164-9.5064 5.5608-14.023 2.3326-4.5164-3.2282-5.5608-9.5064-2.3326-14.023 3.2282-4.5164 9.5064-5.5608 14.023-2.3326 4.5164 3.2282 5.5608 9.5064 2.3326 14.023zm-24.671-17.16c-2.8685 4.753-9.0469 6.2808-13.8 3.4123-4.753-2.8685-6.2808-9.0469-3.4123-13.8 2.8685-4.753 9.0469-6.2808 13.8-3.4123s6.2808 9.0469 3.4123 13.8zm-25.927-15.196c-2.4915 4.961-8.533 6.9629-13.494 4.4714-4.961-2.4915-6.9629-8.533-4.4714-13.494 2.4915-4.961 8.533-6.9629 13.494-4.4714 4.961 2.4915 6.9629 8.533 4.4714 13.494zm-27.026-13.141c-2.0996 5.1392-7.9678 7.6032-13.107 5.5037-5.1392-2.0996-7.6032-7.9678-5.5037-13.107 2.0996-5.1392 7.9678-7.6032 13.107-5.5037s7.6032 7.9678 5.5037 13.107zm-27.964-11.007c-1.695 5.2864-7.3546 8.1978-12.641 6.5028-5.2864-1.695-8.1978-7.3546-6.5028-12.641 1.695-5.2864 7.3546-8.1978 12.641-6.5028 5.2864 1.695 8.1978 7.3546 6.5028 12.641zm-28.732-8.8074c-1.2803 5.4019-6.6972 8.7431-12.099 7.4628s-8.7431-6.6972-7.4628-12.099c1.2803-5.4019 6.6972-8.7431 12.099-7.4628 5.4019 1.2803 8.7431 6.6972 7.4628 12.099zm-29.329-6.5544c-0.85782 5.4848-5.9996 9.2358-11.484 8.378-5.4848-0.85781-9.2358-5.9996-8.378-11.484 0.85781-5.4848 5.9996-9.2358 11.484-8.378 5.4848 0.85782 9.2358 5.9996 8.378 11.484zm-29.748-4.2619c-0.4302 5.5348-5.2658 9.6729-10.801 9.2427s-9.6729-5.2658-9.2427-10.801 5.2658-9.6729 10.801-9.2427 9.6729 5.2658 9.2427 10.801z" fill="#73c6e5" fill-rule="evenodd"/><circle cx="670.5" cy="619" r="424.43" fill="none"/><g transform="rotate(97.301 669.57 619.97)" fill="#fff" fill-rule="evenodd" stroke-width="2"><path d="m1106.7 645.81 56.029 4.5496q0.484-9.9134-3.2825-14.928-3.6689-4.8997-13.019-7.0501l0.2504-3.0832 21.344 2.0542-5.1798 63.79-21.387-1.5226 0.2504-3.0832q9.5744-0.61377 13.994-4.9636 4.5176-4.2349 5.6308-13.99l-56.029-4.5496q-6.0601-0.49209-7.793 1.0795-1.7415 1.6779-2.8342 8.5453l-2.658-0.21582 3.0821-37.955 2.6579 0.21583q-0.021 6.8474 1.4357 8.678 1.5543 1.9455 7.508 2.429z"/><path d="m1111 749.26 6.6058-24.843-23.71-6.3043q-3.8142-1.0142-5.7233 0.35454-1.9366 1.4718-4.0627 6.977l-2.5771-0.68525 9.2372-34.74 2.5771 0.68524q-0.7037 5.5523 0.1978 7.558 0.9772 2.1362 4.7914 3.1503l49.893 13.266q3.8141 1.0142 5.7507-0.45762 2.0122-1.3413 3.8982-6.3585l2.5771 0.68525-9.2371 34.74-2.5772-0.68525q1.013-5.47-0.013-7.8398-0.9224-2.3424-4.8396-3.3839l-21.339-5.6738-6.6057 24.843 21.338 5.6738q3.9172 1.0416 5.8812-0.5333 2.0671-1.5475 3.9047-6.7982l2.5771 0.68525-9.3193 35.049-2.5771-0.68524q0.9855-5.367-0.04-7.7367-1.0529-2.2667-4.8671-3.2808l-49.893-13.266q-3.8142-1.0142-5.7233 0.35454-1.8061 1.3961-4.0078 6.7708l-2.5771-0.68525 9.3193-35.049 2.5771 0.68524q-0.889 5.8341 0.088 7.9703 0.9498 2.2393 4.764 3.2534z"/><path d="m1056.3 803.63q-4.9725 10.51-3.3304 18.013t8.353 15.516l-1.2773 2.6997-18.23-13.346 26.687-56.405 2.4105 1.1405q-1.9762 5.6732-1.4527 7.8089 0.5236 2.1358 4.2839 3.9149l46.667 22.08q3.664 1.7335 5.9314 0.68229t4.9289-5.9282l2.4105 1.1405-26.322 55.634-19.38-9.1695 1.1405-2.4105q10.509 2.73 15.88-0.39268 5.468-3.077 11.034-14.84 1.7791-3.7604 1.408-5.47-0.2747-1.664-2.9744-2.9414l-22.369-10.584-0.1824 0.38567q-3.604 7.6171-2.0696 12.355 1.6307 4.7837 9.2281 9.6764l-1.1861 2.5069-32.59-15.419 1.1861-2.5069q8.799 3.1011 13.72 1.1811 4.8749-1.8236 8.6157-9.73l-23.333-11.04q-3.0854-1.4598-5.018-0.36814-1.9782 1.1881-4.1679 5.8162z"/><path d="m1056.1 934.36q-3.1781 3.8773-7.0229 6.3805-3.83 2.6534-6.7132 4.1518-2.8833 1.4984-3.8976 2.7359-0.9467 1.1549-0.7979 2.6561 0.1488 1.5011 1.6174 4.0842l-1.8257 2.2274-19.304-15.823 1.6904-2.0624q6.4603 1.7094 10.505 1.9907 4.0599 0.43141 8.5335-0.31511 9.015-1.5755 13.613-7.1852 6.1533-7.5071 2.5668-16.929-3.5717-9.2719-16.523-19.888-14.767-12.104-26.009-12.354-8.3604-0.2326-14.446 7.192-3.3809 4.1248-3.5338 7.1717-0.0703 3.1145 3.0645 5.684l8.662 7.1q3.3823 2.7724 5.657 2.0164 2.2896-0.60587 6.9472-5.6151l2.0624 1.6905-23.193 28.296-2.0624-1.6905q3.2917-5.0254 2.986-7.3448t-4.7604-5.9708l-10.477-8.5876q0.93584-5.8531 4.6048-13.19 3.669-7.3367 8.9433-13.771 10.616-12.952 25.38-14.642 14.779-1.5404 27.566 8.9405 12.704 10.413 14.507 25.545 1.7351 15.214-8.3401 27.506z"/><path d="m955.16 1003.5q-2.121-2.5368-3.0816-5.3487-1.0424-2.7434-1.0599-5.0924-0.0309-2.1988 0.89341-4.9181 0.84245-2.6509 1.9318-4.6739 1.0075-1.9546 2.6012-4.5384l-35.948-9.5701q-2.5275-0.52854-4.6551 1.2504l-1.7105-2.0458 16.776-14.026 38.355 11.451 2.2095-1.8473-13.41-16.039q-3.6262-4.3371-5.9484-4.6202-2.3222-0.28304-7.5474 3.1124l-1.7105-2.0458 27.659-23.126 1.7105 2.0458q-4.3492 4.6096-4.4686 6.7949-0.20121 2.2538 3.5618 6.7546l30.241 36.17q3.6946 4.419 6.2489 4.647 2.4724 0.29645 7.2469-3.1393l1.7105 2.0458-26.35 22.031q-11.211 9.3734-20.25 10.535-9.1211 1.2303-15.005-5.8073zm34.402-8.7418q4.419-3.6946 1.5454-7.1316l-17.447-20.867q-8.6193 7.4845-9.7448 12.458t4.9638 12.256q5.4051 6.4648 10.186 7.1945 4.8496 0.81157 10.496-3.9094z"/><path d="m882.04 990.77q-10.08 5.7937-13.013 12.892-2.9326 7.0989-1.9937 17.509l-2.5894 1.4882-7.3566-21.362 54.101-31.095 1.3288 2.312q-4.86 3.5314-5.6486 5.5841t1.2843 5.6594l25.726 44.76q2.0198 3.5142 4.4818 3.9447 2.4619 0.4304 7.4304-2.0561l1.3288 2.312-53.361 30.669-10.684-18.588 2.312-1.3288q7.0724 8.2381 13.266 8.7386 6.2462 0.593 17.529-5.8917 3.6067-2.073 4.2774-3.6888 0.72386-1.5233-0.76443-4.1127l-12.331-21.455-0.36992 0.2127q-7.3059 4.199-8.7493 8.9656-1.3903 4.859 2.0573 13.212l-2.4045 1.382-17.966-31.258 2.4045-1.382q5.4566 7.5674 10.593 8.7982 5.044 1.284 12.627-3.0746l-12.863-22.38q-1.7009-2.9594-3.9109-3.1655-2.3025-0.15301-6.7415 2.3983z"/><path d="m781.67 1033.2-0.91888-2.5033 32.443-11.909 0.91888 2.5033q-1.9926 1.0723-3.094 1.4766-4.6962 2.0647-3.5935 5.0687t9.6049 11.928l22.53-8.27 0.0686-4.4565q0.14724-8.576-0.47759-10.278-0.69835-1.9025-2.9684-2.2055-2.2334-0.2029-6.7495 1.114l-0.91888-2.5034 20.327-7.4613 0.91888 2.5034q-3.3475 2.0241-4.2146 4.6149-0.96717 2.6275-1.2982 10.703l-2.0879 63.033-2.8038 1.0291-41.663-44.474q-6.9394-7.4518-9.7976-9.3569-2.9216-1.7683-5.8254-0.7024zm57.822 2.7507-19.526 7.1673 19.045 20.62z"/><path d="m759.38 1046.9 10.349 55.252q9.6915-2.1409 13.539-7.0939 3.762-4.8284 3.3772-14.415l3.0405-0.5695 3.6327 21.132-62.906 11.783-4.1569-21.034 3.0404-0.5695q3.1107 9.0758 8.4701 12.196 5.2741 3.2445 14.979 1.7523l-10.349-55.252q-1.1194-5.976-3.0914-7.2345-2.0769-1.2388-8.9899-0.4865l-0.49095-2.6211 37.429-7.0107 0.49095 2.621q-6.6118 1.7811-7.9947 3.6679-1.4681 2.0114-0.36841 7.8826z"/><path d="m656.68 1116.9q-5.1177-0.154-10.607-2.1333-5.4928-1.8727-6.2392-1.8952-1.386-0.042-2.1548 0.6822-0.77199 0.8304-1.366 2.8402l-3.1986-0.096 0.69618-23.136 2.9853 0.09q2.7872 10.222 8.1869 15.186 5.2932 4.9614 11.797 5.1571 5.4375 0.1637 8.7227-2.6188 3.1786-2.7856 3.3261-7.6901 0.1155-3.8383-2.0465-6.4645-2.2718-2.5228-8.5727-5.9138l-15.439-8.2548q-5.0407-2.7128-8.1822-8.2498-3.1416-5.537-2.9619-11.508 0.30157-10.022 7.8475-16.091 7.4361-5.9657 19.271-5.6096 5.7574 0.1733 11.46 2.159 5.5962 1.9826 6.6624 2.0147 2.3456 0.071 3.3076-3.5288l3.0919 0.093-0.79243 26.335-3.0919-0.093q-4.8576-22.983-21.064-23.471-6.1839-0.1861-9.9084 3.01t-3.8913 8.7403q-0.12512 4.1581 2.2469 6.8973 2.372 2.7393 9.3094 6.2562l7.0408 3.6267q9.3511 4.8702 13.565 10.226 4.211 5.4625 3.9992 12.499-0.30478 10.129-6.6619 15.7-6.4637 5.5681-17.339 5.2409z"/><path d="m589.65 1039q-11.427-2.1477-18.269 1.3417t-12.894 12.012l-2.9353-0.5517 8.2917-21.017 61.326 11.527-0.4926 2.6208q-5.9888-0.4745-7.9222 0.573-1.9334 1.0476-2.7019 5.136l-9.5368 50.738q-0.74876 3.9836 0.84263 5.9108 1.5914 1.9271 6.9835 3.2662l-0.49261 2.6208-60.487-11.369 3.9606-21.071 2.6208 0.4926q0.0214 10.858 4.403 15.263 4.3619 4.5101 17.151 6.914 4.0884 0.7685 5.6482-0.024 1.5401-0.6873 2.0919-3.6226l4.5714-24.321-0.41933-0.079q-8.2816-1.5566-12.476 1.128-4.2145 2.7895-7.0228 11.379l-2.7256-0.5123 6.66-35.433 2.7256 0.5123q-0.77079 9.2976 2.3332 13.571 2.9991 4.2539 11.595 5.8696l4.7684-25.369q0.63053-3.3546-0.91514-4.9475-1.6505-1.6127-6.6824-2.5585z"/><path d="m485.88 1005.8 0.94119-2.4951 32.336 12.198-0.94118 2.4951q-2.2088-0.4912-3.3066-0.9053-4.9034-1.5077-6.0329 1.4864-1.1294 2.994-0.52914 15.305l22.455 8.4707 2.9653-3.3276q5.7178-6.3934 6.3578-8.09 0.7153-1.8962-0.80447-3.6096-1.5574-1.6135-5.8358-3.5694l0.94118-2.495 20.26 7.6424-0.94119 2.495q-3.8564-0.6567-6.2062 0.737-2.4496 1.3561-7.9792 7.2504l-42.787 46.334-2.7945-1.0541-2.4534-60.891q-0.37971-10.176-1.2971-13.486-1.0549-3.248-3.9491-4.3397zm41.957 39.882-19.461-7.3413 0.93171 28.054z"/><path d="m451.05 986.15q-2.6607-1.5777-5.1721-2.5708-2.6031-1.0475-4.7645-1.5851-2.1614-0.53757-4.4114-0.50759-2.3961 0.0673-3.9323 0.14848-1.628 0.0267-3.6912 0.7875-2.1176 0.8525-3.1951 1.2057-1.1319 0.44493-2.9369 1.6068t-2.4067 1.5492q-0.65608 0.47904-2.2776 1.7497-1.7133 1.2163-1.9138 1.3454l-2.6608-1.5777 16.111-18.597 53.031 31.445-1.3601 2.2937q-5.4271-2.3499-7.5106-1.9732-2.1752 0.3223-4.2426 3.8088l-26.331 44.407q-2.0673 3.4865-1.2319 5.842 0.74369 2.3012 5.2597 5.351l-1.3601 2.2937-32.021-18.987 1.3601-2.2938q6.127 3.261 8.7033 2.6805 2.522-0.4887 5.5686-5.6267l25.679-43.306q1.7409-2.936 0.83401-4.9618t-5.1274-4.5284z"/><path d="m319.95 972.91q-11.453-11.325-11.387-26.411-0.01-15.161 11.465-26.765 11.625-11.756 26.71-11.841 15.009-0.15975 26.765 11.465 11.756 11.625 11.916 26.634 9e-3 15.01-11.616 26.766-11.7 11.832-26.785 11.917-15.161 0.01-27.069-11.765zm2.5508-2.428q6.6746 6.6 16.539 3.603 9.864-2.997 22.014-15.284 11.4-11.529 13.987-20.972 2.511-9.5178-4.0118-15.968-6.5229-6.45-15.936-3.7572-9.564 2.6936-21.114 14.374-11.7 11.832-14.661 21.805-3.1118 9.9737 3.1835 16.199z"/><path d="m266.97 871.23q-1.9815 2.1858-2.7545 3.1247-0.86011 1.0005-2.283 3.0524-1.51 2.1135-1.8263 3.5133-0.31633 1.3998-0.48813 3.7426-0.25888 2.4044 0.57397 4.6898 0.74577 2.347 2.2818 5.4415t4.0618 6.6647q2.341 3.309 4.0126 3.8249 1.5846 0.57757 4.0228-1.1474l20.202-14.292q-4.6204-6.5308-9.2912-7.4076-4.7579-0.81512-13.109 3.2638l-1.5401-2.177 29.432-20.823 1.5401 2.177q-6.9597 6.2304-7.8003 11.137-0.84059 4.9066 3.7289 11.735l20.289-14.354q3.5702-2.5258 3.5572-5.1298-0.1617-2.6295-4.1512-8.8227l2.177-1.5401 22.178 31.348-2.177 1.5401q-3.9724-4.5067-6.0901-5.0991-2.1177-0.59238-5.5137 1.8102l-42.146 29.817q-3.396 2.4026-3.5062 4.8325-0.19727 2.4915 2.745 7.2044l-2.177 1.5401-34.93-49.373 17.503-12.383z"/><path d="m270.42 794.78-51.9 21.596q4.1064 9.0358 9.7503 11.771 5.5044 2.6775 14.802 0.31068l1.1884 2.856-19.918 7.9412-24.587-59.089 19.713-8.4336 1.1884 2.856q-8.2321 4.9274-10.171 10.818-2.0787 5.8328 1.3959 15.016l51.9-21.596q5.6134-2.3358 6.435-4.5262 0.78058-2.2889-1.3906-8.895l2.462-1.0245 14.629 35.158-2.462 1.0245q-3.115-6.0979-5.2479-7.0589-2.2723-1.0185-7.7873 1.2763z"/><path d="m219.2 704.8 5.4973 25.112 23.966-5.2464q3.8554-0.84399 4.9264-2.9347 1.0482-2.1949 0.41881-8.0628l2.605-0.57026 7.6872 35.115-2.605 0.57027q-1.9155-5.2587-3.6351-6.6293-1.8466-1.452-5.7019-0.60805l-50.432 11.04q-3.8554 0.84399-4.9036 3.0389-1.1752 2.1136-0.55567 7.4376l-2.605 0.57027-7.6872-35.115 2.605-0.57027q1.603 5.3271 3.5993 6.9647 1.8922 1.6604 5.8518 0.79363l21.569-4.7218-5.4973-25.112-21.569 4.7218q-3.9596 0.8668-4.985 3.1659-1.1296 2.3219-0.36023 7.8315l-2.605 0.57026-7.7556-35.428 2.605-0.57026q1.5801 5.2229 3.5765 6.8605 1.9736 1.5334 5.8289 0.68944l50.432-11.04q3.8554-0.84399 4.9264-2.9347 0.96681-2.0679 0.46443-7.8544l2.605-0.57027 7.7556 35.428-2.605 0.57027q-1.8798-5.5941-3.7263-7.0461-1.8694-1.5562-5.7247-0.71224z"/><path d="m242.94 631.43q-0.38834-11.62-5.2821-17.54-4.8938-5.9198-14.528-9.9737l-0.0998-2.985 22.317 3.5232 2.0842 62.365-2.6652 0.0891q-0.83915-5.9486-2.282-7.608-1.4429-1.6594-5.6006-1.5205l-51.598 1.7244q-4.0511 0.13538-5.586 2.1078-1.535 1.9724-1.6695 7.5266l-2.6652 0.0891-2.0557-61.512 21.428-0.71611 0.0891 2.6652q-10.593 2.3818-13.94 7.6165-3.4536 5.2383-3.019 18.244 0.13894 4.1577 1.2513 5.508 1.0058 1.3538 3.9908 1.2541l24.733-0.82655-0.0143-0.42643q-0.28146-8.422-3.814-11.933-3.6392-3.5071-12.633-4.3805l-0.0926-2.7718 36.033-1.2042 0.0926 2.7718q-9.2428 1.2694-12.739 5.2284-3.5 3.8524-3.2078 12.594l25.799-0.86218q3.4114-0.11401 4.6302-1.9691 1.2152-1.9617 1.0442-7.0788z"/><path d="m180.66 528.47q0.94234-5.0325 3.7456-10.151 2.6984-5.1378 2.8358-5.8717 0.25521-1.363-0.34127-2.2343-0.70133-0.89097-2.5952-1.7882l0.58896-3.1453 22.751 4.2602-0.5497 2.9356q-10.53 1.1754-16.268 5.7439-5.7192 4.4636-6.9168 10.859-1.0012 5.3471 1.2406 9.0225 2.2615 3.5706 7.0843 4.4736 3.7744 0.70676 6.7029-1.0238 2.8433-1.855 7.1666-7.5568l10.54-13.979q3.4586-4.5614 9.4143-6.8103 5.9557-2.2489 11.827-1.1495 9.8554 1.8454 14.687 10.238 4.746 8.2681 2.5668 19.906-1.0601 5.6616-3.9026 10.989-2.8229 5.223-3.0192 6.2714-0.43191 2.3066 2.9758 3.8128l-0.56933 3.0405-25.897-4.8491 0.56933-3.0405q23.458-1.2506 26.442-17.187 1.1387-6.081-1.444-10.254-2.5827-4.1733-8.0346-5.1942-4.0889-0.76565-7.1616 1.155t-7.6185 8.2318l-4.6704 6.3964q-6.2556 8.487-12.198 11.824-6.0471 3.317-12.967 2.0213-9.9602-1.865-14.483-9.0062-4.5033-7.246-2.5008-17.94z"/><path d="m255.41 482.49-53.134-18.349q-2.9356 9.4811-0.5355 15.275 2.3341 5.6585 10.855 10.068l-1.0097 2.9239-20.161-7.301 20.891-60.494 20.335 6.7968-1.0097 2.9239q-9.426-1.7881-14.789 1.325-5.4293 2.9775-8.9351 12.149l53.134 18.349q5.747 1.9846 7.8164 0.89373 2.1043-1.1917 4.8716-7.5712l2.5206 0.87045-12.43 35.994-2.5206-0.87046q1.7242-6.6268 0.76898-8.7623-1.0213-2.2711-6.6674-4.2209z"/><path d="m312.67 382.69 2.3478 1.2646-16.389 30.427-2.3478-1.2646q0.78051-2.1239 1.3369-3.1569 2.1462-4.6594-0.67106-6.1769t-15.099-2.5594l-11.381 21.13 2.9038 3.3814q5.5764 6.5171 7.1728 7.377 1.7843 0.96108 3.6845-0.31739 1.8063-1.329 4.3136-5.3094l2.3478 1.2646-10.268 19.064-2.3478-1.2646q1.1636-3.7348 0.0947-6.2491-1.0183-2.6081-6.1251-8.8723l-40.233-48.568 1.4163-2.6295 60.677 5.6646q10.136 0.97662 13.538 0.50749 3.3594-0.61364 4.8263-3.337zm-45.107 36.282 9.8637-18.312-27.929-2.8067z"/><path d="m320.27 357.65-44.383-34.498q-5.8352 8.0286-5.431 14.287 0.38544 6.1089 7.0298 13.03l-1.8984 2.4423-16.731-13.41 39.277-50.531 17.059 12.989-1.8984 2.4423q-8.3464-4.7312-14.427-3.5132-6.0993 1.0684-12.374 8.62l44.383 34.498q4.8004 3.7313 7.111 3.3657 2.3761-0.44978 7.0522-5.5966l2.1054 1.6365-23.37 30.066-2.1054-1.6365q3.7684-5.7172 3.5525-8.0466-0.23464-2.4791-4.9508-6.1449z"/><path d="m381.97 303.23q8.5488-7.8802 9.8382-15.452t-1.9293-17.516l2.196-2.0243 11.9 19.205-45.881 42.293-1.8074-1.9607q3.9582-4.5191 4.2733-6.6954 0.31502-2.1763-2.5045-5.235l-34.991-37.96q-2.7472-2.9803-5.2434-2.8554-2.4962 0.12488-6.7914 3.649l-1.8074-1.9607 45.254-41.715 14.531 15.764-1.9607 1.8074q-8.7197-6.4693-14.87-5.5873-6.2226 0.8036-15.791 9.6237-3.0587 2.8195-3.3554 4.5437-0.36892 1.6457 1.6554 3.8417l16.773 18.196 0.31372-0.28918q6.1959-5.7114 6.549-10.679 0.28084-5.0462-4.9293-12.43l2.0392-1.8797 24.436 26.509-2.0392 1.8797q-6.9956-6.1727-12.277-6.2366-5.2031-0.13625-11.634 5.792l17.496 18.98q2.3134 2.5097 4.5143 2.2218 2.2793-0.36017 6.0439-3.8304z"/><path d="m432.14 181.59q14.137-7.7188 28.568-3.3239 14.525 4.3438 22.346 18.668 7.9233 14.511 3.6731 28.985-4.1566 14.423-18.668 22.346t-28.934 3.7668q-14.38-4.3013-22.304-18.812-7.9744-14.605-3.7242-29.079 4.3438-14.525 19.042-22.55zm1.5933 3.1406q-8.2386 4.4984-8.2 14.808 0.0385 10.309 8.3197 25.476 7.77 14.23 16.072 19.42 8.396 5.1382 16.447 0.742t8.1748-14.186q0.16595-9.9347-7.7062-24.352-7.9744-14.605-16.677-20.305-8.6602-5.8446-16.431-1.6018z"/><path d="m544.75 160.04q-1.5249-2.5256-2.2023-3.5356-0.71144-1.1112-2.2685-3.0632-1.5911-2.0532-2.8411-2.7581-1.25-0.70488-3.4449-1.5421-2.2288-0.93828-4.6571-0.79662-2.4622 0.0406-5.8675 0.62345-3.4052 0.58288-7.5503 1.9774-3.8418 1.2924-4.8159 2.7456-1.0082 1.352-0.0558 4.1828l7.8907 23.455q7.5824-2.5509 9.7632-6.7733 2.1468-4.3235 0.63717-13.494l2.5275-0.85029 11.496 34.171-2.5275 0.8503q-3.97-8.4555-8.4287-10.669-4.4586-2.2139-12.311 0.20282l7.9247 23.556q1.3945 4.145 3.8926 4.8802 2.5652 0.60004 9.6431-1.4435l0.85029 2.5275-36.396 12.244-0.85029-2.5275q5.4575-2.5112 6.6329-4.3697 1.1754-1.8585-0.15103-5.8013l-16.462-48.932q-1.3265-3.9429-3.6224-4.746-2.33-0.90428-7.6891 0.56104l-0.85029-2.5275 57.323-19.285 6.8364 20.321z"/><path d="m661.05 129.19-22.595 66.572-2.8739 0.18746-30.947-61.476 3.2632 50.027q0.3888 5.9607 2.6565 7.9506 2.2607 1.8835 8.7814 1.8858l0.17358 2.661-24.907 1.6246-0.17358-2.661q6.1319-1.0413 7.7377-2.6426 1.7053-1.7146 1.3929-6.5045l-3.2979-50.559q-0.27077-4.1512-2.1775-5.5233t-7.7887-1.416l-0.17358-2.661 26.929-1.7566 24.565 48.851 18.011-51.628 26.823-1.7496 0.17357 2.661q-5.8264 0.80762-7.5179 2.7351-1.585 1.9206-1.2101 7.6684l3.0688 47.047q0.36798 5.6414 2.0757 7.2402t7.9298 1.9413l0.17357 2.661-35.338 2.305-0.17358-2.661q5.926-0.921 7.5318-2.5223 1.7123-1.6082 1.4207-6.0787z"/><path d="m706.43 185.73 5.2994-51.354q0.41607-4.0319-1.5527-5.7364-1.8517-1.7996-7.5375-2.8152l0.27373-2.6526 37.136 3.8322-0.27373 2.6526q-5.8576-0.39-8.1439 0.98257-2.2863 1.3726-2.7133 5.5106l-5.2994 51.354q-0.42702 4.138 1.4356 5.8315 1.8627 1.6935 7.8668 2.742l-0.27373 2.6526-37.136-3.8322 0.27373-2.6526q5.9965 0.0826 8.0597-1.2057 2.1692-1.2774 2.5853-5.3093z"/><path d="m776.66 133.75 25.123 53.373 7.8276-31.578q1.3602-5.4873-0.0936-8.0455-1.4282-2.6618-6.9942-4.591l0.64161-2.5883 22.26 5.5178-0.64161 2.5883q-5.2784-0.42929-7.2164 0.73874-1.8088 1.0902-2.9123 5.5421l-15.116 60.981-2.8989-0.7186-32.318-67.794-10.317 41.62q-1.3602 5.4873-0.01 8.0199 1.4795 2.4548 7.3048 4.668l-0.64161 2.5883-23.502-5.8258 0.64161-2.5883q5.874 0.68681 7.9155-0.45556 2.145-1.1167 3.2486-5.5686l12.165-49.075q-2.6236-5.3758-4.0244-7.2616-1.3751-1.9893-2.9281-2.3743l0.64161-2.5883z"/><path d="m862.82 161.02 15.038 57.041 13.419-29.637q2.3318-5.15 1.3655-7.9294-0.9223-2.8765-6.0467-5.7822l1.0999-2.4292 20.892 9.4593-1.0999 2.4293q-5.1133-1.3785-7.2308-0.58088-1.9763 0.74442-3.8682 4.9227l-25.914 57.233-2.7208-1.2319-19.501-72.527-17.687 39.062q-2.3318 5.15-1.4627 7.8854 1.0103 2.6822 6.3382 5.9142l-1.0999 2.4292-22.058-9.9873 1.0999-2.4293q5.6523 1.7396 7.867 0.98603 2.3118-0.70961 4.2037-4.8879l20.854-46.059q-1.6063-5.7622-2.6422-7.8705-0.99194-2.2055-2.4495-2.8654l1.0999-2.4292z"/><path d="m913.77 267.17q9.592 6.5706 17.26 6.1345 7.6684-0.43604 16.641-5.7966l2.464 1.6878-16.058 15.893-51.48-35.264 1.507-2.2q5.2897 2.8477 7.4814 2.6682 2.1916-0.17952 4.5426-3.6115l29.176-42.592q2.2906-3.344 1.6108-5.7491t-5.075-5.8036l1.507-2.2 50.776 34.782-12.116 17.688-2.2-1.507q4.356-9.9454 2.1212-15.743-2.1745-5.8855-12.911-13.24-3.432-2.3509-5.1788-2.2546-1.6865 8e-3 -3.3744 2.4724l-13.985 20.416 0.352 0.24113q6.952 4.7621 11.873 3.9957 4.9813-0.85448 11.013-7.5834l2.288 1.5673-20.375 29.744-2.288-1.5673q4.4524-8.1986 3.3339-13.361-1.0305-5.1018-8.2465-10.045l-14.588 21.296q-1.929 2.816-1.1563 4.8968 0.86064 2.141 5.0847 5.0345z"/><path d="m1011.5 255.86q3.7241 3.5135 6.5143 8.6388 2.8634 5.0477 3.4065 5.5601 1.0086 0.95158 2.0641 0.92086 1.1287-0.10831 2.9074-1.2165l2.3276 2.196-15.884 16.836-2.1725-2.0496q4.7039-9.4935 3.9632-16.791-0.663-7.2246-5.3958-11.69-3.9569-3.7331-8.2609-3.8342-4.2264-0.0279-7.5935 3.5411-2.6351 2.7931-2.7626 6.1924 0.0234 3.3949 2.4826 10.114l6.0618 16.424q1.9674 5.3756 0.63951 11.602-1.3279 6.2261-5.427 10.571-6.8806 7.2932-16.553 6.8202-9.5214-0.47743-18.134-8.6024-4.1897-3.9527-7.135-9.2244-2.8678-5.1985-3.6436-5.9305-1.7069-1.6104-4.8164 0.44202l-2.25-2.1228 18.08-19.164 2.25 2.1228q-11.63 20.41 0.16334 31.536 4.5001 4.2455 9.4072 4.329 4.9071 0.0835 8.7134-3.951 2.8547-3.0259 2.9002-6.6491 0.0454-3.6232-2.8062-10.86l-2.856-7.3871q-3.7577-9.8509-3.3521-16.654 0.47884-6.8805 5.3099-12.001 6.9538-7.3708 15.407-7.315 8.5304 0.129 16.444 7.5952z"/><path d="m1068.7 319.71q9.6882 12.867 7.4337 27.783-2.1904 15.001-15.228 24.818-13.208 9.9449-28.145 7.8398-14.873-2.02-24.818-15.228t-7.9249-28.081q2.1693-14.852 15.377-24.797 13.293-10.009 28.23-7.9039 15.002 2.1904 25.075 15.569zm-2.8762 2.0321q-5.6462-7.4987-15.841-5.9648-10.194 1.5339-23.999 11.928-12.952 9.7524-16.882 18.72-3.8656 9.0526 1.6522 16.381 5.5179 7.3283 15.222 6.03 9.8536-1.2772 22.976-11.158 13.293-10.009 17.67-19.447 4.5262-9.4166-0.7991-16.489z"/><path d="m1056.8 414.76 50.078-25.537q-4.7916-8.6919-10.63-10.983-5.6946-2.2447-14.782 0.83264l-1.4052-2.7557 19.245-9.4548 29.074 57.015-19.003 9.9299-1.4053-2.7557q7.8273-5.548 9.3061-11.57 1.6224-5.9759-2.5506-14.864l-50.078 25.537q-5.4165 2.762-6.0665 5.0093-0.6016 2.3423 2.0729 8.7612l-2.3756 1.2114-17.299-33.924 2.3756-1.2114q3.5764 5.8393 5.7771 6.6328 2.3441 0.84011 7.6655-1.8735z"/><path d="m1088.8 525.3-2.5436 0.80075-10.378-32.965 2.5436-0.80075q0.9779 2.0405 1.3302 3.1597 1.8427 4.7876 4.895 3.8267 3.0523-0.96089 12.364-9.0363l-7.2067-22.892-4.4484-0.277q-8.5597-0.54835-10.289-4e-3 -1.9331 0.60857-2.342 2.862-0.3071 2.2214 0.797 6.7942l-2.5436 0.80075-6.5021-20.654 2.5436-0.80075q1.8653 3.4386 4.4127 4.4259 2.5794 1.0891 10.63 1.7976l62.866 5.0349 0.8969 2.8488-46.375 39.537q-7.7684 6.5832-9.8052 9.3491-1.903 2.8356-0.9741 5.7862zm5.4531-57.63 6.2458 19.84 21.489-18.059z"/></g><path transform="matrix(.5 0 0 1 335.25 -5.487)" d="m670.5 1048.9 35.444 35.444-35.444 35.444-35.444-35.444z" fill="#fff" fill-rule="evenodd"/><path class="UnoptimicedTransforms" d="m1201.8 619c3e-4 6.4619-0.1467 13.065-0.3839 19.522l39.43 1.4502c0.2574-6.9879 0.3863-13.98 0.3867-20.973zm-1.1053-34.031c0.4143 6.4486 0.6907 13.047 0.8677 19.507l39.442-1.0791c-0.1909-6.9901-0.5102-13.976-0.9578-20.954zm-3.2835-33.891c0.8267 6.4088 1.5253 12.976 2.1158 19.411l39.292-3.604c-0.6383-6.9635-1.4046-13.915-2.2984-20.85zm-5.448-33.611c1.2355 6.3427 2.3534 12.852 3.355 19.236l38.98-6.114c-1.0831-6.9083-2.2932-13.796-3.6295-20.66zm-7.5904-33.193c1.6394 6.2505 3.1721 12.675 4.5806 18.981l38.509-8.599c-1.5235-6.8247-3.1724-13.621-4.9458-20.385zm-9.7014-32.638c2.0365 6.1326 3.9776 12.446 5.7874 18.649l37.879-11.049c-1.9577-6.713-4.0386-13.39-6.2417-20.026zm-11.773-31.949c2.4252 5.9896 4.7669 12.165 6.9703 18.24l37.093-13.453c-2.3837-6.5738-4.8882-13.103-7.5119-19.585zm-13.795-31.13c2.804 5.8219 5.5365 11.835 8.1246 17.756l36.155-15.802c-2.8001-6.4076-5.7177-12.763-8.7513-19.064zm-15.762-30.182c3.1713 5.6302 6.2834 11.456 9.2456 17.199l35.068-18.086c-3.2048-6.215-6.5236-12.371-9.9547-18.464zm-17.663-29.11c3.5255 5.4155 7.0044 11.03 10.328 16.571l33.837-20.295c-3.5964-5.9969-7.3028-11.927-11.117-17.788zm-19.492-27.918c3.8652 5.1785 7.6967 10.558 11.369 15.875l32.468-22.422c-3.9733-5.7542-8.052-11.435-12.234-17.039zm-21.24-26.612c4.189 4.9202 8.3573 10.043 12.363 15.114l30.964-24.456c-4.3338-5.4878-8.7681-10.895-13.301-16.22zm-22.902-25.197c4.4956 4.6417 8.9836 9.4872 13.306 14.291l29.334-26.389c-4.6765-5.1988-9.4481-10.311-14.312-15.335zm-24.469-23.678c4.7838 4.3441 9.573 8.8922 14.194 13.409l27.583-28.215c-5-4.8885-10.089-9.6847-15.266-14.386zm-25.936-22.061c5.0523 4.0287 10.123 8.2605 15.024 12.472l25.718-29.924c-5.3029-4.5581-10.689-9.0184-16.156-13.379zm-27.296-20.354c5.3001 3.6967 10.632 7.595 15.792 11.484l23.748-31.51c-5.584-4.209-11.245-8.315-16.98-12.316zm-28.544-18.563c5.526 3.3496 11.096 6.8982 16.496 10.449l21.681-32.967c-5.8422-3.8426-11.755-7.5775-17.734-11.203zm-29.675-16.696c5.7293 2.9886 11.516 6.1731 17.131 9.3703l19.524-34.288c-6.0764-3.4604-12.216-6.8088-18.415-10.044zm-30.684-14.761c5.909 2.6154 11.887 5.4226 17.696 8.2534l17.287-35.469c-6.2857-3.064-12.627-6.0121-19.021-8.843zm-31.566-12.765c6.0644 2.2314 12.21 4.6498 18.189 7.1027l14.979-36.503c-6.4691-2.6549-12.986-5.1907-19.549-7.6061zm-32.319-10.716c6.1949 1.8383 12.483 3.858 18.606 5.9227l12.609-37.388c-6.6259-2.235-13.292-4.348-19.996-6.338zm-32.939-8.6233c6.3 1.4376 12.705 3.0502 18.948 4.7184l10.188-38.119c-6.7554-1.8059-13.544-3.4875-20.361-5.0439zm-33.424-6.4951c6.3791 1.031 12.874 2.23 19.211 3.4948l7.7247-38.694c-6.8573-1.3694-13.739-2.6126-20.642-3.729zm-33.772-4.3403c6.4321 0.6202 12.99 1.4006 19.395 2.2567l5.2297-39.109c-6.9309-0.92721-13.878-1.7269-20.839-2.3988zm-33.98-2.1676c6.4586 0.20682 13.054 0.56538 19.5 1.0094l2.7132-39.364c-6.9761-0.48124-13.96-0.83418-20.949-1.0587zm-34.049 0.01398c6.4586-0.20742 13.063-0.27213 19.525-0.24202l0.18562-39.457c-6.9926-0.03329-13.985 0.06198-20.974 0.28571zm-33.979 2.1955c6.432-0.62079 13.019-1.1085 19.469-1.4925l-2.3428-39.387c-6.9804 0.41479-13.952 0.95789-20.913 1.6289zm-33.768 4.368c6.379-1.0316 12.921-1.9403 19.334-2.7368l-4.8615-39.156c-6.9394 0.86117-13.862 1.8499-20.766 2.9655zm-33.419 6.5226c6.2998-1.4382 12.77-2.7642 19.118-3.9699l-7.3603-38.764c-6.87 1.304-13.715 2.7342-20.533 4.2899zm-32.932 8.6503c6.1948-1.8389 12.567-3.5767 18.825-5.1867l-9.8288-38.213c-6.7724 1.7415-13.512 3.6074-20.216 5.5966zm-32.31 10.743c6.0642-2.232 12.312-4.3745 18.454-6.3821l-12.257-37.505c-6.6468 2.1718-13.253 4.4657-19.816 6.8803zm-31.556 12.791c5.9087-2.616 12.006-5.1543 18.007-7.5513l-14.635-36.643c-6.494 2.5932-12.94 5.3056-19.334 8.1358zm-30.671 14.786c5.729-2.9892 11.651-5.913 17.486-8.6895l-16.952-35.63c-6.3146 3.004-12.573 6.1238-18.773 9.3578zm-29.661 16.721c5.5257-3.3501 11.248-6.6473 16.894-9.792l-19.2-34.47c-6.1091 3.4024-12.155 6.9168-18.135 10.541zm-28.529 18.587c5.2997-3.6972 10.799-7.3543 16.231-10.854l-21.369-33.169c-5.8786 3.7868-11.687 7.6814-17.422 11.682zm-27.279 20.377c5.052-4.0292 10.306-8.0312 15.503-11.872l-23.451-31.732c-5.6239 4.1557-11.171 8.4144-16.638 12.774zm-25.918 22.082c4.7834-4.3446 9.7703-8.675 14.71-12.841l-25.436-30.164c-5.3461 4.5074-10.609 9.1128-15.786 13.814zm-24.45 23.698c4.4952-4.6421 9.1944-9.2831 13.857-13.757l-27.316-28.473c-5.0463 4.8407-10.003 9.7738-14.868 14.797zm-22.881 25.215c4.1886-4.9206 8.5808-9.8531 12.947-14.616l-29.084-26.664c-4.7258 5.1541-9.3564 10.395-13.89 15.719zm-21.219 26.63c3.8647-5.1788 7.9318-10.383 11.984-15.416l-30.733-24.746c-4.3858 5.4463-8.6712 10.973-12.854 16.576zm-19.469 27.934c3.525-5.4158 7.2503-10.87 10.972-16.152l-32.255-22.726c-4.0279 5.7161-7.9503 11.506-11.765 17.366zm-17.639 29.124c3.1707-5.6305 6.539-11.312 9.9145-16.822l-33.645-20.613c-3.6534 5.9624-7.1968 11.991-10.629 18.084zm-15.737 30.195c2.8034-5.8221 5.8008-11.707 8.8164-17.423l-34.896-18.415c-3.2639 6.1842-6.4137 12.428-9.4481 18.728zm-13.77 31.141c2.4247-5.9898 5.0388-12.055 7.682-17.952l-36.004-16.141c-2.8609 6.3806-5.6043 12.813-8.2288 19.295zm-11.746 31.959c2.0359-6.1328 4.2561-12.353 6.516-18.407l-36.965-13.801c-2.4462 6.5508-4.7718 13.146-6.9757 19.782zm-9.6746 32.646c1.6388-6.2507 3.4559-12.6 5.3233-18.787l-37.773-11.404c-2.0215 6.6941-3.9198 13.425-5.6939 20.189zm-7.5631 33.199c1.235-6.3428 2.6415-12.796 4.1087-19.089l-38.426-8.9609c-1.5885 6.8099-3.0516 13.648-4.3887 20.512zm-5.4205 33.615c0.82604-6.4089 1.8162-12.939 2.8772-19.313l-38.921-6.4805c-1.1489 6.8976-2.1708 13.816-3.0654 20.751zm-3.2556 33.893c0.41372-6.4487 0.98347-13.029 1.6339-19.458l-39.256-3.9735c-0.70459 6.9571-1.2812 13.927-1.7296 20.905zm-1.0774 34.032c-3e-4 -6.4619 0.1467-13.065 0.3839-19.522l-39.43-1.4502c-0.2574 6.9879-0.3863 13.98-0.3867 20.973zm1.1053 34.031c-0.41431-6.4486-0.69067-13.047-0.8677-19.507l-39.442 1.0791c0.19085 6.9901 0.5102 13.976 0.95782 20.954zm3.2834 33.891c-0.82663-6.4088-1.5252-12.976-2.1157-19.411l-39.292 3.604c0.63831 6.9635 1.4046 13.915 2.2984 20.85zm5.4481 33.611c-1.2356-6.3427-2.3535-12.852-3.3551-19.236l-38.98 6.114c1.0832 6.9083 2.2932 13.796 3.6295 20.66zm7.5903 33.193c-1.6394-6.2505-3.1721-12.675-4.5806-18.981l-38.509 8.599c1.5235 6.8247 3.1724 13.621 4.9458 20.385zm9.7014 32.638c-2.0365-6.1326-3.9776-12.446-5.7874-18.649l-37.879 11.049c1.9577 6.713 4.0386 13.39 6.2417 20.026zm11.773 31.949c-2.4252-5.9896-4.7668-12.165-6.9703-18.24l-37.093 13.453c2.3838 6.5738 4.8882 13.103 7.5119 19.585zm13.795 31.13c-2.804-5.8219-5.5365-11.835-8.1246-17.756l-36.155 15.802c2.8 6.4076 5.7176 12.763 8.7513 19.064zm15.762 30.182c-3.1712-5.6302-6.2834-11.456-9.2455-17.199l-35.068 18.086c3.2048 6.215 6.5236 12.371 9.9547 18.464zm17.663 29.11c-3.5254-5.4155-7.0044-11.03-10.328-16.571l-33.837 20.295c3.5964 5.9969 7.3028 11.927 11.117 17.788zm19.492 27.918c-3.8652-5.1785-7.6967-10.558-11.369-15.875l-32.467 22.422c3.9733 5.7542 8.052 11.435 12.234 17.039zm21.24 26.612c-4.189-4.9202-8.3574-10.043-12.363-15.114l-30.964 24.456c4.3338 5.4878 8.7681 10.895 13.301 16.22zm22.902 25.197c-4.4957-4.6417-8.9837-9.4872-13.306-14.291l-29.334 26.389c4.6765 5.1988 9.4481 10.311 14.313 15.335zm24.469 23.678c-4.7838-4.3441-9.573-8.8921-14.194-13.409l-27.583 28.215c5 4.8885 10.089 9.6847 15.266 14.386zm25.936 22.061c-5.0523-4.0287-10.123-8.2605-15.024-12.472l-25.718 29.924c5.3029 4.5582 10.689 9.0184 16.156 13.379zm27.296 20.354c-5.3001-3.6967-10.632-7.595-15.792-11.484l-23.748 31.51c5.584 4.209 11.245 8.315 16.98 12.316zm28.544 18.563c-5.526-3.3495-11.096-6.8982-16.496-10.449l-21.681 32.967c5.8422 3.8426 11.755 7.5775 17.734 11.203zm29.675 16.696c-5.7293-2.9886-11.516-6.1731-17.131-9.3703l-19.524 34.288c6.0764 3.4604 12.216 6.8088 18.415 10.044zm30.684 14.761c-5.909-2.6154-11.887-5.4226-17.696-8.2534l-17.287 35.469c6.2857 3.064 12.627 6.0121 19.021 8.843zm31.566 12.765c-6.0644-2.2315-12.21-4.6499-18.189-7.1027l-14.979 36.503c6.4691 2.655 12.986 5.1908 19.549 7.6062zm32.319 10.716c-6.1949-1.8383-12.483-3.8579-18.606-5.9227l-12.609 37.388c6.6259 2.235 13.292 4.348 19.996 6.338zm32.939 8.6233c-6.3-1.4376-12.705-3.0502-18.948-4.7184l-10.188 38.119c6.7554 1.8059 13.544 3.4874 20.361 5.0438zm33.424 6.4951c-6.3791-1.031-12.874-2.2299-19.211-3.4947l-7.7247 38.694c6.8573 1.3694 13.739 2.6125 20.642 3.729zm33.772 4.3403c-6.4321-0.6202-12.99-1.4005-19.395-2.2567l-5.2297 39.109c6.9309 0.9272 13.878 1.7269 20.839 2.3988zm33.98 2.1676c-6.4586-0.2068-13.054-0.5654-19.5-1.0094l-2.7132 39.364c6.9761 0.4813 13.96 0.8342 20.949 1.0587zm34.049-0.014c-6.4586 0.2074-13.063 0.2722-19.525 0.242l-0.18562 39.457c6.9926 0.033 13.985-0.062 20.974-0.2857zm33.979-2.1955c-6.432 0.6208-13.019 1.1085-19.469 1.4925l2.3428 39.387c6.9804-0.4147 13.952-0.9578 20.913-1.6289zm33.768-4.368c-6.379 1.0316-12.921 1.9403-19.334 2.7368l4.8615 39.156c6.9394-0.8611 13.862-1.8498 20.766-2.9655zm33.419-6.5226c-6.2998 1.4382-12.77 2.7642-19.118 3.9699l7.3603 38.764c6.87-1.304 13.715-2.7342 20.533-4.2898zm32.932-8.6503c-6.1948 1.8389-12.567 3.5767-18.825 5.1867l9.8288 38.213c6.7724-1.7414 13.512-3.6073 20.216-5.5965zm32.31-10.742c-6.0642 2.232-12.312 4.3745-18.454 6.3821l12.257 37.505c6.6468-2.1718 13.253-4.4656 19.816-6.8803zm31.556-12.791c-5.9087 2.616-12.006 5.1543-18.007 7.5514l14.635 36.643c6.494-2.5932 12.94-5.3056 19.334-8.1358zm30.671-14.786c-5.729 2.9892-11.651 5.913-17.486 8.6896l16.952 35.63c6.3146-3.004 12.573-6.1238 18.773-9.3578zm29.661-16.721c-5.5257 3.3501-11.248 6.6473-16.894 9.792l19.2 34.47c6.1091-3.4024 12.155-6.9168 18.135-10.541zm28.529-18.587c-5.2997 3.6972-10.799 7.3544-16.231 10.854l21.369 33.169c5.8786-3.7868 11.687-7.6814 17.422-11.682zm27.279-20.376c-5.052 4.0292-10.306 8.0312-15.503 11.872l23.451 31.732c5.6239-4.1556 11.171-8.4143 16.638-12.774zm25.918-22.082c-4.7834 4.3445-9.7703 8.6749-14.71 12.841l25.436 30.164c5.3461-4.5075 10.609-9.1128 15.786-13.814zm24.45-23.698c-4.4953 4.6421-9.1945 9.2831-13.857 13.757l27.316 28.473c5.0463-4.8407 10.003-9.7738 14.868-14.797zm22.881-25.215c-4.1886 4.9206-8.5808 9.8531-12.947 14.616l29.084 26.664c4.7258-5.1541 9.3564-10.395 13.89-15.719zm21.218-26.63c-3.8647 5.1788-7.9318 10.383-11.984 15.416l30.733 24.746c4.3859-5.4463 8.6712-10.973 12.854-16.576zm19.469-27.934c-3.525 5.4158-7.2503 10.87-10.972 16.152l32.255 22.726c4.0279-5.7161 7.9503-11.506 11.765-17.366zm17.639-29.124c-3.1707 5.6305-6.539 11.312-9.9145 16.822l33.645 20.613c3.6534-5.9624 7.1968-11.991 10.629-18.084zm15.737-30.195c-2.8035 5.8221-5.8009 11.707-8.8164 17.423l34.896 18.415c3.2639-6.1842 6.4138-12.428 9.4481-18.728zm13.77-31.141c-2.4247 5.9898-5.0388 12.055-7.682 17.952l36.004 16.141c2.8609-6.3806 5.6043-12.813 8.2288-19.295zm11.746-31.959c-2.0359 6.1328-4.2561 12.353-6.5161 18.407l36.965 13.801c2.4463-6.5508 4.7718-13.146 6.9757-19.782zm9.6746-32.646c-1.6388 6.2507-3.4559 12.6-5.3233 18.787l37.773 11.404c2.0215-6.6941 3.9198-13.425 5.6939-20.189zm7.563-33.199c-1.2349 6.3428-2.6414 12.796-4.1087 19.089l38.426 8.9609c1.5884-6.8099 3.0516-13.648 4.3887-20.512zm5.4205-33.615c-0.826 6.4089-1.8162 12.939-2.8772 19.313l38.921 6.4805c1.1489-6.8976 2.1709-13.816 3.0655-20.751zm3.2556-33.893c-0.4137 6.4487-0.9834 13.029-1.6339 19.458l39.256 3.9735c0.7046-6.9571 1.2812-13.927 1.7296-20.905z" fill="#f2ce00" fill-rule="evenodd"/></g></svg>
