<?xml version="1.0" encoding="UTF-8"?>
<svg width="720px" height="720px" enable-background="new 396.786 -309.343 720 719.999" version="1.1" viewBox="396.79 -309.34 720 720" xml:space="preserve" xmlns="http://www.w3.org/2000/svg">
<path d="m756.79-308.87c-198.56 0-359.53 160.98-359.53 359.52 0 198.56 160.97 359.53 359.53 359.53 198.54 0 359.52-160.97 359.52-359.53s-160.99-359.52-359.52-359.52" fill="#efae0e" stroke="#000" stroke-width=".94643"/><path d="m756.79-295.15c-190.97 0-345.79 154.83-345.79 345.8s154.82 345.8 345.79 345.8c190.96 0 345.8-154.83 345.8-345.8s-154.83-345.8-345.8-345.8" fill="#efae0e" stroke-width="1.4651"/><path d="m756.79-295.15c190.97 0 345.8 154.83 345.8 345.8s-154.82 345.8-345.8 345.8c-190.97 0-345.79-154.83-345.79-345.8s154.82-345.8 345.79-345.8z" fill="none" stroke="#000" stroke-width=".94643"/><path d="m756.79-284.04c-184.85 0-334.68 149.85-334.68 334.69 0 184.85 149.83 334.7 334.68 334.7 184.83 0 334.66-149.85 334.66-334.7 0.024-184.86-149.82-334.69-334.66-334.69" fill="#002a86" stroke-width="1.4651"/><path d="m756.79-225.57c-152.56 0-276.22 123.67-276.22 276.22 0 152.54 123.67 276.22 276.22 276.22 152.54 0 276.2-123.68 276.2-276.22 0-152.56-123.66-276.22-276.2-276.22" fill="#efae0e" stroke-width="1.4651"/><g stroke="#000"><path d="m960.89 125.36c-9.9978 3.0849-17.95 4.1108-27.456 2.8148-4.1301-0.55621-12.294-2.5624-17.95-1.5366-15.74 2.8604-342.76-4.0124-415.57-15.897 1.3762 5.8646 2.9704 11.632 4.7357 17.341l485.68 45.238c8.9639-17.032 16.151-35.132 21.252-54.112-13.094 0.40799-41.751 3.377-50.697 6.1522zm-346.09 85.419c22.15 2.9646 51.886-5.4742 71.658-8.8966 21.435-3.7028 58.358-6.6732 69.441-6.6732 11.089 0 10.124-2.6828 12.563-5.1938 2.4278-2.4994 6.6384-2.6828 9.4377-1.3869 5.0384 2.3731 12.192 1.7597 22.538-2.6828 10.318-4.4483 19.241-5.8367 27.114-2.8721 7.8274 2.9646 92.076 3.0042 107.83 1.0141 2.3882-0.30379 5.148-0.49312 8.1184-0.60759l-433.86-40.653c9.8384 26.354 23.795 50.684 40.996 72.28 18.584 2.0121 44.556-6.9476 64.168-4.328z" fill="none" stroke-width=".94643"/><path d="m943.54 183.48c-2.9703 0.11451-5.7594 0.30381-8.1184 0.60172-13.432 6.0935-86.049 10.382-102.31 7.0577-4.49-0.94074-11.454 0-16.978 2.219-5.5532 2.219-12.192 3.6925-20.709 2.5859-8.5002-1.1124-13.294 1.858-16.984 4.4601-3.7075 2.5918-11.826 5.5549-26.954 3.6866-15.144-1.8404-30.747 2.6886-42.494 8.1628-3.8216-2.1897-14.608-1.4104-22.526-10.382-19.756 3.4342-49.492 11.873-71.658 8.9084-19.612-2.6314-45.596 6.3401-64.1 4.328 48.309 60.545 122.63 99.373 206.11 99.373 95.732 0 179.45-51.039 225.69-127.37 0.2692-0.44174 0.5309-0.89377 0.8001-1.3473-9.7478-1.6848-26.875-2.7914-39.775-2.288" fill="#4f9eff" stroke-width=".94643"/><path d="m943.54 183.48c-2.9703 0.11451-5.7594 0.30381-8.1184 0.60172-13.432 6.0935-86.049 10.382-102.31 7.0577-4.49-0.94074-11.454 0-16.978 2.219-5.5532 2.219-12.192 3.6925-20.709 2.5859-8.5002-1.1124-13.294 1.858-16.984 4.4601-3.7075 2.5918-11.826 5.5549-26.954 3.6866-15.144-1.8404-30.747 2.6886-42.494 8.1628-3.8216-2.1897-14.608-1.4104-22.526-10.382-19.756 3.4342-49.492 11.873-71.658 8.9084-19.612-2.6314-45.596 6.3401-64.1 4.328 48.309 60.545 122.63 99.373 206.11 99.373 95.732 0 179.45-51.039 225.69-127.37 0.2692-0.44174 0.5309-0.89377 0.8001-1.3473-9.7478-1.6848-26.875-2.7914-39.775-2.288z" fill="none" stroke-width=".94584"/><path d="m757.84-212.43c-145.71 0-263.84 118.14-263.84 263.85h527.69c-0.012-145.72-118.15-263.85-263.85-263.85" fill="#fff" stroke-width=".94643"/><path d="m492.94 50.654c0 20.684 2.457 40.783 6.9704 60.091 72.8 11.885 399.82 18.769 415.56 15.897 5.6556-1.0259 13.82 0.98037 17.95 1.5483 9.5064 1.2842 17.46 0.25831 27.456-2.8266 8.958-2.7752 37.603-5.7442 50.697-6.1405 5.8793-21.876 9.0267-44.853 9.0267-68.571h-527.66" fill="#4f9eff" stroke-width=".94643"/><path d="m898.86 77.564-22.6-0.07485-0.18867 12.222c9.1803 0.1497 17.173 0.22895 22.418 0.22895 0.2691-4.6714 0.332-8.5356 0.3715-12.376zm-61.015-0.2128 0.26909 11.591c6.2274 0.1541 12.746 0.29205 19.202 0.43588l-0.20037-11.964zm20.361 0.07485 0.18282 11.97c5.7594 0.11446 11.415 0.22308 16.728 0.29205l0.18867-12.21zm63.242 49.606c-8.4432 0.12038-13.471 0.98037-16.762 5.6987-0.9829 1.4338-1.8223 3.1818-2.5199 5.4008-0.1024 0.33317-0.2063 0.72208-0.2969 1.0831l19.219-0.25242c0.4343-4.6156 0.6055-8.8467 0.3598-11.93zm-19.577 12.181c-0.4285 1.4793-0.8395 3.0262-1.1482 4.7066-0.468 2.5287-0.7371 5.2393-0.6347 7.9574l19.321 0.48723c0.6406-4.369 1.2739-9.058 1.679-13.404zm7.0099 29.204c5.0281-0.14969 7.9297-0.58998 8.0731-1.3766 0.6055-3.1935 1.559-8.6457 2.457-14.676l-19.321-0.48723c0.2559 6.1742 2.4658 12.354 8.7913 16.54zm-298.52-84.261c4.4505 5.9277 14.511 32.287 16.853 39.7m-34.586-49.853-45.063-42.63 45.452 48.557" fill="none" stroke-width=".94584"/></g><path d="m611.57 79.793c5.4786-0.50486 4.7927-6.9887 3.2395-10.382-2.2801-4.9356-13.094-8.7601-21.315-10.06 0.11401 6.1801-1.1144 11.707-0.46801 20.58 8.392-0.73967 12.825 0.3669 18.543-0.13795" fill="#efae0e" stroke-width="1.4651"/><path d="m611.57 79.793c5.4786-0.50486 4.7927-6.9887 3.2395-10.382-2.2801-4.9356-13.094-8.7601-21.315-10.06 0.11401 6.1801-1.1144 11.707-0.46801 20.58 8.392-0.73967 12.825 0.3669 18.543-0.13795z" fill="none" stroke="#000" stroke-width=".94584"/><path d="m900.71 143.92c-1.3089 7.0284-1.0456 15.422 4.61 21.487l-268.53-25.012-11.969-1.1066c-1.1656-2.9059-4.1755-11.185-7.8669-20.392-5.7185-14.27-14.1-31.755-23.972-38.96 8.3978-0.74554 12.854 0.37277 18.573-0.14382 5.4845-0.50486 4.7927-6.9887 3.2395-10.37-2.2742-4.9473-13.094-8.7543-21.315-10.06-0.0176-0.79104-0.0571-1.5938-0.0965-2.4025-11.826-4.8211-33.261-13.719-45.824-25.202 12.768 6.3973 70.184 25.454 117.56 35.487 1.9773 0.41827 3.9137 0.82039 5.8501 1.1976 2.0402 0.42414 4.4051 0.85415 6.9353 1.3179 31.37 5.6928 95.498 14.538 124.66 17.548 3.2731 0.33755 6.1075 0.60172 8.3803 0.7793 1.3367 0.06311 2.811 0.11446 4.3642 0.16584 6.0666 0.22308 13.672 0.45349 21.869 0.65309l-0.29104-11.557-2.6618-0.01174v-4.4806h64.711c0.024-1.3473 0.04-2.7283 0.081-4.1797 10.261 2.3907 24.263 4.1959 35.433 5.3025 1.8968 0.17758 3.6797 0.34929 5.3586 0.48724 3.69 0.31554 6.8564 0.53274 9.1803 0.64722-3.4223 1.1242-6.9704 3.4738-8.1755 7.3718-2.1704 7.4525-4.1184 16.769-0.9258 23.762-4.7532 0.23482-7.5407 0.28619-11.454 1.4852-1.8516 6.6791-4.2794 12.234-7.0275 18.528 0.024 0.24655 0.063 0.51659 0.081 0.76755-8.4491 0.12625-13.483 0.98037-16.768 5.6987" fill="#803e2b" stroke-width="1.4651"/><path d="m900.71 143.92c-1.3089 7.0284-1.0456 15.422 4.61 21.487l-268.53-25.012-11.969-1.1066c-1.1656-2.9059-4.1755-11.185-7.8669-20.392-5.7185-14.27-14.1-31.755-23.972-38.96 8.3978-0.74554 12.854 0.37277 18.573-0.14382 5.4845-0.50486 4.7927-6.9887 3.2395-10.37-2.2742-4.9473-13.094-8.7543-21.315-10.06-0.0176-0.79104-0.0571-1.5938-0.0965-2.4025-11.826-4.8211-33.261-13.719-45.824-25.202 12.768 6.3973 70.184 25.454 117.56 35.487 1.9773 0.41827 3.9137 0.82039 5.8501 1.1976 2.0402 0.42414 4.4051 0.85415 6.9353 1.3179 31.37 5.6928 95.498 14.538 124.66 17.548 3.2731 0.33755 6.1075 0.60172 8.3803 0.7793 1.3367 0.06311 2.811 0.11446 4.3642 0.16584 6.0666 0.22308 13.672 0.45349 21.869 0.65309l-0.29104-11.557-2.6618-0.01174v-4.4806h64.711c0.024-1.3473 0.04-2.7283 0.081-4.1797 10.261 2.3907 24.263 4.1959 35.433 5.3025 1.8968 0.17758 3.6797 0.34929 5.3586 0.48724 3.69 0.31554 6.8564 0.53274 9.1803 0.64722-3.4223 1.1242-6.9704 3.4738-8.1755 7.3718-2.1704 7.4525-4.1184 16.769-0.9258 23.762-4.7532 0.23482-7.5407 0.28619-11.454 1.4852-1.8516 6.6791-4.2794 12.234-7.0275 18.528 0.024 0.24655 0.063 0.51659 0.081 0.76755-8.4491 0.12625-13.483 0.98037-16.768 5.6987" fill="none" stroke="#000" stroke-width=".94584"/><g fill="#efae0e"><polygon transform="matrix(1.4625 0 0 1.4676 -349.17 -21.776)" points="677.26 255.32 678.23 245.07 688.17 242.88 678.77 238.86 679.73 228.82 673.03 236.45 664.05 232.62 668.96 241.09 662.35 248.64 672.12 246.47"/><polygon transform="matrix(1.4625 0 0 1.4676 -349.17 -21.776)" points="835.58 255.5 834.61 245.23 824.68 243.05 834.06 239.04 833.12 228.98 839.82 236.62 848.8 232.8 843.88 241.26 850.5 248.81 840.73 246.63"/><g stroke-width="1.4651"><path d="m756.19-258.76c-3.0055 0-5.4508 2.4421-5.4508 5.458 0 3.0218 2.4336 5.4639 5.4508 5.4639 2.9879 0 5.4391-2.4421 5.4391-5.4639 0-3.0145-2.4512-5.458-5.4391-5.458"/><path d="m526.86-152.97c-2.9938 0-5.4611 2.4362-5.4611 5.4639 0 3.0159 2.4395 5.458 5.4611 5.458s5.4508-2.4421 5.4508-5.458c-0.0118-3.0262-2.4395-5.4639-5.4508-5.4639"/><path d="m456.82-5.4721c-2.9879 0-5.4611 2.4421-5.4611 5.4639 0 3.01 2.4395 5.4639 5.4611 5.4639s5.4508-2.4538 5.4508-5.4639c-8e-3 -3.0218-2.4453-5.4639-5.4508-5.4639"/><path d="m465.28 133.54c-2.9938 0-5.4333 2.4421-5.4333 5.4639 0 3.0159 2.4278 5.4698 5.4333 5.4698 3.0113 0 5.4611-2.4538 5.4611-5.4698 0-3.0218-2.4497-5.4639-5.4611-5.4639"/><path d="m897.01-225.5c2.9821 0 5.4508 2.4421 5.4508 5.4639 0 3.01-2.4277 5.458-5.4508 5.458-3.023 0-5.4611-2.448-5.4611-5.458 0.022-3.0218 2.4512-5.4639 5.4611-5.4639"/><path d="m680.77 339.47-6.9236-1.858 1.0574-3.9552c1.8457 0.41239 3.1532 0.63106 3.9356 0.66483 1.2168 0.0514 2.3313-0.2128 3.257-0.79691 0.64498-0.39626 1.2051-1.0039 1.7024-1.8169 0.30273-0.48138 0.46801-0.86589 0.54844-1.1242l4.8161 1.2959-7.8669 29.581-5.9247-1.588 5.3982-20.403"/><path d="m741.27 339.16-0.18281 4.7125c-0.94334 0.85415-2.2508 2.379-3.9532 4.5804-1.679 2.2073-3.1137 4.4894-4.2852 6.8743-0.94332 1.858-1.8223 4.1445-2.5989 6.8625-0.82194 2.718-1.2505 4.9473-1.3133 6.707l-6.2274-0.25243c0.38903-5.4859 2.4278-11.122 6.0841-16.889 2.3591-3.578 4.3013-6.0656 5.8618-7.4525l-15.203-0.63107 0.30274-5.4066 21.515 0.89524"/><path d="m788.74 339.8v4.7125c-0.90238 0.89377-2.1485 2.4714-3.747 4.7404-1.5883 2.2704-2.9192 4.6156-4.0161 7.0342-0.86289 1.9094-1.6117 4.237-2.3137 6.9712-0.69763 2.7518-1.0574 5.0045-1.0574 6.7583h-6.2274c0.19451-5.4859 1.9817-11.19 5.3982-17.13 2.2113-3.6632 4.0556-6.2315 5.5181-7.6712h-15.203l0.0907-5.4169h21.558"/><path d="m832.05 333.78c-1.8223-1.2724-4.1419-1.7773-6.9646-1.497-1.9715 0.20105-3.5876 0.82478-4.9024 1.8683-1.309 1.0376-2.3371 2.3335-3.0508 3.8921-0.82194 1.8345-1.2739 4.0535-1.3718 6.6791-0.0453 1.4794 0.0571 3.377 0.27497 5.7163 0.41095 3.9552 1.445 7.115 3.1254 9.4822 2.1031 3.0159 5.0896 4.3397 8.9521 3.939 3.5481-0.36102 6.0446-1.72 7.5247-4.0653 1.4859-2.3335 2.0446-4.9238 1.7828-7.768-0.27933-2.8545-1.3938-5.1131-3.2907-6.7818-1.9364-1.6511-4.2223-2.3511-6.9075-2.0693-1.2461 0.12038-2.3649 0.44172-3.279 0.95099-0.94333 0.50487-1.7199 1.2387-2.3942 2.1897-0.0628-2.3673 0.0629-4.1798 0.38904-5.4228 0.59379-2.2704 1.8618-3.5032 3.7996-3.7028 1.2914-0.13212 2.3254 0.24069 3.0567 1.1242 0.42853 0.5621 0.67422 1.089 0.71371 1.5762l5.9408-0.61344c-0.43875-2.3907-1.5766-4.2311-3.3989-5.4976"/><path d="m561.52 280.03-4.1477-4.5922c0.91994-1.0948 1.4333-2.0987 1.5488-3.0042 0.2223-1.6393-0.49726-3.4107-2.2333-5.3025-1.0282-1.13-1.9817-1.9372-2.8622-2.4245-1.6965-0.89377-3.2044-0.75729-4.4958 0.43588-0.74881 0.69417-1.0457 1.5542-0.8629 2.5977 0.21646 1.0317 0.80001 2.4025 1.7828 4.1225l1.6629 2.9352c1.657 2.8838 2.5594 5.0735 2.7934 6.5705 0.32031 2.5111-0.62303 4.7991-2.8446 6.8625-2.068 1.8741-4.4446 2.6828-7.1693 2.4303-2.7364-0.25241-5.4216-1.8286-8.0439-4.736-2.2172-2.4084-3.4442-5.0676-3.7192-7.9515-0.2691-2.8838 0.7766-5.4859 3.1313-7.7915l4.2048 4.6156c-1.2914 1.3473-1.7419 2.8442-1.2914 4.5056 0.27496 1.089 0.94333 2.2014 1.9656 3.2904 1.1086 1.2445 2.2567 2.0062 3.4223 2.288 1.1715 0.28033 2.1938 0.0235 3.0962-0.80278 0.81755-0.74553 1.1027-1.6687 0.83949-2.7635-0.14333-0.72206-0.73712-2.0003-1.7828-3.8701l-2.6457-4.827c-1.1656-2.1104-1.8048-3.9332-1.9364-5.458-0.16527-2.3555 0.77661-4.4718 2.8168-6.3342 2.0914-1.9211 4.5704-2.7063 7.4209-2.3731 2.8285 0.33757 5.5927 1.9842 8.256 4.9077 2.7247 2.9983 4.1711 5.9732 4.3876 8.9436 0.19011 2.9602-0.90676 5.5402-3.2936 7.7255"/></g><polygon transform="matrix(1.4625 0 0 1.4676 -349.17 -21.776)" points="602.46 178.77 594.96 169.73 597.9 167.29 608.17 179.66 591.85 193.21 581.91 181.25 584.81 178.84 591.98 187.48 595.44 184.59 588.85 176.68 591.69 174.32 598.27 182.24"/><polygon transform="matrix(1.4625 0 0 1.4676 -349.17 -21.776)" points="592.79 160.37 590.32 156.45 585.85 157.54 581.68 150.93 584.65 147.45 582.08 143.39 568.16 161.06 570.82 165.29"/><polygon transform="matrix(1.4625 0 0 1.4676 -349.17 -21.776)" points="559.1 143.68 557.36 139.61 573.35 132.77 569.23 123.11 572.73 121.61 578.59 135.35"/><polygon transform="matrix(1.4625 0 0 1.4676 -349.17 -21.776)" points="547.6 -0.645 543.94 -1.535 547.99 -18.223 551.64 -17.34 550.14 -11.18 567.11 -7.062 566.06 -2.73 549.1 -6.84"/><polygon transform="matrix(1.4625 0 0 1.4676 -349.17 -21.776)" points="559.56 -45.871 579.05 -37.547 577.33 -33.488 568.62 -37.211 565.36 -29.586 574.06 -25.871 572.34 -21.832 552.84 -30.168 554.57 -34.207 562 -31.035 565.26 -38.656 557.82 -41.824"/><polygon transform="matrix(1.4625 0 0 1.4676 -349.17 -21.776)" points="583.56 -53.305 589.87 -63.211 593.09 -61.156 584.46 -47.602 566.57 -58.992 574.92 -72.113 578.09 -70.098 572.07 -60.629 575.86 -58.211 581.39 -66.898 584.5 -64.926 578.97 -56.23"/><path d="m553.11-165.62 4.5075-4.2531c1.1027 0.89377 2.1309 1.3986 3.0113 1.5248 1.6395 0.20106 3.3989-0.56796 5.268-2.3276 1.1086-1.0494 1.9144-2.0297 2.3649-2.9294 0.88044-1.7083 0.70786-3.2155-0.50311-4.4894-0.68592-0.76316-1.5488-1.0259-2.5887-0.81453-1.0574 0.21721-2.3883 0.83066-4.0907 1.8462l-2.9016 1.7259c-2.8344 1.6804-5.0106 2.6432-6.4951 2.8662-2.4965 0.3845-4.7708-0.521-6.8607-2.7518-1.9247-2.0238-2.7656-4.4146-2.5419-7.1428 0.21646-2.7342 1.7419-5.4346 4.5996-8.1173 2.3766-2.2586 4.9989-3.5428 7.8728-3.8583 2.8563-0.32728 5.4611 0.68245 7.804 3.0101l-4.5368 4.2825c-1.3762-1.2842-2.8388-1.6907-4.5075-1.2269-1.1086 0.32726-2.1938 0.98622-3.279 2.0297-1.1993 1.1462-1.9715 2.3041-2.2172 3.4856-0.25157 1.1814 0.0234 2.2132 0.83947 3.0849 0.76052 0.80866 1.6848 1.0772 2.7759 0.80866 0.70786-0.17172 1.9817-0.78517 3.8216-1.8521l4.7766-2.7341c2.068-1.2034 3.8728-1.8639 5.4216-2.0062 2.3371-0.20106 4.468 0.70005 6.3415 2.7224 1.9539 2.0576 2.7656 4.529 2.457 7.3835-0.26325 2.8604-1.891 5.6576-4.7532 8.3756-2.9309 2.7752-5.8896 4.2942-8.8322 4.5349-2.9499 0.23922-5.5327-0.82039-7.7543-3.1774" stroke-width="1.4651"/><polygon transform="matrix(1.4625 0 0 1.4676 -349.17 -21.776)" points="633.87 -126.84 631.81 -129.98 646.17 -139.4 648.23 -136.26 642.93 -132.78 652.5 -118.18 648.77 -115.74 639.2 -130.33"/><polygon transform="matrix(1.4625 0 0 1.4676 -349.17 -21.776)" points="664.41 -125.37 668.6 -127.33 668.09 -131.9 675.17 -135.2 678.25 -131.83 682.61 -133.86 666.84 -149.9 662.3 -147.78"/><polygon transform="matrix(1.4625 0 0 1.4676 -349.17 -21.776)" points="687.39 -153.93 686.39 -157.55 702.93 -162.17 703.94 -158.54 697.83 -156.85 702.52 -140.03 698.22 -138.83 693.54 -155.64"/><polygon transform="matrix(1.4625 0 0 1.4676 -349.17 -21.776)" points="722.23 -148.25 733.83 -150.02 734.41 -146.25 718.52 -143.84 715.32 -164.8 730.71 -167.14 731.27 -163.43 720.17 -161.74 720.85 -157.28 731.04 -158.83 731.59 -155.2 721.41 -153.63"/><path d="m803.15-266.4c-4.4271-0.14387-7.8279 0.96288-10.278 3.2964-3.2395 2.7576-4.9362 6.988-5.1131 12.687-0.19451 5.5843 1.2511 9.9146 4.3019 12.988 2.2567 2.4935 5.5874 3.8046 10.032 3.9528 4.4388 0.14387 7.8646-0.95675 10.275-3.3078 3.2161-2.8662 4.9189-7.0852 5.1017-12.675 0.17258-5.6943-1.2486-10.022-4.2819-12.979-2.2508-2.4935-5.5931-3.8234-10.038-3.9614zm-0.1771 5.4978c2.5653 0.0866 4.5822 1.1065 6.0272 3.0613 1.4625 1.9607 2.108 4.6763 1.9881 8.1722-0.10237 3.4914-0.94569 6.1827-2.5223 8.0231-1.559 1.8521-3.6272 2.7396-6.21 2.6486-2.5419-0.0793-4.5705-1.0952-6.0272-3.0441-1.4742-1.9431-2.1462-4.6733-2.0424-8.175 0.13162-3.509 0.97111-6.1796 2.5594-8.0317 1.5766-1.8462 3.6794-2.7277 6.2272-2.6543z" stroke-width="1.4651"/><polygon transform="matrix(1.4625 0 0 1.4676 -349.17 -21.776)" points="822.47 -145.23 813.65 -148.2 810.81 -139.77 806.64 -141.17 813.38 -161.24 827.64 -156.46 826.45 -152.94 816.37 -156.31 814.82 -151.69 823.64 -148.73"/><polygon transform="matrix(1.4625 0 0 1.4676 -349.17 -21.776)" points="876.12 -107.1 878.9 -124.26 869.41 -112.56 866.2 -115.18 879.58 -131.63 883.19 -128.7 880.4 -111.88 889.73 -123.37 892.94 -120.76 879.56 -104.31"/><polygon transform="matrix(1.4625 0 0 1.4676 -349.17 -21.776)" points="898.07 -93.285 906.36 -84.977 903.67 -82.285 892.3 -93.648 907.3 -108.64 918.3 -97.645 915.65 -94.988 907.71 -102.92 904.52 -99.738 911.81 -92.457 909.21 -89.852 901.92 -97.133"/><polygon transform="matrix(1.4625 0 0 1.4676 -349.17 -21.776)" points="929.47 -61.977 927.07 -59.523 930.1 -60.836 941.8 -65.492 944.37 -61.789 923.53 -54.633 921.12 -58.109 929.86 -67.27 932.82 -70.219 929.01 -68.504 917.36 -63.555 915.02 -66.941 929.03 -83.949 931.71 -80.082 923.32 -70.867 920.88 -68.438 923.96 -69.816 935.36 -74.805 938.02 -70.957"/><polygon transform="matrix(1.4625 0 0 1.4676 -349.17 -21.776)" points="968.23 -2.863 947.78 2.723 946.62 -1.527 955.76 -4.012 953.56 -12.012 944.43 -9.523 943.28 -13.754 963.73 -19.336 964.9 -15.102 957.1 -12.973 959.28 -4.984 967.08 -7.113"/><g stroke-width="1.4651"><path d="m1040.7-4.4221 0.9939 6.7246 6.6157 1.2039 1.6624 11.351-6.0242 2.9065 1.0369 6.9768 29.082-15.433-1.0712-7.275zm13.157 8.8744 12.64 2.19-11.492 5.6239z"/><path d="m1052.2 52.832 24.395 5.6004v9.3501l-31.027 0.02936v-6.0597l20.984-0.02349c0.629 0 1.4685 0.01174 2.5419 0.02349 1.0852 0.01174 1.9365 0.01762 2.5201 0.01762l-26.046-5.8646v-6.318l26.028-5.8763c-0.5939 0-1.4334 0.01174-2.52 0.02349-1.091 0.02349-1.9481 0.03377-2.5419 0.03377l-20.984 0.02349v-6.0656l31.022-0.03377v9.4528l-24.372 5.687"/><path d="m1044.7 85.308-0.8399 6.415 11.072 1.4733-0.8798 6.5469c-0.4519 3.4225-0.039 6.1508 1.2284 8.1922 1.2401 2.0414 3.6901 3.3022 7.3067 3.7894 3.3303 0.44175 5.9132-0.14359 7.7355-1.7829 1.8457-1.6276 2.9484-3.9963 3.3592-7.0915l1.7825-13.432zm15.508 8.5935 9.0551 1.2096-0.7999 6.0138c-0.2121 1.5248-0.698 2.6494-1.5025 3.411-0.7883 0.74555-1.9775 1.0197-3.5877 0.80833-1.5649-0.21133-2.6843-0.78605-3.3307-1.7371-0.6113-0.93486-0.8111-2.1715-0.6342-3.6919z"/><path d="m1047 125.55-1.8735 5.9335c-1.4171-0.24654-2.5302-0.19519-3.3711 0.14386-1.5371 0.61933-2.6969 2.1559-3.4442 4.598-0.452 1.4676-0.6509 2.7063-0.645 3.7204 0.086 1.9255 0.9433 3.1524 2.6047 3.6866 1.0106 0.29793 1.8969 0.10863 2.6853-0.57383 0.7999-0.70446 1.6789-1.9035 2.6616-3.6176l1.6792-2.9235c1.6627-2.8604 3.096-4.7638 4.2851-5.6811 1.9875-1.5703 4.4271-1.9035 7.3361-0.98036 2.6456 0.83653 4.5468 2.4935 5.6965 4.9825 1.1261 2.4817 1.1261 5.6004-0.039 9.3442-0.9828 3.1304-2.6617 5.5432-5.0106 7.2353-2.337 1.6745-5.0896 2.087-8.278 1.1917l1.8736-5.957c1.8047 0.45347 3.3083 0.069 4.531-1.1404 0.7999-0.80864 1.4332-1.9314 1.885-3.3711 0.4914-1.5938 0.5822-2.9807 0.2225-4.1269-0.3481-1.1521-1.097-1.9152-2.2509-2.2821-1.0574-0.33756-1.9875-0.11451-2.8226 0.66482-0.531 0.49312-1.3484 1.651-2.4279 3.4856l-2.8343 4.7242c-1.2345 2.0752-2.4731 3.5369-3.7193 4.3969-1.9596 1.3297-4.2443 1.5821-6.8664 0.75142-2.7248-0.84828-4.6334-2.5977-5.7756-5.2394-1.1305-2.6314-1.0969-5.847 0.081-9.6363 1.2109-3.8642 3.0333-6.6277 5.5137-8.2949 2.4542-1.654 5.2314-2.0033 8.3043-1.0347"/></g><polygon transform="matrix(1.4625 0 0 1.4676 -349.17 -21.776)" points="951.2 149.39 931.92 140.54 933.77 136.54 942.38 140.48 945.83 132.96 937.23 129.01 939.06 125.02 958.32 133.86 956.5 137.86 949.15 134.48 945.7 142.01 953.03 145.39"/><polygon transform="matrix(1.4625 0 0 1.4676 -349.17 -21.776)" points="943.53 161.43 941.23 165.19 923.14 154.1 925.43 150.35"/><path d="m1017.4 238.29-24.366-19.274-3.9137 4.9869 9.5459 7.5611-4.1477 5.2746c-1.1657 1.497-2.2625 2.3159-3.2044 2.4656-0.9434 0.12625-2.1938-0.4124-3.7587-1.6114l-2.3079-1.7538c-0.7078-0.5621-1.4742-1.0435-2.2508-1.4441-0.411-0.20106-0.9258-0.43588-1.5707-0.70444l-4.4052 5.6239 0.6172 0.48137c0.6742-0.25241 1.3718-0.20106 2.1076 0.16584 0.4738 0.23482 1.2504 0.77929 2.3765 1.651l1.6161 1.2959c1.7258 1.359 3.1766 2.1324 4.3641 2.3159 1.2111 0.18931 2.4791-0.10276 3.8158-0.87177-0.6289 1.7142-0.5879 3.308 0.1023 4.7756 0.6348 1.4676 1.5255 2.6652 2.7028 3.5824 0.9653 0.75728 1.9598 1.2842 2.931 1.5586 0.9827 0.28032 1.9773 0.40066 3.0332 0.35515 1.2505-0.0396 2.4278-0.3669 3.5422-0.98622 1.1086-0.6252 2.3766-1.7714 3.7193-3.468l9.4508-11.98" stroke-width="1.4651"/><polygon transform="matrix(1.4625 0 0 1.4676 -349.17 -21.776)" points="899.46 191.81 891.04 199.98 888.38 197.24 899.92 186.07 914.68 201.3 903.51 212.12 900.89 209.42 908.96 201.62 905.83 198.38 898.42 205.54 895.85 202.9 903.26 195.73"/><path d="m441.38 76.238c-2.3371 2.4186-3.4676 5.8469-3.3141 10.291 0.12579 4.4483 1.4172 7.8135 3.8962 10.096 2.8958 3.079 7.222 4.529 12.9 4.3793 5.5532-0.1541 9.8033-1.8521 12.66-5.0853 2.3591-2.4083 3.4676-5.8367 3.3199-10.285-0.10826-4.4542-1.423-7.8077-3.8903-10.096-3.0333-3.0673-7.336-4.5173-12.911-4.3632-5.6731 0.16144-9.8823 1.8477-12.66 5.0632" stroke-width="1.4651"/><polygon transform="matrix(1.4625 0 0 1.4676 -349.17 -21.776)" points="550.18 37.559 550.17 46.859 559.06 46.875 559.04 51.289 537.87 51.246 537.9 36.207 541.62 36.215 541.6 46.848 546.47 46.852 546.5 37.551"/><polygon transform="matrix(1.4625 0 0 1.4676 -349.17 -21.776)" points="755.08 21.383 751.04 -43.281 761.82 -43.598 757.43 21.727"/></g><path d="m731.99-59.068 15.282 70.141m18.7 0.521 16.271-70.204" fill="none" stroke="#000" stroke-width=".94584"/><polygon transform="matrix(1.4625 0 0 1.4676 -349.17 -21.776)" points="742.13 25.016 710.12 -31.309 719.66 -36.309 744.38 24.301" fill="#efae0e"/><line x1="685.35" x2="729.77" y1="-36.554" y2="19.741" fill="none" stroke="#000" stroke-width=".94584"/><polygon transform="matrix(1.4625 0 0 1.4676 -349.17 -21.776)" points="732.97 33.375 679 -2.449 685.25 -11.223 734.66 31.727" fill="#efae0e"/><polygon transform="matrix(1.4625 0 0 1.4676 -349.17 -21.776)" points="728.05 45.449 663.86 36.688 665.67 26.07 728.84 43.223" fill="#efae0e"/><line x1="654.29" x2="719.25" y1="4.2801" y2="34.429" fill="none" stroke="#000" stroke-width=".94584"/><polygon transform="matrix(1.4625 0 0 1.4676 -349.17 -21.776)" points="770.34 25.016 802.36 -31.309 792.82 -36.309 768.09 24.301" fill="#efae0e"/><line x1="828.34" x2="783.92" y1="-36.554" y2="19.741" fill="none" stroke="#000" stroke-width=".94584"/><polygon transform="matrix(1.4625 0 0 1.4676 -349.17 -21.776)" points="779.5 33.375 833.46 -2.449 827.23 -11.223 777.81 31.727" fill="#efae0e"/><polygon transform="matrix(1.4625 0 0 1.4676 -349.17 -21.776)" points="784.42 45.449 848.6 36.688 846.8 26.07 783.63 43.223" fill="#efae0e"/><path d="m576.76 42.856 101.68-68.072m7.9064 0.85415 0.0628 95.629m9.1408 1.3473-6.7861-96.724m14.476 97.986-13.094-97.854m-3.6446 87.798 15.779 4.0594m-15.779-11.094 14.814 2.6138m-14.814-11.39 13.562 2.1104m-13.562-20.181 11.146 2.8031m-11.238-22.111 8.5528 0.96862m-8.5528-8.2949 7.5188 0.48724m-7.5188-13.226 5.7755 0.29205m-5.7755-6.7642 4.9185 0.5797m168.07 19.606-64.939 30.137" fill="none" stroke="#000" stroke-width=".94584"/><path d="m908.88 168.42c5.0281-0.14969 7.9297-0.58997 8.0731-1.3766 0.6055-3.1818 1.559-8.6457 2.457-14.688l-19.321-0.47549c0.2559 6.1742 2.4658 12.36 8.7913 16.54" fill="#d4212f" stroke-width="1.4651"/><path d="m908.88 168.42c5.0281-0.14969 7.9297-0.58997 8.0731-1.3766 0.6055-3.1818 1.559-8.6457 2.457-14.688l-19.321-0.47549c0.2559 6.1742 2.4658 12.36 8.7913 16.54z" fill="none" stroke="#000" stroke-width=".94584"/><path d="m901.87 139.21c-0.4285 1.4793-0.8395 3.0262-1.1482 4.6949-0.468 2.539-0.7371 5.2511-0.6347 7.9691l19.321 0.48724c0.6406-4.3793 1.2739-9.0581 1.679-13.404l-19.218 0.25243" fill="#d4212f" stroke-width="1.4651"/><path d="m901.87 139.21c-0.4285 1.4793-0.8395 3.0262-1.1482 4.6949-0.468 2.539-0.7371 5.2511-0.6347 7.9691l19.321 0.48724c0.6406-4.3793 1.2739-9.0581 1.679-13.404z" fill="none" stroke="#000" stroke-width=".94584"/><path d="m921.45 127.03c-8.4432 0.12625-13.471 0.98037-16.762 5.7046-0.9829 1.428-1.8223 3.1818-2.5199 5.4066-0.1024 0.33314-0.2063 0.72206-0.2969 1.0831l19.219-0.25242c0.4343-4.6098 0.6055-8.8467 0.3598-11.942" fill="#d4212f" stroke-width="1.4651"/><path d="m921.45 127.03c-8.4432 0.12625-13.471 0.98037-16.762 5.7046-0.9829 1.428-1.8223 3.1818-2.5199 5.4066-0.1024 0.33314-0.2063 0.72206-0.2969 1.0831l19.219-0.25242c0.4343-4.6098 0.6055-8.8467 0.3598-11.942z" fill="none" stroke="#000" stroke-width=".94584"/><polygon transform="matrix(1.4625 0 0 1.4676 -349.17 -21.776)" points="851.5 4.645 851.7 -11.918 851.62 -11.91 849.99 4.645" fill="#803e2b"/><polygon transform="matrix(1.4625 0 0 1.4676 -349.17 -21.776)" points="851.5 4.645 851.7 -11.918 851.62 -11.91 849.99 4.645" fill="none" stroke="#000" stroke-width=".6456"/><polygon transform="matrix(1.4625 0 0 1.4676 -349.17 -21.776)" points="851.42 10.629 849.4 10.734 844.07 64.473 850.72 64.473" fill="#803e2b"/><polygon transform="matrix(1.4625 0 0 1.4676 -349.17 -21.776)" points="851.42 10.629 849.4 10.734 844.07 64.473 850.72 64.473" fill="none" stroke="#000" stroke-width=".6456"/><polygon transform="matrix(1.4625 0 0 1.4676 -349.17 -21.776)" points="855.85 4.645 851.5 4.645 849.99 4.645 843.74 4.645 843.48 7.418 849.4 10.727 851.42 10.621 855.85 7.172" fill="#803e2b"/><polygon transform="matrix(1.4625 0 0 1.4676 -349.17 -21.776)" points="855.85 4.645 851.5 4.645 849.99 4.645 843.74 4.645 843.48 7.418 849.4 10.727 851.42 10.621 855.85 7.172" fill="none" stroke="#000" stroke-width=".6456"/><polygon transform="matrix(1.4625 0 0 1.4676 -349.17 -21.776)" points="849.29 -11.77 851.62 -11.91 851.7 -11.918 853.34 -12.027 853.59 -13.801 849.29 -14.043" fill="#803e2b"/><polygon transform="matrix(1.4625 0 0 1.4676 -349.17 -21.776)" points="849.29 -11.77 851.62 -11.91 851.7 -11.918 853.34 -12.027 853.59 -13.801 849.29 -14.043" fill="none" stroke="#000" stroke-width=".6456"/><polygon transform="matrix(1.4625 0 0 1.4676 -349.17 -21.776)" points="800.67 -34.281 802.52 -34.152 804.24 -63.797" fill="#803e2b"/><polygon transform="matrix(1.4625 0 0 1.4676 -349.17 -21.776)" points="800.67 -34.281 802.52 -34.152 804.24 -63.797" fill="none" stroke="#000" stroke-width=".6456"/><path d="m816.75-30.025-14.179 117.33c3.2614 0.33755 6.0782 0.60172 8.3803 0.7793 1.3368 0.06311 2.811 0.11446 4.3481 0.16584l6.8095-118.41-5.3587 0.12768" fill="#803e2b" stroke-width="1.4651"/><path d="m816.75-30.025-14.179 117.33c3.2614 0.33755 6.0782 0.60172 8.3803 0.7793 1.3368 0.06311 2.811 0.11446 4.3481 0.16584l6.8095-118.41z" fill="none" stroke="#000" stroke-width=".94584"/><polygon transform="matrix(1.4625 0 0 1.4676 -349.17 -21.776)" points="801.3 -12.93 802.18 -28.23 799.94 -28.484 798.09 -13.066" fill="#803e2b"/><polygon transform="matrix(1.4625 0 0 1.4676 -349.17 -21.776)" points="801.3 -12.93 802.18 -28.23 799.94 -28.484 798.09 -13.066" fill="none" stroke="#000" stroke-width=".6456"/><polygon transform="matrix(1.4625 0 0 1.4676 -349.17 -21.776)" points="809.29 -5.895 808.94 -12.621 801.3 -12.93 798.09 -13.062 792.46 -13.281 794.14 -5.547 797.19 -5.621 800.87 -5.707" fill="#803e2b"/><polygon transform="matrix(1.4625 0 0 1.4676 -349.17 -21.776)" points="809.29 -5.895 808.94 -12.621 801.3 -12.93 798.09 -13.062 792.46 -13.281 794.14 -5.547 797.19 -5.621 800.87 -5.707" fill="none" stroke="#000" stroke-width=".6456"/><polygon transform="matrix(1.4625 0 0 1.4676 -349.17 -21.776)" points="799.94 -28.484 802.18 -28.23 806.27 -27.781 806.93 -33.844 802.52 -34.152 800.67 -34.289 797.51 -34.5 797.16 -28.793" fill="#803e2b"/><polygon transform="matrix(1.4625 0 0 1.4676 -349.17 -21.776)" points="799.94 -28.484 802.18 -28.23 806.27 -27.781 806.93 -33.844 802.52 -34.152 800.67 -34.289 797.51 -34.5 797.16 -28.793" fill="none" stroke="#000" stroke-width=".6456"/><path d="m665.12 67.243c1.9773 0.40653 3.9137 0.82039 5.8501 1.1976 2.0402 0.42414 4.4051 0.85415 6.9353 1.3179l6.672-94.333-6.147-0.63107-13.31 92.449" fill="#803e2b" stroke-width="1.4651"/><path d="m665.12 67.243c1.9773 0.40653 3.9137 0.82039 5.8501 1.1976 2.0402 0.42414 4.4051 0.85415 6.9353 1.3179l6.672-94.333-6.147-0.63107z" fill="none" stroke="#000" stroke-width=".94584"/><polygon transform="matrix(1.4625 0 0 1.4676 -349.17 -21.776)" points="706.35 -28.195 708.67 -28.031 710.95 -60.105" fill="#803e2b"/><polygon transform="matrix(1.4625 0 0 1.4676 -349.17 -21.776)" points="706.35 -28.195 708.67 -28.031 710.95 -60.105" fill="none" stroke="#000" stroke-width=".6456"/><polygon transform="matrix(1.4625 0 0 1.4676 -349.17 -21.776)" points="708.32 -23.145 705.66 -23.453 703.38 -7.613 707.22 -7.422" fill="#803e2b"/><polygon transform="matrix(1.4625 0 0 1.4676 -349.17 -21.776)" points="708.32 -23.145 705.66 -23.453 703.38 -7.613 707.22 -7.422" fill="none" stroke="#000" stroke-width=".6456"/><polygon transform="matrix(1.4625 0 0 1.4676 -349.17 -21.776)" points="712.31 -27.773 708.67 -28.039 706.35 -28.203 702.86 -28.441 703.21 -23.734 705.66 -23.453 708.32 -23.145 711.96 -22.723" fill="#803e2b"/><polygon transform="matrix(1.4625 0 0 1.4676 -349.17 -21.776)" points="712.31 -27.773 708.67 -28.039 706.35 -28.203 702.86 -28.441 703.21 -23.734 705.66 -23.453 708.32 -23.145 711.96 -22.723" fill="none" stroke="#000" stroke-width=".6456"/><polygon transform="matrix(1.4625 0 0 1.4676 -349.17 -21.776)" points="707.22 -7.422 703.38 -7.613 697.51 -7.922 697.51 -2.863 702.62 -2.344 706.82 -1.906 710.62 -1.508 710.95 -7.223" fill="#803e2b"/><polygon transform="matrix(1.4625 0 0 1.4676 -349.17 -21.776)" points="707.22 -7.422 703.38 -7.613 697.51 -7.922 697.51 -2.863 702.62 -2.344 706.82 -1.906 710.62 -1.508 710.95 -7.223" fill="none" stroke="#000" stroke-width=".6456"/><path d="m858.21 77.426 0.18282 11.97c5.7594 0.11446 11.415 0.22308 16.728 0.30379l0.18867-12.222-17.1-0.05136" fill="#fff" stroke-width="1.4651"/><path d="m858.21 77.426 0.18282 11.97c5.7594 0.11446 11.415 0.22308 16.728 0.30379l0.18867-12.222z" fill="none" stroke="#000" stroke-width=".94584"/><path d="m837.84 77.351 0.26909 11.591c6.2274 0.1541 12.746 0.29205 19.202 0.43588l-0.20037-11.964-19.27-0.06311" fill="#fff" stroke-width="1.4651"/><path d="m837.84 77.351 0.26909 11.591c6.2274 0.1541 12.746 0.29205 19.202 0.43588l-0.20037-11.964z" fill="none" stroke="#000" stroke-width=".94584"/><path d="m898.86 77.564-22.6-0.07485-0.18867 12.222c9.1803 0.1497 17.173 0.22895 22.418 0.22895 0.2691-4.6714 0.332-8.5356 0.3715-12.376" fill="#fff" stroke-width="1.4651"/><path d="m898.86 77.564-22.6-0.07485-0.18867 12.222c9.1803 0.1497 17.173 0.22895 22.418 0.22895 0.2691-4.6714 0.332-8.5356 0.3715-12.376z" fill="none" stroke="#000" stroke-width=".94584"/><path d="m713.15-100.69c-0.0234 0.15997-0.0628 0.30379-0.0863 0.46963-0.46801 3.3359-1.1481 5.979-6.615 7.1942 6.2903 2.5507 11.626 0.3214 12.015-3.0218 0.34808-3.3256 3.7309-5.6474 8.5236-5.6474-5.5064 0.11152-5.9013-2.0781-13.837 1.0053" fill="#d4212f" stroke-width="1.4651"/><path d="m713.15-100.69c-0.0234 0.15997-0.0628 0.30379-0.0863 0.46963-0.46801 3.3359-1.1481 5.979-6.615 7.1942 6.2903 2.5507 11.626 0.3214 12.015-3.0218 0.34808-3.3256 3.7309-5.6474 8.5236-5.6474-5.5064 0.11152-5.9013-2.0781-13.837 1.0053z" fill="none" stroke="#000" stroke-width=".94584"/><path d="m730.56-115.71c2.7481 4.3162-0.10237 9.1902-4.5368 8.5077-4.6625-0.71619-11.775 1.1066-12.888 6.5176 7.9474-3.0849 8.3408-0.89378 13.849-1.0038 12.676-0.2627 6.5068-10.65 3.5759-14.022" fill="#d4212f" stroke-width="1.4651"/><path d="m730.56-115.71c2.7481 4.3162-0.10237 9.1902-4.5368 8.5077-4.6625-0.71619-11.775 1.1066-12.888 6.5176 7.9474-3.0849 8.3408-0.89378 13.849-1.0038 12.676-0.2627 6.5068-10.65 3.5759-14.022z" fill="none" stroke="#000" stroke-width=".94584"/><path d="m729.77-116.79c0.30859 0.34342 0.55429 0.71032 0.78245 1.0772 2.9309 3.3711 9.0954 13.77-3.57 14.023 4.7985 0 11.557-1.8521 13.025-6.6732 1.4625-4.8211-3.7075-11.116-4.4446-14.453-3.1766 0.64281-5.7814 1.5542-7.9357 2.7694 0.48556 1.0831 1.2505 2.2308 2.1426 3.2566" fill="#d4212f" stroke-width="1.4651"/><path d="m729.77-116.79c0.30859 0.34342 0.55429 0.71032 0.78245 1.0772 2.9309 3.3711 9.0954 13.77-3.57 14.023 4.7985 0 11.557-1.8521 13.025-6.6732 1.4625-4.8211-3.7075-11.116-4.4446-14.453-3.1766 0.64281-5.7814 1.5542-7.9357 2.7694 0.48556 1.0831 1.2505 2.2308 2.1426 3.2566z" fill="none" stroke="#000" stroke-width=".94584"/><path d="m826.08-112.07c-11.26 0.69417-17.716-0.5166-27.326-7.837-20.161-15.341-55.039-22.152-69.682-6.8625-2.0973 2.219-2.2903 4.5569-1.4333 6.7187 2.1704-1.2152 4.7532-2.1266 7.9298-2.7694 11.598-2.3731 31.273-0.74554 43.093 8.5253 11.826 9.2532 30.656 16.31 45.572 17.41-1.6965-4.4366-0.73564-11.07 1.8457-15.185" fill="#d4212f" stroke-width="1.4651"/><path d="m826.08-112.07c-11.26 0.69417-17.716-0.5166-27.326-7.837-20.161-15.341-55.039-22.152-69.682-6.8625-2.0973 2.219-2.2903 4.5569-1.4333 6.7187 2.1704-1.2152 4.7532-2.1266 7.9298-2.7694 11.598-2.3731 31.273-0.74554 43.093 8.5253 11.826 9.2532 30.656 16.31 45.572 17.41-1.6965-4.4366-0.73564-11.07 1.8457-15.185z" fill="none" stroke="#000" stroke-width=".94584"/><path d="m688.34-107.45c-12.98-3.2449-45.686-1.1579-46.95 15.146 4.1419-3.4856 8.0322-4.6494 11.826-4.7638 2.6618-0.0749 5.2841 0.3669 7.9298 0.92899 7.9927 1.6173 19.858 1.4794 25.451 1.4794-0.60549-4.4542-0.87898-8.4622 1.7433-12.79" fill="#d4212f" stroke-width="1.4651"/><path d="m688.34-107.45c-12.98-3.2449-45.686-1.1579-46.95 15.146 4.1419-3.4856 8.0322-4.6494 11.826-4.7638 2.6618-0.0749 5.2841 0.3669 7.9298 0.92899 7.9927 1.6173 19.858 1.4794 25.451 1.4794-0.60549-4.4542-0.87898-8.4622 1.7433-12.79z" fill="none" stroke="#000" stroke-width=".94584"/><path d="m651.45-73.475c0.14333 1.9886-0.33199 3.876-4.1536 5.7794-5.3646 2.6886-18.264 10.433-20.692 21.969 7.8494-8.0146 16.864-14.228 22.172-16.041 5.3075-1.8008 6.7408-3.6632 7.7865-5.5901-0.44023-2.0282-2.6457-4.0873-5.113-6.117" fill="#d4212f" stroke-width="1.4651"/><path d="m651.45-73.475c0.14333 1.9886-0.33199 3.876-4.1536 5.7794-5.3646 2.6886-18.264 10.433-20.692 21.969 7.8494-8.0146 16.864-14.228 22.172-16.041 5.3075-1.8008 6.7408-3.6632 7.7865-5.5901-0.44023-2.0282-2.6457-4.0873-5.113-6.117z" fill="none" stroke="#000" stroke-width=".94584"/><path d="m654.38-81.019c-4.5587-5.5608-4.0907-11.334-1.1481-16.035-3.7938 0.11447-7.6841 1.2783-11.826 4.7638 0 7.7387 4.3876 14.275 7.6446 16.917 0.80001 0.63694 1.6 1.2783 2.4102 1.9094 2.479 2.0297 4.6669 4.0755 5.1422 6.117 1.9013-3.2845 1.9247-8.5811-2.223-13.672" fill="#d4212f" stroke-width="1.4651"/><path d="m808.89 87.802 10.861-117.86m4.4271-0.0851-5.8837 118.44m7.7075 0.29205 1.3543-118.92m-7.9825 5.5035 7.8903 0.19519m-8.5587 6.1742 8.547 0.28618m-9.1408 5.687 9.0384 0.29206m-9.5123 5.3201 9.426 0.18932m-10.01 6.3694 9.9057 0.29205m-10.568 7.0342 10.426 0.45349m-11.095 7.0739 11.14 0.29792m-12.019 8.198 11.946 0.29205m-12.512 7.0518 12.408 0.39038m-13.174 7.7108 13.06 0.48724m-13.843 8.0087 13.762 0.48138m-14.447 6.5587 14.346 0.48137m-14.89 5.5255 14.9 0.48138m-15.494 5.6928 15.39 0.5797m-16.076 6.547 16.064 0.39038m8.1594-104.16 13.306 103.28m13.134 0-26.44-103.28m7.9415 103.28-10.312-103.28m3.4676 103.28-4.2442-103.28m0.3086 5.9908 4.2223-0.37864m-4.0512 4.6318h5.3075m-4.9141 8.8864 6.9236-0.87763m-6.7291 7.1428 8.4607-0.28032m-8.2896 5.979 9.5298-1.2548m-9.2329 7.8253 10.204-4.1621m-10.01 9.1843 11.146-4.3514m-10.849 10.033 12.317-4.529m-12.031 11.585 13.283-6.478m-12.809 18.339 16.054-5.687m-15.667 14.573 17.407-7.6183m-17.109 15.232 19.019-7.8077m-18.826 12.828 20.361-6.5705m-20.08 13.244 21.452-8.1115m-21.258 15.915 22.783-10.129m-203.84-143.73c-4.5587-5.5608-4.0907-11.334-1.1481-16.035-3.7938 0.11447-7.6841 1.2783-11.826 4.7638 0 7.7387 4.3876 14.275 7.6446 16.917 0.80001 0.63694 1.6 1.2783 2.4102 1.9094 2.479 2.0297 4.6669 4.0755 5.1422 6.117 1.9013-3.2845 1.9247-8.5811-2.223-13.672z" fill="none" stroke="#000" stroke-width=".94584"/><path d="m723.81 295.58c2.6735-7.3894 7.181-30.005 5.4391-39.838-0.0234 0.0573-0.0628 0.12038-0.0628 0.16584 0-0.0749 0.0234-0.16584 0.0395-0.25241v-6e-3 6e-3c0.5543-2.7283 0.63474-6.6336 0.18867-7.8546-4.1419-0.22895-10.364-0.55034-17.094-0.46377 5.5927 26.744-5.1642 41.752-1.2285 52.134 4.6859 5.0016 10.033 3.5164 12.718-3.8906" fill="#efae0e" stroke-width="1.4651"/><path d="m723.81 295.58c2.6735-7.3894 7.181-30.005 5.4391-39.838-0.0234 0.0573-0.0628 0.12038-0.0628 0.16584 0-0.0749 0.0234-0.16584 0.0395-0.25241v-6e-3 6e-3c0.5543-2.7283 0.63474-6.6336 0.18867-7.8546-4.1419-0.22895-10.364-0.55034-17.094-0.46377 5.5927 26.744-5.1642 41.752-1.2285 52.134 4.6859 5.0016 10.033 3.5164 12.718-3.8906z" fill="none" stroke="#000" stroke-width=".94584"/><path d="m776.34 260.07c-2.068 1.7259-3.6797 4.1386-4.8439 7.1252-1.7828 4.6097-2.5082 10.554-2.3766 17.268 7.4618-7.1546 18.248-25.47 7.2205-24.393" fill="#efae0e" stroke-width="1.4651"/><path d="m776.34 260.07c-2.068 1.7259-3.6797 4.1386-4.8439 7.1252-1.7828 4.6097-2.5082 10.554-2.3766 17.268 7.4618-7.1546 18.248-25.47 7.2205-24.393z" fill="none" stroke="#000" stroke-width=".94584"/><path d="m747.77 296.27c-1.2739 5.4008-5.3075 9.6143-10.267 12.321 2.7422 3.7659 4.7298 5.6297 7.004 4.328 2.1134-1.2034 7.8728-7.3204 10.729-13.14-3.004-0.0925-5.7463-1.1477-7.4662-3.509" fill="#efae0e" stroke-width="1.4651"/><path d="m747.77 296.27c-1.2739 5.4008-5.3075 9.6143-10.267 12.321 2.7422 3.7659 4.7298 5.6297 7.004 4.328 2.1134-1.2034 7.8728-7.3204 10.729-13.14-3.004-0.0925-5.7463-1.1477-7.4662-3.509z" fill="none" stroke="#000" stroke-width=".94584"/><path d="m746.36 284c-6.3415-11.23-4.4899-21.406 1.8223-24.141-0.32615-2.4186-0.68593-4.3162-1.0852-5.3436-3.0508-8.0894-16.711-3.2684-17.847 1.2269 1.7419 9.8315-2.7656 32.447-5.4216 39.838-2.7027 7.3953-8.0497 8.8922-12.764 3.8818-1.1422 13.638 15.087 15.358 26.451 9.1329 4.9594-2.7224 8.9638-6.9198 10.267-12.321 0.38902-1.6114 0.67422-3.4342 0.90237-5.3597 0.13163-0.93486 0.22231-1.88 0.30859-2.8662-1.0164-1.3663-1.8559-2.7136-2.634-4.0491" fill="#efae0e" stroke-width="1.4651"/><path d="m746.36 284c-6.3415-11.23-4.4899-21.406 1.8223-24.141-0.32615-2.4186-0.68593-4.3162-1.0852-5.3436-3.0508-8.0894-16.711-3.2684-17.847 1.2269 1.7419 9.8315-2.7656 32.447-5.4216 39.838-2.7027 7.3953-8.0497 8.8922-12.764 3.8818-1.1422 13.638 15.087 15.358 26.451 9.1329 4.9594-2.7224 8.9638-6.9198 10.267-12.321 0.38902-1.6114 0.67422-3.4342 0.90237-5.3597 0.13163-0.93486 0.22231-1.88 0.30859-2.8662-1.0164-1.3663-1.8559-2.7136-2.634-4.0491z" fill="none" stroke="#000" stroke-width=".94584"/><path d="m748.88 266.69c-0.19452-2.5346-0.42852-4.8724-0.69762-6.8332-6.3123 2.7459-8.1463 12.916-1.8223 24.152 0.77661 1.3355 1.6161 2.6828 2.6223 4.0359 0.566-6.8625 0.41244-14.832-0.10236-21.355" fill="#efae0e" stroke-width="1.4651"/><path d="m748.88 266.69c-0.19452-2.5346-0.42852-4.8724-0.69762-6.8332-6.3123 2.7459-8.1463 12.916-1.8223 24.152 0.77661 1.3355 1.6161 2.6828 2.6223 4.0359 0.566-6.8625 0.41244-14.832-0.10236-21.355z" fill="none" stroke="#000" stroke-width=".94584"/><path d="m812.52 242.91c-4.7357 3.2331-9.1803 3.0042-12.42 3.8348-1.0735 4.1798-3.5028 8.1526-7.9298 12.739 2.4 2.172 3.0962 5.5211 1.0852 8.9553-4.2794 7.3674-1.8457 25.202 1.1086 30.011 2.9485 4.8211 6.6384 3.3887 10.334-1.1007 0.97696-6.7422 0.13748-10.336 0.78245-21.641 0.59525-9.5923 5.5313-21.55 7.0391-32.798" fill="#efae0e" stroke-width="1.4651"/><path d="m769.28 288.24c0.10824 1.2959 0.21206 2.5918 0.34808 3.9156-0.13602-1.3179-0.25594-2.6314-0.34808-3.9156zm-0.16526-3.7776c0.0234 1.2152 0.0805 2.4597 0.16526 3.7262-0.0848-1.2783-0.14188-2.5228-0.16526-3.7262zm43.402-41.551c-4.7357 3.2331-9.1803 3.0042-12.42 3.8348-1.0735 4.1798-3.5028 8.1526-7.9298 12.739 2.4 2.172 3.0962 5.5211 1.0852 8.9553-4.2794 7.3674-1.8457 25.202 1.1086 30.011 2.9485 4.8211 6.6384 3.3887 10.334-1.1007 0.97696-6.7422 0.13748-10.336 0.78245-21.641 0.59525-9.5923 5.5313-21.55 7.0391-32.798z" fill="none" stroke="#000" stroke-width=".94584"/><path d="m769.63 292.15c-1.7828 2.9807-4.9024 5.2863-8.3232 6.5411 3.3024 5.5549 9.758 12.05 11.803 12.887 3.0962 1.2783 4.6962 0.46965 7.1869-2.8266-5.268-3.5648-9.8896-9.3604-10.666-16.602" fill="#efae0e" stroke-width="1.4651"/><path d="m769.63 292.15c-1.7828 2.9807-4.9024 5.2863-8.3232 6.5411 3.3024 5.5549 9.758 12.05 11.803 12.887 3.0962 1.2783 4.6962 0.46965 7.1869-2.8266-5.268-3.5648-9.8896-9.3604-10.666-16.602z" fill="none" stroke="#000" stroke-width=".94584"/><path d="m769.28 288.19c-0.0863-1.2783-0.14333-2.5111-0.16526-3.7262-0.14334-6.7128 0.61717-12.658 2.4058-17.268-5.7638-5.0794-19.373-4.2825-22.618-0.50488 0.49141 6.5353 0.64497 14.487 0.10237 21.355-0.10237 0.99797-0.18867 1.9372-0.3086 2.8662-0.21646 1.9372-0.5148 3.7498-0.90238 5.3597 1.7199 2.3614 4.4783 3.4166 7.4779 3.509 1.9876 0.0514 4.0907-0.33757 6.0665-1.0772 3.3989-1.2504 6.5126-3.5545 8.3188-6.5352-0.16526-1.3296-0.2574-2.6314-0.33637-3.9214v-0.0573" fill="#efae0e" stroke-width="1.4651"/><path d="m769.28 288.19c-0.0863-1.2783-0.14333-2.5111-0.16526-3.7262-0.14334-6.7128 0.61717-12.658 2.4058-17.268-5.7638-5.0794-19.373-4.2825-22.618-0.50488 0.49141 6.5353 0.64497 14.487 0.10237 21.355-0.10237 0.99797-0.18867 1.9372-0.3086 2.8662-0.21646 1.9372-0.5148 3.7498-0.90238 5.3597 1.7199 2.3614 4.4783 3.4166 7.4779 3.509 1.9876 0.0514 4.0907-0.33757 6.0665-1.0772 3.3989-1.2504 6.5126-3.5545 8.3188-6.5352-0.16526-1.3296-0.2574-2.6314-0.33637-3.9214v-0.0573z" fill="none" stroke="#000" stroke-width=".94584"/><path d="m794.38 298.46c-1.2505-2.0576-2.4219-6.4956-3.0157-11.465-0.34808-3.0673-0.50896-6.318-0.30275-9.356 0.2223-3.6176 0.88044-6.9198 2.2333-9.2019 1.9876-3.4283 1.2914-6.7818-1.0969-8.9553-2.2742-2.0473-6.1075-3.0379-10.717-1.9783-1.9481 0.4535-3.6505 1.3355-5.0954 2.5624 11.026-1.0772 0.21645 17.238-7.222 24.393 0.0234 1.2152 0.0805 2.4597 0.19451 3.7262v0.0573c0.0863 1.29 0.18282 2.5918 0.3203 3.9214 0.7766 7.2294 5.4216 13.037 10.666 16.602 3.668 2.5052 7.649 3.9156 10.878 3.9156 7.7353 0 13.609-5.4639 13.568-15.335-3.7616 4.4909-7.4399 5.935-10.41 1.1139" fill="#efae0e" stroke-width="1.4651"/><path d="m905.33 165.41-268.53-25.012-11.985-1.1066-120.2-11.19c1.5371 4.9869 3.257 9.8946 5.056 14.745l433.84 40.663c12.911-0.51072 30.021 0.59585 39.734 2.2821 2.457-4.0873 4.8161-8.2215 7.0493-12.451zm-136.05 122.78v0.0573zm-0.16526-3.7262m25.258 14c-1.2505-2.0576-2.4219-6.4956-3.0157-11.465-0.34808-3.0673-0.50896-6.318-0.30275-9.356 0.2223-3.6176 0.88044-6.9198 2.2333-9.2019 1.9876-3.4283 1.2914-6.7818-1.0969-8.9553-2.2742-2.0473-6.1075-3.0379-10.717-1.9783-1.9481 0.4535-3.6505 1.3355-5.0954 2.5624 11.026-1.0772 0.21645 17.238-7.222 24.393 0.0234 1.2152 0.0805 2.4597 0.19451 3.7262v0.0573c0.0863 1.29 0.18282 2.5918 0.3203 3.9214 0.7766 7.2294 5.4216 13.037 10.666 16.602 3.668 2.5052 7.649 3.9156 10.878 3.9156 7.7353 0 13.609-5.4639 13.568-15.335-3.7616 4.4909-7.4399 5.935-10.41 1.1139z" fill="none" stroke="#000" stroke-width=".94584"/><path d="m709 212.27c11.746-5.4742 27.326-10.015 42.494-8.1584 15.128 1.8521 23.257-1.1066 26.931-3.6984 3.7192-2.5977 8.5177-5.5725 16.99-4.4483 8.5119 1.089 15.14-0.37277 20.704-2.6021 5.524-2.219 12.488-3.1524 16.978-2.219 16.259 3.3256 88.9-0.95101 102.34-7.0518-15.768 1.9886-100.02 1.949-107.87-1.0141-7.8435-2.9646-16.768-1.5704-27.108 2.8721-10.328 4.4542-17.499 5.0559-22.52 2.6828-2.8285-1.2959-7.0274-1.1124-9.4552 1.3869-2.4395 2.5111-1.4859 5.1939-12.563 5.1939-11.066 0-48.012 2.969-69.447 6.6732 7.9108 8.9612 18.681 8.1922 22.52 10.383" fill="#fff" stroke-width="1.4651"/><path d="m709 212.27c11.746-5.4742 27.326-10.015 42.494-8.1584 15.128 1.8521 23.257-1.1066 26.931-3.6984 3.7192-2.5977 8.5177-5.5725 16.99-4.4483 8.5119 1.089 15.14-0.37277 20.704-2.6021 5.524-2.219 12.488-3.1524 16.978-2.219 16.259 3.3256 88.9-0.95101 102.34-7.0518-15.768 1.9886-100.02 1.949-107.87-1.0141-7.8435-2.9646-16.768-1.5704-27.108 2.8721-10.328 4.4542-17.499 5.0559-22.52 2.6828-2.8285-1.2959-7.0274-1.1124-9.4552 1.3869-2.4395 2.5111-1.4859 5.1939-12.563 5.1939-11.066 0-48.012 2.969-69.447 6.6732 7.9108 8.9612 18.681 8.1922 22.52 10.383z" fill="none" stroke="#000" stroke-width=".94584"/><path d="m615.14 234.14c9.8428 7.8708 36.227 3.3359 41.413 0.74554 5.1525-2.6021 9.6088-4.7301 21.047-5.4228 12.66-0.74555 22.681-2.2249 32.518-11.999 4.6508-4.6097 1.8457-5.9452-1.4742-8.1628-3.3419-2.219-12.86-5.7897-17.751-11.867-1.9247-2.3966-4.4212-1.4676-7.004 0-2.5828 1.4852-8.8717 0.38452-13.672-1.1007-4.8161-1.4911-42.138-2.2249-49.504 4.4483-7.3814 6.6673-20.338 11.993-12.198 24.829 2.0812 3.2552 3.6534 6.1566 6.6238 8.5297" fill="#949492" stroke-width="1.4651"/><path d="m615.14 234.14c9.8428 7.8708 36.227 3.3359 41.413 0.74554 5.1525-2.6021 9.6088-4.7301 21.047-5.4228 12.66-0.74555 22.681-2.2249 32.518-11.999 4.6508-4.6097 1.8457-5.9452-1.4742-8.1628-3.3419-2.219-12.86-5.7897-17.751-11.867-1.9247-2.3966-4.4212-1.4676-7.004 0-2.5828 1.4852-8.8717 0.38452-13.672-1.1007-4.8161-1.4911-42.138-2.2249-49.504 4.4483-7.3814 6.6673-20.338 11.993-12.198 24.829 2.0812 3.2552 3.6534 6.1566 6.6238 8.5297z" fill="none" stroke="#000" stroke-width=".94584"/><path d="m788.14 50.693c-0.47971-17.531-11.032-30.723-31.045-30.723-16.597 0-30.839 11.386-31.936 30.723h62.981" fill="#efae0e" stroke-width="1.4651"/><path d="m625-117.92c0-3.239 2.3254-6.2491 5.7872-6.2491 3.4618 0 7.1123 3.2845 6.6384 6.0774-0.64498 3.9787-0.95941 6.4266-5.0618 6.7539-3.668 0.27444-7.3638-1.6628-7.3638-6.5822" fill="#d4212f" stroke-width="1.4651"/><path d="m625-117.92c0-3.239 2.3254-6.2491 5.7872-6.2491 3.4618 0 7.1123 3.2845 6.6384 6.0774-0.64498 3.9787-0.95941 6.4266-5.0618 6.7539-3.668 0.27444-7.3638-1.6628-7.3638-6.5822z" fill="none" stroke="#000" stroke-width=".94584"/><path d="m601.36-146.82c0-3.2449 2.3254-6.2549 5.7872-6.2549 3.4501 0 7.1123 3.2904 6.6618 6.0656-0.65667 3.9904-0.98282 6.4384-5.0852 6.7701-3.668 0.27004-7.3638-1.6672-7.3638-6.5807" fill="#d4212f" stroke-width="1.4651"/><path d="m601.36-146.82c0-3.2449 2.3254-6.2549 5.7872-6.2549 3.4501 0 7.1123 3.2904 6.6618 6.0656-0.65667 3.9904-0.98282 6.4384-5.0852 6.7701-3.668 0.27004-7.3638-1.6672-7.3638-6.5807z" fill="none" stroke="#000" stroke-width=".94584"/><path d="m571.77-50.457c-1.309-2.9646-0.45192-6.6556 2.7086-8.0894 3.1766-1.4162 7.8274 0.0631 8.5353 2.7914 1.0515 3.9097 1.7594 6.2711-1.8677 8.267-3.1883 1.7611-7.3536 1.5028-9.3762-2.969" fill="#d4212f" stroke-width="1.4651"/><path d="m571.77-50.457c-1.309-2.9646-0.45192-6.6556 2.7086-8.0894 3.1766-1.4162 7.8274 0.0631 8.5353 2.7914 1.0515 3.9097 1.7594 6.2711-1.8677 8.267-3.1883 1.7611-7.3536 1.5028-9.3762-2.969z" fill="none" stroke="#000" stroke-width=".94584"/><path d="m538.39-67.065c-1.3367-2.9528-0.45192-6.6497 2.7028-8.0836 3.1649-1.4221 7.8274 0.0749 8.547 2.7914 1.0457 3.9038 1.7419 6.277-1.8676 8.267-3.1941 1.7538-7.3653 1.5014-9.3821-2.9748" fill="#d4212f" stroke-width="1.4651"/><path d="m538.39-67.065c-1.3367-2.9528-0.45192-6.6497 2.7028-8.0836 3.1649-1.4221 7.8274 0.0749 8.547 2.7914 1.0457 3.9038 1.7419 6.277-1.8676 8.267-3.1941 1.7538-7.3653 1.5014-9.3821-2.9748z" fill="none" stroke="#000" stroke-width=".94584"/><path d="m510.2 26.489c-2.4102-2.1676-3.0962-5.9042-0.77661-8.4842 2.3137-2.5918 7.1927-3.1187 8.9638-0.91725 2.5082 3.148 4.1185 5.0339 1.6058 8.3184-2.2406 2.9059-6.1543 4.3617-9.7931 1.0831" fill="#d4212f" stroke-width="1.4651"/><path d="m510.2 26.489c-2.4102-2.1676-3.0962-5.9042-0.77661-8.4842 2.3137-2.5918 7.1927-3.1187 8.9638-0.91725 2.5082 3.148 4.1185 5.0339 1.6058 8.3184-2.2406 2.9059-6.1543 4.3617-9.7931 1.0831z" fill="none" stroke="#000" stroke-width=".94584"/><path d="m554.06 117.92c-3.0742-0.98036-5.2446-4.1049-4.1989-7.4129 1.0735-3.3138 5.2958-5.8014 7.7865-4.5173 3.5876 1.8228 5.8326 2.8721 4.8966 6.908-0.84536 3.5648-3.8216 6.5118-8.4841 5.0222" fill="#d4212f" stroke-width="1.4651"/><path d="m554.06 117.92c-3.0742-0.98036-5.2446-4.1049-4.1989-7.4129 1.0735-3.3138 5.2958-5.8014 7.7865-4.5173 3.5876 1.8228 5.8326 2.8721 4.8966 6.908-0.84536 3.5648-3.8216 6.5118-8.4841 5.0222z" fill="none" stroke="#000" stroke-width=".94584"/><path d="m519.44 131.76c-3.0742-0.98035-5.2505-4.1108-4.1814-7.4129 1.0574-3.3139 5.268-5.8014 7.7865-4.529 3.5876 1.8345 5.7989 2.8897 4.879 6.908-0.85119 3.578-3.8157 6.5191-8.4841 5.0339" fill="#d4212f" stroke-width="1.4651"/><path d="m519.44 131.76c-3.0742-0.98035-5.2505-4.1108-4.1814-7.4129 1.0574-3.3139 5.268-5.8014 7.7865-4.529 3.5876 1.8345 5.7989 2.8897 4.879 6.908-0.85119 3.578-3.8157 6.5191-8.4841 5.0339z" fill="none" stroke="#000" stroke-width=".94584"/><path d="m591.06 192.92c-3.2454 0.10277-6.3181-2.1266-6.3927-5.5945-0.11991-3.4738 3.0333-7.2294 5.8501-6.8625 3.9766 0.52685 6.4278 0.76754 6.8783 4.8842 0.37734 3.6455-1.4333 7.4129-6.3356 7.5728" fill="#d4212f" stroke-width="1.4651"/><path d="m591.06 192.92c-3.2454 0.10277-6.3181-2.1266-6.3927-5.5945-0.11991-3.4738 3.0333-7.2294 5.8501-6.8625 3.9766 0.52685 6.4278 0.76754 6.8783 4.8842 0.37734 3.6455-1.4333 7.4129-6.3356 7.5728z" fill="none" stroke="#000" stroke-width=".94584"/><path d="m563 217.54c-3.2278 0.10276-6.302-2.1148-6.4161-5.5901-0.0966-3.4797 3.0567-7.2353 5.8442-6.8684 3.9927 0.53274 6.4556 0.76756 6.9017 4.8842 0.39487 3.6588-1.4333 7.4085-6.3298 7.5743" fill="#d4212f" stroke-width="1.4651"/><path d="m563 217.54c-3.2278 0.10276-6.302-2.1148-6.4161-5.5901-0.0966-3.4797 3.0567-7.2353 5.8442-6.8684 3.9927 0.53274 6.4556 0.76756 6.9017 4.8842 0.39487 3.6588-1.4333 7.4085-6.3298 7.5743z" fill="none" stroke="#000" stroke-width=".94584"/><path d="m631.22 278.51c-2.8914 1.45-6.6326 0.72206-8.158-2.379-1.559-3.1069-0.24569-7.8546 2.4278-8.6912 3.8333-1.1917 6.1762-2.0062 8.3013 1.5425 1.8735 3.148 1.7931 7.3263-2.5711 9.5277" fill="#d4212f" stroke-width="1.4651"/><path d="m631.22 278.51c-2.8914 1.45-6.6326 0.72206-8.158-2.379-1.559-3.1069-0.24569-7.8546 2.4278-8.6912 3.8333-1.1917 6.1762-2.0062 8.3013 1.5425 1.8735 3.148 1.7931 7.3263-2.5711 9.5277z" fill="none" stroke="#000" stroke-width=".94584"/><path d="m688.04-184.87c0-3.2449 2.2903-6.2549 5.7594-6.2549 3.4618 0 7.1298 3.2962 6.656 6.0715-0.63473 3.9787-0.98282 6.4384-5.0794 6.7583-3.6563 0.29939-7.336-1.6555-7.336-6.5749" fill="#d4212f" stroke-width="1.4651"/><path d="m688.04-184.87c0-3.2449 2.2903-6.2549 5.7594-6.2549 3.4618 0 7.1298 3.2962 6.656 6.0715-0.63473 3.9787-0.98282 6.4384-5.0794 6.7583-3.6563 0.29939-7.336-1.6555-7.336-6.5749z" fill="none" stroke="#000" stroke-width=".94584"/><path d="m646.4 244.35c-2.8797 1.4559-6.5989 0.72794-8.1463-2.379-1.5371-3.1011-0.22815-7.8488 2.4278-8.6794 3.8333-1.2034 6.1704-2.018 8.3013 1.5366 1.8618 3.1466 1.7989 7.3263-2.5828 9.5218" fill="#d4212f" stroke-width="1.4651"/><path d="m619.23 89.206c23.092 14.688 69.287 21.728 94.932 23.951 47.007 4.0697 115.17 5.6532 157.72 3.1876 0.42852 1.811 0.26324 4.7815 0 6.4443-35.37 2.7342-131.04-1.1066-145.79-2.6021-14.79-1.4735-75.251-6.296-106.87-30.981zm27.171 155.15c-2.8797 1.4559-6.5989 0.72794-8.1463-2.379-1.5371-3.1011-0.22815-7.8488 2.4278-8.6794 3.8333-1.2034 6.1704-2.018 8.3013 1.5366 1.8618 3.1466 1.7989 7.3263-2.5828 9.5218z" fill="none" stroke="#000" stroke-width=".94584"/><path d="m620.71 62.509c0.72542 5.5549 1.4918 10.376 1.4918 15.937 4.6099 1.7376 9.5927 3.3359 14.757 4.8035v-15.398c-5.7185-1.6672-11.22-3.4386-16.249-5.3421" fill="#fff" stroke-width="1.4651"/><path d="m620.71 62.509c0.72542 5.5549 1.4918 10.376 1.4918 15.937 4.6099 1.7376 9.5927 3.3359 14.757 4.8035v-15.398c-5.7185-1.6672-11.22-3.4386-16.249-5.3421z" fill="none" stroke="#000" stroke-width=".94584"/><path d="m668.8 75.676-0.21645 14.727c5.1247 0.93486 10.277 1.789 15.368 2.5683l0.21645-14.286c-5.091-0.94074-10.238-1.9372-15.368-3.0101" fill="#fff" stroke-width="1.4651"/><path d="m668.8 75.676-0.21645 14.727c5.1247 0.93486 10.277 1.789 15.368 2.5683l0.21645-14.286c-5.091-0.94074-10.238-1.9372-15.368-3.0101z" fill="none" stroke="#000" stroke-width=".94584"/><path d="m645.16 70.139-0.21207 15.244c5.0282 1.2548 10.204 2.4025 15.447 3.4621l0.56599-14.865c-5.3923-1.1976-10.653-2.4817-15.801-3.8407" fill="#fff" stroke-width="1.4651"/><path d="m645.16 70.139-0.21207 15.244c5.0282 1.2548 10.204 2.4025 15.447 3.4621l0.56599-14.865c-5.3923-1.1976-10.653-2.4817-15.801-3.8407z" fill="none" stroke="#000" stroke-width=".94584"/><path d="m833.87 93.913 0.34808 11.277c4.8556 0.091 9.6951 0.16584 14.529 0.20693l-0.18282-11.025c-4.8848-0.11007-9.7975-0.28178-14.694-0.45936" fill="#fff" stroke-width="1.4651"/><path d="m833.87 93.913 0.34808 11.277c4.8556 0.091 9.6951 0.16584 14.529 0.20693l-0.18282-11.025c-4.8848-0.11007-9.7975-0.28178-14.694-0.45936z" fill="none" stroke="#000" stroke-width=".94584"/><path d="m810.65 92.818-0.20036 11.717c5.2446 0.18932 10.592 0.34342 15.95 0.48137l0.16527-11.403c-5.3397-0.23922-10.665-0.50339-15.915-0.79544" fill="#fff" stroke-width="1.4651"/><path d="m810.65 92.818-0.20036 11.717c5.2446 0.18932 10.592 0.34342 15.95 0.48137l0.16527-11.403c-5.3397-0.23922-10.665-0.50339-15.915-0.79544z" fill="none" stroke="#000" stroke-width=".94584"/><path d="m857.41 94.544 0.21646 10.916c4.9185 0.0235 9.7975 0.0117 14.614-0.0176l0.18282-10.79c-4.9697 0.0059-9.9905-0.02349-15.013-0.1086" fill="#fff" stroke-width="1.4651"/><path d="m857.41 94.544 0.21646 10.916c4.9185 0.0235 9.7975 0.0117 14.614-0.0176l0.18282-10.79c-4.9697 0.0059-9.9905-0.02349-15.013-0.1086z" fill="none" stroke="#000" stroke-width=".94584"/><path d="m786.83 91.259 0.18282 12.257c5.2051 0.27004 10.574 0.51072 16.042 0.7338l0.2062-11.879c-5.6219-0.33315-11.106-0.71179-16.432-1.1124" fill="#fff" stroke-width="1.4651"/><path d="m786.83 91.259 0.18282 12.257c5.2051 0.27004 10.574 0.51072 16.042 0.7338l0.2062-11.879c-5.6219-0.33315-11.106-0.71179-16.432-1.1124z" fill="none" stroke="#000" stroke-width=".94584"/><path d="m891.1 94.382c-3.336 0.09687-6.7583 0.17171-10.204 0.20106l0.53091 10.737c3.2395-0.0396 6.4161-0.10859 9.5693-0.18933 0.013-2.9455 0.1037-7.451 0.1037-10.749" fill="#fff" stroke-width="1.4651"/><path d="m891.1 94.382c-3.336 0.09687-6.7583 0.17171-10.204 0.20106l0.53091 10.737c3.2395-0.0396 6.4161-0.10859 9.5693-0.18933 0.013-2.9455 0.1037-7.451 0.1037-10.749z" fill="none" stroke="#000" stroke-width=".94584"/><path d="m715.47 83.754 0.56015 13.449c5.6965 0.65308 11.026 1.2548 15.905 1.789l0.34808-12.996c-5.113-0.63694-10.729-1.3825-16.813-2.2425" fill="#fff" stroke-width="1.4651"/><path d="m715.47 83.754 0.56015 13.449c5.6965 0.65308 11.026 1.2548 15.905 1.789l0.34808-12.996c-5.113-0.63694-10.729-1.3825-16.813-2.2425z" fill="none" stroke="#000" stroke-width=".94584"/><path d="m692.32 80.12 0.34807 14.12c5.3075 0.74554 10.489 1.4162 15.5 2.0297v-13.593c-5.1013-0.7793-10.432-1.629-15.848-2.5566" fill="#fff" stroke-width="1.4651"/><path d="m692.32 80.12 0.34807 14.12c5.3075 0.74554 10.489 1.4162 15.5 2.0297v-13.593c-5.1013-0.7793-10.432-1.629-15.848-2.5566z" fill="none" stroke="#000" stroke-width=".94584"/><path d="m761.74 89.183 0.38903 12.784c5.4274 0.40652 11.209 0.78517 17.275 1.1462l0.20037-12.388c-6.2552-0.49899-12.254-1.0141-17.865-1.5424" fill="#fff" stroke-width="1.4651"/><path d="m761.74 89.183 0.38903 12.784c5.4274 0.40652 11.209 0.78517 17.275 1.1462l0.20037-12.388c-6.2552-0.49899-12.254-1.0141-17.865-1.5424z" fill="none" stroke="#000" stroke-width=".94584"/><path d="m740.39 86.971c-0.20622-0.02936-0.45192-0.05137-0.64497-0.07485l-0.21208 12.95c0.2852 0.03377 0.59965 0.06898 0.85705 0.09687 4.1302 0.47551 8.7298 0.929 13.762 1.3708l0.53088-12.812c-5.2139-0.5166-9.9905-1.0214-14.293-1.5307" fill="#fff" stroke-width="1.4651"/><path d="m740.39 86.971c-0.20622-0.02936-0.45192-0.05137-0.64497-0.07485l-0.21208 12.95c0.2852 0.03377 0.59965 0.06898 0.85705 0.09687 4.1302 0.47551 8.7298 0.929 13.762 1.3708l0.53088-12.812c-5.2139-0.5166-9.9905-1.0214-14.293-1.5307z" fill="none" stroke="#000" stroke-width=".94584"/><path d="m636.83 140.4c-1.8676-5.8411-4.645-10.532-6.8154-13.575 9.0267 0.98622 19.459 1.9886 30.827 3.0042 4.9697 0.44174 10.084 0.8835 15.402 1.3238 5.6044 0.4755 11.415 0.9466 17.305 1.4104 5.736 0.45349 11.598 0.90552 17.539 1.3473 6.479 0.48723 13.076 0.96862 19.693 1.4338 4.6099 0.33756 9.2431 0.65308 13.871 0.9745 6.9865 0.48136 13.98 0.9466 20.943 1.3927 4.4271 0.28619 8.8322 0.56796 13.22 0.84828 7.7017 0.48139 15.323 0.93487 22.76 1.3649 4.0512 0.24068 8.0044 0.47551 11.889 0.68244 7.2731 0.41239 14.299 0.79103 21.075 1.1301 4.9989 0.25828 9.815 0.4931 14.448 0.71618 24.098 1.1301 42.865 1.7024 51.8 1.4735 0.92-4.1504 2.1075-8.7088 4.0454-11.19-36.107 1.2093-227.05-6.0656-287.83-13.834 3.7016 9.1902 6.7013 17.473 7.8728 20.381l11.959 1.1169" fill="#d4212f" stroke-width="1.4651"/><path d="m921.56 81.845-0.4738 15.593 2.8622 0.28618 0.3261-15.627zm-5.5634-0.50339-0.3261 15.56 2.4965 0.25243 0.1653-15.599zm14.293 1.2959-2.9543-0.26417-0.4914 15.623 2.8622 0.28618zm-21.155-1.927-1.1598 15.444 3.6899 0.3669 0.4915-15.542zm-8.0834 22.782 11.134 20.844 8.095-0.18932 5.9643-19.308zm3.0742-27.804-2.2961 24.33 30.204 0.5797 5.565-22.014zm-267.3 64.707c-1.8676-5.8411-4.645-10.532-6.8154-13.575 9.0267 0.98622 19.459 1.9886 30.827 3.0042 4.9697 0.44174 10.084 0.8835 15.402 1.3238 5.6044 0.4755 11.415 0.9466 17.305 1.4104 5.736 0.45349 11.598 0.90552 17.539 1.3473 6.479 0.48723 13.076 0.96862 19.693 1.4338 4.6099 0.33756 9.2431 0.65308 13.871 0.9745 6.9865 0.48136 13.98 0.9466 20.943 1.3927 4.4271 0.28619 8.8322 0.56796 13.22 0.84828 7.7017 0.48139 15.323 0.93487 22.76 1.3649 4.0512 0.24068 8.0044 0.47551 11.889 0.68244 7.2731 0.41239 14.299 0.79103 21.075 1.1301 4.9989 0.25828 9.815 0.4931 14.448 0.71618 24.098 1.1301 42.865 1.7024 51.8 1.4735 0.92-4.1504 2.1075-8.7088 4.0454-11.19-36.107 1.2093-227.05-6.0656-287.83-13.834 3.7016 9.1902 6.7013 17.473 7.8728 20.381z" fill="none" stroke="#000" stroke-width=".94584"/><path d="m660.61 138.92c3.9766 0.63108 9.0267 1.3076 14.979 2.0004l0.65667-9.7566c-5.3192-0.44176-10.432-0.89379-15.402-1.3355-0.0571 2.3555-0.14331 5.4522-0.23399 9.0918" fill="#fff" stroke-width="1.4651"/><path d="m660.61 138.92c3.9766 0.63108 9.0267 1.3076 14.979 2.0004l0.65667-9.7566c-5.3192-0.44176-10.432-0.89379-15.402-1.3355-0.0571 2.3555-0.14331 5.4522-0.23399 9.0918z" fill="none" stroke="#000" stroke-width=".94584"/><path d="m802.26 152.91c3.668 0.37864 7.3126 0.76755 10.963 1.1344l0.21207-13.443c-3.8786-0.20693-7.8494-0.44176-11.866-0.67071l0.69031 12.98" fill="#fff" stroke-width="1.4651"/><path d="m802.26 152.91c3.668 0.37864 7.3126 0.76755 10.963 1.1344l0.21207-13.443c-3.8786-0.20693-7.8494-0.44176-11.866-0.67071z" fill="none" stroke="#000" stroke-width=".94584"/><path d="m835.42 156.08c4.547 0.3669 9.1174 0.6942 13.729 0.94661 0.21646-5.5373 0.0234-10.863-0.18281-14.579-4.6099-0.22308-9.4494-0.4579-14.448-0.71618l0.90237 14.349" fill="#fff" stroke-width="1.4651"/><path d="m835.42 156.08c4.547 0.3669 9.1174 0.6942 13.729 0.94661 0.21646-5.5373 0.0234-10.863-0.18281-14.579-4.6099-0.22308-9.4494-0.4579-14.448-0.71618z" fill="none" stroke="#000" stroke-width=".94584"/><path d="m765.8 149.44c3.5539 0.30968 12.215 1.0714 13.014 1.1462v-12.027c-4.3876-0.28032-8.7927-0.56209-13.243-0.84828l0.22961 11.729" fill="#fff" stroke-width="1.4651"/><path d="m765.8 149.44c3.5539 0.30968 12.215 1.0714 13.014 1.1462v-12.027c-4.3876-0.28032-8.7927-0.56209-13.243-0.84828z" fill="none" stroke="#000" stroke-width=".94584"/><path d="m693.78 142.89c5.2841 0.53861 10.924 1.0831 16.837 1.6334l0.45191-10.617c-5.9364-0.44175-11.786-0.89378-17.521-1.3473l0.23255 10.33" fill="#fff" stroke-width="1.4651"/><path d="m693.78 142.89c5.2841 0.53861 10.924 1.0831 16.837 1.6334l0.45191-10.617c-5.9364-0.44175-11.786-0.89378-17.521-1.3473z" fill="none" stroke="#000" stroke-width=".94584"/><path d="m730.78 146.36c4.4051 0.39039 8.9068 0.79105 13.442 1.1917l0.42851-11.242c-4.6216-0.32142-9.2607-0.63694-13.871-0.9745v11.025" fill="#fff" stroke-width="1.4651"/><path d="m730.78 146.36c4.4051 0.39039 8.9068 0.79105 13.442 1.1917l0.42851-11.242c-4.6216-0.32142-9.2607-0.63694-13.871-0.9745z" fill="none" stroke="#000" stroke-width=".94584"/><path d="m898.15 181.13s-10.883-48.098-12.078-52.822c-1.1876-4.7301 3.1942-8.2949 5.581-1.7538 2.4059 6.5294 20.121 54.25 20.121 54.25l-13.625 0.32581" fill="#fff" stroke-width="1.4651"/><path d="m898.15 181.13s-10.883-48.098-12.078-52.822c-1.1876-4.7301 3.1942-8.2949 5.581-1.7538 2.4059 6.5294 20.121 54.25 20.121 54.25z" fill="none" stroke="#000" stroke-width=".94584"/><path d="m859.47 179.04s-7.4384-45.038-8.5865-49.808c-1.1364-4.7639 2.9543-11.305 5.9013-1.2093 2.9426 10.107 16.247 51.619 16.247 51.619l-13.562-0.60173" fill="#fff" stroke-width="1.4651"/><path d="m859.47 179.04s-7.4384-45.038-8.5865-49.808c-1.1364-4.7639 2.9543-11.305 5.9013-1.2093 2.9426 10.107 16.247 51.619 16.247 51.619z" fill="none" stroke="#000" stroke-width=".94584"/><path d="m824 176.96s-7.1591-49.808-8.2954-53.378c-1.1481-3.5722 2.4278-5.6532 4.1872-0.60759 1.7419 5.05 14.712 53.986 14.712 53.986h-10.603" fill="#fff" stroke-width="1.4651"/><path d="m824 176.96s-7.1591-49.808-8.2954-53.378c-1.1481-3.5722 2.4278-5.6532 4.1872-0.60759 1.7419 5.05 14.712 53.986 14.712 53.986z" fill="none" stroke="#000" stroke-width=".94584"/><path d="m786.46 176.34s1.7653-51.607 1.4962-54.852c-0.2574-3.2449 3.8333-4.7404 4.427-0.28031 0.62305 4.4483 5.0384 54.53 5.0384 54.53l-10.962 0.60172" fill="#fff" stroke-width="1.4651"/><path d="m786.46 176.34s1.7653-51.607 1.4962-54.852c-0.2574-3.2449 3.8333-4.7404 4.427-0.28031 0.62305 4.4483 5.0384 54.53 5.0384 54.53z" fill="none" stroke="#000" stroke-width=".94584"/><path d="m749.53 173.39s3.5027-51.349 3.2453-53.992c-0.28518-2.6314 3.8216-5.6356 4.4271 0 0.6172 5.6694 4.4505 53.992 4.4505 53.992h-12.123" fill="#fff" stroke-width="1.4651"/><path d="m749.53 173.39s3.5027-51.349 3.2453-53.992c-0.28518-2.6314 3.8216-5.6356 4.4271 0 0.6172 5.6694 4.4505 53.992 4.4505 53.992z" fill="none" stroke="#000" stroke-width=".94584"/><path d="m709.64 173.11s11.494-52.22 12.089-55.459c0.6172-3.239 3.2731-3.0101 3.2731 0.27591s-1.4801 55.459-1.4801 55.459l-13.882-0.27592" fill="#fff" stroke-width="1.4651"/><path d="m709.64 173.11s11.494-52.22 12.089-55.459c0.6172-3.239 3.2731-3.0101 3.2731 0.27591s-1.4801 55.459-1.4801 55.459z" fill="none" stroke="#000" stroke-width=".94584"/><path d="m670.96 167.17s12.911-42.434 13.831-46.287c0.92579-3.8407 6.558-2.6887 6.2333 1.4852-0.29689 4.168-9.1803 45.691-9.1803 45.691l-10.884-0.88935" fill="#fff" stroke-width="1.4651"/><path d="m670.96 167.17s12.911-42.434 13.831-46.287c0.92579-3.8407 6.558-2.6887 6.2333 1.4852-0.29689 4.168-9.1803 45.691-9.1803 45.691z" fill="none" stroke="#000" stroke-width=".94584"/><path d="m629.34 164.3s22.154-40.635 24.389-45.078c2.2113-4.4601 6.4951-2.969 4.6508 0.3669-1.8735 3.3359-18.83 44.482-18.83 44.482l-10.21 0.22895" fill="#fff" stroke-width="1.4651"/><path d="m629.34 164.3s22.154-40.635 24.389-45.078c2.2113-4.4601 6.4951-2.969 4.6508 0.3669-1.8735 3.3359-18.83 44.482-18.83 44.482z" fill="none" stroke="#000" stroke-width=".94584"/><path d="m889.52-118.35c0-3.239-2.3137-6.2549-5.7755-6.2549-3.4676 0-7.1357 3.2845-6.6618 6.0774 0.65669 3.9787 0.98282 6.4325 5.0794 6.7583 3.6505 0.27591 7.358-1.6613 7.358-6.5807" fill="#d4212f" stroke-width="1.4651"/><path d="m889.52-118.35c0-3.239-2.3137-6.2549-5.7755-6.2549-3.4676 0-7.1357 3.2845-6.6618 6.0774 0.65669 3.9787 0.98282 6.4325 5.0794 6.7583 3.6505 0.27591 7.358-1.6613 7.358-6.5807z" fill="none" stroke="#000" stroke-width=".94584"/><path d="m913.16-147.25c0-3.2449-2.3254-6.2608-5.7872-6.2608s-7.1298 3.2845-6.6618 6.0774c0.6567 3.9787 0.9887 6.4325 5.0852 6.7583 3.668 0.28765 7.3638-1.6731 7.3638-6.5749" fill="#d4212f" stroke-width="1.4651"/><path d="m913.16-147.25c0-3.2449-2.3254-6.2608-5.7872-6.2608s-7.1298 3.2845-6.6618 6.0774c0.6567 3.9787 0.9887 6.4325 5.0852 6.7583 3.668 0.28765 7.3638-1.6731 7.3638-6.5749z" fill="none" stroke="#000" stroke-width=".94584"/><path d="m942.74-50.893c1.309-2.9587 0.452-6.6497-2.7086-8.0836-3.1532-1.428-7.8274 0.0631-8.5411 2.7914-1.0457 3.8921-1.7419 6.2711 1.8734 8.267 3.1884 1.7552 7.3595 1.5087 9.3763-2.9748" fill="#d4212f" stroke-width="1.4651"/><path d="m942.74-50.893c1.309-2.9587 0.452-6.6497-2.7086-8.0836-3.1532-1.428-7.8274 0.0631-8.5411 2.7914-1.0457 3.8921-1.7419 6.2711 1.8734 8.267 3.1884 1.7552 7.3595 1.5087 9.3763-2.9748z" fill="none" stroke="#000" stroke-width=".94584"/><path d="m976.13-67.495c1.3309-2.9587 0.468-6.6497-2.7189-8.0894-3.1531-1.428-7.8274 0.069-8.5352 2.7914-1.0516 3.9097-1.7594 6.277 1.8676 8.267 3.2044 1.7597 7.3756 1.5072 9.3865-2.969" fill="#d4212f" stroke-width="1.4651"/><path d="m976.13-67.495c1.3309-2.9587 0.468-6.6497-2.7189-8.0894-3.1531-1.428-7.8274 0.069-8.5352 2.7914-1.0516 3.9097-1.7594 6.277 1.8676 8.267 3.2044 1.7597 7.3756 1.5072 9.3865-2.969z" fill="none" stroke="#000" stroke-width=".94584"/><path d="m1004.3 26.059c2.4103-2.1676 3.0962-5.8998 0.7824-8.4842-2.3195-2.5918-7.2044-3.1187-8.9696-0.90551-2.5082 3.1363-4.1184 5.0222-1.6058 8.3184 2.2464 2.8882 6.1601 4.3558 9.793 1.0714" fill="#d4212f" stroke-width="1.4651"/><path d="m1004.3 26.059c2.4103-2.1676 3.0962-5.8998 0.7824-8.4842-2.3195-2.5918-7.2044-3.1187-8.9696-0.90551-2.5082 3.1363-4.1184 5.0222-1.6058 8.3184 2.2464 2.8882 6.1601 4.3558 9.793 1.0714z" fill="none" stroke="#000" stroke-width=".94584"/><path d="m960.46 117.49c3.0903-0.98036 5.2446-4.099 4.1711-7.4129-1.0457-3.3197-5.268-5.8073-7.7587-4.5173-3.5934 1.8228-5.8267 2.8721-4.8848 6.908 0.8395 3.5648 3.8113 6.5 8.4724 5.0222" fill="#d4212f" stroke-width="1.4651"/><path d="m960.46 117.49c3.0903-0.98036 5.2446-4.099 4.1711-7.4129-1.0457-3.3197-5.268-5.8073-7.7587-4.5173-3.5934 1.8228-5.8267 2.8721-4.8848 6.908 0.8395 3.5648 3.8113 6.5 8.4724 5.0222z" fill="none" stroke="#000" stroke-width=".94584"/><path d="m995.08 131.33c3.0742-0.99209 5.2271-4.1108 4.2048-7.4129-1.0794-3.3197-5.3192-5.8073-7.7865-4.529-3.5876 1.8345-5.8501 2.8897-4.9024 6.908 0.8512 3.578 3.8055 6.5191 8.4841 5.0339" fill="#d4212f" stroke-width="1.4651"/><path d="m995.08 131.33c3.0742-0.99209 5.2271-4.1108 4.2048-7.4129-1.0794-3.3197-5.3192-5.8073-7.7865-4.529-3.5876 1.8345-5.8501 2.8897-4.9024 6.908 0.8512 3.578 3.8055 6.5191 8.4841 5.0339z" fill="none" stroke="#000" stroke-width=".94584"/><path d="m923.46 192.49c3.2454 0.091 6.3181-2.1324 6.3926-5.5945 0.12-3.4738-3.0566-7.2412-5.8324-6.8625-3.9928 0.52098-6.4439 0.76754-6.8958 4.8842-0.3775 3.6455 1.4449 7.4129 6.3356 7.5728" fill="#d4212f" stroke-width="1.4651"/><path d="m923.46 192.49c3.2454 0.091 6.3181-2.1324 6.3926-5.5945 0.12-3.4738-3.0566-7.2412-5.8324-6.8625-3.9928 0.52098-6.4439 0.76754-6.8958 4.8842-0.3775 3.6455 1.4449 7.4129 6.3356 7.5728z" fill="none" stroke="#000" stroke-width=".94584"/><path d="m951.51 217.11c3.2511 0.10276 6.3239-2.1207 6.3926-5.5945 0.1259-3.4738-3.0508-7.2294-5.8384-6.8625-3.9883 0.53273-6.4322 0.77342-6.8841 4.8842-0.3832 3.6573 1.4333 7.4011 6.3299 7.5728" fill="#d4212f" stroke-width="1.4651"/><path d="m951.51 217.11c3.2511 0.10276 6.3239-2.1207 6.3926-5.5945 0.1259-3.4738-3.0508-7.2294-5.8384-6.8625-3.9883 0.53273-6.4322 0.77342-6.8841 4.8842-0.3832 3.6573 1.4333 7.4011 6.3299 7.5728z" fill="none" stroke="#000" stroke-width=".94584"/><path d="m868.11 243.92c2.8914 1.4559 6.6106 0.72793 8.1521-2.379 1.5371-3.1069 0.24569-7.8488-2.4278-8.6853-3.8274-1.1976-6.1762-2.0121-8.2954 1.5366-1.8954 3.1363-1.7931 7.338 2.5711 9.5277" fill="#d4212f" stroke-width="1.4651"/><path d="m868.11 243.92c2.8914 1.4559 6.6106 0.72793 8.1521-2.379 1.5371-3.1069 0.24569-7.8488-2.4278-8.6853-3.8274-1.1976-6.1762-2.0121-8.2954 1.5366-1.8954 3.1363-1.7931 7.338 2.5711 9.5277z" fill="none" stroke="#000" stroke-width=".94584"/><path d="m883.3 278.08c2.8856 1.45 6.615 0.72206 8.1521-2.379 1.5488-3.1186 0.234-7.859-2.4161-8.6912-3.845-1.1976-6.1865-2.0062-8.3013 1.5249-1.8852 3.1656-1.7989 7.3439 2.5653 9.5453" fill="#d4212f" stroke-width="1.4651"/><path d="m883.3 278.08c2.8856 1.45 6.615 0.72206 8.1521-2.379 1.5488-3.1186 0.234-7.859-2.4161-8.6912-3.845-1.1976-6.1865-2.0062-8.3013 1.5249-1.8852 3.1656-1.7989 7.3439 2.5653 9.5453z" fill="none" stroke="#000" stroke-width=".94584"/><path d="m826.49-185.3c0-3.2449-2.3371-6.2491-5.7755-6.2491-3.4676 0-7.1123 3.2962-6.6618 6.0715 0.64496 3.9787 0.98282 6.4442 5.0735 6.7583 3.668 0.28179 7.3638-1.6613 7.3638-6.5807" fill="#d4212f" stroke-width="1.4651"/><path d="m826.49-185.3c0-3.2449-2.3371-6.2491-5.7755-6.2491-3.4676 0-7.1123 3.2962-6.6618 6.0715 0.64496 3.9787 0.98282 6.4442 5.0735 6.7583 3.668 0.28179 7.3638-1.6613 7.3638-6.5807z" fill="none" stroke="#000" stroke-width=".94584"/><g fill="#002a86"><path d="m823.77 349.3c0.69762-0.69418 1.5766-1.089 2.5989-1.1976 1.2505-0.13213 2.3591 0.22895 3.3243 1.0948 0.95941 0.85413 1.5254 2.1676 1.7199 3.9449 0.16528 1.5997-0.11401 2.9411-0.76051 4.0124-0.65667 1.0831-1.6395 1.6966-2.9704 1.8228-1.3543 0.14387-2.5199-0.26417-3.5027-1.2152-0.98283-0.94661-1.5591-2.2352-1.7258-3.8701-0.20914-2.0356 0.24278-3.5604 1.3163-4.5921" stroke-width="1.4651"/><polygon transform="matrix(1.4625 0 0 1.4676 -349.17 -21.776)" points="582.13 158.48 573.6 160.62 579.25 153.93"/><polygon transform="matrix(1.4625 0 0 1.4676 -349.17 -21.776)" points="667.61 -135.71 666.57 -144.43 672.51 -137.99"/><path d="m1002.2 248.02c-1.2914 0.5797-2.6618 0.2803-4.1359-0.88791-1.3719-1.0831-1.8853-2.3159-1.5372-3.6925 0.1946-0.78518 0.7137-1.7479 1.6395-2.8956l4.5251-5.7956 6.5579 5.1821-4.6625 5.9394c-0.8789 1.1066-1.6556 1.8169-2.3869 2.15" stroke-width="1.4651"/><path d="m462.69 92.027c-1.8457 1.588-4.5309 2.4362-8.0146 2.5169-3.4794 0.10859-6.204-0.58998-8.1302-2.0752-1.9481-1.4852-2.9309-3.5032-3.0157-6.0832-0.0571-2.58 0.82195-4.6435 2.6852-6.208 1.8735-1.5762 4.5411-2.3907 8.0205-2.4876 3.5071-0.09687 6.2099 0.5797 8.1302 2.0414 1.9539 1.4617 2.925 3.4856 3.0113 6.0539 0.0614 2.5786-0.82339 4.642-2.6867 6.2417" stroke-width="1.4651"/></g><path d="m954.29 8.8033-11.055 36.237-8.8088 28.928c1.8618 0.18345 3.6796 0.34929 5.347 0.49899l16.339-71.631zm-6.147 20.288 6.1704-20.288z" fill="none" stroke="#000" stroke-width=".94643"/><path d="m942.19 5.5588c-5.8665-0.0791-12.239 1.2784-17.745 3.0814v-9e-3c-3.5017 1.1519-6.6783 2.4874-9.0893 3.7493-7.2952 3.8011-13.306 7.6426-21.892 8.8974 0.091 1.6106-0.063 3.3968-0.2571 5.2713-0.01 7.34e-4 -0.013 0.0014-0.02 0.0029-0.2454 2.1582-0.6559 4.4245-1.1855 6.7991 0 1.5e-5 0-1.5e-5 -0.01 0-0.3261 1.4559-0.6627 2.9404-1.0854 4.4315-0.01-1.61e-4 -0.012 1.91e-4 -0.017 0-0.3715 1.4794-0.7831 2.9405-1.194 4.4258-0.3885 1.4201-0.7742 2.8168-1.1627 4.2251-0.01-2.79e-4 -0.017 3.08e-4 -0.026 0-0.5717 2.0414-1.1366 4.0588-1.6338 6.0195-0.39931 1.6056-0.7942 3.1941-1.0969 4.6837 5.3469 1.7538 16.517-2.6453 21.555-7.3696 9.6892-9.1329 24.251-8.6789 35.963-4.7296l1.6397-5.4577-0.012-0.0059 1.3683-4.5261c0-0.0011 0-0.0014-0.01-0.0029l1.848-5.9478c8e-4 3.08e-4 0-2.94e-4 0 0v-0.0059l6.17-20.283c-3.3042-2.2601-7.5601-3.189-12.123-3.2505z" fill="#d4212f" stroke-width="1.4651"/><g fill="none" stroke="#fff" stroke-width="2"><path d="m890.91 37.784c8.3642 0.25683 19.983-12.9 29.445-13.548 10.143-0.76955 20.574-4.3661 22.728-4.2676"/><path d="m923.51 18.901c-11.934 0.63107-23.812 13.529-31.52 13.57"/><path d="m893.2 26.549c8.2955-0.92312 19.302-11.494 29.158-12.026"/><path d="m944.64 41.342c-8.9872-5.1396-25.217-3.2023-33.803 1.7508-5.1189 2.9411-16.968 12.315-24.258 11.122"/><path d="m887.94 48.248c6.3552 0.45822 18.877-7.7298 23.733-10.517 8.7854-5.0911 25.842-6.4569 34.611-0.7641"/></g><path d="m954.31 8.8088s-9.1168-7.8713-33.379 0.80378c0.6065-1.0145-0.6209 13.395 2.338 18.915 0 0 11.434-1.8733 24.541 1.7236" fill="#002a86"/><path d="m889.35 43.039c8.108 1.2061 20.496-12.145 30.602-14.22 0 0 12.53-2.7521 27.857 1.4325" fill="none" stroke="#fff" stroke-width="2"/><path d="m942.19 5.5588c-5.8665-0.0791-12.239 1.2784-17.745 3.0814v-9e-3c-3.5017 1.1519-6.6783 2.4874-9.0893 3.7493-7.2952 3.8011-13.306 7.6426-21.892 8.8974 0.091 1.6106-0.063 3.3968-0.2571 5.2713-0.01 7.34e-4 -0.013 0.0014-0.02 0.0029-0.2454 2.1582-0.6559 4.4245-1.1855 6.7991 0 1.5e-5 0-1.5e-5 -0.01 0-0.3261 1.4559-0.6627 2.9404-1.0854 4.4315-0.01-1.61e-4 -0.012 1.91e-4 -0.017 0-0.3715 1.4794-0.7831 2.9405-1.194 4.4258-0.3885 1.4201-0.7742 2.8168-1.1627 4.2251-0.01-2.79e-4 -0.017 3.08e-4 -0.026 0-0.5717 2.0414-1.1366 4.0588-1.6338 6.0195-0.39931 1.6056-0.7942 3.1941-1.0969 4.6837 5.3469 1.7538 16.517-2.6453 21.555-7.3696 9.6892-9.1329 24.251-8.6789 35.963-4.7296l1.6397-5.4577-0.012-0.0059 1.3683-4.5261c0-0.0011 0-0.0014-0.01-0.0029l1.848-5.9478c2.1444-7.0656 4.3294-14.24 6.17-20.289-3.3042-2.2601-7.5601-3.189-12.123-3.2505z" fill="none" stroke="#000" stroke-width=".94643"/><path d="m730.78-162.49c6.302-5.188 13.7-9.9973 18.494-12.601-7.7645-4.8211-15.887-5.1939-24.018-5.1939 5.524-2.969 11.089-11.482 11.454-18.162-9.6088-1.4852-23.275 4.8152-27.702 12.234-2.7993 4.6259-12.734 15.031-19.241 20.816 1.7653-4.2884 4.6625-9.6833 4.6625-14.349 0-1.9372-1.9247-2.5052-2.4907-0.18931-2.343 9.356-12.734 17.56-22.127 20.793-12.997 4.4777-26.394 10.904-39.539 19.16-1.9247-1.5645-2.4102-3.3828-2.359-4.9018 0.22815-3.7204 5.2271-5.2804 11.089-5.549 9.66-0.42414 42.59-20.162 37.261-37.917-3.788 7.7563-13.049 10.066-25.714 11.214-15.934 1.4852-29.365 15.954-26.017 32.074 0.82193 3.9391 1.1934 6.1742 1.1086 8.0953-4.9755 3.3138-9.8954 6.8625-14.694 10.721 0.62889-5.4228 0.68007-12.285-0.57185-16.132-0.81754-2.5918-3.69-5.6987-2.7247-0.27592 0.7766 4.3691-1.3309 15.674-5.2446 23.677-14.214 12.739-27.216 28.005-37.849 45.673-1.8223-0.70445-2.8285-1.9372-3.2907-3.1642-1.3309-3.4562 2.5141-6.9829 7.7178-9.7053 8.5865-4.4366 30.222-36.215 17.99-50.088-0.20622 8.6104-7.6446 14.619-18.636 20.988-13.854 8.0542-20.002 26.841-10.238 40.05 2.011 2.7063 3.2278 4.4542 3.9883 6.0025-2.6457 4.6435-5.0618 9.5101-7.3814 14.463-1.657-4.5745-3.9532-9.4528-6.2786-11.97-1.8223-2.018-5.6965-3.6749-2.5989 0.87763 2.1485 3.148 4.4739 11.855 4.9068 19.893-7.7689 16.648-13.774 37.148-17.031 60.097-2.011 0.0514-3.4223-0.72793-4.3642-1.6907-2.5199-2.7224-0.24572-7.4349 3.5876-11.913 6.3298-7.3146 14.659-44.871-1.8282-53.195 2.9821 8.0777-1.6965 16.436-9.5693 26.44-9.8545 12.64-8.626 32.368 5.3704 40.99 3.0567 1.8859 4.8556 3.1069 6.1704 4.328-0.5777 4.529-1.0457 9.1212-1.3762 13.804-3.5817-4.0418-8.5119-8.5591-12.146-10.159-2.4512-1.1183-6.7013-1.0552-1.9993 1.8404 3.6051 2.241 10.181 10.766 13.625 18.769-0.65668 20.026 0.79998 41.27 4.8556 62.981-1.5766 0.5166-2.9938 0.22895-4.1185-0.33755-3.1649-1.6628-3.1883-6.409-1.8516-11.356 2.2625-8.1349-6.0154-43.134-22.932-45.8 5.7185 6.2036 5.2271 14.779 2.8051 25.689-3.0333 13.725 5.9247 30.561 20.904 34.185 2.6852 0.64281 4.5192 1.1345 5.9188 1.6804 1.0969 5.4639 2.6677 11.626 4.7079 18.27-4.9185-2.1677-11.14-4.1959-15.066-4.168-2.7247 0.0118-6.536 1.811-1.0969 2.5228 4.0161 0.53274 12.746 5.097 19.109 10.571 5.5137 15.467 13.609 32.901 24.572 50.305-1.4567 1.4104-3.0216 1.789-4.3642 1.7142-3.69-0.28619-5.1759-5.3083-5.3938-11.179-0.27496-9.6994-19.493-42.985-37.271-37.899 7.6549 3.898 9.8384 13.242 10.82 25.947 1.268 16.012 15.488 29.679 31.598 26.52 3.3594-0.65308 5.4669-0.9745 7.2102-1.0038 3.3594 5.1249 6.9865 10.216 10.883 15.26-5.29-0.37864-11.671-0.20105-15.311 1.1242-2.5594 0.90552-5.5415 3.876-0.20037 2.74 3.9532-0.8424 13.688 0.53274 21.515 3.5721 10.1 12.05 21.841 23.527 35.307 33.732-0.94332 1.1976-2.1133 1.789-3.2 2.018-3.6563 0.70445-9.6498-5.6752-11.392-11.311-2.8388-9.2635-28.834-20.661-44.641-11.058 8.4154 1.7376 14.448-0.94073 18.71 11.058 5.4391 15.112 25.657 20.604 37.969 14.625 2.7086-1.3018 4.5309-2.1442 6.0666-2.6593 5.0501 3.6632 10.387 7.1487 15.939 10.399-4.6157 1.8741-9.6088 4.4777-12.1 6.9476-1.9364 1.9094-3.4223 5.8763 0.98866 2.5801 2.868-2.1677 10.694-4.667 18.299-5.5608 17.23 9.1843 36.677 16.207 58.54 20.15-0.24569 1.9314-1.268 3.1363-2.2508 4.0242-2.7993 2.4656-7.4209 0.0338-11.746-3.9332-7.1064-6.5646-44.31-15.994-53.062 0.32141 8.1185-2.7914 16.322 2.1676 26.068 10.336 12.294 10.267 31.987 9.5967 40.962-4.1959 2.0797-3.1877 3.5656-4.6729 5.0501-5.6239 3.8333 0.60171 7.7646 1.1007 11.763 1.5014 0.75468-3.4679 1.72-6.7583 2.1075-9.4074-4.1594-0.4535-8.3408-1.1066-12.518-1.8404 1.2461-3.5604 3.2673-7.6081 1.5766-12.309-2.9543-8.6794-16.579-20.937-29.982-21.057-10.513-0.15997-19.555-11.591-27.857-12.475 3.0333 5.1542 4.936 9.1608 6.0329 14.642 2.8505 14.435 18.75 23.269 38.032 21.681 4.9068-0.40065 8.4782 4.6376 9.2314 8.9715-19.801-3.8187-39.883-10.755-58.89-20.552-4.8965-5.7736-6.558-11.151-7.2322-14.418-1.0969-4.9928-3.4618-5.7794-2.5828 0.42414 0.42852 3.1128 1.268 6.7363 2.4161 9.9577-4.5821-2.5683-9.015-5.326-13.42-8.2215 2.5989-3.1363 7.1591-6.048 7.6329-11.764 0.90238-9.127-6.438-25.941-18.584-31.634-9.4889-4.5114-13.014-18.688-20.206-22.937 0.63473 5.957 0.7137 10.388-0.55429 15.834-3.3814 14.315 7.4618 28.979 25.645 35.55 5.268 1.9035 6.0212 9.4763 4.1082 13.615-13.134-8.8805-25.348-19.205-36.146-30.883-4.1185-9.7567-3.2395-17.187-2.3532-21.172 1.091-4.9869-0.71958-6.6952-2.5024-0.70444-1.268 4.237-2.1938 9.6657-2.0914 13.982-4.0965-4.959-7.8903-10.119-11.431-15.455 2.6852-3.6118 9.9583-4.4835 12.398-11.127 3.2673-8.5826 0.59964-26.732-9.6322-35.452-8.0146-6.8743-7.6549-21.452-13.471-27.466-0.97696 5.9159-2.0504 10.216-4.6962 15.13-7.0099 12.928-0.41098 29.932 15.431 41.081 5.4611 3.8348 2.6852 13.73-1.4333 15.696-9.9174-15.37-17.676-32.086-23.44-49.382-0.6406-10.549 2.6398-17.29 4.7927-20.742 2.6852-4.3397 1.5371-6.5529-2.1543-1.5072-2.2903 3.148-4.6391 7.2808-6.1075 11.019-1.5254-5.4698-2.9192-10.989-4.1126-16.528 3.5028-0.89964 9.0267 0.42414 12.557-3.4914 5.268-5.6635 8.1243-21.647 1.7828-33.027-4.9477-8.9597-0.50311-20.759-3.8099-28.114-2.5199 4.4483-4.6728 7.5215-8.3803 10.445-9.7638 7.6756-8.9009 24.342 1.6117 40.061 3.2044 4.758-0.43437 10.731-4.1931 12.045-6.1645-30.183-6.9865-60.705-3.3989-87.575 4.3013-0.19519 9.8779 3.3417 15.734 0.32141 8.1814-4.099 18.488-19.256 16.837-32.62-1.2285-10.496 8.8556-21.004 8.6157-29.376-4.6786 3.6984-8.3978 6.1287-13.666 7.9398-13.871 4.7462-20.493 21.756-16.373 40.714 1.3309 6.117-6.302 11.242-10.82 10.737 2.5828-18.144 7.4209-37.028 14.488-55.219 7.9532-8.9142 15.86-11.173 20.143-11.907 5.0282-0.90552 5.8896-3.2331-0.3086-2.6138-5.1525 0.5166-11.688 2.1207-15.602 4.4028 2.7028-6.1507 5.6965-12.177 8.9346-18.053 4.3642 0.93487 8.2954 7.0739 15.266 6.3973 9.1174-0.74554 24.303-10.989 27.725-24.009 2.7364-10.198 15.98-16.195 18.881-24.061-5.736 1.6848-10.043 2.5683-15.614 2.2924-14.643-0.76756-27.09 12.555-30.29 31.692-1.091 6.5705-11.163 8.3419-14.728 5.4742 9.7916-17.244 21.841-32.877 36.107-45.444 10.57-4.5232 18.498-3.3256 22.612-2.2586 4.9477 1.2548 6.7071-0.5166 0.7766-2.5052-4.4271-1.4852-10.249-2.6593-14.643-2.5507 5.2841-4.1797 10.574-8.0205 15.899-11.552 3.611 2.6887 4.604 9.924 11.209 12.246 8.5748 3.1524 26.628 0.23481 35.187-10.147 6.77-8.1056 21.293-7.9691 27.21-13.897-5.913-0.87176-10.226-1.9035-15.134-4.4938-12.968-6.8508-29.844 0-40.734 16.035-3.7192 5.4522-13.466 2.9059-15.596-1.1066 17.305-11.145 35.409-19.096 56.673-24.858-0.29689-0.7793-0.21644-1.8008 0.0907-2.9807 17.907 8.9715 35.874 5.0163 41.982-0.0294" fill="#3f863f" stroke-width="1.4651"/><path d="m730.78-162.49c6.302-5.188 13.7-9.9973 18.494-12.601-7.7645-4.8211-15.887-5.1939-24.018-5.1939 5.524-2.969 11.089-11.482 11.454-18.162-9.6088-1.4852-23.275 4.8152-27.702 12.234-2.7993 4.6259-12.734 15.031-19.241 20.816 1.7653-4.2884 4.6625-9.6833 4.6625-14.349 0-1.9372-1.9247-2.5052-2.4907-0.18931-2.343 9.356-12.734 17.56-22.127 20.793-12.997 4.4777-26.394 10.904-39.539 19.16-1.9247-1.5645-2.4102-3.3828-2.359-4.9018 0.22815-3.7204 5.2271-5.2804 11.089-5.549 9.66-0.42414 42.59-20.162 37.261-37.917-3.788 7.7563-13.049 10.066-25.714 11.214-15.934 1.4852-29.365 15.954-26.017 32.074 0.82193 3.9391 1.1934 6.1742 1.1086 8.0953-4.9755 3.3138-9.8954 6.8625-14.694 10.721 0.62889-5.4228 0.68007-12.285-0.57185-16.132-0.81754-2.5918-3.69-5.6987-2.7247-0.27592 0.7766 4.3691-1.3309 15.674-5.2446 23.677-14.214 12.739-27.216 28.005-37.849 45.673-1.8223-0.70445-2.8285-1.9372-3.2907-3.1642-1.3309-3.4562 2.5141-6.9829 7.7178-9.7053 8.5865-4.4366 30.222-36.215 17.99-50.088-0.20622 8.6104-7.6446 14.619-18.636 20.988-13.854 8.0542-20.002 26.841-10.238 40.05 2.011 2.7063 3.2278 4.4542 3.9883 6.0025-2.6457 4.6435-5.0618 9.5101-7.3814 14.463-1.657-4.5745-3.9532-9.4528-6.2786-11.97-1.8223-2.018-5.6965-3.6749-2.5989 0.87763 2.1485 3.148 4.4739 11.855 4.9068 19.893-7.7689 16.648-13.774 37.148-17.031 60.097-2.011 0.0514-3.4223-0.72793-4.3642-1.6907-2.5199-2.7224-0.24572-7.4349 3.5876-11.913 6.3298-7.3146 14.659-44.871-1.8282-53.195 2.9821 8.0777-1.6965 16.436-9.5693 26.44-9.8545 12.64-8.626 32.368 5.3704 40.99 3.0567 1.8859 4.8556 3.1069 6.1704 4.328-0.5777 4.529-1.0457 9.1212-1.3762 13.804-3.5817-4.0418-8.5119-8.5591-12.146-10.159-2.4512-1.1183-6.7013-1.0552-1.9993 1.8404 3.6051 2.241 10.181 10.766 13.625 18.769-0.65668 20.026 0.79998 41.27 4.8556 62.981-1.5766 0.5166-2.9938 0.22895-4.1185-0.33755-3.1649-1.6628-3.1883-6.409-1.8516-11.356 2.2625-8.1349-6.0154-43.134-22.932-45.8 5.7185 6.2036 5.2271 14.779 2.8051 25.689-3.0333 13.725 5.9247 30.561 20.904 34.185 2.6852 0.64281 4.5192 1.1345 5.9188 1.6804 1.0969 5.4639 2.6677 11.626 4.7079 18.27-4.9185-2.1677-11.14-4.1959-15.066-4.168-2.7247 0.0118-6.536 1.811-1.0969 2.5228 4.0161 0.53274 12.746 5.097 19.109 10.571 5.5137 15.467 13.609 32.901 24.572 50.305-1.4567 1.4104-3.0216 1.789-4.3642 1.7142-3.69-0.28619-5.1759-5.3083-5.3938-11.179-0.27496-9.6994-19.493-42.985-37.271-37.899 7.6549 3.898 9.8384 13.242 10.82 25.947 1.268 16.012 15.488 29.679 31.598 26.52 3.3594-0.65308 5.4669-0.9745 7.2102-1.0038 3.3594 5.1249 6.9865 10.216 10.883 15.26-5.29-0.37864-11.671-0.20105-15.311 1.1242-2.5594 0.90552-5.5415 3.876-0.20037 2.74 3.9532-0.8424 13.688 0.53274 21.515 3.5721 10.1 12.05 21.841 23.527 35.307 33.732-0.94332 1.1976-2.1133 1.789-3.2 2.018-3.6563 0.70445-9.6498-5.6752-11.392-11.311-2.8388-9.2635-28.834-20.661-44.641-11.058 8.4154 1.7376 14.448-0.94073 18.71 11.058 5.4391 15.112 25.657 20.604 37.969 14.625 2.7086-1.3018 4.5309-2.1442 6.0666-2.6593 5.0501 3.6632 10.387 7.1487 15.939 10.399-4.6157 1.8741-9.6088 4.4777-12.1 6.9476-1.9364 1.9094-3.4223 5.8763 0.98866 2.5801 2.868-2.1677 10.694-4.667 18.299-5.5608 17.23 9.1843 36.677 16.207 58.54 20.15-0.24569 1.9314-1.268 3.1363-2.2508 4.0242-2.7993 2.4656-7.4209 0.0338-11.746-3.9332-7.1064-6.5646-44.31-15.994-53.062 0.32141 8.1185-2.7914 16.322 2.1676 26.068 10.336 12.294 10.267 31.987 9.5967 40.962-4.1959 2.0797-3.1877 3.5656-4.6729 5.0501-5.6239 3.8333 0.60171 7.7646 1.1007 11.763 1.5014 0.75468-3.4679 1.72-6.7583 2.1075-9.4074-4.1594-0.4535-8.3408-1.1066-12.518-1.8404 1.2461-3.5604 3.2673-7.6081 1.5766-12.309-2.9543-8.6794-16.579-20.937-29.982-21.057-10.513-0.15997-19.555-11.591-27.857-12.475 3.0333 5.1542 4.936 9.1608 6.0329 14.642 2.8505 14.435 18.75 23.269 38.032 21.681 4.9068-0.40065 8.4782 4.6376 9.2314 8.9715-19.801-3.8187-39.883-10.755-58.89-20.552-4.8965-5.7736-6.558-11.151-7.2322-14.418-1.0969-4.9928-3.4618-5.7794-2.5828 0.42414 0.42852 3.1128 1.268 6.7363 2.4161 9.9577-4.5821-2.5683-9.015-5.326-13.42-8.2215 2.5989-3.1363 7.1591-6.048 7.6329-11.764 0.90238-9.127-6.438-25.941-18.584-31.634-9.4889-4.5114-13.014-18.688-20.206-22.937 0.63473 5.957 0.7137 10.388-0.55429 15.834-3.3814 14.315 7.4618 28.979 25.645 35.55 5.268 1.9035 6.0212 9.4763 4.1082 13.615-13.134-8.8805-25.348-19.205-36.146-30.883-4.1185-9.7567-3.2395-17.187-2.3532-21.172 1.091-4.9869-0.71958-6.6952-2.5024-0.70444-1.268 4.237-2.1938 9.6657-2.0914 13.982-4.0965-4.959-7.8903-10.119-11.431-15.455 2.6852-3.6118 9.9583-4.4835 12.398-11.127 3.2673-8.5826 0.59964-26.732-9.6322-35.452-8.0146-6.8743-7.6549-21.452-13.471-27.466-0.97696 5.9159-2.0504 10.216-4.6962 15.13-7.0099 12.928-0.41098 29.932 15.431 41.081 5.4611 3.8348 2.6852 13.73-1.4333 15.696-9.9174-15.37-17.676-32.086-23.44-49.382-0.6406-10.549 2.6398-17.29 4.7927-20.742 2.6852-4.3397 1.5371-6.5529-2.1543-1.5072-2.2903 3.148-4.6391 7.2808-6.1075 11.019-1.5254-5.4698-2.9192-10.989-4.1126-16.528 3.5028-0.89964 9.0267 0.42414 12.557-3.4914 5.268-5.6635 8.1243-21.647 1.7828-33.027-4.9477-8.9597-0.50311-20.759-3.8099-28.114-2.5199 4.4483-4.6728 7.5215-8.3803 10.445-9.7638 7.6756-8.9009 24.342 1.6117 40.061 3.2044 4.758-0.43437 10.731-4.1931 12.045-6.1645-30.183-6.9865-60.705-3.3989-87.575 4.3013-0.19519 9.8779 3.3417 15.734 0.32141 8.1814-4.099 18.488-19.256 16.837-32.62-1.2285-10.496 8.8556-21.004 8.6157-29.376-4.6786 3.6984-8.3978 6.1287-13.666 7.9398-13.871 4.7462-20.493 21.756-16.373 40.714 1.3309 6.117-6.302 11.242-10.82 10.737 2.5828-18.144 7.4209-37.028 14.488-55.219 7.9532-8.9142 15.86-11.173 20.143-11.907 5.0282-0.90552 5.8896-3.2331-0.3086-2.6138-5.1525 0.5166-11.688 2.1207-15.602 4.4028 2.7028-6.1507 5.6965-12.177 8.9346-18.053 4.3642 0.93487 8.2954 7.0739 15.266 6.3973 9.1174-0.74554 24.303-10.989 27.725-24.009 2.7364-10.198 15.98-16.195 18.881-24.061-5.736 1.6848-10.043 2.5683-15.614 2.2924-14.643-0.76756-27.09 12.555-30.29 31.692-1.091 6.5705-11.163 8.3419-14.728 5.4742 9.7916-17.244 21.841-32.877 36.107-45.444 10.57-4.5232 18.498-3.3256 22.612-2.2586 4.9477 1.2548 6.7071-0.5166 0.7766-2.5052-4.4271-1.4852-10.249-2.6593-14.643-2.5507 5.2841-4.1797 10.574-8.0205 15.899-11.552 3.611 2.6887 4.604 9.924 11.209 12.246 8.5748 3.1524 26.628 0.23481 35.187-10.147 6.77-8.1056 21.293-7.9691 27.21-13.897-5.913-0.87176-10.226-1.9035-15.134-4.4938-12.968-6.8508-29.844 0-40.734 16.035-3.7192 5.4522-13.466 2.9059-15.596-1.1066 17.305-11.145 35.409-19.096 56.673-24.858-0.29689-0.7793-0.21644-1.8008 0.0907-2.9807 17.907 8.9715 35.874 5.0163 41.982-0.0294z" fill="none" stroke="#000" stroke-width=".94584"/><path d="m799.14 276.35c-2.7028 0.4755-5.4157 0.90551-8.0892 1.2783-0.20623 3.0497-0.0453 6.3004 0.30274 9.356 2.9133-0.34343 5.7989-0.7338 8.626-1.1873 1.6746 0.94661 3.2395 2.3673 5.5474 5.9277 8.9916 13.788 28.668 14.453 40.98 4.1856 9.7755-8.1584 17.95-13.118 26.068-10.336-8.7518-16.304-45.944-6.8742-53.062-0.31553-4.313 3.9728-8.9697 6.4032-11.734 3.9332-1.0735-0.9466-2.1309-2.2469-2.3254-4.4087 21.395-3.9904 40.494-10.904 57.49-19.882 7.9298 0.75141 16.385 3.4048 19.447 5.6752 4.3818 3.2904 2.8914-0.66482 0.95942-2.5742-2.6398-2.6197-8.0731-5.3656-12.9-7.2632 5.5532-3.2449 10.843-6.685 15.922-10.325 1.7024 0.4579 3.7192 1.3473 6.9075 2.9015 12.294 5.9673 32.553 0.48724 37.951-14.625 4.2852-11.999 10.295-9.3222 18.728-11.058-15.797-9.6084-41.819 1.789-44.63 11.058-1.7418 5.6356-7.7645 12.005-11.392 11.311-1.2504-0.26418-2.6048-0.98036-3.6388-2.5624 13.134-9.9357 24.641-21.051 34.609-32.729 8.0043-3.3476 18.516-4.9194 22.624-4.0477 5.3937 1.1638 2.3882-1.8169-0.1829-2.7341-3.7938-1.3766-10.592-1.5131-16.002-1.0831 3.9533-5.0398 7.649-10.159 11.083-15.295 1.834-0.0455 4.0278 0.29792 7.6842 1.0097 16.105 3.1583 30.347-10.514 31.621-26.52 0.9712-12.704 3.1649-22.048 10.798-25.947-17.745-5.0852-36.968 28.2-37.255 37.9-0.2165 5.8704-1.7023 10.904-5.3879 11.173-1.4449 0.091-3.1255-0.34342-4.6508-2.0062 11.003-17.256 19.139-34.54 24.698-49.899 6.3752-5.5211 15.225-10.153 19.241-10.68 5.461-0.72206 1.6219-2.5111-1.0851-2.5228-3.9532-0.0338-10.214 2.0062-15.099 4.19 2.068-6.6615 3.6797-12.818 4.7532-18.305 1.445-0.53275 3.2673-1.0259 5.9247-1.6804 14.979-3.6118 23.92-20.45 20.898-34.185-2.4162-10.91-2.9076-19.485 2.805-25.677-16.882 2.6652-25.183 37.665-22.926 45.8 1.3309 4.9532 1.309 9.6935-1.8574 11.356-1.1144 0.55623-2.5419 0.84828-4.1184 0.32728 4.0789-21.699 5.5136-42.945 4.8555-62.969 3.4443-8.0146 10.021-16.528 13.648-18.769 4.6508-2.8956 0.4519-2.9587-2.0168-1.8521-3.6388 1.6056-8.5471 6.1287-12.152 10.159-0.3482-4.6729-0.8-9.2753-1.3543-13.793 1.2914-1.221 3.0962-2.4421 6.147-4.328 13.996-8.6222 15.225-28.354 5.3469-40.99-7.8435-10.015-12.54-18.369-9.5459-26.44-16.493 8.3184-8.1462 45.88-1.8222 53.195 3.8098 4.4659 6.1074 9.1784 3.5816 11.907-0.9199 0.95688-2.3531 1.7479-4.3641 1.6907-3.257-22.955-9.2607-43.444-17.008-60.103 0.4344-8.0381 2.7364-16.734 4.8907-19.882 3.0904-4.5525-0.7765-2.9015-2.6047-0.87763-2.2845 2.5169-4.5996 7.3777-6.2786 11.97-2.3137-4.959-4.7138-9.8198-7.358-14.463 0.7371-1.5425 1.9598-3.2962 3.959-6.0025 9.8034-13.22 3.633-31.995-10.208-40.05-11.02-6.3518-18.482-12.378-18.665-20.988-12.237 13.873 9.404 45.646 18.002 50.076 5.1934 2.7283 9.0663 6.2608 7.712 9.717-0.4915 1.2152-1.4743 2.4538-3.2908 3.1642-10.66-17.668-23.646-32.935-37.843-45.673-3.9137-8.0028-6.0271-19.308-5.2505-23.677 0.9653-5.4228-1.9027-2.3276-2.7247 0.27591-1.2461 3.8466-1.1876 10.703-0.5718 16.132-4.7927-3.8583-9.7463-7.407-14.694-10.721-0.081-1.9211 0.2691-4.1621 1.0852-8.0953 3.3652-16.132-10.061-30.591-25.999-32.074-12.644-1.1579-21.926-3.4738-25.72-11.214-5.3075 17.755 27.623 37.493 37.277 37.905 5.8677 0.28032 10.837 1.8521 11.071 5.5549 0.0863 1.5248-0.42852 3.3417-2.3649 4.9077-13.094-8.2553-26.508-14.694-39.506-19.166-9.426-3.2273-19.819-11.431-22.132-20.787-0.59378-2.3276-2.4907-1.7376-2.4907 0.17757 0 4.667 2.9016 10.072 4.645 14.36-6.5185-5.7897-16.424-16.201-19.241-20.816-4.427-7.4129-18.099-13.719-27.708-12.234 0.37148 6.6673 5.913 15.193 11.454 18.162-8.1126 0-16.247 0.37277-23.994 5.1938 4.7927 2.6021 12.192 7.4129 18.464 12.601 6.1075 5.0398 24.075 8.9891 42.059 0.0176 0.29689 1.1873 0.37732 2.2014 0.10236 2.9807 21.236 5.7618 39.339 13.696 56.644 24.847-2.1426 4.0183-11.883 6.5705-15.579 1.1183-10.906-16.035-27.77-22.886-40.739-16.035-4.9477 2.5918-9.249 3.6118-15.144 4.4997 5.8954 5.9218 20.475 5.7838 27.216 13.891 8.5236 10.382 26.577 13.299 35.191 10.147 6.615-2.3218 7.6212-9.5629 11.181-12.246 5.3528 3.5311 10.643 7.3718 15.928 11.552-4.4052-0.1262-10.232 1.067-14.649 2.5507-5.8896 2.0004-4.1419 3.7497 0.7766 2.4935 4.1419-1.067 12.026-2.2645 22.624 2.2704 14.248 12.566 26.308 28.2 36.072 45.444-3.5423 2.8662-13.625 1.0948-14.7-5.4742-3.2043-19.154-15.636-32.459-30.296-31.703-5.5649 0.28619-9.8896-0.60171-15.608-2.2821 2.8621 7.8649 16.127 13.867 18.875 24.056 3.4223 13.025 18.573 23.269 27.702 24.014 6.9864 0.67657 10.924-5.4742 15.288-6.3973 3.2512 5.8587 6.2274 11.895 8.9463 18.065-3.9137-2.2924-10.454-3.898-15.62-4.4146-6.204-0.61933-5.3251 1.7083-0.3027 2.6021 4.2618 0.74554 12.209 3.0042 20.143 11.907 7.0785 18.201 11.912 37.08 14.482 55.23-4.5469 0.50486-12.14-4.62-10.81-10.737 4.1186-18.964-2.4965-35.962-16.379-40.714-5.2681-1.811-8.9581-4.2428-13.672-7.9456-0.212 8.3756 9.8603 18.884 8.626 29.37-1.6395 13.363 8.6376 28.532 16.825 32.631 5.8735 3.0218 11.437-0.521 15.74-0.33315 3.5818 26.87 2.776 57.391-3.4222 87.587-3.7426-1.3135-7.3463-7.2984-4.1711-12.045 10.513-15.72 11.374-32.396 1.616-40.061-3.7191-2.9235-5.8895-5.9966-8.392-10.445-3.3082 7.3556 1.1306 19.154-3.7996 28.108-6.3692 11.386-3.4852 27.358 1.7829 33.033 3.5246 3.9156 9.05 2.5918 12.563 3.4973-1.1875 5.5211-2.5652 11.052-4.1301 16.522-1.4567-3.7439-3.8099-7.8708-6.1075-11.019-3.6856-5.0456-4.8337-2.8325-2.1309 1.5072 2.1309 3.4401 5.4215 10.192 4.7766 20.742-5.7989 17.284-13.546 34.013-23.434 49.378-4.1244-1.9607-6.8608-11.855-1.4392-15.69 15.819-11.151 22.447-28.16 15.437-41.081-2.6734-4.9136-3.7308-9.2122-4.6903-15.13-5.8208 6.0025-5.4902 20.598-13.483 27.466-10.208 8.7191-12.888 26.87-9.6322 35.44 2.4059 6.6438 9.7127 7.5391 12.398 11.139-3.5481 5.3377-7.358 10.486-11.437 15.455 0.1258-4.3162-0.8175-9.7625-2.0855-13.982-1.8048-5.9908-3.611-4.2825-2.4907 0.70447 0.8805 3.9669 1.7594 11.408-2.3649 21.16-10.792 11.678-23.006 22.014-36.14 30.906-1.9539-4.1386-1.1656-11.723 4.1024-13.627 18.195-6.5808 29.034-21.223 25.675-35.55-1.2915-5.458-1.1877-9.877-0.5822-15.852-7.1927 4.2649-10.7 18.426-20.206 22.955-12.152 5.7046-19.475 22.513-18.572 31.634 0.468 5.7163 5.0164 8.6281 7.5978 11.741-4.3817 2.9176-8.8497 5.7104-13.397 8.2788 1.1261-3.2331 1.9817-6.8684 2.4161-10.003 0.88044-6.1977-1.4742-5.4125-2.5828-0.4124-0.66838 3.2449-2.3371 8.5987-7.1532 14.327-19.058 9.8491-39.156 16.866-58.975 20.696 0.70787-4.3514 4.2852-9.425 9.2212-9.0287 19.264 1.5821 35.187-7.2412 38.032-21.677 1.091-5.48 3.0157-9.4881 6.0505-14.642-8.3232 0.87177-17.356 12.315-27.89 12.463-13.403 0.14386-27.011 12.388-29.982 21.068-1.7331 4.7154 0.28959 8.7631 1.5342 12.318" fill="#3f863f" stroke-width="1.4651"/><path d="m799.14 276.35c-2.7028 0.4755-5.4157 0.90551-8.0892 1.2783-0.20623 3.0497-0.0453 6.3004 0.30274 9.356 2.9133-0.34343 5.7989-0.7338 8.626-1.1873 1.6746 0.94661 3.2395 2.3673 5.5474 5.9277 8.9916 13.788 28.668 14.453 40.98 4.1856 9.7755-8.1584 17.95-13.118 26.068-10.336-8.7518-16.304-45.944-6.8742-53.062-0.31553-4.313 3.9728-8.9697 6.4032-11.734 3.9332-1.0735-0.9466-2.1309-2.2469-2.3254-4.4087 21.395-3.9904 40.494-10.904 57.49-19.882 7.9298 0.75141 16.385 3.4048 19.447 5.6752 4.3818 3.2904 2.8914-0.66482 0.95942-2.5742-2.6398-2.6197-8.0731-5.3656-12.9-7.2632 5.5532-3.2449 10.843-6.685 15.922-10.325 1.7024 0.4579 3.7192 1.3473 6.9075 2.9015 12.294 5.9673 32.553 0.48724 37.951-14.625 4.2852-11.999 10.295-9.3222 18.728-11.058-15.797-9.6084-41.819 1.789-44.63 11.058-1.7418 5.6356-7.7645 12.005-11.392 11.311-1.2504-0.26418-2.6048-0.98036-3.6388-2.5624 13.134-9.9357 24.641-21.051 34.609-32.729 8.0043-3.3476 18.516-4.9194 22.624-4.0477 5.3937 1.1638 2.3882-1.8169-0.1829-2.7341-3.7938-1.3766-10.592-1.5131-16.002-1.0831 3.9533-5.0398 7.649-10.159 11.083-15.295 1.834-0.0455 4.0278 0.29792 7.6842 1.0097 16.105 3.1583 30.347-10.514 31.621-26.52 0.9712-12.704 3.1649-22.048 10.798-25.947-17.745-5.0852-36.968 28.2-37.255 37.9-0.2165 5.8704-1.7023 10.904-5.3879 11.173-1.4449 0.091-3.1255-0.34342-4.6508-2.0062 11.003-17.256 19.139-34.54 24.698-49.899 6.3752-5.5211 15.225-10.153 19.241-10.68 5.461-0.72206 1.6219-2.5111-1.0851-2.5228-3.9532-0.0338-10.214 2.0062-15.099 4.19 2.068-6.6615 3.6797-12.818 4.7532-18.305 1.445-0.53275 3.2673-1.0259 5.9247-1.6804 14.979-3.6118 23.92-20.45 20.898-34.185-2.4162-10.91-2.9076-19.485 2.805-25.677-16.882 2.6652-25.183 37.665-22.926 45.8 1.3309 4.9532 1.309 9.6935-1.8574 11.356-1.1144 0.55623-2.5419 0.84828-4.1184 0.32728 4.0789-21.699 5.5136-42.945 4.8555-62.969 3.4443-8.0146 10.021-16.528 13.648-18.769 4.6508-2.8956 0.4519-2.9587-2.0168-1.8521-3.6388 1.6056-8.5471 6.1287-12.152 10.159-0.3482-4.6729-0.8-9.2753-1.3543-13.793 1.2914-1.221 3.0962-2.4421 6.147-4.328 13.996-8.6222 15.225-28.354 5.3469-40.99-7.8435-10.015-12.54-18.369-9.5459-26.44-16.493 8.3184-8.1462 45.88-1.8222 53.195 3.8098 4.4659 6.1074 9.1784 3.5816 11.907-0.9199 0.95688-2.3531 1.7479-4.3641 1.6907-3.257-22.955-9.2607-43.444-17.008-60.103 0.4344-8.0381 2.7364-16.734 4.8907-19.882 3.0904-4.5525-0.7765-2.9015-2.6047-0.87763-2.2845 2.5169-4.5996 7.3777-6.2786 11.97-2.3137-4.959-4.7138-9.8198-7.358-14.463 0.7371-1.5425 1.9598-3.2962 3.959-6.0025 9.8034-13.22 3.633-31.995-10.208-40.05-11.02-6.3518-18.482-12.378-18.665-20.988-12.237 13.873 9.404 45.646 18.002 50.076 5.1934 2.7283 9.0663 6.2608 7.712 9.717-0.4915 1.2152-1.4743 2.4538-3.2908 3.1642-10.66-17.668-23.646-32.935-37.843-45.673-3.9137-8.0028-6.0271-19.308-5.2505-23.677 0.9653-5.4228-1.9027-2.3276-2.7247 0.27591-1.2461 3.8466-1.1876 10.703-0.5718 16.132-4.7927-3.8583-9.7463-7.407-14.694-10.721-0.081-1.9211 0.2691-4.1621 1.0852-8.0953 3.3652-16.132-10.061-30.591-25.999-32.074-12.644-1.1579-21.926-3.4738-25.72-11.214-5.3075 17.755 27.623 37.493 37.277 37.905 5.8677 0.28032 10.837 1.8521 11.071 5.5549 0.0863 1.5248-0.42852 3.3417-2.3649 4.9077-13.094-8.2553-26.508-14.694-39.506-19.166-9.426-3.2273-19.819-11.431-22.132-20.787-0.59378-2.3276-2.4907-1.7376-2.4907 0.17757 0 4.667 2.9016 10.072 4.645 14.36-6.5185-5.7897-16.424-16.201-19.241-20.816-4.427-7.4129-18.099-13.719-27.708-12.234 0.37148 6.6673 5.913 15.193 11.454 18.162-8.1126 0-16.247 0.37277-23.994 5.1938 4.7927 2.6021 12.192 7.4129 18.464 12.601 6.1075 5.0398 24.075 8.9891 42.059 0.0176 0.29689 1.1873 0.37732 2.2014 0.10236 2.9807 21.236 5.7618 39.339 13.696 56.644 24.847-2.1426 4.0183-11.883 6.5705-15.579 1.1183-10.906-16.035-27.77-22.886-40.739-16.035-4.9477 2.5918-9.249 3.6118-15.144 4.4997 5.8954 5.9218 20.475 5.7838 27.216 13.891 8.5236 10.382 26.577 13.299 35.191 10.147 6.615-2.3218 7.6212-9.5629 11.181-12.246 5.3528 3.5311 10.643 7.3718 15.928 11.552-4.4052-0.1262-10.232 1.067-14.649 2.5507-5.8896 2.0004-4.1419 3.7497 0.7766 2.4935 4.1419-1.067 12.026-2.2645 22.624 2.2704 14.248 12.566 26.308 28.2 36.072 45.444-3.5423 2.8662-13.625 1.0948-14.7-5.4742-3.2043-19.154-15.636-32.459-30.296-31.703-5.5649 0.28619-9.8896-0.60171-15.608-2.2821 2.8621 7.8649 16.127 13.867 18.875 24.056 3.4223 13.025 18.573 23.269 27.702 24.014 6.9864 0.67657 10.924-5.4742 15.288-6.3973 3.2512 5.8587 6.2274 11.895 8.9463 18.065-3.9137-2.2924-10.454-3.898-15.62-4.4146-6.204-0.61933-5.3251 1.7083-0.3027 2.6021 4.2618 0.74554 12.209 3.0042 20.143 11.907 7.0785 18.201 11.912 37.08 14.482 55.23-4.5469 0.50486-12.14-4.62-10.81-10.737 4.1186-18.964-2.4965-35.962-16.379-40.714-5.2681-1.811-8.9581-4.2428-13.672-7.9456-0.212 8.3756 9.8603 18.884 8.626 29.37-1.6395 13.363 8.6376 28.532 16.825 32.631 5.8735 3.0218 11.437-0.521 15.74-0.33315 3.5818 26.87 2.776 57.391-3.4222 87.587-3.7426-1.3135-7.3463-7.2984-4.1711-12.045 10.513-15.72 11.374-32.396 1.616-40.061-3.7191-2.9235-5.8895-5.9966-8.392-10.445-3.3082 7.3556 1.1306 19.154-3.7996 28.108-6.3692 11.386-3.4852 27.358 1.7829 33.033 3.5246 3.9156 9.05 2.5918 12.563 3.4973-1.1875 5.5211-2.5652 11.052-4.1301 16.522-1.4567-3.7439-3.8099-7.8708-6.1075-11.019-3.6856-5.0456-4.8337-2.8325-2.1309 1.5072 2.1309 3.4401 5.4215 10.192 4.7766 20.742-5.7989 17.284-13.546 34.013-23.434 49.378-4.1244-1.9607-6.8608-11.855-1.4392-15.69 15.819-11.151 22.447-28.16 15.437-41.081-2.6734-4.9136-3.7308-9.2122-4.6903-15.13-5.8208 6.0025-5.4902 20.598-13.483 27.466-10.208 8.7191-12.888 26.87-9.6322 35.44 2.4059 6.6438 9.7127 7.5391 12.398 11.139-3.5481 5.3377-7.358 10.486-11.437 15.455 0.1258-4.3162-0.8175-9.7625-2.0855-13.982-1.8048-5.9908-3.611-4.2825-2.4907 0.70447 0.8805 3.9669 1.7594 11.408-2.3649 21.16-10.792 11.678-23.006 22.014-36.14 30.906-1.9539-4.1386-1.1656-11.723 4.1024-13.627 18.195-6.5808 29.034-21.223 25.675-35.55-1.2915-5.458-1.1877-9.877-0.5822-15.852-7.1927 4.2649-10.7 18.426-20.206 22.955-12.152 5.7046-19.475 22.513-18.572 31.634 0.468 5.7163 5.0164 8.6281 7.5978 11.741-4.3817 2.9176-8.8497 5.7104-13.397 8.2788 1.1261-3.2331 1.9817-6.8684 2.4161-10.003 0.88044-6.1977-1.4742-5.4125-2.5828-0.4124-0.66838 3.2449-2.3371 8.5987-7.1532 14.327-19.058 9.8491-39.156 16.866-58.975 20.696 0.70787-4.3514 4.2852-9.425 9.2212-9.0287 19.264 1.5821 35.187-7.2412 38.032-21.677 1.091-5.48 3.0157-9.4881 6.0505-14.642-8.3232 0.87177-17.356 12.315-27.89 12.463-13.403 0.14386-27.011 12.388-29.982 21.068-1.7331 4.7154 0.28959 8.7631 1.5342 12.318z" fill="none" stroke="#000" stroke-width=".94584"/></svg>
