<?xml version="1.0" encoding="UTF-8"?>
<svg width="524" height="524" version="1.1" viewBox="0 0 419 419" xmlns="http://www.w3.org/2000/svg"><g transform="translate(.60449 .40625)" fill="#161413" fill-rule="evenodd"><path d="m208.9 0c115.06 0 208.9 93.84 208.9 208.9 0 115.06-93.84 208.9-208.9 208.9-115.06 0-208.9-93.84-208.9-208.9 0-115.06 93.84-208.9 208.9-208.9z"/></g><g transform="translate(14.393 14.194)" fill="#8accf1" fill-rule="evenodd"><path d="m195.11 0c107.46 0 195.11 87.646 195.11 195.11 0 107.46-87.645 195.11-195.11 195.11-107.46 0-195.11-87.645-195.11-195.11 0-107.46 87.645-195.11 195.11-195.11zm0 50.433c79.685 0 144.68 64.99 144.68 144.67 0 79.683-64.99 144.68-144.68 144.68-79.684 0-144.67-64.992-144.67-144.68 0-79.684 64.989-144.67 144.67-144.67z" fill="#8accf1"/></g><g transform="translate(11.301 11.102)" fill="#bddae7" fill-rule="evenodd"><path d="m198.2 1.622c108.27 0 196.58 88.306 196.58 196.58 0 108.27-88.305 196.58-196.58 196.58-108.27 0-196.58-88.306-196.58-196.58 0-108.27 88.306-196.58 196.58-196.58zm0-1.622c109.16 0 198.2 89.035 198.2 198.2 0 109.16-89.034 198.2-198.2 198.2-109.16 0-198.2-89.035-198.2-198.2 0-109.16 89.034-198.2 198.2-198.2z" fill="#fff"/></g><g transform="translate(66.293 66.095)" fill="#fff" fill-rule="evenodd"><path d="m143.21 5.4248c75.888 0 137.78 61.894 137.78 137.78 0 75.887-61.893 137.78-137.78 137.78-75.887 0-137.78-61.894-137.78-137.78 0-75.887 61.893-137.78 137.78-137.78zm0-5.4248c78.876 0 143.21 64.331 143.21 143.21 0 78.875-64.33 143.21-143.21 143.21-78.875 0-143.21-64.331-143.21-143.21 0-78.875 64.331-143.21 143.21-143.21z"/></g><g transform="translate(4.4072 4.209)" fill="#fff" fill-rule="evenodd"><path d="m205.09 5.0684c110.17 0 200.02 89.854 200.02 200.02 0 110.17-89.854 200.02-200.02 200.02-110.17 0-200.02-89.853-200.02-200.02 0-110.17 89.855-200.02 200.02-200.02zm0-5.0684c112.96 0 205.09 92.131 205.09 205.09 0 112.96-92.132 205.09-205.09 205.09-112.96 0-205.09-92.132-205.09-205.09 0-112.96 92.131-205.09 205.09-205.09z"/></g><g transform="translate(21.751 21.354)" fill="none" stroke-width=".216"><path d="m10.117 211.75 0.4257 1.842c-1.7509 2.223-2.7539 4.184-3.0087 5.88-0.2549 1.696-0.2676 3.042-0.0372 4.04 0.0088 0.038 0.0157 0.067 0.0196 0.086 0.0049 0.02 0.0117 0.048 0.0205 0.087 0.1592 0.691 0.3945 1.273 0.706 1.746 0.3116 0.475 1.043 0.578 2.1944 0.314l27.862-6.434c0.039-9e-3 0.0683-0.016 0.0869-0.021 0.0195-3e-3 0.0478-9e-3 0.0859-0.019 0.1153-0.025 0.2305-0.053 0.3457-0.079 0.1153-0.027 0.2305-0.053 0.3457-0.079 0.5284-0.164 0.9688-0.487 1.3213-0.974 0.3526-0.484 0.3741-1.399 0.0645-2.743l-0.2793-1.209s2.8789-0.663 2.8789-0.663l4.1728 18.075s-2.8789 0.665-2.8789 0.665l-0.2656-1.151c-0.3633-1.575-0.8682-2.448-1.5146-2.621-0.6465-0.175-1.3916-0.164-2.2364 0.03 0 0-27.862 6.432-27.862 6.432-1.1513 0.267-1.7636 0.68-1.8359 1.243-0.0723 0.562-0.0322 1.17 0.1182 1.822 0.0088 0.038 0.0156 0.067 0.0195 0.086 0.0049 0.02 0.0107 0.048 0.0205 0.087 0.0615 0.269 0.1309 0.526 0.208 0.771 0.0762 0.243 0.1611 0.479 0.252 0.7 0.3925 1 1.0751 1.984 2.0459 2.954 0.9716 0.967 2.5029 2.039 4.5927 3.212l0.4258 1.844-9.1318-0.681-7.084-30.685 7.9219-4.557zm-4.127-9.617c-1.1426-0.041-1.9189 0.197-2.331 0.716-0.4122 0.518-0.6397 1.367-0.6807 2.548 0 0-0.0264 0.767-0.0264 0.767l-2.9521-0.103 0.6181-17.714 2.9522 0.105s-0.0264 0.766-0.0264 0.766c-0.0439 1.26 0.1319 2.143 0.5283 2.651 0.3956 0.504 1.2041 0.781 2.4248 0.823l10.274 0.358 0.5303-15.174s-10.274-0.36-10.274-0.36c-0.039-1e-3 -0.0683-2e-3 -0.0888-2e-3 -0.0196-1e-3 -0.0488-2e-3 -0.0879-4e-3 -0.1182-3e-3 -0.2363-8e-3 -0.3545-0.013-0.1182-2e-3 -0.2363-7e-3 -0.3545-0.012-0.5518 0.021-1.0615 0.219-1.5283 0.598-0.4658 0.377-0.7237 1.256-0.7715 2.633 0 0-0.0293 0.827-0.0293 0.827l-2.9522-0.103 0.6192-17.714 2.9521 0.103c-0.0029 0.079-0.0058 0.167-0.0097 0.266-3e-3 0.098-0.0059 0.187-0.0088 0.265-0.0606 1.732 0.1885 2.775 0.748 3.13 0.5586 0.355 1.291 0.547 2.1963 0.579 0 0 28.46 0.993 28.46 0.993 0.8662 0.031 1.6006-0.11 2.2021-0.424 0.6026-0.315 0.9307-1.259 0.9864-2.833l0.0263-0.768 2.9522 0.103-0.6182 17.714-2.9521-0.103 0.0283-0.827c0.0478-1.378-0.1475-2.271-0.586-2.68-0.4394-0.41-0.9335-0.643-1.4834-0.704-0.1181-3e-3 -0.2353-7e-3 -0.3544-0.01-0.1182-5e-3 -0.2354-9e-3 -0.3536-0.014-0.039-1e-3 -0.0693-2e-3 -0.0888-2e-3 -0.0196-1e-3 -0.0489-2e-3 -0.0879-4e-3 0 0-14.644-0.512-14.644-0.512l-0.5302 15.176s14.644 0.512 14.644 0.512c1.2197 0.042 2.0459-0.176 2.4756-0.653 0.4307-0.478 0.668-1.347 0.7119-2.607 0 0 0.0274-0.767 0.0274-0.767l2.9521 0.104-0.6191 17.714-2.9522-0.105s0.0274-0.767 0.0274-0.767c0.0419-1.22-0.1338-2.093-0.5293-2.62-0.3955-0.526-1.2041-0.811-2.4239-0.852l-28.637-1zm15.131-76.53-0.5215 1.816c-0.3457 0.065-0.7354 0.137-1.169 0.219-0.4326 0.08-0.8759 0.198-1.331 0.356-1.1797 0.399-2.3438 1.099-3.4912 2.103-1.1485 1.001-2.0098 2.506-2.585 4.512l-1.1894 4.147c-0.336 1.174-0.3955 2.059-0.1768 2.653 0.2188 0.595 0.9531 1.073 2.2022 1.431l9.9951 2.865 1.1074-3.86c0.9121-3.182 1.2646-5.159 1.0566-5.937-0.207-0.776-0.6621-1.368-1.3652-1.775-0.0381-0.011-0.083-0.032-0.1338-0.067-0.0517-0.035-0.1152-0.065-0.1904-0.087-0.0762-0.021-0.1494-0.053-0.2197-0.094-0.0704-0.039-0.1426-0.07-0.2188-0.093-0.0654-0.058-0.1514-0.115-0.2598-0.166-0.1084-0.052-0.2187-0.094-0.332-0.126l0.5205-1.818 10.848 3.111-0.5215 1.817c-0.1133-0.031-0.2295-0.055-0.3486-0.07-0.1192-0.013-0.2217-0.012-0.3086 4e-3 -0.0752-0.02-0.1543-0.034-0.2354-0.036-0.081-4e-3 -0.1592-0.014-0.2344-0.036-0.125 5e-3 -0.247 0-0.3662-0.013-0.1181-0.013-0.2402-0.017-0.3652-0.012-0.5459 0.048-1.1074 0.327-1.6846 0.837-0.5762 0.511-1.1094 1.618-1.5976 3.323l-1.7422 6.077 12.835 3.68c1.0606 0.304 1.8828 0.293 2.4668-0.03 0.585-0.325 1.0567-1.112 1.4151-2.361l1.3838-4.828c0.2168-0.756 0.414-1.693 0.5908-2.811 0.1777-1.118 0.0742-2.366-0.3086-3.745-0.21-0.839-0.6006-1.73-1.1699-2.671-0.5703-0.942-1.3496-1.904-2.3389-2.884l0.5371-1.873 9.0283 4.739-9.1035 31.747-2.8389-0.814 0.3418-1.193c0.3799-1.324 0.4063-2.239 0.0791-2.743-0.3261-0.503-0.749-0.849-1.2685-1.039-0.1143-0.033-0.2276-0.065-0.3408-0.099-0.1143-0.031-0.2276-0.065-0.3409-0.097-0.038-0.011-0.0664-0.018-0.0849-0.024-0.0195-5e-3 -0.0479-0.015-0.086-0.024 0 0-27.431-7.868-27.431-7.868-0.0381-0.01-0.0664-0.018-0.085-0.023-0.0195-6e-3 -0.0478-0.013-0.0849-0.024-0.6817-0.196-1.3496-0.223-2.0049-0.083-0.6543 0.14-1.1992 0.967-1.6338 2.481l-0.3418 1.192s-2.8399-0.813-2.8399-0.813l8.5665-29.873s9.916 1 9.916 1zm28.183-48.501c-1.6045-0.3379-3.1231-0.3584-4.5567-0.0605-1.4335 0.2969-2.7041 0.7734-3.8134 1.4287-0.8828 0.4789-1.6504 1.0159-2.3037 1.6119-0.6524 0.597-1.1758 1.166-1.5694 1.708-0.833 1.147-1.1728 2.251-1.0185 3.313 0.1533 1.061 0.539 1.937 1.1562 2.63 0.1045 0.124 0.2305 0.252 0.3779 0.384 0.1485 0.131 0.2852 0.244 0.4131 0.337 1.0196 0.74 2.0703 1.053 3.1514 0.938 1.082-0.115 2.085-0.372 3.0078-0.772 0.2901-0.13 0.5654-0.259 0.8281-0.385 0.2618-0.126 0.5098-0.25 0.7442-0.372 2.9238-1.478 5.4902-2.681 7.6982-3.61 2.2071-0.926 4.1709-1.569 5.8906-1.926 1.8624-0.351 3.5069-0.386 4.9327-0.105 1.4267 0.282 2.8086 0.909 4.1464 1.882 3.0596 2.222 4.5 5.216 4.3204 8.98-0.1787 3.765-1.4258 7.2405-3.7412 10.428-0.9961 1.37-2.2754 2.815-3.8399 4.33-1.5654 1.517-3.6504 3.13-6.2549 4.84l-7.5556-4.175 1.1103-1.529c1.6338 0.163 3.1729 0.089 4.6182-0.225 1.4443-0.312 2.7685-0.763 3.9736-1.347 1.2275-0.618 2.2969-1.303 3.207-2.053 0.9102-0.75 1.6084-1.46 2.0948-2.13 1.2265-1.6875 1.7588-3.2245 1.5957-4.6085-0.1621-1.384-0.8653-2.528-2.1084-3.431-0.7959-0.578-1.6836-0.882-2.6602-0.91-0.9775-0.029-2.0586 0.136-3.2431 0.492-0.9405 0.29-1.9629 0.691-3.0655 1.204-1.1035 0.514-2.3242 1.087-3.6611 1.722-0.4688 0.244-0.9346 0.466-1.3965 0.666s-0.915 0.405-1.3613 0.617c-2.6836 1.215-5.1992 1.98-7.5459 2.295-2.3477 0.315-4.7315-0.406-7.1533-2.166-2.5176-1.829-4.0264-4.325-4.5274-7.489-0.5019-3.163 0.6026-6.609 3.3106-10.337 0.4863-0.6692 1.0556-1.3518 1.707-2.0471s1.3613-1.3721 2.1318-2.0293c0.8946-0.7627 1.8184-1.4658 2.7744-2.1104 0.9551-0.6455 1.8789-1.1787 2.7705-1.6025l6.5606 4.0371-1.1455 1.5771zm31.323-33.023-1.382 1.2891c-2.8007-0.4043-4.9999-0.293-6.5956 0.3339-1.5967 0.627-2.7695 1.2901-3.5186 1.9883-0.0293 0.0264-0.0507 0.0469-0.0644 0.0606-0.0147 0.0136-0.0361 0.0332-0.0654 0.0605-0.5176 0.4834-0.9043 0.9785-1.1592 1.4844-0.2549 0.5068 0.0205 1.1924 0.8271 2.0566 0 0 19.502 20.914 19.502 20.914 0.026 0.0283 0.047 0.0498 0.06 0.0645 0.014 0.0146 0.034 0.0361 0.061 0.0644 0.08 0.0869 0.161 0.1729 0.241 0.2598 0.081 0.0859 0.161 0.1728 0.242 0.2588 0.405 0.3769 0.906 0.5966 1.503 0.6591s1.4-0.3759 2.408-1.3164l0.907-0.8466 2.015 2.1611-13.568 12.652-2.015-2.161 0.865-0.806c1.18-1.101 1.685-1.975 1.512-2.622s-0.553-1.288-1.145-1.921l-19.502-20.914c-0.8057-0.8643-1.4707-1.1865-1.9932-0.9687-0.5234 0.2187-1.0303 0.5566-1.5195 1.0136-0.0293 0.0264-0.0508 0.0469-0.0655 0.0606-0.0136 0.0127-0.0351 0.0332-0.0644 0.0595-0.2012 0.1885-0.3887 0.377-0.5635 0.5664-0.1738 0.1885-0.333 0.378-0.4795 0.5684-0.6699 0.8399-1.1816 1.9229-1.5342 3.249-0.3525 1.3252-0.5156 3.1866-0.4882 5.584l-1.3819 1.2891s-3.9765-8.2481-3.9765-8.2481l23.031-21.476 7.9073 4.582zm43.573 1.4854c0.184 0.1689 0.486 0.4287 0.906 0.7812s0.895 0.7197 1.422 1.1035c0.344 0.2149 0.698 0.4238 1.059 0.6289s0.728 0.3614 1.103 0.4688c0.18 0.081 0.355 0.1308 0.523 0.1504 0.168 0.0185 0.323 0.0341 0.465 0.0459 0.39 0.0537 0.746 0.0254 1.067-0.085 0.321-0.1103 0.69-0.2803 1.103-0.5098 0.034-0.0195 0.077-0.0429 0.129-0.0722 0.051-0.0283 0.094-0.0518 0.128-0.0713 0.036-0.0186 0.079-0.043 0.13-0.0713s0.095-0.0527 0.129-0.0713l1.432 2.583-13.435 7.4473-1.432-2.583 1.705-0.9453 0.052-0.0293c0.035-0.0186 0.069-0.0381 0.103-0.0567 0.034-0.0195 0.068-0.039 0.104-0.0576 0.103-0.0576 0.196-0.1543 0.278-0.2891 0.082-0.1367 0.084-0.3173 4e-3 -0.5429-0.02-0.0342-0.039-0.0684-0.058-0.1035-0.019-0.0342-0.038-0.0684-0.057-0.1036 0 0-0.029-0.0507-0.029-0.0507l-0.057-0.1036c-0.019-0.0351-0.084-0.1113-0.195-0.2294-0.111-0.1192-0.331-0.3125-0.659-0.5811l-5.717-5.0723-12.505 6.9317s1.101 6.6181 1.101 6.6181c4e-3 0.0879 0.027 0.21 0.069 0.3672 0.041 0.1572 0.067 0.3233 0.074 0.499 0.019 0.0342 0.029 0.0743 0.032 0.1182 2e-3 0.044 0.012 0.083 0.031 0.1172 0.026 0.2109 0.062 0.416 0.106 0.6172 0.043 0.2012 0.093 0.3525 0.151 0.456 0.019 0.0342 0.03 0.0957 0.034 0.1836 0.02 0.0352 0.047 0.0645 0.083 0.0889 0.037 0.0254 0.065 0.0547 0.083 0.0889 0.092 0.0849 0.235 0.1181 0.428 0.1015 0.193-0.0175 0.376-0.0732 0.549-0.1689 0.122-0.0225 0.226-0.0576 0.312-0.1055 0.086-0.0478 0.164-0.0908 0.233-0.1289l1.292-0.7168s1.431 2.584 1.431 2.584l-10.437 5.7861-1.433-2.584c1.306-0.8134 2.132-1.496 2.479-2.0488 0.346-0.5527 0.548-1.1826 0.607-1.8906-4e-3 -0.0879-4e-3 -0.1895 0-0.3037 4e-3 -0.1153 0.012-0.2432 0.023-0.3848 0.012-0.5469 8e-3 -0.9609-0.013-1.2422-0.021-0.2812-0.062-0.5175-0.123-0.709 0.035-0.0185 0.043-0.0459 0.023-0.08-0.038-0.0694-0.059-0.1475-0.062-0.2354-4e-3 -0.0879-0.018-0.1933-0.04-0.3164l-3.735-25.626c-0.046-0.2451-0.073-0.4765-0.083-0.6963-9e-3 -0.2207-0.053-0.4433-0.134-0.6689-0.026-0.2109-0.07-0.4121-0.131-0.6035s-0.149-0.3897-0.263-0.5967c-0.02-0.0342-0.043-0.0771-0.071-0.1289-0.03-0.0518-0.063-0.1123-0.101-0.1807-0.149-0.1884-0.396-0.3095-0.743-0.3652-0.346-0.0566-0.881 0.1162-1.605 0.5176l-0.568 0.3154-0.916-1.6543c0.876-0.5303 1.595-1.042 2.156-1.5322 0.561-0.4912 1.031-1.0449 1.41-1.6602 0.315-0.4892 0.6-1.0302 0.857-1.624 0.257-0.5918 0.545-1.292 0.862-2.0986l2.119-1.1748 26.215 22.555zm-22.832 4.7529 10.025-5.5567-11.834-10.261-0.621 0.3437 2.43 15.474zm54.165-38.51-1.826 0.4893c-2.283-1.6719-4.276-2.6055-5.98-2.8008-1.705-0.1963-3.051-0.1621-4.04 0.1035-0.039 0.0098-0.067 0.0176-0.086 0.0225-0.019 0.0058-0.047 0.0127-0.085 0.0234-0.685 0.1826-1.259 0.4385-1.722 0.7666-0.462 0.3281-0.541 1.0625-0.235 2.2041l7.401 27.621c0.011 0.0381 0.018 0.0664 0.023 0.085 5e-3 0.0195 0.013 0.0478 0.023 0.0859 0.03 0.1143 0.061 0.2285 0.092 0.3428 0.03 0.1142 0.061 0.2275 0.091 0.3418 0.181 0.5224 0.521 0.9521 1.018 1.2881 0.498 0.3349 1.412 0.3242 2.744-0.0323l1.198-0.3213 0.765 2.8536-17.919 4.8017-0.765-2.8535 1.141-0.3057c1.561-0.4179 2.416-0.9531 2.567-1.6054 0.152-0.6524 0.116-1.3975-0.109-2.2344l-7.401-27.621c-0.306-1.1416-0.741-1.7383-1.305-1.791-0.565-0.0528-1.171 0.0078-1.817 0.1806-0.038 0.0108-0.068 0.0186-0.086 0.0235-0.019 0.0049-0.048 0.0127-0.086 0.0224-0.266 0.0723-0.521 0.1504-0.763 0.2354s-0.472 0.1777-0.69 0.2773c-0.987 0.4268-1.947 1.1426-2.88 2.1475-0.934 1.0049-1.951 2.5723-3.053 4.7022l-1.826 0.4892s0.362-9.1494 0.362-9.1494 30.418-8.1504 30.418-8.1504 4.831 7.7578 4.831 7.7578zm35.98-2.1514-1.886 0.1319c-0.18-0.3037-0.381-0.6455-0.605-1.0244s-0.487-0.7549-0.79-1.1289c-0.779-0.9727-1.836-1.8262-3.17-2.5625-1.334-0.7354-3.043-1.0303-5.125-0.8848l-4.303 0.3008c-1.218 0.0849-2.07 0.332-2.554 0.7412s-0.682 1.2617-0.591 2.5586l0.725 10.373 4.008-0.2802c3.3-0.2315 5.28-0.5762 5.939-1.0372 0.659-0.4609 1.059-1.0908 1.2-1.8906-3e-3 -0.039 4e-3 -0.0888 0.02-0.1494 0.014-0.0596 0.02-0.1299 0.014-0.208-5e-3 -0.0791 0-0.1582 0.013-0.2383 0.015-0.0801 0.019-0.1592 0.014-0.2373 0.033-0.082 0.056-0.1816 0.067-0.3008 0.011-0.1191 0.013-0.2382 5e-3 -0.3564l1.886-0.1318 0.787 11.258-1.886 0.1318c-9e-3 -0.1182-0.026-0.2353-0.054-0.3516-0.028-0.1171-0.064-0.2129-0.109-0.289-6e-3 -0.0781-0.02-0.1563-0.046-0.2334-0.025-0.0772-0.041-0.1553-0.046-0.2334-0.048-0.1153-0.085-0.2315-0.113-0.3477s-0.065-0.2324-0.113-0.3476c-0.233-0.4971-0.687-0.9287-1.364-1.2959-0.677-0.3682-1.9-0.4893-3.668-0.3662l-6.306 0.4414 0.931 13.32c0.077 1.0996 0.368 1.8691 0.872 2.3076 0.505 0.4385 1.405 0.6123 2.702 0.5215l5.01-0.3496c0.786-0.0557 1.733-0.1905 2.843-0.4063 1.111-0.2158 2.248-0.7392 3.414-1.5713 0.717-0.4843 1.42-1.1562 2.111-2.0136 0.69-0.8575 1.326-1.919 1.909-3.1836l1.944-0.1358-1.366 10.104-32.946 2.3037s-0.206-2.9463-0.206-2.9463 1.238-0.0869 1.238-0.0869c1.375-0.0957 2.243-0.3838 2.604-0.8633 0.362-0.4795 0.543-0.9951 0.543-1.5478-7e-3 -0.1182-0.015-0.2363-0.024-0.3535-8e-3 -0.1182-0.017-0.2364-0.024-0.3535-3e-3 -0.0401-5e-3 -0.0694-6e-3 -0.0889-2e-3 -0.0195-4e-3 -0.0488-7e-3 -0.0889l-1.99-28.467c-3e-3 -0.039-5e-3 -0.0683-6e-3 -0.0879-2e-3 -0.0205-4e-3 -0.0488-7e-3 -0.0888-0.049-0.7071-0.252-1.3448-0.607-1.9121-0.356-0.5674-1.32-0.7959-2.891-0.6856l-1.237 0.086s-0.206-2.9473-0.206-2.9473l31.001-2.167s2.452 9.6601 2.452 9.6601zm39.894 39.237c-4.97-1.6563-8.868-4.7969-11.693-9.4219-2.825-4.624-3.16-10.252-1.006-16.882 1.983-6.1064 5.354-10.396 10.112-12.866 4.759-2.4716 9.966-2.7881 15.622-0.9502 5.058 1.6426 8.993 4.7647 11.805 9.3643 2.813 4.5996 3.13 10.253 0.951 16.958-2.154 6.6299-5.724 10.988-10.709 13.076-4.985 2.0859-10.007 2.3086-15.063 0.665 0 0-0.019 0.0567-0.019 0.0567zm1.096-3.3721c0.524 0.1709 1.17 0.3183 1.936 0.4433 0.768 0.125 1.593 0.1036 2.476-0.0654 1.629-0.2988 3.393-1.4238 5.29-3.376 1.897-1.9511 3.673-5.4736 5.328-10.568 1.972-6.0684 2.508-10.522 1.609-13.361-0.9-2.8398-2.288-4.75-4.164-5.7324-0.275-0.1728-0.55-0.3134-0.825-0.4238-0.275-0.1094-0.544-0.207-0.806-0.293-2.772-0.9004-5.464-0.3877-8.078 1.5381-2.614 1.9248-4.913 5.9414-6.896 12.047-1.644 5.0576-2.277 8.9199-1.902 11.589 0.375 2.6689 1.109 4.6162 2.202 5.8408 0.64 0.7051 1.308 1.2324 2.002 1.582s1.303 0.6104 1.828 0.7803zm61.075-1.251-1.637-0.9453c0.132-2.1973-0.174-4.1484-0.92-5.8516-0.744-1.7041-2.123-3.1367-4.135-4.2988l-3.581-2.0674c-1.467-0.8467-2.478-1.0664-3.032-0.6582-0.553 0.4072-1.028 0.9531-1.421 1.6348 0 0-5.2 9.0058-5.2 9.0058l3.377 1.9493c2.866 1.6543 4.7 2.4746 5.504 2.4609 0.804-0.0127 1.461-0.3047 1.972-0.874 0.073-0.0489 0.133-0.0938 0.18-0.1348 0.046-0.041 0.089-0.0957 0.128-0.1641 0.074-0.0488 0.134-0.0937 0.181-0.1347s0.089-0.0957 0.129-0.1641c0.039-0.0683 0.073-0.1289 0.104-0.1797 0.029-0.0507 0.063-0.1103 0.103-0.1787 0.02-0.0342 0.044-0.0771 0.073-0.1279 0.031-0.0508 0.054-0.0938 0.075-0.1279 0 0 1.688 0.9746 1.688 0.9746s-5.643 9.7724-5.643 9.7724-1.688-0.9746-1.688-0.9746c0.039-0.0683 0.074-0.1279 0.103-0.1787 0.03-0.0517 0.054-0.0937 0.074-0.1279 0.059-0.1026 0.11-0.21 0.152-0.3223s0.085-0.2461 0.13-0.4023c0.025-0.1221 0.059-0.2393 0.101-0.3516 0.042-0.1113 0.075-0.2285 0.1-0.3506 0.085-0.542-0.05-1.1543-0.406-1.8379s-1.319-1.4775-2.888-2.3838l-5.321-3.0722-6.972 12.075c-0.767 1.331-0.9 2.289-0.397 2.875 0.503 0.5859 1.249 1.164 2.238 1.7353 0.034 0.0205 0.068 0.0401 0.103 0.0596l0.767 0.4434-1.477 2.5576-16.424-9.4824s1.476-2.5586 1.476-2.5586l1.076 0.6211c1.056 0.6103 1.911 0.8642 2.561 0.7626 0.649-0.1025 1.28-0.6826 1.891-1.7402l14.239-24.662c0.61-1.0566 0.797-1.8926 0.56-2.5068-0.237-0.6143-0.883-1.2266-1.941-1.8369l-1.074-0.6211 1.476-2.5577 26.863 15.509-3.267 9.4385zm41.007 40.996-1.24-1.427c0.502-2.785 0.467-4.986-0.104-6.6033-0.57-1.6172-1.192-2.8125-1.864-3.5859-0.025-0.0293-0.045-0.0518-0.058-0.0664-0.012-0.0147-0.032-0.0371-0.058-0.0674-0.465-0.5352-0.947-0.9385-1.444-1.21-0.498-0.2724-1.192-0.0205-2.084 0.7539l-21.582 18.761c-0.029 0.026-0.051 0.046-0.066 0.058-0.015 0.013-0.037 0.033-0.067 0.058-0.089 0.078-0.178 0.155-0.267 0.232-0.09 0.078-0.179 0.156-0.268 0.234-0.39 0.39-0.628 0.884-0.711 1.478-0.084 0.595 0.328 1.412 1.232 2.452 0 0 0.813 0.937 0.813 0.937l-2.229 1.938-12.171-14.002 2.229-1.937s0.776 0.892 0.776 0.892c1.059 1.218 1.916 1.752 2.568 1.603 0.653-0.15 1.306-0.509 1.96-1.077l21.581-18.761c0.892-0.7754 1.238-1.4278 1.038-1.959-0.201-0.5303-0.52-1.0479-0.96-1.5537-0.025-0.0293-0.045-0.0518-0.057-0.0664-0.013-0.0157-0.033-0.0372-0.059-0.0674-0.181-0.208-0.362-0.4024-0.546-0.5821-0.182-0.1806-0.366-0.3466-0.551-0.499-0.817-0.7002-1.88-1.249-3.193-1.6474-1.312-0.3995-3.167-0.627-5.564-0.6827l-1.241-1.4267 8.382-3.6856s20.66 23.767 20.66 23.767-4.855 7.7432-4.855 7.7432zm16.851 33.384-0.888-1.67c0.204-0.286 0.433-0.609 0.689-0.967 0.255-0.36 0.491-0.754 0.71-1.182 0.572-1.107 0.922-2.419 1.052-3.937 0.129-1.519-0.296-3.2-1.276-5.043l-2.026-3.808c-0.573-1.079-1.144-1.755-1.716-2.033-0.57-0.2755-1.429-0.1085-2.577 0.502l-9.181 4.882s1.886 3.547 1.886 3.547c1.553 2.922 2.674 4.589 3.363 5.003 0.688 0.415 1.427 0.523 2.216 0.327 0.034-0.019 0.082-0.031 0.143-0.043 0.062-0.01 0.127-0.034 0.196-0.07 0.071-0.037 0.145-0.066 0.224-0.085 0.078-0.019 0.152-0.048 0.222-0.084 0.088-4e-3 0.189-0.023 0.302-0.062 0.114-0.038 0.223-0.085 0.328-0.14l0.886 1.669-9.963 5.297-0.887-1.668c0.104-0.055 0.204-0.119 0.298-0.192 0.095-0.074 0.168-0.147 0.22-0.218 0.07-0.036 0.134-0.083 0.195-0.138 0.06-0.053 0.126-0.099 0.194-0.136 0.087-0.09 0.177-0.172 0.271-0.245 0.096-0.072 0.186-0.154 0.272-0.244 0.36-0.415 0.569-1.006 0.63-1.773 0.06-0.768-0.326-1.935-1.158-3.5l-2.968-5.582-11.789 6.27c-0.974 0.516-1.559 1.094-1.754 1.734-0.197 0.641 0.012 1.534 0.622 2.681l2.357 4.433c0.37 0.696 0.879 1.507 1.529 2.434 0.648 0.927 1.589 1.754 2.823 2.48 0.734 0.456 1.634 0.826 2.698 1.109 1.064 0.281 2.292 0.43 3.685 0.448l0.915 1.723-9.787 2.861-15.505-29.161 2.608-1.387 0.583 1.096c0.647 1.217 1.263 1.892 1.848 2.029 0.585 0.135 1.13 0.09 1.636-0.134 0.103-0.056 0.208-0.111 0.312-0.166s0.209-0.111 0.313-0.168c0.035-0.017 0.061-0.032 0.079-0.041 0.017-0.01 0.043-0.022 0.078-0.041l25.196-13.398c0.035-0.019 0.061-0.032 0.078-0.041 0.018-0.01 0.044-0.024 0.078-0.042 0.626-0.333 1.126-0.778 1.5-1.332 0.373-0.556 0.191-1.53-0.549-2.92l-0.583-1.096 2.609-1.387s14.59 27.44 14.59 27.44l-7.827 6.168zm17.027 19.993-2.84 0.813c-0.011-0.038-0.021-0.075-0.032-0.114-0.011-0.037-0.023-0.074-0.033-0.113-0.011-0.037-0.022-0.076-0.033-0.113-0.01-0.038-0.022-0.077-0.033-0.114-0.227-0.796-0.472-1.329-0.735-1.602s-0.584-0.356-0.962-0.245c-0.228 0.063-0.484 0.209-0.767 0.434-0.284 0.224-0.693 0.619-1.228 1.181 0 0-5.643 6.045-5.643 6.045l0.098 0.34 6.981 2.055c0.801 0.22 1.517 0.394 2.147 0.52 0.631 0.128 1.078 0.153 1.344 0.076 0.378-0.108 0.63-0.334 0.757-0.679 0.127-0.343 0.082-0.893-0.135-1.65l-0.245-0.852 2.84-0.814 3.501 12.21s-2.839 0.814-2.839 0.814l-0.342-1.192c-0.39-1.363-1.173-2.379-2.348-3.046s-2.495-1.2-3.962-1.599l-10.479-2.895-12.024 12.728c-1.264 1.306-2.187 2.624-2.767 3.959-0.582 1.335-0.762 2.811-0.544 4.427 0 0-2.84 0.815-2.84 0.815l-5.097-17.775 2.839-0.815 0.424 1.476c0.119 0.417 0.335 0.703 0.645 0.86 0.312 0.157 0.606 0.217 0.881 0.177 0.038-9e-3 0.067-0.018 0.086-0.024s0.047-0.013 0.085-0.024c0.341-0.097 0.596-0.244 0.767-0.435 0.17-0.191 0.346-0.397 0.53-0.613 0.027-0.048 0.055-0.097 0.081-0.147 0.065-0.059 0.128-0.128 0.187-0.206 0.059-0.079 0.122-0.147 0.186-0.207 0 0 7.167-7.588 7.167-7.588l-0.13-0.453-9.466-2.572c-0.579-0.162-1.065-0.289-1.461-0.381-0.394-0.091-0.749-0.113-1.063-0.063-0.037 0.01-0.075 0.022-0.113 0.033s-0.077 0.02-0.114 0.031c-0.568 0.164-0.904 0.454-1.009 0.874-0.105 0.419-0.071 0.933 0.102 1.537l0.147 0.512s-2.839 0.814-2.839 0.814l-3.844-13.403 2.84-0.813s0.227 0.794 0.227 0.794c0.522 1.817 1.462 3.166 2.821 4.047 1.358 0.881 2.968 1.566 4.831 2.056 0 0 12.533 3.414 12.533 3.414l10.126-11.202c0.405-0.442 0.775-0.867 1.11-1.271 0.335-0.402 0.635-0.787 0.9-1.149 0.599-0.908 0.968-1.804 1.105-2.683 0.138-0.879 0.051-1.93-0.259-3.153l2.84-0.814 5.098 17.777zm-24.984 61.055c-0.233 0.086-0.602 0.237-1.107 0.452s-1.048 0.471-1.629 0.765c-0.347 0.21-0.694 0.428-1.041 0.658-0.347 0.228-0.652 0.485-0.919 0.77-0.153 0.124-0.276 0.256-0.37 0.398-0.094 0.141-0.178 0.273-0.252 0.392-0.225 0.323-0.361 0.654-0.409 0.99-0.048 0.337-0.063 0.742-0.046 1.214 1e-3 0.04 3e-3 0.088 5e-3 0.148 2e-3 0.058 4e-3 0.108 5e-3 0.148 2e-3 0.038 3e-3 0.089 6e-3 0.148 2e-3 0.059 3e-3 0.108 5e-3 0.146l-2.953 0.104-0.536-15.352 2.952-0.102 0.068 1.948s3e-3 0.059 3e-3 0.059c1e-3 0.038 3e-3 0.078 4e-3 0.118 1e-3 0.039 3e-3 0.079 4e-3 0.119 3e-3 0.117 0.047 0.244 0.131 0.378 0.083 0.136 0.245 0.219 0.482 0.25 0.039-1e-3 0.078-2e-3 0.118-5e-3 0.039-1e-3 0.078-2e-3 0.118-3e-3l0.059-3e-3s0.118-3e-3 0.118-3e-3c0.039-3e-3 0.137-0.024 0.293-0.07 0.156-0.044 0.429-0.154 0.816-0.325l7.115-2.79-0.499-14.29-6.396-2.022c-0.08-0.037-0.199-0.072-0.358-0.105-0.16-0.034-0.319-0.087-0.479-0.162-0.039 2e-3 -0.079-7e-3 -0.119-0.025-0.04-0.019-0.079-0.025-0.119-0.025-0.199-0.072-0.399-0.133-0.598-0.185-0.199-0.053-0.357-0.077-0.475-0.072-0.039 1e-3 -0.099-0.017-0.179-0.053-0.04 0-0.078 0.012-0.117 0.032-0.039 0.022-0.078 0.033-0.118 0.034-0.117 0.043-0.211 0.155-0.284 0.334-0.072 0.182-0.105 0.369-0.098 0.566-0.035 0.119-0.051 0.229-0.047 0.327 3e-3 0.1 6e-3 0.186 9e-3 0.267l0.051 1.475-2.952 0.103-0.417-11.928 2.952-0.103c0.133 1.534 0.367 2.578 0.702 3.139 0.334 0.56 0.804 1.026 1.408 1.398 0.08 0.039 0.171 0.083 0.271 0.14 0.101 0.055 0.211 0.121 0.332 0.194 0.482 0.26 0.853 0.445 1.113 0.552 0.259 0.111 0.489 0.181 0.687 0.214 2e-3 0.038 0.022 0.059 0.062 0.056 0.078-2e-3 0.158 0.015 0.238 0.051 0.08 0.037 0.18 0.073 0.299 0.108l24.528 8.308c0.239 0.069 0.459 0.15 0.659 0.243 0.2 0.091 0.419 0.151 0.656 0.182 0.201 0.074 0.399 0.124 0.597 0.159 0.198 0.031 0.416 0.042 0.652 0.036 0.04-2e-3 0.088-4e-3 0.148-6e-3 0.059-2e-3 0.128-5e-3 0.206-7e-3 0.235-0.048 0.456-0.213 0.663-0.497 0.207-0.282 0.296-0.837 0.267-1.664 0 0-0.023-0.651-0.023-0.651l1.89-0.065c0.075 1.021 0.204 1.895 0.387 2.617 0.182 0.724 0.462 1.393 0.838 2.011 0.293 0.501 0.646 1.001 1.058 1.5 0.411 0.498 0.904 1.072 1.479 1.722l0.085 2.421-31.999 13.119zm6.131-22.502 0.401 11.454 14.514-5.886-0.025-0.709s-14.89-4.859-14.89-4.859z"/></g><path d="m27.02 188.26 7.4606-0.11044-0.02879 0.89016c-1.3173 0.12939-2.2619 0.33332-2.8338 0.61184-0.92141 0.45484-1.6099 1.0774-2.0654 1.8678-0.45545 0.7904-0.7044 1.8415-0.74686 3.1533l-0.14472 4.4742 24.269 0.78495c1.9521 0.0632 3.177-0.10827 3.6748-0.51428 0.6751-0.57222 1.0326-1.4752 1.0725-2.7089l0.03561-1.101 0.86674 0.028-0.43566 13.47-0.86674-0.028 0.03637-1.1244c0.04344-1.343-0.33178-2.3088-1.1257-2.8973-0.48862-0.35972-1.6231-0.56837-3.4034-0.62597l-24.269-0.78495-0.1235 3.8183c-0.04796 1.4836 0.02727 2.5413 0.22567 3.173 0.27048 0.82168 0.81802 1.5351 1.6426 2.1402 0.82465 0.60511 1.9536 0.98555 3.3867 1.1413l-0.02879 0.89016-7.4371-0.61575 0.83875-25.932zm17.397-14.402 3.5759-14.326-8.823-2.2023c-1.5766-0.3935-2.6397-0.55416-3.1891-0.482-0.41681 0.057-0.82222 0.29404-1.2162 0.71101-0.52653 0.56109-0.88062 1.2054-1.0623 1.9331l-0.27245 1.0915-0.84137-0.21002 3.2921-13.189 0.84137 0.21001-0.27245 1.0915c-0.18161 0.72771-0.17945 1.461 0.0065 2.1999 0.12149 0.5457 0.40681 0.96719 0.85597 1.2645 0.4492 0.29736 1.4318 0.63522 2.9477 1.0136l19.897 4.9666c1.5615 0.38978 2.6169 0.54856 3.1664 0.47632 0.41683-0.057 0.82034-0.28638 1.2105-0.68826 0.53033-0.57618 0.88631-1.2281 1.068-1.9558l0.27245-1.0915 0.84137 0.21001-3.2921 13.189-0.84137-0.21002 0.27245-1.0915c0.31407-1.2582 0.17159-2.2681-0.42744-3.0296-0.39052-0.50006-1.5105-0.98093-3.36-1.4426l-9.3915-2.3442-3.5759 14.326 9.3915 2.3442c1.5615 0.38978 2.6169 0.54856 3.1664 0.47634 0.41684-0.057 0.82224-0.29398 1.2162-0.711 0.52655-0.56104 0.88064-1.2054 1.0623-1.9331l0.27813-1.1142 0.84137 0.21001-3.2978 13.212-0.84137-0.21001 0.27245-1.0915c0.31786-1.2734 0.17727-2.2909-0.42177-3.0524-0.3943-0.48492-1.5162-0.9582-3.3657-1.4199l-19.897-4.9666c-1.5766-0.39352-2.6396-0.5542-3.1891-0.482-0.41681 0.057-0.82032 0.28644-1.2105 0.68827-0.53029 0.57621-0.88627 1.2282-1.0679 1.9558l-0.27245 1.0915-0.84137-0.21 3.2978-13.212 0.84137 0.21003-0.27813 1.1142c-0.18161 0.72768-0.17944 1.461 0.0065 2.1999 0.12528 0.53052 0.41155 0.94821 0.85881 1.2531 0.44731 0.30492 1.4289 0.64658 2.9449 1.025l8.823 2.2023zm0.33147-42.241 11.27 5.5495 3.0853-6.266c0.80068-1.626 1.0903-2.8332 0.86885-3.6215-0.28589-1.0464-1.2212-2.012-2.8058-2.8968l0.38308-0.77799 9.9246 4.8868-0.38308 0.77799c-1.4844-0.48707-2.4712-0.72911-2.9603-0.72615-0.61486 0.0108-1.204 0.23448-1.7673 0.67114-0.56335 0.4367-1.1384 1.2508-1.7251 2.4423l-3.0853 6.266 9.3989 4.628c1.2616 0.62121 2.0567 0.94305 2.3853 0.96549 0.32856 0.0225 0.64247-0.0668 0.94172-0.2678 0.29925-0.20096 0.64214-0.69394 1.0287-1.479l2.3813-4.8361c0.79376-1.612 1.258-2.8378 1.3926-3.6771 0.13463-0.83935 0.03818-1.7576-0.28934-2.755-0.44117-1.297-1.3135-2.8325-2.6171-4.6065l0.41414-0.84106 5.9377 5.9803-10.819 21.973-0.77799-0.38308 0.49697-1.0093c0.33131-0.67286 0.48416-1.39 0.45855-2.1516-0.0034-0.559-0.18971-1.0295-0.55891-1.4116-0.36919-0.38207-1.2477-0.91477-2.6354-1.5981l-18.525-9.1214c-1.8083-0.89038-3.0124-1.2569-3.6124-1.0995-0.80917 0.22858-1.5037 0.9316-2.0835 2.1091l-0.49697 1.0093-0.77799-0.38308 10.819-21.973 6.4002 2.7596-0.40378 0.82004c-1.6448-0.44414-2.8356-0.62556-3.5724-0.54422-0.73671 0.0814-1.4248 0.40005-2.0643 0.95596-0.48634 0.4572-1.0781 1.3937-1.7752 2.8095l-3.8515 7.8219zm32.48-52.02 8.2587 7.2541-0.57229 0.65154c-1.7704-1.1807-3.365-1.9106-4.7836-2.1897-1.4186-0.279-2.8472-0.15604-4.2858 0.36887-1.4385 0.52498-2.6321 1.3275-3.5808 2.4075-1.0724 1.2209-1.5864 2.5579-1.5422 4.0109 0.04429 1.4531 0.54187 2.5972 1.4927 3.4324 0.72786 0.63933 1.6128 0.96953 2.6549 0.9906 1.5198 0.04554 4.2147-0.65488 8.0847-2.1012 3.1566-1.1787 5.4131-1.895 6.7696-2.149 1.3564-0.25389 2.6624-0.21944 3.9178 0.10336 1.2554 0.32285 2.3585 0.90187 3.3094 1.7371 1.8079 1.588 2.7502 3.6583 2.8269 6.2108 0.07671 2.5526-0.85421 4.9324-2.7928 7.1394-0.60839 0.69264-1.2335 1.2978-1.8753 1.8154-0.37836 0.31237-1.2551 0.87844-2.6303 1.6982-1.3752 0.81978-2.1968 1.3823-2.4649 1.6875-0.25779 0.29349-0.3734 0.60268-0.34682 0.92757 0.02657 0.32488 0.27964 0.77075 0.75922 1.3376l-0.57229 0.65154-8.1882-7.1923 0.57229-0.65154c1.9821 1.2003 3.6255 1.9159 4.9303 2.1469 1.3048 0.23107 2.7056 0.0628 4.2022-0.50462 1.4967-0.56746 2.8018-1.4851 3.9155-2.753 1.2889-1.4674 1.9198-2.967 1.8926-4.4986-0.02723-1.5316-0.56911-2.7615-1.6257-3.6896-0.58698-0.51556-1.3216-0.87487-2.2039-1.0779-0.88228-0.20303-1.8807-0.19097-2.9953 0.0362-0.75433 0.14851-2.6009 0.7414-5.5397 1.7787-2.9388 1.0373-5.1276 1.6883-6.5664 1.9531-1.4388 0.26479-2.765 0.25933-3.9786-0.0164-1.2136-0.27569-2.3134-0.84662-3.2996-1.7128-1.7139-1.5055-2.6127-3.4595-2.6964-5.8622-0.0836-2.4026 0.76653-4.6194 2.5504-6.6504 1.1137-1.2678 2.6054-2.3387 4.4753-3.2127 0.87094-0.39959 1.425-0.7344 1.6621-1.0044 0.26811-0.30519 0.39625-0.63457 0.38442-0.98813-0.01181-0.35349-0.24204-0.83127-0.69069-1.4333l0.57229-0.65154zm29.676-24.379 4.8856 5.6394-0.69988 0.55081c-0.94677-0.92506-1.7107-1.5168-2.2919-1.7753-0.9411-0.41256-1.8607-0.53885-2.7588-0.37889-0.89808 0.16004-1.8628 0.64589-2.8942 1.4576l-3.5178 2.7685 15.017 19.081c1.2079 1.5348 2.1274 2.3621 2.7585 2.4818 0.87241 0.14851 1.7936-0.15895 2.7636-0.92236l0.86564-0.68126 0.53632 0.68146-10.59 8.3346-0.5363-0.68146 0.88405-0.69576c1.056-0.83103 1.5537-1.7397 1.4932-2.7261-0.0391-0.6055-0.60946-1.6081-1.7111-3.0079l-15.017-19.081-3.0021 2.3627c-1.1664 0.91804-1.9276 1.6563-2.2835 2.2147-0.45487 0.73581-0.64855 1.614-0.58105 2.6345 0.06753 1.0206 0.50282 2.1295 1.3059 3.3268l-0.69988 0.55081-4.3147-6.0888 20.388-16.046zm35.866 4.4704-11.047 5.4184 0.2727 5.4527c0.0666 1.3422 0.23405 2.2868 0.5024 2.834 0.21329 0.43489 0.6077 0.71568 1.1832 0.84237 0.57553 0.1267 1.5748-0.098 2.9977-0.67409l0.38186 0.77858-8.9853 4.407-0.38187-0.77858c1.0892-0.79527 1.7266-1.4473 1.9122-1.956 0.38519-1.0243 0.50695-2.7808 0.36528-5.2696l-1.4806-28.407 0.73649-0.36123 21.574 18.865c1.7353 1.5157 3.0685 2.3977 3.9995 2.6459 0.93095 0.24823 1.9958 0.12186 3.1946-0.37909l0.38187 0.77858-11.258 5.5216-0.38187-0.77858c1.1088-0.61342 1.784-1.1795 2.0255-1.6983 0.24154-0.51874 0.24879-1.0096 0.0218-1.4725-0.30276-0.61724-1.0615-1.4546-2.2763-2.5121l-3.7381-3.257zm-1.3529-1.2682-10.496-9.1577 0.68968 13.967 9.8059-4.8095zm36.981-32.095 2.1351 7.1494-0.86445 0.21437c-0.48275-1.2325-0.93588-2.086-1.3594-2.5606-0.68828-0.76299-1.4746-1.2562-2.3591-1.4796-0.88447-0.22334-1.9636-0.17707-3.2376 0.1388l-4.345 1.0775 5.8443 23.567c0.47009 1.8957 0.96817 3.0279 1.4942 3.3964 0.73423 0.49405 1.7004 0.59252 2.8985 0.29541l1.0692-0.26514 0.20872 0.84169-13.08 3.2437-0.20872-0.84169 1.0919-0.27078c1.3042-0.32343 2.1316-0.94714 2.482-1.8711 0.21329-0.56803 0.10557-1.7165-0.32315-3.4454l-5.8443-23.567-3.708 0.91952c-1.4407 0.35731-2.4381 0.71732-2.9921 1.08-0.71715 0.48374-1.2548 1.2046-1.6128 2.1627-0.35804 0.95812-0.41715 2.148-0.17732 3.5695l-0.86444 0.21437-1.4299-7.3243 25.183-6.2448zm17.832-0.03186 0.60792 12.548 6.9762-0.33799c1.8104-0.08769 3.0066-0.41941 3.5889-0.99515 0.77674-0.75721 1.1681-2.0433 1.174-3.8582l0.86617-0.04196 0.53534 11.05-0.86617 0.04196c-0.29337-1.5345-0.55988-2.5149-0.79953-2.9413-0.3074-0.53261-0.78859-0.93949-1.4436-1.2206-0.65501-0.28112-1.6458-0.38955-2.9724-0.32529l-6.9762 0.33799 0.50698 10.464c0.068 1.4046 0.17187 2.256 0.31148 2.5543 0.13959 0.29828 0.3698 0.5296 0.69064 0.69395 0.32082 0.16436 0.91822 0.22536 1.7922 0.18302l5.3843-0.26086c1.7948-0.08695 3.0918-0.27494 3.8913-0.56397 0.79942-0.28902 1.5559-0.81844 2.2696-1.5883 0.92071-1.0145 1.841-2.5217 2.761-4.5217l0.9364-0.04537-2.3534 8.0921-24.463 1.1852-0.042-0.86617 1.1237-0.05444c0.74912-0.03629 1.4505-0.25017 2.1042-0.64164 0.48731-0.2739 0.80861-0.66491 0.9639-1.173 0.15527-0.50811 0.19548-1.5347 0.12063-3.0798l-0.99919-20.624c-0.0976-2.0132-0.36054-3.2441-0.789-3.6927-0.59209-0.59702-1.5436-0.86378-2.8546-0.8003l-1.1237 0.05444-0.042-0.86617 24.464-1.1852 0.688 6.9358-0.91299 0.04423c-0.40867-1.654-0.8271-2.7835-1.2553-3.3885-0.42824-0.60496-1.0405-1.0524-1.8366-1.3424-0.63563-0.20382-1.7416-0.26757-3.3178-0.19123l-8.7085 0.42192zm57.764 2.5168c4.004 0.99163 7.0969 3.3713 9.2786 7.139 2.1816 3.7678 2.7091 7.9267 1.5823 12.477-1.1607 4.6866-3.6029 8.2106-7.3266 10.572-3.7238 2.3616-7.6863 3.0222-11.887 1.9818-4.2467-1.0517-7.441-3.4444-9.5828-7.1781-2.1418-3.7337-2.6193-7.9969-1.4324-12.79 1.2132-4.8989 3.8713-8.4822 7.9742-10.75 3.5617-1.9671 7.3597-2.4511 11.394-1.452zm-0.84354 1.5537c-2.7604-0.68358-5.2283-0.2082-7.4037 1.4261-2.7089 2.0335-4.6718 5.5072-5.8888 10.421-1.247 5.0354-1.1299 9.1772 0.35151 12.425 1.1423 2.4721 3.071 4.0443 5.7858 4.7167 2.8968 0.7174 5.5692 0.18 8.0172-1.6122 2.4479-1.7922 4.2747-5.1226 5.4804-9.9912 1.3071-5.278 1.2429-9.4711-0.19268-12.579-1.1576-2.4758-3.2075-4.0781-6.1498-4.8068zm31.465 11.693-5.4003 11.265 5.2202 2.5026c1.1976 0.57415 2.2013 0.73044 3.0112 0.46888 0.80981-0.26154 1.6812-1.1304 2.6141-2.6065l0.78197 0.37488-4.6505 9.7007-0.78197-0.37488c0.5195-1.1198 0.76685-2.0063 0.74205-2.6593-0.0248-0.65302-0.21783-1.2264-0.57894-1.7201-0.36115-0.49368-1.0208-0.97019-1.9788-1.4295l-5.2202-2.5026-4.3162 9.0032c-0.69573 1.4512-1.0635 2.4532-1.1032 3.006-0.028 0.41978 0.12268 0.86455 0.45197 1.3343 0.45782 0.63535 1.0249 1.1151 1.7012 1.4394l1.0356 0.49646-0.37488 0.78197-12.3-5.8968 0.37488-0.78197 1.0144 0.48633c1.1835 0.56739 2.2085 0.63422 3.0748 0.20051 0.55429-0.28876 1.2435-1.2926 2.0675-3.0115l8.8756-18.514c0.6957-1.4512 1.0634-2.4532 1.1032-3.006 0.028-0.41976-0.11566-0.86116-0.43084-1.3242-0.44376-0.62857-1.0108-1.1084-1.7012-1.4394l-1.0144-0.48633 0.37488-0.78197 21.325 10.223-2.7446 6.4298-0.7397-0.35462c0.27532-1.5141 0.32025-2.7012 0.13477-3.5612-0.18554-0.86-0.56651-1.6015-1.1429-2.2244-0.57646-0.62288-1.6114-1.2923-3.1049-2.0083l-6.3192-3.0294zm54.268 34.915-4.5935 5.8798-0.67522-0.58076c0.72552-1.1071 1.1592-1.9707 1.3009-2.5908 0.22368-1.0029 0.17061-1.9296-0.15923-2.7801-0.32992-0.85048-0.99239-1.7037-1.9874-2.5595l-3.3939-2.9191-15.833 18.409c-1.2736 1.4807-1.9084 2.5423-1.9044 3.1846 0.0222 0.8847 0.50123 1.7295 1.4371 2.5344l0.83515 0.71831-0.56548 0.65746-10.217-8.7879 0.56548-0.65745 0.85292 0.7336c1.0188 0.87623 2.0063 1.1898 2.9626 0.94056 0.58664-0.15492 1.4607-0.90761 2.6223-2.258l15.833-18.409-2.8964-2.4912c-1.1254-0.96792-1.9963-1.5727-2.6128-1.8145-0.8096-0.30473-1.7086-0.32575-2.6971-0.06307-0.98852 0.26272-1.9929 0.90332-3.0132 1.9218l-0.67522-0.58076 5.1444-5.406 19.67 16.919zm10.325 14.429-9.8578 7.7872 4.3294 5.4807c1.1235 1.4223 2.0887 2.203 2.8956 2.3422 1.0676 0.19203 2.3416-0.23692 3.822-1.2869l0.53755 0.68048-8.6808 6.8574-0.53754-0.68049c1.0782-1.1305 1.7212-1.9172 1.9289-2.36 0.25477-0.5597 0.30622-1.1878 0.15436-1.8842-0.15191-0.69643-0.63949-1.5657-1.4627-2.6079l-4.3294-5.4806-8.221 6.4941c-1.1035 0.87169-1.736 1.451-1.8976 1.738-0.16161 0.28695-0.21606 0.60872-0.16334 0.96534 0.0527 0.35658 0.35025 0.8782 0.89265 1.5648l3.3415 4.23c1.1138 1.41 2.0206 2.3563 2.7205 2.8389 0.69981 0.48259 1.5703 0.79054 2.6115 0.92386 1.3607 0.15966 3.1221 0.0326 5.2843-0.38107l0.58113 0.73565-7.9529 2.7878-15.182-19.219 0.68048-0.53755 0.69736 0.88279c0.4649 0.58853 1.0466 1.035 1.7451 1.3395 0.5061 0.23737 1.011 0.2716 1.5148 0.10267 0.50372-0.16894 1.3625-0.73284 2.5764-1.6917l16.203-12.799c1.5816-1.2494 2.4305-2.1788 2.5465-2.7882 0.14174-0.8288-0.19418-1.7582-1.0077-2.7881l-0.69736-0.88279 0.68048-0.53755 15.182 19.219-5.2443 4.5908-0.5666-0.71725c1.1085-1.2938 1.7845-2.2908 2.028-2.9909 0.24342-0.70008 0.25175-1.4583 0.025-2.2748-0.20354-0.63572-0.79441-1.5728-1.7726-2.8111l-5.4045-6.8416zm13.152 43.521-6.1098 10.614c-1.6872 2.939-2.6617 4.9825-2.9234 6.1305-0.26176 1.1479-0.11689 2.3699 0.43461 3.6659l-0.77789 0.38328-6.0291-12.236 0.77788-0.3833c0.41456 0.806 0.79562 1.3672 1.1432 1.6838 0.27116 0.23216 0.58301 0.37897 0.93555 0.44044 0.35252 0.0614 0.66193 0.0265 0.92825-0.10465 0.32235-0.15886 0.61364-0.38078 0.87386-0.66574 0.18991-0.21554 0.61669-0.90485 1.2803-2.0679l4.9336-8.4405-10.595-2.2c-1.1237-0.23016-1.8533-0.34097-2.1888-0.33244-0.33547 9e-3 -0.65037 0.0853-0.9447 0.23034-0.44851 0.22098-0.7267 0.59322-0.83456 1.1167-0.10787 0.52345 0.0796 1.3281 0.56243 2.4141l-0.77788 0.38329-4.9828-10.112 0.77788-0.3833c0.4223 0.68028 0.87334 1.2245 1.3531 1.6326 0.79259 0.68942 1.6906 1.2746 2.6941 1.7557 1.0034 0.48101 2.3915 0.91186 4.1642 1.2925l11.809 2.5425 5.4544-9.6638c1.4757-2.6258 2.298-4.6422 2.467-6.0493 0.16889-1.4071-0.0675-2.8148-0.70913-4.223l0.77788-0.38329 6.4953 13.182-0.77788 0.38328c-0.59458-1.1005-1.1549-1.7781-1.681-2.0328-0.52613-0.25463-0.9854-0.28525-1.3778-0.0919-0.51861 0.25553-1.1097 0.96484-1.7733 2.1279l-4.3837 7.5947 8.9089 1.9072c1.0469 0.21572 1.7433 0.32109 2.0893 0.31613 0.34589-5e-3 0.66602-0.08 0.96039-0.225 0.2943-0.14504 0.51216-0.3569 0.65357-0.63558 0.19071-0.35527 0.26622-0.72344 0.22655-1.1045-0.0397-0.38108-0.30121-1.0796-0.7844-2.0957l0.77788-0.38329 4.9828 10.112-0.77788 0.3833c-0.43574-0.77821-0.88303-1.3678-1.3418-1.7688-0.69534-0.59803-1.4717-1.0777-2.329-1.4391-0.85744-0.36139-2.3051-0.75414-4.3431-1.1783l-10.019-2.0918zm6.253 40.462-2.7707-11.989-5.3724-0.97148c-1.3223-0.23967-2.2803-0.29088-2.874-0.15365-0.47193 0.10906-0.83488 0.42948-1.0888 0.96126-0.25397 0.53179-0.26183 1.556-0.0236 3.0725l-0.84492 0.19527-2.2535-9.7508 0.84492-0.19527c0.52742 1.2412 1.0178 2.0099 1.4711 2.3061 0.91017 0.60754 2.5933 1.1246 5.0493 1.5513l28.002 5.0028 0.18472 0.79924-23.268 16.731c-1.8699 1.3462-3.0313 2.4446-3.4843 3.295-0.45296 0.85037-0.57149 1.9161-0.35557 3.1973l-0.84492 0.19527-2.8235-12.217 0.84492-0.19527c0.34587 1.219 0.74402 2.005 1.1944 2.358 0.45041 0.35293 0.92681 0.47135 1.4292 0.35527 0.66984-0.15484 1.6575-0.70384 2.963-1.647l4.0202-2.9016zm1.5421-1.0299 11.3-8.1443-13.759-2.4971 2.4593 10.641zm23.576 37.214-10.989 0.26039-0.0206-0.86695c2.1021-0.33116 3.7694-0.87472 5.0018-1.6306 1.2324-0.75599 2.1998-1.8144 2.9022-3.1751 0.70231-1.3608 1.0364-2.7597 1.0024-4.1968-0.0385-1.6246-0.5663-2.9562-1.5834-3.9949-1.0171-1.0387-2.1583-1.5431-3.4235-1.5131-0.9685 0.0229-1.8431 0.37969-2.6238 1.0703-1.1486 0.99623-2.6561 3.3373-4.5224 7.0232-1.523 3.0056-2.6973 5.0614-3.5229 6.1672-0.82562 1.1058-1.8094 1.9653-2.9515 2.5785-1.1421 0.61314-2.3457 0.9347-3.611 0.9647-2.4056 0.057-4.5013-0.82722-6.2872-2.6526-1.7859-1.8254-2.7137-4.2064-2.7833-7.1431-0.0218-0.92162 0.0279-1.7902 0.14925-2.6058 0.0666-0.48612 0.32793-1.4965 0.78389-3.0311 0.45596-1.5347 0.67913-2.5051 0.66951-2.9112-9e-3 -0.39052-0.13372-0.69624-0.37339-0.91718-0.23968-0.22095-0.7279-0.3774-1.4647-0.46935l-0.0205-0.86695 10.895-0.25816 0.0205 0.86696c-2.271 0.46016-3.9646 1.0473-5.0808 1.7615-1.1162 0.71413-2.0325 1.7869-2.7488 3.2184-0.7163 1.4314-1.0545 2.9906-1.0145 4.6777 0.0463 1.9526 0.59829 3.4829 1.6561 4.591 1.0578 1.108 2.2896 1.6454 3.6955 1.6121 0.78102-0.0185 1.5648-0.252 2.3513-0.70041 0.78646-0.44847 1.5126-1.1338 2.1785-2.0561 0.45417-0.62032 1.4106-2.3075 2.8692-5.0616 1.4586-2.7541 2.6273-4.7159 3.5061-5.8855 0.87878-1.1696 1.8579-2.0641 2.9373-2.6836 1.0794-0.61949 2.2751-0.94478 3.5873-0.97588 2.2806-0.054 4.2656 0.77418 5.9551 2.4846 1.6894 1.7105 2.5661 3.9169 2.6302 6.6192 0.0399 1.687-0.33162 3.4854-1.1147 5.3951-0.36982 0.88399-0.55046 1.5056-0.54191 1.8649 0.01 0.40611 0.13851 0.73518 0.38677 0.9872 0.2482 0.25199 0.74124 0.4474 1.4792 0.58623l0.0205 0.86693z" fill="#fff"/><path transform="translate(73.361 73.009)" d="m136.16-2.9375c-76.592 0-139.09 62.502-139.09 139.09 0 76.592 62.502 139.09 139.09 139.09 76.592 0 139.09-62.502 139.09-139.09 0-76.592-62.502-139.09-139.09-139.09z" fill="#8accf1" stroke="#000" stroke-width="1.2"/><g transform="translate(75.493 74.351)"><path d="m195.16 252.99c5.1992 0.96932 9.1316-2.6634 9.1316-2.6634l-3.9317-8.7511s-2.211 3.8891-5.3268 2.5366c-3.6206-1.5716-2.9766-7.069-4.7802-9.1359-2.2964-2.6316-6.1426-3.9494-9.6308-4.1275-5.4841-0.27995-20.239 9.403-25.354 11.4-6.1426 2.3977-8.8446-0.78619-8.8446-0.78619l1.3758 10.614s5.5352-0.15509 8.4515-0.98273c7.4707-2.1202 15.821-7.707 22.013-11.007 1.321-0.70395 3.415 0.45247 4.1275 1.7689 4.0997 7.5756 5.7523 9.8266 12.769 11.135z" fill="#fff" stroke="#000"/><path d="m136.8 239.47c5.1129 2.2008 7.5695 5.5361 8.6243 11.795 1.4109 1.4361 6.6108 2.2154 9.4253-0.0311-1.6199-7.8924-8.5086-15.884-18.303-16.837z" color="#000000" fill="#fff" stroke="#000"/><path transform="scale(.8)" d="m137.24 302.35c2.9559 4.111 8.1625 11.254 12.026 10.747l6.9941-9.7235c-6.075-0.7617-8.4598-5.9858-11.344-10.576l-5.1176 0.51176z" fill="#fff" stroke="#000" stroke-width="1.25"/><path transform="scale(.8)" d="m169 299.33c-6.3912 2.751-9.4618 6.9201-10.78 14.744-1.9604 1.7951-8.4559 1.2951-11.536-1.513 2.0249-9.8655 10.39-18.381 22.633-19.572z" color="#000000" fill="#fff" stroke="#000" stroke-width="1.25"/><g><path d="m42.932 205.73c8.3368-1.099 15.503-1.4542 21.971-1.1477l0.96002-2.8317c-6.5532-0.66696-14.067-0.0766-23.073 2.2158z" color="#000000" style="block-progression:tb;text-indent:0;text-transform:none"/><path d="m67.927 37.195c-1.5241 8.2697-3.395 15.197-5.6801 21.255l2.398 1.7861c2.6543-6.0286 4.4085-13.359 5.0035-22.632z" color="#000000" style="block-progression:tb;text-indent:0;text-transform:none"/><path d="m23.599 167.55c7.8811 2.9324 14.38 5.974 19.951 9.2733l2.1742-2.0526c-5.4782-3.6577-12.394-6.6542-21.425-8.8453z" color="#000000" style="block-progression:tb;text-indent:0;text-transform:none"/><path d="m46.746 115.25c-5.03 6.7387-8.8394 12.819-11.73 18.613l-2.9399-0.54496c2.6179-6.0445 6.8022-12.313 13.2-19.053z" color="#000000" style="block-progression:tb;text-indent:0;text-transform:none"/><g transform="matrix(-.062226 -.99806 .99806 -.062226 72.058 310.03)"><path transform="scale(.8)" d="m154.88 36.783c-13.622-6.1974-25.352-6.9608-34.836-3.8099-11.114 3.6924-19.288 12.901-23.67 24.899 14.015 2.942 25.364 2.9098 34.458 0.12478 10.467-3.2057 18.131-10.246 24.048-21.214z" fill="#2b6f26" stroke="#000" stroke-width="1.25"/><path d="m117.85 30.828c-12.352-1.0563-24.747 1.6742-39.967 14.163-2.9424 2.4143-3.6242 10.752-4.0351 12.282 1.4211 2.2183 1.7266-8.708 4.911-10.744 15.157-9.6927 26.906-14.03 39.091-15.7z" color="#000000" style="block-progression:tb;text-indent:0;text-transform:none"/></g><g transform="matrix(-.95097 .30929 .30929 .95097 141.7 151.03)"><path transform="scale(.8)" d="m154.88 36.783c-13.622-6.1974-25.352-6.9608-34.836-3.8099-11.114 3.6924-19.288 12.901-23.67 24.899 14.015 2.942 25.364 2.9098 34.458 0.12478 10.467-3.2057 18.131-10.246 24.048-21.214z" fill="#2b6f26" stroke="#000" stroke-width="1.25"/><path d="m117.85 30.828c-12.352-1.0563-24.747 1.6742-39.967 14.163-2.9424 2.4143-8.7534 6.8511-9.1642 8.3802 1.4211 2.2183 6.8558-4.8066 10.04-6.8429 15.157-9.6927 26.906-14.03 39.091-15.7z" color="#000000" style="block-progression:tb;text-indent:0;text-transform:none"/></g><g transform="matrix(.98356 -.18059 .18059 .98356 -36.106 51.267)"><path transform="scale(.8)" d="m154.88 36.783c-13.622-6.1974-25.352-6.9608-34.836-3.8099-11.114 3.6924-19.288 12.901-23.67 24.899 14.015 2.942 25.364 2.9098 34.458 0.12478 10.467-3.2057 18.131-10.246 24.048-21.214z" fill="#2b6f26" stroke="#000" stroke-width="1.25"/><path d="m117.85 30.828c-12.352-1.0563-24.747 1.6742-39.967 14.163-2.9424 2.4143-8.7534 6.8511-9.1642 8.3802 1.4211 2.2183 6.8558-4.8066 10.04-6.8429 15.157-9.6927 26.906-14.03 39.091-15.7z" color="#000000" style="block-progression:tb;text-indent:0;text-transform:none"/></g><g transform="matrix(.1365 -.99064 .99064 .1365 -23.687 190.11)"><path transform="scale(.8)" d="m154.88 36.783c-13.622-6.1974-25.352-6.9608-34.836-3.8099-11.114 3.6924-19.288 12.901-23.67 24.899 14.015 2.942 25.364 2.9098 34.458 0.12478 10.467-3.2057 18.131-10.246 24.048-21.214z" fill="#2b6f26" stroke="#000" stroke-width="1.25"/><path d="m117.85 30.828c-12.352-1.0563-24.747 1.6742-39.967 14.163-2.9424 2.4143-7.9663 1.321-8.3771 2.8501 1.4211 2.2183 6.0687 0.72348 9.2531-1.3128 15.157-9.6927 26.906-14.03 39.091-15.7z" color="#000000" style="block-progression:tb;text-indent:0;text-transform:none"/></g><g transform="matrix(-.39385 -.91918 -.91918 .39385 111.59 153.33)"><path transform="scale(.8)" d="m154.88 36.783c-13.622-6.1974-25.352-6.9608-34.836-3.8099-11.114 3.6924-19.288 12.901-23.67 24.899 14.015 2.942 25.364 2.9098 34.458 0.12478 10.467-3.2057 18.131-10.246 24.048-21.214z" fill="#2b6f26" stroke="#000" stroke-width="1.25"/><path d="m117.85 30.828c-12.352-1.0563-24.747 1.6742-39.967 14.163-2.9424 2.4143-8.7534 6.8511-9.1642 8.3802 1.4211 2.2183 6.8558-4.8066 10.04-6.8429 15.157-9.6927 26.906-14.03 39.091-15.7z" color="#000000" style="block-progression:tb;text-indent:0;text-transform:none"/></g><g transform="matrix(.93757 -.3478 .3478 .93757 -17.612 29.802)"><path transform="scale(.8)" d="m154.88 36.783c-13.622-6.1974-25.352-6.9608-34.836-3.8099-11.114 3.6924-19.288 12.901-23.67 24.899 14.015 2.942 25.364 2.9098 34.458 0.12478 10.467-3.2057 18.131-10.246 24.048-21.214z" fill="#2b6f26" stroke="#000" stroke-width="1.25"/><path d="m117.85 30.828c-12.352-1.0563-24.747 1.6742-39.967 14.163-2.9424 2.4143-9.1492 6.4279-9.56 7.957 1.4211 2.2183 7.2516-4.3834 10.436-6.4197 15.157-9.6927 26.906-14.03 39.091-15.7z" color="#000000" style="block-progression:tb;text-indent:0;text-transform:none"/></g><g transform="matrix(.95245 .3047 -.3047 .95245 15.875 -15.79)"><path transform="scale(.8)" d="m154.88 36.783c-13.622-6.1974-25.352-6.9608-34.836-3.8099-11.114 3.6924-19.288 12.901-23.67 24.899 14.015 2.942 25.364 2.9098 34.458 0.12478 10.467-3.2057 18.131-10.246 24.048-21.214z" fill="#2b6f26" stroke="#000" stroke-width="1.25"/><path d="m117.85 30.828c-12.352-1.0563-24.747 1.6742-39.967 14.163-2.9424 2.4143-8.7534 6.8511-9.1642 8.3802 1.4211 2.2183 6.8558-4.8066 10.04-6.8429 15.157-9.6927 26.906-14.03 39.091-15.7z" color="#000000" style="block-progression:tb;text-indent:0;text-transform:none"/></g><g transform="translate(0 -.35823)"><path transform="scale(.8)" d="m154.88 36.783c-13.622-6.1974-25.352-6.9608-34.836-3.8099-11.114 3.6924-19.288 12.901-23.67 24.899 14.015 2.942 25.364 2.9098 34.458 0.12478 10.467-3.2057 18.131-10.246 24.048-21.214z" fill="#2b6f26" stroke="#000" stroke-width="1.25"/><path d="m117.85 30.828c-12.352-1.0563-24.747 1.6742-39.967 14.163-2.9424 2.4143-10.697 8.2764-11.108 9.8055 1.4211 2.2183 8.7993-6.2319 11.984-8.2682 15.157-9.6927 26.906-14.03 39.091-15.7z" color="#000000" style="block-progression:tb;text-indent:0;text-transform:none"/></g><path d="m66.688 51.788c-21.438 19.105-34.906 46.949-34.906 77.969 0 57.701 46.674 104.38 104.38 104.38v-3.1875c-55.976 0-101.19-45.211-101.19-101.19 0-30.093 13.092-57.073 33.875-75.594l-2.1562-2.375z" color="#000000" style="block-progression:tb;text-indent:0;text-transform:none"/><g transform="matrix(-.13491 -.99086 -.99086 .13491 104.16 151.01)"><path transform="scale(.8)" d="m154.88 36.783c-13.622-6.1974-25.352-6.9608-34.836-3.8099-11.114 3.6924-19.288 12.901-23.67 24.899 14.015 2.942 25.364 2.9098 34.458 0.12478 10.467-3.2057 18.131-10.246 24.048-21.214z" fill="#2b6f26" stroke="#000" stroke-width="1.25"/><path d="m117.85 30.828c-12.352-1.0563-24.747 1.6742-39.967 14.163-2.9424 2.4143-8.7534 6.8511-9.1642 8.3802 1.4211 2.2183 6.8558-4.8066 10.04-6.8429 15.157-9.6927 26.906-14.03 39.091-15.7z" color="#000000" style="block-progression:tb;text-indent:0;text-transform:none"/></g><g transform="matrix(.93553 -.35324 .35324 .93553 -50.871 95.548)"><path transform="scale(.8)" d="m154.88 36.783c-13.622-6.1974-25.352-6.9608-34.836-3.8099-11.114 3.6924-19.288 12.901-23.67 24.899 14.015 2.942 25.364 2.9098 34.458 0.12478 10.467-3.2057 18.131-10.246 24.048-21.214z" fill="#2b6f26" stroke="#000" stroke-width="1.25"/><path d="m117.85 30.828c-12.352-1.0563-24.747 1.6742-39.967 14.163-2.9424 2.4143-8.7534 6.8511-9.1642 8.3802 1.4211 2.2183 6.8558-4.8066 10.04-6.8429 15.157-9.6927 26.906-14.03 39.091-15.7z" color="#000000" style="block-progression:tb;text-indent:0;text-transform:none"/></g><g transform="matrix(.58257 -.81278 .81278 .58257 -38.046 201.73)"><path transform="scale(.8)" d="m154.88 36.783c-13.622-6.1974-25.352-6.9608-34.836-3.8099-11.114 3.6924-19.288 12.901-23.67 24.899 14.015 2.942 25.364 2.9098 34.458 0.12478 10.467-3.2057 18.131-10.246 24.048-21.214z" fill="#2b6f26" stroke="#000" stroke-width="1.25"/><path d="m117.85 30.828c-12.352-1.0563-24.747 1.6742-39.967 14.163-2.9424 2.4143-8.7534 6.8511-9.1642 8.3802 1.4211 2.2183 6.8558-4.8066 10.04-6.8429 15.157-9.6927 26.906-14.03 39.091-15.7z" color="#000000" style="block-progression:tb;text-indent:0;text-transform:none"/></g><g transform="matrix(-.78363 -.62123 -.62123 .78363 124.45 160.58)"><path transform="scale(.8)" d="m154.88 36.783c-13.622-6.1974-25.352-6.9608-34.836-3.8099-11.114 3.6924-19.288 12.901-23.67 24.899 14.015 2.942 25.364 2.9098 34.458 0.12478 10.467-3.2057 18.131-10.246 24.048-21.214z" fill="#2b6f26" stroke="#000" stroke-width="1.25"/><path d="m117.85 30.828c-12.352-1.0563-24.747 1.6742-39.967 14.163-2.9424 2.4143-8.7534 6.8511-9.1642 8.3802 1.4211 2.2183 6.8558-4.8066 10.04-6.8429 15.157-9.6927 26.906-14.03 39.091-15.7z" color="#000000" style="block-progression:tb;text-indent:0;text-transform:none"/></g><g transform="matrix(-.91153 -.41124 -.41124 .91153 127.5 153.32)"><path transform="scale(.8)" d="m154.88 36.783c-13.622-6.1974-25.352-6.9608-34.836-3.8099-11.114 3.6924-19.288 12.901-23.67 24.899 14.015 2.942 25.364 2.9098 34.458 0.12478 10.467-3.2057 18.131-10.246 24.048-21.214z" fill="#2b6f26" stroke="#000" stroke-width="1.25"/><path d="m117.85 30.828c-12.352-1.0563-24.747 1.6742-39.967 14.163-2.9424 2.4143-8.7534 6.8511-9.1642 8.3802 1.4211 2.2183 6.8558-4.8066 10.04-6.8429 15.157-9.6927 26.906-14.03 39.091-15.7z" color="#000000" style="block-progression:tb;text-indent:0;text-transform:none"/></g><g transform="matrix(-.9986 -.052934 -.052934 .9986 136.72 154.93)"><path transform="scale(.8)" d="m154.88 36.783c-13.622-6.1974-25.352-6.9608-34.836-3.8099-11.114 3.6924-19.288 12.901-23.67 24.899 14.015 2.942 25.364 2.9098 34.458 0.12478 10.467-3.2057 18.131-10.246 24.048-21.214z" fill="#2b6f26" stroke="#000" stroke-width="1.25"/><path d="m117.85 30.828c-12.352-1.0563-24.747 1.6742-39.967 14.163-2.9424 2.4143-8.7534 6.8511-9.1642 8.3802 1.4211 2.2183 6.8558-4.8066 10.04-6.8429 15.157-9.6927 26.906-14.03 39.091-15.7z" color="#000000" style="block-progression:tb;text-indent:0;text-transform:none"/></g><g transform="matrix(.33831 -.94104 .94104 .33831 -6.8563 253.19)"><path transform="scale(.8)" d="m154.88 36.783c-13.622-6.1974-25.352-6.9608-34.836-3.8099-11.114 3.6924-19.288 12.901-23.67 24.899 14.015 2.942 25.364 2.9098 34.458 0.12478 10.467-3.2057 18.131-10.246 24.048-21.214z" fill="#2b6f26" stroke="#000" stroke-width="1.25"/><path d="m117.85 30.828c-12.352-1.0563-24.747 1.6742-39.967 14.163-2.9424 2.4143-8.7534 6.8511-9.1642 8.3802 1.4211 2.2183 6.8558-4.8066 10.04-6.8429 15.157-9.6927 26.906-14.03 39.091-15.7z" color="#000000" style="block-progression:tb;text-indent:0;text-transform:none"/></g><g transform="matrix(-.04095 -.99916 .99916 -.04095 47.253 296.17)"><path transform="scale(.8)" d="m154.88 36.783c-13.622-6.1974-25.352-6.9608-34.836-3.8099-11.114 3.6924-19.288 12.901-23.67 24.899 14.015 2.942 25.364 2.9098 34.458 0.12478 10.467-3.2057 18.131-10.246 24.048-21.214z" fill="#2b6f26" stroke="#000" stroke-width="1.25"/><path d="m117.85 30.828c-12.352-1.0563-24.747 1.6742-39.967 14.163-2.9424 2.4143-8.7534 6.8511-9.1642 8.3802 1.4211 2.2183 6.8558-4.8066 10.04-6.8429 15.157-9.6927 26.906-14.03 39.091-15.7z" color="#000000" style="block-progression:tb;text-indent:0;text-transform:none"/></g><g transform="matrix(.63497 .77254 -.77254 .63497 111.38 -17.385)"><g transform="matrix(1.331 0 0 1.331 62.728 -87.02)" fill="#9e892d" stroke="#000" stroke-width=".75131"><path d="m4.3902 161.44c0 4.191-2.5116 7.5885-5.6097 7.5885s-5.6097-3.3975-5.6097-7.5885 2.5116-9.3201 5.6097-9.3201 5.6097 5.129 5.6097 9.3201z"/><path d="m-6.8292 162.01c3.7398 1.4634 7.4796 1.4634 11.219 0l1.0327 1.1114c-0.56256 3.13-3.9685 5.9007-6.6424 5.9007-2.7471 0-6.2393-2.6416-6.722-5.9007z"/><path d="m-1.2195 171.12c-3.6328 0-6.7345-3.1155-6.7345-7.6566 4.3852 1.716 8.9943 1.6712 13.38-0.0448 0 4.541-3.0122 7.7014-6.645 7.7014z"/></g><path transform="scale(.8)" d="m78.932 146.97c-2.6436 0.81215-6.3366 2.5369-9.0757 5.7016 0.90125-3.4068 5.0902-9.9454 9.0757-5.7016z" fill="#fff"/></g><g transform="matrix(-.42956 .90304 .90304 .42956 -70.9 53.568)"><g transform="matrix(1.331 0 0 1.331 62.728 -87.02)" fill="#9e892d" stroke="#000" stroke-width=".75131"><path d="m4.3902 161.44c0 4.191-2.5116 7.5885-5.6097 7.5885s-5.6097-3.3975-5.6097-7.5885 2.5116-9.3201 5.6097-9.3201 5.6097 5.129 5.6097 9.3201z"/><path d="m-6.8292 162.01c3.7398 1.4634 7.4796 1.4634 11.219 0l1.0327 1.1114c-0.56256 3.13-3.9685 5.9007-6.6424 5.9007-2.7471 0-6.2393-2.6416-6.722-5.9007z"/><path d="m-1.2195 171.12c-3.6328 0-6.7345-3.1155-6.7345-7.6566 4.3852 1.716 8.9943 1.6712 13.38-0.0448 0 4.541-3.0122 7.7014-6.645 7.7014z"/></g><path transform="scale(.8)" d="m78.932 146.97c-2.6436 0.81215-6.3366 2.5369-9.0757 5.7016 0.90125-3.4068 5.0902-9.9454 9.0757-5.7016z" fill="#fff"/></g><g transform="matrix(.98177 .19006 -.19006 .98177 33.919 -103.79)"><g transform="matrix(1.331 0 0 1.331 62.728 -87.02)" fill="#9e892d" stroke="#000" stroke-width=".75131"><path d="m4.3902 161.44c0 4.191-2.5116 7.5885-5.6097 7.5885s-5.6097-3.3975-5.6097-7.5885 2.5116-9.3201 5.6097-9.3201 5.6097 5.129 5.6097 9.3201z"/><path d="m-6.8292 162.01c3.7398 1.4634 7.4796 1.4634 11.219 0l1.0327 1.1114c-0.56256 3.13-3.9685 5.9007-6.6424 5.9007-2.7471 0-6.2393-2.6416-6.722-5.9007z"/><path d="m-1.2195 171.12c-3.6328 0-6.7345-3.1155-6.7345-7.6566 4.3852 1.716 8.9943 1.6712 13.38-0.0448 0 4.541-3.0122 7.7014-6.645 7.7014z"/></g><path transform="scale(.8)" d="m78.932 146.97c-2.6436 0.81215-6.3366 2.5369-9.0757 5.7016 0.90125-3.4068 5.0902-9.9454 9.0757-5.7016z" fill="#fff"/></g><g transform="matrix(-.14333 .98968 -.98968 -.14333 221.43 13.735)"><g transform="matrix(1.331 0 0 1.331 62.728 -87.02)" fill="#9e892d" stroke="#000" stroke-width=".75131"><path d="m4.3902 161.44c0 4.191-2.5116 7.5885-5.6097 7.5885s-5.6097-3.3975-5.6097-7.5885 2.5116-9.3201 5.6097-9.3201 5.6097 5.129 5.6097 9.3201z"/><path d="m-6.8292 162.01c3.7398 1.4634 7.4796 1.4634 11.219 0l1.0327 1.1114c-0.56256 3.13-3.9685 5.9007-6.6424 5.9007-2.7471 0-6.2393-2.6416-6.722-5.9007z"/><path d="m-1.2195 171.12c-3.6328 0-6.7345-3.1155-6.7345-7.6566 4.3852 1.716 8.9943 1.6712 13.38-0.0448 0 4.541-3.0122 7.7014-6.645 7.7014z"/></g><path transform="scale(.8)" d="m78.932 146.97c-2.6436 0.81215-6.3366 2.5369-9.0757 5.7016 0.90125-3.4068 5.0902-9.9454 9.0757-5.7016z" fill="#fff"/></g><g transform="matrix(.013627 .99991 .99991 -.013627 -92.823 144.29)"><g transform="matrix(1.331 0 0 1.331 62.728 -87.02)" fill="#9e892d" stroke="#000" stroke-width=".75131"><path d="m4.3902 161.44c0 4.191-2.5116 7.5885-5.6097 7.5885s-5.6097-3.3975-5.6097-7.5885 2.5116-9.3201 5.6097-9.3201 5.6097 5.129 5.6097 9.3201z"/><path d="m-6.8292 162.01c3.7398 1.4634 7.4796 1.4634 11.219 0l1.0327 1.1114c-0.56256 3.13-3.9685 5.9007-6.6424 5.9007-2.7471 0-6.2393-2.6416-6.722-5.9007z"/><path d="m-1.2195 171.12c-3.6328 0-6.7345-3.1155-6.7345-7.6566 4.3852 1.716 8.9943 1.6712 13.38-0.0448 0 4.541-3.0122 7.7014-6.645 7.7014z"/></g><path transform="scale(.8)" d="m78.932 146.97c-2.6436 0.81215-6.3366 2.5369-9.0757 5.7016 0.90125-3.4068 5.0902-9.9454 9.0757-5.7016z" fill="#fff"/></g><path d="m91.46 210.05c4.9507 6.7972 9.6333 12.234 14.314 16.708l-1.3897 2.6475c-5.0005-4.2877-9.7522-10.138-14.299-18.242z" color="#000000" style="block-progression:tb;text-indent:0;text-transform:none"/><g transform="matrix(.92571 -.37823 .37823 .92571 -14.012 110.52)"><g transform="matrix(1.331 0 0 1.331 62.728 -87.02)" fill="#9e892d" stroke="#000" stroke-width=".75131"><path d="m4.3902 161.44c0 4.191-2.5116 7.5885-5.6097 7.5885s-5.6097-3.3975-5.6097-7.5885 2.5116-9.3201 5.6097-9.3201 5.6097 5.129 5.6097 9.3201z"/><path d="m-6.8292 162.01c3.7398 1.4634 7.4796 1.4634 11.219 0l1.0327 1.1114c-0.56256 3.13-3.9685 5.9007-6.6424 5.9007-2.7471 0-6.2393-2.6416-6.722-5.9007z"/><path d="m-1.2195 171.12c-3.6328 0-6.7345-3.1155-6.7345-7.6566 4.3852 1.716 8.9943 1.6712 13.38-0.0448 0 4.541-3.0122 7.7014-6.645 7.7014z"/></g><path transform="scale(.8)" d="m78.932 146.97c-2.6436 0.81215-6.3366 2.5369-9.0757 5.7016 0.90125-3.4068 5.0902-9.9454 9.0757-5.7016z" fill="#fff"/></g><g transform="matrix(-.88808 .45968 .45968 .88808 160.57 153.42)"><path transform="scale(.8)" d="m154.88 36.783c-13.622-6.1974-25.352-6.9608-34.836-3.8099-11.114 3.6924-19.288 12.901-23.67 24.899 14.015 2.942 25.364 2.9098 34.458 0.12478 10.467-3.2057 18.131-10.246 24.048-21.214z" fill="#2b6f26" stroke="#000" stroke-width="1.25"/><path d="m117.85 30.828c-12.352-1.0563-24.747 1.6742-39.967 14.163-2.9424 2.4143-8.7534 6.8511-9.1642 8.3802 1.4211 2.2183 6.8558-4.8066 10.04-6.8429 15.157-9.6927 26.906-14.03 39.091-15.7z" color="#000000" style="block-progression:tb;text-indent:0;text-transform:none"/></g><path d="m175.14 226.67c-12.011 4.8147-25.13 7.4629-38.874 7.4629v-3.1875c12.664 0 24.776-2.314 35.939-6.5431z" color="#000000" style="block-progression:tb;text-indent:0;text-transform:none"/><g transform="matrix(-.83365 -.55229 -.55229 .83365 360.15 295.6)"><path transform="scale(.8)" d="m187.61 38.968c14.296 5.6808 18.73 15.541 28.418 20.117 9.8371 4.6467 20.261 5.9182 36.341 8.1413-13.783-27.733-36.886-38.68-64.76-28.259z" fill="#2b6f26" stroke="#000" stroke-width="1.25"/><path d="m153.84 31.831c12.352-1.0563 28.515 5.1281 43.735 17.617 2.9424 2.4143 7.046 5.8022 7.4568 7.3313-1.4211 2.2183-5.3609-3.4584-8.3327-5.794-16.727-13.147-30.674-17.484-42.859-19.154z" color="#000000" style="block-progression:tb;text-indent:0;text-transform:none"/></g><g transform="matrix(-.2427 .9701 -.9701 -.2427 259.14 45.187)"><path transform="scale(.8)" d="m187.61 38.968c14.296 5.6808 18.73 15.541 28.418 20.117 9.8371 4.6467 20.261 5.9182 36.341 8.1413-13.783-27.733-36.886-38.68-64.76-28.259z" fill="#2b6f26" stroke="#000" stroke-width="1.25"/><path d="m153.84 31.831c12.352-1.0563 28.515 5.1281 43.735 17.617 2.9424 2.4143 9.1957 8.1612 9.6065 9.6903-1.4211 2.2183-7.5106-5.8173-10.482-8.153-16.727-13.147-30.674-17.484-42.859-19.154z" color="#000000" style="block-progression:tb;text-indent:0;text-transform:none"/></g><g transform="matrix(-.99979 .020307 .020307 .99979 413.1 139.04)"><path transform="scale(.8)" d="m187.61 38.968c14.296 5.6808 18.73 15.541 28.418 20.117 9.8371 4.6467 20.261 5.9182 36.341 8.1413-13.783-27.733-36.886-38.68-64.76-28.259z" fill="#2b6f26" stroke="#000" stroke-width="1.25"/><path d="m153.84 31.831c12.352-1.0563 28.515 5.1281 43.735 17.617 2.9424 2.4143 10.697 8.2764 11.108 9.8055-1.4211 2.2183-9.0119-5.9326-11.984-8.2682-16.727-13.147-30.674-17.484-42.859-19.154z" color="#000000" style="block-progression:tb;text-indent:0;text-transform:none"/></g><g transform="matrix(.81644 .57743 -.57743 .81644 99.783 13.479)"><path transform="scale(.8)" d="m187.61 38.968c14.296 5.6808 18.73 15.541 28.418 20.117 9.8371 4.6467 20.261 5.9182 36.341 8.1413-13.783-27.733-36.886-38.68-64.76-28.259z" fill="#2b6f26" stroke="#000" stroke-width="1.25"/><path d="m153.84 31.831c12.352-1.0563 28.515 5.1281 43.735 17.617 2.9424 2.4143 10.697 8.2764 11.108 9.8055-1.4211 2.2183-9.0119-5.9326-11.984-8.2682-16.727-13.147-30.674-17.484-42.859-19.154z" color="#000000" style="block-progression:tb;text-indent:0;text-transform:none"/></g><g transform="matrix(-.8301 .55762 .55762 .8301 370.94 -18.19)"><path transform="scale(.8)" d="m187.61 38.968c14.296 5.6808 18.73 15.541 28.418 20.117 9.8371 4.6467 20.261 5.9182 36.341 8.1413-13.783-27.733-36.886-38.68-64.76-28.259z" fill="#2b6f26" stroke="#000" stroke-width="1.25"/><path d="m153.84 31.831c12.352-1.0563 28.515 5.1281 43.735 17.617 2.9424 2.4143 10.697 8.2764 11.108 9.8055-1.4211 2.2183-9.0119-5.9326-11.984-8.2682-16.727-13.147-30.674-17.484-42.859-19.154z" color="#000000" style="block-progression:tb;text-indent:0;text-transform:none"/></g><g transform="matrix(.89681 .44241 -.44241 .89681 81.647 6.6063)"><path transform="scale(.8)" d="m187.61 38.968c14.296 5.6808 18.73 15.541 28.418 20.117 9.8371 4.6467 20.261 5.9182 36.341 8.1413-13.783-27.733-36.886-38.68-64.76-28.259z" fill="#2b6f26" stroke="#000" stroke-width="1.25"/><path d="m153.84 31.831c12.352-1.0563 28.515 5.1281 43.735 17.617 2.9424 2.4143 10.697 8.2764 11.108 9.8055-1.4211 2.2183-9.0119-5.9326-11.984-8.2682-16.727-13.147-30.674-17.484-42.859-19.154z" color="#000000" style="block-progression:tb;text-indent:0;text-transform:none"/></g><g transform="matrix(-.81644 .57743 .57743 .81644 367.74 8.6783)"><path transform="scale(.8)" d="m187.61 38.968c14.296 5.6808 18.73 15.541 28.418 20.117 9.8371 4.6467 20.261 5.9182 36.341 8.1413-13.783-27.733-36.886-38.68-64.76-28.259z" fill="#2b6f26" stroke="#000" stroke-width="1.25"/><path d="m153.84 31.831c12.352-1.0563 28.515 5.1281 43.735 17.617 2.9424 2.4143 10.697 8.2764 11.108 9.8055-1.4211 2.2183-9.0119-5.9326-11.984-8.2682-16.727-13.147-30.674-17.484-42.859-19.154z" color="#000000" style="block-progression:tb;text-indent:0;text-transform:none"/></g><g transform="matrix(.6365 .77128 -.77128 .6365 141.62 -104.37)"><path transform="scale(.8)" d="m187.61 38.968c14.296 5.6808 18.73 15.541 28.418 20.117 9.8371 4.6467 20.261 5.9182 36.341 8.1413-13.783-27.733-36.886-38.68-64.76-28.259z" fill="#2b6f26" stroke="#000" stroke-width="1.25"/><path d="m153.84 31.831c12.352-1.0563 28.515 5.1281 43.735 17.617 2.9424 2.4143 10.697 8.2764 11.108 9.8055-1.4211 2.2183-9.0119-5.9326-11.984-8.2682-16.727-13.147-30.674-17.484-42.859-19.154z" color="#000000" style="block-progression:tb;text-indent:0;text-transform:none"/></g><g transform="matrix(.95293 .30318 -.30318 .95293 27.001 -58.797)"><path transform="scale(.8)" d="m187.61 38.968c14.296 5.6808 18.73 15.541 28.418 20.117 9.8371 4.6467 20.261 5.9182 36.341 8.1413-13.783-27.733-36.886-38.68-64.76-28.259z" fill="#2b6f26" stroke="#000" stroke-width="1.25"/><path d="m153.84 31.831c12.352-1.0563 28.515 5.1281 43.735 17.617 2.9424 2.4143 10.697 8.2764 11.108 9.8055-1.4211 2.2183-9.0119-5.9326-11.984-8.2682-16.727-13.147-30.674-17.484-42.859-19.154z" color="#000000" style="block-progression:tb;text-indent:0;text-transform:none"/></g><g transform="matrix(.98603 -.16659 .16659 .98603 1.5031 42.535)"><path transform="scale(.8)" d="m187.61 38.968c14.296 5.6808 18.73 15.541 28.418 20.117 9.8371 4.6467 20.261 5.9182 36.341 8.1413-13.783-27.733-36.886-38.68-64.76-28.259z" fill="#2b6f26" stroke="#000" stroke-width="1.25"/><path d="m153.84 31.831c12.352-1.0563 28.515 5.1281 43.735 17.617 2.9424 2.4143 10.697 8.2764 11.108 9.8055-1.4211 2.2183-9.0119-5.9326-11.984-8.2682-16.727-13.147-30.674-17.484-42.859-19.154z" color="#000000" style="block-progression:tb;text-indent:0;text-transform:none"/></g><g transform="matrix(.83523 .5499 -.5499 .83523 76.582 -90.546)"><path transform="scale(.8)" d="m187.61 38.968c14.296 5.6808 18.73 15.541 28.418 20.117 9.8371 4.6467 20.261 5.9182 36.341 8.1413-13.783-27.733-36.886-38.68-64.76-28.259z" fill="#2b6f26" stroke="#000" stroke-width="1.25"/><path d="m153.84 31.831c12.352-1.0563 28.515 5.1281 43.735 17.617 2.9424 2.4143 10.697 8.2764 11.108 9.8055-1.4211 2.2183-9.0119-5.9326-11.984-8.2682-16.727-13.147-30.674-17.484-42.859-19.154z" color="#000000" style="block-progression:tb;text-indent:0;text-transform:none"/></g><g><path transform="scale(.8)" d="m187.61 38.968c14.296 5.6808 18.73 15.541 28.418 20.117 9.8371 4.6467 20.261 5.9182 36.341 8.1413-13.783-27.733-36.886-38.68-64.76-28.259z" fill="#2b6f26" stroke="#000" stroke-width="1.25"/><path d="m153.84 31.831c12.352-1.0563 28.515 5.1281 43.735 17.617 2.9424 2.4143 10.697 8.2764 11.108 9.8055-1.4211 2.2183-9.0119-5.9326-11.984-8.2682-16.727-13.147-30.674-17.484-42.859-19.154z" color="#000000" style="block-progression:tb;text-indent:0;text-transform:none"/></g><g transform="matrix(.97861 .20572 -.20572 .97861 40.091 -11.619)"><path transform="scale(.8)" d="m187.61 38.968c14.296 5.6808 18.73 15.541 28.418 20.117 9.8371 4.6467 20.261 5.9182 36.341 8.1413-13.783-27.733-36.886-38.68-64.76-28.259z" fill="#2b6f26" stroke="#000" stroke-width="1.25"/><path d="m153.84 31.831c12.352-1.0563 28.515 5.1281 43.735 17.617 2.9424 2.4143 10.697 8.2764 11.108 9.8055-1.4211 2.2183-9.0119-5.9326-11.984-8.2682-16.727-13.147-30.674-17.484-42.859-19.154z" color="#000000" style="block-progression:tb;text-indent:0;text-transform:none"/></g><g transform="matrix(.14687 .98916 -.98916 .14687 246.35 -99.326)"><path transform="scale(.8)" d="m187.61 38.968c14.296 5.6808 18.73 15.541 28.418 20.117 9.8371 4.6467 20.261 5.9182 36.341 8.1413-13.783-27.733-36.886-38.68-64.76-28.259z" fill="#2b6f26" stroke="#000" stroke-width="1.25"/><path d="m196.7 50.985c-16.727-13.147-30.674-17.484-42.859-19.154 12.352-1.0563 28.515 5.1281 43.735 17.617z" color="#000000" style="block-progression:tb;text-indent:0;text-transform:none"/></g><g transform="matrix(-.39806 .91736 -.91736 -.39806 279.05 176.62)"><path transform="matrix(.92397 0 0 .78074 8.5673 2.591)" d="m-69.108 151.45c0 9.3388-4.6082 16.909-10.293 16.909-5.6845 0-10.293-7.5706-10.293-16.909s4.6082-16.909 10.293-16.909c5.6845 0 10.293 7.5706 10.293 16.909z" stroke="#000" stroke-width="1.1774"/><path transform="scale(.8)" d="m-82.374 137.08c-8.2441 2.4391-11.804 18.158-3.144 26.619-0.95037-8.0503-4.8134-14.901 3.144-26.619z" fill="#fff"/></g><g transform="matrix(.99997 -.0074586 .0074586 .99997 296.98 -44.56)"><path transform="matrix(.92397 0 0 .78074 8.5673 2.591)" d="m-69.108 151.45c0 9.3388-4.6082 16.909-10.293 16.909-5.6845 0-10.293-7.5706-10.293-16.909s4.6082-16.909 10.293-16.909c5.6845 0 10.293 7.5706 10.293 16.909z" stroke="#000" stroke-width="1.1774"/><path transform="scale(.8)" d="m-82.374 137.08c-8.2441 2.4391-11.804 18.158-3.144 26.619-0.95037-8.0503-4.8134-14.901 3.144-26.619z" fill="#fff"/></g><g transform="matrix(.9713 .23784 -.23784 .9713 55.36 8.637)"><path transform="scale(.8)" d="m187.61 38.968c14.296 5.6808 18.73 15.541 28.418 20.117 9.8371 4.6467 20.261 5.9182 36.341 8.1413-13.783-27.733-36.886-38.68-64.76-28.259z" fill="#2b6f26" stroke="#000" stroke-width="1.25"/><path d="m196.7 50.985c-16.727-13.147-30.674-17.484-42.859-19.154 12.352-1.0563 28.515 5.1281 43.735 17.617z" color="#000000" style="block-progression:tb;text-indent:0;text-transform:none"/></g><g transform="matrix(.87786 .47892 -.47892 .87786 87.569 -15.429)"><path transform="scale(.8)" d="m187.61 38.968c14.296 5.6808 18.73 15.541 28.418 20.117 9.8371 4.6467 20.261 5.9182 36.341 8.1413-13.783-27.733-36.886-38.68-64.76-28.259z" fill="#2b6f26" stroke="#000" stroke-width="1.25"/><path d="m153.84 31.831c12.352-1.0563 28.515 5.1281 43.735 17.617 2.9424 2.4143 10.697 8.2764 11.108 9.8055-1.4211 2.2183-9.0119-5.9326-11.984-8.2682-16.727-13.147-30.674-17.484-42.859-19.154z" color="#000000" style="block-progression:tb;text-indent:0;text-transform:none"/></g><g transform="matrix(-.52584 .85059 .85059 .52584 298.61 -75.203)"><path transform="scale(.8)" d="m187.61 38.968c14.296 5.6808 18.73 15.541 28.418 20.117 9.8371 4.6467 20.261 5.9182 36.341 8.1413-13.783-27.733-36.886-38.68-64.76-28.259z" fill="#2b6f26" stroke="#000" stroke-width="1.25"/><path d="m153.84 31.831c12.352-1.0563 28.515 5.1281 43.735 17.617 2.9424 2.4143 10.697 8.2764 11.108 9.8055-1.4211 2.2183-9.0119-5.9326-11.984-8.2682-16.727-13.147-30.674-17.484-42.859-19.154z" color="#000000" style="block-progression:tb;text-indent:0;text-transform:none"/></g><g transform="matrix(-.76538 .64357 -.64357 -.76538 250.08 261.52)"><path transform="matrix(.92397 0 0 .78074 8.5673 2.591)" d="m-69.108 151.45c0 9.3388-4.6082 16.909-10.293 16.909-5.6845 0-10.293-7.5706-10.293-16.909s4.6082-16.909 10.293-16.909c5.6845 0 10.293 7.5706 10.293 16.909z" stroke="#000" stroke-width="1.1774"/><path transform="scale(.8)" d="m-82.374 137.08c-8.2441 2.4391-11.804 18.158-3.144 26.619-0.95037-8.0503-4.8134-14.901 3.144-26.619z" fill="#fff"/></g><g transform="matrix(.36479 .93109 -.93109 .36479 208.22 -48.473)"><path transform="scale(.8)" d="m187.61 38.968c14.296 5.6808 18.73 15.541 28.418 20.117 9.8371 4.6467 20.261 5.9182 36.341 8.1413-13.783-27.733-36.886-38.68-64.76-28.259z" fill="#2b6f26" stroke="#000" stroke-width="1.25"/><path d="m153.84 31.831c12.352-1.0563 28.515 5.1281 43.735 17.617 2.9424 2.4143 10.697 8.2764 11.108 9.8055-1.4211 2.2183-9.0119-5.9326-11.984-8.2682-16.727-13.147-30.674-17.484-42.859-19.154z" color="#000000" style="block-progression:tb;text-indent:0;text-transform:none"/></g><g transform="matrix(-.3563 .93437 -.93437 -.3563 348.19 12.706)"><path transform="scale(.8)" d="m187.61 38.968c14.296 5.6808 18.73 15.541 28.418 20.117 9.8371 4.6467 20.261 5.9182 36.341 8.1413-13.783-27.733-36.886-38.68-64.76-28.259z" fill="#2b6f26" stroke="#000" stroke-width="1.25"/><path d="m153.84 31.831c12.352-1.0563 28.515 5.1281 43.735 17.617 2.9424 2.4143 10.697 8.2764 11.108 9.8055-1.4211 2.2183-9.0119-5.9326-11.984-8.2682-16.727-13.147-30.674-17.484-42.859-19.154z" color="#000000" style="block-progression:tb;text-indent:0;text-transform:none"/></g><g transform="matrix(.61021 .79224 -.79224 .61021 141.01 6.6633)"><path transform="scale(.8)" d="m187.61 38.968c14.296 5.6808 18.73 15.541 28.418 20.117 9.8371 4.6467 20.261 5.9182 36.341 8.1413-13.783-27.733-36.886-38.68-64.76-28.259z" fill="#2b6f26" stroke="#000" stroke-width="1.25"/><path d="m153.84 31.831c12.352-1.0563 28.515 5.1281 43.735 17.617 2.9424 2.4143 10.697 8.2764 11.108 9.8055-1.4211 2.2183-9.0119-5.9326-11.984-8.2682-16.727-13.147-30.674-17.484-42.859-19.154z" color="#000000" style="block-progression:tb;text-indent:0;text-transform:none"/></g><g transform="matrix(-.65719 .75372 .75372 .65719 318.82 10.125)"><path transform="scale(.8)" d="m187.61 38.968c14.296 5.6808 18.73 15.541 28.418 20.117 9.8371 4.6467 20.261 5.9182 36.341 8.1413-13.783-27.733-36.886-38.68-64.76-28.259z" fill="#2b6f26" stroke="#000" stroke-width="1.25"/><path d="m153.84 31.831c12.352-1.0563 28.515 5.1281 43.735 17.617 2.9424 2.4143 10.697 8.2764 11.108 9.8055-1.4211 2.2183-9.0119-5.9326-11.984-8.2682-16.727-13.147-30.674-17.484-42.859-19.154z" color="#000000" style="block-progression:tb;text-indent:0;text-transform:none"/></g><g transform="matrix(.073617 .99729 -.99729 .073617 227.37 11.002)"><path transform="scale(.8)" d="m187.61 38.968c14.296 5.6808 18.73 15.541 28.418 20.117 9.8371 4.6467 20.261 5.9182 36.341 8.1413-13.783-27.733-36.886-38.68-64.76-28.259z" fill="#2b6f26" stroke="#000" stroke-width="1.25"/><path d="m153.84 31.831c12.352-1.0563 28.515 5.1281 43.735 17.617 2.9424 2.4143 10.697 8.2764 11.108 9.8055-1.4211 2.2183-9.0119-5.9326-11.984-8.2682-16.727-13.147-30.674-17.484-42.859-19.154z" color="#000000" style="block-progression:tb;text-indent:0;text-transform:none"/></g><g transform="matrix(.87158 .49026 -.49026 .87158 327.74 113.78)"><path transform="matrix(.92397 0 0 .78074 8.5673 2.591)" d="m-69.108 151.45c0 9.3388-4.6082 16.909-10.293 16.909-5.6845 0-10.293-7.5706-10.293-16.909s4.6082-16.909 10.293-16.909c5.6845 0 10.293 7.5706 10.293 16.909z" stroke="#000" stroke-width="1.1774"/><path transform="scale(.8)" d="m-82.374 137.08c-8.2441 2.4391-11.804 18.158-3.144 26.619-0.95037-8.0503-4.8134-14.901 3.144-26.619z" fill="#fff"/></g><g transform="matrix(-.99263 -.12118 -.12118 .99263 408.32 176.98)"><path transform="scale(.8)" d="m187.61 38.968c14.296 5.6808 18.73 15.541 28.418 20.117 9.8371 4.6467 20.261 5.9182 36.341 8.1413-13.783-27.733-36.886-38.68-64.76-28.259z" fill="#2b6f26" stroke="#000" stroke-width="1.25"/><path d="m153.84 31.831c12.352-1.0563 28.515 5.1281 43.735 17.617 2.9424 2.4143 12.12 10.369 12.531 11.898-1.4211 2.2183-10.435-8.0251-13.407-10.361-16.727-13.147-30.674-17.484-42.859-19.154z" color="#000000" style="block-progression:tb;text-indent:0;text-transform:none"/></g><g transform="matrix(-.9393 -.34309 -.34309 .9393 398.76 233.3)"><path transform="scale(.8)" d="m187.61 38.968c14.296 5.6808 18.73 15.541 28.418 20.117 9.8371 4.6467 20.261 5.9182 36.341 8.1413-13.783-27.733-36.886-38.68-64.76-28.259z" fill="#2b6f26" stroke="#000" stroke-width="1.25"/><path d="m153.84 31.831c12.352-1.0563 28.515 5.1281 43.735 17.617 2.9424 2.4143 10.697 8.2764 11.108 9.8055-1.4211 2.2183-9.0119-5.9326-11.984-8.2682-16.727-13.147-30.674-17.484-42.859-19.154z" color="#000000" style="block-progression:tb;text-indent:0;text-transform:none"/></g><g transform="matrix(-.9321 -.3622 -.3622 .9321 368.94 249.85)"><path transform="scale(.8)" d="m187.61 38.968c14.296 5.6808 18.73 15.541 28.418 20.117 9.8371 4.6467 20.261 5.9182 36.341 8.1413-13.783-27.733-36.886-38.68-64.76-28.259z" fill="#2b6f26" stroke="#000" stroke-width="1.25"/><path d="m153.84 31.831c12.352-1.0563 28.515 5.1281 43.735 17.617 2.9424 2.4143 8.8849 8.3385 9.2957 9.8676-1.4211 2.2183-7.1998-5.9947-10.172-8.3303-16.727-13.147-30.674-17.484-42.859-19.154z" color="#000000" style="block-progression:tb;text-indent:0;text-transform:none"/></g></g><g transform="translate(-.46853)"><path d="m137.08 235.16c12.484 2.9082 25.175 5.8025 30.933 9.159 2.9882 1.3736 4.9378 1.1031 6.9125 1.0369-0.72407-2.2466 0.26923-3.2834-3.4562-6.2212-14.305-5.4916-23.295-5.6678-34.735-8.295z"/><path transform="scale(.8)" d="m170.22 293.95c-15.605 3.6352-31.469 7.2531-38.667 11.449-3.7353 1.7169-6.1723 1.3789-8.6406 1.2961 0.90509-2.8082-0.33654-4.1043 4.3203-7.7766 17.881-6.8645 29.118-7.0847 43.419-10.369z"/></g><g fill="#fff" stroke="#000"><g transform="matrix(1 0 0 .94993 0 11.686)" stroke-width="1.2825"><path transform="scale(.8)" d="m166.53 290.97c-12.269-0.80332-15.122-1.0008-18.387-3.2765-4.5574-3.1765-6.762-11.186-5.0341-16.374l8.138-5.5576 3.7712 5.5576c-10.014 5.4028-0.94644 14.814 11.711 16.871z"/><path transform="scale(.8)" d="m163.95 282.24c-0.79269-0.62226-1.3177-1.7791-1.1909-2.7788 1.0678-8.4198 0.66033-16.153-10.321-17.268-3.9898 0.40756-7.6278 6.43-9.1304 9.3289 0 0 5.3228-0.99051 7.344 0.39697 7.5515 5.1839 1.3936 11.907 9.3289 17.07 2.4926 1.6216 8.138 2.7788 8.138 2.7788l-0.79395-7.5425s-2.4246-1.2394-3.3743-1.9849z"/></g><g transform="matrix(1.0313 0 0 1.1183 -4.3386 -27.633)" stroke-width=".93116"><path d="m138.22 233.71c9.8151-0.64265 13.655-2.1051 16.267-3.9256 3.6459-2.5412 5.4096-8.576 4.0273-12.726l-6.5104-4.4461-3.017 4.4461c8.0111 4.3222 0.75715 11.851-9.3686 13.497z"/><path d="m141.98 225.79c1.7998-1.706 1.5619-5.4107 0.71886-8.2226 9.9301-4.218 7.3568 1.0991 6.3746 6.2711-0.35089 2.5542-0.50836 5.1324-3.9177 7.3503-1.9941 1.2973-6.5104 2.223-6.5104 2.223l0.63516-6.034s1.9397-0.99149 2.6994-1.5879z"/><path d="m142.7 217.57c-0.94246-1.8424 2.4156-7.6256 8.4909-7.8151 3.2083-0.10008 7.1812 4.5413 7.3043 7.4631 0 0-4.2583-0.7924-5.8752 0.31758-2.7968 1.9199-3.243 4.1038-3.5454 6.3055-2.7095-4.429-4.8574-6.6114-6.3746-6.2711z"/></g></g><path d="m139.75 241.3c0.22814-5.9679 0.33946-10.861 1.417-15.505-2.1015-2.7413-7.4214-2.7394-10.026 0 1.0775 4.6436 1.1889 9.5369 1.417 15.505 1.7307 1.0857 2.3518 1.6279 3.5959 1.6279 1.2441 0 1.8652-0.54219 3.5959-1.6279z" fill="#fff" stroke="#000"/><path transform="scale(.8)" d="m96.072 312.18 4.9146 10.939s2.4134-3.2529 6.6585-3.1707c5.6352 0.10914 13.763 6.4035 23.518 1.6328 11.678-5.7112 7.0127-23.017 11.677-27.157 0.67301-0.59742 3.6463-0.63413 3.6463-0.63413s-1.6348-1.6-2.6951-1.7439c-3.8423-0.52148-7.1348 0.30355-10.305 2.5366-6.8904 4.8537-0.62165 14.631-8.4024 17.914-7.5716 3.1957-12.52-3.1686-17.597-3.6463-6.5819-0.61915-11.415 3.3292-11.415 3.3292z" fill="#fff" stroke="#000" stroke-width="1.25"/></g><g transform="translate(73.343 74.418)" stroke="#000"><path d="m80.376 113.5h42.722l13.077-40.105s13.601 40.105 13.601 40.105h42.197l-34.003 25.284s13.118 41.308 13.118 41.308l-34.913-25.964-34.405 25.707 12.955-41.051-34.349-25.284z" fill="#fff"/><path d="m136.17 153.83v-79.844" fill="none"/><g transform="translate(-.1151)" fill="none"><path d="m102.3 179.12 34-47.78"/><path d="m170.28 179.12-34-47.78"/></g><g transform="translate(-.13653)" fill="none"><path d="m80.532 113.42 55.558 18.097"/><path d="m192.09 113.42-55.558 18.097"/></g><g transform="translate(-.12803)" fill="none"><path transform="scale(.8)" d="m143.14 173.55 27.174-9.0002 16.962-22.847" stroke-width="1px"/><path d="m158.1 138.84-21.739-7.2002-13.569-18.277" stroke-width=".8px"/></g></g></svg>
