<?xml version="1.0" encoding="UTF-8"?>
<svg version="1.1" viewBox="0 0 285.85 285.85" xmlns="http://www.w3.org/2000/svg" xmlns:cc="http://creativecommons.org/ns#" xmlns:dc="http://purl.org/dc/elements/1.1/" xmlns:rdf="http://www.w3.org/1999/02/22-rdf-syntax-ns#" xmlns:xlink="http://www.w3.org/1999/xlink"><metadata><rdf:RDF><cc:Work rdf:about=""><dc:format>image/svg+xml</dc:format><dc:type rdf:resource="http://purl.org/dc/dcmitype/StillImage"/><dc:title/></cc:Work></rdf:RDF></metadata><path transform="matrix(2.1165 0 0 2.1165 -252.92 -90.19)" d="m254.56 110.14a67.529 67.529 0 1 1-135.06 0 67.529 67.529 0 1 1 135.06 0z" color="#000000" fill="#3a3535" fill-opacity=".99716"/><path transform="matrix(2.0798 0 0 2.0798 -246.07 -86.154)" d="m254.56 110.14a67.529 67.529 0 1 1-135.06 0 67.529 67.529 0 1 1 135.06 0z" color="#000000" fill="#63350a"/><path transform="matrix(2.0576 0 0 2.0576 -241.91 -83.707)" d="m254.56 110.14a67.529 67.529 0 1 1-135.06 0 67.529 67.529 0 1 1 135.06 0z" color="#000000" fill="#f4e2bd"/><path d="m141.28 128.88c0.77774-10.926-0.65599-12.265-5.6142-14.267-4.8926-1.9753-12.186-5.7247-15.71-8.7455-4.8507-4.1586-4.9947-9.5026-5.222-15.29 0.31978 3.5966 1.0522 8.2533 1.9161 3.6891-0.25523 3.3018 0.79066 6.2327 0.95441 2.0046 0.46683 4.834 1.2798 4.9919 2.231 1.7225-0.11731 3.2537 1.7359 7.1278 2.438 2.0665-0.0587 4.6848 1.7179 4.8132 1.8548 1.4094 0.49058 4.035 1.035 5.022 1.7825 0.70904 0.29531 4.8675 2.5131 4.6223 2.9685 1.3347 0.17197 3.3756 2.0346 5.9847 2.956 1.4589-0.48389 4.5882 1.7127 4.1791 1.9742 1.7057 1.062 3.2466 1.9333 4.5731 2.4984 0.63919 0.27223 5.6195 2.6943 3.1231 2.5615 1.4038 0.2138 3.6488 2.3945 4.0041 2.3798 1.336-0.0119-2.1189-4.1494-6.0751-13.024-9.174-5.7222-1.9981-10.884-7.3604-11.63-12.289-0.45694-2.6134-0.78127-8.4342-0.74239-8.653 0.18312 3.08 1.3042 8.7489 2.0975 5.5527-0.41029 1.4036 1.3606 4.9774 1.931 2.4593-0.0174 2.4039 1.8942 4.8603 2.2761 2.1586 0.19663 3.6701 2.2413 5.2035 2.6193 1.3693-0.15028 2.0746 1.4273 6.5773 2.7901 1.5629 0.43982 4.68 1.2719 4.9486 2.1922 0.99394-0.68609 4.168 1.3883 4.7303 1.7083 1.302-0.34416 3.0205 1.5592 4.4685 2.4041 1.2168-0.27298 3.0508 1.854 4.8304 2.6879 1.7669-0.24679 3.1628 1.4 4.7224 2.1076 1.2204 0.37776 3.4165 3.0066 4.8271 2.8476 1.8546-0.11684-2.1839-3.4263-3.9988-6.314-5.2016-3.9571-1.6482-13.806-9.4243-15.264-11.457-2.4648-3.4349-2.5461-12.932-2.6481-13.052 0.75419 4.6924 2.7117 6.2539 2.8916 4.1647-0.35316 2.8473 1.0037 4.5026 1.3102 1.5063-0.39359 4.4489 0.51651 5.5122 1.149 1.5785-0.31306 4.7392 1.4687 7.3757 1.9652 2.0269 0.23476 5.1302 2.0185 7.1368 2.2494 1.9057 0.2397 3.7249 1.5488 7.4217 2.4944 2.1251 0.28947 3.641 1.4622 5.767 2.3783 1.3253-0.15039 3.515 1.6334 5.3179 1.7976 1.9404 0.45173 3.5499 2.3745 3.848 2.5643 1.2372-0.0753 2.0055 1.3792 4.8167 1.8414 1.3889 0.43446 2.4988 1.4268 3.9893 1.7239 1.2077 0.2758 2.2317 1.5985 3.6696 1.643 2.3851 0.106-3.0597-6.2593-7.2793-10.13-9.5219-3.8704-2.2426-7.6019-8.6531-7.8988-12.792-0.18842-2.6271-0.0816-8.2981-0.0816-8.2981 0.11899 2.8489 1.0754 8.6019 1.6876 5.477-0.35301 1.4796 0.60406 4.8493 0.99362 2.5624 0.0641 2.3267 1.1926 4.3146 1.4634 1.8414 0.0566 3.5964 1.5281 5.3023 1.819 1.6756-0.11767 2.3014 1.1124 6.3474 1.9719 1.4848 0.32918 4.4678 0.79647 4.8087 1.3644 1.027-0.44052 3.946 1.0091 4.6342 1.2802 1.0371-0.1553 2.9544 1.1196 4.7809 1.6204 1.4141-0.24704 2.9059 1.174 4.5127 1.6692 1.5734-0.10838 3.0033 1.0679 5.2492 1.5173 1.5307 0.27957 3.637 1.9051 5.4971 2.0489 1.8377 0.0818-2.0838-1.4315-3.9049-3.4191-5.2246-2.724-1.8085-9.6748-8.45-10.245-10.994-0.73327-3.2713-0.24292-9.2135 0.7306-12.298-0.24169 2.7585 0.50395 12.206 1.2076 6.9448-0.27131 4.5555 0.92942 7.3467 1.362 2.0256 0.10326 5.2862 1.4405 7.0792 1.6763 1.7362 0.20823 3.929 1.0408 7.1341 1.6239 1.8809 0.28725 3.6599 1.0068 5.9206 1.6763 1.7-0.0601 3.321 1.1234 5.0213 1.3096 1.5192 0.23696 3.4896 1.8073 1.7 1.8073 1.7s0.78405 4.0599 1.1779 1.4193c0.21531 1.8245 1.526 3.3288 1.5166 2.2189-0.0128-1.4787-2.3643-4.6672-3.7949-6.1621-2.144-2.2403-5.4026-9.1121-5.934-11.655-0.68387-3.2729 0.66679-10.95 2.6908-13.528-0.22531 2.7585-2.9544 13.4-0.698 7.849-0.25291 4.5555 0.38252 7.3106 0.78577 1.9894 0.0962 5.2862 1.3428 7.0792 1.5626 1.7362 0.1941 3.929 0.97015 7.1341 1.5138 1.8809 0.26776 3.6599 0.39038 7.6035 1.0144 3.3829-0.0561 3.321 0.9728 6.0341 1.1464 2.5319 0.2209 3.4896 1.1031 4.2574 1.2646 1.4638 0.0543-0.94029-0.0236-1.9718-0.64361-2.8411-1.7935-2.5145-3.9708-10.317-3.6198-12.889 0.45182-3.3107 4.3048-10.14 7.0834-11.935-1.1387 2.5363-5.6781 8.2682-3.5158 6.8664-1.7678 4.2263-1.8697 7.3643 0.29715 2.4619-1.683 5.0277-1.1063 7.1178 0.89454 2.1365-1.135 3.7757-1.4769 7.0515 0.79982 2.2578-0.97508 3.5447-1.3399 6.3495 0.66637 2.5574-1.1675 3.1217-1.1053 6.0125 0.23401 2.7568-0.91702 3.2106-0.14632 4.4928 0.87012 2.4652 0.0501-0.1-0.31719 2.7482 0.0392 2.7386 1.6896-0.04572 2.6101-5.5995 2.5763-8.9278-0.0424-4.1742-2.8487-7.227-2.8658-9.2778 0.38814 0.76821 0.86832 1.7377 1.7865 1.7181 0.68962-0.0147 0.91806-1.26 1.191-1.8628 0 0 0.29775 2.0256 0.14887 2.6766-0.14887 0.65107-0.96768 2.1702 0.14888 2.0979 1.1166-0.07234 1.954-3.7256 1.954-3.7256 0.8555 3.1815-2.4168 6.0148-0.83743 6.6192 1.1341 0.43405 2.5076-3.0745 2.5123-3.0745 0.32732 2.373-2.4345 5.5358-1.8423 5.9682 0.72644 0.53042 1.5818-1.049 1.5818-1.049 0.10814 1.7393-2.6468 5.2485-1.9912 5.4256 0.68037 0.18382 1.3226-0.52884 1.6423-0.85906 0.17219 1.0083-2.9066 3.018-2.6472 3.2825 0.29049 0.29624 1.6376-0.36171 1.6376-0.36171-0.8046 0.96069-2.5089 2.4482-2.4619 3.7895 0.0983 2.8015 1.4756 1.9065 1.6965-1.5831 0.17355 3.5022 1.2024 0.7891 1.1464-2.5319 0.62406 4.2206 1.2204 1.4535 1.4882-2.2064 0.54362 5.2532 1.3197 2.0482 1.5138-1.8809 0.21984 5.343 1.4664 3.5501 1.5626-1.7362 0.40325 5.3212 1.0387 2.5661 0.78577-1.9894 2.2564 5.5505-0.47269-5.0905-0.69799-7.849 2.024 2.5782 3.3747 10.255 2.6908 13.528-0.53133 2.5429-4.4526 9.3872-6.9918 11.196-0.68381 0.48704-1.1592 1.0318-1.485 1.6159-0.0924 0.16575-0.35305 1.0943-0.36989 1.6186-0.10552 3.2869 1.2625 1.2358 1.2485-0.97473 0.21319 2.6832 1.5703 1.7896 1.8073-1.7 0.18618 3.5022 1.3698 1.8019 1.3096-1.5192 0.66947 4.2206 1.3891 1.9599 1.6763-1.7 0.58317 5.2532 1.4157 2.0482 1.6239-1.8809 0.23583 5.343 1.573 3.5501 1.6763-1.7362 0.43259 5.3212 1.6333 2.5299 1.362-2.0256 0.70369 5.2612 1.4493-4.1862 1.2076-6.9448 0.97353 3.0845 1.4056 9.0142 0.7306 12.298-0.62861 2.5319-6.9948 10.055-9.7188 11.864-2.0404 1.3547-3.6329 3.2496-3.5525 5.5545 0.084 2.4083 1.5311 0.57012 1.778-2.642 0.44945 3.7186 1.6257 1.4727 1.5173-1.5307 0.49519 2.9393 1.9162 1.3325 1.6692-1.5734 0.50078 3.3668 1.7757 1.5403 1.6204-1.4141 0.27116 3.5971 1.7207 2.9089 1.2802-1.0371 0.56797 3.7817 1.0353 3.4409 1.3644-1.027 0.85953 4.8625 2.0896 0.81659 1.9719-1.4848 0.29091 3.6267 1.7624 1.9208 1.819-1.6756 0.27082 2.4732 1.3994 0.4853 1.4634-1.8414 0.38956 2.2869 1.6624-0.98044 1.3094-2.4601 0.61224 3.125 1.2528-2.7304 1.3718-5.5793 0 0 0.49586 5.9282 0.28687 8.5538-0.29685 3.7297-5.2646 10.222-8.7409 12.945-3.8027 2.9793-8.454 7.0203-8.0645 8.7222 0.17515 0.76524 1.2863-0.80308 1.5518-2.8041 0.35769 2.5823 1.5826 1.2928 1.9354-1.3745 0.52526 3.2313 1.7693 1.1978 1.7493-1.0128 0.30293 2.6832 2.2314 1.7896 2.5681-1.7 0.26454 3.5022 1.9463 1.8019 1.8609-1.5192 0.95131 4.2206 1.9738 1.9599 2.382-1.7 0.82867 5.2532 2.0117 2.0482 2.3076-1.8809 0.3351 5.343 2.2352 3.5501 2.382-1.7362 0.61469 5.3212 2.3209 2.5299 1.9354-2.0256 0.51337 3.9367 1.3595 2.8182 1.0421-1.8085 0.42513 2.9765 1.8792 1.1911 1.4143-1.7362 0.28941 2.1803 1.1778 1.4146 1.2282-2.1702 0 0-0.0372 8.5363-0.93047 11.068-0.89325 2.532-11.314 9.8384-15.185 11.647-3.0428 1.7834-6.527 4.1104-6.6204 7.6283-0.046 1.7312 2.1704-0.14669 2.5176-3.1965 0.66558 3.7186 2.4075 1.4727 2.247-1.5307 0.7333 2.9393 2.8377 1.3325 2.4718-1.5734 0.74161 3.3668 2.6296 1.5403 2.3996-1.4141 0.40156 3.5971 2.5482 2.9089 1.8959-1.0371 0.84108 3.7817 1.5331 3.4409 2.0206-1.027 1.2729 4.8625 3.0944 0.81659 2.9202-1.4848 0.43082 3.6268 2.61 1.9208 2.6937-1.6756 0.40106 2.4732 2.0722 0.4853 2.1672-1.8414 0.57688 2.2869 2.4619-0.98044 1.9391-2.4601 0.90666 3.125 1.8552-2.7304 2.0314-5.5793 0 0-0.14887 5.6426-0.74437 8.2469s-5.7317 10.345-11.463 12.587c-5.7317 2.2426-12.981 7.9635-12.999 9.332-0.0368 2.7148 1.8937 2.8616 2.578-1.3021-0.0444 1.6416 2.2976 4.2097 2.4564-1.3745 0.66736 3.9934 1.5682 2.3146 2.5309-0.8681 0.2051 2.5753 2.6768 3.044 2.0842-1.5915 1.0406 4.5286 2.692 1.9562 2.7542-1.3745 0.41691 3.3972 2.6569 3.5021 3.0519-1.3021 0.68261 4.2159 1.1932 3.1532 1.7865-0.94044 0.18828 3.5082 2.1115 3.3301 1.9354-1.3745 0.68323 4.947 2.3891 1.1118 2.382-2.0979 0.83242 3.2604 1.5492 3.3374 2.0842-1.5915 0.27313 4.1823 1.3489 1.3428 1.191-2.0256 0.81392 4.6692 1.4394 0.13104 1.7493-3.5809 0 0 0.1861 3.4362-0.18609 5.8235-0.37219 2.3873-1.6376 6.4384-4.9873 9.4767-3.3497 3.0383-10.868 6.4384-15.781 8.5363s-5.4775 4.7195-5.6572 14.396" color="#000000" fill="#2c460b" stroke="#000" stroke-linecap="round" stroke-width=".5"/><use transform="matrix(-1 0 0 1 285.36 -4.0492e-8)" width="300" height="300" xlink:href="#h"/><use transform="matrix(-1 0 0 1 285.45 -2.1495e-8)" width="300" height="300" xlink:href="#e"/><g transform="translate(-6.1872 -7.2578)"><rect id="b" x="18.688" y="171.69" width="3.125" height="6.25" color="#000000" fill="#290900"/><use transform="translate(9.2808)" width="300" height="300" xlink:href="#b"/><use transform="translate(17.324)" width="300" height="300" xlink:href="#b"/><use transform="translate(26.649)" width="300" height="300" xlink:href="#b"/><use transform="translate(35.134)" width="300" height="300" xlink:href="#b"/><use transform="translate(35.134)" width="300" height="300" xlink:href="#b"/><use transform="translate(42.029)" width="300" height="300" xlink:href="#b"/><use transform="translate(48.923)" width="300" height="300" xlink:href="#b"/><use transform="translate(56.171)" width="300" height="300" xlink:href="#b"/><use transform="translate(63.242)" width="300" height="300" xlink:href="#b"/><use transform="translate(71.197)" width="300" height="300" xlink:href="#b"/><use transform="translate(78.445)" width="300" height="300" xlink:href="#b"/><use transform="translate(85.869)" width="300" height="300" xlink:href="#b"/><use transform="translate(93.471)" width="300" height="300" xlink:href="#b"/><use transform="translate(100.19)" width="300" height="300" xlink:href="#b"/><use transform="translate(108.14)" width="300" height="300" xlink:href="#b"/><use transform="translate(115.21)" width="300" height="300" xlink:href="#b"/><use transform="translate(122.99)" width="300" height="300" xlink:href="#b"/><use transform="translate(130.42)" width="300" height="300" xlink:href="#b"/><use transform="translate(139.43)" width="300" height="300" xlink:href="#b"/><use transform="translate(150.75)" width="300" height="300" xlink:href="#b"/><use transform="translate(159.41)" width="300" height="300" xlink:href="#b"/><use transform="translate(167.36)" width="300" height="300" xlink:href="#b"/><use transform="translate(174.43)" width="300" height="300" xlink:href="#b"/><use transform="translate(181.86)" width="300" height="300" xlink:href="#b"/><use transform="translate(191.4)" width="300" height="300" xlink:href="#b"/><use transform="translate(199.36)" width="300" height="300" xlink:href="#b"/><use transform="translate(205.72)" width="300" height="300" xlink:href="#b"/><use transform="translate(212.44)" width="300" height="300" xlink:href="#b"/><use transform="translate(218.28)" width="300" height="300" xlink:href="#b"/><use transform="translate(225.88)" width="300" height="300" xlink:href="#b"/><use transform="translate(233.65)" width="300" height="300" xlink:href="#b"/><use transform="translate(242.14)" width="300" height="300" xlink:href="#b"/><use transform="translate(249.74)" width="300" height="300" xlink:href="#b"/><use transform="translate(257.34)" width="300" height="300" xlink:href="#b"/><use transform="translate(263.35)" width="300" height="300" xlink:href="#b"/></g><path d="m14.313 164.24 261.25-1.75 0.25-14.25-156.75-7-106.25 6 1.5 17z" color="#000000" fill="#016617"/><use transform="matrix(1.2205 0 0 1.2205 139.72 -54.957)" width="300" height="300" xlink:href="#a"/><path d="m143.38 6.4922c-30.23 0-54.83 8.1347-77.656 24.5l17.219 1.5 28-4.375 27.249 5.2697 26.125-3.8233 29.751 2.9287 21.697-5.7255c-21.092-12.864-45.87-20.275-72.384-20.275z" color="#000000" fill="#ff0"/><g transform="translate(333.81 -7.2578)"><path d="m-130.36 93.356c-3.2184 0.41373-1.9735 8.054-2.0671 12.077" color="#000000" fill="none" stroke="#69390b" stroke-linecap="round"/><path d="m-90.195 88.31c1.8699-0.507 1.9016-3.4222 1.9016-3.4222s2.5681 3.2014-1.141 4.4996" color="#000000" fill="#d87d3a" stroke="#69390b" stroke-width=".5"/><path d="m-88.922 89.954c0.76605 0.0279 1.7067 0.23127 2.0976-0.02587 0.39094-0.25714 1.7569-1.3637 2.0883 0.22944 0.3314 1.5931-0.59067 1.9607-1.665 2.4053-1.0744 0.44463-2.2443 0.16604-2.2443 0.16604" color="#000000" fill="#d87d3a" stroke="#69390b" stroke-width=".5"/><use transform="translate(6.7626 -.77529)" width="300" height="300" fill="#d87d3a" stroke="#69390b" stroke-width=".5" xlink:href="#g"/><use transform="translate(6.4771 -.80725)" width="300" height="300" fill="#d87d3a" stroke="#69390b" stroke-width=".5" xlink:href="#f"/><path d="m-96.119 90.911c-6.5601-0.11928-8.7071 1.1927-11.331 1.7891-2.624 0.59637-11.927 1.0735-13.955 0.35782-2.0277-0.71565-3.3449-1.2948-4.855-1.2269-4.9452 0.22232-6.0086 4.0411-4.7857 7.0773 1.2229 3.0362 2.842 9.4763 5.2275 10.132 2.3855 0.65601 6.8583-0.59637 10.198-0.59637 3.3397 0 16.805 2.1859 17.474-0.53675 0.83492-3.3993 4.1746-9.8402 3.7572-12.285s-1.7891-4.8306-1.7295-4.7114z" color="#000000" fill="#d87d3a" stroke="#69390b" stroke-width=".5"/><path d="m-116.22 107.37c-0.17721 3.2177-8.8065 6.1761-11.212 1.4909" color="#000000" fill="#d87d3a" stroke="#69390b" stroke-width=".5"/><path id="g" d="m-118.78 99.32c0.29819 3.0415-5.1224 5.8445-6.9115 8.1703s-2.5644 8.7071-2.2066 10.019c0.35782 1.312 3.2736 3.8764 3.2736 3.8764-0.28263 0.79965-2.0445 0.65793-4.0554 0.35783l-0.0596-1.968s-2.147-0.4771-2.2066-1.1331c-0.0596-0.65601 0.23855-9.3631 0.53674-10.079s0.48838-3.471 0.78339-5.0718c0.27529-1.4938-1.2605-3.9814-1.2605-3.9814" color="#000000" fill="#d87d3a" stroke="#69390b" stroke-width=".5"/><path id="f" d="m-104.53 107.73c0 0.53673-0.17891 4.9499-0.35782 5.3077-0.17891 0.35782-0.29819 2.9222-0.35783 3.9957-0.0596 1.0735 3.3993 4.4132 3.3993 4.4132-0.89126 0.34953-1.9111 0.6348-4.0554 0.35782l-0.53673-1.8488s-2.147-0.59638-2.0873-1.4313c0.0596-0.83493 0.29818-5.5463 0.41746-5.9041 0.11927-0.35782-1.312-5.7848-1.2524-6.6198 0.0596-0.83492 0.71565-5.1884 0.71565-5.1884" color="#000000" fill="#d87d3a" stroke="#69390b" stroke-width=".5"/><path d="m-104.52 107.95 4.3535-6.3812" color="#000000" fill="#d87d3a" stroke="#69390b" stroke-width=".5"/><path d="m-89.947 91.479c-1e-3 0.02308-5.4169 2.5828-5.4182 2.6067-0.0675 1.2664 0.17917 3.6112 0.70776 3.9393 0.53854 0.33425 2.7652 1.4104 2.7652 1.4104" color="#000000" fill="#d87d3a" stroke="#69390b" stroke-width=".5"/><path d="m-93.126 98.08c0.49863 0.24234 0.93681 1.6034 0.94421 2.048 7e-3 0.44469 0.4124 1.086 1.9248 1.2618 1.594 0.18522 2.7114-0.79484 2.6084-1.1552" color="#000000" fill="#d87d3a" stroke="#69390b" stroke-width=".5"/><path d="m-92.056 98.375c0.35907 0.21769 0.58078 1.6643 0.75041 1.8533 0.31756 0.35372 3.514 0.29123 3.8009-0.0982 0.42625-0.57835 0.16912-2.0508-0.15774-2.1492-0.32683-0.09842-0.91615-1.8442-0.75567-2.7963 0.0499-0.29606 0.54879-0.27105 0.50703-0.74452-0.0418-0.47347 0.13573-2.4295-0.56251-3.1314-0.69823-0.7019 0.85439-1.8567 0.10972-2.3636s-1.7623-1.9441-3.7058-1.6137-3.2166 2.1286-3.8258 2.4368c-0.60916 0.30818-1.6409 1.9578-1.6409 1.9578" color="#000000" fill="#d87d3a" stroke="#69390b" stroke-width=".5"/><path d="m-94.617 92.359c-0.70293-0.03346-0.40854-0.66381-1.1161-1.1104-0.70755-0.44659-0.84862-1.3248-1.6611-1.1578-0.81249 0.16706-1.9955 0.46221-2.172 0.98673s0.20889 1.2858 0.62667 1.6943c0.41784 0.40851 0.53014 1.3211 1.182 1.1364s2.2109-0.54482 2.2109-0.54482" color="#000000" fill="#d87d3a" stroke="#69390b" stroke-width=".5"/><path d="m-94.858 90.109c0.40923 0.23155 1.0002-0.61076 0.81911-1.0129-1.9101-0.32412-2.3893-3.3555-2.3893-3.3555s-2.2469 3.4344 1.5702 4.3684z" color="#000000" fill="#d87d3a" stroke="#69390b" stroke-width=".5"/><path d="m-94.921 93.239c0.60106-0.02777 1.2488-0.4694 1.7115 0.72881-0.62053-0.11916-1.4536 0.28724-1.7115-0.72881z" color="#000000"/><path d="m-87.981 92.531c-0.32279-0.02777-0.67068-0.4694-0.91911 0.72881 0.33324-0.11916 0.78062 0.28724 0.91911-0.72881z" color="#000000"/><path d="m-90.903 99.522c-0.21613-1.1545 0.7792-1.6274 1.4567-0.87385" color="#000000" fill="#d87d3a" stroke="#69390b" stroke-width=".5"/><path d="m-132.42 105.52c-1.238 4.8521-3.7228 5.5483-5.8445 7.4547 1.5648-3.0076 1.8874-7.7092 5.8445-7.4547z" color="#000000" fill="#d87d3a" stroke="#69390b" stroke-width=".5"/></g><path d="m-21.18 104.75c-2.7414 5.6124-7.2348 9.8416-12.198 13.7" color="#000000" fill="none" stroke="#f9d32b" stroke-width="5"/><path d="m-37.875 105.37v18.906h9v-18.906h-9zm13.875-6.625v18.906h9v-18.906h-9z" color="#000000" fill="#f00"/><path d="m-72.519 158.69c2.0748 1.8424 3.9809 3.87 5.7722 5.9632h-5.924c-1.85-2.6802-4.4047-4.7151-7.8608-5.9632 3.3514-1.1326 5.8262-3.258 7.8608-5.9631h5.924c-1.7912 2.0931-3.6973 4.1208-5.7722 5.9631z" color="#000000" fill="#f9d32b" stroke="#694217" stroke-width="1.2152" style="block-progression:tb;text-indent:0;text-transform:none"/><path id="h" d="m62.598 37.063c-2.8395-0.1892-5.6906-0.53452-8.5299-0.92144 1.6731-1.3625 3.3784-2.6859 5.1142-3.9685 3.2189 0.95374 6.5895 1.0344 10.302 0.12327-2.3296 2.8519-3.1901 6.0859-3.2155 9.4678-1.5847 1.1709-3.142 2.3795-4.6703 3.6243 0.06464-2.7519 0.35288-5.554 0.99925-8.3253zm-8.7612 7.0909c-2.8454 0.0541-5.7155-0.04749-8.5771-0.19204 1.5508-1.4995 3.1366-2.9628 4.7559-4.3884 3.2881 0.67594 6.6533 0.46816 10.273-0.7599-2.0745 3.042-2.6553 6.3381-2.3923 9.7107-1.4796 1.3029-2.929 2.6405-4.3465 4.0112-0.1691-2.7481-0.1202-5.565 0.28703-8.3816zm-8.1268 7.811c-2.8307 0.29519-5.699 0.43698-8.5625 0.5354 1.4181-1.6255 2.8741-3.2179 4.3664-4.7755 3.3334 0.39489 6.6689-0.0974 10.171-1.6296-1.8079 3.208-2.1071 6.5417-1.5593 9.8802-1.3642 1.4239-2.6953 2.8796-3.9917 4.3654-0.40119-2.7238-0.59092-5.5348-0.42398-8.3759zm-7.4357 8.4715c-2.7953 0.53406-5.6411 0.91887-8.486 1.2609 1.2751-1.7406 2.5909-3.4511 3.9458-5.1298 3.3548 0.11061 6.6365-0.66229 9.9963-2.4857-1.5296 3.3497-1.5455 6.6967-0.71665 9.9762-1.2384 1.5341-2.4408 3.0969-3.6057 4.6868-0.63162-2.6791-1.0593-5.4635-1.1338-8.3084zm-6.688 9.0723c-2.7393 0.77072-5.5418 1.3982-8.3476 1.9844 1.1216-1.8448 2.2868-3.6625 3.494-5.4514 3.3524-0.17691 6.556-1.2265 9.7487-3.3284-1.2397 3.4672-0.97057 6.8031 0.1358 9.9989-1.1022 1.6333-2.1656 3.2923-3.1887 4.9754-0.86038-2.6139-1.5252-5.3511-1.8424-8.179zm-5.8835 9.6134c-2.6625 1.0052-5.3997 1.8764-8.1431 2.7069 0.95573-1.9367 1.9582-3.8511 3.007-5.7409 0.08897-0.01255 0.17779-0.02572 0.26647-0.03951 3.2261-0.50002 6.2412-1.814 9.1618-4.1181-0.91524 3.4734-0.40828 6.7002 0.89829 9.7213 0.03273 0.07566 0.06597 0.1512 0.0997 0.22662-0.95594 1.7199-1.8699 3.4635-2.7414 5.2284-1.0859-2.5272-1.9877-5.1945-2.5487-7.9847zm-5.0203 10.09c-2.5635 1.2342-5.214 2.3394-7.8746 3.4033 0.78384-2.0106 1.6153-4.003 2.494-5.9749 3.2706-0.75678 6.243-2.347 9.026-4.967-0.62416 3.6286 0.22002 6.8662 1.8643 9.82-0.80153 1.7985-1.5602 3.6166-2.2755 5.452-1.3008-2.4248-2.4312-5.004-3.2342-7.7335zm-4.125 10.487c-2.4478 1.4506-4.9939 2.7787-7.5538 4.0659 0.60869-2.0697 1.2659-4.1253 1.9712-6.1644 3.1932-1.0346 6.0175-2.8752 8.5611-5.7274-0.30542 3.6686 0.81508 6.8216 2.7077 9.6243-0.64386 1.8623-1.244 3.7401-1.7998 5.6312-1.5036-2.3057-2.8512-4.7791-3.8864-7.4295zm-3.2118 10.803c-2.3155 1.6543-4.7394 3.1943-7.1807 4.6945 0.43028-2.114 0.91-4.2179 1.4387-6.3094 3.0936-1.3029 5.7508-3.3778 8.0403-6.4382 0.01073 3.6817 1.3964 6.728 3.5212 9.36-0.48292 1.9113-0.92118 3.834-1.3143 5.7658-1.6943-2.1698-3.2476-4.52-4.5053-7.0728zm-2.2809 11.038c-2.1665 1.8453-4.4506 3.586-6.7551 5.2892 0.2486-2.1434 0.54754-4.2808 0.89634-6.41 2.9716-1.5614 5.4429-3.8547 7.4638-7.0993 0.32428 3.6678 1.9639 6.5856 4.3049 9.0273-0.31871 1.9454-0.59188 3.8982-0.819 5.856-1.873-2.0171-3.6207-4.2266-5.0909-6.6633zm-1.3321 11.192c-2.0008 2.0237-4.1274 3.954-6.2772 5.85 0.06365-2.1581 0.17854-4.3141 0.34419-6.466 2.8273-1.8104 5.094-4.306 6.8314-7.7109 0.63524 3.627 2.5177 6.3943 5.0588 8.6262-0.15124 1.9647-0.25604 3.9327-0.3139 5.9017-2.0396-1.8477-3.9702-3.899-5.6433-6.201zm-0.36573 11.266c-1.8194 2.1886-3.7735 4.293-5.7547 6.3629-0.11997-2.1536-0.18986-4.3096-0.20992-6.4657 0.53644-0.41224 1.0482-0.85078 1.5349-1.317 1.9278-1.8492 3.4593-4.1263 4.6085-6.9537 0.76492 2.8852 2.3022 5.14 4.3052 6.9537 0.46793 0.42427 0.96153 0.825 1.4775 1.2051 0.01869 1.9728 0.08274 3.9451 0.19239 5.9144-2.1894-1.67-4.2886-3.55-6.1538-5.6996zm0.5939 11.257c-1.6282 2.3343-3.3967 4.5971-5.1941 6.8292-0.30305-2.137-0.5556-4.2806-0.75789-6.4286 2.479-2.2636 4.2888-5.1082 5.42-8.76 1.2448 3.4658 3.5705 5.8734 6.454 7.6424 0.18464 1.963 0.41508 3.9212 0.69156 5.8723-2.3231-1.476-4.5736-3.1707-6.6136-5.1554zm1.5491 11.165c-1.4217 2.4653-2.9879 4.8731-4.5846 7.2552-0.4877-2.105-0.92447-4.2208-1.3106-6.3452 2.2751-2.4695 3.8348-5.4584 4.6527-9.1927 1.5338 3.3478 4.0564 5.5474 7.0806 7.0603 0.35217 1.9378 0.75056 3.8666 1.1954 5.784-2.4425-1.2666-4.831-2.7596-7.0336-4.5616z" color="#000000" fill="#f9d32b" stroke="#694217" stroke-opacity=".99216"/><path id="e" d="m69.37 254.12c-0.70961-2.751-1.0724-5.5432-1.2188-8.2946 1.5661 1.2011 3.1573 2.3687 4.7723 3.5014-0.02585 3.2564 1.0085 6.4357 3.4134 9.3918-3.565-0.87447-6.8997-0.57213-10.261 0.37639-1.755-1.2298-3.4836-2.4972-5.1843-3.8007 2.8169-0.47938 5.6501-0.90958 8.4787-1.1743zm-8.9373-6.8132c-0.49466-2.7985-0.64135-5.6114-0.5761-8.3667 1.4699 1.3187 2.9675 2.6064 4.4913 3.8616-0.27718 3.2462 0.50806 6.4973 2.6751 9.6337-3.487-1.1511-6.8361-1.1082-10.261-0.42211-1.6542-1.362-3.2794-2.759-4.8743-4.1896 2.8453-0.26135 5.7036-0.47195 8.5452-0.51691zm-8.3876-7.4831c-0.27841-2.8284-0.20932-5.6442 0.06648-8.386 1.3648 1.4271 2.7597 2.8258 4.1833 4.1944-0.52507 3.2156 0.0084 6.5179 1.9273 9.8131-3.3886-1.4173-6.7315-1.6317-10.199-1.2104-1.5443-1.485-3.0572-3.0024-4.5373-4.5511 2.8564-0.0424 5.7221-0.0334 8.5589 0.13992zm-7.7887-8.1032c-0.06087-2.8407 0.2237-5.6417 0.70894-8.3526 1.2507 1.5265 2.5339 3.0269 3.8484 4.4999-0.76951 3.1648-0.49038 6.4976 1.1702 9.9302-3.2699-1.6729-6.5859-2.1425-10.074-1.9885-1.4254-1.5988-2.817-3.2277-4.1733-4.8852 2.85 0.17737 5.7055 0.40616 8.5199 0.79619zm-7.1407-8.6734c0.15796-2.8353 0.65771-5.604 1.3513-8.2664 1.1275 1.6167 2.2901 3.2098 3.4864 4.778-1.0105 3.0937-0.98836 6.4362 0.40372 9.9848-3.131-1.918-6.3993-2.6406-9.8873-2.7563-1.2976-1.7036-2.5588-3.4347-3.7823-5.192 2.8262 0.39806 5.6537 0.84664 8.4282 1.4519zm-6.4435-9.194c0.37808-2.8123 1.0927-5.5308 1.9935-8.1275 0.99539 1.6978 2.0283 3.3745 3.0974 5.0288-1.2481 3.0024-1.4855 6.334-0.37219 9.9771-2.9717-2.1526-6.1717-3.1262-9.6382-3.514-1.1607-1.7993-2.2826-3.6235-3.3643-5.4714 2.7849 0.61962 5.5669 1.2881 8.2837 2.107zm-5.6971-9.6646c0.59948-2.7717 1.5287-5.4224 2.6356-7.9358 0.85426 1.7697 1.7485 3.5209 2.6814 5.2522-1.4822 2.8908-1.9818 6.1907-1.1575 9.907-2.7921-2.3766-5.9031-3.599-9.3268-4.2614-1.0148-1.8858-1.9884-3.7941-2.9192-5.7235 2.7262 0.84208 5.4449 1.7305 8.0865 2.7616zm-4.9016-10.086c0.82218-2.7134 1.9657-5.2787 3.2775-7.6915 0.70412 1.8326 1.4507 3.6491 2.2384 5.4483-1.7128 2.7589-2.4774 6.0065-1.9522 9.7745-2.5923-2.5902-5.5936-4.0592-8.9532-4.9986-0.85996-1.9632-1.6762-3.9464-2.4472-5.9482 2.65 1.0654 5.2878 2.1738 7.8366 3.4156zm-4.057-10.457c1.0462-2.6375 2.4037-5.0997 3.9194-7.3943 0.54499 1.8863 1.1349 3.7591 1.7684 5.617-1.94 2.6067-2.972 5.7813-2.7563 9.5796-2.3722-2.7932-5.243-4.5067-8.5173-5.7257-0.6961-2.0315-1.3459-4.0805-1.9482-6.1456 2.5564 1.2896 5.0956 2.6181 7.5339 4.069z" color="#000000" fill="#f9d32b" stroke="#694217" stroke-opacity=".99216" stroke-width="1.0998"/><path d="m-27.687 32.211c-36.176 23.353-60.125 64.02-60.125 110.28 0 10.231 1.1594 20.193 3.375 29.75" color="#000000" fill="none" stroke="#694217" stroke-opacity=".99216"/><path d="m-83 177.74c8.7055 31.272 28.687 57.844 55.312 75.031" color="#000000" fill="none" stroke="#000" stroke-miterlimit="0"/><use transform="matrix(1.6071 0 0 1.6071 225.84 -125.22)" width="300" height="300" xlink:href="#a"/><use transform="matrix(1.2067 0 0 1.2067 242.49 -52.824)" width="300" height="300" xlink:href="#a"/><use transform="matrix(1.0732 0 0 1.0732 228.18 -30.106)" width="300" height="300" xlink:href="#a"/><use transform="matrix(.78323 0 0 .78323 259.59 25.54)" width="300" height="300" xlink:href="#a"/><use transform="matrix(1.1054 0 0 1.1054 236.53 -25.451)" width="300" height="300" xlink:href="#a"/><use transform="matrix(1.0226 0 0 1.0226 246.95 -10.169)" width="300" height="300" xlink:href="#a"/><use transform="matrix(.94433 0 0 .94433 226.61 .9939)" width="300" height="300" xlink:href="#a"/><use transform="matrix(1.2088 0 0 1.2088 227.69 -40.033)" width="300" height="300" xlink:href="#a"/><use transform="matrix(1.5335 0 0 1.5335 195.55 -111.92)" width="300" height="300" xlink:href="#a"/><use transform="matrix(1.331 0 0 1.331 209.46 -68.137)" width="300" height="300" xlink:href="#a"/><use transform="matrix(1.3494 0 0 1.3494 191.35 -77.758)" width="300" height="300" xlink:href="#a"/><use transform="matrix(1.2665 0 0 1.2665 200.17 -52.582)" width="300" height="300" xlink:href="#a"/><use transform="matrix(1.064 0 0 1.064 186.85 -24.884)" width="300" height="300" xlink:href="#a"/><use transform="matrix(.94433 0 0 .94433 200.8 .033115)" width="300" height="300" xlink:href="#a"/><use transform="matrix(1.0088 0 0 1.0088 195.03 -8.5717)" width="300" height="300" xlink:href="#a"/><use transform="matrix(.94433 0 0 .94433 186.8 .033115)" width="300" height="300" xlink:href="#a"/><use transform="matrix(1.2389 0 0 1.2389 171.12 -56.093)" width="300" height="300" xlink:href="#a"/><use transform="matrix(.94433 0 0 .94433 180.8 2.0331)" width="300" height="300" xlink:href="#a"/><use transform="matrix(1.0916 0 0 1.0916 166.76 -34.278)" width="300" height="300" xlink:href="#a"/><use transform="matrix(1.1284 0 0 1.1284 167.85 -28.595)" width="300" height="300" xlink:href="#a"/><use transform="matrix(1.1745 0 0 1.1745 153.52 -51.145)" width="300" height="300" xlink:href="#a"/><use transform="matrix(.94433 0 0 .94433 165.24 .44213)" width="300" height="300" xlink:href="#a"/><use transform="matrix(1.0088 0 0 1.0088 150.6 -15.73)" width="300" height="300" xlink:href="#a"/><use transform="matrix(1.0916 0 0 1.0916 155.23 -25.991)" width="300" height="300" xlink:href="#a"/><use transform="matrix(.94433 0 0 .94433 148.27 1.8563)" width="300" height="300" xlink:href="#a"/><use transform="matrix(1.2389 0 0 1.2389 128.16 -59.098)" width="300" height="300" xlink:href="#a"/><use transform="matrix(1.1192 0 0 1.1192 136.95 -28.292)" width="300" height="300" xlink:href="#a"/><use transform="matrix(1.3126 0 0 1.3126 115.13 -72.481)" width="300" height="300" xlink:href="#a"/><use transform="matrix(.94433 0 0 .94433 128.65 -1.6792)" width="300" height="300" xlink:href="#a"/><use transform="matrix(.94433 0 0 .94433 110.97 -18.296)" width="300" height="300" xlink:href="#a"/><use transform="matrix(1.2021 0 0 1.2021 109.75 -49.402)" width="300" height="300" xlink:href="#a"/><use transform="matrix(1.3678 0 0 1.3678 91.751 -82.96)" width="300" height="300" xlink:href="#a"/><use transform="matrix(1.3586 0 0 1.3586 98.859 -69.929)" width="300" height="300" xlink:href="#a"/><use transform="matrix(.94433 0 0 .94433 93.701 -12.463)" width="300" height="300" xlink:href="#a"/><use transform="matrix(1.0916 0 0 1.0916 85.27 -27.384)" width="300" height="300" xlink:href="#a"/><use transform="matrix(.94433 0 0 .94433 93.469 .97246)" width="300" height="300" xlink:href="#a"/><use transform="matrix(1.0732 0 0 1.0732 96.128 -17.586)" width="300" height="300" xlink:href="#a"/><use transform="matrix(.8983 0 0 .8983 84.11 7.7897)" width="300" height="300" xlink:href="#a"/><use transform="matrix(.94433 0 0 .94433 76.498 -9.8109)" width="300" height="300" xlink:href="#a"/><use transform="matrix(1.0548 0 0 1.0548 63.853 -33.067)" width="300" height="300" xlink:href="#a"/><use transform="matrix(.94433 0 0 .94433 71.549 -5.2147)" width="300" height="300" xlink:href="#a"/><use transform="matrix(1.4138 0 0 1.4138 46.839 -90.131)" width="300" height="300" xlink:href="#a"/><use transform="matrix(.94433 0 0 .94433 65.538 -2.7399)" width="300" height="300" xlink:href="#a"/><use transform="matrix(.79704 0 0 .79704 61.186 17.661)" width="300" height="300" xlink:href="#a"/><use transform="matrix(.90892 0 0 .90892 58.92 9.3923)" width="300" height="300" xlink:href="#a"/><use transform="matrix(.8937 0 0 .8937 64.595 18.106)" width="300" height="300" xlink:href="#a"/><use transform="matrix(1.1837 0 0 1.1837 44.238 -53.569)" width="300" height="300" xlink:href="#a"/><use transform="matrix(.94433 0 0 .94433 51.219 -1.3256)" width="300" height="300" xlink:href="#a"/><use transform="matrix(.99956 0 0 .99956 38.974 -17.461)" width="300" height="300" xlink:href="#a"/><use transform="matrix(.94433 0 0 .94433 44.148 -.97209)" width="300" height="300" xlink:href="#a"/><use transform="matrix(.94433 0 0 .94433 36.017 .26535)" width="300" height="300" xlink:href="#a"/><use transform="matrix(.94433 0 0 .94433 27.885 -5.3915)" width="300" height="300" xlink:href="#a"/><use transform="matrix(.94433 0 0 .94433 28.415 1.6796)" width="300" height="300" xlink:href="#a"/><use transform="matrix(.94433 0 0 .94433 18.339 -6.0986)" width="300" height="300" xlink:href="#a"/><use transform="matrix(.94433 0 0 .94433 21.874 .088572)" width="300" height="300" xlink:href="#a"/><use transform="matrix(1.1284 0 0 1.1284 4.8639 -34.782)" width="300" height="300" xlink:href="#a"/><use transform="matrix(.94433 0 0 .94433 12.505 1.1492)" width="300" height="300" xlink:href="#a"/><use transform="matrix(1.2481 0 0 1.2481 -6.7586 -60.285)" width="300" height="300" xlink:href="#a"/><use transform="matrix(.94433 0 0 .94433 -.9297 -2.2095)" width="300" height="300" xlink:href="#a"/><use transform="matrix(.94433 0 0 .94433 -8.1775 -1.1489)" width="300" height="300" xlink:href="#a"/><g id="a" transform="translate(-6.1872 -7.2578)" stroke-width=".3"><path d="m27.416 174.42h4.517c0.91674-0.5797 1.7133-1.3124 1.422-3.4296 0.88448-0.98329 1.1728-2.2822 0.1673-4.2661 1.0186-1.4584 0.16554-2.5426-0.41824-3.6805 0.46022-1.2494-0.01706-2.5708-1.0038-3.9315 0.32865-1.0616-0.05352-1.7532-1.1711-2.2585-0.11143-1.449-2.9522-1.9493-3.1786-0.33459-1.7347 1.051-1.4848 1.9844-1.1711 2.9277-1.4714 0.54191-1.4443 1.7498-0.92013 3.1786-1.2935 2.1167-0.99892 3.3926-0.41824 4.517-0.66668 1.6445-0.77734 3.1499 0.33459 4.3497 0.01929 1.57 0.82522 2.3534 1.8403 2.9277z" color="#000000" fill="#016617"/><path d="m27.793 156.98c-0.59988 0.37057-1.216 1.0219-0.99481 1.7901 0.03192 0.32004 0.36469 0.73287 0.02853 0.99432-0.4717 0.18009-1.0133 0.45882-1.0831 1.0216-0.12577 0.62873 0.17854 1.2332 0.29452 1.8286-0.06535 0.46063-0.46187 0.8157-0.59133 1.2662-0.44648 0.94393-0.43935 2.0794 0.0788 2.995 0.25248 0.33861-0.15171 0.70133-0.18214 1.0538-0.33964 1.0592-0.37582 2.3491 0.43542 3.2114 0.3385 0.32421 0.0915 0.86033 0.30899 1.2513 0.18889 0.40688 0.42056 1.1229 0.97908 1.0246h2.9845c0.94478-0.44145 1.2157-1.599 1.0874-2.5513 0.19131-0.76511 0.78227-1.4606 0.66056-2.2885-0.1263-0.82565-0.67098-1.6721-0.26498-2.5058 0.26485-0.36946 0.1413-0.95281-0.09773-1.3846-0.34731-0.62419-0.64606-1.336-0.45543-2.0604 0.0827-0.99798-0.51576-1.878-1.0399-2.6642 0.046-0.44576 0.26688-0.93718-0.19113-1.2885-0.41184-0.44569-0.84728-0.87173-1.2264-1.3439-0.20482-0.18129-0.46178-0.30243-0.73089-0.34969z" color="#000000" fill="#71c41d"/></g><use transform="matrix(.94433 0 0 .94433 9.295 9.3105)" width="300" height="300" xlink:href="#a"/><use transform="matrix(.90751 0 0 .90751 19.284 14.646)" width="300" height="300" xlink:href="#a"/><use transform="matrix(.8891 0 0 .8891 28.197 17.904)" width="300" height="300" xlink:href="#a"/><use transform="matrix(.87529 0 0 .87529 35.766 20.214)" width="300" height="300" xlink:href="#a"/><use transform="matrix(.91671 0 0 .91671 41.52 13.548)" width="300" height="300" xlink:href="#a"/><use transform="matrix(.8937 0 0 .8937 49.765 17.31)" width="300" height="300" xlink:href="#a"/><use transform="matrix(.94433 0 0 .96734 55.639 5.1652)" width="300" height="300" xlink:href="#a"/><use transform="matrix(.94433 0 0 .94433 76.597 -1.567)" width="300" height="300" xlink:href="#a"/><use transform="matrix(.94433 0 0 .94433 70.304 3.5812)" width="300" height="300" xlink:href="#a"/><use transform="matrix(.83386 0 0 .83386 73.411 27.322)" width="300" height="300" xlink:href="#a"/><use transform="matrix(.78323 0 0 .78323 81.925 35.528)" width="300" height="300" xlink:href="#a"/><use transform="matrix(.91211 0 0 .91211 85.998 14.23)" width="300" height="300" xlink:href="#a"/><use transform="matrix(.70959 0 0 .70959 97.604 48.203)" width="300" height="300" xlink:href="#a"/><use transform="matrix(.66356 0 0 .66356 106.72 56.17)" width="300" height="300" xlink:href="#a"/><use transform="matrix(.90892 0 0 .90892 112.94 12.363)" width="300" height="300" xlink:href="#a"/><use transform="matrix(.70038 0 0 .70038 112.93 49.036)" width="300" height="300" xlink:href="#a"/><use transform="matrix(1.2353 0 0 1.2353 113.13 -47.442)" width="300" height="300" xlink:href="#a"/><use transform="matrix(.86608 0 0 .86608 116.5 22.196)" width="300" height="300" xlink:href="#a"/><use transform="matrix(.90892 0 0 .90892 127.55 11.142)" width="300" height="300" xlink:href="#a"/><use transform="matrix(.87068 0 0 .87068 124.35 21.073)" width="300" height="300" xlink:href="#a"/><use transform="matrix(1.3586 0 0 1.3586 126.11 -61.929)" width="300" height="300" xlink:href="#a"/><use transform="matrix(.86148 0 0 .86148 133.67 22.436)" width="300" height="300" xlink:href="#a"/><use transform="matrix(.94433 0 0 .82926 142.79 27.65)" width="300" height="300" xlink:href="#a"/><use transform="matrix(1.0916 0 0 1.0916 151.92 -18.172)" width="300" height="300" xlink:href="#a"/><use transform="matrix(.76942 0 0 .76942 155.87 37.308)" width="300" height="300" xlink:href="#a"/><use transform="matrix(.94433 0 0 .94433 162.22 7.433)" width="300" height="300" xlink:href="#a"/><use transform="matrix(.67277 0 0 .67277 165.37 53.746)" width="300" height="300" xlink:href="#a"/><use transform="matrix(.76942 0 0 .76942 170.19 37.838)" width="300" height="300" xlink:href="#a"/><use transform="matrix(.94433 0 0 .94433 178.35 6.933)" width="300" height="300" xlink:href="#a"/><use transform="matrix(.76022 0 0 .76022 178.09 39.29)" width="300" height="300" xlink:href="#a"/><use transform="matrix(.94433 0 0 .94433 183.27 8.2203)" width="300" height="300" xlink:href="#a"/><use transform="matrix(.78063 0 0 .78063 194.68 35.168)" width="300" height="300" xlink:href="#a"/><use transform="matrix(.88976 0 0 .88976 198.95 17.439)" width="300" height="300" xlink:href="#a"/><use transform="matrix(.93973 0 0 .93973 204.57 8.9904)" width="300" height="300" xlink:href="#a"/><use transform="matrix(1.0832 0 0 1.0832 209.19 -19.305)" width="300" height="300" xlink:href="#a"/><use transform="matrix(.87529 0 0 .87529 211.32 19.949)" width="300" height="300" xlink:href="#a"/><use transform="matrix(1.0088 0 0 1.0088 219.47 -5.2299)" width="300" height="300" xlink:href="#a"/><use transform="matrix(.84307 0 0 .84307 219.57 24.898)" width="300" height="300" xlink:href="#a"/><use transform="matrix(.83386 0 0 .83386 227.91 26.526)" width="300" height="300" xlink:href="#a"/><use transform="matrix(.78783 0 0 .78783 237.65 33.874)" width="300" height="300" xlink:href="#a"/><use transform="matrix(.8891 0 0 .8891 243.07 17.373)" width="300" height="300" xlink:href="#a"/><use transform="matrix(.79244 0 0 .79244 253.01 33.546)" width="300" height="300" xlink:href="#a"/><use transform="matrix(.76482 0 0 .76482 259.93 37.813)" width="300" height="300" xlink:href="#a"/><use transform="matrix(.94433 0 0 .94433 -7.5283 8.808)" width="300" height="300" xlink:href="#a"/><path d="m24.174 110.46h7.955v4.8614h-7.955v-4.8614zm22.764-10.06c-6.1011-0.0532-5.5712 7.5312-1.5938 7.5312 3.6239 0 3.0938-4.9688 3.0938-4.9688 1.6442 0.90147 3.4582 2.9723 0.25 7-1.7456 2.1914-3.5572 1.8348-6.1875 1.8438l1.0312-1.7188c-3.1311-0.32631-2.6225 1.7604-4.1875 1.7812-1.6816 0.0217-2.5373-0.15383-2.5625-1.0312-0.0153-0.53313 2.7846-0.70099 2.8125-2.8438 0.0187-1.4334-1.6935-2.975-3.7188-3-5.5318-0.0683-2.8881 6.6958-0.875 7.9062-2.0131 1.2105-4.4805 7.875 0.875 7.875 2.0254 0 3.7374-1.5354 3.7188-2.9688-0.028-2.1428-2.8278-2.3419-2.8125-2.875 0.0252-0.87742 0.88094-1.0217 2.5625-1 1.565 0.0208 1.0564 2.0763 4.1875 1.75l-1.0312-1.7188c2.6303 9e-3 4.4419-0.31644 6.1875 1.875 3.2082 4.0277 1.3942 6.0673-0.25 6.9688 0 0 0.53017-4.9375-3.0938-4.9375-3.9775 0-4.5074 7.5532 1.5938 7.5 6.2865-0.0556 5.2189-4.4634 5.4688-9.8125 10.299 7.3548 15.746-0.31302 25.562-2.6562-9.8166-2.3432-15.263-10.042-25.562-2.6875-0.24988-5.3491 0.81776-9.7569-5.4688-9.8125zm13.812 9.0938c0.38798 1e-3 0.73602 0.0132 1.0938 0.0625 3.7699 0.51996 6.4581 3.2802 9.75 3.3438-3.2919 0.0635-5.9801 2.7925-9.75 3.3125-2.8619 0.39473-6.8626-0.74953-9.3125-3.3125 2.1437-2.2426 5.5029-3.4153 8.2188-3.4062z" color="#000000" fill="#f9d32b" stroke="#000" stroke-opacity=".99216" stroke-width=".5"/><text transform="scale(1.0583 .94494)" x="66.416725" y="327.0881" fill="#000000" font-family="Georgia" font-size="21.206px" font-weight="bold" style="line-height:125%" xml:space="preserve"><tspan x="66.416725" y="327.0881">VERMONT</tspan></text><text transform="scale(.99022 1.0099)" x="84.805489" y="340.87158" fill="#000000" font-family="Georgia" font-size="24.487px" font-weight="bold" style="line-height:125%" xml:space="preserve"><tspan x="84.805489" y="340.87158">REEDOM</tspan></text><text transform="scale(.84949 1.1772)" x="75.046692" y="292.49832" fill="#000000" font-family="Georgia" font-size="38.589px" font-weight="bold" style="line-height:125%" xml:space="preserve"><tspan x="75.046692" y="292.49832">F</tspan></text><text transform="scale(.99022 1.0099)" x="86.092453" y="365.92892" fill="#000000" font-family="Georgia" font-size="28.139px" font-weight="bold" style="line-height:125%" xml:space="preserve"><tspan x="86.092453" y="365.92892">U</tspan></text><path d="m198.81 244.39c-0.29212 0.0276-0.55986 0.0724-0.80325 0.13443-0.24342 0.062-0.47466 0.14822-0.69371 0.25851-0.3489 0.16547-0.66128 0.37917-0.93712 0.64111-0.26777 0.25508-0.53147 0.54117-0.79108 0.85826-0.5274 0.65491-1.0832 1.3684-1.6674 2.1405-0.57608 0.7652-1.2049 1.6097-1.8864 2.5334-0.44625 0.58597-0.72211 1.0375-0.82759 1.3546-0.0974 0.31022-0.14604 0.85138-0.14603 1.6235v2.0784c-1e-5 0.24818 0.0527 0.46533 0.15821 0.65145 0.11357 0.18614 0.32453 0.33779 0.63286 0.45499 0.13792 0.0482 0.43001 0.11374 0.87627 0.19647 0.44623 0.0759 0.77483 0.12064 0.9858 0.13442v0.80656h-9.6268v-0.80656c0.22717-0.0137 0.55171-0.0414 0.97362-0.0827 0.43002-0.0414 0.73023-0.0896 0.90062-0.14477 0.3002-0.1103 0.50304-0.25506 0.60852-0.4343 0.11359-0.18613 0.17038-0.41017 0.17038-0.67213v-2.5851c0-0.22749-4e-3 -0.4274-0.0121-0.59975-8e-3 -0.17233-0.0366-0.31711-0.0852-0.4343-0.0568-0.13097-0.15417-0.29643-0.2921-0.49635-0.13793-0.20679-0.31644-0.47221-0.5355-0.79621-0.62475-0.93064-1.2292-1.813-1.8134-2.6472-0.58418-0.83412-1.14-1.6165-1.6673-2.3473-0.27586-0.37914-0.55578-0.68246-0.83976-0.90996-0.27587-0.23437-0.55984-0.42394-0.85193-0.56872-0.21907-0.1034-0.48682-0.18267-0.80324-0.23784-0.30833-0.0551-0.58825-0.0896-0.83977-0.1034v-0.80656h9.8946v0.80656c-0.90874 0.0207-1.5213 0.0759-1.8377 0.16545-0.31644 0.0828-0.47466 0.19993-0.47465 0.35157-1e-5 0.0759 0.0567 0.2275 0.17039 0.45499 0.1217 0.22749 0.33265 0.57907 0.63286 1.0547 0.27585 0.44809 0.67748 1.0651 1.2049 1.8509 0.53549 0.78589 1.1765 1.7062 1.9229 2.7609 1.5416-2.075 2.6004-3.5226 3.1765-4.343 0.57605-0.82723 0.86408-1.3339 0.8641-1.5201-2e-5 -0.23436-0.17041-0.4136-0.51117-0.5377-0.33266-0.12408-0.87628-0.20335-1.6308-0.23783v-0.80656h6.4016v0.80656m-19.217 3.3917h-0.93712c-0.25154-0.62731-0.65722-1.2994-1.217-2.0164-0.55174-0.71693-1.0629-1.103-1.5335-1.1581-0.25966-0.0276-0.58014-0.0517-0.96147-0.0724-0.38135-0.0206-0.70996-0.031-0.9858-0.0311h-0.57201v11.509c-1e-5 0.24818 0.0527 0.46877 0.15822 0.6618 0.10545 0.18613 0.31236 0.33434 0.62069 0.44464 0.1866 0.062 0.47462 0.12753 0.8641 0.19647 0.39755 0.062 0.73427 0.10685 1.0101 0.13442v0.80656h-9.6268v-0.80656c0.23529-0.0206 0.5639-0.0482 0.98581-0.0827 0.43001-0.0414 0.72209-0.0896 0.87627-0.14477 0.31641-0.1103 0.52737-0.25851 0.63285-0.44464 0.10545-0.18612 0.15821-0.40673 0.15822-0.66179v-11.612h-0.57201c-0.27587 1e-5 -0.60447 0.0103-0.9858 0.0311-0.38135 0.0207-0.70184 0.0448-0.96147 0.0724-0.47059 0.0551-0.9858 0.44121-1.5456 1.1581-0.55173 0.71696-0.95335 1.3891-1.2049 2.0164h-0.93712v-4.1982h16.734v4.1982m-17.647 10.475h-9.5781v-0.80656c0.21907-0.0137 0.53955-0.0345 0.96146-0.062 0.43002-0.0276 0.72617-0.0689 0.88844-0.12407 0.3002-0.10341 0.50304-0.23784 0.60853-0.40328 0.11358-0.17234 0.17038-0.38949 0.17038-0.65146v-10.403c0-0.23437-0.0527-0.44119-0.15821-0.62043-0.10545-0.17922-0.31238-0.32399-0.6207-0.4343-0.19473-0.069-0.48276-0.13787-0.86409-0.20681-0.38135-0.0758-0.70995-0.12752-0.98581-0.15511v-0.80656h9.5781v0.80656c-0.24341 0.0207-0.54767 0.0517-0.91277 0.0931-0.36513 0.0345-0.67344 0.0862-0.92495 0.15512-0.31644 0.0896-0.5274 0.23094-0.63287 0.42395-0.10545 0.18614-0.15822 0.39985-0.15822 0.64111v10.392c0 0.24817 0.0527 0.46187 0.15822 0.64111 0.11359 0.17234 0.32453 0.31366 0.63287 0.42395 0.17037 0.062 0.45029 0.12409 0.83975 0.18614 0.39756 0.0551 0.73021 0.0896 0.99797 0.1034v0.80656m-12.055-13.87c-0.8845 0.0987-2.0477 0.14677-2.4604 1.1632-0.42444 1.343-0.22998 2.788-0.27478 4.1827v8.6102h-2.0118c-3.3304-3.783-6.6608-7.566-9.9912-11.349 0.0136 2.5887-0.0293 5.1787 0.0254 7.7664 0.0275 0.88568 0.27364 1.9729 1.1613 2.2662 0.4435 0.41805 1.6968 8e-3 1.6388 0.78246 0.1023 0.43001-0.10992 0.52116-0.47168 0.45124h-6.4227c0.0537-0.34303-0.19301-0.97669 0.34808-0.84182 0.85428-0.10116 1.9819-0.32299 2.2175-1.3825 0.28145-1.4364 0.13124-2.9176 0.16954-4.3756-0.0152-1.6643 0.0316-3.3317-0.0255-4.9939-0.10936-1.188-1.1617-1.8983-2.1587-2.1218-0.64634 0.0762-0.6736-0.36477-0.6188-0.89933 0.14374-0.15491 0.5563-0.0202 0.80186-0.0654h5.2336c2.9235 3.3106 5.8471 6.6211 8.7706 9.9317-0.0175-2.1943 0.0392-4.3909-0.0368-6.5836-0.0268-0.90308-0.39488-1.9439-1.299-2.1689-0.42827-0.36579-1.6153 0.0213-1.4785-0.77882-0.12593-0.45546 0.19412-0.43046 0.51885-0.40041h6.3642v0.80694zm-18.968-5.4533c-1.1013 0.16137-2.5622 0.2974-2.988 1.5263-0.5104 1.7545-0.27871 3.6105-0.33163 5.4155-0.0241 2.0037 0.0546 4.0112-0.0525 6.012-0.21258 2.812-2.4319 5.2144-5.139 5.8688-2.3835 0.56231-4.9726 0.41448-7.253-0.49348-2.1921-0.87031-3.797-2.9975-3.9762-5.3568-0.11274-2.2297-0.0296-4.4665-0.0551-6.6993-7e-3 -1.5446 0.0152-3.0899-0.0119-4.634-0.11053-1.2713-1.565-1.5254-2.5867-1.6668 0.0426-0.32902-0.0838-0.82708 0.0604-1.0545h10.062c-0.098 0.33405 0.22474 1.0568-0.21854 1.0719-1.1377 0.0236-2.715 0.45939-2.4481 1.9259 0.012 3.4868-0.0248 6.9744 0.0198 10.461 0.0593 1.7006 0.68383 3.6108 2.3552 4.3644 1.7036 0.7484 3.8288 0.74527 5.4396-0.23949 1.7781-1.1156 2.2564-3.3818 2.1853-5.3418-0.0253-2.6407 0.0593-5.2847-0.0613-7.9227-0.0791-1.0671-0.39462-2.3841-1.5542-2.736-0.55577-0.44911-2.0361-0.0589-1.8131-1.0436-0.12969-0.51056 0.13825-0.62349 0.60357-0.53905h7.7636v1.0823zm-49.732-3.3189c-2.4762 0.18707-3.9927 2.8442-3.75 5.1562 0.17316 2.6516 2.3301 4.6698 4.6875 5.5938 0.76493 0.56197 2.5341 0.21455 2.2188 1.5 8e-3 2.4411-0.0677 5.118 1.375 7.2188 1.6574 2.328 5.5072 2.5876 7.3438 0.34375 1.4272-1.8246 1.6615-4.2947 1.4375-6.5312-0.18992-1.0686 1.398 0.12248 1.9688 0.28125 1.5925 0.7896 3.0971 2.4803 2.625 4.375-0.14129 0.4469-0.42075 0.83096-0.55583 1.1429-1.0916 2.5208 0.61704 3.1293 1.9621 2.2321 2.4722-1.6491 2.0995-5.882 0.15625-8.1562-1.5737-1.916-3.9552-2.9315-6.3125-3.5-0.0767-1.315-0.0835-2.7834 0.40625-4.0312 0.0539-0.13727 0.12064-0.27497 0.1875-0.40625 1.9552 0.77076 4.262 0.26277 3.6562-2.2812-0.69818-2.9323-2.8035-2.2751-3.25-2.0625-2.6518 1.2625-3.6565 3.7373-4.0312 6.5312-0.16224 0.76586 0.44625 2.1886-0.8125 1.6875-1.1272-0.12951-2.2542-0.081-3.375-0.28125-0.3603-2.6038-0.85154-5.3882-2.625-7.4375-0.83433-0.9059-2.0708-1.4688-3.3125-1.375zm0.25 3c1.2061 0.083 1.5469 1.5614 1.9375 2.5 0.15168 0.76838 0.60601 2.2653 0.28125 2.625-1.4602-0.54509-3.1916-1.5684-3.25-3.3125-7e-3 -0.68831 0.26913-1.6316 1.0312-1.8125zm5.9375 8.8438c1.3579 0.19847 2.7357 0.1383 4.0938 0.34375 0.1812 1.9441 0.39808 4.1217-0.78125 5.8125-0.86413 0.78118-2.5662 0.33276-2.875-0.84375-0.62634-1.6976-0.38261-3.541-0.4375-5.3125zm57.95-57.586h-7.8966c-0.012-0.4437-0.11002-0.96512 0.49657-0.80665 0.7509-0.0319 1.8878-0.26186 1.7625-1.331v-10.158l-5.0111 8.0471h-1.2938l-4.7339-8.202c0.0133 3.0584-0.0279 6.1181 0.023 9.1757 0.0152 0.86517 0.27972 1.9323 1.173 2.1665 0.43979 0.34822 1.5583-3e-3 1.371 0.82376 0.12974 0.46073-0.3817 0.23273-0.63209 0.28512h-5.6318c-0.0304-0.48619-0.0819-0.98422 0.56413-0.83691 0.80505-0.0534 1.7491-0.49409 1.8108-1.4831 0.19526-1.5908 0.0778-3.2021 0.11014-4.8027-0.0213-1.4126 0.0462-2.8303-0.0412-4.2391-0.10095-1.0481-1.122-1.5625-2.0013-1.5918-0.47876 0.17347-0.34662-0.58267-0.2811-0.78519h6.6568l3.594 5.0457 3.1056-3.5546c0.33604-0.43062 0.0506-1.5993 0.71583-1.491h6.1186c0.0771 0.58109-9e-3 0.97699-0.688 0.8326-0.79103-0.0326-1.5245 0.5648-1.3452 1.4656 6e-3 3.1948-0.0105 6.3902 7e-3 9.5846 0.125 1.0306 1.3154 0.96144 2.046 1.1007v0.7552m-50.555 20.255c-0.31769-0.0734-0.90932 0.21412-0.88877-0.30308-0.42537-1.2477-0.96706-2.5331-1.9204-3.4706-0.62542-0.47106-5.5066-0.89806-6.6355-1.0106-1.2358-2e-3 -2.4717-3.8e-4 -3.7075-1e-3v12.355c1.48-0.087 3.5378 0.42951 4.6545-0.33199 1.1789-0.95042 1.3967-2.5765 1.6728-3.9715 0.0132-0.36205 0.86738-0.20955 1.0645-0.14016v11.292c-0.41411-0.0953-1.2619 0.29541-1.0905-0.45058-0.24937-1.2157-0.49053-2.516-1.2226-3.5429-1.0057-1.1872-3.2513-0.73772-4.8569-0.7917-0.46414 0.0118-0.1123 0.83959-0.22191 1.2059 0.0184 3.262-0.0375 6.5265 0.0293 9.7869-0.0134 1.2539 1.1613 2.0079 2.2827 2.1675 0.86627-0.0669 1.0478 0.39881 0.92139 1.1503 0.10909 0.58531-0.0432 0.9092-0.67833 0.75032h-9.8166v-1.7301c1.1829-0.17877 2.8769-0.18477 3.2033-1.6497 0.24123-1.5637 0.0783-3.1613 0.12606-4.7407-9e-3 -6.3166 0.0173-12.634-0.013-18.95 0.0291-1.1098-0.78792-2.0253-1.8458-2.2722-0.73272-0.27133-1.7818-0.19442-1.4706-1.2311 7e-3 -0.46906-0.16542-1.1178 0.52759-0.90106h18.131l1.7556 6.7816m50.903 13.653h-1.3393c-0.71673-1.7959-2.711-3.5548-4.4416-4.4975-2.36-0.6001-2.5978-0.82559-4.2777-0.82559v6.8212c1.1356-0.0506 2.0239 0.17151 3.0882-0.32518 1.0006-0.51768 1.2991-1.7158 1.5424-2.7244h0.92758v7.3689h-0.92758c-0.19959-0.87562-0.44446-1.8162-1.0428-2.5099-0.96748-0.90716-2.0586-0.62855-3.2698-0.67663-0.44372-0.14252-0.30038 0.30202-0.31804 0.58556 0.0196 1.7914-0.0445 3.5858 0.0429 5.3748-8e-3 0.74652 0.58617 1.3921 1.3363 1.4209 1.4878 0.10887 3.0203 0.16505 4.4793-0.1992 0.90226-0.25157 1.3053-1.2129 1.8086-1.9144 0.48014-0.66661 1.7255-2.9746 2.1801-3.5558 0.23048 0.0626 0.72911-0.12727 0.78756 0.0974-0.1079 1.8014-1.1533 4.9779-1.2612 6.7793h-16.245v-0.9709c0.80977-0.12651 1.8568-9e-3 2.38-0.77175 0.27908-0.7467 0.11374-1.5642 0.15867-2.3457-6e-3 -3.704 0.0112-7.4086-8e-3 -11.112-0.0116-1.0018-1.153-1.2322-1.933-1.3863-0.59729 0.0632-0.66469-0.29744-0.59729-0.78819-0.13429-0.44165 0.36652-0.24821 0.63436-0.28773 4.9066 0 8.3991-0.0625 15.483-0.0625 0 2.1687 0.8125 4.3373 0.8125 6.506l-5.8e-4 1e-5zm31.609-6.6349c-1.263 2e-5 -2.4417 0.19034-3.5626 0.62502-1.113 0.42667-2.0933 1.0469-2.9063 1.8438-0.82091 0.81307-1.464 1.7945-1.9376 2.9376-0.46571 1.1351-0.68752 2.4119-0.68752 3.8126 0 1.3444 0.23728 2.5615 0.71877 3.6564 0.4815 1.0948 1.1479 2.0166 1.9688 2.7813 0.82881 0.78086 1.7858 1.3707 2.8751 1.7813 1.0893 0.41054 2.2454 0.62502 3.4688 0.62502 1.5155 0 2.8092-0.22061 3.9064-0.68752 1.0972-0.47495 2.062-1.1548 2.8751-2.0001 0.77353-0.81306 1.3708-1.7793 1.7813-2.9063 0.41045-1.127 0.59375-2.3148 0.59376-3.5626-1e-5 -1.4007-0.22939-2.6553-0.71877-3.7501-0.48151-1.0948-1.14-2.0085-1.9688-2.7813-0.80514-0.74864-1.77-1.3314-2.8751-1.75-1.0972-0.41858-2.2763-0.625-3.5314-0.62502zm0 1.1563c0.83669 1e-5 1.5334 0.24478 2.0938 0.68752 0.56042 0.44276 1.0356 1.0175 1.375 1.75 0.33151 0.73257 0.5533 1.5582 0.68752 2.5001 0.14201 0.93381 0.21873 1.9162 0.21875 2.9063-2e-5 1.1673-0.0922 2.1993-0.25 3.1251-0.15789 0.92577-0.39484 1.7675-0.75003 2.5001-0.33153 0.70037-0.78337 1.2538-1.3438 1.6563-0.56045 0.4025-1.2499 0.59377-2.0313 0.59377-0.79724 0-1.4554-0.19931-2-0.59377-0.54466-0.40249-0.98859-0.97109-1.3438-1.6876-0.34731-0.70841-0.61552-1.5189-0.78127-2.4688-0.15791-0.94991-0.21876-1.9607-0.21876-3.0313 0-2.5197 0.3518-4.4673 1.0938-5.8439 0.74198-1.3846 1.8214-2.0938 3.2501-2.0938zm-28.813-0.68703v0.9375c0.81679 0.1052 1.8627 0.1259 2.3438 0.9062 0.27402 0.81127 0.11257 1.6878 0.15625 2.5318-6e-3 3.5176 0.0118 7.0359-9e-3 10.553-0.0272 1.1457-1.3095 1.1703-2.1522 1.2361-0.53026-0.10076-0.22964 0.56875-0.30773 0.88803 0.14406 0.16844 0.60119 0.0238 0.86547 0.072 2.82-0.0138 5.6411 0.029 8.4604-0.0243 2.8923-0.15774 5.9608-1.1947 7.7459-3.5983 1.6112-2.1111 1.7888-4.9976 1.1631-7.4993-0.7226-2.6714-3.0258-4.6881-5.6285-5.4664-2.2551-0.70477-4.6318-0.50805-6.9583-0.53662-1.8931 7e-5 -3.7864-1.3e-4 -5.6793 1e-4zm8.4375 1.0938c1.9703-0.0857 3.8283 1.2076 4.5643 3.0137 1.0808 2.551 1.0683 5.4563 0.48272 8.1267-0.3519 1.5484-1.346 3.059-2.9298 3.5389-1.1263 0.33992-2.5814 0.48989-3.4913-0.40656-0.57443-0.81179-0.31781-1.8408-0.37591-2.7688v-11.473c0.58405 0.0159 1.1663-0.0231 1.75-0.0312zm-29.359 5.0719h-1.3393c-0.71673-1.7959-2.711-3.5548-4.4416-4.4975-2.36-0.6001-2.5978-0.82559-4.2777-0.82559v6.8212c1.1356-0.0506 2.0239 0.17151 3.0882-0.32518 1.0006-0.51768 1.2991-1.7158 1.5424-2.7244h0.92758v7.3689h-0.92758c-0.19959-0.87562-0.44446-1.8162-1.0428-2.5099-0.96748-0.90716-2.0586-0.62855-3.2698-0.67663-0.44372-0.14252-0.30038 0.30202-0.31804 0.58556 0.0196 1.7914-0.0445 3.5858 0.0429 5.3748-8e-3 0.74652 0.58617 1.3921 1.3363 1.4209 1.4878 0.10887 3.0203 0.16505 4.4793-0.1992 0.90226-0.25157 1.3053-1.2129 1.8086-1.9144 0.48014-0.66661 1.7255-2.9746 2.1801-3.5558 0.23048 0.0626 0.72911-0.12727 0.78756 0.0974-0.1079 1.8014-1.1533 4.9779-1.2612 6.7793h-16.245v-0.9709c0.80977-0.12651 1.8568-9e-3 2.38-0.77175 0.27908-0.7467 0.11374-1.5642 0.15867-2.3457-6e-3 -3.704 0.0112-7.4086-8e-3 -11.112-0.0116-1.0018-1.153-1.2322-1.933-1.3863-0.59729 0.0632-0.66469-0.29744-0.59729-0.78819-0.13429-0.44165 0.36652-0.24821 0.63436-0.28773 4.9066 0 8.3991-0.0625 15.483-0.0625 0 2.1687 0.8125 4.3373 0.8125 6.506l-5.8e-4 1e-5zm-36.269-6.1673v0.93768c0.74977 0.19759 1.729 0.18555 2.1926 0.90642 0.21318 0.8644 0.0794 1.7708 0.11694 2.6557-6e-3 3.4606 0.0124 6.9219-9e-3 10.382 0.0158 1.0203-1.1323 1.2295-1.9262 1.2679-0.57528-0.12309-0.32017 0.49871-0.37407 0.84319 0.0222 0.29033 0.56161 0.0635 0.80233 0.13535h7.5882v-0.93768c-0.8345-0.16708-2.1067-0.25946-2.1248-1.3829-0.0215-1.7994-3e-3 -3.5999-9e-3 -5.3997 0.59117-0.15528 0.89508 0.26947 1.171 0.7428 1.6677 2.2316 3.1657 4.5838 4.5884 6.9774h6.0517v-0.93768c-0.92025-0.0348-1.8191-0.35704-2.3528-1.1479-1.6795-2.0401-3.1155-4.2666-4.6928-6.3848 1.6397-0.49246 3.3254-1.5828 3.692-3.3721 0.35462-1.4612 0.0942-3.2488-1.2251-4.1563-1.7908-1.2652-4.0726-1.1222-6.1639-1.1294h-7.3247zm6.2563 1.094c1.2487-0.0197 2.6861-0.0425 3.5706 0.99221 0.89134 1.1244 0.80597 2.7119 0.46889 4.0304-0.3556 1.4327-1.872 2.2209-3.271 2.135-0.22905-0.0772-0.78168 0.1691-0.76844-0.15044v-7.0072zm-9.6991-41.75c-1.2028 0.068-2.4581 0.67307-2.9544 1.8287l-5.2933 11.196h-2.4126l-6.5008-11.545c-0.55643-1.0071-1.756-1.3977-2.8359-1.4984 0.0763-0.22282-0.16661-0.76476 0.14748-0.74975h9.0828c0.0373 0.4782 0.0691 0.94661-0.59641 0.79424-0.69253 0.0476-2.1578 0.20411-1.4057 1.2093l4.8931 6.5026 3.2597-5.843c0.47184-0.70851 0.35342-1.7207-0.68183-1.7075-0.48487-0.29336-1.7393 0.21626-1.604-0.57999-0.13472-0.44021 0.21252-0.39845 0.54079-0.37567h6.3609v0.76897zm14.086 2.7084h-0.83282c-0.47968-1.0322-1.2802-2.0028-2.3529-2.443-1.0136-0.259-2.0765-0.14706-3.1146-0.17331h-1.3156v5.271c1.0191-0.0399 1.3943 0.13386 2.3657-0.2513 0.84112-0.35194 1.171-1.2918 1.3848-2.1053h0.83281v5.6942h-0.83281c-0.2059-0.75457-0.45111-1.6233-1.1335-2.085-0.9673-0.54895-1.4278-0.33204-2.4912-0.37737-0.26777-0.0211-0.061 0.43237-0.12585 0.61418 0.0176 1.3303-0.0399 2.6638 0.0385 3.9916 4e-3 0.64191 0.59445 1.0827 1.1997 1.098 1.3698 0.0849 2.774 0.13459 4.1197-0.17967 0.74709-0.23421 1.1463-0.99086 1.6064-1.5684 0.44157-0.44494 0.62261-1.306 1.1112-1.5707 0.18681 0.0617 0.65167-0.13589 0.62763 0.12254-0.0958 1.3763-0.19157 2.7526-0.28735 4.1289h-14.585v-0.75025c0.71969-0.10625 1.6177 0.0164 2.1368-0.5963 0.24707-0.57614 0.10427-1.2227 0.14246-1.8343-5e-3 -2.855 0.01-5.7105-7e-3 -8.5652-0.0645-0.84818-1.0851-0.93538-1.7355-1.0713-0.51054 0.0603-0.60528-0.21979-0.53626-0.65441-0.0783-0.32842 0.38221-0.11795 0.57323-0.17702h13.212v3.4819m4.2715-3.4887c0.0518 0.33454-0.19688 0.93047 0.36768 0.81672 0.72172 0.158 1.6844 0.12865 2.1268 0.8108 0.15893 0.79416 0.0476 1.621 0.0808 2.43-8e-3 2.604 0.0166 5.2092-0.0125 7.8125-0.17417 0.96164-1.3802 0.9255-2.1422 0.99503-0.60198-0.17091-0.38438 0.43155-0.4206 0.79313h9.3489c-0.0482-0.34141 0.19576-0.94845-0.38623-0.80136-0.74114-0.10011-1.8325-0.13619-2.0002-1.0584-0.0287-1.4356-4e-3 -2.8731-0.0125-4.3094 0.43716-0.0231 0.87837-0.0543 1.126 0.39804 1.9081 1.798 1.6593 3.753 3.33 5.7712h6.7382c-0.0422-0.36189 0.19361-0.97254-0.42795-0.80643-0.88569 0.0202-1.6891-0.3805-2.3149-0.9886l-3.089-4.9572c6.4254-0.19167 4.4136-6.9056-3.5533-6.9059-2.9196-1.1e-4 -5.8397 2.3e-4 -8.759-1.7e-4h6e-5zm6.9499 0.89009c1.4459-4e-3 3.0933-0.0835 4.2075 0.99924 0.77929 0.89356 0.67196 2.2881 0.17343 3.2906-0.78378 1.2874-2.4502 1.4495-3.8225 1.4191-0.30341 2e-3 -0.70115 0.099-0.55844-0.34483v-5.3641zm95.257 58.098h-8.8913c-0.0135-0.58174-0.12383-1.2654 0.55913-1.0576 0.84548-0.0418 2.1255-0.34332 1.9845-1.7451v-13.319l-5.6423 10.551h-1.4568l-5.3302-10.754c0.0149 4.0099-0.0314 8.0214 0.0259 12.03 0.0172 1.1343 0.31496 2.5335 1.3208 2.8405 0.49517 0.45654 1.7546-4e-3 1.5437 1.08 0.14607 0.60407-0.42978 0.30514-0.71172 0.37383h-6.3412c-0.0342-0.63745-0.0922-1.2904 0.6352-1.0973 0.90645-0.0701 1.9694-0.6478 2.0389-1.9445 0.21984-2.0857 0.0876-4.1982 0.12394-6.2968-0.0239-1.852 0.052-3.7108-0.0463-5.5579-0.11366-1.3741-1.2634-2.0486-2.2533-2.0869-0.53906 0.22744-0.39029-0.76394-0.31651-1.0295h7.4953l4.0468 6.6154 3.4968-4.6605c0.37837-0.56459 0.057-2.0969 0.80599-1.9549h6.8893c0.0868 0.76186-0.01 1.2809-0.77466 1.0916-0.89067-0.0427-1.7166 0.74051-1.5146 1.9215 6e-3 4.1887-0.0115 8.3782 8e-3 12.566 0.14075 1.3512 1.4811 1.2606 2.3038 1.4432v0.99014m-54.775-59.367c-2.4578-9e-3 -5.0935 0.99988-6.5386 3.2899-1.5235 2.3311-1.5849 5.7783 0.0627 8.0553 1.561 2.2407 4.252 3.168 6.7454 3.0668 1.9164-5e-3 3.8642-0.66337 5.306-2.0842 2.3765-2.2032 2.7987-6.4792 0.89499-9.182-1.3742-2.0457-3.7381-2.9793-5.98-3.1322-0.16336-9e-3 -0.32693-0.0137-0.4905-0.0137zm0 0.95293c1.183-0.075 2.301 0.69672 2.8507 1.8284 0.69303 1.4509 0.81327 3.1441 0.8208 4.7556-0.0453 1.7726-0.29428 3.7486-1.4963 5.0539-0.96872 1.0163-2.5256 1.1057-3.7066 0.5221-1.4311-0.87307-1.9637-2.7744-2.1088-4.4565-0.14388-2.0741-0.10005-4.3293 0.93663-6.1454 0.57246-1.0107 1.6265-1.5911 2.7035-1.5581zm26.124 0.1819c-0.83855 0.0827-1.9364 0.16768-2.2882 1.0818-0.39563 1.2433-0.21346 2.5705-0.25555 3.8558v8.0417h-1.871c-3.0974-3.5182-6.1947-7.0365-9.2921-10.555 0.0128 2.4075-0.0275 4.8161 0.0236 7.2228 0.0229 0.84475 0.26552 1.9011 1.1983 2.1537 0.40421 0.33781 1.5376 2e-3 1.4059 0.71165 0.10221 0.38245-0.11386 0.44661-0.45117 0.38954h-5.9608c0.073-0.25471-0.18444-0.8105 0.2122-0.76973 0.8508-0.0842 1.9693-0.31008 2.1739-1.2989 0.26217-1.351 0.12181-2.7378 0.15767-4.1061-0.0143-1.5356 0.0296-3.0737-0.0236-4.6076-0.0862-1.0557-1.039-1.7603-2.0077-1.9733-0.61183 0.0596-0.62263-0.33937-0.57551-0.80424 0.056-0.2156 0.51086-0.0324 0.72187-0.093h4.8912c2.7189 3.0789 5.4379 6.1577 8.1568 9.2366-0.0161-2.0408 0.0362-4.0834-0.0342-6.1228-0.0331-0.8113-0.32806-1.7828-1.2081-2.0171-0.40017-0.32765-1.5095-7e-3 -1.375-0.70717-0.10221-0.38245 0.11386-0.44661 0.45117-0.38954h5.9503v0.75047zm18.247 3.1582h-0.90636c-0.47662-1.0253-1.1328-2.0172-2.0404-2.7074-0.64419-0.41318-1.4571-0.25623-2.1816-0.33609-0.24222 0.0852-0.83288-0.16674-0.8749 0.12468 6e-3 3.5797-0.0127 7.1601 0.01 10.739 0.0973 0.96927 1.256 0.96993 1.9873 1.1012 0.55372-0.0967 0.63684 0.21399 0.56925 0.66763 0.0372 0.30145-0.44584 0.0827-0.6437 0.14906h-8.6672c0.0536-0.2306-0.1114-0.66225 0.0896-0.75738 0.74405-0.10762 1.6136 0.0234 2.2278-0.49416 0.39709-0.51936 0.20124-1.2049 0.24866-1.8113v-9.7232c-0.89933 9e-3 -1.8139-0.0186-2.6972 0.1575-1.0278 0.46614-1.6352 1.5119-2.19 2.4448-0.0553 0.51759-0.45983 0.46428-0.85337 0.44523-0.38563 0.12642-0.23819-0.28023-0.26266-0.51496v-3.3881h16.185v3.9031z" fill="#f9d32b" stroke="#000" stroke-width=".5"/><text transform="scale(1.0849 .92176)" x="101.43168" y="401.38669" fill="#000000" font-family="Georgia" font-size="22.975px" font-weight="bold" style="line-height:125%" xml:space="preserve"><tspan x="101.43168" y="401.38669">NITY</tspan></text><path d="m54.87 179.65c-2.9772 0.16206-5.905 2.4428-6.501 5.4016-0.16927 2.052-0.0203 4.1803 0.88509 6.0608-0.0844 1.0284-2.2506-1.5148-2.9323-2.165-1.8478-2.1522-4.093-4.3191-7.0918-4.5186-2.7466-0.32006-6.4826 7e-3 -7.7061 2.933-1.1959 2.8262-0.58108 6.9884 2.5885 8.1998 2.867 0.78252 6.8402-0.26707 7.5351-3.5446 1.1185-2.4325-1.4236-5.0494-3.9121-4.4344-2.7049 0.16961-3.9535 3.9224-1.7114 5.5441 0.69882 0.70276 3.0727 0.9163 0.75715 1.1522-1.9205 0.55652-4.005-0.68488-4.2472-2.7085-0.35409-1.9968 0.0132-4.7865 2.33-5.3784 3.0722-0.98506 6.7905-0.37214 8.9395 2.1788 1.7104 1.8412 3.3529 3.8306 5.6294 4.9981 0.62049 0.89266-2.3745 0.92153-3.0788 1.6627-2.0871 0.93112-4.2498 2.7285-4.077 5.2403-9.6e-4 2.4338 1.905 4.5322 4.0962 5.317 2.1438 0.51718 5.0137-0.59531 5.0327-3.1113 9e-3 -3.0449-4.2434-4.2457-6.2793-2.2994-0.67011 0.44614-1.1916 2.61-1.3734 0.57853-0.57282-2.2912 1.6302-3.679 3.3561-4.5674 1.8025-0.7909 3.8522-1.8297 5.827-1.516 2.5864 0.50757 5.2913 0.62814 7.8973 0.42667 1.066-2.0234-2.3567-1.1763-3.4868-1.3921-1.7949-0.10206-3.6914-0.14676-5.351-0.87338-1.2084-1.1365-1.8026-2.8293-2.1912-4.4029-0.0988-1.8189-0.3291-3.9362 1.1213-5.3236 0.78596-0.85135 3.1814-2.6081 1.7647-0.45289-0.55296 2.5903 2.2319 4.4134 4.5525 4.2643 2.2392 0.0794 4.9416-1.7735 4.3572-4.2571-0.632-2.3672-3.305-3.0227-5.456-2.9505-0.42497-0.015-0.8502-0.0285-1.2742-0.062z" color="#000000" fill="#f9d32b" stroke="#000" stroke-width=".5" style="block-progression:tb;text-indent:0;text-transform:none"/><path d="m77.563 263.12v0.96875c0.88591 0.48033 1.79 0.94485 2.6875 1.4062h126.25c1.4802-0.76105 2.9264-1.5627 4.375-2.375h-133.31z" color="#000000" fill="#f9d32b" stroke="#694217" stroke-opacity=".99216" stroke-width="1.0998"/><path d="m155.03 266.77c-2.6623 0.0583-4.5321 0.61742-6.375 1.1562-1.8429 0.53883-3.6526 1.064-6.4375 1.125-2.7724 0.0607-4.4652-0.44743-6.125-0.96875s-3.327-1.0843-5.75-1.0312c-2.494 0.0546-4.5201 1.008-6.4688 1.875-1.9486 0.86698-3.8002 1.6624-6.1562 1.6562-2.3239-6e-3 -4.58-0.97472-6.6875-1.9375-2.1075-0.96278-4.0482-1.9825-6-1.7812-3.345 0.34486-5.5185 1.9952-8.5938 2.0625-2.5059 0.0549-5.9466 0.28492-8 0.4375 1.0355 0.44893 2.0765 0.88836 3.125 1.3125 1.7459-0.11061 3.5854-0.22108 4.9062-0.25 3.6334-0.0796 5.9356-1.8036 8.75-2.0938 1.1279-0.11632 2.9258 0.71141 5.0625 1.6875s4.6284 2.0553 7.4062 2.0625c2.7458 7e-3 4.9385-0.93701 6.9062-1.8125 1.9677-0.87549 3.7134-1.6735 5.7812-1.7188 2.1389-0.0468 3.4981 0.4381 5.1875 0.96875 1.6894 0.53065 3.6904 1.0969 6.6875 1.0312 2.9846-0.0654 5.0198-0.64507 6.875-1.1875 1.8552-0.54242 3.5012-1.0404 5.9375-1.0938 4.802-0.10515 8.9157 2.4022 14.438 2.2812 2.7196-0.0596 4.8081-0.56458 6.75-1.0938 1.9419-0.52918 3.7325-1.0477 5.9688-1.1562 2.2739-0.11041 3.8795 0.063 6.125 0.625 1.6103 0.40307 3.8045 1.1032 6.4375 1.9062 0.76461-0.30649 1.5235-0.61781 2.2812-0.9375-3.592-1.0771-6.2307-1.893-8.2812-2.4062-2.3479-0.58769-4.2372-0.80492-6.6562-0.6875-2.4567 0.11922-4.3878 0.66299-6.3125 1.1875-1.9247 0.52451-3.8306 1.0075-6.3438 1.0625-4.9438 0.10826-9.0423-2.3994-14.438-2.2812zm1.6875 4.1875c-0.30169-3e-3 -0.61177 0.0159-0.9375 0.0312-5.1522 0.24267-9.147 2.0734-13.219 2.2812-1.9674 0.1004-3.1225-0.40141-4.5938-1s-3.2402-1.2502-5.9375-1.125c-2.7117 0.1259-4.986 1.002-7.2812 1.7812-2.2953 0.7793-4.5969 1.4622-7.4688 1.4062-2.8943-0.0564-4.6772-0.69712-6.3438-1.3438-1.6666-0.64662-3.2883-1.3423-5.5-1.1562-3.7786 0.31786-4.3853 0.46854-6.875 1.4688 0.74694 0.25577 1.4974 0.47547 2.25 0.71875 1.19-0.38994 2.0174-0.45501 4.7812-0.6875 1.8072-0.15203 3.0298 0.37597 4.7188 1.0312 1.6889 0.65528 3.7877 1.4074 6.9375 1.4688 3.1723 0.0618 5.701-0.7401 8.0312-1.5312s4.46-1.5456 6.8438-1.6562c2.3982-0.11133 3.7425 0.4121 5.1875 1s3.0207 1.2436 5.3438 1.125c4.509-0.23015 8.4485-2.0566 13.219-2.2812 2.3554-0.11089 3.82 0.31804 5.3125 0.78125 1.4925 0.46321 3.0528 0.98977 5.2188 0.875 2.0922-0.11083 3.1552-0.49817 4.0312-0.8125 0.87604-0.31434 1.544-0.58422 3.4062-0.625 3.695-0.081 13.131 0.9626 13.188 0.96875 1.7e-4 2e-5 0.0312 0 0.0312 0 0.21012-0.07 0.41533-0.1478 0.625-0.21875 0.0218-7e-3 0.0407-0.0239 0.0625-0.0312a0.81153 0.75584 0 0 0-0.53125-1.25s-9.3302-1.058-13.406-0.96875c-2.0288 0.0444-3.082 0.40057-3.9688 0.71875-0.88678 0.31819-1.6327 0.6165-3.5625 0.71875-1.8561 0.0984-3.0444-0.34136-4.5625-0.8125-1.3283-0.41225-2.8882-0.85684-5-0.875zm-2.5 3.6875c-0.33506 4e-3 -0.67936 7e-3 -1.0312 0.0312-5.5282 0.37894-9.4813 2.1904-12.344 2.0312-3.0047-0.16709-6.3366-1.6082-11.469-1.625-2.6924-9e-3 -5.0003 0.93747-7 1.7812s-3.6864 1.5141-5.0312 1.3438c-0.3884-0.0492-0.90276-0.13338-1.5-0.25 1.8083 0.36528 3.6356 0.70605 5.4688 1 0.56214-0.22153 1.1157-0.47748 1.6875-0.71875 1.9852-0.83767 4.0686-1.6637 6.3438-1.6562 4.803 0.0157 7.958 1.4333 11.406 1.625 3.5905 0.19967 7.3382-1.6753 12.531-2.0312 2.5455-0.17449 4.6355 0.27972 6.6562 0.75 2.0208 0.47028 3.995 0.97242 6.3125 0.71875 3.3582-0.36757 6.8102-0.93286 10.25-0.9375 1.2654-0.31132 2.5299-0.62285 3.7812-0.96875a0.81153 0.75584 0 0 0-0.625-0.40625c-4.7464-0.54428-9.3249 0.34867-13.562 0.8125-1.9666 0.21525-3.782-0.21496-5.8125-0.6875-1.7766-0.41347-3.717-0.8391-6.0625-0.8125zm-49.5 0.59375c3.0007 0.87223 6.0438 1.6107 9.125 2.2812-1.4582-0.32636-3.1323-0.70639-4.6562-1.0938-2.4083-0.61216-3.674-0.9702-4.4688-1.1875z" color="#000000" fill="#01306c" stroke="#000" stroke-linecap="round" stroke-width=".5" style="block-progression:tb;text-indent:0;text-transform:none"/><path d="m67.956 198.24c-2.2013-0.55815-4.2934 1.7912-2.942 3.8568 0.20098 0.11023 0.67391-3.1511 2.5098-3.1515 2.5371-0.93176 5.3002 2.0113 3.9795 4.4529-1.5088 2.4009-5.3952 2.16-7.2084 0.22226-2.4097-2.1881-0.88717-6.9653 2.5179-6.8804h137c3.4051-0.0849 4.9276 4.6923 2.5179 6.8804-1.8132 1.9377-5.6996 2.1786-7.2084-0.22226-1.3207-2.4416 1.4424-5.3847 3.9795-4.4529 1.8359 4.1e-4 2.3088 3.2618 2.5098 3.1515 1.3514-2.0656-0.74069-4.4149-2.942-3.8568h-134.71z" color="#000000" fill="#f9d32b" stroke="#000" stroke-width=".5" style="block-progression:tb;text-indent:0;text-transform:none"/><path d="m7.0316 175.68a0.75406 0.75406 0 0 0-0.25 0.125c0.10653 0.46149 0.23263 0.91528 0.34375 1.375a0.75406 0.75406 0 0 0 0.125 0h52.5c3.4422 0 5.4439 2.1394 6.2188 5.25s0.12602 7.1351-1.9688 10.375l-0.71875 1.1562h1.375 138.12 1.375l-0.75-1.1562c-2.0948-3.2399-2.7123-7.2644-1.9375-10.375s2.7765-5.25 6.2188-5.25h69.531c0.12117-0.50131 0.25929-0.99659 0.375-1.5h-69.906c-4.1022 0-6.7652 2.8288-7.6562 6.4062-0.7994 3.2094-0.25528 7.0204 1.5312 10.375h-135.69c1.7865-3.3546 2.3306-7.1656 1.5312-10.375-0.89107-3.5774-3.554-6.4062-7.6562-6.4062h-52.5a0.75008 0.75008 0 0 0-0.15625 0 0.75406 0.75406 0 0 0-0.0625 0z" color="#000000" fill="#f9d32b" stroke="#000" stroke-width=".5" style="block-progression:tb;text-indent:0;text-transform:none"/><path d="m216.02 173.55c-6.2381 0.14481-10.046 6.6402-10.446 12.267-0.6957 4.8072 2.6296 9.5463 7.416 10.458 4.499 1.5128 8.2062-2.1534 11.253-4.8189 4.9285-4.1903 9.4614-9.2919 15.614-11.722 6.2639-2.8214 14.003 3.1938 13.014 9.9261-0.33918 4.0452-4.6909 5.5989-8.1998 4.8799-3.1132 0.46791-7.1714-4.0303-4.3376-5.941 2.142 3.6594 8.8753 0.37819 6.7008-3.5661-2.3384-3.9004-7.8564-1.4742-8.4304 2.4865-1.9554 3.8122 1.1437 8.0943 5.2121 8.3048 3.9963 0.85524 9.1435-0.37088 10.206-4.8856 2.1082-7.5609-6.1586-15.269-13.583-12.883-5.8961 1.612-10.085 6.3575-14.681 10.051 1.2376-3.5039-0.47616-8.9775-4.9397-9.4048-4.0143-1.6923-9.9016 2.5063-5.8125 6.2777 2.6191 2.3093 6.6562-1.1292 5.2557-4.1443 0.0466-2.4368 5.8848 2.1144 4.4326 4.9144-0.2898 4.5811-4.2904 7.9466-8.3601 9.3444-4.9211 0.78215-10.265-3.6144-9.361-8.8009 0.17689-5.193 3.596-11.397 9.4295-11.342 19.743-0.0352 39.491 0.0354 59.236-0.0352 0.37544-1.0152-0.29438-1.2486-1.2886-1.3354-19.425 3e-3 -38.888-0.0301-58.329-0.0301v-3e-5z" color="#000000" fill="#f9d32b" stroke="#000" stroke-linecap="round" stroke-width=".5"/><path d="m6.4378 171.43a0.7526 0.7526 0 0 0-0.5 0.34375c0.0688 0.34491 0.14736 0.68727 0.21875 1.0312a0.7526 0.7526 0 0 0 0.46875 0.125h271.56c0.10426-0.5 0.21363-0.99804 0.3125-1.5h-271.88a0.75008 0.75008 0 0 0-0.125 0 0.7526 0.7526 0 0 0-0.0625 0z" color="#000000" fill="#f9d32b" stroke="#000" stroke-width=".5" style="block-progression:tb;text-indent:0;text-transform:none"/><path d="m110.56 21.086c-9.4138 0.73844-18.618 4.1255-28.131 3.432-3.1221-2.0916-10.19-0.36324-9.935 2.396 5.546 0.23701 10.889 2.6036 16.502 1.5379 8.0458-0.49363 15.836-3.4706 23.907-3.2296 8.5369 1.5339 17.104 3.8294 25.861 2.678 12.919-0.83357 25.857-3.1677 38.809-1.3621 9.276 1.062 18.724 1.4596 27.868-0.80139 3.3537-0.49272 8.269-1.4232 2.6862-3.2578-5.0661-2.0978-10.97 1.727-16.504 0.98194-12.415-0.43967-24.839-2.7246-37.26-0.93894-11.193 0.84469-22.672 3.104-33.709-0.09096-3.3181-0.70869-6.6788-1.4551-10.093-1.3451zm-3.4375-5.2188c-6.7604 0.5961-13.993 0.07083-20.321 2.593-2.5593 0.91242-7.2329 3.275-1.7713 2.8422 10.678 0.05267 21.309-2.6244 31.979-0.7826 8.4084 1.2235 16.916 1.6113 25.362 0.53685 9.3788-0.66624 18.837-1.1383 28.173 0.27602 8.697 0.11793 17.417-1.6727 26.079-0.05709 2.9821 0.31882 10.04-0.88802 3.8644-2.5567-5.5862-2.6595-12.129-2.1752-18.194-1.9526-6.1649 0.67133-12.369 0.83686-18.505-0.18976-12.977-1.1673-25.808 2.9268-38.786 1.2179-5.979-0.46801-11.873-1.7802-17.88-1.9272zm3.4375-4.8125c-5.9399 0.07195-11.462 2.8392-17.031 4.6562 5.1692 0.77375 10.701-0.91246 16.026-0.63879 5.13-0.71122 9.9571 1.1915 14.886 2.0481 10.597 1.2174 21.023-2.3896 31.639-1.6218 11.863 0.77222 23.108 1.6565 35.668-0.35001-5.5904-2.9973-11.605-2.6543-17.704-2.4578-11.335-0.64412-22.748-2.2284-34.054-0.26121-6.8635 0.98338-14.02 2.0157-20.675-0.59997-2.8435-0.83359-5.8202-0.82022-8.7546-0.77478zm28.75-4.4687c-9.5413 0.27244-19.058 1.5055-28.344 3.7187 11.698-0.98963 23.465-0.30388 35.117 0.92353 8.841 0.29735 17.658-0.9914 26.511-0.88395 6.4587 0.12307-3.6642-1.4526-5.7388-1.8728-5.6186-0.98078-11.291-1.7565-16.986-1.1168-3.5333-0.0058-7.0483-0.41794-10.559-0.76875z" color="#000000" fill="#3987cc" style="block-progression:tb;text-indent:0;text-transform:none"/><path d="m213.81 25.648c-11.561 2.044-23.482 5.1936-35.204 2.4961-10.078-2.2123-20.469-1.0042-30.362 1.5132-9.1061 1.9247-18.59 1.1563-27.413-1.6991-9.2931-2.6243-18.907-0.40688-27.949 2.0956-8.4244 2.0229-15.218-1.5965-23.662-1.9497-2.9856 0.27306-9.4727 4.8032-3.2409 3.4729 7.1801-0.72718 13.663 3.9534 20.891 3.2452 9.4514-0.39256 18.331-5.2338 27.943-3.8916 7.8877 1.0858 15.452 4.4405 23.573 3.7697 11.005 0.05614 21.479-4.9526 32.568-3.579 8.311 0.9383 16.629 3.2456 25.032 1.5752 6.77-0.8774 13.531-1.9694 20.179-3.516 2.9892-1.7384-1.2389-2.4565-2.3556-3.5325z" color="#000000" fill="#2c5d8b" style="block-progression:tb;text-indent:0;text-transform:none"/><g id="c" transform="translate(-12.198 -153.98)" stroke-width=".5"><path d="m74.062 359.41c-1.6794-0.0884-1.8733 1.4804-3.9062 2.1875s-4.4965 0.99204-5.4688 2.4062c-0.97227 1.4142-1.0509 1.9958-0.87408 2.9681 0.17678 0.97227-0.83815 2.2284 0.34283 2.6882 0.36929 0.14377 2.0457-0.30555 2.6403-0.28701 1.3676 0.0427 1.8469 0.37995 2.0472 0.53701 0.11613 0.091 0.2914-0.0143 0.4375-0.0312 0.58017 1.5913 1.1444 3.6835 1.5075 5.2093 0.15342 0.64471 0.53644 0.86574 0.52912 1.2695-0.0137 0.75594-0.27317 0.51956-0.38874 0.87986-0.6737 2.1005-2.8034 4.4585-2.7104 6.9851 3.3145 2.0015 9.133 2.6479 13.25 0.8125 0.0082-2.1936-1.7124-4.7676-2.6518-7.5957-0.1309-0.3941-0.5861-0.46141-0.60377-1.0048-0.01447-0.44493 0.38501-0.65094 0.49685-1.0394 0.52431-1.8212 2.2856-4.2967 3.6906-5.9918 0.74711 0.18484 0.45222-0.35855 1.2263-0.242 0.83072 0.12499 2.3109 0.97454 2.6953 0.49314 1.812-2.2692 0.10891-2.2152-0.5098-4.9634-0.55896-2.4828-2.3045-2.1875-3.7188-2.1875s-2.2117-1.1616-4.1562-1.25c-1.9446-0.0884-2.1956-1.7554-3.875-1.8438v-5e-5 3.5e-4 -8e-5z" color="#000000" fill="#f9d32b" stroke="#694217" stroke-opacity=".99216" stroke-width=".5"/><path d="m78.119 369.87c-2.5938 0.10417-5.1875 0.20833-7.7812 0.3125 1.3812 3.5498 3.2262 7.9665 0.33378 11.252-0.96566 3.4743 6.1663 4.3479 5.9792 0.77185-1.4179-2.887-2.712-6.1496-0.73387-9.1598 0.62462-1.1311 1.4532-2.1285 2.2022-3.1762z" color="#000000" fill="#fcea8f"/><path d="m72.057 362c-1.0095 2.2031-6.0616 1.1257-5.0967 4.2418 2.2426 1.128 4.8114-0.61024 7.2242 0.11084 1.5869-0.61223 3.9683 0.18961 5.039-0.73104-0.47117-2.042-3.1926-1.4264-4.6371-2.283-0.90442-0.28563-1.8767-0.57406-2.5293-1.3386z" color="#000000" fill="#fcea8f"/><path d="m68.953 369.74c0.97227 0.0884 0.88388-0.13259 2.3865-0.22097 1.5026-0.0884 1.9887 0.22097 3.4913 0.22097s1.8559-0.354 2.7842-0.7955c0.83252-0.39596 0.50014-0.99439 0.91904-1.5536 0.43079-0.57506 1.3477-0.98365 1.4591-1.6374 0.16206-0.95056-0.87557-1.9798-0.87557-1.9798" color="#000000" fill="none" stroke="#694217" stroke-linecap="round" stroke-opacity=".99216" stroke-width=".5"/><path d="m67.539 363.95c-1.0165 0.97227-1.4142 2.1655 0.13258 2.8284 1.5468 0.66291 2.5633-0.39775 3.7123-0.30936 1.149 0.0884 2.3423-0.7955 2.3423-0.7955" color="#000000" fill="none" stroke="#694217" stroke-linecap="round" stroke-opacity=".99216" stroke-width=".5"/><path d="m79.781 370.05c0.57452-0.44195 1.6352-0.75131 2.0329-0.75131 0.39775 0 0.7513 0.13259 0.7513 0.13259" color="#000000" fill="none" stroke="#694217" stroke-linecap="round" stroke-opacity=".99216" stroke-width=".5"/><path d="m81.715 368.17c1.093-0.17843 1.9607-0.2486 1.974-1.087 0.01323-0.83842-0.37732-2.6616-0.37732-2.6616" color="#000000" fill="none" stroke="#694217" stroke-linecap="round" stroke-opacity=".99216" stroke-width=".5"/><path d="m64.391 366.25c-0.04419 0.92807-0.30936 1.6352 0.08839 2.0771 0.39775 0.44194 2.74 0.30936 2.74 0.30936" color="#000000" fill="none" stroke="#694217" stroke-linecap="round" stroke-opacity=".99216" stroke-width=".5"/><path d="m80.062 370.38c-1.375 2.375-2.8125 4.25-2.8125 5.6875s2.5 7.1875 2.5 7.1875" color="#000000" fill="none" stroke="#694217" stroke-linecap="round" stroke-opacity=".99216" stroke-width=".5"/><path d="m77.125 379.81c-0.75-1.6875-1.1155-2.3126-1.125-3-0.01721-1.2481 0.91575-3.2641 1.4375-3.9062" color="#000000" fill="none" stroke="#694217" stroke-linecap="round" stroke-opacity=".99216" stroke-width=".5"/><path d="m71.227 375.97c2.3583 0.53596 4.7423 0.58321 7.1595 0v0.88388c-2.266 0.62668-4.6008 0.89521-7.1595 0v-0.88388z" color="#000000"/></g><use transform="translate(160.51 2.1495e-8)" width="300" height="300" xlink:href="#c"/><use id="d" transform="matrix(1 0 0 1.1708 21.213 -199.11)" width="300" height="300" xlink:href="#c"/><use transform="translate(117.03 2.1495e-8)" width="300" height="300" xlink:href="#d"/></svg>
